%TF.GenerationSoftware,KiCad,Pcbnew,5.1.5+dfsg1-2build2*%
%TF.CreationDate,2021-11-19T21:10:00+05:30*%
%TF.ProjectId,Meshmerize,4d657368-6d65-4726-997a-652e6b696361,rev?*%
%TF.SameCoordinates,Original*%
%TF.FileFunction,Soldermask,Top*%
%TF.FilePolarity,Negative*%
%FSLAX46Y46*%
G04 Gerber Fmt 4.6, Leading zero omitted, Abs format (unit mm)*
G04 Created by KiCad (PCBNEW 5.1.5+dfsg1-2build2) date 2021-11-19 21:10:00*
%MOMM*%
%LPD*%
G04 APERTURE LIST*
%ADD10C,0.100000*%
%ADD11R,3.050000X2.200000*%
%ADD12C,1.218000*%
%ADD13R,1.218000X1.218000*%
%ADD14C,1.560000*%
%ADD15R,1.560000X1.560000*%
%ADD16R,1.308000X1.308000*%
%ADD17C,1.308000*%
%ADD18R,3.180000X2.250000*%
%ADD19C,1.524000*%
%ADD20C,2.500000*%
%ADD21C,1.000000*%
%ADD22C,1.500000*%
%ADD23R,1.524000X1.524000*%
%ADD24C,3.406000*%
%ADD25C,4.466000*%
%ADD26R,6.350000X7.350000*%
%ADD27R,0.650000X1.060000*%
%ADD28C,2.200000*%
%ADD29O,1.700000X1.700000*%
%ADD30R,1.700000X1.700000*%
G04 APERTURE END LIST*
D10*
%TO.C,C2*%
G36*
X172494022Y-85703254D02*
G01*
X172517683Y-85706764D01*
X172540887Y-85712576D01*
X172563409Y-85720634D01*
X172585033Y-85730862D01*
X172605550Y-85743159D01*
X172624763Y-85757409D01*
X172642487Y-85773473D01*
X172658551Y-85791197D01*
X172672801Y-85810410D01*
X172685098Y-85830927D01*
X172695326Y-85852551D01*
X172703384Y-85875073D01*
X172709196Y-85898277D01*
X172712706Y-85921938D01*
X172713880Y-85945830D01*
X172713880Y-86433330D01*
X172712706Y-86457222D01*
X172709196Y-86480883D01*
X172703384Y-86504087D01*
X172695326Y-86526609D01*
X172685098Y-86548233D01*
X172672801Y-86568750D01*
X172658551Y-86587963D01*
X172642487Y-86605687D01*
X172624763Y-86621751D01*
X172605550Y-86636001D01*
X172585033Y-86648298D01*
X172563409Y-86658526D01*
X172540887Y-86666584D01*
X172517683Y-86672396D01*
X172494022Y-86675906D01*
X172470130Y-86677080D01*
X171557630Y-86677080D01*
X171533738Y-86675906D01*
X171510077Y-86672396D01*
X171486873Y-86666584D01*
X171464351Y-86658526D01*
X171442727Y-86648298D01*
X171422210Y-86636001D01*
X171402997Y-86621751D01*
X171385273Y-86605687D01*
X171369209Y-86587963D01*
X171354959Y-86568750D01*
X171342662Y-86548233D01*
X171332434Y-86526609D01*
X171324376Y-86504087D01*
X171318564Y-86480883D01*
X171315054Y-86457222D01*
X171313880Y-86433330D01*
X171313880Y-85945830D01*
X171315054Y-85921938D01*
X171318564Y-85898277D01*
X171324376Y-85875073D01*
X171332434Y-85852551D01*
X171342662Y-85830927D01*
X171354959Y-85810410D01*
X171369209Y-85791197D01*
X171385273Y-85773473D01*
X171402997Y-85757409D01*
X171422210Y-85743159D01*
X171442727Y-85730862D01*
X171464351Y-85720634D01*
X171486873Y-85712576D01*
X171510077Y-85706764D01*
X171533738Y-85703254D01*
X171557630Y-85702080D01*
X172470130Y-85702080D01*
X172494022Y-85703254D01*
G37*
G36*
X172494022Y-87578254D02*
G01*
X172517683Y-87581764D01*
X172540887Y-87587576D01*
X172563409Y-87595634D01*
X172585033Y-87605862D01*
X172605550Y-87618159D01*
X172624763Y-87632409D01*
X172642487Y-87648473D01*
X172658551Y-87666197D01*
X172672801Y-87685410D01*
X172685098Y-87705927D01*
X172695326Y-87727551D01*
X172703384Y-87750073D01*
X172709196Y-87773277D01*
X172712706Y-87796938D01*
X172713880Y-87820830D01*
X172713880Y-88308330D01*
X172712706Y-88332222D01*
X172709196Y-88355883D01*
X172703384Y-88379087D01*
X172695326Y-88401609D01*
X172685098Y-88423233D01*
X172672801Y-88443750D01*
X172658551Y-88462963D01*
X172642487Y-88480687D01*
X172624763Y-88496751D01*
X172605550Y-88511001D01*
X172585033Y-88523298D01*
X172563409Y-88533526D01*
X172540887Y-88541584D01*
X172517683Y-88547396D01*
X172494022Y-88550906D01*
X172470130Y-88552080D01*
X171557630Y-88552080D01*
X171533738Y-88550906D01*
X171510077Y-88547396D01*
X171486873Y-88541584D01*
X171464351Y-88533526D01*
X171442727Y-88523298D01*
X171422210Y-88511001D01*
X171402997Y-88496751D01*
X171385273Y-88480687D01*
X171369209Y-88462963D01*
X171354959Y-88443750D01*
X171342662Y-88423233D01*
X171332434Y-88401609D01*
X171324376Y-88379087D01*
X171318564Y-88355883D01*
X171315054Y-88332222D01*
X171313880Y-88308330D01*
X171313880Y-87820830D01*
X171315054Y-87796938D01*
X171318564Y-87773277D01*
X171324376Y-87750073D01*
X171332434Y-87727551D01*
X171342662Y-87705927D01*
X171354959Y-87685410D01*
X171369209Y-87666197D01*
X171385273Y-87648473D01*
X171402997Y-87632409D01*
X171422210Y-87618159D01*
X171442727Y-87605862D01*
X171464351Y-87595634D01*
X171486873Y-87587576D01*
X171510077Y-87581764D01*
X171533738Y-87578254D01*
X171557630Y-87577080D01*
X172470130Y-87577080D01*
X172494022Y-87578254D01*
G37*
%TD*%
%TO.C,C1*%
G36*
X169668102Y-82679214D02*
G01*
X169691763Y-82682724D01*
X169714967Y-82688536D01*
X169737489Y-82696594D01*
X169759113Y-82706822D01*
X169779630Y-82719119D01*
X169798843Y-82733369D01*
X169816567Y-82749433D01*
X169832631Y-82767157D01*
X169846881Y-82786370D01*
X169859178Y-82806887D01*
X169869406Y-82828511D01*
X169877464Y-82851033D01*
X169883276Y-82874237D01*
X169886786Y-82897898D01*
X169887960Y-82921790D01*
X169887960Y-83834290D01*
X169886786Y-83858182D01*
X169883276Y-83881843D01*
X169877464Y-83905047D01*
X169869406Y-83927569D01*
X169859178Y-83949193D01*
X169846881Y-83969710D01*
X169832631Y-83988923D01*
X169816567Y-84006647D01*
X169798843Y-84022711D01*
X169779630Y-84036961D01*
X169759113Y-84049258D01*
X169737489Y-84059486D01*
X169714967Y-84067544D01*
X169691763Y-84073356D01*
X169668102Y-84076866D01*
X169644210Y-84078040D01*
X169156710Y-84078040D01*
X169132818Y-84076866D01*
X169109157Y-84073356D01*
X169085953Y-84067544D01*
X169063431Y-84059486D01*
X169041807Y-84049258D01*
X169021290Y-84036961D01*
X169002077Y-84022711D01*
X168984353Y-84006647D01*
X168968289Y-83988923D01*
X168954039Y-83969710D01*
X168941742Y-83949193D01*
X168931514Y-83927569D01*
X168923456Y-83905047D01*
X168917644Y-83881843D01*
X168914134Y-83858182D01*
X168912960Y-83834290D01*
X168912960Y-82921790D01*
X168914134Y-82897898D01*
X168917644Y-82874237D01*
X168923456Y-82851033D01*
X168931514Y-82828511D01*
X168941742Y-82806887D01*
X168954039Y-82786370D01*
X168968289Y-82767157D01*
X168984353Y-82749433D01*
X169002077Y-82733369D01*
X169021290Y-82719119D01*
X169041807Y-82706822D01*
X169063431Y-82696594D01*
X169085953Y-82688536D01*
X169109157Y-82682724D01*
X169132818Y-82679214D01*
X169156710Y-82678040D01*
X169644210Y-82678040D01*
X169668102Y-82679214D01*
G37*
G36*
X167793102Y-82679214D02*
G01*
X167816763Y-82682724D01*
X167839967Y-82688536D01*
X167862489Y-82696594D01*
X167884113Y-82706822D01*
X167904630Y-82719119D01*
X167923843Y-82733369D01*
X167941567Y-82749433D01*
X167957631Y-82767157D01*
X167971881Y-82786370D01*
X167984178Y-82806887D01*
X167994406Y-82828511D01*
X168002464Y-82851033D01*
X168008276Y-82874237D01*
X168011786Y-82897898D01*
X168012960Y-82921790D01*
X168012960Y-83834290D01*
X168011786Y-83858182D01*
X168008276Y-83881843D01*
X168002464Y-83905047D01*
X167994406Y-83927569D01*
X167984178Y-83949193D01*
X167971881Y-83969710D01*
X167957631Y-83988923D01*
X167941567Y-84006647D01*
X167923843Y-84022711D01*
X167904630Y-84036961D01*
X167884113Y-84049258D01*
X167862489Y-84059486D01*
X167839967Y-84067544D01*
X167816763Y-84073356D01*
X167793102Y-84076866D01*
X167769210Y-84078040D01*
X167281710Y-84078040D01*
X167257818Y-84076866D01*
X167234157Y-84073356D01*
X167210953Y-84067544D01*
X167188431Y-84059486D01*
X167166807Y-84049258D01*
X167146290Y-84036961D01*
X167127077Y-84022711D01*
X167109353Y-84006647D01*
X167093289Y-83988923D01*
X167079039Y-83969710D01*
X167066742Y-83949193D01*
X167056514Y-83927569D01*
X167048456Y-83905047D01*
X167042644Y-83881843D01*
X167039134Y-83858182D01*
X167037960Y-83834290D01*
X167037960Y-82921790D01*
X167039134Y-82897898D01*
X167042644Y-82874237D01*
X167048456Y-82851033D01*
X167056514Y-82828511D01*
X167066742Y-82806887D01*
X167079039Y-82786370D01*
X167093289Y-82767157D01*
X167109353Y-82749433D01*
X167127077Y-82733369D01*
X167146290Y-82719119D01*
X167166807Y-82706822D01*
X167188431Y-82696594D01*
X167210953Y-82688536D01*
X167234157Y-82682724D01*
X167257818Y-82679214D01*
X167281710Y-82678040D01*
X167769210Y-82678040D01*
X167793102Y-82679214D01*
G37*
%TD*%
D11*
%TO.C,L1*%
X159923480Y-89897480D03*
X159923480Y-80597480D03*
%TD*%
D12*
%TO.C,RV2*%
X188239400Y-63601600D03*
X185699400Y-63601600D03*
D13*
X183159400Y-63601600D03*
%TD*%
D14*
%TO.C,U2*%
X133893560Y-116028400D03*
X133893560Y-113488400D03*
X133893560Y-110948400D03*
X133893560Y-108408400D03*
X133893560Y-105868400D03*
X133893560Y-103328400D03*
X133893560Y-100788400D03*
X133893560Y-98248400D03*
X133893560Y-95708400D03*
X133893560Y-93168400D03*
X133893560Y-90628400D03*
X133893560Y-88088400D03*
X133893560Y-85548400D03*
X133893560Y-83008400D03*
X133893560Y-80468400D03*
X133893560Y-77928400D03*
X133893560Y-75388400D03*
X133893560Y-72848400D03*
X133893560Y-70308400D03*
X108493560Y-113488400D03*
X108493560Y-110948400D03*
X108493560Y-108408400D03*
X108493560Y-105868400D03*
X108493560Y-103328400D03*
X108493560Y-100788400D03*
X108493560Y-98248400D03*
X108493560Y-95708400D03*
X108493560Y-93168400D03*
X108493560Y-90628400D03*
X108493560Y-88088400D03*
X108493560Y-85548400D03*
X108493560Y-83008400D03*
X108493560Y-80468400D03*
X108493560Y-77928400D03*
X108493560Y-75388400D03*
X108493560Y-116028400D03*
X108493560Y-72848400D03*
D15*
X108493560Y-70308400D03*
%TD*%
D10*
%TO.C,R15*%
G36*
X100268307Y-85368904D02*
G01*
X100292575Y-85372504D01*
X100316373Y-85378465D01*
X100339473Y-85386730D01*
X100361651Y-85397219D01*
X100382694Y-85409832D01*
X100402399Y-85424447D01*
X100420578Y-85440922D01*
X100437053Y-85459101D01*
X100451668Y-85478806D01*
X100464281Y-85499849D01*
X100474770Y-85522027D01*
X100483035Y-85545127D01*
X100488996Y-85568925D01*
X100492596Y-85593193D01*
X100493800Y-85617697D01*
X100493800Y-86242703D01*
X100492596Y-86267207D01*
X100488996Y-86291475D01*
X100483035Y-86315273D01*
X100474770Y-86338373D01*
X100464281Y-86360551D01*
X100451668Y-86381594D01*
X100437053Y-86401299D01*
X100420578Y-86419478D01*
X100402399Y-86435953D01*
X100382694Y-86450568D01*
X100361651Y-86463181D01*
X100339473Y-86473670D01*
X100316373Y-86481935D01*
X100292575Y-86487896D01*
X100268307Y-86491496D01*
X100243803Y-86492700D01*
X98993797Y-86492700D01*
X98969293Y-86491496D01*
X98945025Y-86487896D01*
X98921227Y-86481935D01*
X98898127Y-86473670D01*
X98875949Y-86463181D01*
X98854906Y-86450568D01*
X98835201Y-86435953D01*
X98817022Y-86419478D01*
X98800547Y-86401299D01*
X98785932Y-86381594D01*
X98773319Y-86360551D01*
X98762830Y-86338373D01*
X98754565Y-86315273D01*
X98748604Y-86291475D01*
X98745004Y-86267207D01*
X98743800Y-86242703D01*
X98743800Y-85617697D01*
X98745004Y-85593193D01*
X98748604Y-85568925D01*
X98754565Y-85545127D01*
X98762830Y-85522027D01*
X98773319Y-85499849D01*
X98785932Y-85478806D01*
X98800547Y-85459101D01*
X98817022Y-85440922D01*
X98835201Y-85424447D01*
X98854906Y-85409832D01*
X98875949Y-85397219D01*
X98898127Y-85386730D01*
X98921227Y-85378465D01*
X98945025Y-85372504D01*
X98969293Y-85368904D01*
X98993797Y-85367700D01*
X100243803Y-85367700D01*
X100268307Y-85368904D01*
G37*
G36*
X100268307Y-82443904D02*
G01*
X100292575Y-82447504D01*
X100316373Y-82453465D01*
X100339473Y-82461730D01*
X100361651Y-82472219D01*
X100382694Y-82484832D01*
X100402399Y-82499447D01*
X100420578Y-82515922D01*
X100437053Y-82534101D01*
X100451668Y-82553806D01*
X100464281Y-82574849D01*
X100474770Y-82597027D01*
X100483035Y-82620127D01*
X100488996Y-82643925D01*
X100492596Y-82668193D01*
X100493800Y-82692697D01*
X100493800Y-83317703D01*
X100492596Y-83342207D01*
X100488996Y-83366475D01*
X100483035Y-83390273D01*
X100474770Y-83413373D01*
X100464281Y-83435551D01*
X100451668Y-83456594D01*
X100437053Y-83476299D01*
X100420578Y-83494478D01*
X100402399Y-83510953D01*
X100382694Y-83525568D01*
X100361651Y-83538181D01*
X100339473Y-83548670D01*
X100316373Y-83556935D01*
X100292575Y-83562896D01*
X100268307Y-83566496D01*
X100243803Y-83567700D01*
X98993797Y-83567700D01*
X98969293Y-83566496D01*
X98945025Y-83562896D01*
X98921227Y-83556935D01*
X98898127Y-83548670D01*
X98875949Y-83538181D01*
X98854906Y-83525568D01*
X98835201Y-83510953D01*
X98817022Y-83494478D01*
X98800547Y-83476299D01*
X98785932Y-83456594D01*
X98773319Y-83435551D01*
X98762830Y-83413373D01*
X98754565Y-83390273D01*
X98748604Y-83366475D01*
X98745004Y-83342207D01*
X98743800Y-83317703D01*
X98743800Y-82692697D01*
X98745004Y-82668193D01*
X98748604Y-82643925D01*
X98754565Y-82620127D01*
X98762830Y-82597027D01*
X98773319Y-82574849D01*
X98785932Y-82553806D01*
X98800547Y-82534101D01*
X98817022Y-82515922D01*
X98835201Y-82499447D01*
X98854906Y-82484832D01*
X98875949Y-82472219D01*
X98898127Y-82461730D01*
X98921227Y-82453465D01*
X98945025Y-82447504D01*
X98969293Y-82443904D01*
X98993797Y-82442700D01*
X100243803Y-82442700D01*
X100268307Y-82443904D01*
G37*
%TD*%
%TO.C,U1*%
G36*
X178917203Y-66143722D02*
G01*
X178931764Y-66145882D01*
X178946043Y-66149459D01*
X178959903Y-66154418D01*
X178973210Y-66160712D01*
X178985836Y-66168280D01*
X178997659Y-66177048D01*
X179008566Y-66186934D01*
X179018452Y-66197841D01*
X179027220Y-66209664D01*
X179034788Y-66222290D01*
X179041082Y-66235597D01*
X179046041Y-66249457D01*
X179049618Y-66263736D01*
X179051778Y-66278297D01*
X179052500Y-66293000D01*
X179052500Y-67943000D01*
X179051778Y-67957703D01*
X179049618Y-67972264D01*
X179046041Y-67986543D01*
X179041082Y-68000403D01*
X179034788Y-68013710D01*
X179027220Y-68026336D01*
X179018452Y-68038159D01*
X179008566Y-68049066D01*
X178997659Y-68058952D01*
X178985836Y-68067720D01*
X178973210Y-68075288D01*
X178959903Y-68081582D01*
X178946043Y-68086541D01*
X178931764Y-68090118D01*
X178917203Y-68092278D01*
X178902500Y-68093000D01*
X178602500Y-68093000D01*
X178587797Y-68092278D01*
X178573236Y-68090118D01*
X178558957Y-68086541D01*
X178545097Y-68081582D01*
X178531790Y-68075288D01*
X178519164Y-68067720D01*
X178507341Y-68058952D01*
X178496434Y-68049066D01*
X178486548Y-68038159D01*
X178477780Y-68026336D01*
X178470212Y-68013710D01*
X178463918Y-68000403D01*
X178458959Y-67986543D01*
X178455382Y-67972264D01*
X178453222Y-67957703D01*
X178452500Y-67943000D01*
X178452500Y-66293000D01*
X178453222Y-66278297D01*
X178455382Y-66263736D01*
X178458959Y-66249457D01*
X178463918Y-66235597D01*
X178470212Y-66222290D01*
X178477780Y-66209664D01*
X178486548Y-66197841D01*
X178496434Y-66186934D01*
X178507341Y-66177048D01*
X178519164Y-66168280D01*
X178531790Y-66160712D01*
X178545097Y-66154418D01*
X178558957Y-66149459D01*
X178573236Y-66145882D01*
X178587797Y-66143722D01*
X178602500Y-66143000D01*
X178902500Y-66143000D01*
X178917203Y-66143722D01*
G37*
G36*
X177647203Y-66143722D02*
G01*
X177661764Y-66145882D01*
X177676043Y-66149459D01*
X177689903Y-66154418D01*
X177703210Y-66160712D01*
X177715836Y-66168280D01*
X177727659Y-66177048D01*
X177738566Y-66186934D01*
X177748452Y-66197841D01*
X177757220Y-66209664D01*
X177764788Y-66222290D01*
X177771082Y-66235597D01*
X177776041Y-66249457D01*
X177779618Y-66263736D01*
X177781778Y-66278297D01*
X177782500Y-66293000D01*
X177782500Y-67943000D01*
X177781778Y-67957703D01*
X177779618Y-67972264D01*
X177776041Y-67986543D01*
X177771082Y-68000403D01*
X177764788Y-68013710D01*
X177757220Y-68026336D01*
X177748452Y-68038159D01*
X177738566Y-68049066D01*
X177727659Y-68058952D01*
X177715836Y-68067720D01*
X177703210Y-68075288D01*
X177689903Y-68081582D01*
X177676043Y-68086541D01*
X177661764Y-68090118D01*
X177647203Y-68092278D01*
X177632500Y-68093000D01*
X177332500Y-68093000D01*
X177317797Y-68092278D01*
X177303236Y-68090118D01*
X177288957Y-68086541D01*
X177275097Y-68081582D01*
X177261790Y-68075288D01*
X177249164Y-68067720D01*
X177237341Y-68058952D01*
X177226434Y-68049066D01*
X177216548Y-68038159D01*
X177207780Y-68026336D01*
X177200212Y-68013710D01*
X177193918Y-68000403D01*
X177188959Y-67986543D01*
X177185382Y-67972264D01*
X177183222Y-67957703D01*
X177182500Y-67943000D01*
X177182500Y-66293000D01*
X177183222Y-66278297D01*
X177185382Y-66263736D01*
X177188959Y-66249457D01*
X177193918Y-66235597D01*
X177200212Y-66222290D01*
X177207780Y-66209664D01*
X177216548Y-66197841D01*
X177226434Y-66186934D01*
X177237341Y-66177048D01*
X177249164Y-66168280D01*
X177261790Y-66160712D01*
X177275097Y-66154418D01*
X177288957Y-66149459D01*
X177303236Y-66145882D01*
X177317797Y-66143722D01*
X177332500Y-66143000D01*
X177632500Y-66143000D01*
X177647203Y-66143722D01*
G37*
G36*
X176377203Y-66143722D02*
G01*
X176391764Y-66145882D01*
X176406043Y-66149459D01*
X176419903Y-66154418D01*
X176433210Y-66160712D01*
X176445836Y-66168280D01*
X176457659Y-66177048D01*
X176468566Y-66186934D01*
X176478452Y-66197841D01*
X176487220Y-66209664D01*
X176494788Y-66222290D01*
X176501082Y-66235597D01*
X176506041Y-66249457D01*
X176509618Y-66263736D01*
X176511778Y-66278297D01*
X176512500Y-66293000D01*
X176512500Y-67943000D01*
X176511778Y-67957703D01*
X176509618Y-67972264D01*
X176506041Y-67986543D01*
X176501082Y-68000403D01*
X176494788Y-68013710D01*
X176487220Y-68026336D01*
X176478452Y-68038159D01*
X176468566Y-68049066D01*
X176457659Y-68058952D01*
X176445836Y-68067720D01*
X176433210Y-68075288D01*
X176419903Y-68081582D01*
X176406043Y-68086541D01*
X176391764Y-68090118D01*
X176377203Y-68092278D01*
X176362500Y-68093000D01*
X176062500Y-68093000D01*
X176047797Y-68092278D01*
X176033236Y-68090118D01*
X176018957Y-68086541D01*
X176005097Y-68081582D01*
X175991790Y-68075288D01*
X175979164Y-68067720D01*
X175967341Y-68058952D01*
X175956434Y-68049066D01*
X175946548Y-68038159D01*
X175937780Y-68026336D01*
X175930212Y-68013710D01*
X175923918Y-68000403D01*
X175918959Y-67986543D01*
X175915382Y-67972264D01*
X175913222Y-67957703D01*
X175912500Y-67943000D01*
X175912500Y-66293000D01*
X175913222Y-66278297D01*
X175915382Y-66263736D01*
X175918959Y-66249457D01*
X175923918Y-66235597D01*
X175930212Y-66222290D01*
X175937780Y-66209664D01*
X175946548Y-66197841D01*
X175956434Y-66186934D01*
X175967341Y-66177048D01*
X175979164Y-66168280D01*
X175991790Y-66160712D01*
X176005097Y-66154418D01*
X176018957Y-66149459D01*
X176033236Y-66145882D01*
X176047797Y-66143722D01*
X176062500Y-66143000D01*
X176362500Y-66143000D01*
X176377203Y-66143722D01*
G37*
G36*
X175107203Y-66143722D02*
G01*
X175121764Y-66145882D01*
X175136043Y-66149459D01*
X175149903Y-66154418D01*
X175163210Y-66160712D01*
X175175836Y-66168280D01*
X175187659Y-66177048D01*
X175198566Y-66186934D01*
X175208452Y-66197841D01*
X175217220Y-66209664D01*
X175224788Y-66222290D01*
X175231082Y-66235597D01*
X175236041Y-66249457D01*
X175239618Y-66263736D01*
X175241778Y-66278297D01*
X175242500Y-66293000D01*
X175242500Y-67943000D01*
X175241778Y-67957703D01*
X175239618Y-67972264D01*
X175236041Y-67986543D01*
X175231082Y-68000403D01*
X175224788Y-68013710D01*
X175217220Y-68026336D01*
X175208452Y-68038159D01*
X175198566Y-68049066D01*
X175187659Y-68058952D01*
X175175836Y-68067720D01*
X175163210Y-68075288D01*
X175149903Y-68081582D01*
X175136043Y-68086541D01*
X175121764Y-68090118D01*
X175107203Y-68092278D01*
X175092500Y-68093000D01*
X174792500Y-68093000D01*
X174777797Y-68092278D01*
X174763236Y-68090118D01*
X174748957Y-68086541D01*
X174735097Y-68081582D01*
X174721790Y-68075288D01*
X174709164Y-68067720D01*
X174697341Y-68058952D01*
X174686434Y-68049066D01*
X174676548Y-68038159D01*
X174667780Y-68026336D01*
X174660212Y-68013710D01*
X174653918Y-68000403D01*
X174648959Y-67986543D01*
X174645382Y-67972264D01*
X174643222Y-67957703D01*
X174642500Y-67943000D01*
X174642500Y-66293000D01*
X174643222Y-66278297D01*
X174645382Y-66263736D01*
X174648959Y-66249457D01*
X174653918Y-66235597D01*
X174660212Y-66222290D01*
X174667780Y-66209664D01*
X174676548Y-66197841D01*
X174686434Y-66186934D01*
X174697341Y-66177048D01*
X174709164Y-66168280D01*
X174721790Y-66160712D01*
X174735097Y-66154418D01*
X174748957Y-66149459D01*
X174763236Y-66145882D01*
X174777797Y-66143722D01*
X174792500Y-66143000D01*
X175092500Y-66143000D01*
X175107203Y-66143722D01*
G37*
G36*
X173837203Y-66143722D02*
G01*
X173851764Y-66145882D01*
X173866043Y-66149459D01*
X173879903Y-66154418D01*
X173893210Y-66160712D01*
X173905836Y-66168280D01*
X173917659Y-66177048D01*
X173928566Y-66186934D01*
X173938452Y-66197841D01*
X173947220Y-66209664D01*
X173954788Y-66222290D01*
X173961082Y-66235597D01*
X173966041Y-66249457D01*
X173969618Y-66263736D01*
X173971778Y-66278297D01*
X173972500Y-66293000D01*
X173972500Y-67943000D01*
X173971778Y-67957703D01*
X173969618Y-67972264D01*
X173966041Y-67986543D01*
X173961082Y-68000403D01*
X173954788Y-68013710D01*
X173947220Y-68026336D01*
X173938452Y-68038159D01*
X173928566Y-68049066D01*
X173917659Y-68058952D01*
X173905836Y-68067720D01*
X173893210Y-68075288D01*
X173879903Y-68081582D01*
X173866043Y-68086541D01*
X173851764Y-68090118D01*
X173837203Y-68092278D01*
X173822500Y-68093000D01*
X173522500Y-68093000D01*
X173507797Y-68092278D01*
X173493236Y-68090118D01*
X173478957Y-68086541D01*
X173465097Y-68081582D01*
X173451790Y-68075288D01*
X173439164Y-68067720D01*
X173427341Y-68058952D01*
X173416434Y-68049066D01*
X173406548Y-68038159D01*
X173397780Y-68026336D01*
X173390212Y-68013710D01*
X173383918Y-68000403D01*
X173378959Y-67986543D01*
X173375382Y-67972264D01*
X173373222Y-67957703D01*
X173372500Y-67943000D01*
X173372500Y-66293000D01*
X173373222Y-66278297D01*
X173375382Y-66263736D01*
X173378959Y-66249457D01*
X173383918Y-66235597D01*
X173390212Y-66222290D01*
X173397780Y-66209664D01*
X173406548Y-66197841D01*
X173416434Y-66186934D01*
X173427341Y-66177048D01*
X173439164Y-66168280D01*
X173451790Y-66160712D01*
X173465097Y-66154418D01*
X173478957Y-66149459D01*
X173493236Y-66145882D01*
X173507797Y-66143722D01*
X173522500Y-66143000D01*
X173822500Y-66143000D01*
X173837203Y-66143722D01*
G37*
G36*
X172567203Y-66143722D02*
G01*
X172581764Y-66145882D01*
X172596043Y-66149459D01*
X172609903Y-66154418D01*
X172623210Y-66160712D01*
X172635836Y-66168280D01*
X172647659Y-66177048D01*
X172658566Y-66186934D01*
X172668452Y-66197841D01*
X172677220Y-66209664D01*
X172684788Y-66222290D01*
X172691082Y-66235597D01*
X172696041Y-66249457D01*
X172699618Y-66263736D01*
X172701778Y-66278297D01*
X172702500Y-66293000D01*
X172702500Y-67943000D01*
X172701778Y-67957703D01*
X172699618Y-67972264D01*
X172696041Y-67986543D01*
X172691082Y-68000403D01*
X172684788Y-68013710D01*
X172677220Y-68026336D01*
X172668452Y-68038159D01*
X172658566Y-68049066D01*
X172647659Y-68058952D01*
X172635836Y-68067720D01*
X172623210Y-68075288D01*
X172609903Y-68081582D01*
X172596043Y-68086541D01*
X172581764Y-68090118D01*
X172567203Y-68092278D01*
X172552500Y-68093000D01*
X172252500Y-68093000D01*
X172237797Y-68092278D01*
X172223236Y-68090118D01*
X172208957Y-68086541D01*
X172195097Y-68081582D01*
X172181790Y-68075288D01*
X172169164Y-68067720D01*
X172157341Y-68058952D01*
X172146434Y-68049066D01*
X172136548Y-68038159D01*
X172127780Y-68026336D01*
X172120212Y-68013710D01*
X172113918Y-68000403D01*
X172108959Y-67986543D01*
X172105382Y-67972264D01*
X172103222Y-67957703D01*
X172102500Y-67943000D01*
X172102500Y-66293000D01*
X172103222Y-66278297D01*
X172105382Y-66263736D01*
X172108959Y-66249457D01*
X172113918Y-66235597D01*
X172120212Y-66222290D01*
X172127780Y-66209664D01*
X172136548Y-66197841D01*
X172146434Y-66186934D01*
X172157341Y-66177048D01*
X172169164Y-66168280D01*
X172181790Y-66160712D01*
X172195097Y-66154418D01*
X172208957Y-66149459D01*
X172223236Y-66145882D01*
X172237797Y-66143722D01*
X172252500Y-66143000D01*
X172552500Y-66143000D01*
X172567203Y-66143722D01*
G37*
G36*
X171297203Y-66143722D02*
G01*
X171311764Y-66145882D01*
X171326043Y-66149459D01*
X171339903Y-66154418D01*
X171353210Y-66160712D01*
X171365836Y-66168280D01*
X171377659Y-66177048D01*
X171388566Y-66186934D01*
X171398452Y-66197841D01*
X171407220Y-66209664D01*
X171414788Y-66222290D01*
X171421082Y-66235597D01*
X171426041Y-66249457D01*
X171429618Y-66263736D01*
X171431778Y-66278297D01*
X171432500Y-66293000D01*
X171432500Y-67943000D01*
X171431778Y-67957703D01*
X171429618Y-67972264D01*
X171426041Y-67986543D01*
X171421082Y-68000403D01*
X171414788Y-68013710D01*
X171407220Y-68026336D01*
X171398452Y-68038159D01*
X171388566Y-68049066D01*
X171377659Y-68058952D01*
X171365836Y-68067720D01*
X171353210Y-68075288D01*
X171339903Y-68081582D01*
X171326043Y-68086541D01*
X171311764Y-68090118D01*
X171297203Y-68092278D01*
X171282500Y-68093000D01*
X170982500Y-68093000D01*
X170967797Y-68092278D01*
X170953236Y-68090118D01*
X170938957Y-68086541D01*
X170925097Y-68081582D01*
X170911790Y-68075288D01*
X170899164Y-68067720D01*
X170887341Y-68058952D01*
X170876434Y-68049066D01*
X170866548Y-68038159D01*
X170857780Y-68026336D01*
X170850212Y-68013710D01*
X170843918Y-68000403D01*
X170838959Y-67986543D01*
X170835382Y-67972264D01*
X170833222Y-67957703D01*
X170832500Y-67943000D01*
X170832500Y-66293000D01*
X170833222Y-66278297D01*
X170835382Y-66263736D01*
X170838959Y-66249457D01*
X170843918Y-66235597D01*
X170850212Y-66222290D01*
X170857780Y-66209664D01*
X170866548Y-66197841D01*
X170876434Y-66186934D01*
X170887341Y-66177048D01*
X170899164Y-66168280D01*
X170911790Y-66160712D01*
X170925097Y-66154418D01*
X170938957Y-66149459D01*
X170953236Y-66145882D01*
X170967797Y-66143722D01*
X170982500Y-66143000D01*
X171282500Y-66143000D01*
X171297203Y-66143722D01*
G37*
G36*
X171297203Y-61193722D02*
G01*
X171311764Y-61195882D01*
X171326043Y-61199459D01*
X171339903Y-61204418D01*
X171353210Y-61210712D01*
X171365836Y-61218280D01*
X171377659Y-61227048D01*
X171388566Y-61236934D01*
X171398452Y-61247841D01*
X171407220Y-61259664D01*
X171414788Y-61272290D01*
X171421082Y-61285597D01*
X171426041Y-61299457D01*
X171429618Y-61313736D01*
X171431778Y-61328297D01*
X171432500Y-61343000D01*
X171432500Y-62993000D01*
X171431778Y-63007703D01*
X171429618Y-63022264D01*
X171426041Y-63036543D01*
X171421082Y-63050403D01*
X171414788Y-63063710D01*
X171407220Y-63076336D01*
X171398452Y-63088159D01*
X171388566Y-63099066D01*
X171377659Y-63108952D01*
X171365836Y-63117720D01*
X171353210Y-63125288D01*
X171339903Y-63131582D01*
X171326043Y-63136541D01*
X171311764Y-63140118D01*
X171297203Y-63142278D01*
X171282500Y-63143000D01*
X170982500Y-63143000D01*
X170967797Y-63142278D01*
X170953236Y-63140118D01*
X170938957Y-63136541D01*
X170925097Y-63131582D01*
X170911790Y-63125288D01*
X170899164Y-63117720D01*
X170887341Y-63108952D01*
X170876434Y-63099066D01*
X170866548Y-63088159D01*
X170857780Y-63076336D01*
X170850212Y-63063710D01*
X170843918Y-63050403D01*
X170838959Y-63036543D01*
X170835382Y-63022264D01*
X170833222Y-63007703D01*
X170832500Y-62993000D01*
X170832500Y-61343000D01*
X170833222Y-61328297D01*
X170835382Y-61313736D01*
X170838959Y-61299457D01*
X170843918Y-61285597D01*
X170850212Y-61272290D01*
X170857780Y-61259664D01*
X170866548Y-61247841D01*
X170876434Y-61236934D01*
X170887341Y-61227048D01*
X170899164Y-61218280D01*
X170911790Y-61210712D01*
X170925097Y-61204418D01*
X170938957Y-61199459D01*
X170953236Y-61195882D01*
X170967797Y-61193722D01*
X170982500Y-61193000D01*
X171282500Y-61193000D01*
X171297203Y-61193722D01*
G37*
G36*
X172567203Y-61193722D02*
G01*
X172581764Y-61195882D01*
X172596043Y-61199459D01*
X172609903Y-61204418D01*
X172623210Y-61210712D01*
X172635836Y-61218280D01*
X172647659Y-61227048D01*
X172658566Y-61236934D01*
X172668452Y-61247841D01*
X172677220Y-61259664D01*
X172684788Y-61272290D01*
X172691082Y-61285597D01*
X172696041Y-61299457D01*
X172699618Y-61313736D01*
X172701778Y-61328297D01*
X172702500Y-61343000D01*
X172702500Y-62993000D01*
X172701778Y-63007703D01*
X172699618Y-63022264D01*
X172696041Y-63036543D01*
X172691082Y-63050403D01*
X172684788Y-63063710D01*
X172677220Y-63076336D01*
X172668452Y-63088159D01*
X172658566Y-63099066D01*
X172647659Y-63108952D01*
X172635836Y-63117720D01*
X172623210Y-63125288D01*
X172609903Y-63131582D01*
X172596043Y-63136541D01*
X172581764Y-63140118D01*
X172567203Y-63142278D01*
X172552500Y-63143000D01*
X172252500Y-63143000D01*
X172237797Y-63142278D01*
X172223236Y-63140118D01*
X172208957Y-63136541D01*
X172195097Y-63131582D01*
X172181790Y-63125288D01*
X172169164Y-63117720D01*
X172157341Y-63108952D01*
X172146434Y-63099066D01*
X172136548Y-63088159D01*
X172127780Y-63076336D01*
X172120212Y-63063710D01*
X172113918Y-63050403D01*
X172108959Y-63036543D01*
X172105382Y-63022264D01*
X172103222Y-63007703D01*
X172102500Y-62993000D01*
X172102500Y-61343000D01*
X172103222Y-61328297D01*
X172105382Y-61313736D01*
X172108959Y-61299457D01*
X172113918Y-61285597D01*
X172120212Y-61272290D01*
X172127780Y-61259664D01*
X172136548Y-61247841D01*
X172146434Y-61236934D01*
X172157341Y-61227048D01*
X172169164Y-61218280D01*
X172181790Y-61210712D01*
X172195097Y-61204418D01*
X172208957Y-61199459D01*
X172223236Y-61195882D01*
X172237797Y-61193722D01*
X172252500Y-61193000D01*
X172552500Y-61193000D01*
X172567203Y-61193722D01*
G37*
G36*
X173837203Y-61193722D02*
G01*
X173851764Y-61195882D01*
X173866043Y-61199459D01*
X173879903Y-61204418D01*
X173893210Y-61210712D01*
X173905836Y-61218280D01*
X173917659Y-61227048D01*
X173928566Y-61236934D01*
X173938452Y-61247841D01*
X173947220Y-61259664D01*
X173954788Y-61272290D01*
X173961082Y-61285597D01*
X173966041Y-61299457D01*
X173969618Y-61313736D01*
X173971778Y-61328297D01*
X173972500Y-61343000D01*
X173972500Y-62993000D01*
X173971778Y-63007703D01*
X173969618Y-63022264D01*
X173966041Y-63036543D01*
X173961082Y-63050403D01*
X173954788Y-63063710D01*
X173947220Y-63076336D01*
X173938452Y-63088159D01*
X173928566Y-63099066D01*
X173917659Y-63108952D01*
X173905836Y-63117720D01*
X173893210Y-63125288D01*
X173879903Y-63131582D01*
X173866043Y-63136541D01*
X173851764Y-63140118D01*
X173837203Y-63142278D01*
X173822500Y-63143000D01*
X173522500Y-63143000D01*
X173507797Y-63142278D01*
X173493236Y-63140118D01*
X173478957Y-63136541D01*
X173465097Y-63131582D01*
X173451790Y-63125288D01*
X173439164Y-63117720D01*
X173427341Y-63108952D01*
X173416434Y-63099066D01*
X173406548Y-63088159D01*
X173397780Y-63076336D01*
X173390212Y-63063710D01*
X173383918Y-63050403D01*
X173378959Y-63036543D01*
X173375382Y-63022264D01*
X173373222Y-63007703D01*
X173372500Y-62993000D01*
X173372500Y-61343000D01*
X173373222Y-61328297D01*
X173375382Y-61313736D01*
X173378959Y-61299457D01*
X173383918Y-61285597D01*
X173390212Y-61272290D01*
X173397780Y-61259664D01*
X173406548Y-61247841D01*
X173416434Y-61236934D01*
X173427341Y-61227048D01*
X173439164Y-61218280D01*
X173451790Y-61210712D01*
X173465097Y-61204418D01*
X173478957Y-61199459D01*
X173493236Y-61195882D01*
X173507797Y-61193722D01*
X173522500Y-61193000D01*
X173822500Y-61193000D01*
X173837203Y-61193722D01*
G37*
G36*
X175107203Y-61193722D02*
G01*
X175121764Y-61195882D01*
X175136043Y-61199459D01*
X175149903Y-61204418D01*
X175163210Y-61210712D01*
X175175836Y-61218280D01*
X175187659Y-61227048D01*
X175198566Y-61236934D01*
X175208452Y-61247841D01*
X175217220Y-61259664D01*
X175224788Y-61272290D01*
X175231082Y-61285597D01*
X175236041Y-61299457D01*
X175239618Y-61313736D01*
X175241778Y-61328297D01*
X175242500Y-61343000D01*
X175242500Y-62993000D01*
X175241778Y-63007703D01*
X175239618Y-63022264D01*
X175236041Y-63036543D01*
X175231082Y-63050403D01*
X175224788Y-63063710D01*
X175217220Y-63076336D01*
X175208452Y-63088159D01*
X175198566Y-63099066D01*
X175187659Y-63108952D01*
X175175836Y-63117720D01*
X175163210Y-63125288D01*
X175149903Y-63131582D01*
X175136043Y-63136541D01*
X175121764Y-63140118D01*
X175107203Y-63142278D01*
X175092500Y-63143000D01*
X174792500Y-63143000D01*
X174777797Y-63142278D01*
X174763236Y-63140118D01*
X174748957Y-63136541D01*
X174735097Y-63131582D01*
X174721790Y-63125288D01*
X174709164Y-63117720D01*
X174697341Y-63108952D01*
X174686434Y-63099066D01*
X174676548Y-63088159D01*
X174667780Y-63076336D01*
X174660212Y-63063710D01*
X174653918Y-63050403D01*
X174648959Y-63036543D01*
X174645382Y-63022264D01*
X174643222Y-63007703D01*
X174642500Y-62993000D01*
X174642500Y-61343000D01*
X174643222Y-61328297D01*
X174645382Y-61313736D01*
X174648959Y-61299457D01*
X174653918Y-61285597D01*
X174660212Y-61272290D01*
X174667780Y-61259664D01*
X174676548Y-61247841D01*
X174686434Y-61236934D01*
X174697341Y-61227048D01*
X174709164Y-61218280D01*
X174721790Y-61210712D01*
X174735097Y-61204418D01*
X174748957Y-61199459D01*
X174763236Y-61195882D01*
X174777797Y-61193722D01*
X174792500Y-61193000D01*
X175092500Y-61193000D01*
X175107203Y-61193722D01*
G37*
G36*
X176377203Y-61193722D02*
G01*
X176391764Y-61195882D01*
X176406043Y-61199459D01*
X176419903Y-61204418D01*
X176433210Y-61210712D01*
X176445836Y-61218280D01*
X176457659Y-61227048D01*
X176468566Y-61236934D01*
X176478452Y-61247841D01*
X176487220Y-61259664D01*
X176494788Y-61272290D01*
X176501082Y-61285597D01*
X176506041Y-61299457D01*
X176509618Y-61313736D01*
X176511778Y-61328297D01*
X176512500Y-61343000D01*
X176512500Y-62993000D01*
X176511778Y-63007703D01*
X176509618Y-63022264D01*
X176506041Y-63036543D01*
X176501082Y-63050403D01*
X176494788Y-63063710D01*
X176487220Y-63076336D01*
X176478452Y-63088159D01*
X176468566Y-63099066D01*
X176457659Y-63108952D01*
X176445836Y-63117720D01*
X176433210Y-63125288D01*
X176419903Y-63131582D01*
X176406043Y-63136541D01*
X176391764Y-63140118D01*
X176377203Y-63142278D01*
X176362500Y-63143000D01*
X176062500Y-63143000D01*
X176047797Y-63142278D01*
X176033236Y-63140118D01*
X176018957Y-63136541D01*
X176005097Y-63131582D01*
X175991790Y-63125288D01*
X175979164Y-63117720D01*
X175967341Y-63108952D01*
X175956434Y-63099066D01*
X175946548Y-63088159D01*
X175937780Y-63076336D01*
X175930212Y-63063710D01*
X175923918Y-63050403D01*
X175918959Y-63036543D01*
X175915382Y-63022264D01*
X175913222Y-63007703D01*
X175912500Y-62993000D01*
X175912500Y-61343000D01*
X175913222Y-61328297D01*
X175915382Y-61313736D01*
X175918959Y-61299457D01*
X175923918Y-61285597D01*
X175930212Y-61272290D01*
X175937780Y-61259664D01*
X175946548Y-61247841D01*
X175956434Y-61236934D01*
X175967341Y-61227048D01*
X175979164Y-61218280D01*
X175991790Y-61210712D01*
X176005097Y-61204418D01*
X176018957Y-61199459D01*
X176033236Y-61195882D01*
X176047797Y-61193722D01*
X176062500Y-61193000D01*
X176362500Y-61193000D01*
X176377203Y-61193722D01*
G37*
G36*
X177647203Y-61193722D02*
G01*
X177661764Y-61195882D01*
X177676043Y-61199459D01*
X177689903Y-61204418D01*
X177703210Y-61210712D01*
X177715836Y-61218280D01*
X177727659Y-61227048D01*
X177738566Y-61236934D01*
X177748452Y-61247841D01*
X177757220Y-61259664D01*
X177764788Y-61272290D01*
X177771082Y-61285597D01*
X177776041Y-61299457D01*
X177779618Y-61313736D01*
X177781778Y-61328297D01*
X177782500Y-61343000D01*
X177782500Y-62993000D01*
X177781778Y-63007703D01*
X177779618Y-63022264D01*
X177776041Y-63036543D01*
X177771082Y-63050403D01*
X177764788Y-63063710D01*
X177757220Y-63076336D01*
X177748452Y-63088159D01*
X177738566Y-63099066D01*
X177727659Y-63108952D01*
X177715836Y-63117720D01*
X177703210Y-63125288D01*
X177689903Y-63131582D01*
X177676043Y-63136541D01*
X177661764Y-63140118D01*
X177647203Y-63142278D01*
X177632500Y-63143000D01*
X177332500Y-63143000D01*
X177317797Y-63142278D01*
X177303236Y-63140118D01*
X177288957Y-63136541D01*
X177275097Y-63131582D01*
X177261790Y-63125288D01*
X177249164Y-63117720D01*
X177237341Y-63108952D01*
X177226434Y-63099066D01*
X177216548Y-63088159D01*
X177207780Y-63076336D01*
X177200212Y-63063710D01*
X177193918Y-63050403D01*
X177188959Y-63036543D01*
X177185382Y-63022264D01*
X177183222Y-63007703D01*
X177182500Y-62993000D01*
X177182500Y-61343000D01*
X177183222Y-61328297D01*
X177185382Y-61313736D01*
X177188959Y-61299457D01*
X177193918Y-61285597D01*
X177200212Y-61272290D01*
X177207780Y-61259664D01*
X177216548Y-61247841D01*
X177226434Y-61236934D01*
X177237341Y-61227048D01*
X177249164Y-61218280D01*
X177261790Y-61210712D01*
X177275097Y-61204418D01*
X177288957Y-61199459D01*
X177303236Y-61195882D01*
X177317797Y-61193722D01*
X177332500Y-61193000D01*
X177632500Y-61193000D01*
X177647203Y-61193722D01*
G37*
G36*
X178917203Y-61193722D02*
G01*
X178931764Y-61195882D01*
X178946043Y-61199459D01*
X178959903Y-61204418D01*
X178973210Y-61210712D01*
X178985836Y-61218280D01*
X178997659Y-61227048D01*
X179008566Y-61236934D01*
X179018452Y-61247841D01*
X179027220Y-61259664D01*
X179034788Y-61272290D01*
X179041082Y-61285597D01*
X179046041Y-61299457D01*
X179049618Y-61313736D01*
X179051778Y-61328297D01*
X179052500Y-61343000D01*
X179052500Y-62993000D01*
X179051778Y-63007703D01*
X179049618Y-63022264D01*
X179046041Y-63036543D01*
X179041082Y-63050403D01*
X179034788Y-63063710D01*
X179027220Y-63076336D01*
X179018452Y-63088159D01*
X179008566Y-63099066D01*
X178997659Y-63108952D01*
X178985836Y-63117720D01*
X178973210Y-63125288D01*
X178959903Y-63131582D01*
X178946043Y-63136541D01*
X178931764Y-63140118D01*
X178917203Y-63142278D01*
X178902500Y-63143000D01*
X178602500Y-63143000D01*
X178587797Y-63142278D01*
X178573236Y-63140118D01*
X178558957Y-63136541D01*
X178545097Y-63131582D01*
X178531790Y-63125288D01*
X178519164Y-63117720D01*
X178507341Y-63108952D01*
X178496434Y-63099066D01*
X178486548Y-63088159D01*
X178477780Y-63076336D01*
X178470212Y-63063710D01*
X178463918Y-63050403D01*
X178458959Y-63036543D01*
X178455382Y-63022264D01*
X178453222Y-63007703D01*
X178452500Y-62993000D01*
X178452500Y-61343000D01*
X178453222Y-61328297D01*
X178455382Y-61313736D01*
X178458959Y-61299457D01*
X178463918Y-61285597D01*
X178470212Y-61272290D01*
X178477780Y-61259664D01*
X178486548Y-61247841D01*
X178496434Y-61236934D01*
X178507341Y-61227048D01*
X178519164Y-61218280D01*
X178531790Y-61210712D01*
X178545097Y-61204418D01*
X178558957Y-61199459D01*
X178573236Y-61195882D01*
X178587797Y-61193722D01*
X178602500Y-61193000D01*
X178902500Y-61193000D01*
X178917203Y-61193722D01*
G37*
%TD*%
D16*
%TO.C,S2*%
X188328300Y-107226100D03*
D17*
X185788300Y-107226100D03*
X183248300Y-107226100D03*
X188328300Y-112306100D03*
X185788300Y-112306100D03*
X183248300Y-112306100D03*
%TD*%
D18*
%TO.C,D6*%
X170776900Y-98247800D03*
X170776900Y-91337800D03*
%TD*%
D10*
%TO.C,R6*%
G36*
X179605207Y-92709504D02*
G01*
X179629475Y-92713104D01*
X179653273Y-92719065D01*
X179676373Y-92727330D01*
X179698551Y-92737819D01*
X179719594Y-92750432D01*
X179739299Y-92765047D01*
X179757478Y-92781522D01*
X179773953Y-92799701D01*
X179788568Y-92819406D01*
X179801181Y-92840449D01*
X179811670Y-92862627D01*
X179819935Y-92885727D01*
X179825896Y-92909525D01*
X179829496Y-92933793D01*
X179830700Y-92958297D01*
X179830700Y-93583303D01*
X179829496Y-93607807D01*
X179825896Y-93632075D01*
X179819935Y-93655873D01*
X179811670Y-93678973D01*
X179801181Y-93701151D01*
X179788568Y-93722194D01*
X179773953Y-93741899D01*
X179757478Y-93760078D01*
X179739299Y-93776553D01*
X179719594Y-93791168D01*
X179698551Y-93803781D01*
X179676373Y-93814270D01*
X179653273Y-93822535D01*
X179629475Y-93828496D01*
X179605207Y-93832096D01*
X179580703Y-93833300D01*
X178330697Y-93833300D01*
X178306193Y-93832096D01*
X178281925Y-93828496D01*
X178258127Y-93822535D01*
X178235027Y-93814270D01*
X178212849Y-93803781D01*
X178191806Y-93791168D01*
X178172101Y-93776553D01*
X178153922Y-93760078D01*
X178137447Y-93741899D01*
X178122832Y-93722194D01*
X178110219Y-93701151D01*
X178099730Y-93678973D01*
X178091465Y-93655873D01*
X178085504Y-93632075D01*
X178081904Y-93607807D01*
X178080700Y-93583303D01*
X178080700Y-92958297D01*
X178081904Y-92933793D01*
X178085504Y-92909525D01*
X178091465Y-92885727D01*
X178099730Y-92862627D01*
X178110219Y-92840449D01*
X178122832Y-92819406D01*
X178137447Y-92799701D01*
X178153922Y-92781522D01*
X178172101Y-92765047D01*
X178191806Y-92750432D01*
X178212849Y-92737819D01*
X178235027Y-92727330D01*
X178258127Y-92719065D01*
X178281925Y-92713104D01*
X178306193Y-92709504D01*
X178330697Y-92708300D01*
X179580703Y-92708300D01*
X179605207Y-92709504D01*
G37*
G36*
X179605207Y-89784504D02*
G01*
X179629475Y-89788104D01*
X179653273Y-89794065D01*
X179676373Y-89802330D01*
X179698551Y-89812819D01*
X179719594Y-89825432D01*
X179739299Y-89840047D01*
X179757478Y-89856522D01*
X179773953Y-89874701D01*
X179788568Y-89894406D01*
X179801181Y-89915449D01*
X179811670Y-89937627D01*
X179819935Y-89960727D01*
X179825896Y-89984525D01*
X179829496Y-90008793D01*
X179830700Y-90033297D01*
X179830700Y-90658303D01*
X179829496Y-90682807D01*
X179825896Y-90707075D01*
X179819935Y-90730873D01*
X179811670Y-90753973D01*
X179801181Y-90776151D01*
X179788568Y-90797194D01*
X179773953Y-90816899D01*
X179757478Y-90835078D01*
X179739299Y-90851553D01*
X179719594Y-90866168D01*
X179698551Y-90878781D01*
X179676373Y-90889270D01*
X179653273Y-90897535D01*
X179629475Y-90903496D01*
X179605207Y-90907096D01*
X179580703Y-90908300D01*
X178330697Y-90908300D01*
X178306193Y-90907096D01*
X178281925Y-90903496D01*
X178258127Y-90897535D01*
X178235027Y-90889270D01*
X178212849Y-90878781D01*
X178191806Y-90866168D01*
X178172101Y-90851553D01*
X178153922Y-90835078D01*
X178137447Y-90816899D01*
X178122832Y-90797194D01*
X178110219Y-90776151D01*
X178099730Y-90753973D01*
X178091465Y-90730873D01*
X178085504Y-90707075D01*
X178081904Y-90682807D01*
X178080700Y-90658303D01*
X178080700Y-90033297D01*
X178081904Y-90008793D01*
X178085504Y-89984525D01*
X178091465Y-89960727D01*
X178099730Y-89937627D01*
X178110219Y-89915449D01*
X178122832Y-89894406D01*
X178137447Y-89874701D01*
X178153922Y-89856522D01*
X178172101Y-89840047D01*
X178191806Y-89825432D01*
X178212849Y-89812819D01*
X178235027Y-89802330D01*
X178258127Y-89794065D01*
X178281925Y-89788104D01*
X178306193Y-89784504D01*
X178330697Y-89783300D01*
X179580703Y-89783300D01*
X179605207Y-89784504D01*
G37*
%TD*%
%TO.C,U9*%
G36*
X171424203Y-115333822D02*
G01*
X171438764Y-115335982D01*
X171453043Y-115339559D01*
X171466903Y-115344518D01*
X171480210Y-115350812D01*
X171492836Y-115358380D01*
X171504659Y-115367148D01*
X171515566Y-115377034D01*
X171525452Y-115387941D01*
X171534220Y-115399764D01*
X171541788Y-115412390D01*
X171548082Y-115425697D01*
X171553041Y-115439557D01*
X171556618Y-115453836D01*
X171558778Y-115468397D01*
X171559500Y-115483100D01*
X171559500Y-117133100D01*
X171558778Y-117147803D01*
X171556618Y-117162364D01*
X171553041Y-117176643D01*
X171548082Y-117190503D01*
X171541788Y-117203810D01*
X171534220Y-117216436D01*
X171525452Y-117228259D01*
X171515566Y-117239166D01*
X171504659Y-117249052D01*
X171492836Y-117257820D01*
X171480210Y-117265388D01*
X171466903Y-117271682D01*
X171453043Y-117276641D01*
X171438764Y-117280218D01*
X171424203Y-117282378D01*
X171409500Y-117283100D01*
X171109500Y-117283100D01*
X171094797Y-117282378D01*
X171080236Y-117280218D01*
X171065957Y-117276641D01*
X171052097Y-117271682D01*
X171038790Y-117265388D01*
X171026164Y-117257820D01*
X171014341Y-117249052D01*
X171003434Y-117239166D01*
X170993548Y-117228259D01*
X170984780Y-117216436D01*
X170977212Y-117203810D01*
X170970918Y-117190503D01*
X170965959Y-117176643D01*
X170962382Y-117162364D01*
X170960222Y-117147803D01*
X170959500Y-117133100D01*
X170959500Y-115483100D01*
X170960222Y-115468397D01*
X170962382Y-115453836D01*
X170965959Y-115439557D01*
X170970918Y-115425697D01*
X170977212Y-115412390D01*
X170984780Y-115399764D01*
X170993548Y-115387941D01*
X171003434Y-115377034D01*
X171014341Y-115367148D01*
X171026164Y-115358380D01*
X171038790Y-115350812D01*
X171052097Y-115344518D01*
X171065957Y-115339559D01*
X171080236Y-115335982D01*
X171094797Y-115333822D01*
X171109500Y-115333100D01*
X171409500Y-115333100D01*
X171424203Y-115333822D01*
G37*
G36*
X172694203Y-115333822D02*
G01*
X172708764Y-115335982D01*
X172723043Y-115339559D01*
X172736903Y-115344518D01*
X172750210Y-115350812D01*
X172762836Y-115358380D01*
X172774659Y-115367148D01*
X172785566Y-115377034D01*
X172795452Y-115387941D01*
X172804220Y-115399764D01*
X172811788Y-115412390D01*
X172818082Y-115425697D01*
X172823041Y-115439557D01*
X172826618Y-115453836D01*
X172828778Y-115468397D01*
X172829500Y-115483100D01*
X172829500Y-117133100D01*
X172828778Y-117147803D01*
X172826618Y-117162364D01*
X172823041Y-117176643D01*
X172818082Y-117190503D01*
X172811788Y-117203810D01*
X172804220Y-117216436D01*
X172795452Y-117228259D01*
X172785566Y-117239166D01*
X172774659Y-117249052D01*
X172762836Y-117257820D01*
X172750210Y-117265388D01*
X172736903Y-117271682D01*
X172723043Y-117276641D01*
X172708764Y-117280218D01*
X172694203Y-117282378D01*
X172679500Y-117283100D01*
X172379500Y-117283100D01*
X172364797Y-117282378D01*
X172350236Y-117280218D01*
X172335957Y-117276641D01*
X172322097Y-117271682D01*
X172308790Y-117265388D01*
X172296164Y-117257820D01*
X172284341Y-117249052D01*
X172273434Y-117239166D01*
X172263548Y-117228259D01*
X172254780Y-117216436D01*
X172247212Y-117203810D01*
X172240918Y-117190503D01*
X172235959Y-117176643D01*
X172232382Y-117162364D01*
X172230222Y-117147803D01*
X172229500Y-117133100D01*
X172229500Y-115483100D01*
X172230222Y-115468397D01*
X172232382Y-115453836D01*
X172235959Y-115439557D01*
X172240918Y-115425697D01*
X172247212Y-115412390D01*
X172254780Y-115399764D01*
X172263548Y-115387941D01*
X172273434Y-115377034D01*
X172284341Y-115367148D01*
X172296164Y-115358380D01*
X172308790Y-115350812D01*
X172322097Y-115344518D01*
X172335957Y-115339559D01*
X172350236Y-115335982D01*
X172364797Y-115333822D01*
X172379500Y-115333100D01*
X172679500Y-115333100D01*
X172694203Y-115333822D01*
G37*
G36*
X173964203Y-115333822D02*
G01*
X173978764Y-115335982D01*
X173993043Y-115339559D01*
X174006903Y-115344518D01*
X174020210Y-115350812D01*
X174032836Y-115358380D01*
X174044659Y-115367148D01*
X174055566Y-115377034D01*
X174065452Y-115387941D01*
X174074220Y-115399764D01*
X174081788Y-115412390D01*
X174088082Y-115425697D01*
X174093041Y-115439557D01*
X174096618Y-115453836D01*
X174098778Y-115468397D01*
X174099500Y-115483100D01*
X174099500Y-117133100D01*
X174098778Y-117147803D01*
X174096618Y-117162364D01*
X174093041Y-117176643D01*
X174088082Y-117190503D01*
X174081788Y-117203810D01*
X174074220Y-117216436D01*
X174065452Y-117228259D01*
X174055566Y-117239166D01*
X174044659Y-117249052D01*
X174032836Y-117257820D01*
X174020210Y-117265388D01*
X174006903Y-117271682D01*
X173993043Y-117276641D01*
X173978764Y-117280218D01*
X173964203Y-117282378D01*
X173949500Y-117283100D01*
X173649500Y-117283100D01*
X173634797Y-117282378D01*
X173620236Y-117280218D01*
X173605957Y-117276641D01*
X173592097Y-117271682D01*
X173578790Y-117265388D01*
X173566164Y-117257820D01*
X173554341Y-117249052D01*
X173543434Y-117239166D01*
X173533548Y-117228259D01*
X173524780Y-117216436D01*
X173517212Y-117203810D01*
X173510918Y-117190503D01*
X173505959Y-117176643D01*
X173502382Y-117162364D01*
X173500222Y-117147803D01*
X173499500Y-117133100D01*
X173499500Y-115483100D01*
X173500222Y-115468397D01*
X173502382Y-115453836D01*
X173505959Y-115439557D01*
X173510918Y-115425697D01*
X173517212Y-115412390D01*
X173524780Y-115399764D01*
X173533548Y-115387941D01*
X173543434Y-115377034D01*
X173554341Y-115367148D01*
X173566164Y-115358380D01*
X173578790Y-115350812D01*
X173592097Y-115344518D01*
X173605957Y-115339559D01*
X173620236Y-115335982D01*
X173634797Y-115333822D01*
X173649500Y-115333100D01*
X173949500Y-115333100D01*
X173964203Y-115333822D01*
G37*
G36*
X175234203Y-115333822D02*
G01*
X175248764Y-115335982D01*
X175263043Y-115339559D01*
X175276903Y-115344518D01*
X175290210Y-115350812D01*
X175302836Y-115358380D01*
X175314659Y-115367148D01*
X175325566Y-115377034D01*
X175335452Y-115387941D01*
X175344220Y-115399764D01*
X175351788Y-115412390D01*
X175358082Y-115425697D01*
X175363041Y-115439557D01*
X175366618Y-115453836D01*
X175368778Y-115468397D01*
X175369500Y-115483100D01*
X175369500Y-117133100D01*
X175368778Y-117147803D01*
X175366618Y-117162364D01*
X175363041Y-117176643D01*
X175358082Y-117190503D01*
X175351788Y-117203810D01*
X175344220Y-117216436D01*
X175335452Y-117228259D01*
X175325566Y-117239166D01*
X175314659Y-117249052D01*
X175302836Y-117257820D01*
X175290210Y-117265388D01*
X175276903Y-117271682D01*
X175263043Y-117276641D01*
X175248764Y-117280218D01*
X175234203Y-117282378D01*
X175219500Y-117283100D01*
X174919500Y-117283100D01*
X174904797Y-117282378D01*
X174890236Y-117280218D01*
X174875957Y-117276641D01*
X174862097Y-117271682D01*
X174848790Y-117265388D01*
X174836164Y-117257820D01*
X174824341Y-117249052D01*
X174813434Y-117239166D01*
X174803548Y-117228259D01*
X174794780Y-117216436D01*
X174787212Y-117203810D01*
X174780918Y-117190503D01*
X174775959Y-117176643D01*
X174772382Y-117162364D01*
X174770222Y-117147803D01*
X174769500Y-117133100D01*
X174769500Y-115483100D01*
X174770222Y-115468397D01*
X174772382Y-115453836D01*
X174775959Y-115439557D01*
X174780918Y-115425697D01*
X174787212Y-115412390D01*
X174794780Y-115399764D01*
X174803548Y-115387941D01*
X174813434Y-115377034D01*
X174824341Y-115367148D01*
X174836164Y-115358380D01*
X174848790Y-115350812D01*
X174862097Y-115344518D01*
X174875957Y-115339559D01*
X174890236Y-115335982D01*
X174904797Y-115333822D01*
X174919500Y-115333100D01*
X175219500Y-115333100D01*
X175234203Y-115333822D01*
G37*
G36*
X176504203Y-115333822D02*
G01*
X176518764Y-115335982D01*
X176533043Y-115339559D01*
X176546903Y-115344518D01*
X176560210Y-115350812D01*
X176572836Y-115358380D01*
X176584659Y-115367148D01*
X176595566Y-115377034D01*
X176605452Y-115387941D01*
X176614220Y-115399764D01*
X176621788Y-115412390D01*
X176628082Y-115425697D01*
X176633041Y-115439557D01*
X176636618Y-115453836D01*
X176638778Y-115468397D01*
X176639500Y-115483100D01*
X176639500Y-117133100D01*
X176638778Y-117147803D01*
X176636618Y-117162364D01*
X176633041Y-117176643D01*
X176628082Y-117190503D01*
X176621788Y-117203810D01*
X176614220Y-117216436D01*
X176605452Y-117228259D01*
X176595566Y-117239166D01*
X176584659Y-117249052D01*
X176572836Y-117257820D01*
X176560210Y-117265388D01*
X176546903Y-117271682D01*
X176533043Y-117276641D01*
X176518764Y-117280218D01*
X176504203Y-117282378D01*
X176489500Y-117283100D01*
X176189500Y-117283100D01*
X176174797Y-117282378D01*
X176160236Y-117280218D01*
X176145957Y-117276641D01*
X176132097Y-117271682D01*
X176118790Y-117265388D01*
X176106164Y-117257820D01*
X176094341Y-117249052D01*
X176083434Y-117239166D01*
X176073548Y-117228259D01*
X176064780Y-117216436D01*
X176057212Y-117203810D01*
X176050918Y-117190503D01*
X176045959Y-117176643D01*
X176042382Y-117162364D01*
X176040222Y-117147803D01*
X176039500Y-117133100D01*
X176039500Y-115483100D01*
X176040222Y-115468397D01*
X176042382Y-115453836D01*
X176045959Y-115439557D01*
X176050918Y-115425697D01*
X176057212Y-115412390D01*
X176064780Y-115399764D01*
X176073548Y-115387941D01*
X176083434Y-115377034D01*
X176094341Y-115367148D01*
X176106164Y-115358380D01*
X176118790Y-115350812D01*
X176132097Y-115344518D01*
X176145957Y-115339559D01*
X176160236Y-115335982D01*
X176174797Y-115333822D01*
X176189500Y-115333100D01*
X176489500Y-115333100D01*
X176504203Y-115333822D01*
G37*
G36*
X177774203Y-115333822D02*
G01*
X177788764Y-115335982D01*
X177803043Y-115339559D01*
X177816903Y-115344518D01*
X177830210Y-115350812D01*
X177842836Y-115358380D01*
X177854659Y-115367148D01*
X177865566Y-115377034D01*
X177875452Y-115387941D01*
X177884220Y-115399764D01*
X177891788Y-115412390D01*
X177898082Y-115425697D01*
X177903041Y-115439557D01*
X177906618Y-115453836D01*
X177908778Y-115468397D01*
X177909500Y-115483100D01*
X177909500Y-117133100D01*
X177908778Y-117147803D01*
X177906618Y-117162364D01*
X177903041Y-117176643D01*
X177898082Y-117190503D01*
X177891788Y-117203810D01*
X177884220Y-117216436D01*
X177875452Y-117228259D01*
X177865566Y-117239166D01*
X177854659Y-117249052D01*
X177842836Y-117257820D01*
X177830210Y-117265388D01*
X177816903Y-117271682D01*
X177803043Y-117276641D01*
X177788764Y-117280218D01*
X177774203Y-117282378D01*
X177759500Y-117283100D01*
X177459500Y-117283100D01*
X177444797Y-117282378D01*
X177430236Y-117280218D01*
X177415957Y-117276641D01*
X177402097Y-117271682D01*
X177388790Y-117265388D01*
X177376164Y-117257820D01*
X177364341Y-117249052D01*
X177353434Y-117239166D01*
X177343548Y-117228259D01*
X177334780Y-117216436D01*
X177327212Y-117203810D01*
X177320918Y-117190503D01*
X177315959Y-117176643D01*
X177312382Y-117162364D01*
X177310222Y-117147803D01*
X177309500Y-117133100D01*
X177309500Y-115483100D01*
X177310222Y-115468397D01*
X177312382Y-115453836D01*
X177315959Y-115439557D01*
X177320918Y-115425697D01*
X177327212Y-115412390D01*
X177334780Y-115399764D01*
X177343548Y-115387941D01*
X177353434Y-115377034D01*
X177364341Y-115367148D01*
X177376164Y-115358380D01*
X177388790Y-115350812D01*
X177402097Y-115344518D01*
X177415957Y-115339559D01*
X177430236Y-115335982D01*
X177444797Y-115333822D01*
X177459500Y-115333100D01*
X177759500Y-115333100D01*
X177774203Y-115333822D01*
G37*
G36*
X179044203Y-115333822D02*
G01*
X179058764Y-115335982D01*
X179073043Y-115339559D01*
X179086903Y-115344518D01*
X179100210Y-115350812D01*
X179112836Y-115358380D01*
X179124659Y-115367148D01*
X179135566Y-115377034D01*
X179145452Y-115387941D01*
X179154220Y-115399764D01*
X179161788Y-115412390D01*
X179168082Y-115425697D01*
X179173041Y-115439557D01*
X179176618Y-115453836D01*
X179178778Y-115468397D01*
X179179500Y-115483100D01*
X179179500Y-117133100D01*
X179178778Y-117147803D01*
X179176618Y-117162364D01*
X179173041Y-117176643D01*
X179168082Y-117190503D01*
X179161788Y-117203810D01*
X179154220Y-117216436D01*
X179145452Y-117228259D01*
X179135566Y-117239166D01*
X179124659Y-117249052D01*
X179112836Y-117257820D01*
X179100210Y-117265388D01*
X179086903Y-117271682D01*
X179073043Y-117276641D01*
X179058764Y-117280218D01*
X179044203Y-117282378D01*
X179029500Y-117283100D01*
X178729500Y-117283100D01*
X178714797Y-117282378D01*
X178700236Y-117280218D01*
X178685957Y-117276641D01*
X178672097Y-117271682D01*
X178658790Y-117265388D01*
X178646164Y-117257820D01*
X178634341Y-117249052D01*
X178623434Y-117239166D01*
X178613548Y-117228259D01*
X178604780Y-117216436D01*
X178597212Y-117203810D01*
X178590918Y-117190503D01*
X178585959Y-117176643D01*
X178582382Y-117162364D01*
X178580222Y-117147803D01*
X178579500Y-117133100D01*
X178579500Y-115483100D01*
X178580222Y-115468397D01*
X178582382Y-115453836D01*
X178585959Y-115439557D01*
X178590918Y-115425697D01*
X178597212Y-115412390D01*
X178604780Y-115399764D01*
X178613548Y-115387941D01*
X178623434Y-115377034D01*
X178634341Y-115367148D01*
X178646164Y-115358380D01*
X178658790Y-115350812D01*
X178672097Y-115344518D01*
X178685957Y-115339559D01*
X178700236Y-115335982D01*
X178714797Y-115333822D01*
X178729500Y-115333100D01*
X179029500Y-115333100D01*
X179044203Y-115333822D01*
G37*
G36*
X179044203Y-120283822D02*
G01*
X179058764Y-120285982D01*
X179073043Y-120289559D01*
X179086903Y-120294518D01*
X179100210Y-120300812D01*
X179112836Y-120308380D01*
X179124659Y-120317148D01*
X179135566Y-120327034D01*
X179145452Y-120337941D01*
X179154220Y-120349764D01*
X179161788Y-120362390D01*
X179168082Y-120375697D01*
X179173041Y-120389557D01*
X179176618Y-120403836D01*
X179178778Y-120418397D01*
X179179500Y-120433100D01*
X179179500Y-122083100D01*
X179178778Y-122097803D01*
X179176618Y-122112364D01*
X179173041Y-122126643D01*
X179168082Y-122140503D01*
X179161788Y-122153810D01*
X179154220Y-122166436D01*
X179145452Y-122178259D01*
X179135566Y-122189166D01*
X179124659Y-122199052D01*
X179112836Y-122207820D01*
X179100210Y-122215388D01*
X179086903Y-122221682D01*
X179073043Y-122226641D01*
X179058764Y-122230218D01*
X179044203Y-122232378D01*
X179029500Y-122233100D01*
X178729500Y-122233100D01*
X178714797Y-122232378D01*
X178700236Y-122230218D01*
X178685957Y-122226641D01*
X178672097Y-122221682D01*
X178658790Y-122215388D01*
X178646164Y-122207820D01*
X178634341Y-122199052D01*
X178623434Y-122189166D01*
X178613548Y-122178259D01*
X178604780Y-122166436D01*
X178597212Y-122153810D01*
X178590918Y-122140503D01*
X178585959Y-122126643D01*
X178582382Y-122112364D01*
X178580222Y-122097803D01*
X178579500Y-122083100D01*
X178579500Y-120433100D01*
X178580222Y-120418397D01*
X178582382Y-120403836D01*
X178585959Y-120389557D01*
X178590918Y-120375697D01*
X178597212Y-120362390D01*
X178604780Y-120349764D01*
X178613548Y-120337941D01*
X178623434Y-120327034D01*
X178634341Y-120317148D01*
X178646164Y-120308380D01*
X178658790Y-120300812D01*
X178672097Y-120294518D01*
X178685957Y-120289559D01*
X178700236Y-120285982D01*
X178714797Y-120283822D01*
X178729500Y-120283100D01*
X179029500Y-120283100D01*
X179044203Y-120283822D01*
G37*
G36*
X177774203Y-120283822D02*
G01*
X177788764Y-120285982D01*
X177803043Y-120289559D01*
X177816903Y-120294518D01*
X177830210Y-120300812D01*
X177842836Y-120308380D01*
X177854659Y-120317148D01*
X177865566Y-120327034D01*
X177875452Y-120337941D01*
X177884220Y-120349764D01*
X177891788Y-120362390D01*
X177898082Y-120375697D01*
X177903041Y-120389557D01*
X177906618Y-120403836D01*
X177908778Y-120418397D01*
X177909500Y-120433100D01*
X177909500Y-122083100D01*
X177908778Y-122097803D01*
X177906618Y-122112364D01*
X177903041Y-122126643D01*
X177898082Y-122140503D01*
X177891788Y-122153810D01*
X177884220Y-122166436D01*
X177875452Y-122178259D01*
X177865566Y-122189166D01*
X177854659Y-122199052D01*
X177842836Y-122207820D01*
X177830210Y-122215388D01*
X177816903Y-122221682D01*
X177803043Y-122226641D01*
X177788764Y-122230218D01*
X177774203Y-122232378D01*
X177759500Y-122233100D01*
X177459500Y-122233100D01*
X177444797Y-122232378D01*
X177430236Y-122230218D01*
X177415957Y-122226641D01*
X177402097Y-122221682D01*
X177388790Y-122215388D01*
X177376164Y-122207820D01*
X177364341Y-122199052D01*
X177353434Y-122189166D01*
X177343548Y-122178259D01*
X177334780Y-122166436D01*
X177327212Y-122153810D01*
X177320918Y-122140503D01*
X177315959Y-122126643D01*
X177312382Y-122112364D01*
X177310222Y-122097803D01*
X177309500Y-122083100D01*
X177309500Y-120433100D01*
X177310222Y-120418397D01*
X177312382Y-120403836D01*
X177315959Y-120389557D01*
X177320918Y-120375697D01*
X177327212Y-120362390D01*
X177334780Y-120349764D01*
X177343548Y-120337941D01*
X177353434Y-120327034D01*
X177364341Y-120317148D01*
X177376164Y-120308380D01*
X177388790Y-120300812D01*
X177402097Y-120294518D01*
X177415957Y-120289559D01*
X177430236Y-120285982D01*
X177444797Y-120283822D01*
X177459500Y-120283100D01*
X177759500Y-120283100D01*
X177774203Y-120283822D01*
G37*
G36*
X176504203Y-120283822D02*
G01*
X176518764Y-120285982D01*
X176533043Y-120289559D01*
X176546903Y-120294518D01*
X176560210Y-120300812D01*
X176572836Y-120308380D01*
X176584659Y-120317148D01*
X176595566Y-120327034D01*
X176605452Y-120337941D01*
X176614220Y-120349764D01*
X176621788Y-120362390D01*
X176628082Y-120375697D01*
X176633041Y-120389557D01*
X176636618Y-120403836D01*
X176638778Y-120418397D01*
X176639500Y-120433100D01*
X176639500Y-122083100D01*
X176638778Y-122097803D01*
X176636618Y-122112364D01*
X176633041Y-122126643D01*
X176628082Y-122140503D01*
X176621788Y-122153810D01*
X176614220Y-122166436D01*
X176605452Y-122178259D01*
X176595566Y-122189166D01*
X176584659Y-122199052D01*
X176572836Y-122207820D01*
X176560210Y-122215388D01*
X176546903Y-122221682D01*
X176533043Y-122226641D01*
X176518764Y-122230218D01*
X176504203Y-122232378D01*
X176489500Y-122233100D01*
X176189500Y-122233100D01*
X176174797Y-122232378D01*
X176160236Y-122230218D01*
X176145957Y-122226641D01*
X176132097Y-122221682D01*
X176118790Y-122215388D01*
X176106164Y-122207820D01*
X176094341Y-122199052D01*
X176083434Y-122189166D01*
X176073548Y-122178259D01*
X176064780Y-122166436D01*
X176057212Y-122153810D01*
X176050918Y-122140503D01*
X176045959Y-122126643D01*
X176042382Y-122112364D01*
X176040222Y-122097803D01*
X176039500Y-122083100D01*
X176039500Y-120433100D01*
X176040222Y-120418397D01*
X176042382Y-120403836D01*
X176045959Y-120389557D01*
X176050918Y-120375697D01*
X176057212Y-120362390D01*
X176064780Y-120349764D01*
X176073548Y-120337941D01*
X176083434Y-120327034D01*
X176094341Y-120317148D01*
X176106164Y-120308380D01*
X176118790Y-120300812D01*
X176132097Y-120294518D01*
X176145957Y-120289559D01*
X176160236Y-120285982D01*
X176174797Y-120283822D01*
X176189500Y-120283100D01*
X176489500Y-120283100D01*
X176504203Y-120283822D01*
G37*
G36*
X175234203Y-120283822D02*
G01*
X175248764Y-120285982D01*
X175263043Y-120289559D01*
X175276903Y-120294518D01*
X175290210Y-120300812D01*
X175302836Y-120308380D01*
X175314659Y-120317148D01*
X175325566Y-120327034D01*
X175335452Y-120337941D01*
X175344220Y-120349764D01*
X175351788Y-120362390D01*
X175358082Y-120375697D01*
X175363041Y-120389557D01*
X175366618Y-120403836D01*
X175368778Y-120418397D01*
X175369500Y-120433100D01*
X175369500Y-122083100D01*
X175368778Y-122097803D01*
X175366618Y-122112364D01*
X175363041Y-122126643D01*
X175358082Y-122140503D01*
X175351788Y-122153810D01*
X175344220Y-122166436D01*
X175335452Y-122178259D01*
X175325566Y-122189166D01*
X175314659Y-122199052D01*
X175302836Y-122207820D01*
X175290210Y-122215388D01*
X175276903Y-122221682D01*
X175263043Y-122226641D01*
X175248764Y-122230218D01*
X175234203Y-122232378D01*
X175219500Y-122233100D01*
X174919500Y-122233100D01*
X174904797Y-122232378D01*
X174890236Y-122230218D01*
X174875957Y-122226641D01*
X174862097Y-122221682D01*
X174848790Y-122215388D01*
X174836164Y-122207820D01*
X174824341Y-122199052D01*
X174813434Y-122189166D01*
X174803548Y-122178259D01*
X174794780Y-122166436D01*
X174787212Y-122153810D01*
X174780918Y-122140503D01*
X174775959Y-122126643D01*
X174772382Y-122112364D01*
X174770222Y-122097803D01*
X174769500Y-122083100D01*
X174769500Y-120433100D01*
X174770222Y-120418397D01*
X174772382Y-120403836D01*
X174775959Y-120389557D01*
X174780918Y-120375697D01*
X174787212Y-120362390D01*
X174794780Y-120349764D01*
X174803548Y-120337941D01*
X174813434Y-120327034D01*
X174824341Y-120317148D01*
X174836164Y-120308380D01*
X174848790Y-120300812D01*
X174862097Y-120294518D01*
X174875957Y-120289559D01*
X174890236Y-120285982D01*
X174904797Y-120283822D01*
X174919500Y-120283100D01*
X175219500Y-120283100D01*
X175234203Y-120283822D01*
G37*
G36*
X173964203Y-120283822D02*
G01*
X173978764Y-120285982D01*
X173993043Y-120289559D01*
X174006903Y-120294518D01*
X174020210Y-120300812D01*
X174032836Y-120308380D01*
X174044659Y-120317148D01*
X174055566Y-120327034D01*
X174065452Y-120337941D01*
X174074220Y-120349764D01*
X174081788Y-120362390D01*
X174088082Y-120375697D01*
X174093041Y-120389557D01*
X174096618Y-120403836D01*
X174098778Y-120418397D01*
X174099500Y-120433100D01*
X174099500Y-122083100D01*
X174098778Y-122097803D01*
X174096618Y-122112364D01*
X174093041Y-122126643D01*
X174088082Y-122140503D01*
X174081788Y-122153810D01*
X174074220Y-122166436D01*
X174065452Y-122178259D01*
X174055566Y-122189166D01*
X174044659Y-122199052D01*
X174032836Y-122207820D01*
X174020210Y-122215388D01*
X174006903Y-122221682D01*
X173993043Y-122226641D01*
X173978764Y-122230218D01*
X173964203Y-122232378D01*
X173949500Y-122233100D01*
X173649500Y-122233100D01*
X173634797Y-122232378D01*
X173620236Y-122230218D01*
X173605957Y-122226641D01*
X173592097Y-122221682D01*
X173578790Y-122215388D01*
X173566164Y-122207820D01*
X173554341Y-122199052D01*
X173543434Y-122189166D01*
X173533548Y-122178259D01*
X173524780Y-122166436D01*
X173517212Y-122153810D01*
X173510918Y-122140503D01*
X173505959Y-122126643D01*
X173502382Y-122112364D01*
X173500222Y-122097803D01*
X173499500Y-122083100D01*
X173499500Y-120433100D01*
X173500222Y-120418397D01*
X173502382Y-120403836D01*
X173505959Y-120389557D01*
X173510918Y-120375697D01*
X173517212Y-120362390D01*
X173524780Y-120349764D01*
X173533548Y-120337941D01*
X173543434Y-120327034D01*
X173554341Y-120317148D01*
X173566164Y-120308380D01*
X173578790Y-120300812D01*
X173592097Y-120294518D01*
X173605957Y-120289559D01*
X173620236Y-120285982D01*
X173634797Y-120283822D01*
X173649500Y-120283100D01*
X173949500Y-120283100D01*
X173964203Y-120283822D01*
G37*
G36*
X172694203Y-120283822D02*
G01*
X172708764Y-120285982D01*
X172723043Y-120289559D01*
X172736903Y-120294518D01*
X172750210Y-120300812D01*
X172762836Y-120308380D01*
X172774659Y-120317148D01*
X172785566Y-120327034D01*
X172795452Y-120337941D01*
X172804220Y-120349764D01*
X172811788Y-120362390D01*
X172818082Y-120375697D01*
X172823041Y-120389557D01*
X172826618Y-120403836D01*
X172828778Y-120418397D01*
X172829500Y-120433100D01*
X172829500Y-122083100D01*
X172828778Y-122097803D01*
X172826618Y-122112364D01*
X172823041Y-122126643D01*
X172818082Y-122140503D01*
X172811788Y-122153810D01*
X172804220Y-122166436D01*
X172795452Y-122178259D01*
X172785566Y-122189166D01*
X172774659Y-122199052D01*
X172762836Y-122207820D01*
X172750210Y-122215388D01*
X172736903Y-122221682D01*
X172723043Y-122226641D01*
X172708764Y-122230218D01*
X172694203Y-122232378D01*
X172679500Y-122233100D01*
X172379500Y-122233100D01*
X172364797Y-122232378D01*
X172350236Y-122230218D01*
X172335957Y-122226641D01*
X172322097Y-122221682D01*
X172308790Y-122215388D01*
X172296164Y-122207820D01*
X172284341Y-122199052D01*
X172273434Y-122189166D01*
X172263548Y-122178259D01*
X172254780Y-122166436D01*
X172247212Y-122153810D01*
X172240918Y-122140503D01*
X172235959Y-122126643D01*
X172232382Y-122112364D01*
X172230222Y-122097803D01*
X172229500Y-122083100D01*
X172229500Y-120433100D01*
X172230222Y-120418397D01*
X172232382Y-120403836D01*
X172235959Y-120389557D01*
X172240918Y-120375697D01*
X172247212Y-120362390D01*
X172254780Y-120349764D01*
X172263548Y-120337941D01*
X172273434Y-120327034D01*
X172284341Y-120317148D01*
X172296164Y-120308380D01*
X172308790Y-120300812D01*
X172322097Y-120294518D01*
X172335957Y-120289559D01*
X172350236Y-120285982D01*
X172364797Y-120283822D01*
X172379500Y-120283100D01*
X172679500Y-120283100D01*
X172694203Y-120283822D01*
G37*
G36*
X171424203Y-120283822D02*
G01*
X171438764Y-120285982D01*
X171453043Y-120289559D01*
X171466903Y-120294518D01*
X171480210Y-120300812D01*
X171492836Y-120308380D01*
X171504659Y-120317148D01*
X171515566Y-120327034D01*
X171525452Y-120337941D01*
X171534220Y-120349764D01*
X171541788Y-120362390D01*
X171548082Y-120375697D01*
X171553041Y-120389557D01*
X171556618Y-120403836D01*
X171558778Y-120418397D01*
X171559500Y-120433100D01*
X171559500Y-122083100D01*
X171558778Y-122097803D01*
X171556618Y-122112364D01*
X171553041Y-122126643D01*
X171548082Y-122140503D01*
X171541788Y-122153810D01*
X171534220Y-122166436D01*
X171525452Y-122178259D01*
X171515566Y-122189166D01*
X171504659Y-122199052D01*
X171492836Y-122207820D01*
X171480210Y-122215388D01*
X171466903Y-122221682D01*
X171453043Y-122226641D01*
X171438764Y-122230218D01*
X171424203Y-122232378D01*
X171409500Y-122233100D01*
X171109500Y-122233100D01*
X171094797Y-122232378D01*
X171080236Y-122230218D01*
X171065957Y-122226641D01*
X171052097Y-122221682D01*
X171038790Y-122215388D01*
X171026164Y-122207820D01*
X171014341Y-122199052D01*
X171003434Y-122189166D01*
X170993548Y-122178259D01*
X170984780Y-122166436D01*
X170977212Y-122153810D01*
X170970918Y-122140503D01*
X170965959Y-122126643D01*
X170962382Y-122112364D01*
X170960222Y-122097803D01*
X170959500Y-122083100D01*
X170959500Y-120433100D01*
X170960222Y-120418397D01*
X170962382Y-120403836D01*
X170965959Y-120389557D01*
X170970918Y-120375697D01*
X170977212Y-120362390D01*
X170984780Y-120349764D01*
X170993548Y-120337941D01*
X171003434Y-120327034D01*
X171014341Y-120317148D01*
X171026164Y-120308380D01*
X171038790Y-120300812D01*
X171052097Y-120294518D01*
X171065957Y-120289559D01*
X171080236Y-120285982D01*
X171094797Y-120283822D01*
X171109500Y-120283100D01*
X171409500Y-120283100D01*
X171424203Y-120283822D01*
G37*
%TD*%
D19*
%TO.C,M2*%
X154997920Y-109791220D03*
X146997920Y-109791220D03*
%TD*%
D20*
%TO.C,U8*%
X172011340Y-133372940D03*
X172011340Y-129572940D03*
D21*
X167361340Y-129022940D03*
D22*
X174761340Y-130202940D03*
X174761340Y-132742940D03*
X169261340Y-130202940D03*
X169261340Y-132742940D03*
%TD*%
D23*
%TO.C,TB1*%
X176469900Y-83810780D03*
D19*
X179009900Y-83810780D03*
X181549900Y-83810780D03*
X184089900Y-83810780D03*
X186629900Y-83810780D03*
X189169900Y-83810780D03*
X191709900Y-83810780D03*
X194249900Y-83810780D03*
X194249900Y-99050780D03*
X191709900Y-99050780D03*
X189169900Y-99050780D03*
X186629900Y-99050780D03*
X184089900Y-99050780D03*
X181549900Y-99050780D03*
X179009900Y-99050780D03*
X176469900Y-99050780D03*
%TD*%
%TO.C,M1*%
X155096980Y-72997340D03*
X147096980Y-72997340D03*
%TD*%
D24*
%TO.C,BT2*%
X129219100Y-55500780D03*
D25*
X113219100Y-63830780D03*
X129219100Y-119030780D03*
D26*
X121219100Y-52100780D03*
X121219100Y-130760780D03*
%TD*%
D16*
%TO.C,S1*%
X183413400Y-75907900D03*
D17*
X185953400Y-75907900D03*
X188493400Y-75907900D03*
X183413400Y-70827900D03*
X185953400Y-70827900D03*
X188493400Y-70827900D03*
%TD*%
D20*
%TO.C,U4*%
X197221700Y-73315580D03*
X197221700Y-69515580D03*
D21*
X192571700Y-68965580D03*
D22*
X199971700Y-70145580D03*
X199971700Y-72685580D03*
X194471700Y-70145580D03*
X194471700Y-72685580D03*
%TD*%
%TO.C,U3*%
X169408660Y-52644040D03*
X169408660Y-50104040D03*
X174908660Y-52644040D03*
X174908660Y-50104040D03*
D21*
X167508660Y-48924040D03*
D20*
X172158660Y-49474040D03*
X172158660Y-53274040D03*
%TD*%
D22*
%TO.C,U6*%
X199207940Y-92834460D03*
X199207940Y-90294460D03*
X204707940Y-92834460D03*
X204707940Y-90294460D03*
D21*
X197307940Y-89114460D03*
D20*
X201957940Y-89664460D03*
X201957940Y-93464460D03*
%TD*%
D22*
%TO.C,U7*%
X194370100Y-112715980D03*
X194370100Y-110175980D03*
X199870100Y-112715980D03*
X199870100Y-110175980D03*
D21*
X192470100Y-108995980D03*
D20*
X197120100Y-109545980D03*
X197120100Y-113345980D03*
%TD*%
D10*
%TO.C,R20*%
G36*
X164911307Y-95833704D02*
G01*
X164935575Y-95837304D01*
X164959373Y-95843265D01*
X164982473Y-95851530D01*
X165004651Y-95862019D01*
X165025694Y-95874632D01*
X165045399Y-95889247D01*
X165063578Y-95905722D01*
X165080053Y-95923901D01*
X165094668Y-95943606D01*
X165107281Y-95964649D01*
X165117770Y-95986827D01*
X165126035Y-96009927D01*
X165131996Y-96033725D01*
X165135596Y-96057993D01*
X165136800Y-96082497D01*
X165136800Y-96707503D01*
X165135596Y-96732007D01*
X165131996Y-96756275D01*
X165126035Y-96780073D01*
X165117770Y-96803173D01*
X165107281Y-96825351D01*
X165094668Y-96846394D01*
X165080053Y-96866099D01*
X165063578Y-96884278D01*
X165045399Y-96900753D01*
X165025694Y-96915368D01*
X165004651Y-96927981D01*
X164982473Y-96938470D01*
X164959373Y-96946735D01*
X164935575Y-96952696D01*
X164911307Y-96956296D01*
X164886803Y-96957500D01*
X163636797Y-96957500D01*
X163612293Y-96956296D01*
X163588025Y-96952696D01*
X163564227Y-96946735D01*
X163541127Y-96938470D01*
X163518949Y-96927981D01*
X163497906Y-96915368D01*
X163478201Y-96900753D01*
X163460022Y-96884278D01*
X163443547Y-96866099D01*
X163428932Y-96846394D01*
X163416319Y-96825351D01*
X163405830Y-96803173D01*
X163397565Y-96780073D01*
X163391604Y-96756275D01*
X163388004Y-96732007D01*
X163386800Y-96707503D01*
X163386800Y-96082497D01*
X163388004Y-96057993D01*
X163391604Y-96033725D01*
X163397565Y-96009927D01*
X163405830Y-95986827D01*
X163416319Y-95964649D01*
X163428932Y-95943606D01*
X163443547Y-95923901D01*
X163460022Y-95905722D01*
X163478201Y-95889247D01*
X163497906Y-95874632D01*
X163518949Y-95862019D01*
X163541127Y-95851530D01*
X163564227Y-95843265D01*
X163588025Y-95837304D01*
X163612293Y-95833704D01*
X163636797Y-95832500D01*
X164886803Y-95832500D01*
X164911307Y-95833704D01*
G37*
G36*
X164911307Y-92908704D02*
G01*
X164935575Y-92912304D01*
X164959373Y-92918265D01*
X164982473Y-92926530D01*
X165004651Y-92937019D01*
X165025694Y-92949632D01*
X165045399Y-92964247D01*
X165063578Y-92980722D01*
X165080053Y-92998901D01*
X165094668Y-93018606D01*
X165107281Y-93039649D01*
X165117770Y-93061827D01*
X165126035Y-93084927D01*
X165131996Y-93108725D01*
X165135596Y-93132993D01*
X165136800Y-93157497D01*
X165136800Y-93782503D01*
X165135596Y-93807007D01*
X165131996Y-93831275D01*
X165126035Y-93855073D01*
X165117770Y-93878173D01*
X165107281Y-93900351D01*
X165094668Y-93921394D01*
X165080053Y-93941099D01*
X165063578Y-93959278D01*
X165045399Y-93975753D01*
X165025694Y-93990368D01*
X165004651Y-94002981D01*
X164982473Y-94013470D01*
X164959373Y-94021735D01*
X164935575Y-94027696D01*
X164911307Y-94031296D01*
X164886803Y-94032500D01*
X163636797Y-94032500D01*
X163612293Y-94031296D01*
X163588025Y-94027696D01*
X163564227Y-94021735D01*
X163541127Y-94013470D01*
X163518949Y-94002981D01*
X163497906Y-93990368D01*
X163478201Y-93975753D01*
X163460022Y-93959278D01*
X163443547Y-93941099D01*
X163428932Y-93921394D01*
X163416319Y-93900351D01*
X163405830Y-93878173D01*
X163397565Y-93855073D01*
X163391604Y-93831275D01*
X163388004Y-93807007D01*
X163386800Y-93782503D01*
X163386800Y-93157497D01*
X163388004Y-93132993D01*
X163391604Y-93108725D01*
X163397565Y-93084927D01*
X163405830Y-93061827D01*
X163416319Y-93039649D01*
X163428932Y-93018606D01*
X163443547Y-92998901D01*
X163460022Y-92980722D01*
X163478201Y-92964247D01*
X163497906Y-92949632D01*
X163518949Y-92937019D01*
X163541127Y-92926530D01*
X163564227Y-92918265D01*
X163588025Y-92912304D01*
X163612293Y-92908704D01*
X163636797Y-92907500D01*
X164886803Y-92907500D01*
X164911307Y-92908704D01*
G37*
%TD*%
D12*
%TO.C,RV1*%
X154889200Y-95554800D03*
X157429200Y-95554800D03*
D13*
X159969200Y-95554800D03*
%TD*%
D27*
%TO.C,U5*%
X168630600Y-85768000D03*
X167680600Y-85768000D03*
X169580600Y-85768000D03*
X169580600Y-87968000D03*
X168630600Y-87968000D03*
X167680600Y-87968000D03*
%TD*%
D10*
%TO.C,D1*%
G36*
X96853004Y-91798104D02*
G01*
X96877273Y-91801704D01*
X96901071Y-91807665D01*
X96924171Y-91815930D01*
X96946349Y-91826420D01*
X96967393Y-91839033D01*
X96987098Y-91853647D01*
X97005277Y-91870123D01*
X97021753Y-91888302D01*
X97036367Y-91908007D01*
X97048980Y-91929051D01*
X97059470Y-91951229D01*
X97067735Y-91974329D01*
X97073696Y-91998127D01*
X97077296Y-92022396D01*
X97078500Y-92046900D01*
X97078500Y-93296900D01*
X97077296Y-93321404D01*
X97073696Y-93345673D01*
X97067735Y-93369471D01*
X97059470Y-93392571D01*
X97048980Y-93414749D01*
X97036367Y-93435793D01*
X97021753Y-93455498D01*
X97005277Y-93473677D01*
X96987098Y-93490153D01*
X96967393Y-93504767D01*
X96946349Y-93517380D01*
X96924171Y-93527870D01*
X96901071Y-93536135D01*
X96877273Y-93542096D01*
X96853004Y-93545696D01*
X96828500Y-93546900D01*
X96078500Y-93546900D01*
X96053996Y-93545696D01*
X96029727Y-93542096D01*
X96005929Y-93536135D01*
X95982829Y-93527870D01*
X95960651Y-93517380D01*
X95939607Y-93504767D01*
X95919902Y-93490153D01*
X95901723Y-93473677D01*
X95885247Y-93455498D01*
X95870633Y-93435793D01*
X95858020Y-93414749D01*
X95847530Y-93392571D01*
X95839265Y-93369471D01*
X95833304Y-93345673D01*
X95829704Y-93321404D01*
X95828500Y-93296900D01*
X95828500Y-92046900D01*
X95829704Y-92022396D01*
X95833304Y-91998127D01*
X95839265Y-91974329D01*
X95847530Y-91951229D01*
X95858020Y-91929051D01*
X95870633Y-91908007D01*
X95885247Y-91888302D01*
X95901723Y-91870123D01*
X95919902Y-91853647D01*
X95939607Y-91839033D01*
X95960651Y-91826420D01*
X95982829Y-91815930D01*
X96005929Y-91807665D01*
X96029727Y-91801704D01*
X96053996Y-91798104D01*
X96078500Y-91796900D01*
X96828500Y-91796900D01*
X96853004Y-91798104D01*
G37*
G36*
X99653004Y-91798104D02*
G01*
X99677273Y-91801704D01*
X99701071Y-91807665D01*
X99724171Y-91815930D01*
X99746349Y-91826420D01*
X99767393Y-91839033D01*
X99787098Y-91853647D01*
X99805277Y-91870123D01*
X99821753Y-91888302D01*
X99836367Y-91908007D01*
X99848980Y-91929051D01*
X99859470Y-91951229D01*
X99867735Y-91974329D01*
X99873696Y-91998127D01*
X99877296Y-92022396D01*
X99878500Y-92046900D01*
X99878500Y-93296900D01*
X99877296Y-93321404D01*
X99873696Y-93345673D01*
X99867735Y-93369471D01*
X99859470Y-93392571D01*
X99848980Y-93414749D01*
X99836367Y-93435793D01*
X99821753Y-93455498D01*
X99805277Y-93473677D01*
X99787098Y-93490153D01*
X99767393Y-93504767D01*
X99746349Y-93517380D01*
X99724171Y-93527870D01*
X99701071Y-93536135D01*
X99677273Y-93542096D01*
X99653004Y-93545696D01*
X99628500Y-93546900D01*
X98878500Y-93546900D01*
X98853996Y-93545696D01*
X98829727Y-93542096D01*
X98805929Y-93536135D01*
X98782829Y-93527870D01*
X98760651Y-93517380D01*
X98739607Y-93504767D01*
X98719902Y-93490153D01*
X98701723Y-93473677D01*
X98685247Y-93455498D01*
X98670633Y-93435793D01*
X98658020Y-93414749D01*
X98647530Y-93392571D01*
X98639265Y-93369471D01*
X98633304Y-93345673D01*
X98629704Y-93321404D01*
X98628500Y-93296900D01*
X98628500Y-92046900D01*
X98629704Y-92022396D01*
X98633304Y-91998127D01*
X98639265Y-91974329D01*
X98647530Y-91951229D01*
X98658020Y-91929051D01*
X98670633Y-91908007D01*
X98685247Y-91888302D01*
X98701723Y-91870123D01*
X98719902Y-91853647D01*
X98739607Y-91839033D01*
X98760651Y-91826420D01*
X98782829Y-91815930D01*
X98805929Y-91807665D01*
X98829727Y-91801704D01*
X98853996Y-91798104D01*
X98878500Y-91796900D01*
X99628500Y-91796900D01*
X99653004Y-91798104D01*
G37*
%TD*%
%TO.C,D2*%
G36*
X99551404Y-94693704D02*
G01*
X99575673Y-94697304D01*
X99599471Y-94703265D01*
X99622571Y-94711530D01*
X99644749Y-94722020D01*
X99665793Y-94734633D01*
X99685498Y-94749247D01*
X99703677Y-94765723D01*
X99720153Y-94783902D01*
X99734767Y-94803607D01*
X99747380Y-94824651D01*
X99757870Y-94846829D01*
X99766135Y-94869929D01*
X99772096Y-94893727D01*
X99775696Y-94917996D01*
X99776900Y-94942500D01*
X99776900Y-96192500D01*
X99775696Y-96217004D01*
X99772096Y-96241273D01*
X99766135Y-96265071D01*
X99757870Y-96288171D01*
X99747380Y-96310349D01*
X99734767Y-96331393D01*
X99720153Y-96351098D01*
X99703677Y-96369277D01*
X99685498Y-96385753D01*
X99665793Y-96400367D01*
X99644749Y-96412980D01*
X99622571Y-96423470D01*
X99599471Y-96431735D01*
X99575673Y-96437696D01*
X99551404Y-96441296D01*
X99526900Y-96442500D01*
X98776900Y-96442500D01*
X98752396Y-96441296D01*
X98728127Y-96437696D01*
X98704329Y-96431735D01*
X98681229Y-96423470D01*
X98659051Y-96412980D01*
X98638007Y-96400367D01*
X98618302Y-96385753D01*
X98600123Y-96369277D01*
X98583647Y-96351098D01*
X98569033Y-96331393D01*
X98556420Y-96310349D01*
X98545930Y-96288171D01*
X98537665Y-96265071D01*
X98531704Y-96241273D01*
X98528104Y-96217004D01*
X98526900Y-96192500D01*
X98526900Y-94942500D01*
X98528104Y-94917996D01*
X98531704Y-94893727D01*
X98537665Y-94869929D01*
X98545930Y-94846829D01*
X98556420Y-94824651D01*
X98569033Y-94803607D01*
X98583647Y-94783902D01*
X98600123Y-94765723D01*
X98618302Y-94749247D01*
X98638007Y-94734633D01*
X98659051Y-94722020D01*
X98681229Y-94711530D01*
X98704329Y-94703265D01*
X98728127Y-94697304D01*
X98752396Y-94693704D01*
X98776900Y-94692500D01*
X99526900Y-94692500D01*
X99551404Y-94693704D01*
G37*
G36*
X96751404Y-94693704D02*
G01*
X96775673Y-94697304D01*
X96799471Y-94703265D01*
X96822571Y-94711530D01*
X96844749Y-94722020D01*
X96865793Y-94734633D01*
X96885498Y-94749247D01*
X96903677Y-94765723D01*
X96920153Y-94783902D01*
X96934767Y-94803607D01*
X96947380Y-94824651D01*
X96957870Y-94846829D01*
X96966135Y-94869929D01*
X96972096Y-94893727D01*
X96975696Y-94917996D01*
X96976900Y-94942500D01*
X96976900Y-96192500D01*
X96975696Y-96217004D01*
X96972096Y-96241273D01*
X96966135Y-96265071D01*
X96957870Y-96288171D01*
X96947380Y-96310349D01*
X96934767Y-96331393D01*
X96920153Y-96351098D01*
X96903677Y-96369277D01*
X96885498Y-96385753D01*
X96865793Y-96400367D01*
X96844749Y-96412980D01*
X96822571Y-96423470D01*
X96799471Y-96431735D01*
X96775673Y-96437696D01*
X96751404Y-96441296D01*
X96726900Y-96442500D01*
X95976900Y-96442500D01*
X95952396Y-96441296D01*
X95928127Y-96437696D01*
X95904329Y-96431735D01*
X95881229Y-96423470D01*
X95859051Y-96412980D01*
X95838007Y-96400367D01*
X95818302Y-96385753D01*
X95800123Y-96369277D01*
X95783647Y-96351098D01*
X95769033Y-96331393D01*
X95756420Y-96310349D01*
X95745930Y-96288171D01*
X95737665Y-96265071D01*
X95731704Y-96241273D01*
X95728104Y-96217004D01*
X95726900Y-96192500D01*
X95726900Y-94942500D01*
X95728104Y-94917996D01*
X95731704Y-94893727D01*
X95737665Y-94869929D01*
X95745930Y-94846829D01*
X95756420Y-94824651D01*
X95769033Y-94803607D01*
X95783647Y-94783902D01*
X95800123Y-94765723D01*
X95818302Y-94749247D01*
X95838007Y-94734633D01*
X95859051Y-94722020D01*
X95881229Y-94711530D01*
X95904329Y-94703265D01*
X95928127Y-94697304D01*
X95952396Y-94693704D01*
X95976900Y-94692500D01*
X96726900Y-94692500D01*
X96751404Y-94693704D01*
G37*
%TD*%
%TO.C,D3*%
G36*
X96853004Y-88737404D02*
G01*
X96877273Y-88741004D01*
X96901071Y-88746965D01*
X96924171Y-88755230D01*
X96946349Y-88765720D01*
X96967393Y-88778333D01*
X96987098Y-88792947D01*
X97005277Y-88809423D01*
X97021753Y-88827602D01*
X97036367Y-88847307D01*
X97048980Y-88868351D01*
X97059470Y-88890529D01*
X97067735Y-88913629D01*
X97073696Y-88937427D01*
X97077296Y-88961696D01*
X97078500Y-88986200D01*
X97078500Y-90236200D01*
X97077296Y-90260704D01*
X97073696Y-90284973D01*
X97067735Y-90308771D01*
X97059470Y-90331871D01*
X97048980Y-90354049D01*
X97036367Y-90375093D01*
X97021753Y-90394798D01*
X97005277Y-90412977D01*
X96987098Y-90429453D01*
X96967393Y-90444067D01*
X96946349Y-90456680D01*
X96924171Y-90467170D01*
X96901071Y-90475435D01*
X96877273Y-90481396D01*
X96853004Y-90484996D01*
X96828500Y-90486200D01*
X96078500Y-90486200D01*
X96053996Y-90484996D01*
X96029727Y-90481396D01*
X96005929Y-90475435D01*
X95982829Y-90467170D01*
X95960651Y-90456680D01*
X95939607Y-90444067D01*
X95919902Y-90429453D01*
X95901723Y-90412977D01*
X95885247Y-90394798D01*
X95870633Y-90375093D01*
X95858020Y-90354049D01*
X95847530Y-90331871D01*
X95839265Y-90308771D01*
X95833304Y-90284973D01*
X95829704Y-90260704D01*
X95828500Y-90236200D01*
X95828500Y-88986200D01*
X95829704Y-88961696D01*
X95833304Y-88937427D01*
X95839265Y-88913629D01*
X95847530Y-88890529D01*
X95858020Y-88868351D01*
X95870633Y-88847307D01*
X95885247Y-88827602D01*
X95901723Y-88809423D01*
X95919902Y-88792947D01*
X95939607Y-88778333D01*
X95960651Y-88765720D01*
X95982829Y-88755230D01*
X96005929Y-88746965D01*
X96029727Y-88741004D01*
X96053996Y-88737404D01*
X96078500Y-88736200D01*
X96828500Y-88736200D01*
X96853004Y-88737404D01*
G37*
G36*
X99653004Y-88737404D02*
G01*
X99677273Y-88741004D01*
X99701071Y-88746965D01*
X99724171Y-88755230D01*
X99746349Y-88765720D01*
X99767393Y-88778333D01*
X99787098Y-88792947D01*
X99805277Y-88809423D01*
X99821753Y-88827602D01*
X99836367Y-88847307D01*
X99848980Y-88868351D01*
X99859470Y-88890529D01*
X99867735Y-88913629D01*
X99873696Y-88937427D01*
X99877296Y-88961696D01*
X99878500Y-88986200D01*
X99878500Y-90236200D01*
X99877296Y-90260704D01*
X99873696Y-90284973D01*
X99867735Y-90308771D01*
X99859470Y-90331871D01*
X99848980Y-90354049D01*
X99836367Y-90375093D01*
X99821753Y-90394798D01*
X99805277Y-90412977D01*
X99787098Y-90429453D01*
X99767393Y-90444067D01*
X99746349Y-90456680D01*
X99724171Y-90467170D01*
X99701071Y-90475435D01*
X99677273Y-90481396D01*
X99653004Y-90484996D01*
X99628500Y-90486200D01*
X98878500Y-90486200D01*
X98853996Y-90484996D01*
X98829727Y-90481396D01*
X98805929Y-90475435D01*
X98782829Y-90467170D01*
X98760651Y-90456680D01*
X98739607Y-90444067D01*
X98719902Y-90429453D01*
X98701723Y-90412977D01*
X98685247Y-90394798D01*
X98670633Y-90375093D01*
X98658020Y-90354049D01*
X98647530Y-90331871D01*
X98639265Y-90308771D01*
X98633304Y-90284973D01*
X98629704Y-90260704D01*
X98628500Y-90236200D01*
X98628500Y-88986200D01*
X98629704Y-88961696D01*
X98633304Y-88937427D01*
X98639265Y-88913629D01*
X98647530Y-88890529D01*
X98658020Y-88868351D01*
X98670633Y-88847307D01*
X98685247Y-88827602D01*
X98701723Y-88809423D01*
X98719902Y-88792947D01*
X98739607Y-88778333D01*
X98760651Y-88765720D01*
X98782829Y-88755230D01*
X98805929Y-88746965D01*
X98829727Y-88741004D01*
X98853996Y-88737404D01*
X98878500Y-88736200D01*
X99628500Y-88736200D01*
X99653004Y-88737404D01*
G37*
%TD*%
%TO.C,D4*%
G36*
X168481004Y-100484904D02*
G01*
X168505273Y-100488504D01*
X168529071Y-100494465D01*
X168552171Y-100502730D01*
X168574349Y-100513220D01*
X168595393Y-100525833D01*
X168615098Y-100540447D01*
X168633277Y-100556923D01*
X168649753Y-100575102D01*
X168664367Y-100594807D01*
X168676980Y-100615851D01*
X168687470Y-100638029D01*
X168695735Y-100661129D01*
X168701696Y-100684927D01*
X168705296Y-100709196D01*
X168706500Y-100733700D01*
X168706500Y-101983700D01*
X168705296Y-102008204D01*
X168701696Y-102032473D01*
X168695735Y-102056271D01*
X168687470Y-102079371D01*
X168676980Y-102101549D01*
X168664367Y-102122593D01*
X168649753Y-102142298D01*
X168633277Y-102160477D01*
X168615098Y-102176953D01*
X168595393Y-102191567D01*
X168574349Y-102204180D01*
X168552171Y-102214670D01*
X168529071Y-102222935D01*
X168505273Y-102228896D01*
X168481004Y-102232496D01*
X168456500Y-102233700D01*
X167706500Y-102233700D01*
X167681996Y-102232496D01*
X167657727Y-102228896D01*
X167633929Y-102222935D01*
X167610829Y-102214670D01*
X167588651Y-102204180D01*
X167567607Y-102191567D01*
X167547902Y-102176953D01*
X167529723Y-102160477D01*
X167513247Y-102142298D01*
X167498633Y-102122593D01*
X167486020Y-102101549D01*
X167475530Y-102079371D01*
X167467265Y-102056271D01*
X167461304Y-102032473D01*
X167457704Y-102008204D01*
X167456500Y-101983700D01*
X167456500Y-100733700D01*
X167457704Y-100709196D01*
X167461304Y-100684927D01*
X167467265Y-100661129D01*
X167475530Y-100638029D01*
X167486020Y-100615851D01*
X167498633Y-100594807D01*
X167513247Y-100575102D01*
X167529723Y-100556923D01*
X167547902Y-100540447D01*
X167567607Y-100525833D01*
X167588651Y-100513220D01*
X167610829Y-100502730D01*
X167633929Y-100494465D01*
X167657727Y-100488504D01*
X167681996Y-100484904D01*
X167706500Y-100483700D01*
X168456500Y-100483700D01*
X168481004Y-100484904D01*
G37*
G36*
X171281004Y-100484904D02*
G01*
X171305273Y-100488504D01*
X171329071Y-100494465D01*
X171352171Y-100502730D01*
X171374349Y-100513220D01*
X171395393Y-100525833D01*
X171415098Y-100540447D01*
X171433277Y-100556923D01*
X171449753Y-100575102D01*
X171464367Y-100594807D01*
X171476980Y-100615851D01*
X171487470Y-100638029D01*
X171495735Y-100661129D01*
X171501696Y-100684927D01*
X171505296Y-100709196D01*
X171506500Y-100733700D01*
X171506500Y-101983700D01*
X171505296Y-102008204D01*
X171501696Y-102032473D01*
X171495735Y-102056271D01*
X171487470Y-102079371D01*
X171476980Y-102101549D01*
X171464367Y-102122593D01*
X171449753Y-102142298D01*
X171433277Y-102160477D01*
X171415098Y-102176953D01*
X171395393Y-102191567D01*
X171374349Y-102204180D01*
X171352171Y-102214670D01*
X171329071Y-102222935D01*
X171305273Y-102228896D01*
X171281004Y-102232496D01*
X171256500Y-102233700D01*
X170506500Y-102233700D01*
X170481996Y-102232496D01*
X170457727Y-102228896D01*
X170433929Y-102222935D01*
X170410829Y-102214670D01*
X170388651Y-102204180D01*
X170367607Y-102191567D01*
X170347902Y-102176953D01*
X170329723Y-102160477D01*
X170313247Y-102142298D01*
X170298633Y-102122593D01*
X170286020Y-102101549D01*
X170275530Y-102079371D01*
X170267265Y-102056271D01*
X170261304Y-102032473D01*
X170257704Y-102008204D01*
X170256500Y-101983700D01*
X170256500Y-100733700D01*
X170257704Y-100709196D01*
X170261304Y-100684927D01*
X170267265Y-100661129D01*
X170275530Y-100638029D01*
X170286020Y-100615851D01*
X170298633Y-100594807D01*
X170313247Y-100575102D01*
X170329723Y-100556923D01*
X170347902Y-100540447D01*
X170367607Y-100525833D01*
X170388651Y-100513220D01*
X170410829Y-100502730D01*
X170433929Y-100494465D01*
X170457727Y-100488504D01*
X170481996Y-100484904D01*
X170506500Y-100483700D01*
X171256500Y-100483700D01*
X171281004Y-100484904D01*
G37*
%TD*%
%TO.C,D5*%
G36*
X163615904Y-66137104D02*
G01*
X163640173Y-66140704D01*
X163663971Y-66146665D01*
X163687071Y-66154930D01*
X163709249Y-66165420D01*
X163730293Y-66178033D01*
X163749998Y-66192647D01*
X163768177Y-66209123D01*
X163784653Y-66227302D01*
X163799267Y-66247007D01*
X163811880Y-66268051D01*
X163822370Y-66290229D01*
X163830635Y-66313329D01*
X163836596Y-66337127D01*
X163840196Y-66361396D01*
X163841400Y-66385900D01*
X163841400Y-67135900D01*
X163840196Y-67160404D01*
X163836596Y-67184673D01*
X163830635Y-67208471D01*
X163822370Y-67231571D01*
X163811880Y-67253749D01*
X163799267Y-67274793D01*
X163784653Y-67294498D01*
X163768177Y-67312677D01*
X163749998Y-67329153D01*
X163730293Y-67343767D01*
X163709249Y-67356380D01*
X163687071Y-67366870D01*
X163663971Y-67375135D01*
X163640173Y-67381096D01*
X163615904Y-67384696D01*
X163591400Y-67385900D01*
X162341400Y-67385900D01*
X162316896Y-67384696D01*
X162292627Y-67381096D01*
X162268829Y-67375135D01*
X162245729Y-67366870D01*
X162223551Y-67356380D01*
X162202507Y-67343767D01*
X162182802Y-67329153D01*
X162164623Y-67312677D01*
X162148147Y-67294498D01*
X162133533Y-67274793D01*
X162120920Y-67253749D01*
X162110430Y-67231571D01*
X162102165Y-67208471D01*
X162096204Y-67184673D01*
X162092604Y-67160404D01*
X162091400Y-67135900D01*
X162091400Y-66385900D01*
X162092604Y-66361396D01*
X162096204Y-66337127D01*
X162102165Y-66313329D01*
X162110430Y-66290229D01*
X162120920Y-66268051D01*
X162133533Y-66247007D01*
X162148147Y-66227302D01*
X162164623Y-66209123D01*
X162182802Y-66192647D01*
X162202507Y-66178033D01*
X162223551Y-66165420D01*
X162245729Y-66154930D01*
X162268829Y-66146665D01*
X162292627Y-66140704D01*
X162316896Y-66137104D01*
X162341400Y-66135900D01*
X163591400Y-66135900D01*
X163615904Y-66137104D01*
G37*
G36*
X163615904Y-68937104D02*
G01*
X163640173Y-68940704D01*
X163663971Y-68946665D01*
X163687071Y-68954930D01*
X163709249Y-68965420D01*
X163730293Y-68978033D01*
X163749998Y-68992647D01*
X163768177Y-69009123D01*
X163784653Y-69027302D01*
X163799267Y-69047007D01*
X163811880Y-69068051D01*
X163822370Y-69090229D01*
X163830635Y-69113329D01*
X163836596Y-69137127D01*
X163840196Y-69161396D01*
X163841400Y-69185900D01*
X163841400Y-69935900D01*
X163840196Y-69960404D01*
X163836596Y-69984673D01*
X163830635Y-70008471D01*
X163822370Y-70031571D01*
X163811880Y-70053749D01*
X163799267Y-70074793D01*
X163784653Y-70094498D01*
X163768177Y-70112677D01*
X163749998Y-70129153D01*
X163730293Y-70143767D01*
X163709249Y-70156380D01*
X163687071Y-70166870D01*
X163663971Y-70175135D01*
X163640173Y-70181096D01*
X163615904Y-70184696D01*
X163591400Y-70185900D01*
X162341400Y-70185900D01*
X162316896Y-70184696D01*
X162292627Y-70181096D01*
X162268829Y-70175135D01*
X162245729Y-70166870D01*
X162223551Y-70156380D01*
X162202507Y-70143767D01*
X162182802Y-70129153D01*
X162164623Y-70112677D01*
X162148147Y-70094498D01*
X162133533Y-70074793D01*
X162120920Y-70053749D01*
X162110430Y-70031571D01*
X162102165Y-70008471D01*
X162096204Y-69984673D01*
X162092604Y-69960404D01*
X162091400Y-69935900D01*
X162091400Y-69185900D01*
X162092604Y-69161396D01*
X162096204Y-69137127D01*
X162102165Y-69113329D01*
X162110430Y-69090229D01*
X162120920Y-69068051D01*
X162133533Y-69047007D01*
X162148147Y-69027302D01*
X162164623Y-69009123D01*
X162182802Y-68992647D01*
X162202507Y-68978033D01*
X162223551Y-68965420D01*
X162245729Y-68954930D01*
X162268829Y-68946665D01*
X162292627Y-68940704D01*
X162316896Y-68937104D01*
X162341400Y-68935900D01*
X163591400Y-68935900D01*
X163615904Y-68937104D01*
G37*
%TD*%
%TO.C,R1*%
G36*
X178608907Y-56492104D02*
G01*
X178633175Y-56495704D01*
X178656973Y-56501665D01*
X178680073Y-56509930D01*
X178702251Y-56520419D01*
X178723294Y-56533032D01*
X178742999Y-56547647D01*
X178761178Y-56564122D01*
X178777653Y-56582301D01*
X178792268Y-56602006D01*
X178804881Y-56623049D01*
X178815370Y-56645227D01*
X178823635Y-56668327D01*
X178829596Y-56692125D01*
X178833196Y-56716393D01*
X178834400Y-56740897D01*
X178834400Y-57990903D01*
X178833196Y-58015407D01*
X178829596Y-58039675D01*
X178823635Y-58063473D01*
X178815370Y-58086573D01*
X178804881Y-58108751D01*
X178792268Y-58129794D01*
X178777653Y-58149499D01*
X178761178Y-58167678D01*
X178742999Y-58184153D01*
X178723294Y-58198768D01*
X178702251Y-58211381D01*
X178680073Y-58221870D01*
X178656973Y-58230135D01*
X178633175Y-58236096D01*
X178608907Y-58239696D01*
X178584403Y-58240900D01*
X177959397Y-58240900D01*
X177934893Y-58239696D01*
X177910625Y-58236096D01*
X177886827Y-58230135D01*
X177863727Y-58221870D01*
X177841549Y-58211381D01*
X177820506Y-58198768D01*
X177800801Y-58184153D01*
X177782622Y-58167678D01*
X177766147Y-58149499D01*
X177751532Y-58129794D01*
X177738919Y-58108751D01*
X177728430Y-58086573D01*
X177720165Y-58063473D01*
X177714204Y-58039675D01*
X177710604Y-58015407D01*
X177709400Y-57990903D01*
X177709400Y-56740897D01*
X177710604Y-56716393D01*
X177714204Y-56692125D01*
X177720165Y-56668327D01*
X177728430Y-56645227D01*
X177738919Y-56623049D01*
X177751532Y-56602006D01*
X177766147Y-56582301D01*
X177782622Y-56564122D01*
X177800801Y-56547647D01*
X177820506Y-56533032D01*
X177841549Y-56520419D01*
X177863727Y-56509930D01*
X177886827Y-56501665D01*
X177910625Y-56495704D01*
X177934893Y-56492104D01*
X177959397Y-56490900D01*
X178584403Y-56490900D01*
X178608907Y-56492104D01*
G37*
G36*
X175683907Y-56492104D02*
G01*
X175708175Y-56495704D01*
X175731973Y-56501665D01*
X175755073Y-56509930D01*
X175777251Y-56520419D01*
X175798294Y-56533032D01*
X175817999Y-56547647D01*
X175836178Y-56564122D01*
X175852653Y-56582301D01*
X175867268Y-56602006D01*
X175879881Y-56623049D01*
X175890370Y-56645227D01*
X175898635Y-56668327D01*
X175904596Y-56692125D01*
X175908196Y-56716393D01*
X175909400Y-56740897D01*
X175909400Y-57990903D01*
X175908196Y-58015407D01*
X175904596Y-58039675D01*
X175898635Y-58063473D01*
X175890370Y-58086573D01*
X175879881Y-58108751D01*
X175867268Y-58129794D01*
X175852653Y-58149499D01*
X175836178Y-58167678D01*
X175817999Y-58184153D01*
X175798294Y-58198768D01*
X175777251Y-58211381D01*
X175755073Y-58221870D01*
X175731973Y-58230135D01*
X175708175Y-58236096D01*
X175683907Y-58239696D01*
X175659403Y-58240900D01*
X175034397Y-58240900D01*
X175009893Y-58239696D01*
X174985625Y-58236096D01*
X174961827Y-58230135D01*
X174938727Y-58221870D01*
X174916549Y-58211381D01*
X174895506Y-58198768D01*
X174875801Y-58184153D01*
X174857622Y-58167678D01*
X174841147Y-58149499D01*
X174826532Y-58129794D01*
X174813919Y-58108751D01*
X174803430Y-58086573D01*
X174795165Y-58063473D01*
X174789204Y-58039675D01*
X174785604Y-58015407D01*
X174784400Y-57990903D01*
X174784400Y-56740897D01*
X174785604Y-56716393D01*
X174789204Y-56692125D01*
X174795165Y-56668327D01*
X174803430Y-56645227D01*
X174813919Y-56623049D01*
X174826532Y-56602006D01*
X174841147Y-56582301D01*
X174857622Y-56564122D01*
X174875801Y-56547647D01*
X174895506Y-56533032D01*
X174916549Y-56520419D01*
X174938727Y-56509930D01*
X174961827Y-56501665D01*
X174985625Y-56495704D01*
X175009893Y-56492104D01*
X175034397Y-56490900D01*
X175659403Y-56490900D01*
X175683907Y-56492104D01*
G37*
%TD*%
%TO.C,R2*%
G36*
X172893907Y-56314304D02*
G01*
X172918175Y-56317904D01*
X172941973Y-56323865D01*
X172965073Y-56332130D01*
X172987251Y-56342619D01*
X173008294Y-56355232D01*
X173027999Y-56369847D01*
X173046178Y-56386322D01*
X173062653Y-56404501D01*
X173077268Y-56424206D01*
X173089881Y-56445249D01*
X173100370Y-56467427D01*
X173108635Y-56490527D01*
X173114596Y-56514325D01*
X173118196Y-56538593D01*
X173119400Y-56563097D01*
X173119400Y-57813103D01*
X173118196Y-57837607D01*
X173114596Y-57861875D01*
X173108635Y-57885673D01*
X173100370Y-57908773D01*
X173089881Y-57930951D01*
X173077268Y-57951994D01*
X173062653Y-57971699D01*
X173046178Y-57989878D01*
X173027999Y-58006353D01*
X173008294Y-58020968D01*
X172987251Y-58033581D01*
X172965073Y-58044070D01*
X172941973Y-58052335D01*
X172918175Y-58058296D01*
X172893907Y-58061896D01*
X172869403Y-58063100D01*
X172244397Y-58063100D01*
X172219893Y-58061896D01*
X172195625Y-58058296D01*
X172171827Y-58052335D01*
X172148727Y-58044070D01*
X172126549Y-58033581D01*
X172105506Y-58020968D01*
X172085801Y-58006353D01*
X172067622Y-57989878D01*
X172051147Y-57971699D01*
X172036532Y-57951994D01*
X172023919Y-57930951D01*
X172013430Y-57908773D01*
X172005165Y-57885673D01*
X171999204Y-57861875D01*
X171995604Y-57837607D01*
X171994400Y-57813103D01*
X171994400Y-56563097D01*
X171995604Y-56538593D01*
X171999204Y-56514325D01*
X172005165Y-56490527D01*
X172013430Y-56467427D01*
X172023919Y-56445249D01*
X172036532Y-56424206D01*
X172051147Y-56404501D01*
X172067622Y-56386322D01*
X172085801Y-56369847D01*
X172105506Y-56355232D01*
X172126549Y-56342619D01*
X172148727Y-56332130D01*
X172171827Y-56323865D01*
X172195625Y-56317904D01*
X172219893Y-56314304D01*
X172244397Y-56313100D01*
X172869403Y-56313100D01*
X172893907Y-56314304D01*
G37*
G36*
X169968907Y-56314304D02*
G01*
X169993175Y-56317904D01*
X170016973Y-56323865D01*
X170040073Y-56332130D01*
X170062251Y-56342619D01*
X170083294Y-56355232D01*
X170102999Y-56369847D01*
X170121178Y-56386322D01*
X170137653Y-56404501D01*
X170152268Y-56424206D01*
X170164881Y-56445249D01*
X170175370Y-56467427D01*
X170183635Y-56490527D01*
X170189596Y-56514325D01*
X170193196Y-56538593D01*
X170194400Y-56563097D01*
X170194400Y-57813103D01*
X170193196Y-57837607D01*
X170189596Y-57861875D01*
X170183635Y-57885673D01*
X170175370Y-57908773D01*
X170164881Y-57930951D01*
X170152268Y-57951994D01*
X170137653Y-57971699D01*
X170121178Y-57989878D01*
X170102999Y-58006353D01*
X170083294Y-58020968D01*
X170062251Y-58033581D01*
X170040073Y-58044070D01*
X170016973Y-58052335D01*
X169993175Y-58058296D01*
X169968907Y-58061896D01*
X169944403Y-58063100D01*
X169319397Y-58063100D01*
X169294893Y-58061896D01*
X169270625Y-58058296D01*
X169246827Y-58052335D01*
X169223727Y-58044070D01*
X169201549Y-58033581D01*
X169180506Y-58020968D01*
X169160801Y-58006353D01*
X169142622Y-57989878D01*
X169126147Y-57971699D01*
X169111532Y-57951994D01*
X169098919Y-57930951D01*
X169088430Y-57908773D01*
X169080165Y-57885673D01*
X169074204Y-57861875D01*
X169070604Y-57837607D01*
X169069400Y-57813103D01*
X169069400Y-56563097D01*
X169070604Y-56538593D01*
X169074204Y-56514325D01*
X169080165Y-56490527D01*
X169088430Y-56467427D01*
X169098919Y-56445249D01*
X169111532Y-56424206D01*
X169126147Y-56404501D01*
X169142622Y-56386322D01*
X169160801Y-56369847D01*
X169180506Y-56355232D01*
X169201549Y-56342619D01*
X169223727Y-56332130D01*
X169246827Y-56323865D01*
X169270625Y-56317904D01*
X169294893Y-56314304D01*
X169319397Y-56313100D01*
X169944403Y-56313100D01*
X169968907Y-56314304D01*
G37*
%TD*%
%TO.C,R3*%
G36*
X189841407Y-89848004D02*
G01*
X189865675Y-89851604D01*
X189889473Y-89857565D01*
X189912573Y-89865830D01*
X189934751Y-89876319D01*
X189955794Y-89888932D01*
X189975499Y-89903547D01*
X189993678Y-89920022D01*
X190010153Y-89938201D01*
X190024768Y-89957906D01*
X190037381Y-89978949D01*
X190047870Y-90001127D01*
X190056135Y-90024227D01*
X190062096Y-90048025D01*
X190065696Y-90072293D01*
X190066900Y-90096797D01*
X190066900Y-90721803D01*
X190065696Y-90746307D01*
X190062096Y-90770575D01*
X190056135Y-90794373D01*
X190047870Y-90817473D01*
X190037381Y-90839651D01*
X190024768Y-90860694D01*
X190010153Y-90880399D01*
X189993678Y-90898578D01*
X189975499Y-90915053D01*
X189955794Y-90929668D01*
X189934751Y-90942281D01*
X189912573Y-90952770D01*
X189889473Y-90961035D01*
X189865675Y-90966996D01*
X189841407Y-90970596D01*
X189816903Y-90971800D01*
X188566897Y-90971800D01*
X188542393Y-90970596D01*
X188518125Y-90966996D01*
X188494327Y-90961035D01*
X188471227Y-90952770D01*
X188449049Y-90942281D01*
X188428006Y-90929668D01*
X188408301Y-90915053D01*
X188390122Y-90898578D01*
X188373647Y-90880399D01*
X188359032Y-90860694D01*
X188346419Y-90839651D01*
X188335930Y-90817473D01*
X188327665Y-90794373D01*
X188321704Y-90770575D01*
X188318104Y-90746307D01*
X188316900Y-90721803D01*
X188316900Y-90096797D01*
X188318104Y-90072293D01*
X188321704Y-90048025D01*
X188327665Y-90024227D01*
X188335930Y-90001127D01*
X188346419Y-89978949D01*
X188359032Y-89957906D01*
X188373647Y-89938201D01*
X188390122Y-89920022D01*
X188408301Y-89903547D01*
X188428006Y-89888932D01*
X188449049Y-89876319D01*
X188471227Y-89865830D01*
X188494327Y-89857565D01*
X188518125Y-89851604D01*
X188542393Y-89848004D01*
X188566897Y-89846800D01*
X189816903Y-89846800D01*
X189841407Y-89848004D01*
G37*
G36*
X189841407Y-92773004D02*
G01*
X189865675Y-92776604D01*
X189889473Y-92782565D01*
X189912573Y-92790830D01*
X189934751Y-92801319D01*
X189955794Y-92813932D01*
X189975499Y-92828547D01*
X189993678Y-92845022D01*
X190010153Y-92863201D01*
X190024768Y-92882906D01*
X190037381Y-92903949D01*
X190047870Y-92926127D01*
X190056135Y-92949227D01*
X190062096Y-92973025D01*
X190065696Y-92997293D01*
X190066900Y-93021797D01*
X190066900Y-93646803D01*
X190065696Y-93671307D01*
X190062096Y-93695575D01*
X190056135Y-93719373D01*
X190047870Y-93742473D01*
X190037381Y-93764651D01*
X190024768Y-93785694D01*
X190010153Y-93805399D01*
X189993678Y-93823578D01*
X189975499Y-93840053D01*
X189955794Y-93854668D01*
X189934751Y-93867281D01*
X189912573Y-93877770D01*
X189889473Y-93886035D01*
X189865675Y-93891996D01*
X189841407Y-93895596D01*
X189816903Y-93896800D01*
X188566897Y-93896800D01*
X188542393Y-93895596D01*
X188518125Y-93891996D01*
X188494327Y-93886035D01*
X188471227Y-93877770D01*
X188449049Y-93867281D01*
X188428006Y-93854668D01*
X188408301Y-93840053D01*
X188390122Y-93823578D01*
X188373647Y-93805399D01*
X188359032Y-93785694D01*
X188346419Y-93764651D01*
X188335930Y-93742473D01*
X188327665Y-93719373D01*
X188321704Y-93695575D01*
X188318104Y-93671307D01*
X188316900Y-93646803D01*
X188316900Y-93021797D01*
X188318104Y-92997293D01*
X188321704Y-92973025D01*
X188327665Y-92949227D01*
X188335930Y-92926127D01*
X188346419Y-92903949D01*
X188359032Y-92882906D01*
X188373647Y-92863201D01*
X188390122Y-92845022D01*
X188408301Y-92828547D01*
X188428006Y-92813932D01*
X188449049Y-92801319D01*
X188471227Y-92790830D01*
X188494327Y-92782565D01*
X188518125Y-92776604D01*
X188542393Y-92773004D01*
X188566897Y-92771800D01*
X189816903Y-92771800D01*
X189841407Y-92773004D01*
G37*
%TD*%
%TO.C,R4*%
G36*
X187174407Y-92722204D02*
G01*
X187198675Y-92725804D01*
X187222473Y-92731765D01*
X187245573Y-92740030D01*
X187267751Y-92750519D01*
X187288794Y-92763132D01*
X187308499Y-92777747D01*
X187326678Y-92794222D01*
X187343153Y-92812401D01*
X187357768Y-92832106D01*
X187370381Y-92853149D01*
X187380870Y-92875327D01*
X187389135Y-92898427D01*
X187395096Y-92922225D01*
X187398696Y-92946493D01*
X187399900Y-92970997D01*
X187399900Y-93596003D01*
X187398696Y-93620507D01*
X187395096Y-93644775D01*
X187389135Y-93668573D01*
X187380870Y-93691673D01*
X187370381Y-93713851D01*
X187357768Y-93734894D01*
X187343153Y-93754599D01*
X187326678Y-93772778D01*
X187308499Y-93789253D01*
X187288794Y-93803868D01*
X187267751Y-93816481D01*
X187245573Y-93826970D01*
X187222473Y-93835235D01*
X187198675Y-93841196D01*
X187174407Y-93844796D01*
X187149903Y-93846000D01*
X185899897Y-93846000D01*
X185875393Y-93844796D01*
X185851125Y-93841196D01*
X185827327Y-93835235D01*
X185804227Y-93826970D01*
X185782049Y-93816481D01*
X185761006Y-93803868D01*
X185741301Y-93789253D01*
X185723122Y-93772778D01*
X185706647Y-93754599D01*
X185692032Y-93734894D01*
X185679419Y-93713851D01*
X185668930Y-93691673D01*
X185660665Y-93668573D01*
X185654704Y-93644775D01*
X185651104Y-93620507D01*
X185649900Y-93596003D01*
X185649900Y-92970997D01*
X185651104Y-92946493D01*
X185654704Y-92922225D01*
X185660665Y-92898427D01*
X185668930Y-92875327D01*
X185679419Y-92853149D01*
X185692032Y-92832106D01*
X185706647Y-92812401D01*
X185723122Y-92794222D01*
X185741301Y-92777747D01*
X185761006Y-92763132D01*
X185782049Y-92750519D01*
X185804227Y-92740030D01*
X185827327Y-92731765D01*
X185851125Y-92725804D01*
X185875393Y-92722204D01*
X185899897Y-92721000D01*
X187149903Y-92721000D01*
X187174407Y-92722204D01*
G37*
G36*
X187174407Y-89797204D02*
G01*
X187198675Y-89800804D01*
X187222473Y-89806765D01*
X187245573Y-89815030D01*
X187267751Y-89825519D01*
X187288794Y-89838132D01*
X187308499Y-89852747D01*
X187326678Y-89869222D01*
X187343153Y-89887401D01*
X187357768Y-89907106D01*
X187370381Y-89928149D01*
X187380870Y-89950327D01*
X187389135Y-89973427D01*
X187395096Y-89997225D01*
X187398696Y-90021493D01*
X187399900Y-90045997D01*
X187399900Y-90671003D01*
X187398696Y-90695507D01*
X187395096Y-90719775D01*
X187389135Y-90743573D01*
X187380870Y-90766673D01*
X187370381Y-90788851D01*
X187357768Y-90809894D01*
X187343153Y-90829599D01*
X187326678Y-90847778D01*
X187308499Y-90864253D01*
X187288794Y-90878868D01*
X187267751Y-90891481D01*
X187245573Y-90901970D01*
X187222473Y-90910235D01*
X187198675Y-90916196D01*
X187174407Y-90919796D01*
X187149903Y-90921000D01*
X185899897Y-90921000D01*
X185875393Y-90919796D01*
X185851125Y-90916196D01*
X185827327Y-90910235D01*
X185804227Y-90901970D01*
X185782049Y-90891481D01*
X185761006Y-90878868D01*
X185741301Y-90864253D01*
X185723122Y-90847778D01*
X185706647Y-90829599D01*
X185692032Y-90809894D01*
X185679419Y-90788851D01*
X185668930Y-90766673D01*
X185660665Y-90743573D01*
X185654704Y-90719775D01*
X185651104Y-90695507D01*
X185649900Y-90671003D01*
X185649900Y-90045997D01*
X185651104Y-90021493D01*
X185654704Y-89997225D01*
X185660665Y-89973427D01*
X185668930Y-89950327D01*
X185679419Y-89928149D01*
X185692032Y-89907106D01*
X185706647Y-89887401D01*
X185723122Y-89869222D01*
X185741301Y-89852747D01*
X185761006Y-89838132D01*
X185782049Y-89825519D01*
X185804227Y-89815030D01*
X185827327Y-89806765D01*
X185851125Y-89800804D01*
X185875393Y-89797204D01*
X185899897Y-89796000D01*
X187149903Y-89796000D01*
X187174407Y-89797204D01*
G37*
%TD*%
%TO.C,R5*%
G36*
X182259507Y-89848004D02*
G01*
X182283775Y-89851604D01*
X182307573Y-89857565D01*
X182330673Y-89865830D01*
X182352851Y-89876319D01*
X182373894Y-89888932D01*
X182393599Y-89903547D01*
X182411778Y-89920022D01*
X182428253Y-89938201D01*
X182442868Y-89957906D01*
X182455481Y-89978949D01*
X182465970Y-90001127D01*
X182474235Y-90024227D01*
X182480196Y-90048025D01*
X182483796Y-90072293D01*
X182485000Y-90096797D01*
X182485000Y-90721803D01*
X182483796Y-90746307D01*
X182480196Y-90770575D01*
X182474235Y-90794373D01*
X182465970Y-90817473D01*
X182455481Y-90839651D01*
X182442868Y-90860694D01*
X182428253Y-90880399D01*
X182411778Y-90898578D01*
X182393599Y-90915053D01*
X182373894Y-90929668D01*
X182352851Y-90942281D01*
X182330673Y-90952770D01*
X182307573Y-90961035D01*
X182283775Y-90966996D01*
X182259507Y-90970596D01*
X182235003Y-90971800D01*
X180984997Y-90971800D01*
X180960493Y-90970596D01*
X180936225Y-90966996D01*
X180912427Y-90961035D01*
X180889327Y-90952770D01*
X180867149Y-90942281D01*
X180846106Y-90929668D01*
X180826401Y-90915053D01*
X180808222Y-90898578D01*
X180791747Y-90880399D01*
X180777132Y-90860694D01*
X180764519Y-90839651D01*
X180754030Y-90817473D01*
X180745765Y-90794373D01*
X180739804Y-90770575D01*
X180736204Y-90746307D01*
X180735000Y-90721803D01*
X180735000Y-90096797D01*
X180736204Y-90072293D01*
X180739804Y-90048025D01*
X180745765Y-90024227D01*
X180754030Y-90001127D01*
X180764519Y-89978949D01*
X180777132Y-89957906D01*
X180791747Y-89938201D01*
X180808222Y-89920022D01*
X180826401Y-89903547D01*
X180846106Y-89888932D01*
X180867149Y-89876319D01*
X180889327Y-89865830D01*
X180912427Y-89857565D01*
X180936225Y-89851604D01*
X180960493Y-89848004D01*
X180984997Y-89846800D01*
X182235003Y-89846800D01*
X182259507Y-89848004D01*
G37*
G36*
X182259507Y-92773004D02*
G01*
X182283775Y-92776604D01*
X182307573Y-92782565D01*
X182330673Y-92790830D01*
X182352851Y-92801319D01*
X182373894Y-92813932D01*
X182393599Y-92828547D01*
X182411778Y-92845022D01*
X182428253Y-92863201D01*
X182442868Y-92882906D01*
X182455481Y-92903949D01*
X182465970Y-92926127D01*
X182474235Y-92949227D01*
X182480196Y-92973025D01*
X182483796Y-92997293D01*
X182485000Y-93021797D01*
X182485000Y-93646803D01*
X182483796Y-93671307D01*
X182480196Y-93695575D01*
X182474235Y-93719373D01*
X182465970Y-93742473D01*
X182455481Y-93764651D01*
X182442868Y-93785694D01*
X182428253Y-93805399D01*
X182411778Y-93823578D01*
X182393599Y-93840053D01*
X182373894Y-93854668D01*
X182352851Y-93867281D01*
X182330673Y-93877770D01*
X182307573Y-93886035D01*
X182283775Y-93891996D01*
X182259507Y-93895596D01*
X182235003Y-93896800D01*
X180984997Y-93896800D01*
X180960493Y-93895596D01*
X180936225Y-93891996D01*
X180912427Y-93886035D01*
X180889327Y-93877770D01*
X180867149Y-93867281D01*
X180846106Y-93854668D01*
X180826401Y-93840053D01*
X180808222Y-93823578D01*
X180791747Y-93805399D01*
X180777132Y-93785694D01*
X180764519Y-93764651D01*
X180754030Y-93742473D01*
X180745765Y-93719373D01*
X180739804Y-93695575D01*
X180736204Y-93671307D01*
X180735000Y-93646803D01*
X180735000Y-93021797D01*
X180736204Y-92997293D01*
X180739804Y-92973025D01*
X180745765Y-92949227D01*
X180754030Y-92926127D01*
X180764519Y-92903949D01*
X180777132Y-92882906D01*
X180791747Y-92863201D01*
X180808222Y-92845022D01*
X180826401Y-92828547D01*
X180846106Y-92813932D01*
X180867149Y-92801319D01*
X180889327Y-92790830D01*
X180912427Y-92782565D01*
X180936225Y-92776604D01*
X180960493Y-92773004D01*
X180984997Y-92771800D01*
X182235003Y-92771800D01*
X182259507Y-92773004D01*
G37*
%TD*%
%TO.C,R7*%
G36*
X195626907Y-60987904D02*
G01*
X195651175Y-60991504D01*
X195674973Y-60997465D01*
X195698073Y-61005730D01*
X195720251Y-61016219D01*
X195741294Y-61028832D01*
X195760999Y-61043447D01*
X195779178Y-61059922D01*
X195795653Y-61078101D01*
X195810268Y-61097806D01*
X195822881Y-61118849D01*
X195833370Y-61141027D01*
X195841635Y-61164127D01*
X195847596Y-61187925D01*
X195851196Y-61212193D01*
X195852400Y-61236697D01*
X195852400Y-62486703D01*
X195851196Y-62511207D01*
X195847596Y-62535475D01*
X195841635Y-62559273D01*
X195833370Y-62582373D01*
X195822881Y-62604551D01*
X195810268Y-62625594D01*
X195795653Y-62645299D01*
X195779178Y-62663478D01*
X195760999Y-62679953D01*
X195741294Y-62694568D01*
X195720251Y-62707181D01*
X195698073Y-62717670D01*
X195674973Y-62725935D01*
X195651175Y-62731896D01*
X195626907Y-62735496D01*
X195602403Y-62736700D01*
X194977397Y-62736700D01*
X194952893Y-62735496D01*
X194928625Y-62731896D01*
X194904827Y-62725935D01*
X194881727Y-62717670D01*
X194859549Y-62707181D01*
X194838506Y-62694568D01*
X194818801Y-62679953D01*
X194800622Y-62663478D01*
X194784147Y-62645299D01*
X194769532Y-62625594D01*
X194756919Y-62604551D01*
X194746430Y-62582373D01*
X194738165Y-62559273D01*
X194732204Y-62535475D01*
X194728604Y-62511207D01*
X194727400Y-62486703D01*
X194727400Y-61236697D01*
X194728604Y-61212193D01*
X194732204Y-61187925D01*
X194738165Y-61164127D01*
X194746430Y-61141027D01*
X194756919Y-61118849D01*
X194769532Y-61097806D01*
X194784147Y-61078101D01*
X194800622Y-61059922D01*
X194818801Y-61043447D01*
X194838506Y-61028832D01*
X194859549Y-61016219D01*
X194881727Y-61005730D01*
X194904827Y-60997465D01*
X194928625Y-60991504D01*
X194952893Y-60987904D01*
X194977397Y-60986700D01*
X195602403Y-60986700D01*
X195626907Y-60987904D01*
G37*
G36*
X192701907Y-60987904D02*
G01*
X192726175Y-60991504D01*
X192749973Y-60997465D01*
X192773073Y-61005730D01*
X192795251Y-61016219D01*
X192816294Y-61028832D01*
X192835999Y-61043447D01*
X192854178Y-61059922D01*
X192870653Y-61078101D01*
X192885268Y-61097806D01*
X192897881Y-61118849D01*
X192908370Y-61141027D01*
X192916635Y-61164127D01*
X192922596Y-61187925D01*
X192926196Y-61212193D01*
X192927400Y-61236697D01*
X192927400Y-62486703D01*
X192926196Y-62511207D01*
X192922596Y-62535475D01*
X192916635Y-62559273D01*
X192908370Y-62582373D01*
X192897881Y-62604551D01*
X192885268Y-62625594D01*
X192870653Y-62645299D01*
X192854178Y-62663478D01*
X192835999Y-62679953D01*
X192816294Y-62694568D01*
X192795251Y-62707181D01*
X192773073Y-62717670D01*
X192749973Y-62725935D01*
X192726175Y-62731896D01*
X192701907Y-62735496D01*
X192677403Y-62736700D01*
X192052397Y-62736700D01*
X192027893Y-62735496D01*
X192003625Y-62731896D01*
X191979827Y-62725935D01*
X191956727Y-62717670D01*
X191934549Y-62707181D01*
X191913506Y-62694568D01*
X191893801Y-62679953D01*
X191875622Y-62663478D01*
X191859147Y-62645299D01*
X191844532Y-62625594D01*
X191831919Y-62604551D01*
X191821430Y-62582373D01*
X191813165Y-62559273D01*
X191807204Y-62535475D01*
X191803604Y-62511207D01*
X191802400Y-62486703D01*
X191802400Y-61236697D01*
X191803604Y-61212193D01*
X191807204Y-61187925D01*
X191813165Y-61164127D01*
X191821430Y-61141027D01*
X191831919Y-61118849D01*
X191844532Y-61097806D01*
X191859147Y-61078101D01*
X191875622Y-61059922D01*
X191893801Y-61043447D01*
X191913506Y-61028832D01*
X191934549Y-61016219D01*
X191956727Y-61005730D01*
X191979827Y-60997465D01*
X192003625Y-60991504D01*
X192027893Y-60987904D01*
X192052397Y-60986700D01*
X192677403Y-60986700D01*
X192701907Y-60987904D01*
G37*
%TD*%
%TO.C,R8*%
G36*
X192714607Y-64709004D02*
G01*
X192738875Y-64712604D01*
X192762673Y-64718565D01*
X192785773Y-64726830D01*
X192807951Y-64737319D01*
X192828994Y-64749932D01*
X192848699Y-64764547D01*
X192866878Y-64781022D01*
X192883353Y-64799201D01*
X192897968Y-64818906D01*
X192910581Y-64839949D01*
X192921070Y-64862127D01*
X192929335Y-64885227D01*
X192935296Y-64909025D01*
X192938896Y-64933293D01*
X192940100Y-64957797D01*
X192940100Y-66207803D01*
X192938896Y-66232307D01*
X192935296Y-66256575D01*
X192929335Y-66280373D01*
X192921070Y-66303473D01*
X192910581Y-66325651D01*
X192897968Y-66346694D01*
X192883353Y-66366399D01*
X192866878Y-66384578D01*
X192848699Y-66401053D01*
X192828994Y-66415668D01*
X192807951Y-66428281D01*
X192785773Y-66438770D01*
X192762673Y-66447035D01*
X192738875Y-66452996D01*
X192714607Y-66456596D01*
X192690103Y-66457800D01*
X192065097Y-66457800D01*
X192040593Y-66456596D01*
X192016325Y-66452996D01*
X191992527Y-66447035D01*
X191969427Y-66438770D01*
X191947249Y-66428281D01*
X191926206Y-66415668D01*
X191906501Y-66401053D01*
X191888322Y-66384578D01*
X191871847Y-66366399D01*
X191857232Y-66346694D01*
X191844619Y-66325651D01*
X191834130Y-66303473D01*
X191825865Y-66280373D01*
X191819904Y-66256575D01*
X191816304Y-66232307D01*
X191815100Y-66207803D01*
X191815100Y-64957797D01*
X191816304Y-64933293D01*
X191819904Y-64909025D01*
X191825865Y-64885227D01*
X191834130Y-64862127D01*
X191844619Y-64839949D01*
X191857232Y-64818906D01*
X191871847Y-64799201D01*
X191888322Y-64781022D01*
X191906501Y-64764547D01*
X191926206Y-64749932D01*
X191947249Y-64737319D01*
X191969427Y-64726830D01*
X191992527Y-64718565D01*
X192016325Y-64712604D01*
X192040593Y-64709004D01*
X192065097Y-64707800D01*
X192690103Y-64707800D01*
X192714607Y-64709004D01*
G37*
G36*
X195639607Y-64709004D02*
G01*
X195663875Y-64712604D01*
X195687673Y-64718565D01*
X195710773Y-64726830D01*
X195732951Y-64737319D01*
X195753994Y-64749932D01*
X195773699Y-64764547D01*
X195791878Y-64781022D01*
X195808353Y-64799201D01*
X195822968Y-64818906D01*
X195835581Y-64839949D01*
X195846070Y-64862127D01*
X195854335Y-64885227D01*
X195860296Y-64909025D01*
X195863896Y-64933293D01*
X195865100Y-64957797D01*
X195865100Y-66207803D01*
X195863896Y-66232307D01*
X195860296Y-66256575D01*
X195854335Y-66280373D01*
X195846070Y-66303473D01*
X195835581Y-66325651D01*
X195822968Y-66346694D01*
X195808353Y-66366399D01*
X195791878Y-66384578D01*
X195773699Y-66401053D01*
X195753994Y-66415668D01*
X195732951Y-66428281D01*
X195710773Y-66438770D01*
X195687673Y-66447035D01*
X195663875Y-66452996D01*
X195639607Y-66456596D01*
X195615103Y-66457800D01*
X194990097Y-66457800D01*
X194965593Y-66456596D01*
X194941325Y-66452996D01*
X194917527Y-66447035D01*
X194894427Y-66438770D01*
X194872249Y-66428281D01*
X194851206Y-66415668D01*
X194831501Y-66401053D01*
X194813322Y-66384578D01*
X194796847Y-66366399D01*
X194782232Y-66346694D01*
X194769619Y-66325651D01*
X194759130Y-66303473D01*
X194750865Y-66280373D01*
X194744904Y-66256575D01*
X194741304Y-66232307D01*
X194740100Y-66207803D01*
X194740100Y-64957797D01*
X194741304Y-64933293D01*
X194744904Y-64909025D01*
X194750865Y-64885227D01*
X194759130Y-64862127D01*
X194769619Y-64839949D01*
X194782232Y-64818906D01*
X194796847Y-64799201D01*
X194813322Y-64781022D01*
X194831501Y-64764547D01*
X194851206Y-64749932D01*
X194872249Y-64737319D01*
X194894427Y-64726830D01*
X194917527Y-64718565D01*
X194941325Y-64712604D01*
X194965593Y-64709004D01*
X194990097Y-64707800D01*
X195615103Y-64707800D01*
X195639607Y-64709004D01*
G37*
%TD*%
%TO.C,R9*%
G36*
X204428007Y-97881404D02*
G01*
X204452275Y-97885004D01*
X204476073Y-97890965D01*
X204499173Y-97899230D01*
X204521351Y-97909719D01*
X204542394Y-97922332D01*
X204562099Y-97936947D01*
X204580278Y-97953422D01*
X204596753Y-97971601D01*
X204611368Y-97991306D01*
X204623981Y-98012349D01*
X204634470Y-98034527D01*
X204642735Y-98057627D01*
X204648696Y-98081425D01*
X204652296Y-98105693D01*
X204653500Y-98130197D01*
X204653500Y-99380203D01*
X204652296Y-99404707D01*
X204648696Y-99428975D01*
X204642735Y-99452773D01*
X204634470Y-99475873D01*
X204623981Y-99498051D01*
X204611368Y-99519094D01*
X204596753Y-99538799D01*
X204580278Y-99556978D01*
X204562099Y-99573453D01*
X204542394Y-99588068D01*
X204521351Y-99600681D01*
X204499173Y-99611170D01*
X204476073Y-99619435D01*
X204452275Y-99625396D01*
X204428007Y-99628996D01*
X204403503Y-99630200D01*
X203778497Y-99630200D01*
X203753993Y-99628996D01*
X203729725Y-99625396D01*
X203705927Y-99619435D01*
X203682827Y-99611170D01*
X203660649Y-99600681D01*
X203639606Y-99588068D01*
X203619901Y-99573453D01*
X203601722Y-99556978D01*
X203585247Y-99538799D01*
X203570632Y-99519094D01*
X203558019Y-99498051D01*
X203547530Y-99475873D01*
X203539265Y-99452773D01*
X203533304Y-99428975D01*
X203529704Y-99404707D01*
X203528500Y-99380203D01*
X203528500Y-98130197D01*
X203529704Y-98105693D01*
X203533304Y-98081425D01*
X203539265Y-98057627D01*
X203547530Y-98034527D01*
X203558019Y-98012349D01*
X203570632Y-97991306D01*
X203585247Y-97971601D01*
X203601722Y-97953422D01*
X203619901Y-97936947D01*
X203639606Y-97922332D01*
X203660649Y-97909719D01*
X203682827Y-97899230D01*
X203705927Y-97890965D01*
X203729725Y-97885004D01*
X203753993Y-97881404D01*
X203778497Y-97880200D01*
X204403503Y-97880200D01*
X204428007Y-97881404D01*
G37*
G36*
X201503007Y-97881404D02*
G01*
X201527275Y-97885004D01*
X201551073Y-97890965D01*
X201574173Y-97899230D01*
X201596351Y-97909719D01*
X201617394Y-97922332D01*
X201637099Y-97936947D01*
X201655278Y-97953422D01*
X201671753Y-97971601D01*
X201686368Y-97991306D01*
X201698981Y-98012349D01*
X201709470Y-98034527D01*
X201717735Y-98057627D01*
X201723696Y-98081425D01*
X201727296Y-98105693D01*
X201728500Y-98130197D01*
X201728500Y-99380203D01*
X201727296Y-99404707D01*
X201723696Y-99428975D01*
X201717735Y-99452773D01*
X201709470Y-99475873D01*
X201698981Y-99498051D01*
X201686368Y-99519094D01*
X201671753Y-99538799D01*
X201655278Y-99556978D01*
X201637099Y-99573453D01*
X201617394Y-99588068D01*
X201596351Y-99600681D01*
X201574173Y-99611170D01*
X201551073Y-99619435D01*
X201527275Y-99625396D01*
X201503007Y-99628996D01*
X201478503Y-99630200D01*
X200853497Y-99630200D01*
X200828993Y-99628996D01*
X200804725Y-99625396D01*
X200780927Y-99619435D01*
X200757827Y-99611170D01*
X200735649Y-99600681D01*
X200714606Y-99588068D01*
X200694901Y-99573453D01*
X200676722Y-99556978D01*
X200660247Y-99538799D01*
X200645632Y-99519094D01*
X200633019Y-99498051D01*
X200622530Y-99475873D01*
X200614265Y-99452773D01*
X200608304Y-99428975D01*
X200604704Y-99404707D01*
X200603500Y-99380203D01*
X200603500Y-98130197D01*
X200604704Y-98105693D01*
X200608304Y-98081425D01*
X200614265Y-98057627D01*
X200622530Y-98034527D01*
X200633019Y-98012349D01*
X200645632Y-97991306D01*
X200660247Y-97971601D01*
X200676722Y-97953422D01*
X200694901Y-97936947D01*
X200714606Y-97922332D01*
X200735649Y-97909719D01*
X200757827Y-97899230D01*
X200780927Y-97890965D01*
X200804725Y-97885004D01*
X200828993Y-97881404D01*
X200853497Y-97880200D01*
X201478503Y-97880200D01*
X201503007Y-97881404D01*
G37*
%TD*%
%TO.C,R10*%
G36*
X201020407Y-83098604D02*
G01*
X201044675Y-83102204D01*
X201068473Y-83108165D01*
X201091573Y-83116430D01*
X201113751Y-83126919D01*
X201134794Y-83139532D01*
X201154499Y-83154147D01*
X201172678Y-83170622D01*
X201189153Y-83188801D01*
X201203768Y-83208506D01*
X201216381Y-83229549D01*
X201226870Y-83251727D01*
X201235135Y-83274827D01*
X201241096Y-83298625D01*
X201244696Y-83322893D01*
X201245900Y-83347397D01*
X201245900Y-84597403D01*
X201244696Y-84621907D01*
X201241096Y-84646175D01*
X201235135Y-84669973D01*
X201226870Y-84693073D01*
X201216381Y-84715251D01*
X201203768Y-84736294D01*
X201189153Y-84755999D01*
X201172678Y-84774178D01*
X201154499Y-84790653D01*
X201134794Y-84805268D01*
X201113751Y-84817881D01*
X201091573Y-84828370D01*
X201068473Y-84836635D01*
X201044675Y-84842596D01*
X201020407Y-84846196D01*
X200995903Y-84847400D01*
X200370897Y-84847400D01*
X200346393Y-84846196D01*
X200322125Y-84842596D01*
X200298327Y-84836635D01*
X200275227Y-84828370D01*
X200253049Y-84817881D01*
X200232006Y-84805268D01*
X200212301Y-84790653D01*
X200194122Y-84774178D01*
X200177647Y-84755999D01*
X200163032Y-84736294D01*
X200150419Y-84715251D01*
X200139930Y-84693073D01*
X200131665Y-84669973D01*
X200125704Y-84646175D01*
X200122104Y-84621907D01*
X200120900Y-84597403D01*
X200120900Y-83347397D01*
X200122104Y-83322893D01*
X200125704Y-83298625D01*
X200131665Y-83274827D01*
X200139930Y-83251727D01*
X200150419Y-83229549D01*
X200163032Y-83208506D01*
X200177647Y-83188801D01*
X200194122Y-83170622D01*
X200212301Y-83154147D01*
X200232006Y-83139532D01*
X200253049Y-83126919D01*
X200275227Y-83116430D01*
X200298327Y-83108165D01*
X200322125Y-83102204D01*
X200346393Y-83098604D01*
X200370897Y-83097400D01*
X200995903Y-83097400D01*
X201020407Y-83098604D01*
G37*
G36*
X203945407Y-83098604D02*
G01*
X203969675Y-83102204D01*
X203993473Y-83108165D01*
X204016573Y-83116430D01*
X204038751Y-83126919D01*
X204059794Y-83139532D01*
X204079499Y-83154147D01*
X204097678Y-83170622D01*
X204114153Y-83188801D01*
X204128768Y-83208506D01*
X204141381Y-83229549D01*
X204151870Y-83251727D01*
X204160135Y-83274827D01*
X204166096Y-83298625D01*
X204169696Y-83322893D01*
X204170900Y-83347397D01*
X204170900Y-84597403D01*
X204169696Y-84621907D01*
X204166096Y-84646175D01*
X204160135Y-84669973D01*
X204151870Y-84693073D01*
X204141381Y-84715251D01*
X204128768Y-84736294D01*
X204114153Y-84755999D01*
X204097678Y-84774178D01*
X204079499Y-84790653D01*
X204059794Y-84805268D01*
X204038751Y-84817881D01*
X204016573Y-84828370D01*
X203993473Y-84836635D01*
X203969675Y-84842596D01*
X203945407Y-84846196D01*
X203920903Y-84847400D01*
X203295897Y-84847400D01*
X203271393Y-84846196D01*
X203247125Y-84842596D01*
X203223327Y-84836635D01*
X203200227Y-84828370D01*
X203178049Y-84817881D01*
X203157006Y-84805268D01*
X203137301Y-84790653D01*
X203119122Y-84774178D01*
X203102647Y-84755999D01*
X203088032Y-84736294D01*
X203075419Y-84715251D01*
X203064930Y-84693073D01*
X203056665Y-84669973D01*
X203050704Y-84646175D01*
X203047104Y-84621907D01*
X203045900Y-84597403D01*
X203045900Y-83347397D01*
X203047104Y-83322893D01*
X203050704Y-83298625D01*
X203056665Y-83274827D01*
X203064930Y-83251727D01*
X203075419Y-83229549D01*
X203088032Y-83208506D01*
X203102647Y-83188801D01*
X203119122Y-83170622D01*
X203137301Y-83154147D01*
X203157006Y-83139532D01*
X203178049Y-83126919D01*
X203200227Y-83116430D01*
X203223327Y-83108165D01*
X203247125Y-83102204D01*
X203271393Y-83098604D01*
X203295897Y-83097400D01*
X203920903Y-83097400D01*
X203945407Y-83098604D01*
G37*
%TD*%
%TO.C,R11*%
G36*
X190441307Y-117198104D02*
G01*
X190465575Y-117201704D01*
X190489373Y-117207665D01*
X190512473Y-117215930D01*
X190534651Y-117226419D01*
X190555694Y-117239032D01*
X190575399Y-117253647D01*
X190593578Y-117270122D01*
X190610053Y-117288301D01*
X190624668Y-117308006D01*
X190637281Y-117329049D01*
X190647770Y-117351227D01*
X190656035Y-117374327D01*
X190661996Y-117398125D01*
X190665596Y-117422393D01*
X190666800Y-117446897D01*
X190666800Y-118696903D01*
X190665596Y-118721407D01*
X190661996Y-118745675D01*
X190656035Y-118769473D01*
X190647770Y-118792573D01*
X190637281Y-118814751D01*
X190624668Y-118835794D01*
X190610053Y-118855499D01*
X190593578Y-118873678D01*
X190575399Y-118890153D01*
X190555694Y-118904768D01*
X190534651Y-118917381D01*
X190512473Y-118927870D01*
X190489373Y-118936135D01*
X190465575Y-118942096D01*
X190441307Y-118945696D01*
X190416803Y-118946900D01*
X189791797Y-118946900D01*
X189767293Y-118945696D01*
X189743025Y-118942096D01*
X189719227Y-118936135D01*
X189696127Y-118927870D01*
X189673949Y-118917381D01*
X189652906Y-118904768D01*
X189633201Y-118890153D01*
X189615022Y-118873678D01*
X189598547Y-118855499D01*
X189583932Y-118835794D01*
X189571319Y-118814751D01*
X189560830Y-118792573D01*
X189552565Y-118769473D01*
X189546604Y-118745675D01*
X189543004Y-118721407D01*
X189541800Y-118696903D01*
X189541800Y-117446897D01*
X189543004Y-117422393D01*
X189546604Y-117398125D01*
X189552565Y-117374327D01*
X189560830Y-117351227D01*
X189571319Y-117329049D01*
X189583932Y-117308006D01*
X189598547Y-117288301D01*
X189615022Y-117270122D01*
X189633201Y-117253647D01*
X189652906Y-117239032D01*
X189673949Y-117226419D01*
X189696127Y-117215930D01*
X189719227Y-117207665D01*
X189743025Y-117201704D01*
X189767293Y-117198104D01*
X189791797Y-117196900D01*
X190416803Y-117196900D01*
X190441307Y-117198104D01*
G37*
G36*
X193366307Y-117198104D02*
G01*
X193390575Y-117201704D01*
X193414373Y-117207665D01*
X193437473Y-117215930D01*
X193459651Y-117226419D01*
X193480694Y-117239032D01*
X193500399Y-117253647D01*
X193518578Y-117270122D01*
X193535053Y-117288301D01*
X193549668Y-117308006D01*
X193562281Y-117329049D01*
X193572770Y-117351227D01*
X193581035Y-117374327D01*
X193586996Y-117398125D01*
X193590596Y-117422393D01*
X193591800Y-117446897D01*
X193591800Y-118696903D01*
X193590596Y-118721407D01*
X193586996Y-118745675D01*
X193581035Y-118769473D01*
X193572770Y-118792573D01*
X193562281Y-118814751D01*
X193549668Y-118835794D01*
X193535053Y-118855499D01*
X193518578Y-118873678D01*
X193500399Y-118890153D01*
X193480694Y-118904768D01*
X193459651Y-118917381D01*
X193437473Y-118927870D01*
X193414373Y-118936135D01*
X193390575Y-118942096D01*
X193366307Y-118945696D01*
X193341803Y-118946900D01*
X192716797Y-118946900D01*
X192692293Y-118945696D01*
X192668025Y-118942096D01*
X192644227Y-118936135D01*
X192621127Y-118927870D01*
X192598949Y-118917381D01*
X192577906Y-118904768D01*
X192558201Y-118890153D01*
X192540022Y-118873678D01*
X192523547Y-118855499D01*
X192508932Y-118835794D01*
X192496319Y-118814751D01*
X192485830Y-118792573D01*
X192477565Y-118769473D01*
X192471604Y-118745675D01*
X192468004Y-118721407D01*
X192466800Y-118696903D01*
X192466800Y-117446897D01*
X192468004Y-117422393D01*
X192471604Y-117398125D01*
X192477565Y-117374327D01*
X192485830Y-117351227D01*
X192496319Y-117329049D01*
X192508932Y-117308006D01*
X192523547Y-117288301D01*
X192540022Y-117270122D01*
X192558201Y-117253647D01*
X192577906Y-117239032D01*
X192598949Y-117226419D01*
X192621127Y-117215930D01*
X192644227Y-117207665D01*
X192668025Y-117201704D01*
X192692293Y-117198104D01*
X192716797Y-117196900D01*
X193341803Y-117196900D01*
X193366307Y-117198104D01*
G37*
%TD*%
%TO.C,R12*%
G36*
X166879807Y-66124404D02*
G01*
X166904075Y-66128004D01*
X166927873Y-66133965D01*
X166950973Y-66142230D01*
X166973151Y-66152719D01*
X166994194Y-66165332D01*
X167013899Y-66179947D01*
X167032078Y-66196422D01*
X167048553Y-66214601D01*
X167063168Y-66234306D01*
X167075781Y-66255349D01*
X167086270Y-66277527D01*
X167094535Y-66300627D01*
X167100496Y-66324425D01*
X167104096Y-66348693D01*
X167105300Y-66373197D01*
X167105300Y-66998203D01*
X167104096Y-67022707D01*
X167100496Y-67046975D01*
X167094535Y-67070773D01*
X167086270Y-67093873D01*
X167075781Y-67116051D01*
X167063168Y-67137094D01*
X167048553Y-67156799D01*
X167032078Y-67174978D01*
X167013899Y-67191453D01*
X166994194Y-67206068D01*
X166973151Y-67218681D01*
X166950973Y-67229170D01*
X166927873Y-67237435D01*
X166904075Y-67243396D01*
X166879807Y-67246996D01*
X166855303Y-67248200D01*
X165605297Y-67248200D01*
X165580793Y-67246996D01*
X165556525Y-67243396D01*
X165532727Y-67237435D01*
X165509627Y-67229170D01*
X165487449Y-67218681D01*
X165466406Y-67206068D01*
X165446701Y-67191453D01*
X165428522Y-67174978D01*
X165412047Y-67156799D01*
X165397432Y-67137094D01*
X165384819Y-67116051D01*
X165374330Y-67093873D01*
X165366065Y-67070773D01*
X165360104Y-67046975D01*
X165356504Y-67022707D01*
X165355300Y-66998203D01*
X165355300Y-66373197D01*
X165356504Y-66348693D01*
X165360104Y-66324425D01*
X165366065Y-66300627D01*
X165374330Y-66277527D01*
X165384819Y-66255349D01*
X165397432Y-66234306D01*
X165412047Y-66214601D01*
X165428522Y-66196422D01*
X165446701Y-66179947D01*
X165466406Y-66165332D01*
X165487449Y-66152719D01*
X165509627Y-66142230D01*
X165532727Y-66133965D01*
X165556525Y-66128004D01*
X165580793Y-66124404D01*
X165605297Y-66123200D01*
X166855303Y-66123200D01*
X166879807Y-66124404D01*
G37*
G36*
X166879807Y-69049404D02*
G01*
X166904075Y-69053004D01*
X166927873Y-69058965D01*
X166950973Y-69067230D01*
X166973151Y-69077719D01*
X166994194Y-69090332D01*
X167013899Y-69104947D01*
X167032078Y-69121422D01*
X167048553Y-69139601D01*
X167063168Y-69159306D01*
X167075781Y-69180349D01*
X167086270Y-69202527D01*
X167094535Y-69225627D01*
X167100496Y-69249425D01*
X167104096Y-69273693D01*
X167105300Y-69298197D01*
X167105300Y-69923203D01*
X167104096Y-69947707D01*
X167100496Y-69971975D01*
X167094535Y-69995773D01*
X167086270Y-70018873D01*
X167075781Y-70041051D01*
X167063168Y-70062094D01*
X167048553Y-70081799D01*
X167032078Y-70099978D01*
X167013899Y-70116453D01*
X166994194Y-70131068D01*
X166973151Y-70143681D01*
X166950973Y-70154170D01*
X166927873Y-70162435D01*
X166904075Y-70168396D01*
X166879807Y-70171996D01*
X166855303Y-70173200D01*
X165605297Y-70173200D01*
X165580793Y-70171996D01*
X165556525Y-70168396D01*
X165532727Y-70162435D01*
X165509627Y-70154170D01*
X165487449Y-70143681D01*
X165466406Y-70131068D01*
X165446701Y-70116453D01*
X165428522Y-70099978D01*
X165412047Y-70081799D01*
X165397432Y-70062094D01*
X165384819Y-70041051D01*
X165374330Y-70018873D01*
X165366065Y-69995773D01*
X165360104Y-69971975D01*
X165356504Y-69947707D01*
X165355300Y-69923203D01*
X165355300Y-69298197D01*
X165356504Y-69273693D01*
X165360104Y-69249425D01*
X165366065Y-69225627D01*
X165374330Y-69202527D01*
X165384819Y-69180349D01*
X165397432Y-69159306D01*
X165412047Y-69139601D01*
X165428522Y-69121422D01*
X165446701Y-69104947D01*
X165466406Y-69090332D01*
X165487449Y-69077719D01*
X165509627Y-69067230D01*
X165532727Y-69058965D01*
X165556525Y-69053004D01*
X165580793Y-69049404D01*
X165605297Y-69048200D01*
X166855303Y-69048200D01*
X166879807Y-69049404D01*
G37*
%TD*%
%TO.C,R14*%
G36*
X193302807Y-120855704D02*
G01*
X193327075Y-120859304D01*
X193350873Y-120865265D01*
X193373973Y-120873530D01*
X193396151Y-120884019D01*
X193417194Y-120896632D01*
X193436899Y-120911247D01*
X193455078Y-120927722D01*
X193471553Y-120945901D01*
X193486168Y-120965606D01*
X193498781Y-120986649D01*
X193509270Y-121008827D01*
X193517535Y-121031927D01*
X193523496Y-121055725D01*
X193527096Y-121079993D01*
X193528300Y-121104497D01*
X193528300Y-122354503D01*
X193527096Y-122379007D01*
X193523496Y-122403275D01*
X193517535Y-122427073D01*
X193509270Y-122450173D01*
X193498781Y-122472351D01*
X193486168Y-122493394D01*
X193471553Y-122513099D01*
X193455078Y-122531278D01*
X193436899Y-122547753D01*
X193417194Y-122562368D01*
X193396151Y-122574981D01*
X193373973Y-122585470D01*
X193350873Y-122593735D01*
X193327075Y-122599696D01*
X193302807Y-122603296D01*
X193278303Y-122604500D01*
X192653297Y-122604500D01*
X192628793Y-122603296D01*
X192604525Y-122599696D01*
X192580727Y-122593735D01*
X192557627Y-122585470D01*
X192535449Y-122574981D01*
X192514406Y-122562368D01*
X192494701Y-122547753D01*
X192476522Y-122531278D01*
X192460047Y-122513099D01*
X192445432Y-122493394D01*
X192432819Y-122472351D01*
X192422330Y-122450173D01*
X192414065Y-122427073D01*
X192408104Y-122403275D01*
X192404504Y-122379007D01*
X192403300Y-122354503D01*
X192403300Y-121104497D01*
X192404504Y-121079993D01*
X192408104Y-121055725D01*
X192414065Y-121031927D01*
X192422330Y-121008827D01*
X192432819Y-120986649D01*
X192445432Y-120965606D01*
X192460047Y-120945901D01*
X192476522Y-120927722D01*
X192494701Y-120911247D01*
X192514406Y-120896632D01*
X192535449Y-120884019D01*
X192557627Y-120873530D01*
X192580727Y-120865265D01*
X192604525Y-120859304D01*
X192628793Y-120855704D01*
X192653297Y-120854500D01*
X193278303Y-120854500D01*
X193302807Y-120855704D01*
G37*
G36*
X190377807Y-120855704D02*
G01*
X190402075Y-120859304D01*
X190425873Y-120865265D01*
X190448973Y-120873530D01*
X190471151Y-120884019D01*
X190492194Y-120896632D01*
X190511899Y-120911247D01*
X190530078Y-120927722D01*
X190546553Y-120945901D01*
X190561168Y-120965606D01*
X190573781Y-120986649D01*
X190584270Y-121008827D01*
X190592535Y-121031927D01*
X190598496Y-121055725D01*
X190602096Y-121079993D01*
X190603300Y-121104497D01*
X190603300Y-122354503D01*
X190602096Y-122379007D01*
X190598496Y-122403275D01*
X190592535Y-122427073D01*
X190584270Y-122450173D01*
X190573781Y-122472351D01*
X190561168Y-122493394D01*
X190546553Y-122513099D01*
X190530078Y-122531278D01*
X190511899Y-122547753D01*
X190492194Y-122562368D01*
X190471151Y-122574981D01*
X190448973Y-122585470D01*
X190425873Y-122593735D01*
X190402075Y-122599696D01*
X190377807Y-122603296D01*
X190353303Y-122604500D01*
X189728297Y-122604500D01*
X189703793Y-122603296D01*
X189679525Y-122599696D01*
X189655727Y-122593735D01*
X189632627Y-122585470D01*
X189610449Y-122574981D01*
X189589406Y-122562368D01*
X189569701Y-122547753D01*
X189551522Y-122531278D01*
X189535047Y-122513099D01*
X189520432Y-122493394D01*
X189507819Y-122472351D01*
X189497330Y-122450173D01*
X189489065Y-122427073D01*
X189483104Y-122403275D01*
X189479504Y-122379007D01*
X189478300Y-122354503D01*
X189478300Y-121104497D01*
X189479504Y-121079993D01*
X189483104Y-121055725D01*
X189489065Y-121031927D01*
X189497330Y-121008827D01*
X189507819Y-120986649D01*
X189520432Y-120965606D01*
X189535047Y-120945901D01*
X189551522Y-120927722D01*
X189569701Y-120911247D01*
X189589406Y-120896632D01*
X189610449Y-120884019D01*
X189632627Y-120873530D01*
X189655727Y-120865265D01*
X189679525Y-120859304D01*
X189703793Y-120855704D01*
X189728297Y-120854500D01*
X190353303Y-120854500D01*
X190377807Y-120855704D01*
G37*
%TD*%
%TO.C,R16*%
G36*
X99226907Y-98318904D02*
G01*
X99251175Y-98322504D01*
X99274973Y-98328465D01*
X99298073Y-98336730D01*
X99320251Y-98347219D01*
X99341294Y-98359832D01*
X99360999Y-98374447D01*
X99379178Y-98390922D01*
X99395653Y-98409101D01*
X99410268Y-98428806D01*
X99422881Y-98449849D01*
X99433370Y-98472027D01*
X99441635Y-98495127D01*
X99447596Y-98518925D01*
X99451196Y-98543193D01*
X99452400Y-98567697D01*
X99452400Y-99192703D01*
X99451196Y-99217207D01*
X99447596Y-99241475D01*
X99441635Y-99265273D01*
X99433370Y-99288373D01*
X99422881Y-99310551D01*
X99410268Y-99331594D01*
X99395653Y-99351299D01*
X99379178Y-99369478D01*
X99360999Y-99385953D01*
X99341294Y-99400568D01*
X99320251Y-99413181D01*
X99298073Y-99423670D01*
X99274973Y-99431935D01*
X99251175Y-99437896D01*
X99226907Y-99441496D01*
X99202403Y-99442700D01*
X97952397Y-99442700D01*
X97927893Y-99441496D01*
X97903625Y-99437896D01*
X97879827Y-99431935D01*
X97856727Y-99423670D01*
X97834549Y-99413181D01*
X97813506Y-99400568D01*
X97793801Y-99385953D01*
X97775622Y-99369478D01*
X97759147Y-99351299D01*
X97744532Y-99331594D01*
X97731919Y-99310551D01*
X97721430Y-99288373D01*
X97713165Y-99265273D01*
X97707204Y-99241475D01*
X97703604Y-99217207D01*
X97702400Y-99192703D01*
X97702400Y-98567697D01*
X97703604Y-98543193D01*
X97707204Y-98518925D01*
X97713165Y-98495127D01*
X97721430Y-98472027D01*
X97731919Y-98449849D01*
X97744532Y-98428806D01*
X97759147Y-98409101D01*
X97775622Y-98390922D01*
X97793801Y-98374447D01*
X97813506Y-98359832D01*
X97834549Y-98347219D01*
X97856727Y-98336730D01*
X97879827Y-98328465D01*
X97903625Y-98322504D01*
X97927893Y-98318904D01*
X97952397Y-98317700D01*
X99202403Y-98317700D01*
X99226907Y-98318904D01*
G37*
G36*
X99226907Y-101243904D02*
G01*
X99251175Y-101247504D01*
X99274973Y-101253465D01*
X99298073Y-101261730D01*
X99320251Y-101272219D01*
X99341294Y-101284832D01*
X99360999Y-101299447D01*
X99379178Y-101315922D01*
X99395653Y-101334101D01*
X99410268Y-101353806D01*
X99422881Y-101374849D01*
X99433370Y-101397027D01*
X99441635Y-101420127D01*
X99447596Y-101443925D01*
X99451196Y-101468193D01*
X99452400Y-101492697D01*
X99452400Y-102117703D01*
X99451196Y-102142207D01*
X99447596Y-102166475D01*
X99441635Y-102190273D01*
X99433370Y-102213373D01*
X99422881Y-102235551D01*
X99410268Y-102256594D01*
X99395653Y-102276299D01*
X99379178Y-102294478D01*
X99360999Y-102310953D01*
X99341294Y-102325568D01*
X99320251Y-102338181D01*
X99298073Y-102348670D01*
X99274973Y-102356935D01*
X99251175Y-102362896D01*
X99226907Y-102366496D01*
X99202403Y-102367700D01*
X97952397Y-102367700D01*
X97927893Y-102366496D01*
X97903625Y-102362896D01*
X97879827Y-102356935D01*
X97856727Y-102348670D01*
X97834549Y-102338181D01*
X97813506Y-102325568D01*
X97793801Y-102310953D01*
X97775622Y-102294478D01*
X97759147Y-102276299D01*
X97744532Y-102256594D01*
X97731919Y-102235551D01*
X97721430Y-102213373D01*
X97713165Y-102190273D01*
X97707204Y-102166475D01*
X97703604Y-102142207D01*
X97702400Y-102117703D01*
X97702400Y-101492697D01*
X97703604Y-101468193D01*
X97707204Y-101443925D01*
X97713165Y-101420127D01*
X97721430Y-101397027D01*
X97731919Y-101374849D01*
X97744532Y-101353806D01*
X97759147Y-101334101D01*
X97775622Y-101315922D01*
X97793801Y-101299447D01*
X97813506Y-101284832D01*
X97834549Y-101272219D01*
X97856727Y-101261730D01*
X97879827Y-101253465D01*
X97903625Y-101247504D01*
X97927893Y-101243904D01*
X97952397Y-101242700D01*
X99202403Y-101242700D01*
X99226907Y-101243904D01*
G37*
%TD*%
%TO.C,R17*%
G36*
X97525107Y-82494704D02*
G01*
X97549375Y-82498304D01*
X97573173Y-82504265D01*
X97596273Y-82512530D01*
X97618451Y-82523019D01*
X97639494Y-82535632D01*
X97659199Y-82550247D01*
X97677378Y-82566722D01*
X97693853Y-82584901D01*
X97708468Y-82604606D01*
X97721081Y-82625649D01*
X97731570Y-82647827D01*
X97739835Y-82670927D01*
X97745796Y-82694725D01*
X97749396Y-82718993D01*
X97750600Y-82743497D01*
X97750600Y-83368503D01*
X97749396Y-83393007D01*
X97745796Y-83417275D01*
X97739835Y-83441073D01*
X97731570Y-83464173D01*
X97721081Y-83486351D01*
X97708468Y-83507394D01*
X97693853Y-83527099D01*
X97677378Y-83545278D01*
X97659199Y-83561753D01*
X97639494Y-83576368D01*
X97618451Y-83588981D01*
X97596273Y-83599470D01*
X97573173Y-83607735D01*
X97549375Y-83613696D01*
X97525107Y-83617296D01*
X97500603Y-83618500D01*
X96250597Y-83618500D01*
X96226093Y-83617296D01*
X96201825Y-83613696D01*
X96178027Y-83607735D01*
X96154927Y-83599470D01*
X96132749Y-83588981D01*
X96111706Y-83576368D01*
X96092001Y-83561753D01*
X96073822Y-83545278D01*
X96057347Y-83527099D01*
X96042732Y-83507394D01*
X96030119Y-83486351D01*
X96019630Y-83464173D01*
X96011365Y-83441073D01*
X96005404Y-83417275D01*
X96001804Y-83393007D01*
X96000600Y-83368503D01*
X96000600Y-82743497D01*
X96001804Y-82718993D01*
X96005404Y-82694725D01*
X96011365Y-82670927D01*
X96019630Y-82647827D01*
X96030119Y-82625649D01*
X96042732Y-82604606D01*
X96057347Y-82584901D01*
X96073822Y-82566722D01*
X96092001Y-82550247D01*
X96111706Y-82535632D01*
X96132749Y-82523019D01*
X96154927Y-82512530D01*
X96178027Y-82504265D01*
X96201825Y-82498304D01*
X96226093Y-82494704D01*
X96250597Y-82493500D01*
X97500603Y-82493500D01*
X97525107Y-82494704D01*
G37*
G36*
X97525107Y-85419704D02*
G01*
X97549375Y-85423304D01*
X97573173Y-85429265D01*
X97596273Y-85437530D01*
X97618451Y-85448019D01*
X97639494Y-85460632D01*
X97659199Y-85475247D01*
X97677378Y-85491722D01*
X97693853Y-85509901D01*
X97708468Y-85529606D01*
X97721081Y-85550649D01*
X97731570Y-85572827D01*
X97739835Y-85595927D01*
X97745796Y-85619725D01*
X97749396Y-85643993D01*
X97750600Y-85668497D01*
X97750600Y-86293503D01*
X97749396Y-86318007D01*
X97745796Y-86342275D01*
X97739835Y-86366073D01*
X97731570Y-86389173D01*
X97721081Y-86411351D01*
X97708468Y-86432394D01*
X97693853Y-86452099D01*
X97677378Y-86470278D01*
X97659199Y-86486753D01*
X97639494Y-86501368D01*
X97618451Y-86513981D01*
X97596273Y-86524470D01*
X97573173Y-86532735D01*
X97549375Y-86538696D01*
X97525107Y-86542296D01*
X97500603Y-86543500D01*
X96250597Y-86543500D01*
X96226093Y-86542296D01*
X96201825Y-86538696D01*
X96178027Y-86532735D01*
X96154927Y-86524470D01*
X96132749Y-86513981D01*
X96111706Y-86501368D01*
X96092001Y-86486753D01*
X96073822Y-86470278D01*
X96057347Y-86452099D01*
X96042732Y-86432394D01*
X96030119Y-86411351D01*
X96019630Y-86389173D01*
X96011365Y-86366073D01*
X96005404Y-86342275D01*
X96001804Y-86318007D01*
X96000600Y-86293503D01*
X96000600Y-85668497D01*
X96001804Y-85643993D01*
X96005404Y-85619725D01*
X96011365Y-85595927D01*
X96019630Y-85572827D01*
X96030119Y-85550649D01*
X96042732Y-85529606D01*
X96057347Y-85509901D01*
X96073822Y-85491722D01*
X96092001Y-85475247D01*
X96111706Y-85460632D01*
X96132749Y-85448019D01*
X96154927Y-85437530D01*
X96178027Y-85429265D01*
X96201825Y-85423304D01*
X96226093Y-85419704D01*
X96250597Y-85418500D01*
X97500603Y-85418500D01*
X97525107Y-85419704D01*
G37*
%TD*%
%TO.C,R18*%
G36*
X164924007Y-98166504D02*
G01*
X164948275Y-98170104D01*
X164972073Y-98176065D01*
X164995173Y-98184330D01*
X165017351Y-98194819D01*
X165038394Y-98207432D01*
X165058099Y-98222047D01*
X165076278Y-98238522D01*
X165092753Y-98256701D01*
X165107368Y-98276406D01*
X165119981Y-98297449D01*
X165130470Y-98319627D01*
X165138735Y-98342727D01*
X165144696Y-98366525D01*
X165148296Y-98390793D01*
X165149500Y-98415297D01*
X165149500Y-99040303D01*
X165148296Y-99064807D01*
X165144696Y-99089075D01*
X165138735Y-99112873D01*
X165130470Y-99135973D01*
X165119981Y-99158151D01*
X165107368Y-99179194D01*
X165092753Y-99198899D01*
X165076278Y-99217078D01*
X165058099Y-99233553D01*
X165038394Y-99248168D01*
X165017351Y-99260781D01*
X164995173Y-99271270D01*
X164972073Y-99279535D01*
X164948275Y-99285496D01*
X164924007Y-99289096D01*
X164899503Y-99290300D01*
X163649497Y-99290300D01*
X163624993Y-99289096D01*
X163600725Y-99285496D01*
X163576927Y-99279535D01*
X163553827Y-99271270D01*
X163531649Y-99260781D01*
X163510606Y-99248168D01*
X163490901Y-99233553D01*
X163472722Y-99217078D01*
X163456247Y-99198899D01*
X163441632Y-99179194D01*
X163429019Y-99158151D01*
X163418530Y-99135973D01*
X163410265Y-99112873D01*
X163404304Y-99089075D01*
X163400704Y-99064807D01*
X163399500Y-99040303D01*
X163399500Y-98415297D01*
X163400704Y-98390793D01*
X163404304Y-98366525D01*
X163410265Y-98342727D01*
X163418530Y-98319627D01*
X163429019Y-98297449D01*
X163441632Y-98276406D01*
X163456247Y-98256701D01*
X163472722Y-98238522D01*
X163490901Y-98222047D01*
X163510606Y-98207432D01*
X163531649Y-98194819D01*
X163553827Y-98184330D01*
X163576927Y-98176065D01*
X163600725Y-98170104D01*
X163624993Y-98166504D01*
X163649497Y-98165300D01*
X164899503Y-98165300D01*
X164924007Y-98166504D01*
G37*
G36*
X164924007Y-101091504D02*
G01*
X164948275Y-101095104D01*
X164972073Y-101101065D01*
X164995173Y-101109330D01*
X165017351Y-101119819D01*
X165038394Y-101132432D01*
X165058099Y-101147047D01*
X165076278Y-101163522D01*
X165092753Y-101181701D01*
X165107368Y-101201406D01*
X165119981Y-101222449D01*
X165130470Y-101244627D01*
X165138735Y-101267727D01*
X165144696Y-101291525D01*
X165148296Y-101315793D01*
X165149500Y-101340297D01*
X165149500Y-101965303D01*
X165148296Y-101989807D01*
X165144696Y-102014075D01*
X165138735Y-102037873D01*
X165130470Y-102060973D01*
X165119981Y-102083151D01*
X165107368Y-102104194D01*
X165092753Y-102123899D01*
X165076278Y-102142078D01*
X165058099Y-102158553D01*
X165038394Y-102173168D01*
X165017351Y-102185781D01*
X164995173Y-102196270D01*
X164972073Y-102204535D01*
X164948275Y-102210496D01*
X164924007Y-102214096D01*
X164899503Y-102215300D01*
X163649497Y-102215300D01*
X163624993Y-102214096D01*
X163600725Y-102210496D01*
X163576927Y-102204535D01*
X163553827Y-102196270D01*
X163531649Y-102185781D01*
X163510606Y-102173168D01*
X163490901Y-102158553D01*
X163472722Y-102142078D01*
X163456247Y-102123899D01*
X163441632Y-102104194D01*
X163429019Y-102083151D01*
X163418530Y-102060973D01*
X163410265Y-102037873D01*
X163404304Y-102014075D01*
X163400704Y-101989807D01*
X163399500Y-101965303D01*
X163399500Y-101340297D01*
X163400704Y-101315793D01*
X163404304Y-101291525D01*
X163410265Y-101267727D01*
X163418530Y-101244627D01*
X163429019Y-101222449D01*
X163441632Y-101201406D01*
X163456247Y-101181701D01*
X163472722Y-101163522D01*
X163490901Y-101147047D01*
X163510606Y-101132432D01*
X163531649Y-101119819D01*
X163553827Y-101109330D01*
X163576927Y-101101065D01*
X163600725Y-101095104D01*
X163624993Y-101091504D01*
X163649497Y-101090300D01*
X164899503Y-101090300D01*
X164924007Y-101091504D01*
G37*
%TD*%
%TO.C,R19*%
G36*
X159945607Y-66111704D02*
G01*
X159969875Y-66115304D01*
X159993673Y-66121265D01*
X160016773Y-66129530D01*
X160038951Y-66140019D01*
X160059994Y-66152632D01*
X160079699Y-66167247D01*
X160097878Y-66183722D01*
X160114353Y-66201901D01*
X160128968Y-66221606D01*
X160141581Y-66242649D01*
X160152070Y-66264827D01*
X160160335Y-66287927D01*
X160166296Y-66311725D01*
X160169896Y-66335993D01*
X160171100Y-66360497D01*
X160171100Y-66985503D01*
X160169896Y-67010007D01*
X160166296Y-67034275D01*
X160160335Y-67058073D01*
X160152070Y-67081173D01*
X160141581Y-67103351D01*
X160128968Y-67124394D01*
X160114353Y-67144099D01*
X160097878Y-67162278D01*
X160079699Y-67178753D01*
X160059994Y-67193368D01*
X160038951Y-67205981D01*
X160016773Y-67216470D01*
X159993673Y-67224735D01*
X159969875Y-67230696D01*
X159945607Y-67234296D01*
X159921103Y-67235500D01*
X158671097Y-67235500D01*
X158646593Y-67234296D01*
X158622325Y-67230696D01*
X158598527Y-67224735D01*
X158575427Y-67216470D01*
X158553249Y-67205981D01*
X158532206Y-67193368D01*
X158512501Y-67178753D01*
X158494322Y-67162278D01*
X158477847Y-67144099D01*
X158463232Y-67124394D01*
X158450619Y-67103351D01*
X158440130Y-67081173D01*
X158431865Y-67058073D01*
X158425904Y-67034275D01*
X158422304Y-67010007D01*
X158421100Y-66985503D01*
X158421100Y-66360497D01*
X158422304Y-66335993D01*
X158425904Y-66311725D01*
X158431865Y-66287927D01*
X158440130Y-66264827D01*
X158450619Y-66242649D01*
X158463232Y-66221606D01*
X158477847Y-66201901D01*
X158494322Y-66183722D01*
X158512501Y-66167247D01*
X158532206Y-66152632D01*
X158553249Y-66140019D01*
X158575427Y-66129530D01*
X158598527Y-66121265D01*
X158622325Y-66115304D01*
X158646593Y-66111704D01*
X158671097Y-66110500D01*
X159921103Y-66110500D01*
X159945607Y-66111704D01*
G37*
G36*
X159945607Y-69036704D02*
G01*
X159969875Y-69040304D01*
X159993673Y-69046265D01*
X160016773Y-69054530D01*
X160038951Y-69065019D01*
X160059994Y-69077632D01*
X160079699Y-69092247D01*
X160097878Y-69108722D01*
X160114353Y-69126901D01*
X160128968Y-69146606D01*
X160141581Y-69167649D01*
X160152070Y-69189827D01*
X160160335Y-69212927D01*
X160166296Y-69236725D01*
X160169896Y-69260993D01*
X160171100Y-69285497D01*
X160171100Y-69910503D01*
X160169896Y-69935007D01*
X160166296Y-69959275D01*
X160160335Y-69983073D01*
X160152070Y-70006173D01*
X160141581Y-70028351D01*
X160128968Y-70049394D01*
X160114353Y-70069099D01*
X160097878Y-70087278D01*
X160079699Y-70103753D01*
X160059994Y-70118368D01*
X160038951Y-70130981D01*
X160016773Y-70141470D01*
X159993673Y-70149735D01*
X159969875Y-70155696D01*
X159945607Y-70159296D01*
X159921103Y-70160500D01*
X158671097Y-70160500D01*
X158646593Y-70159296D01*
X158622325Y-70155696D01*
X158598527Y-70149735D01*
X158575427Y-70141470D01*
X158553249Y-70130981D01*
X158532206Y-70118368D01*
X158512501Y-70103753D01*
X158494322Y-70087278D01*
X158477847Y-70069099D01*
X158463232Y-70049394D01*
X158450619Y-70028351D01*
X158440130Y-70006173D01*
X158431865Y-69983073D01*
X158425904Y-69959275D01*
X158422304Y-69935007D01*
X158421100Y-69910503D01*
X158421100Y-69285497D01*
X158422304Y-69260993D01*
X158425904Y-69236725D01*
X158431865Y-69212927D01*
X158440130Y-69189827D01*
X158450619Y-69167649D01*
X158463232Y-69146606D01*
X158477847Y-69126901D01*
X158494322Y-69108722D01*
X158512501Y-69092247D01*
X158532206Y-69077632D01*
X158553249Y-69065019D01*
X158575427Y-69054530D01*
X158598527Y-69046265D01*
X158622325Y-69040304D01*
X158646593Y-69036704D01*
X158671097Y-69035500D01*
X159921103Y-69035500D01*
X159945607Y-69036704D01*
G37*
%TD*%
D28*
%TO.C,H1*%
X159740600Y-121031000D03*
%TD*%
%TO.C,H2*%
X142240000Y-121031000D03*
%TD*%
%TO.C,H3*%
X142328900Y-61772800D03*
%TD*%
%TO.C,H4*%
X159867600Y-61772800D03*
%TD*%
D29*
%TO.C,J1*%
X104203500Y-116154200D03*
X104203500Y-113614200D03*
X104203500Y-111074200D03*
X104203500Y-108534200D03*
X104203500Y-105994200D03*
X104203500Y-103454200D03*
X104203500Y-100914200D03*
X104203500Y-98374200D03*
X104203500Y-95834200D03*
X104203500Y-93294200D03*
X104203500Y-90754200D03*
X104203500Y-88214200D03*
X104203500Y-85674200D03*
X104203500Y-83134200D03*
X104203500Y-80594200D03*
X104203500Y-78054200D03*
X104203500Y-75514200D03*
X104203500Y-72974200D03*
D30*
X104203500Y-70434200D03*
%TD*%
%TO.C,J2*%
X138264900Y-116014500D03*
D29*
X138264900Y-113474500D03*
X138264900Y-110934500D03*
X138264900Y-108394500D03*
X138264900Y-105854500D03*
X138264900Y-103314500D03*
X138264900Y-100774500D03*
X138264900Y-98234500D03*
X138264900Y-95694500D03*
X138264900Y-93154500D03*
X138264900Y-90614500D03*
X138264900Y-88074500D03*
X138264900Y-85534500D03*
X138264900Y-82994500D03*
X138264900Y-80454500D03*
X138264900Y-77914500D03*
X138264900Y-75374500D03*
X138264900Y-72834500D03*
X138264900Y-70294500D03*
%TD*%
D30*
%TO.C,J3*%
X142544800Y-85572600D03*
D29*
X142544800Y-83032600D03*
X142544800Y-80492600D03*
X142544800Y-77952600D03*
%TD*%
D10*
%TO.C,R13*%
G36*
X184590605Y-128069304D02*
G01*
X184614873Y-128072904D01*
X184638672Y-128078865D01*
X184661771Y-128087130D01*
X184683950Y-128097620D01*
X184704993Y-128110232D01*
X184724699Y-128124847D01*
X184742877Y-128141323D01*
X184759353Y-128159501D01*
X184773968Y-128179207D01*
X184786580Y-128200250D01*
X184797070Y-128222429D01*
X184805335Y-128245528D01*
X184811296Y-128269327D01*
X184814896Y-128293595D01*
X184816100Y-128318099D01*
X184816100Y-129568101D01*
X184814896Y-129592605D01*
X184811296Y-129616873D01*
X184805335Y-129640672D01*
X184797070Y-129663771D01*
X184786580Y-129685950D01*
X184773968Y-129706993D01*
X184759353Y-129726699D01*
X184742877Y-129744877D01*
X184724699Y-129761353D01*
X184704993Y-129775968D01*
X184683950Y-129788580D01*
X184661771Y-129799070D01*
X184638672Y-129807335D01*
X184614873Y-129813296D01*
X184590605Y-129816896D01*
X184566101Y-129818100D01*
X183941099Y-129818100D01*
X183916595Y-129816896D01*
X183892327Y-129813296D01*
X183868528Y-129807335D01*
X183845429Y-129799070D01*
X183823250Y-129788580D01*
X183802207Y-129775968D01*
X183782501Y-129761353D01*
X183764323Y-129744877D01*
X183747847Y-129726699D01*
X183733232Y-129706993D01*
X183720620Y-129685950D01*
X183710130Y-129663771D01*
X183701865Y-129640672D01*
X183695904Y-129616873D01*
X183692304Y-129592605D01*
X183691100Y-129568101D01*
X183691100Y-128318099D01*
X183692304Y-128293595D01*
X183695904Y-128269327D01*
X183701865Y-128245528D01*
X183710130Y-128222429D01*
X183720620Y-128200250D01*
X183733232Y-128179207D01*
X183747847Y-128159501D01*
X183764323Y-128141323D01*
X183782501Y-128124847D01*
X183802207Y-128110232D01*
X183823250Y-128097620D01*
X183845429Y-128087130D01*
X183868528Y-128078865D01*
X183892327Y-128072904D01*
X183916595Y-128069304D01*
X183941099Y-128068100D01*
X184566101Y-128068100D01*
X184590605Y-128069304D01*
G37*
G36*
X181665605Y-128069304D02*
G01*
X181689873Y-128072904D01*
X181713672Y-128078865D01*
X181736771Y-128087130D01*
X181758950Y-128097620D01*
X181779993Y-128110232D01*
X181799699Y-128124847D01*
X181817877Y-128141323D01*
X181834353Y-128159501D01*
X181848968Y-128179207D01*
X181861580Y-128200250D01*
X181872070Y-128222429D01*
X181880335Y-128245528D01*
X181886296Y-128269327D01*
X181889896Y-128293595D01*
X181891100Y-128318099D01*
X181891100Y-129568101D01*
X181889896Y-129592605D01*
X181886296Y-129616873D01*
X181880335Y-129640672D01*
X181872070Y-129663771D01*
X181861580Y-129685950D01*
X181848968Y-129706993D01*
X181834353Y-129726699D01*
X181817877Y-129744877D01*
X181799699Y-129761353D01*
X181779993Y-129775968D01*
X181758950Y-129788580D01*
X181736771Y-129799070D01*
X181713672Y-129807335D01*
X181689873Y-129813296D01*
X181665605Y-129816896D01*
X181641101Y-129818100D01*
X181016099Y-129818100D01*
X180991595Y-129816896D01*
X180967327Y-129813296D01*
X180943528Y-129807335D01*
X180920429Y-129799070D01*
X180898250Y-129788580D01*
X180877207Y-129775968D01*
X180857501Y-129761353D01*
X180839323Y-129744877D01*
X180822847Y-129726699D01*
X180808232Y-129706993D01*
X180795620Y-129685950D01*
X180785130Y-129663771D01*
X180776865Y-129640672D01*
X180770904Y-129616873D01*
X180767304Y-129592605D01*
X180766100Y-129568101D01*
X180766100Y-128318099D01*
X180767304Y-128293595D01*
X180770904Y-128269327D01*
X180776865Y-128245528D01*
X180785130Y-128222429D01*
X180795620Y-128200250D01*
X180808232Y-128179207D01*
X180822847Y-128159501D01*
X180839323Y-128141323D01*
X180857501Y-128124847D01*
X180877207Y-128110232D01*
X180898250Y-128097620D01*
X180920429Y-128087130D01*
X180943528Y-128078865D01*
X180967327Y-128072904D01*
X180991595Y-128069304D01*
X181016099Y-128068100D01*
X181641101Y-128068100D01*
X181665605Y-128069304D01*
G37*
%TD*%
M02*
