M48
; DRILL file {KiCad 5.1.5+dfsg1-2build2} date Fri Nov 19 21:09:50 2021
; FORMAT={-:-/ absolute / metric / decimal}
; #@! TF.CreationDate,2021-11-19T21:09:50+05:30
; #@! TF.GenerationSoftware,Kicad,Pcbnew,5.1.5+dfsg1-2build2
FMAT,2
METRIC
T1C0.400
T2C0.710
T3C0.762
T4C0.800
T5C1.000
T6C1.040
T7C2.390
T8C3.450
T9C1.000
T10C2.200
T11C2.500
%
G90
G05
T1
X96.342Y-97.663
X110.424Y-89.23
X113.259Y-97.193
X113.294Y-107.061
X113.325Y-104.684
X115.783Y-98.151
X115.814Y-96.088
X115.905Y-91.882
X120.891Y-128.308
X120.904Y-129.654
X120.917Y-131.229
X120.942Y-132.728
X125.484Y-111.214
X125.489Y-64.44
X125.501Y-63.182
X126.832Y-65.512
X126.837Y-68.773
X127.025Y-85.573
X127.041Y-109.657
X129.692Y-109.657
X130.586Y-84.252
X132.029Y-56.693
X133.058Y-56.693
X142.194Y-73.086
X142.691Y-108.02
X142.926Y-69.469
X146.924Y-103.566
X147.764Y-67.323
X148.834Y-99.451
X151.775Y-97.033
X151.994Y-67.323
X153.665Y-98.288
X153.695Y-103.088
X155.016Y-99.466
X155.715Y-67.323
X157.617Y-72.725
X159.878Y-78.014
X161.554Y-95.885
X161.554Y-97.856
X162.954Y-66.751
X164.211Y-94.996
X164.592Y-115.862
X167.051Y-72.095
X167.676Y-89.408
X168.692Y-66.449
X169.631Y-89.438
X171.801Y-69.55
X171.983Y-83.302
X171.983Y-84.897
X172.288Y-107.036
X172.403Y-77.165
X172.403Y-78.537
X172.644Y-59.842
X172.669Y-101.384
X173.655Y-63.967
X173.726Y-69.566
X174.561Y-91.023
X174.968Y-69.088
X175.057Y-114.046
X176.164Y-65.283
X176.72Y-60.439
X176.733Y-58.509
X178.054Y-106.972
X179.375Y-107.671
X180.177Y-78.852
X181.0Y-69.129
X183.485Y-78.831
X185.344Y-102.997
X187.889Y-86.401
X190.459Y-86.406
X190.487Y-67.729
X192.481Y-105.354
X192.816Y-76.708
X195.682Y-100.863
X197.498Y-61.849
X198.797Y-66.905
T2
X183.159Y-63.602
X185.699Y-63.602
X188.239Y-63.602
X154.889Y-95.555
X157.429Y-95.555
X159.969Y-95.555
T3
X146.998Y-109.791
X154.998Y-109.791
X176.47Y-83.811
X176.47Y-99.051
X179.01Y-83.811
X179.01Y-99.051
X181.55Y-83.811
X181.55Y-99.051
X184.09Y-83.811
X184.09Y-99.051
X186.63Y-83.811
X186.63Y-99.051
X189.17Y-83.811
X189.17Y-99.051
X191.71Y-83.811
X191.71Y-99.051
X194.25Y-83.811
X194.25Y-99.051
X147.097Y-72.997
X155.097Y-72.997
T4
X183.248Y-107.226
X183.248Y-112.306
X185.788Y-107.226
X185.788Y-112.306
X188.328Y-107.226
X188.328Y-112.306
X183.413Y-70.828
X183.413Y-75.908
X185.953Y-70.828
X185.953Y-75.908
X188.493Y-70.828
X188.493Y-75.908
T5
X169.409Y-50.104
X169.409Y-52.644
X174.909Y-50.104
X174.909Y-52.644
X142.545Y-77.953
X142.545Y-80.493
X142.545Y-83.033
X142.545Y-85.573
X194.37Y-110.176
X194.37Y-112.716
X199.87Y-110.176
X199.87Y-112.716
X104.203Y-70.434
X104.203Y-72.974
X104.203Y-75.514
X104.203Y-78.054
X104.203Y-80.594
X104.203Y-83.134
X104.203Y-85.674
X104.203Y-88.214
X104.203Y-90.754
X104.203Y-93.294
X104.203Y-95.834
X104.203Y-98.374
X104.203Y-100.914
X104.203Y-103.454
X104.203Y-105.994
X104.203Y-108.534
X104.203Y-111.074
X104.203Y-113.614
X104.203Y-116.154
X169.261Y-130.203
X169.261Y-132.743
X174.761Y-130.203
X174.761Y-132.743
X194.472Y-70.146
X194.472Y-72.686
X199.972Y-70.146
X199.972Y-72.686
X199.208Y-90.294
X199.208Y-92.834
X204.708Y-90.294
X204.708Y-92.834
X138.265Y-70.294
X138.265Y-72.834
X138.265Y-75.374
X138.265Y-77.914
X138.265Y-80.454
X138.265Y-82.995
X138.265Y-85.534
X138.265Y-88.075
X138.265Y-90.614
X138.265Y-93.154
X138.265Y-95.694
X138.265Y-98.234
X138.265Y-100.774
X138.265Y-103.314
X138.265Y-105.855
X138.265Y-108.394
X138.265Y-110.934
X138.265Y-113.474
X138.265Y-116.014
T6
X108.494Y-70.308
X108.494Y-72.848
X108.494Y-75.388
X108.494Y-77.928
X108.494Y-80.468
X108.494Y-83.008
X108.494Y-85.548
X108.494Y-88.088
X108.494Y-90.628
X108.494Y-93.168
X108.494Y-95.708
X108.494Y-98.248
X108.494Y-100.788
X108.494Y-103.328
X108.494Y-105.868
X108.494Y-108.408
X108.494Y-110.948
X108.494Y-113.488
X108.494Y-116.028
X133.894Y-70.308
X133.894Y-72.848
X133.894Y-75.388
X133.894Y-77.928
X133.894Y-80.468
X133.894Y-83.008
X133.894Y-85.548
X133.894Y-88.088
X133.894Y-90.628
X133.894Y-93.168
X133.894Y-95.708
X133.894Y-98.248
X133.894Y-100.788
X133.894Y-103.328
X133.894Y-105.868
X133.894Y-108.408
X133.894Y-110.948
X133.894Y-113.488
X133.894Y-116.028
T7
X129.219Y-55.501
T8
X113.219Y-63.831
X129.219Y-119.031
T9
X167.509Y-48.924
X192.47Y-108.996
X167.361Y-129.023
X192.572Y-68.966
X197.308Y-89.114
T10
X142.24Y-121.031
X159.741Y-121.031
X159.868Y-61.773
X142.329Y-61.773
T11
X172.159Y-49.474
X172.159Y-53.274
X197.12Y-109.546
X197.12Y-113.346
X172.011Y-129.573
X172.011Y-133.373
X197.222Y-69.516
X197.222Y-73.316
X201.958Y-89.664
X201.958Y-93.464
T0
M30
