M48
; DRILL file {KiCad 5.1.10-88a1d61d58~90~ubuntu20.04.1} date Wed Nov 17 23:08:28 2021
; FORMAT={-:-/ absolute / inch / decimal}
; #@! TF.CreationDate,2021-11-17T23:08:28+05:30
; #@! TF.GenerationSoftware,Kicad,Pcbnew,5.1.10-88a1d61d58~90~ubuntu20.04.1
; #@! TF.FileFunction,Plated,1,2,PTH
FMAT,2
INCH
T1C0.0157
T2C0.0280
T3C0.0300
T4C0.0315
T5C0.0394
T6C0.0409
T7C0.0941
T8C0.1358
%
G90
G05
T1
X3.793Y-3.845
X4.459Y-3.8265
X4.7595Y-5.0515
X4.76Y-5.1045
X4.7605Y-5.1665
X4.7615Y-5.2255
X4.9405Y-2.537
X4.941Y-2.4875
X5.001Y-3.369
X5.1755Y-4.3175
X5.198Y-2.232
X5.2385Y-2.232
X5.553Y-4.3175
X5.6135Y-4.2845
X5.625Y-2.792
X5.627Y-2.735
X5.658Y-3.7485
X5.658Y-3.7485
X5.658Y-3.9115
X5.6953Y-3.4212
X5.731Y-3.3225
X5.792Y-4.213
X5.8175Y-2.6505
X5.8545Y-4.1205
X5.984Y-2.6505
X6.0575Y-3.9415
X6.1305Y-2.6505
X6.214Y-2.8785
X6.299Y-3.061
X6.4155Y-2.628
X6.4635Y-3.7135
X6.48Y-4.5615
X6.6165Y-3.519
X6.635Y-2.692
X6.6414Y-2.6161
X6.744Y-3.3725
X6.783Y-4.214
X6.7875Y-3.038
X6.7875Y-3.092
X6.791Y-2.8425
X6.797Y-2.356
X6.798Y-3.9915
X6.8375Y-2.7215
X6.8395Y-2.5315
X6.8885Y-2.72
X6.892Y-4.49
X6.9365Y-2.56
X6.9575Y-2.3795
X6.958Y-2.3035
X6.9985Y-3.424
X7.01Y-4.2115
X7.0455Y-3.4685
X7.062Y-4.239
X7.297Y-4.055
X7.344Y-3.4735
X7.447Y-3.4735
X7.4995Y-2.6665
X7.598Y-3.1875
X7.6585Y-4.071
X7.7755Y-2.435
X7.8266Y-2.6341
X7.9005Y-3.195
T2
X6.098Y-3.7165
X6.198Y-3.7165
X6.298Y-3.7165
X7.211Y-2.504
X7.311Y-2.504
X7.411Y-2.504
T3
X5.7873Y-4.3225
X5.7912Y-2.8739
X6.1023Y-4.3225
X6.1062Y-2.8739
X6.9476Y-3.2996
X6.9476Y-3.8996
X7.0476Y-3.2996
X7.0476Y-3.8996
X7.1476Y-3.2996
X7.1476Y-3.8996
X7.2476Y-3.2996
X7.2476Y-3.8996
X7.3476Y-3.2996
X7.3476Y-3.8996
X7.4476Y-3.2996
X7.4476Y-3.8996
X7.5476Y-3.2996
X7.5476Y-3.8996
X7.6476Y-3.2996
X7.6476Y-3.8996
T4
X7.2145Y-4.2215
X7.2145Y-4.4215
X7.221Y-2.7885
X7.221Y-2.9885
X7.3145Y-4.2215
X7.3145Y-4.4215
X7.321Y-2.7885
X7.321Y-2.9885
X7.4145Y-4.2215
X7.4145Y-4.4215
X7.421Y-2.7885
X7.421Y-2.9885
T5
X4.1025Y-2.773
X4.1025Y-2.873
X4.1025Y-2.973
X4.1025Y-3.073
X4.1025Y-3.173
X4.1025Y-3.273
X4.1025Y-3.373
X4.1025Y-3.473
X4.1025Y-3.573
X4.1025Y-3.673
X4.1025Y-3.773
X4.1025Y-3.873
X4.1025Y-3.973
X4.1025Y-4.073
X4.1025Y-4.173
X4.1025Y-4.273
X4.1025Y-4.373
X4.1025Y-4.473
X4.1025Y-4.573
X5.4435Y-2.7675
X5.4435Y-2.8675
X5.4435Y-2.9675
X5.4435Y-3.0675
X5.4435Y-3.1675
X5.4435Y-3.2675
X5.4435Y-3.3675
X5.4435Y-3.4675
X5.4435Y-3.5675
X5.4435Y-3.6675
X5.4435Y-3.7675
X5.4435Y-3.8675
X5.4435Y-3.9675
X5.4435Y-4.0675
X5.4435Y-4.1675
X5.4435Y-4.2675
X5.4435Y-4.3675
X5.4435Y-4.4675
X5.4435Y-4.5675
X5.612Y-3.069
X5.612Y-3.169
X5.612Y-3.269
X5.612Y-3.369
X6.6638Y-5.1261
X6.6638Y-5.2261
X6.6696Y-1.9726
X6.6696Y-2.0726
X6.8804Y-5.1261
X6.8804Y-5.2261
X6.8862Y-1.9726
X6.8862Y-2.0726
X7.6524Y-4.3376
X7.6524Y-4.4376
X7.6564Y-2.7616
X7.6564Y-2.8616
X7.8428Y-3.5549
X7.8428Y-3.6549
X7.8689Y-4.3376
X7.8689Y-4.4376
X7.8729Y-2.7616
X7.8729Y-2.8616
X8.0594Y-3.5549
X8.0594Y-3.6549
T6
X4.2714Y-2.768
X4.2714Y-2.868
X4.2714Y-2.968
X4.2714Y-3.068
X4.2714Y-3.168
X4.2714Y-3.268
X4.2714Y-3.368
X4.2714Y-3.468
X4.2714Y-3.568
X4.2714Y-3.668
X4.2714Y-3.768
X4.2714Y-3.868
X4.2714Y-3.968
X4.2714Y-4.068
X4.2714Y-4.168
X4.2714Y-4.268
X4.2714Y-4.368
X4.2714Y-4.468
X4.2714Y-4.568
X5.2714Y-2.768
X5.2714Y-2.868
X5.2714Y-2.968
X5.2714Y-3.068
X5.2714Y-3.168
X5.2714Y-3.268
X5.2714Y-3.368
X5.2714Y-3.468
X5.2714Y-3.568
X5.2714Y-3.668
X5.2714Y-3.768
X5.2714Y-3.868
X5.2714Y-3.968
X5.2714Y-4.068
X5.2714Y-4.168
X5.2714Y-4.268
X5.2714Y-4.368
X5.2714Y-4.468
X5.2714Y-4.568
T7
X5.0874Y-2.1851
T8
X4.4574Y-2.513
X5.0874Y-4.6863
T0
M30
