%FSLAX45Y45*%
G04 Gerber Fmt 4.5, Leading zero omitted, Abs format (unit mm)*
G04 Created by KiCad (PCBNEW 5.1.5+dfsg1-2build2) date 2021-11-19 21:09:51*
%MOMM*%
%LPD*%
G04 APERTURE LIST*
%TA.AperFunction,Profile*%
%ADD10C,0.050000*%
%TD*%
%ADD11C,0.200000*%
%ADD12C,0.300000*%
G04 APERTURE END LIST*
D10*
X16816598Y-3713202D02*
G75*
G02X16825850Y-14570354I-1708678J-5430036D01*
G01*
X13416469Y-14584496D02*
G75*
G02X13411910Y-3703078I1690441J5441418D01*
G01*
X13417170Y-13505078D02*
X13416469Y-14584496D01*
X16825850Y-13505078D02*
X16825850Y-14570354D01*
X13412170Y-4771078D02*
X13411910Y-3703078D01*
X16820850Y-4771078D02*
X16816598Y-3713202D01*
X15121510Y-13505078D02*
X16825850Y-13505078D01*
X13417170Y-13505078D02*
X15121510Y-13505078D01*
X13412170Y-4771078D02*
X15116510Y-4771078D01*
X15116510Y-4771078D02*
X16820850Y-4771078D01*
D11*
X9614220Y-9746300D02*
X9654220Y-9786300D01*
X9654220Y-9746300D02*
X9614220Y-9786300D01*
X11022396Y-8903020D02*
X11062396Y-8943020D01*
X11062396Y-8903020D02*
X11022396Y-8943020D01*
X11305860Y-9699310D02*
X11345860Y-9739310D01*
X11345860Y-9699310D02*
X11305860Y-9739310D01*
X11309416Y-10686100D02*
X11349416Y-10726100D01*
X11349416Y-10686100D02*
X11309416Y-10726100D01*
X11312464Y-10448356D02*
X11352464Y-10488356D01*
X11352464Y-10448356D02*
X11312464Y-10488356D01*
X11558336Y-9795068D02*
X11598336Y-9835068D01*
X11598336Y-9795068D02*
X11558336Y-9835068D01*
X11561384Y-9588820D02*
X11601384Y-9628820D01*
X11601384Y-9588820D02*
X11561384Y-9628820D01*
X11570528Y-9168196D02*
X11610528Y-9208196D01*
X11610528Y-9168196D02*
X11570528Y-9208196D01*
X12069130Y-12810810D02*
X12109130Y-12850810D01*
X12109130Y-12810810D02*
X12069130Y-12850810D01*
X12070400Y-12945430D02*
X12110400Y-12985430D01*
X12110400Y-12945430D02*
X12070400Y-12985430D01*
X12071670Y-13102910D02*
X12111670Y-13142910D01*
X12111670Y-13102910D02*
X12071670Y-13142910D01*
X12074210Y-13252770D02*
X12114210Y-13292770D01*
X12114210Y-13252770D02*
X12074210Y-13292770D01*
X12528362Y-11101390D02*
X12568362Y-11141390D01*
X12568362Y-11101390D02*
X12528362Y-11141390D01*
X12528870Y-6423980D02*
X12568870Y-6463980D01*
X12568870Y-6423980D02*
X12528870Y-6463980D01*
X12530140Y-6298250D02*
X12570140Y-6338250D01*
X12570140Y-6298250D02*
X12530140Y-6338250D01*
X12663236Y-6531168D02*
X12703236Y-6571168D01*
X12703236Y-6531168D02*
X12663236Y-6571168D01*
X12663744Y-6857304D02*
X12703744Y-6897304D01*
X12703744Y-6857304D02*
X12663744Y-6897304D01*
X12682540Y-8537260D02*
X12722540Y-8577260D01*
X12722540Y-8537260D02*
X12682540Y-8577260D01*
X12684064Y-10945688D02*
X12724064Y-10985688D01*
X12724064Y-10945688D02*
X12684064Y-10985688D01*
X12949240Y-10945688D02*
X12989240Y-10985688D01*
X12989240Y-10945688D02*
X12949240Y-10985688D01*
X13038648Y-8405180D02*
X13078648Y-8445180D01*
X13078648Y-8405180D02*
X13038648Y-8445180D01*
X13182920Y-5649280D02*
X13222920Y-5689280D01*
X13222920Y-5649280D02*
X13182920Y-5689280D01*
X13285790Y-5649280D02*
X13325790Y-5689280D01*
X13325790Y-5649280D02*
X13285790Y-5689280D01*
X14199428Y-7288596D02*
X14239428Y-7328596D01*
X14239428Y-7288596D02*
X14199428Y-7328596D01*
X14249085Y-10781985D02*
X14289085Y-10821985D01*
X14289085Y-10781985D02*
X14249085Y-10821985D01*
X14272580Y-6926900D02*
X14312580Y-6966900D01*
X14312580Y-6926900D02*
X14272580Y-6966900D01*
X14672376Y-10336596D02*
X14712376Y-10376596D01*
X14712376Y-10336596D02*
X14672376Y-10376596D01*
X14756450Y-6712270D02*
X14796450Y-6752270D01*
X14796450Y-6712270D02*
X14756450Y-6752270D01*
X14863384Y-9925116D02*
X14903384Y-9965116D01*
X14903384Y-9925116D02*
X14863384Y-9965116D01*
X15157516Y-9683308D02*
X15197516Y-9723308D01*
X15197516Y-9683308D02*
X15157516Y-9723308D01*
X15179360Y-6712270D02*
X15219360Y-6752270D01*
X15219360Y-6712270D02*
X15179360Y-6752270D01*
X15346492Y-9808784D02*
X15386492Y-9848784D01*
X15386492Y-9808784D02*
X15346492Y-9848784D01*
X15349540Y-10288844D02*
X15389540Y-10328844D01*
X15389540Y-10288844D02*
X15349540Y-10328844D01*
X15481620Y-9926640D02*
X15521620Y-9966640D01*
X15521620Y-9926640D02*
X15481620Y-9966640D01*
X15551470Y-6712270D02*
X15591470Y-6752270D01*
X15591470Y-6712270D02*
X15551470Y-6752270D01*
X15741716Y-7252528D02*
X15781716Y-7292528D01*
X15781716Y-7252528D02*
X15741716Y-7292528D01*
X15967776Y-7781356D02*
X16007776Y-7821356D01*
X16007776Y-7781356D02*
X15967776Y-7821356D01*
X16135416Y-9568500D02*
X16175416Y-9608500D01*
X16175416Y-9568500D02*
X16135416Y-9608500D01*
X16135416Y-9765604D02*
X16175416Y-9805604D01*
X16175416Y-9765604D02*
X16135416Y-9805604D01*
X16275370Y-6655120D02*
X16315370Y-6695120D01*
X16315370Y-6655120D02*
X16275370Y-6695120D01*
X16401100Y-9479600D02*
X16441100Y-9519600D01*
X16441100Y-9479600D02*
X16401100Y-9519600D01*
X16439200Y-11566210D02*
X16479200Y-11606210D01*
X16479200Y-11566210D02*
X16439200Y-11606210D01*
X16685072Y-7189536D02*
X16725072Y-7229536D01*
X16725072Y-7189536D02*
X16685072Y-7229536D01*
X16747556Y-8920800D02*
X16787556Y-8960800D01*
X16787556Y-8920800D02*
X16747556Y-8960800D01*
X16849198Y-6624909D02*
X16889198Y-6664909D01*
X16889198Y-6624909D02*
X16849198Y-6664909D01*
X16943136Y-8923848D02*
X16983136Y-8963848D01*
X16983136Y-8923848D02*
X16943136Y-8963848D01*
X17160052Y-6935028D02*
X17200052Y-6975028D01*
X17200052Y-6935028D02*
X17160052Y-6975028D01*
X17178340Y-8310184D02*
X17218340Y-8350184D01*
X17218340Y-8310184D02*
X17178340Y-8350184D01*
X17178340Y-8469696D02*
X17218340Y-8509696D01*
X17218340Y-8469696D02*
X17178340Y-8509696D01*
X17208820Y-10683560D02*
X17248820Y-10723560D01*
X17248820Y-10683560D02*
X17208820Y-10723560D01*
X17220250Y-7696520D02*
X17260250Y-7736520D01*
X17260250Y-7696520D02*
X17220250Y-7736520D01*
X17220250Y-7833680D02*
X17260250Y-7873680D01*
X17260250Y-7833680D02*
X17220250Y-7873680D01*
X17244380Y-5964240D02*
X17284380Y-6004240D01*
X17284380Y-5964240D02*
X17244380Y-6004240D01*
X17246920Y-10118410D02*
X17286920Y-10158410D01*
X17286920Y-10118410D02*
X17246920Y-10158410D01*
X17345472Y-6376736D02*
X17385472Y-6416736D01*
X17385472Y-6376736D02*
X17345472Y-6416736D01*
X17352584Y-6936552D02*
X17392584Y-6976552D01*
X17392584Y-6936552D02*
X17352584Y-6976552D01*
X17436141Y-9082344D02*
X17476141Y-9122344D01*
X17476141Y-9082344D02*
X17436141Y-9122344D01*
X17476790Y-6888800D02*
X17516790Y-6928800D01*
X17516790Y-6888800D02*
X17476790Y-6928800D01*
X17485680Y-11384600D02*
X17525680Y-11424600D01*
X17525680Y-11384600D02*
X17485680Y-11424600D01*
X17596424Y-6508308D02*
X17636424Y-6548308D01*
X17636424Y-6508308D02*
X17596424Y-6548308D01*
X17652050Y-6023920D02*
X17692050Y-6063920D01*
X17692050Y-6023920D02*
X17652050Y-6063920D01*
X17653320Y-5830890D02*
X17693320Y-5870890D01*
X17693320Y-5830890D02*
X17653320Y-5870890D01*
X17785400Y-10677210D02*
X17825400Y-10717210D01*
X17825400Y-10677210D02*
X17785400Y-10717210D01*
X17917480Y-10747060D02*
X17957480Y-10787060D01*
X17957480Y-10747060D02*
X17917480Y-10787060D01*
X17997744Y-7865176D02*
X18037744Y-7905176D01*
X18037744Y-7865176D02*
X17997744Y-7905176D01*
X18080040Y-6892864D02*
X18120040Y-6932864D01*
X18120040Y-6892864D02*
X18080040Y-6932864D01*
X18328452Y-7863144D02*
X18368452Y-7903144D01*
X18368452Y-7863144D02*
X18328452Y-7903144D01*
X18514380Y-10279700D02*
X18554380Y-10319700D01*
X18554380Y-10279700D02*
X18514380Y-10319700D01*
X18768888Y-8620064D02*
X18808888Y-8660064D01*
X18808888Y-8620064D02*
X18768888Y-8660064D01*
X19025936Y-8620572D02*
X19065936Y-8660572D01*
X19065936Y-8620572D02*
X19025936Y-8660572D01*
X19028730Y-6752910D02*
X19068730Y-6792910D01*
X19068730Y-6752910D02*
X19028730Y-6792910D01*
X19228120Y-10515412D02*
X19268120Y-10555412D01*
X19268120Y-10515412D02*
X19228120Y-10555412D01*
X19261648Y-7650800D02*
X19301648Y-7690800D01*
X19301648Y-7650800D02*
X19261648Y-7690800D01*
X19548160Y-10066340D02*
X19588160Y-10106340D01*
X19588160Y-10066340D02*
X19548160Y-10106340D01*
X19729770Y-6164900D02*
X19769770Y-6204900D01*
X19769770Y-6164900D02*
X19729770Y-6204900D01*
X19859670Y-6670520D02*
X19899670Y-6710520D01*
X19899670Y-6670520D02*
X19859670Y-6710520D01*
X18351440Y-6360160D02*
G75*
G03X18351440Y-6360160I-35500J0D01*
G01*
X18605440Y-6360160D02*
G75*
G03X18605440Y-6360160I-35500J0D01*
G01*
X18859440Y-6360160D02*
G75*
G03X18859440Y-6360160I-35500J0D01*
G01*
X15524420Y-9555480D02*
G75*
G03X15524420Y-9555480I-35500J0D01*
G01*
X15778420Y-9555480D02*
G75*
G03X15778420Y-9555480I-35500J0D01*
G01*
X16032420Y-9555480D02*
G75*
G03X16032420Y-9555480I-35500J0D01*
G01*
X14699792Y-10941022D02*
X14699792Y-11017222D01*
X14661692Y-10979122D02*
X14737892Y-10979122D01*
X15499792Y-10941022D02*
X15499792Y-11017222D01*
X15461692Y-10979122D02*
X15537892Y-10979122D01*
X17646990Y-8342978D02*
X17646990Y-8419178D01*
X17608890Y-8381078D02*
X17685090Y-8381078D01*
X17646990Y-9866978D02*
X17646990Y-9943178D01*
X17608890Y-9905078D02*
X17685090Y-9905078D01*
X17900990Y-8342978D02*
X17900990Y-8419178D01*
X17862890Y-8381078D02*
X17939090Y-8381078D01*
X17900990Y-9866978D02*
X17900990Y-9943178D01*
X17862890Y-9905078D02*
X17939090Y-9905078D01*
X18154990Y-8342978D02*
X18154990Y-8419178D01*
X18116890Y-8381078D02*
X18193090Y-8381078D01*
X18154990Y-9866978D02*
X18154990Y-9943178D01*
X18116890Y-9905078D02*
X18193090Y-9905078D01*
X18408990Y-8342978D02*
X18408990Y-8419178D01*
X18370890Y-8381078D02*
X18447090Y-8381078D01*
X18408990Y-9866978D02*
X18408990Y-9943178D01*
X18370890Y-9905078D02*
X18447090Y-9905078D01*
X18662990Y-8342978D02*
X18662990Y-8419178D01*
X18624890Y-8381078D02*
X18701090Y-8381078D01*
X18662990Y-9866978D02*
X18662990Y-9943178D01*
X18624890Y-9905078D02*
X18701090Y-9905078D01*
X18916990Y-8342978D02*
X18916990Y-8419178D01*
X18878890Y-8381078D02*
X18955090Y-8381078D01*
X18916990Y-9866978D02*
X18916990Y-9943178D01*
X18878890Y-9905078D02*
X18955090Y-9905078D01*
X19170990Y-8342978D02*
X19170990Y-8419178D01*
X19132890Y-8381078D02*
X19209090Y-8381078D01*
X19170990Y-9866978D02*
X19170990Y-9943178D01*
X19132890Y-9905078D02*
X19209090Y-9905078D01*
X19424990Y-8342978D02*
X19424990Y-8419178D01*
X19386890Y-8381078D02*
X19463090Y-8381078D01*
X19424990Y-9866978D02*
X19424990Y-9943178D01*
X19386890Y-9905078D02*
X19463090Y-9905078D01*
X14709698Y-7261634D02*
X14709698Y-7337834D01*
X14671598Y-7299734D02*
X14747798Y-7299734D01*
X15509698Y-7261634D02*
X15509698Y-7337834D01*
X15471598Y-7299734D02*
X15547798Y-7299734D01*
X18353115Y-10750895D02*
X18353115Y-10694326D01*
X18296546Y-10694326D01*
X18296546Y-10750895D01*
X18353115Y-10750895D01*
X18353115Y-11258894D02*
X18353115Y-11202325D01*
X18296546Y-11202325D01*
X18296546Y-11258894D01*
X18353115Y-11258894D01*
X18607115Y-10750895D02*
X18607115Y-10694326D01*
X18550546Y-10694326D01*
X18550546Y-10750895D01*
X18607115Y-10750895D01*
X18607115Y-11258894D02*
X18607115Y-11202325D01*
X18550546Y-11202325D01*
X18550546Y-11258894D01*
X18607115Y-11258894D01*
X18861115Y-10750895D02*
X18861115Y-10694326D01*
X18804546Y-10694326D01*
X18804546Y-10750895D01*
X18861115Y-10750895D01*
X18861115Y-11258894D02*
X18861115Y-11202325D01*
X18804546Y-11202325D01*
X18804546Y-11258894D01*
X18861115Y-11258894D01*
X18369625Y-7111074D02*
X18369625Y-7054505D01*
X18313056Y-7054505D01*
X18313056Y-7111074D01*
X18369625Y-7111074D01*
X18369625Y-7619074D02*
X18369625Y-7562505D01*
X18313056Y-7562505D01*
X18313056Y-7619074D01*
X18369625Y-7619074D01*
X18623625Y-7111074D02*
X18623625Y-7054505D01*
X18567056Y-7054505D01*
X18567056Y-7111074D01*
X18623625Y-7111074D01*
X18623625Y-7619074D02*
X18623625Y-7562505D01*
X18567056Y-7562505D01*
X18567056Y-7619074D01*
X18623625Y-7619074D01*
X18877625Y-7111074D02*
X18877625Y-7054505D01*
X18821056Y-7054505D01*
X18821056Y-7111074D01*
X18877625Y-7111074D01*
X18877625Y-7619074D02*
X18877625Y-7562505D01*
X18821056Y-7562505D01*
X18821056Y-7619074D01*
X18877625Y-7619074D01*
X16940866Y-5060404D02*
X16990866Y-5010404D01*
X16940866Y-4960404D01*
X16890866Y-5010404D01*
X16940866Y-5060404D01*
X16940866Y-5314404D02*
X16990866Y-5264404D01*
X16940866Y-5214404D01*
X16890866Y-5264404D01*
X16940866Y-5314404D01*
X17490866Y-5060404D02*
X17540866Y-5010404D01*
X17490866Y-4960404D01*
X17440866Y-5010404D01*
X17490866Y-5060404D01*
X17490866Y-5314404D02*
X17540866Y-5264404D01*
X17490866Y-5214404D01*
X17440866Y-5264404D01*
X17490866Y-5314404D01*
X14254480Y-7845260D02*
X14304480Y-7795260D01*
X14254480Y-7745260D01*
X14204480Y-7795260D01*
X14254480Y-7845260D01*
X14254480Y-8099260D02*
X14304480Y-8049260D01*
X14254480Y-7999260D01*
X14204480Y-8049260D01*
X14254480Y-8099260D01*
X14254480Y-8353260D02*
X14304480Y-8303260D01*
X14254480Y-8253260D01*
X14204480Y-8303260D01*
X14254480Y-8353260D01*
X14254480Y-8607260D02*
X14304480Y-8557260D01*
X14254480Y-8507260D01*
X14204480Y-8557260D01*
X14254480Y-8607260D01*
X19437010Y-11067598D02*
X19487010Y-11017598D01*
X19437010Y-10967598D01*
X19387010Y-11017598D01*
X19437010Y-11067598D01*
X19437010Y-11321598D02*
X19487010Y-11271598D01*
X19437010Y-11221598D01*
X19387010Y-11271598D01*
X19437010Y-11321598D01*
X19987010Y-11067598D02*
X20037010Y-11017598D01*
X19987010Y-10967598D01*
X19937010Y-11017598D01*
X19987010Y-11067598D01*
X19987010Y-11321598D02*
X20037010Y-11271598D01*
X19987010Y-11221598D01*
X19937010Y-11271598D01*
X19987010Y-11321598D01*
X10420350Y-7093420D02*
X10470350Y-7043420D01*
X10420350Y-6993420D01*
X10370350Y-7043420D01*
X10420350Y-7093420D01*
X10420350Y-7347420D02*
X10470350Y-7297420D01*
X10420350Y-7247420D01*
X10370350Y-7297420D01*
X10420350Y-7347420D01*
X10420350Y-7601420D02*
X10470350Y-7551420D01*
X10420350Y-7501420D01*
X10370350Y-7551420D01*
X10420350Y-7601420D01*
X10420350Y-7855420D02*
X10470350Y-7805420D01*
X10420350Y-7755420D01*
X10370350Y-7805420D01*
X10420350Y-7855420D01*
X10420350Y-8109420D02*
X10470350Y-8059420D01*
X10420350Y-8009420D01*
X10370350Y-8059420D01*
X10420350Y-8109420D01*
X10420350Y-8363420D02*
X10470350Y-8313420D01*
X10420350Y-8263420D01*
X10370350Y-8313420D01*
X10420350Y-8363420D01*
X10420350Y-8617420D02*
X10470350Y-8567420D01*
X10420350Y-8517420D01*
X10370350Y-8567420D01*
X10420350Y-8617420D01*
X10420350Y-8871420D02*
X10470350Y-8821420D01*
X10420350Y-8771420D01*
X10370350Y-8821420D01*
X10420350Y-8871420D01*
X10420350Y-9125420D02*
X10470350Y-9075420D01*
X10420350Y-9025420D01*
X10370350Y-9075420D01*
X10420350Y-9125420D01*
X10420350Y-9379420D02*
X10470350Y-9329420D01*
X10420350Y-9279420D01*
X10370350Y-9329420D01*
X10420350Y-9379420D01*
X10420350Y-9633420D02*
X10470350Y-9583420D01*
X10420350Y-9533420D01*
X10370350Y-9583420D01*
X10420350Y-9633420D01*
X10420350Y-9887420D02*
X10470350Y-9837420D01*
X10420350Y-9787420D01*
X10370350Y-9837420D01*
X10420350Y-9887420D01*
X10420350Y-10141420D02*
X10470350Y-10091420D01*
X10420350Y-10041420D01*
X10370350Y-10091420D01*
X10420350Y-10141420D01*
X10420350Y-10395420D02*
X10470350Y-10345420D01*
X10420350Y-10295420D01*
X10370350Y-10345420D01*
X10420350Y-10395420D01*
X10420350Y-10649420D02*
X10470350Y-10599420D01*
X10420350Y-10549420D01*
X10370350Y-10599420D01*
X10420350Y-10649420D01*
X10420350Y-10903420D02*
X10470350Y-10853420D01*
X10420350Y-10803420D01*
X10370350Y-10853420D01*
X10420350Y-10903420D01*
X10420350Y-11157420D02*
X10470350Y-11107420D01*
X10420350Y-11057420D01*
X10370350Y-11107420D01*
X10420350Y-11157420D01*
X10420350Y-11411420D02*
X10470350Y-11361420D01*
X10420350Y-11311420D01*
X10370350Y-11361420D01*
X10420350Y-11411420D01*
X10420350Y-11665420D02*
X10470350Y-11615420D01*
X10420350Y-11565420D01*
X10370350Y-11615420D01*
X10420350Y-11665420D01*
X16926134Y-13070294D02*
X16976134Y-13020294D01*
X16926134Y-12970294D01*
X16876134Y-13020294D01*
X16926134Y-13070294D01*
X16926134Y-13324294D02*
X16976134Y-13274294D01*
X16926134Y-13224294D01*
X16876134Y-13274294D01*
X16926134Y-13324294D01*
X17476134Y-13070294D02*
X17526134Y-13020294D01*
X17476134Y-12970294D01*
X17426134Y-13020294D01*
X17476134Y-13070294D01*
X17476134Y-13324294D02*
X17526134Y-13274294D01*
X17476134Y-13224294D01*
X17426134Y-13274294D01*
X17476134Y-13324294D01*
X19447170Y-7064558D02*
X19497170Y-7014558D01*
X19447170Y-6964558D01*
X19397170Y-7014558D01*
X19447170Y-7064558D01*
X19447170Y-7318558D02*
X19497170Y-7268558D01*
X19447170Y-7218558D01*
X19397170Y-7268558D01*
X19447170Y-7318558D01*
X19997170Y-7064558D02*
X20047170Y-7014558D01*
X19997170Y-6964558D01*
X19947170Y-7014558D01*
X19997170Y-7064558D01*
X19997170Y-7318558D02*
X20047170Y-7268558D01*
X19997170Y-7218558D01*
X19947170Y-7268558D01*
X19997170Y-7318558D01*
X19920794Y-9079446D02*
X19970794Y-9029446D01*
X19920794Y-8979446D01*
X19870794Y-9029446D01*
X19920794Y-9079446D01*
X19920794Y-9333446D02*
X19970794Y-9283446D01*
X19920794Y-9233446D01*
X19870794Y-9283446D01*
X19920794Y-9333446D01*
X20470794Y-9079446D02*
X20520794Y-9029446D01*
X20470794Y-8979446D01*
X20420794Y-9029446D01*
X20470794Y-9079446D01*
X20470794Y-9333446D02*
X20520794Y-9283446D01*
X20470794Y-9233446D01*
X20420794Y-9283446D01*
X20470794Y-9333446D01*
X13826490Y-7079450D02*
X13876490Y-7029450D01*
X13826490Y-6979450D01*
X13776490Y-7029450D01*
X13826490Y-7079450D01*
X13826490Y-7333450D02*
X13876490Y-7283450D01*
X13826490Y-7233450D01*
X13776490Y-7283450D01*
X13826490Y-7333450D01*
X13826490Y-7587450D02*
X13876490Y-7537450D01*
X13826490Y-7487450D01*
X13776490Y-7537450D01*
X13826490Y-7587450D01*
X13826490Y-7841450D02*
X13876490Y-7791450D01*
X13826490Y-7741450D01*
X13776490Y-7791450D01*
X13826490Y-7841450D01*
X13826490Y-8095450D02*
X13876490Y-8045450D01*
X13826490Y-7995450D01*
X13776490Y-8045450D01*
X13826490Y-8095450D01*
X13826490Y-8349450D02*
X13876490Y-8299450D01*
X13826490Y-8249450D01*
X13776490Y-8299450D01*
X13826490Y-8349450D01*
X13826490Y-8603450D02*
X13876490Y-8553450D01*
X13826490Y-8503450D01*
X13776490Y-8553450D01*
X13826490Y-8603450D01*
X13826490Y-8857450D02*
X13876490Y-8807450D01*
X13826490Y-8757450D01*
X13776490Y-8807450D01*
X13826490Y-8857450D01*
X13826490Y-9111450D02*
X13876490Y-9061450D01*
X13826490Y-9011450D01*
X13776490Y-9061450D01*
X13826490Y-9111450D01*
X13826490Y-9365450D02*
X13876490Y-9315450D01*
X13826490Y-9265450D01*
X13776490Y-9315450D01*
X13826490Y-9365450D01*
X13826490Y-9619450D02*
X13876490Y-9569450D01*
X13826490Y-9519450D01*
X13776490Y-9569450D01*
X13826490Y-9619450D01*
X13826490Y-9873450D02*
X13876490Y-9823450D01*
X13826490Y-9773450D01*
X13776490Y-9823450D01*
X13826490Y-9873450D01*
X13826490Y-10127450D02*
X13876490Y-10077450D01*
X13826490Y-10027450D01*
X13776490Y-10077450D01*
X13826490Y-10127450D01*
X13826490Y-10381450D02*
X13876490Y-10331450D01*
X13826490Y-10281450D01*
X13776490Y-10331450D01*
X13826490Y-10381450D01*
X13826490Y-10635450D02*
X13876490Y-10585450D01*
X13826490Y-10535450D01*
X13776490Y-10585450D01*
X13826490Y-10635450D01*
X13826490Y-10889450D02*
X13876490Y-10839450D01*
X13826490Y-10789450D01*
X13776490Y-10839450D01*
X13826490Y-10889450D01*
X13826490Y-11143450D02*
X13876490Y-11093450D01*
X13826490Y-11043450D01*
X13776490Y-11093450D01*
X13826490Y-11143450D01*
X13826490Y-11397450D02*
X13876490Y-11347450D01*
X13826490Y-11297450D01*
X13776490Y-11347450D01*
X13826490Y-11397450D01*
X13826490Y-11651450D02*
X13876490Y-11601450D01*
X13826490Y-11551450D01*
X13776490Y-11601450D01*
X13826490Y-11651450D01*
X10797356Y-6978840D02*
X10901356Y-7082840D01*
X10901356Y-6978840D02*
X10797356Y-7082840D01*
X10901356Y-7030840D02*
G75*
G03X10901356Y-7030840I-52000J0D01*
G01*
X10797356Y-7232840D02*
X10901356Y-7336840D01*
X10901356Y-7232840D02*
X10797356Y-7336840D01*
X10901356Y-7284840D02*
G75*
G03X10901356Y-7284840I-52000J0D01*
G01*
X10797356Y-7486840D02*
X10901356Y-7590840D01*
X10901356Y-7486840D02*
X10797356Y-7590840D01*
X10901356Y-7538840D02*
G75*
G03X10901356Y-7538840I-52000J0D01*
G01*
X10797356Y-7740840D02*
X10901356Y-7844840D01*
X10901356Y-7740840D02*
X10797356Y-7844840D01*
X10901356Y-7792840D02*
G75*
G03X10901356Y-7792840I-52000J0D01*
G01*
X10797356Y-7994840D02*
X10901356Y-8098840D01*
X10901356Y-7994840D02*
X10797356Y-8098840D01*
X10901356Y-8046840D02*
G75*
G03X10901356Y-8046840I-52000J0D01*
G01*
X10797356Y-8248840D02*
X10901356Y-8352840D01*
X10901356Y-8248840D02*
X10797356Y-8352840D01*
X10901356Y-8300840D02*
G75*
G03X10901356Y-8300840I-52000J0D01*
G01*
X10797356Y-8502840D02*
X10901356Y-8606840D01*
X10901356Y-8502840D02*
X10797356Y-8606840D01*
X10901356Y-8554840D02*
G75*
G03X10901356Y-8554840I-52000J0D01*
G01*
X10797356Y-8756840D02*
X10901356Y-8860840D01*
X10901356Y-8756840D02*
X10797356Y-8860840D01*
X10901356Y-8808840D02*
G75*
G03X10901356Y-8808840I-52000J0D01*
G01*
X10797356Y-9010840D02*
X10901356Y-9114840D01*
X10901356Y-9010840D02*
X10797356Y-9114840D01*
X10901356Y-9062840D02*
G75*
G03X10901356Y-9062840I-52000J0D01*
G01*
X10797356Y-9264840D02*
X10901356Y-9368840D01*
X10901356Y-9264840D02*
X10797356Y-9368840D01*
X10901356Y-9316840D02*
G75*
G03X10901356Y-9316840I-52000J0D01*
G01*
X10797356Y-9518840D02*
X10901356Y-9622840D01*
X10901356Y-9518840D02*
X10797356Y-9622840D01*
X10901356Y-9570840D02*
G75*
G03X10901356Y-9570840I-52000J0D01*
G01*
X10797356Y-9772840D02*
X10901356Y-9876840D01*
X10901356Y-9772840D02*
X10797356Y-9876840D01*
X10901356Y-9824840D02*
G75*
G03X10901356Y-9824840I-52000J0D01*
G01*
X10797356Y-10026840D02*
X10901356Y-10130840D01*
X10901356Y-10026840D02*
X10797356Y-10130840D01*
X10901356Y-10078840D02*
G75*
G03X10901356Y-10078840I-52000J0D01*
G01*
X10797356Y-10280840D02*
X10901356Y-10384840D01*
X10901356Y-10280840D02*
X10797356Y-10384840D01*
X10901356Y-10332840D02*
G75*
G03X10901356Y-10332840I-52000J0D01*
G01*
X10797356Y-10534840D02*
X10901356Y-10638840D01*
X10901356Y-10534840D02*
X10797356Y-10638840D01*
X10901356Y-10586840D02*
G75*
G03X10901356Y-10586840I-52000J0D01*
G01*
X10797356Y-10788840D02*
X10901356Y-10892840D01*
X10901356Y-10788840D02*
X10797356Y-10892840D01*
X10901356Y-10840840D02*
G75*
G03X10901356Y-10840840I-52000J0D01*
G01*
X10797356Y-11042840D02*
X10901356Y-11146840D01*
X10901356Y-11042840D02*
X10797356Y-11146840D01*
X10901356Y-11094840D02*
G75*
G03X10901356Y-11094840I-52000J0D01*
G01*
X10797356Y-11296840D02*
X10901356Y-11400840D01*
X10901356Y-11296840D02*
X10797356Y-11400840D01*
X10901356Y-11348840D02*
G75*
G03X10901356Y-11348840I-52000J0D01*
G01*
X10797356Y-11550840D02*
X10901356Y-11654840D01*
X10901356Y-11550840D02*
X10797356Y-11654840D01*
X10901356Y-11602840D02*
G75*
G03X10901356Y-11602840I-52000J0D01*
G01*
X13337356Y-6978840D02*
X13441356Y-7082840D01*
X13441356Y-6978840D02*
X13337356Y-7082840D01*
X13441356Y-7030840D02*
G75*
G03X13441356Y-7030840I-52000J0D01*
G01*
X13337356Y-7232840D02*
X13441356Y-7336840D01*
X13441356Y-7232840D02*
X13337356Y-7336840D01*
X13441356Y-7284840D02*
G75*
G03X13441356Y-7284840I-52000J0D01*
G01*
X13337356Y-7486840D02*
X13441356Y-7590840D01*
X13441356Y-7486840D02*
X13337356Y-7590840D01*
X13441356Y-7538840D02*
G75*
G03X13441356Y-7538840I-52000J0D01*
G01*
X13337356Y-7740840D02*
X13441356Y-7844840D01*
X13441356Y-7740840D02*
X13337356Y-7844840D01*
X13441356Y-7792840D02*
G75*
G03X13441356Y-7792840I-52000J0D01*
G01*
X13337356Y-7994840D02*
X13441356Y-8098840D01*
X13441356Y-7994840D02*
X13337356Y-8098840D01*
X13441356Y-8046840D02*
G75*
G03X13441356Y-8046840I-52000J0D01*
G01*
X13337356Y-8248840D02*
X13441356Y-8352840D01*
X13441356Y-8248840D02*
X13337356Y-8352840D01*
X13441356Y-8300840D02*
G75*
G03X13441356Y-8300840I-52000J0D01*
G01*
X13337356Y-8502840D02*
X13441356Y-8606840D01*
X13441356Y-8502840D02*
X13337356Y-8606840D01*
X13441356Y-8554840D02*
G75*
G03X13441356Y-8554840I-52000J0D01*
G01*
X13337356Y-8756840D02*
X13441356Y-8860840D01*
X13441356Y-8756840D02*
X13337356Y-8860840D01*
X13441356Y-8808840D02*
G75*
G03X13441356Y-8808840I-52000J0D01*
G01*
X13337356Y-9010840D02*
X13441356Y-9114840D01*
X13441356Y-9010840D02*
X13337356Y-9114840D01*
X13441356Y-9062840D02*
G75*
G03X13441356Y-9062840I-52000J0D01*
G01*
X13337356Y-9264840D02*
X13441356Y-9368840D01*
X13441356Y-9264840D02*
X13337356Y-9368840D01*
X13441356Y-9316840D02*
G75*
G03X13441356Y-9316840I-52000J0D01*
G01*
X13337356Y-9518840D02*
X13441356Y-9622840D01*
X13441356Y-9518840D02*
X13337356Y-9622840D01*
X13441356Y-9570840D02*
G75*
G03X13441356Y-9570840I-52000J0D01*
G01*
X13337356Y-9772840D02*
X13441356Y-9876840D01*
X13441356Y-9772840D02*
X13337356Y-9876840D01*
X13441356Y-9824840D02*
G75*
G03X13441356Y-9824840I-52000J0D01*
G01*
X13337356Y-10026840D02*
X13441356Y-10130840D01*
X13441356Y-10026840D02*
X13337356Y-10130840D01*
X13441356Y-10078840D02*
G75*
G03X13441356Y-10078840I-52000J0D01*
G01*
X13337356Y-10280840D02*
X13441356Y-10384840D01*
X13441356Y-10280840D02*
X13337356Y-10384840D01*
X13441356Y-10332840D02*
G75*
G03X13441356Y-10332840I-52000J0D01*
G01*
X13337356Y-10534840D02*
X13441356Y-10638840D01*
X13441356Y-10534840D02*
X13337356Y-10638840D01*
X13441356Y-10586840D02*
G75*
G03X13441356Y-10586840I-52000J0D01*
G01*
X13337356Y-10788840D02*
X13441356Y-10892840D01*
X13441356Y-10788840D02*
X13337356Y-10892840D01*
X13441356Y-10840840D02*
G75*
G03X13441356Y-10840840I-52000J0D01*
G01*
X13337356Y-11042840D02*
X13441356Y-11146840D01*
X13441356Y-11042840D02*
X13337356Y-11146840D01*
X13441356Y-11094840D02*
G75*
G03X13441356Y-11094840I-52000J0D01*
G01*
X13337356Y-11296840D02*
X13441356Y-11400840D01*
X13441356Y-11296840D02*
X13337356Y-11400840D01*
X13441356Y-11348840D02*
G75*
G03X13441356Y-11348840I-52000J0D01*
G01*
X13337356Y-11550840D02*
X13441356Y-11654840D01*
X13441356Y-11550840D02*
X13337356Y-11654840D01*
X13441356Y-11602840D02*
G75*
G03X13441356Y-11602840I-52000J0D01*
G01*
X12802410Y-5430578D02*
X13041410Y-5669578D01*
X13041410Y-5430578D02*
X12802410Y-5669578D01*
X12921910Y-5430578D02*
X12921910Y-5669578D01*
X12802410Y-5550078D02*
X13041410Y-5550078D01*
X11149410Y-6210578D02*
X11494410Y-6555578D01*
X11494410Y-6210578D02*
X11149410Y-6555578D01*
X11443887Y-6505055D02*
X11443887Y-6261101D01*
X11199933Y-6261101D01*
X11199933Y-6505055D01*
X11443887Y-6505055D01*
X12749410Y-11730578D02*
X13094410Y-12075578D01*
X13094410Y-11730578D02*
X12749410Y-12075578D01*
X13043887Y-12025055D02*
X13043887Y-11781101D01*
X12799933Y-11781101D01*
X12799933Y-12025055D01*
X13043887Y-12025055D01*
X16700866Y-4842404D02*
X16800866Y-4942404D01*
X16800866Y-4842404D02*
X16700866Y-4942404D01*
X16750866Y-4942404D02*
X16800866Y-4892404D01*
X16750866Y-4842404D01*
X16700866Y-4892404D01*
X16750866Y-4942404D01*
X19197010Y-10849598D02*
X19297010Y-10949598D01*
X19297010Y-10849598D02*
X19197010Y-10949598D01*
X19247010Y-10949598D02*
X19297010Y-10899598D01*
X19247010Y-10849598D01*
X19197010Y-10899598D01*
X19247010Y-10949598D01*
X16686134Y-12852294D02*
X16786134Y-12952294D01*
X16786134Y-12852294D02*
X16686134Y-12952294D01*
X16736134Y-12952294D02*
X16786134Y-12902294D01*
X16736134Y-12852294D01*
X16686134Y-12902294D01*
X16736134Y-12952294D01*
X19207170Y-6846558D02*
X19307170Y-6946558D01*
X19307170Y-6846558D02*
X19207170Y-6946558D01*
X19257170Y-6946558D02*
X19307170Y-6896558D01*
X19257170Y-6846558D01*
X19207170Y-6896558D01*
X19257170Y-6946558D01*
X19680794Y-8861446D02*
X19780794Y-8961446D01*
X19780794Y-8861446D02*
X19680794Y-8961446D01*
X19730794Y-8961446D02*
X19780794Y-8911446D01*
X19730794Y-8861446D01*
X19680794Y-8911446D01*
X19730794Y-8961446D01*
X14224000Y-11993100D02*
X14224000Y-12213100D01*
X14114000Y-12103100D02*
X14334000Y-12103100D01*
X14334000Y-12103100D02*
G75*
G03X14334000Y-12103100I-110000J0D01*
G01*
X15974060Y-11993100D02*
X15974060Y-12213100D01*
X15864060Y-12103100D02*
X16084060Y-12103100D01*
X16084060Y-12103100D02*
G75*
G03X16084060Y-12103100I-110000J0D01*
G01*
X15986760Y-6067280D02*
X15986760Y-6287280D01*
X15876760Y-6177280D02*
X16096760Y-6177280D01*
X16096760Y-6177280D02*
G75*
G03X16096760Y-6177280I-110000J0D01*
G01*
X14232890Y-6067280D02*
X14232890Y-6287280D01*
X14122890Y-6177280D02*
X14342890Y-6177280D01*
X14342890Y-6177280D02*
G75*
G03X14342890Y-6177280I-110000J0D01*
G01*
X17304255Y-5035793D02*
X17304255Y-4859015D01*
X17127477Y-4859015D01*
X17127477Y-5035793D01*
X17304255Y-5035793D01*
X17340866Y-4947404D02*
G75*
G03X17340866Y-4947404I-125000J0D01*
G01*
X17304255Y-5415793D02*
X17304255Y-5239015D01*
X17127477Y-5239015D01*
X17127477Y-5415793D01*
X17304255Y-5415793D01*
X17340866Y-5327404D02*
G75*
G03X17340866Y-5327404I-125000J0D01*
G01*
X19800399Y-11042987D02*
X19800399Y-10866209D01*
X19623621Y-10866209D01*
X19623621Y-11042987D01*
X19800399Y-11042987D01*
X19837010Y-10954598D02*
G75*
G03X19837010Y-10954598I-125000J0D01*
G01*
X19800399Y-11422987D02*
X19800399Y-11246209D01*
X19623621Y-11246209D01*
X19623621Y-11422987D01*
X19800399Y-11422987D01*
X19837010Y-11334598D02*
G75*
G03X19837010Y-11334598I-125000J0D01*
G01*
X17289523Y-13045683D02*
X17289523Y-12868905D01*
X17112745Y-12868905D01*
X17112745Y-13045683D01*
X17289523Y-13045683D01*
X17326134Y-12957294D02*
G75*
G03X17326134Y-12957294I-125000J0D01*
G01*
X17289523Y-13425683D02*
X17289523Y-13248905D01*
X17112745Y-13248905D01*
X17112745Y-13425683D01*
X17289523Y-13425683D01*
X17326134Y-13337294D02*
G75*
G03X17326134Y-13337294I-125000J0D01*
G01*
X19810559Y-7039947D02*
X19810559Y-6863169D01*
X19633781Y-6863169D01*
X19633781Y-7039947D01*
X19810559Y-7039947D01*
X19847170Y-6951558D02*
G75*
G03X19847170Y-6951558I-125000J0D01*
G01*
X19810559Y-7419947D02*
X19810559Y-7243169D01*
X19633781Y-7243169D01*
X19633781Y-7419947D01*
X19810559Y-7419947D01*
X19847170Y-7331558D02*
G75*
G03X19847170Y-7331558I-125000J0D01*
G01*
X20284183Y-9054835D02*
X20284183Y-8878057D01*
X20107405Y-8878057D01*
X20107405Y-9054835D01*
X20284183Y-9054835D01*
X20320794Y-8966446D02*
G75*
G03X20320794Y-8966446I-125000J0D01*
G01*
X20284183Y-9434835D02*
X20284183Y-9258057D01*
X20107405Y-9258057D01*
X20107405Y-9434835D01*
X20284183Y-9434835D01*
X20320794Y-9346446D02*
G75*
G03X20320794Y-9346446I-125000J0D01*
G01*
D12*
X9692889Y-15052711D02*
X9692889Y-14752711D01*
X9764318Y-14752711D01*
X9807175Y-14766996D01*
X9835747Y-14795568D01*
X9850032Y-14824139D01*
X9864318Y-14881282D01*
X9864318Y-14924139D01*
X9850032Y-14981282D01*
X9835747Y-15009853D01*
X9807175Y-15038425D01*
X9764318Y-15052711D01*
X9692889Y-15052711D01*
X9992889Y-15052711D02*
X9992889Y-14852711D01*
X9992889Y-14909853D02*
X10007175Y-14881282D01*
X10021461Y-14866996D01*
X10050032Y-14852711D01*
X10078604Y-14852711D01*
X10178604Y-15052711D02*
X10178604Y-14852711D01*
X10178604Y-14752711D02*
X10164318Y-14766996D01*
X10178604Y-14781282D01*
X10192889Y-14766996D01*
X10178604Y-14752711D01*
X10178604Y-14781282D01*
X10364318Y-15052711D02*
X10335747Y-15038425D01*
X10321461Y-15009853D01*
X10321461Y-14752711D01*
X10521461Y-15052711D02*
X10492889Y-15038425D01*
X10478604Y-15009853D01*
X10478604Y-14752711D01*
X10864318Y-15052711D02*
X10864318Y-14752711D01*
X10964318Y-14966996D01*
X11064318Y-14752711D01*
X11064318Y-15052711D01*
X11335747Y-15052711D02*
X11335747Y-14895568D01*
X11321461Y-14866996D01*
X11292889Y-14852711D01*
X11235747Y-14852711D01*
X11207175Y-14866996D01*
X11335747Y-15038425D02*
X11307175Y-15052711D01*
X11235747Y-15052711D01*
X11207175Y-15038425D01*
X11192889Y-15009853D01*
X11192889Y-14981282D01*
X11207175Y-14952711D01*
X11235747Y-14938425D01*
X11307175Y-14938425D01*
X11335747Y-14924139D01*
X11478604Y-14852711D02*
X11478604Y-15152711D01*
X11478604Y-14866996D02*
X11507175Y-14852711D01*
X11564318Y-14852711D01*
X11592889Y-14866996D01*
X11607175Y-14881282D01*
X11621461Y-14909853D01*
X11621461Y-14995568D01*
X11607175Y-15024139D01*
X11592889Y-15038425D01*
X11564318Y-15052711D01*
X11507175Y-15052711D01*
X11478604Y-15038425D01*
X11750032Y-15024139D02*
X11764318Y-15038425D01*
X11750032Y-15052711D01*
X11735747Y-15038425D01*
X11750032Y-15024139D01*
X11750032Y-15052711D01*
X11750032Y-14866996D02*
X11764318Y-14881282D01*
X11750032Y-14895568D01*
X11735747Y-14881282D01*
X11750032Y-14866996D01*
X11750032Y-14895568D01*
X9366461Y-15526996D02*
X9406461Y-15566996D01*
X9406461Y-15526996D02*
X9366461Y-15566996D01*
X9750032Y-15382711D02*
X9778604Y-15382711D01*
X9807175Y-15396996D01*
X9821461Y-15411282D01*
X9835747Y-15439853D01*
X9850032Y-15496996D01*
X9850032Y-15568425D01*
X9835747Y-15625568D01*
X9821461Y-15654139D01*
X9807175Y-15668425D01*
X9778604Y-15682711D01*
X9750032Y-15682711D01*
X9721461Y-15668425D01*
X9707175Y-15654139D01*
X9692889Y-15625568D01*
X9678604Y-15568425D01*
X9678604Y-15496996D01*
X9692889Y-15439853D01*
X9707175Y-15411282D01*
X9721461Y-15396996D01*
X9750032Y-15382711D01*
X9978604Y-15654139D02*
X9992889Y-15668425D01*
X9978604Y-15682711D01*
X9964318Y-15668425D01*
X9978604Y-15654139D01*
X9978604Y-15682711D01*
X10250032Y-15482711D02*
X10250032Y-15682711D01*
X10178604Y-15368425D02*
X10107175Y-15582711D01*
X10292889Y-15582711D01*
X10464318Y-15382711D02*
X10492889Y-15382711D01*
X10521461Y-15396996D01*
X10535747Y-15411282D01*
X10550032Y-15439853D01*
X10564318Y-15496996D01*
X10564318Y-15568425D01*
X10550032Y-15625568D01*
X10535747Y-15654139D01*
X10521461Y-15668425D01*
X10492889Y-15682711D01*
X10464318Y-15682711D01*
X10435747Y-15668425D01*
X10421461Y-15654139D01*
X10407175Y-15625568D01*
X10392889Y-15568425D01*
X10392889Y-15496996D01*
X10407175Y-15439853D01*
X10421461Y-15411282D01*
X10435747Y-15396996D01*
X10464318Y-15382711D01*
X10692889Y-15682711D02*
X10692889Y-15482711D01*
X10692889Y-15511282D02*
X10707175Y-15496996D01*
X10735747Y-15482711D01*
X10778604Y-15482711D01*
X10807175Y-15496996D01*
X10821461Y-15525568D01*
X10821461Y-15682711D01*
X10821461Y-15525568D02*
X10835747Y-15496996D01*
X10864318Y-15482711D01*
X10907175Y-15482711D01*
X10935747Y-15496996D01*
X10950032Y-15525568D01*
X10950032Y-15682711D01*
X11092889Y-15682711D02*
X11092889Y-15482711D01*
X11092889Y-15511282D02*
X11107175Y-15496996D01*
X11135747Y-15482711D01*
X11178604Y-15482711D01*
X11207175Y-15496996D01*
X11221461Y-15525568D01*
X11221461Y-15682711D01*
X11221461Y-15525568D02*
X11235747Y-15496996D01*
X11264318Y-15482711D01*
X11307175Y-15482711D01*
X11335747Y-15496996D01*
X11350032Y-15525568D01*
X11350032Y-15682711D01*
X11935747Y-15368425D02*
X11678604Y-15754139D01*
X12321461Y-15382711D02*
X12350032Y-15382711D01*
X12378604Y-15396996D01*
X12392889Y-15411282D01*
X12407175Y-15439853D01*
X12421461Y-15496996D01*
X12421461Y-15568425D01*
X12407175Y-15625568D01*
X12392889Y-15654139D01*
X12378604Y-15668425D01*
X12350032Y-15682711D01*
X12321461Y-15682711D01*
X12292889Y-15668425D01*
X12278604Y-15654139D01*
X12264318Y-15625568D01*
X12250032Y-15568425D01*
X12250032Y-15496996D01*
X12264318Y-15439853D01*
X12278604Y-15411282D01*
X12292889Y-15396996D01*
X12321461Y-15382711D01*
X12550032Y-15654139D02*
X12564318Y-15668425D01*
X12550032Y-15682711D01*
X12535747Y-15668425D01*
X12550032Y-15654139D01*
X12550032Y-15682711D01*
X12750032Y-15382711D02*
X12778604Y-15382711D01*
X12807175Y-15396996D01*
X12821461Y-15411282D01*
X12835747Y-15439853D01*
X12850032Y-15496996D01*
X12850032Y-15568425D01*
X12835747Y-15625568D01*
X12821461Y-15654139D01*
X12807175Y-15668425D01*
X12778604Y-15682711D01*
X12750032Y-15682711D01*
X12721461Y-15668425D01*
X12707175Y-15654139D01*
X12692889Y-15625568D01*
X12678604Y-15568425D01*
X12678604Y-15496996D01*
X12692889Y-15439853D01*
X12707175Y-15411282D01*
X12721461Y-15396996D01*
X12750032Y-15382711D01*
X13135747Y-15682711D02*
X12964318Y-15682711D01*
X13050032Y-15682711D02*
X13050032Y-15382711D01*
X13021461Y-15425568D01*
X12992889Y-15454139D01*
X12964318Y-15468425D01*
X13392889Y-15382711D02*
X13335747Y-15382711D01*
X13307175Y-15396996D01*
X13292889Y-15411282D01*
X13264318Y-15454139D01*
X13250032Y-15511282D01*
X13250032Y-15625568D01*
X13264318Y-15654139D01*
X13278604Y-15668425D01*
X13307175Y-15682711D01*
X13364318Y-15682711D01*
X13392889Y-15668425D01*
X13407175Y-15654139D01*
X13421461Y-15625568D01*
X13421461Y-15554139D01*
X13407175Y-15525568D01*
X13392889Y-15511282D01*
X13364318Y-15496996D01*
X13307175Y-15496996D01*
X13278604Y-15511282D01*
X13264318Y-15525568D01*
X13250032Y-15554139D01*
X13535747Y-15382711D02*
X13535747Y-15439853D01*
X13650032Y-15382711D02*
X13650032Y-15439853D01*
X14092889Y-15796996D02*
X14078604Y-15782711D01*
X14050032Y-15739853D01*
X14035747Y-15711282D01*
X14021461Y-15668425D01*
X14007175Y-15596996D01*
X14007175Y-15539853D01*
X14021461Y-15468425D01*
X14035747Y-15425568D01*
X14050032Y-15396996D01*
X14078604Y-15354139D01*
X14092889Y-15339853D01*
X14178604Y-15382711D02*
X14378604Y-15382711D01*
X14250032Y-15682711D01*
X14621461Y-15382711D02*
X14564318Y-15382711D01*
X14535747Y-15396996D01*
X14521461Y-15411282D01*
X14492889Y-15454139D01*
X14478604Y-15511282D01*
X14478604Y-15625568D01*
X14492889Y-15654139D01*
X14507175Y-15668425D01*
X14535747Y-15682711D01*
X14592889Y-15682711D01*
X14621461Y-15668425D01*
X14635747Y-15654139D01*
X14650032Y-15625568D01*
X14650032Y-15554139D01*
X14635747Y-15525568D01*
X14621461Y-15511282D01*
X14592889Y-15496996D01*
X14535747Y-15496996D01*
X14507175Y-15511282D01*
X14492889Y-15525568D01*
X14478604Y-15554139D01*
X15007175Y-15682711D02*
X15007175Y-15382711D01*
X15135747Y-15682711D02*
X15135747Y-15525568D01*
X15121461Y-15496996D01*
X15092889Y-15482711D01*
X15050032Y-15482711D01*
X15021461Y-15496996D01*
X15007175Y-15511282D01*
X15321461Y-15682711D02*
X15292889Y-15668425D01*
X15278604Y-15654139D01*
X15264318Y-15625568D01*
X15264318Y-15539853D01*
X15278604Y-15511282D01*
X15292889Y-15496996D01*
X15321461Y-15482711D01*
X15364318Y-15482711D01*
X15392889Y-15496996D01*
X15407175Y-15511282D01*
X15421461Y-15539853D01*
X15421461Y-15625568D01*
X15407175Y-15654139D01*
X15392889Y-15668425D01*
X15364318Y-15682711D01*
X15321461Y-15682711D01*
X15592889Y-15682711D02*
X15564318Y-15668425D01*
X15550032Y-15639853D01*
X15550032Y-15382711D01*
X15821461Y-15668425D02*
X15792889Y-15682711D01*
X15735747Y-15682711D01*
X15707175Y-15668425D01*
X15692889Y-15639853D01*
X15692889Y-15525568D01*
X15707175Y-15496996D01*
X15735747Y-15482711D01*
X15792889Y-15482711D01*
X15821461Y-15496996D01*
X15835747Y-15525568D01*
X15835747Y-15554139D01*
X15692889Y-15582711D01*
X15950032Y-15668425D02*
X15978604Y-15682711D01*
X16035747Y-15682711D01*
X16064318Y-15668425D01*
X16078604Y-15639853D01*
X16078604Y-15625568D01*
X16064318Y-15596996D01*
X16035747Y-15582711D01*
X15992889Y-15582711D01*
X15964318Y-15568425D01*
X15950032Y-15539853D01*
X15950032Y-15525568D01*
X15964318Y-15496996D01*
X15992889Y-15482711D01*
X16035747Y-15482711D01*
X16064318Y-15496996D01*
X16178604Y-15796996D02*
X16192889Y-15782711D01*
X16221461Y-15739853D01*
X16235747Y-15711282D01*
X16250032Y-15668425D01*
X16264318Y-15596996D01*
X16264318Y-15539853D01*
X16250032Y-15468425D01*
X16235747Y-15425568D01*
X16221461Y-15396996D01*
X16192889Y-15354139D01*
X16178604Y-15339853D01*
X9406461Y-15942996D02*
G75*
G03X9406461Y-15942996I-35500J0D01*
G01*
X9750032Y-15778711D02*
X9778604Y-15778711D01*
X9807175Y-15792996D01*
X9821461Y-15807282D01*
X9835747Y-15835853D01*
X9850032Y-15892996D01*
X9850032Y-15964425D01*
X9835747Y-16021568D01*
X9821461Y-16050139D01*
X9807175Y-16064425D01*
X9778604Y-16078711D01*
X9750032Y-16078711D01*
X9721461Y-16064425D01*
X9707175Y-16050139D01*
X9692889Y-16021568D01*
X9678604Y-15964425D01*
X9678604Y-15892996D01*
X9692889Y-15835853D01*
X9707175Y-15807282D01*
X9721461Y-15792996D01*
X9750032Y-15778711D01*
X9978604Y-16050139D02*
X9992889Y-16064425D01*
X9978604Y-16078711D01*
X9964318Y-16064425D01*
X9978604Y-16050139D01*
X9978604Y-16078711D01*
X10092889Y-15778711D02*
X10292889Y-15778711D01*
X10164318Y-16078711D01*
X10564318Y-16078711D02*
X10392889Y-16078711D01*
X10478604Y-16078711D02*
X10478604Y-15778711D01*
X10450032Y-15821568D01*
X10421461Y-15850139D01*
X10392889Y-15864425D01*
X10692889Y-16078711D02*
X10692889Y-15878711D01*
X10692889Y-15907282D02*
X10707175Y-15892996D01*
X10735747Y-15878711D01*
X10778604Y-15878711D01*
X10807175Y-15892996D01*
X10821461Y-15921568D01*
X10821461Y-16078711D01*
X10821461Y-15921568D02*
X10835747Y-15892996D01*
X10864318Y-15878711D01*
X10907175Y-15878711D01*
X10935747Y-15892996D01*
X10950032Y-15921568D01*
X10950032Y-16078711D01*
X11092889Y-16078711D02*
X11092889Y-15878711D01*
X11092889Y-15907282D02*
X11107175Y-15892996D01*
X11135747Y-15878711D01*
X11178604Y-15878711D01*
X11207175Y-15892996D01*
X11221461Y-15921568D01*
X11221461Y-16078711D01*
X11221461Y-15921568D02*
X11235747Y-15892996D01*
X11264318Y-15878711D01*
X11307175Y-15878711D01*
X11335747Y-15892996D01*
X11350032Y-15921568D01*
X11350032Y-16078711D01*
X11935747Y-15764425D02*
X11678604Y-16150139D01*
X12321461Y-15778711D02*
X12350032Y-15778711D01*
X12378604Y-15792996D01*
X12392889Y-15807282D01*
X12407175Y-15835853D01*
X12421461Y-15892996D01*
X12421461Y-15964425D01*
X12407175Y-16021568D01*
X12392889Y-16050139D01*
X12378604Y-16064425D01*
X12350032Y-16078711D01*
X12321461Y-16078711D01*
X12292889Y-16064425D01*
X12278604Y-16050139D01*
X12264318Y-16021568D01*
X12250032Y-15964425D01*
X12250032Y-15892996D01*
X12264318Y-15835853D01*
X12278604Y-15807282D01*
X12292889Y-15792996D01*
X12321461Y-15778711D01*
X12550032Y-16050139D02*
X12564318Y-16064425D01*
X12550032Y-16078711D01*
X12535747Y-16064425D01*
X12550032Y-16050139D01*
X12550032Y-16078711D01*
X12750032Y-15778711D02*
X12778604Y-15778711D01*
X12807175Y-15792996D01*
X12821461Y-15807282D01*
X12835747Y-15835853D01*
X12850032Y-15892996D01*
X12850032Y-15964425D01*
X12835747Y-16021568D01*
X12821461Y-16050139D01*
X12807175Y-16064425D01*
X12778604Y-16078711D01*
X12750032Y-16078711D01*
X12721461Y-16064425D01*
X12707175Y-16050139D01*
X12692889Y-16021568D01*
X12678604Y-15964425D01*
X12678604Y-15892996D01*
X12692889Y-15835853D01*
X12707175Y-15807282D01*
X12721461Y-15792996D01*
X12750032Y-15778711D01*
X12964318Y-15807282D02*
X12978604Y-15792996D01*
X13007175Y-15778711D01*
X13078604Y-15778711D01*
X13107175Y-15792996D01*
X13121461Y-15807282D01*
X13135747Y-15835853D01*
X13135747Y-15864425D01*
X13121461Y-15907282D01*
X12950032Y-16078711D01*
X13135747Y-16078711D01*
X13307175Y-15907282D02*
X13278604Y-15892996D01*
X13264318Y-15878711D01*
X13250032Y-15850139D01*
X13250032Y-15835853D01*
X13264318Y-15807282D01*
X13278604Y-15792996D01*
X13307175Y-15778711D01*
X13364318Y-15778711D01*
X13392889Y-15792996D01*
X13407175Y-15807282D01*
X13421461Y-15835853D01*
X13421461Y-15850139D01*
X13407175Y-15878711D01*
X13392889Y-15892996D01*
X13364318Y-15907282D01*
X13307175Y-15907282D01*
X13278604Y-15921568D01*
X13264318Y-15935853D01*
X13250032Y-15964425D01*
X13250032Y-16021568D01*
X13264318Y-16050139D01*
X13278604Y-16064425D01*
X13307175Y-16078711D01*
X13364318Y-16078711D01*
X13392889Y-16064425D01*
X13407175Y-16050139D01*
X13421461Y-16021568D01*
X13421461Y-15964425D01*
X13407175Y-15935853D01*
X13392889Y-15921568D01*
X13364318Y-15907282D01*
X13535747Y-15778711D02*
X13535747Y-15835853D01*
X13650032Y-15778711D02*
X13650032Y-15835853D01*
X14092889Y-16192996D02*
X14078604Y-16178711D01*
X14050032Y-16135853D01*
X14035747Y-16107282D01*
X14021461Y-16064425D01*
X14007175Y-15992996D01*
X14007175Y-15935853D01*
X14021461Y-15864425D01*
X14035747Y-15821568D01*
X14050032Y-15792996D01*
X14078604Y-15750139D01*
X14092889Y-15735853D01*
X14335747Y-15778711D02*
X14278604Y-15778711D01*
X14250032Y-15792996D01*
X14235747Y-15807282D01*
X14207175Y-15850139D01*
X14192889Y-15907282D01*
X14192889Y-16021568D01*
X14207175Y-16050139D01*
X14221461Y-16064425D01*
X14250032Y-16078711D01*
X14307175Y-16078711D01*
X14335747Y-16064425D01*
X14350032Y-16050139D01*
X14364318Y-16021568D01*
X14364318Y-15950139D01*
X14350032Y-15921568D01*
X14335747Y-15907282D01*
X14307175Y-15892996D01*
X14250032Y-15892996D01*
X14221461Y-15907282D01*
X14207175Y-15921568D01*
X14192889Y-15950139D01*
X14721461Y-16078711D02*
X14721461Y-15778711D01*
X14850032Y-16078711D02*
X14850032Y-15921568D01*
X14835747Y-15892996D01*
X14807175Y-15878711D01*
X14764318Y-15878711D01*
X14735747Y-15892996D01*
X14721461Y-15907282D01*
X15035747Y-16078711D02*
X15007175Y-16064425D01*
X14992889Y-16050139D01*
X14978604Y-16021568D01*
X14978604Y-15935853D01*
X14992889Y-15907282D01*
X15007175Y-15892996D01*
X15035747Y-15878711D01*
X15078604Y-15878711D01*
X15107175Y-15892996D01*
X15121461Y-15907282D01*
X15135747Y-15935853D01*
X15135747Y-16021568D01*
X15121461Y-16050139D01*
X15107175Y-16064425D01*
X15078604Y-16078711D01*
X15035747Y-16078711D01*
X15307175Y-16078711D02*
X15278604Y-16064425D01*
X15264318Y-16035853D01*
X15264318Y-15778711D01*
X15535747Y-16064425D02*
X15507175Y-16078711D01*
X15450032Y-16078711D01*
X15421461Y-16064425D01*
X15407175Y-16035853D01*
X15407175Y-15921568D01*
X15421461Y-15892996D01*
X15450032Y-15878711D01*
X15507175Y-15878711D01*
X15535747Y-15892996D01*
X15550032Y-15921568D01*
X15550032Y-15950139D01*
X15407175Y-15978711D01*
X15664318Y-16064425D02*
X15692889Y-16078711D01*
X15750032Y-16078711D01*
X15778604Y-16064425D01*
X15792889Y-16035853D01*
X15792889Y-16021568D01*
X15778604Y-15992996D01*
X15750032Y-15978711D01*
X15707175Y-15978711D01*
X15678604Y-15964425D01*
X15664318Y-15935853D01*
X15664318Y-15921568D01*
X15678604Y-15892996D01*
X15707175Y-15878711D01*
X15750032Y-15878711D01*
X15778604Y-15892996D01*
X15892889Y-16192996D02*
X15907175Y-16178711D01*
X15935747Y-16135853D01*
X15950032Y-16107282D01*
X15964318Y-16064425D01*
X15978604Y-15992996D01*
X15978604Y-15935853D01*
X15964318Y-15864425D01*
X15950032Y-15821568D01*
X15935747Y-15792996D01*
X15907175Y-15750139D01*
X15892889Y-15735853D01*
X9368361Y-16300896D02*
X9368361Y-16377096D01*
X9330261Y-16338996D02*
X9406461Y-16338996D01*
X9750032Y-16174711D02*
X9778604Y-16174711D01*
X9807175Y-16188996D01*
X9821461Y-16203282D01*
X9835747Y-16231853D01*
X9850032Y-16288996D01*
X9850032Y-16360425D01*
X9835747Y-16417568D01*
X9821461Y-16446139D01*
X9807175Y-16460425D01*
X9778604Y-16474711D01*
X9750032Y-16474711D01*
X9721461Y-16460425D01*
X9707175Y-16446139D01*
X9692889Y-16417568D01*
X9678604Y-16360425D01*
X9678604Y-16288996D01*
X9692889Y-16231853D01*
X9707175Y-16203282D01*
X9721461Y-16188996D01*
X9750032Y-16174711D01*
X9978604Y-16446139D02*
X9992889Y-16460425D01*
X9978604Y-16474711D01*
X9964318Y-16460425D01*
X9978604Y-16446139D01*
X9978604Y-16474711D01*
X10092889Y-16174711D02*
X10292889Y-16174711D01*
X10164318Y-16474711D01*
X10535747Y-16174711D02*
X10478604Y-16174711D01*
X10450032Y-16188996D01*
X10435747Y-16203282D01*
X10407175Y-16246139D01*
X10392889Y-16303282D01*
X10392889Y-16417568D01*
X10407175Y-16446139D01*
X10421461Y-16460425D01*
X10450032Y-16474711D01*
X10507175Y-16474711D01*
X10535747Y-16460425D01*
X10550032Y-16446139D01*
X10564318Y-16417568D01*
X10564318Y-16346139D01*
X10550032Y-16317568D01*
X10535747Y-16303282D01*
X10507175Y-16288996D01*
X10450032Y-16288996D01*
X10421461Y-16303282D01*
X10407175Y-16317568D01*
X10392889Y-16346139D01*
X10692889Y-16474711D02*
X10692889Y-16274711D01*
X10692889Y-16303282D02*
X10707175Y-16288996D01*
X10735747Y-16274711D01*
X10778604Y-16274711D01*
X10807175Y-16288996D01*
X10821461Y-16317568D01*
X10821461Y-16474711D01*
X10821461Y-16317568D02*
X10835747Y-16288996D01*
X10864318Y-16274711D01*
X10907175Y-16274711D01*
X10935747Y-16288996D01*
X10950032Y-16317568D01*
X10950032Y-16474711D01*
X11092889Y-16474711D02*
X11092889Y-16274711D01*
X11092889Y-16303282D02*
X11107175Y-16288996D01*
X11135747Y-16274711D01*
X11178604Y-16274711D01*
X11207175Y-16288996D01*
X11221461Y-16317568D01*
X11221461Y-16474711D01*
X11221461Y-16317568D02*
X11235747Y-16288996D01*
X11264318Y-16274711D01*
X11307175Y-16274711D01*
X11335747Y-16288996D01*
X11350032Y-16317568D01*
X11350032Y-16474711D01*
X11935747Y-16160425D02*
X11678604Y-16546139D01*
X12321461Y-16174711D02*
X12350032Y-16174711D01*
X12378604Y-16188996D01*
X12392889Y-16203282D01*
X12407175Y-16231853D01*
X12421461Y-16288996D01*
X12421461Y-16360425D01*
X12407175Y-16417568D01*
X12392889Y-16446139D01*
X12378604Y-16460425D01*
X12350032Y-16474711D01*
X12321461Y-16474711D01*
X12292889Y-16460425D01*
X12278604Y-16446139D01*
X12264318Y-16417568D01*
X12250032Y-16360425D01*
X12250032Y-16288996D01*
X12264318Y-16231853D01*
X12278604Y-16203282D01*
X12292889Y-16188996D01*
X12321461Y-16174711D01*
X12550032Y-16446139D02*
X12564318Y-16460425D01*
X12550032Y-16474711D01*
X12535747Y-16460425D01*
X12550032Y-16446139D01*
X12550032Y-16474711D01*
X12750032Y-16174711D02*
X12778604Y-16174711D01*
X12807175Y-16188996D01*
X12821461Y-16203282D01*
X12835747Y-16231853D01*
X12850032Y-16288996D01*
X12850032Y-16360425D01*
X12835747Y-16417568D01*
X12821461Y-16446139D01*
X12807175Y-16460425D01*
X12778604Y-16474711D01*
X12750032Y-16474711D01*
X12721461Y-16460425D01*
X12707175Y-16446139D01*
X12692889Y-16417568D01*
X12678604Y-16360425D01*
X12678604Y-16288996D01*
X12692889Y-16231853D01*
X12707175Y-16203282D01*
X12721461Y-16188996D01*
X12750032Y-16174711D01*
X12950032Y-16174711D02*
X13135747Y-16174711D01*
X13035747Y-16288996D01*
X13078604Y-16288996D01*
X13107175Y-16303282D01*
X13121461Y-16317568D01*
X13135747Y-16346139D01*
X13135747Y-16417568D01*
X13121461Y-16446139D01*
X13107175Y-16460425D01*
X13078604Y-16474711D01*
X12992889Y-16474711D01*
X12964318Y-16460425D01*
X12950032Y-16446139D01*
X13321461Y-16174711D02*
X13350032Y-16174711D01*
X13378604Y-16188996D01*
X13392889Y-16203282D01*
X13407175Y-16231853D01*
X13421461Y-16288996D01*
X13421461Y-16360425D01*
X13407175Y-16417568D01*
X13392889Y-16446139D01*
X13378604Y-16460425D01*
X13350032Y-16474711D01*
X13321461Y-16474711D01*
X13292889Y-16460425D01*
X13278604Y-16446139D01*
X13264318Y-16417568D01*
X13250032Y-16360425D01*
X13250032Y-16288996D01*
X13264318Y-16231853D01*
X13278604Y-16203282D01*
X13292889Y-16188996D01*
X13321461Y-16174711D01*
X13535747Y-16174711D02*
X13535747Y-16231853D01*
X13650032Y-16174711D02*
X13650032Y-16231853D01*
X14092889Y-16588996D02*
X14078604Y-16574711D01*
X14050032Y-16531853D01*
X14035747Y-16503282D01*
X14021461Y-16460425D01*
X14007175Y-16388996D01*
X14007175Y-16331853D01*
X14021461Y-16260425D01*
X14035747Y-16217568D01*
X14050032Y-16188996D01*
X14078604Y-16146139D01*
X14092889Y-16131853D01*
X14192889Y-16203282D02*
X14207175Y-16188996D01*
X14235747Y-16174711D01*
X14307175Y-16174711D01*
X14335747Y-16188996D01*
X14350032Y-16203282D01*
X14364318Y-16231853D01*
X14364318Y-16260425D01*
X14350032Y-16303282D01*
X14178604Y-16474711D01*
X14364318Y-16474711D01*
X14550032Y-16174711D02*
X14578604Y-16174711D01*
X14607175Y-16188996D01*
X14621461Y-16203282D01*
X14635747Y-16231853D01*
X14650032Y-16288996D01*
X14650032Y-16360425D01*
X14635747Y-16417568D01*
X14621461Y-16446139D01*
X14607175Y-16460425D01*
X14578604Y-16474711D01*
X14550032Y-16474711D01*
X14521461Y-16460425D01*
X14507175Y-16446139D01*
X14492889Y-16417568D01*
X14478604Y-16360425D01*
X14478604Y-16288996D01*
X14492889Y-16231853D01*
X14507175Y-16203282D01*
X14521461Y-16188996D01*
X14550032Y-16174711D01*
X15007175Y-16474711D02*
X15007175Y-16174711D01*
X15135747Y-16474711D02*
X15135747Y-16317568D01*
X15121461Y-16288996D01*
X15092889Y-16274711D01*
X15050032Y-16274711D01*
X15021461Y-16288996D01*
X15007175Y-16303282D01*
X15321461Y-16474711D02*
X15292889Y-16460425D01*
X15278604Y-16446139D01*
X15264318Y-16417568D01*
X15264318Y-16331853D01*
X15278604Y-16303282D01*
X15292889Y-16288996D01*
X15321461Y-16274711D01*
X15364318Y-16274711D01*
X15392889Y-16288996D01*
X15407175Y-16303282D01*
X15421461Y-16331853D01*
X15421461Y-16417568D01*
X15407175Y-16446139D01*
X15392889Y-16460425D01*
X15364318Y-16474711D01*
X15321461Y-16474711D01*
X15592889Y-16474711D02*
X15564318Y-16460425D01*
X15550032Y-16431853D01*
X15550032Y-16174711D01*
X15821461Y-16460425D02*
X15792889Y-16474711D01*
X15735747Y-16474711D01*
X15707175Y-16460425D01*
X15692889Y-16431853D01*
X15692889Y-16317568D01*
X15707175Y-16288996D01*
X15735747Y-16274711D01*
X15792889Y-16274711D01*
X15821461Y-16288996D01*
X15835747Y-16317568D01*
X15835747Y-16346139D01*
X15692889Y-16374711D01*
X15950032Y-16460425D02*
X15978604Y-16474711D01*
X16035747Y-16474711D01*
X16064318Y-16460425D01*
X16078604Y-16431853D01*
X16078604Y-16417568D01*
X16064318Y-16388996D01*
X16035747Y-16374711D01*
X15992889Y-16374711D01*
X15964318Y-16360425D01*
X15950032Y-16331853D01*
X15950032Y-16317568D01*
X15964318Y-16288996D01*
X15992889Y-16274711D01*
X16035747Y-16274711D01*
X16064318Y-16288996D01*
X16178604Y-16588996D02*
X16192889Y-16574711D01*
X16221461Y-16531853D01*
X16235747Y-16503282D01*
X16250032Y-16460425D01*
X16264318Y-16388996D01*
X16264318Y-16331853D01*
X16250032Y-16260425D01*
X16235747Y-16217568D01*
X16221461Y-16188996D01*
X16192889Y-16146139D01*
X16178604Y-16131853D01*
X9394745Y-16763281D02*
X9394745Y-16706712D01*
X9338176Y-16706712D01*
X9338176Y-16763281D01*
X9394745Y-16763281D01*
X9750032Y-16570711D02*
X9778604Y-16570711D01*
X9807175Y-16584996D01*
X9821461Y-16599282D01*
X9835747Y-16627853D01*
X9850032Y-16684996D01*
X9850032Y-16756425D01*
X9835747Y-16813568D01*
X9821461Y-16842139D01*
X9807175Y-16856425D01*
X9778604Y-16870711D01*
X9750032Y-16870711D01*
X9721461Y-16856425D01*
X9707175Y-16842139D01*
X9692889Y-16813568D01*
X9678604Y-16756425D01*
X9678604Y-16684996D01*
X9692889Y-16627853D01*
X9707175Y-16599282D01*
X9721461Y-16584996D01*
X9750032Y-16570711D01*
X9978604Y-16842139D02*
X9992889Y-16856425D01*
X9978604Y-16870711D01*
X9964318Y-16856425D01*
X9978604Y-16842139D01*
X9978604Y-16870711D01*
X10164318Y-16699282D02*
X10135747Y-16684996D01*
X10121461Y-16670711D01*
X10107175Y-16642139D01*
X10107175Y-16627853D01*
X10121461Y-16599282D01*
X10135747Y-16584996D01*
X10164318Y-16570711D01*
X10221461Y-16570711D01*
X10250032Y-16584996D01*
X10264318Y-16599282D01*
X10278604Y-16627853D01*
X10278604Y-16642139D01*
X10264318Y-16670711D01*
X10250032Y-16684996D01*
X10221461Y-16699282D01*
X10164318Y-16699282D01*
X10135747Y-16713568D01*
X10121461Y-16727853D01*
X10107175Y-16756425D01*
X10107175Y-16813568D01*
X10121461Y-16842139D01*
X10135747Y-16856425D01*
X10164318Y-16870711D01*
X10221461Y-16870711D01*
X10250032Y-16856425D01*
X10264318Y-16842139D01*
X10278604Y-16813568D01*
X10278604Y-16756425D01*
X10264318Y-16727853D01*
X10250032Y-16713568D01*
X10221461Y-16699282D01*
X10464318Y-16570711D02*
X10492889Y-16570711D01*
X10521461Y-16584996D01*
X10535747Y-16599282D01*
X10550032Y-16627853D01*
X10564318Y-16684996D01*
X10564318Y-16756425D01*
X10550032Y-16813568D01*
X10535747Y-16842139D01*
X10521461Y-16856425D01*
X10492889Y-16870711D01*
X10464318Y-16870711D01*
X10435747Y-16856425D01*
X10421461Y-16842139D01*
X10407175Y-16813568D01*
X10392889Y-16756425D01*
X10392889Y-16684996D01*
X10407175Y-16627853D01*
X10421461Y-16599282D01*
X10435747Y-16584996D01*
X10464318Y-16570711D01*
X10692889Y-16870711D02*
X10692889Y-16670711D01*
X10692889Y-16699282D02*
X10707175Y-16684996D01*
X10735747Y-16670711D01*
X10778604Y-16670711D01*
X10807175Y-16684996D01*
X10821461Y-16713568D01*
X10821461Y-16870711D01*
X10821461Y-16713568D02*
X10835747Y-16684996D01*
X10864318Y-16670711D01*
X10907175Y-16670711D01*
X10935747Y-16684996D01*
X10950032Y-16713568D01*
X10950032Y-16870711D01*
X11092889Y-16870711D02*
X11092889Y-16670711D01*
X11092889Y-16699282D02*
X11107175Y-16684996D01*
X11135747Y-16670711D01*
X11178604Y-16670711D01*
X11207175Y-16684996D01*
X11221461Y-16713568D01*
X11221461Y-16870711D01*
X11221461Y-16713568D02*
X11235747Y-16684996D01*
X11264318Y-16670711D01*
X11307175Y-16670711D01*
X11335747Y-16684996D01*
X11350032Y-16713568D01*
X11350032Y-16870711D01*
X11935747Y-16556425D02*
X11678604Y-16942139D01*
X12321461Y-16570711D02*
X12350032Y-16570711D01*
X12378604Y-16584996D01*
X12392889Y-16599282D01*
X12407175Y-16627853D01*
X12421461Y-16684996D01*
X12421461Y-16756425D01*
X12407175Y-16813568D01*
X12392889Y-16842139D01*
X12378604Y-16856425D01*
X12350032Y-16870711D01*
X12321461Y-16870711D01*
X12292889Y-16856425D01*
X12278604Y-16842139D01*
X12264318Y-16813568D01*
X12250032Y-16756425D01*
X12250032Y-16684996D01*
X12264318Y-16627853D01*
X12278604Y-16599282D01*
X12292889Y-16584996D01*
X12321461Y-16570711D01*
X12550032Y-16842139D02*
X12564318Y-16856425D01*
X12550032Y-16870711D01*
X12535747Y-16856425D01*
X12550032Y-16842139D01*
X12550032Y-16870711D01*
X12750032Y-16570711D02*
X12778604Y-16570711D01*
X12807175Y-16584996D01*
X12821461Y-16599282D01*
X12835747Y-16627853D01*
X12850032Y-16684996D01*
X12850032Y-16756425D01*
X12835747Y-16813568D01*
X12821461Y-16842139D01*
X12807175Y-16856425D01*
X12778604Y-16870711D01*
X12750032Y-16870711D01*
X12721461Y-16856425D01*
X12707175Y-16842139D01*
X12692889Y-16813568D01*
X12678604Y-16756425D01*
X12678604Y-16684996D01*
X12692889Y-16627853D01*
X12707175Y-16599282D01*
X12721461Y-16584996D01*
X12750032Y-16570711D01*
X12950032Y-16570711D02*
X13135747Y-16570711D01*
X13035747Y-16684996D01*
X13078604Y-16684996D01*
X13107175Y-16699282D01*
X13121461Y-16713568D01*
X13135747Y-16742139D01*
X13135747Y-16813568D01*
X13121461Y-16842139D01*
X13107175Y-16856425D01*
X13078604Y-16870711D01*
X12992889Y-16870711D01*
X12964318Y-16856425D01*
X12950032Y-16842139D01*
X13421461Y-16870711D02*
X13250032Y-16870711D01*
X13335747Y-16870711D02*
X13335747Y-16570711D01*
X13307175Y-16613568D01*
X13278604Y-16642139D01*
X13250032Y-16656425D01*
X13535747Y-16570711D02*
X13535747Y-16627853D01*
X13650032Y-16570711D02*
X13650032Y-16627853D01*
X14092889Y-16984996D02*
X14078604Y-16970711D01*
X14050032Y-16927854D01*
X14035747Y-16899282D01*
X14021461Y-16856425D01*
X14007175Y-16784996D01*
X14007175Y-16727853D01*
X14021461Y-16656425D01*
X14035747Y-16613568D01*
X14050032Y-16584996D01*
X14078604Y-16542139D01*
X14092889Y-16527853D01*
X14364318Y-16870711D02*
X14192889Y-16870711D01*
X14278604Y-16870711D02*
X14278604Y-16570711D01*
X14250032Y-16613568D01*
X14221461Y-16642139D01*
X14192889Y-16656425D01*
X14478604Y-16599282D02*
X14492889Y-16584996D01*
X14521461Y-16570711D01*
X14592889Y-16570711D01*
X14621461Y-16584996D01*
X14635747Y-16599282D01*
X14650032Y-16627853D01*
X14650032Y-16656425D01*
X14635747Y-16699282D01*
X14464318Y-16870711D01*
X14650032Y-16870711D01*
X15007175Y-16870711D02*
X15007175Y-16570711D01*
X15135747Y-16870711D02*
X15135747Y-16713568D01*
X15121461Y-16684996D01*
X15092889Y-16670711D01*
X15050032Y-16670711D01*
X15021461Y-16684996D01*
X15007175Y-16699282D01*
X15321461Y-16870711D02*
X15292889Y-16856425D01*
X15278604Y-16842139D01*
X15264318Y-16813568D01*
X15264318Y-16727853D01*
X15278604Y-16699282D01*
X15292889Y-16684996D01*
X15321461Y-16670711D01*
X15364318Y-16670711D01*
X15392889Y-16684996D01*
X15407175Y-16699282D01*
X15421461Y-16727853D01*
X15421461Y-16813568D01*
X15407175Y-16842139D01*
X15392889Y-16856425D01*
X15364318Y-16870711D01*
X15321461Y-16870711D01*
X15592889Y-16870711D02*
X15564318Y-16856425D01*
X15550032Y-16827854D01*
X15550032Y-16570711D01*
X15821461Y-16856425D02*
X15792889Y-16870711D01*
X15735747Y-16870711D01*
X15707175Y-16856425D01*
X15692889Y-16827854D01*
X15692889Y-16713568D01*
X15707175Y-16684996D01*
X15735747Y-16670711D01*
X15792889Y-16670711D01*
X15821461Y-16684996D01*
X15835747Y-16713568D01*
X15835747Y-16742139D01*
X15692889Y-16770711D01*
X15950032Y-16856425D02*
X15978604Y-16870711D01*
X16035747Y-16870711D01*
X16064318Y-16856425D01*
X16078604Y-16827854D01*
X16078604Y-16813568D01*
X16064318Y-16784996D01*
X16035747Y-16770711D01*
X15992889Y-16770711D01*
X15964318Y-16756425D01*
X15950032Y-16727853D01*
X15950032Y-16713568D01*
X15964318Y-16684996D01*
X15992889Y-16670711D01*
X16035747Y-16670711D01*
X16064318Y-16684996D01*
X16178604Y-16984996D02*
X16192889Y-16970711D01*
X16221461Y-16927854D01*
X16235747Y-16899282D01*
X16250032Y-16856425D01*
X16264318Y-16784996D01*
X16264318Y-16727853D01*
X16250032Y-16656425D01*
X16235747Y-16613568D01*
X16221461Y-16584996D01*
X16192889Y-16542139D01*
X16178604Y-16527853D01*
X9356461Y-17180996D02*
X9406461Y-17130996D01*
X9356461Y-17080996D01*
X9306461Y-17130996D01*
X9356461Y-17180996D01*
X9850032Y-17266711D02*
X9678604Y-17266711D01*
X9764318Y-17266711D02*
X9764318Y-16966711D01*
X9735747Y-17009568D01*
X9707175Y-17038139D01*
X9678604Y-17052425D01*
X9978604Y-17238139D02*
X9992889Y-17252425D01*
X9978604Y-17266711D01*
X9964318Y-17252425D01*
X9978604Y-17238139D01*
X9978604Y-17266711D01*
X10178604Y-16966711D02*
X10207175Y-16966711D01*
X10235747Y-16980996D01*
X10250032Y-16995282D01*
X10264318Y-17023854D01*
X10278604Y-17080996D01*
X10278604Y-17152425D01*
X10264318Y-17209568D01*
X10250032Y-17238139D01*
X10235747Y-17252425D01*
X10207175Y-17266711D01*
X10178604Y-17266711D01*
X10150032Y-17252425D01*
X10135747Y-17238139D01*
X10121461Y-17209568D01*
X10107175Y-17152425D01*
X10107175Y-17080996D01*
X10121461Y-17023854D01*
X10135747Y-16995282D01*
X10150032Y-16980996D01*
X10178604Y-16966711D01*
X10464318Y-16966711D02*
X10492889Y-16966711D01*
X10521461Y-16980996D01*
X10535747Y-16995282D01*
X10550032Y-17023854D01*
X10564318Y-17080996D01*
X10564318Y-17152425D01*
X10550032Y-17209568D01*
X10535747Y-17238139D01*
X10521461Y-17252425D01*
X10492889Y-17266711D01*
X10464318Y-17266711D01*
X10435747Y-17252425D01*
X10421461Y-17238139D01*
X10407175Y-17209568D01*
X10392889Y-17152425D01*
X10392889Y-17080996D01*
X10407175Y-17023854D01*
X10421461Y-16995282D01*
X10435747Y-16980996D01*
X10464318Y-16966711D01*
X10692889Y-17266711D02*
X10692889Y-17066711D01*
X10692889Y-17095282D02*
X10707175Y-17080996D01*
X10735747Y-17066711D01*
X10778604Y-17066711D01*
X10807175Y-17080996D01*
X10821461Y-17109568D01*
X10821461Y-17266711D01*
X10821461Y-17109568D02*
X10835747Y-17080996D01*
X10864318Y-17066711D01*
X10907175Y-17066711D01*
X10935747Y-17080996D01*
X10950032Y-17109568D01*
X10950032Y-17266711D01*
X11092889Y-17266711D02*
X11092889Y-17066711D01*
X11092889Y-17095282D02*
X11107175Y-17080996D01*
X11135747Y-17066711D01*
X11178604Y-17066711D01*
X11207175Y-17080996D01*
X11221461Y-17109568D01*
X11221461Y-17266711D01*
X11221461Y-17109568D02*
X11235747Y-17080996D01*
X11264318Y-17066711D01*
X11307175Y-17066711D01*
X11335747Y-17080996D01*
X11350032Y-17109568D01*
X11350032Y-17266711D01*
X11935747Y-16952425D02*
X11678604Y-17338139D01*
X12321461Y-16966711D02*
X12350032Y-16966711D01*
X12378604Y-16980996D01*
X12392889Y-16995282D01*
X12407175Y-17023854D01*
X12421461Y-17080996D01*
X12421461Y-17152425D01*
X12407175Y-17209568D01*
X12392889Y-17238139D01*
X12378604Y-17252425D01*
X12350032Y-17266711D01*
X12321461Y-17266711D01*
X12292889Y-17252425D01*
X12278604Y-17238139D01*
X12264318Y-17209568D01*
X12250032Y-17152425D01*
X12250032Y-17080996D01*
X12264318Y-17023854D01*
X12278604Y-16995282D01*
X12292889Y-16980996D01*
X12321461Y-16966711D01*
X12550032Y-17238139D02*
X12564318Y-17252425D01*
X12550032Y-17266711D01*
X12535747Y-17252425D01*
X12550032Y-17238139D01*
X12550032Y-17266711D01*
X12750032Y-16966711D02*
X12778604Y-16966711D01*
X12807175Y-16980996D01*
X12821461Y-16995282D01*
X12835747Y-17023854D01*
X12850032Y-17080996D01*
X12850032Y-17152425D01*
X12835747Y-17209568D01*
X12821461Y-17238139D01*
X12807175Y-17252425D01*
X12778604Y-17266711D01*
X12750032Y-17266711D01*
X12721461Y-17252425D01*
X12707175Y-17238139D01*
X12692889Y-17209568D01*
X12678604Y-17152425D01*
X12678604Y-17080996D01*
X12692889Y-17023854D01*
X12707175Y-16995282D01*
X12721461Y-16980996D01*
X12750032Y-16966711D01*
X12950032Y-16966711D02*
X13135747Y-16966711D01*
X13035747Y-17080996D01*
X13078604Y-17080996D01*
X13107175Y-17095282D01*
X13121461Y-17109568D01*
X13135747Y-17138139D01*
X13135747Y-17209568D01*
X13121461Y-17238139D01*
X13107175Y-17252425D01*
X13078604Y-17266711D01*
X12992889Y-17266711D01*
X12964318Y-17252425D01*
X12950032Y-17238139D01*
X13278604Y-17266711D02*
X13335747Y-17266711D01*
X13364318Y-17252425D01*
X13378604Y-17238139D01*
X13407175Y-17195282D01*
X13421461Y-17138139D01*
X13421461Y-17023854D01*
X13407175Y-16995282D01*
X13392889Y-16980996D01*
X13364318Y-16966711D01*
X13307175Y-16966711D01*
X13278604Y-16980996D01*
X13264318Y-16995282D01*
X13250032Y-17023854D01*
X13250032Y-17095282D01*
X13264318Y-17123854D01*
X13278604Y-17138139D01*
X13307175Y-17152425D01*
X13364318Y-17152425D01*
X13392889Y-17138139D01*
X13407175Y-17123854D01*
X13421461Y-17095282D01*
X13535747Y-16966711D02*
X13535747Y-17023854D01*
X13650032Y-16966711D02*
X13650032Y-17023854D01*
X14092889Y-17380996D02*
X14078604Y-17366711D01*
X14050032Y-17323854D01*
X14035747Y-17295282D01*
X14021461Y-17252425D01*
X14007175Y-17180996D01*
X14007175Y-17123854D01*
X14021461Y-17052425D01*
X14035747Y-17009568D01*
X14050032Y-16980996D01*
X14078604Y-16938139D01*
X14092889Y-16923854D01*
X14335747Y-16966711D02*
X14278604Y-16966711D01*
X14250032Y-16980996D01*
X14235747Y-16995282D01*
X14207175Y-17038139D01*
X14192889Y-17095282D01*
X14192889Y-17209568D01*
X14207175Y-17238139D01*
X14221461Y-17252425D01*
X14250032Y-17266711D01*
X14307175Y-17266711D01*
X14335747Y-17252425D01*
X14350032Y-17238139D01*
X14364318Y-17209568D01*
X14364318Y-17138139D01*
X14350032Y-17109568D01*
X14335747Y-17095282D01*
X14307175Y-17080996D01*
X14250032Y-17080996D01*
X14221461Y-17095282D01*
X14207175Y-17109568D01*
X14192889Y-17138139D01*
X14478604Y-16995282D02*
X14492889Y-16980996D01*
X14521461Y-16966711D01*
X14592889Y-16966711D01*
X14621461Y-16980996D01*
X14635747Y-16995282D01*
X14650032Y-17023854D01*
X14650032Y-17052425D01*
X14635747Y-17095282D01*
X14464318Y-17266711D01*
X14650032Y-17266711D01*
X15007175Y-17266711D02*
X15007175Y-16966711D01*
X15135747Y-17266711D02*
X15135747Y-17109568D01*
X15121461Y-17080996D01*
X15092889Y-17066711D01*
X15050032Y-17066711D01*
X15021461Y-17080996D01*
X15007175Y-17095282D01*
X15321461Y-17266711D02*
X15292889Y-17252425D01*
X15278604Y-17238139D01*
X15264318Y-17209568D01*
X15264318Y-17123854D01*
X15278604Y-17095282D01*
X15292889Y-17080996D01*
X15321461Y-17066711D01*
X15364318Y-17066711D01*
X15392889Y-17080996D01*
X15407175Y-17095282D01*
X15421461Y-17123854D01*
X15421461Y-17209568D01*
X15407175Y-17238139D01*
X15392889Y-17252425D01*
X15364318Y-17266711D01*
X15321461Y-17266711D01*
X15592889Y-17266711D02*
X15564318Y-17252425D01*
X15550032Y-17223854D01*
X15550032Y-16966711D01*
X15821461Y-17252425D02*
X15792889Y-17266711D01*
X15735747Y-17266711D01*
X15707175Y-17252425D01*
X15692889Y-17223854D01*
X15692889Y-17109568D01*
X15707175Y-17080996D01*
X15735747Y-17066711D01*
X15792889Y-17066711D01*
X15821461Y-17080996D01*
X15835747Y-17109568D01*
X15835747Y-17138139D01*
X15692889Y-17166711D01*
X15950032Y-17252425D02*
X15978604Y-17266711D01*
X16035747Y-17266711D01*
X16064318Y-17252425D01*
X16078604Y-17223854D01*
X16078604Y-17209568D01*
X16064318Y-17180996D01*
X16035747Y-17166711D01*
X15992889Y-17166711D01*
X15964318Y-17152425D01*
X15950032Y-17123854D01*
X15950032Y-17109568D01*
X15964318Y-17080996D01*
X15992889Y-17066711D01*
X16035747Y-17066711D01*
X16064318Y-17080996D01*
X16178604Y-17380996D02*
X16192889Y-17366711D01*
X16221461Y-17323854D01*
X16235747Y-17295282D01*
X16250032Y-17252425D01*
X16264318Y-17180996D01*
X16264318Y-17123854D01*
X16250032Y-17052425D01*
X16235747Y-17009568D01*
X16221461Y-16980996D01*
X16192889Y-16938139D01*
X16178604Y-16923854D01*
X9302461Y-17474996D02*
X9406461Y-17578996D01*
X9406461Y-17474996D02*
X9302461Y-17578996D01*
X9406461Y-17526996D02*
G75*
G03X9406461Y-17526996I-52000J0D01*
G01*
X9850032Y-17662711D02*
X9678604Y-17662711D01*
X9764318Y-17662711D02*
X9764318Y-17362711D01*
X9735747Y-17405568D01*
X9707175Y-17434139D01*
X9678604Y-17448425D01*
X9978604Y-17634139D02*
X9992889Y-17648425D01*
X9978604Y-17662711D01*
X9964318Y-17648425D01*
X9978604Y-17634139D01*
X9978604Y-17662711D01*
X10178604Y-17362711D02*
X10207175Y-17362711D01*
X10235747Y-17376996D01*
X10250032Y-17391282D01*
X10264318Y-17419854D01*
X10278604Y-17476996D01*
X10278604Y-17548425D01*
X10264318Y-17605568D01*
X10250032Y-17634139D01*
X10235747Y-17648425D01*
X10207175Y-17662711D01*
X10178604Y-17662711D01*
X10150032Y-17648425D01*
X10135747Y-17634139D01*
X10121461Y-17605568D01*
X10107175Y-17548425D01*
X10107175Y-17476996D01*
X10121461Y-17419854D01*
X10135747Y-17391282D01*
X10150032Y-17376996D01*
X10178604Y-17362711D01*
X10535747Y-17462711D02*
X10535747Y-17662711D01*
X10464318Y-17348425D02*
X10392889Y-17562711D01*
X10578604Y-17562711D01*
X10692889Y-17662711D02*
X10692889Y-17462711D01*
X10692889Y-17491282D02*
X10707175Y-17476996D01*
X10735747Y-17462711D01*
X10778604Y-17462711D01*
X10807175Y-17476996D01*
X10821461Y-17505568D01*
X10821461Y-17662711D01*
X10821461Y-17505568D02*
X10835747Y-17476996D01*
X10864318Y-17462711D01*
X10907175Y-17462711D01*
X10935747Y-17476996D01*
X10950032Y-17505568D01*
X10950032Y-17662711D01*
X11092889Y-17662711D02*
X11092889Y-17462711D01*
X11092889Y-17491282D02*
X11107175Y-17476996D01*
X11135747Y-17462711D01*
X11178604Y-17462711D01*
X11207175Y-17476996D01*
X11221461Y-17505568D01*
X11221461Y-17662711D01*
X11221461Y-17505568D02*
X11235747Y-17476996D01*
X11264318Y-17462711D01*
X11307175Y-17462711D01*
X11335747Y-17476996D01*
X11350032Y-17505568D01*
X11350032Y-17662711D01*
X11935747Y-17348425D02*
X11678604Y-17734139D01*
X12321461Y-17362711D02*
X12350032Y-17362711D01*
X12378604Y-17376996D01*
X12392889Y-17391282D01*
X12407175Y-17419854D01*
X12421461Y-17476996D01*
X12421461Y-17548425D01*
X12407175Y-17605568D01*
X12392889Y-17634139D01*
X12378604Y-17648425D01*
X12350032Y-17662711D01*
X12321461Y-17662711D01*
X12292889Y-17648425D01*
X12278604Y-17634139D01*
X12264318Y-17605568D01*
X12250032Y-17548425D01*
X12250032Y-17476996D01*
X12264318Y-17419854D01*
X12278604Y-17391282D01*
X12292889Y-17376996D01*
X12321461Y-17362711D01*
X12550032Y-17634139D02*
X12564318Y-17648425D01*
X12550032Y-17662711D01*
X12535747Y-17648425D01*
X12550032Y-17634139D01*
X12550032Y-17662711D01*
X12750032Y-17362711D02*
X12778604Y-17362711D01*
X12807175Y-17376996D01*
X12821461Y-17391282D01*
X12835747Y-17419854D01*
X12850032Y-17476996D01*
X12850032Y-17548425D01*
X12835747Y-17605568D01*
X12821461Y-17634139D01*
X12807175Y-17648425D01*
X12778604Y-17662711D01*
X12750032Y-17662711D01*
X12721461Y-17648425D01*
X12707175Y-17634139D01*
X12692889Y-17605568D01*
X12678604Y-17548425D01*
X12678604Y-17476996D01*
X12692889Y-17419854D01*
X12707175Y-17391282D01*
X12721461Y-17376996D01*
X12750032Y-17362711D01*
X13107175Y-17462711D02*
X13107175Y-17662711D01*
X13035747Y-17348425D02*
X12964318Y-17562711D01*
X13150032Y-17562711D01*
X13421461Y-17662711D02*
X13250032Y-17662711D01*
X13335747Y-17662711D02*
X13335747Y-17362711D01*
X13307175Y-17405568D01*
X13278604Y-17434139D01*
X13250032Y-17448425D01*
X13535747Y-17362711D02*
X13535747Y-17419854D01*
X13650032Y-17362711D02*
X13650032Y-17419854D01*
X14092889Y-17776996D02*
X14078604Y-17762711D01*
X14050032Y-17719854D01*
X14035747Y-17691282D01*
X14021461Y-17648425D01*
X14007175Y-17576996D01*
X14007175Y-17519854D01*
X14021461Y-17448425D01*
X14035747Y-17405568D01*
X14050032Y-17376996D01*
X14078604Y-17334139D01*
X14092889Y-17319854D01*
X14178604Y-17362711D02*
X14364318Y-17362711D01*
X14264318Y-17476996D01*
X14307175Y-17476996D01*
X14335747Y-17491282D01*
X14350032Y-17505568D01*
X14364318Y-17534139D01*
X14364318Y-17605568D01*
X14350032Y-17634139D01*
X14335747Y-17648425D01*
X14307175Y-17662711D01*
X14221461Y-17662711D01*
X14192889Y-17648425D01*
X14178604Y-17634139D01*
X14535747Y-17491282D02*
X14507175Y-17476996D01*
X14492889Y-17462711D01*
X14478604Y-17434139D01*
X14478604Y-17419854D01*
X14492889Y-17391282D01*
X14507175Y-17376996D01*
X14535747Y-17362711D01*
X14592889Y-17362711D01*
X14621461Y-17376996D01*
X14635747Y-17391282D01*
X14650032Y-17419854D01*
X14650032Y-17434139D01*
X14635747Y-17462711D01*
X14621461Y-17476996D01*
X14592889Y-17491282D01*
X14535747Y-17491282D01*
X14507175Y-17505568D01*
X14492889Y-17519854D01*
X14478604Y-17548425D01*
X14478604Y-17605568D01*
X14492889Y-17634139D01*
X14507175Y-17648425D01*
X14535747Y-17662711D01*
X14592889Y-17662711D01*
X14621461Y-17648425D01*
X14635747Y-17634139D01*
X14650032Y-17605568D01*
X14650032Y-17548425D01*
X14635747Y-17519854D01*
X14621461Y-17505568D01*
X14592889Y-17491282D01*
X15007175Y-17662711D02*
X15007175Y-17362711D01*
X15135747Y-17662711D02*
X15135747Y-17505568D01*
X15121461Y-17476996D01*
X15092889Y-17462711D01*
X15050032Y-17462711D01*
X15021461Y-17476996D01*
X15007175Y-17491282D01*
X15321461Y-17662711D02*
X15292889Y-17648425D01*
X15278604Y-17634139D01*
X15264318Y-17605568D01*
X15264318Y-17519854D01*
X15278604Y-17491282D01*
X15292889Y-17476996D01*
X15321461Y-17462711D01*
X15364318Y-17462711D01*
X15392889Y-17476996D01*
X15407175Y-17491282D01*
X15421461Y-17519854D01*
X15421461Y-17605568D01*
X15407175Y-17634139D01*
X15392889Y-17648425D01*
X15364318Y-17662711D01*
X15321461Y-17662711D01*
X15592889Y-17662711D02*
X15564318Y-17648425D01*
X15550032Y-17619854D01*
X15550032Y-17362711D01*
X15821461Y-17648425D02*
X15792889Y-17662711D01*
X15735747Y-17662711D01*
X15707175Y-17648425D01*
X15692889Y-17619854D01*
X15692889Y-17505568D01*
X15707175Y-17476996D01*
X15735747Y-17462711D01*
X15792889Y-17462711D01*
X15821461Y-17476996D01*
X15835747Y-17505568D01*
X15835747Y-17534139D01*
X15692889Y-17562711D01*
X15950032Y-17648425D02*
X15978604Y-17662711D01*
X16035747Y-17662711D01*
X16064318Y-17648425D01*
X16078604Y-17619854D01*
X16078604Y-17605568D01*
X16064318Y-17576996D01*
X16035747Y-17562711D01*
X15992889Y-17562711D01*
X15964318Y-17548425D01*
X15950032Y-17519854D01*
X15950032Y-17505568D01*
X15964318Y-17476996D01*
X15992889Y-17462711D01*
X16035747Y-17462711D01*
X16064318Y-17476996D01*
X16178604Y-17776996D02*
X16192889Y-17762711D01*
X16221461Y-17719854D01*
X16235747Y-17691282D01*
X16250032Y-17648425D01*
X16264318Y-17576996D01*
X16264318Y-17519854D01*
X16250032Y-17448425D01*
X16235747Y-17405568D01*
X16221461Y-17376996D01*
X16192889Y-17334139D01*
X16178604Y-17319854D01*
X9167461Y-17803496D02*
X9406461Y-18042496D01*
X9406461Y-17803496D02*
X9167461Y-18042496D01*
X9286961Y-17803496D02*
X9286961Y-18042496D01*
X9167461Y-17922996D02*
X9406461Y-17922996D01*
X9678604Y-17787282D02*
X9692889Y-17772996D01*
X9721461Y-17758711D01*
X9792889Y-17758711D01*
X9821461Y-17772996D01*
X9835747Y-17787282D01*
X9850032Y-17815854D01*
X9850032Y-17844425D01*
X9835747Y-17887282D01*
X9664318Y-18058711D01*
X9850032Y-18058711D01*
X9978604Y-18030139D02*
X9992889Y-18044425D01*
X9978604Y-18058711D01*
X9964318Y-18044425D01*
X9978604Y-18030139D01*
X9978604Y-18058711D01*
X10092889Y-17758711D02*
X10278604Y-17758711D01*
X10178604Y-17872996D01*
X10221461Y-17872996D01*
X10250032Y-17887282D01*
X10264318Y-17901568D01*
X10278604Y-17930139D01*
X10278604Y-18001568D01*
X10264318Y-18030139D01*
X10250032Y-18044425D01*
X10221461Y-18058711D01*
X10135747Y-18058711D01*
X10107175Y-18044425D01*
X10092889Y-18030139D01*
X10421461Y-18058711D02*
X10478604Y-18058711D01*
X10507175Y-18044425D01*
X10521461Y-18030139D01*
X10550032Y-17987282D01*
X10564318Y-17930139D01*
X10564318Y-17815854D01*
X10550032Y-17787282D01*
X10535747Y-17772996D01*
X10507175Y-17758711D01*
X10450032Y-17758711D01*
X10421461Y-17772996D01*
X10407175Y-17787282D01*
X10392889Y-17815854D01*
X10392889Y-17887282D01*
X10407175Y-17915854D01*
X10421461Y-17930139D01*
X10450032Y-17944425D01*
X10507175Y-17944425D01*
X10535747Y-17930139D01*
X10550032Y-17915854D01*
X10564318Y-17887282D01*
X10692889Y-18058711D02*
X10692889Y-17858711D01*
X10692889Y-17887282D02*
X10707175Y-17872996D01*
X10735747Y-17858711D01*
X10778604Y-17858711D01*
X10807175Y-17872996D01*
X10821461Y-17901568D01*
X10821461Y-18058711D01*
X10821461Y-17901568D02*
X10835747Y-17872996D01*
X10864318Y-17858711D01*
X10907175Y-17858711D01*
X10935747Y-17872996D01*
X10950032Y-17901568D01*
X10950032Y-18058711D01*
X11092889Y-18058711D02*
X11092889Y-17858711D01*
X11092889Y-17887282D02*
X11107175Y-17872996D01*
X11135747Y-17858711D01*
X11178604Y-17858711D01*
X11207175Y-17872996D01*
X11221461Y-17901568D01*
X11221461Y-18058711D01*
X11221461Y-17901568D02*
X11235747Y-17872996D01*
X11264318Y-17858711D01*
X11307175Y-17858711D01*
X11335747Y-17872996D01*
X11350032Y-17901568D01*
X11350032Y-18058711D01*
X11935747Y-17744425D02*
X11678604Y-18130139D01*
X12321461Y-17758711D02*
X12350032Y-17758711D01*
X12378604Y-17772996D01*
X12392889Y-17787282D01*
X12407175Y-17815854D01*
X12421461Y-17872996D01*
X12421461Y-17944425D01*
X12407175Y-18001568D01*
X12392889Y-18030139D01*
X12378604Y-18044425D01*
X12350032Y-18058711D01*
X12321461Y-18058711D01*
X12292889Y-18044425D01*
X12278604Y-18030139D01*
X12264318Y-18001568D01*
X12250032Y-17944425D01*
X12250032Y-17872996D01*
X12264318Y-17815854D01*
X12278604Y-17787282D01*
X12292889Y-17772996D01*
X12321461Y-17758711D01*
X12550032Y-18030139D02*
X12564318Y-18044425D01*
X12550032Y-18058711D01*
X12535747Y-18044425D01*
X12550032Y-18030139D01*
X12550032Y-18058711D01*
X12750032Y-17758711D02*
X12778604Y-17758711D01*
X12807175Y-17772996D01*
X12821461Y-17787282D01*
X12835747Y-17815854D01*
X12850032Y-17872996D01*
X12850032Y-17944425D01*
X12835747Y-18001568D01*
X12821461Y-18030139D01*
X12807175Y-18044425D01*
X12778604Y-18058711D01*
X12750032Y-18058711D01*
X12721461Y-18044425D01*
X12707175Y-18030139D01*
X12692889Y-18001568D01*
X12678604Y-17944425D01*
X12678604Y-17872996D01*
X12692889Y-17815854D01*
X12707175Y-17787282D01*
X12721461Y-17772996D01*
X12750032Y-17758711D01*
X12992889Y-18058711D02*
X13050032Y-18058711D01*
X13078604Y-18044425D01*
X13092889Y-18030139D01*
X13121461Y-17987282D01*
X13135747Y-17930139D01*
X13135747Y-17815854D01*
X13121461Y-17787282D01*
X13107175Y-17772996D01*
X13078604Y-17758711D01*
X13021461Y-17758711D01*
X12992889Y-17772996D01*
X12978604Y-17787282D01*
X12964318Y-17815854D01*
X12964318Y-17887282D01*
X12978604Y-17915854D01*
X12992889Y-17930139D01*
X13021461Y-17944425D01*
X13078604Y-17944425D01*
X13107175Y-17930139D01*
X13121461Y-17915854D01*
X13135747Y-17887282D01*
X13392889Y-17858711D02*
X13392889Y-18058711D01*
X13321461Y-17744425D02*
X13250032Y-17958711D01*
X13435747Y-17958711D01*
X13535747Y-17758711D02*
X13535747Y-17815854D01*
X13650032Y-17758711D02*
X13650032Y-17815854D01*
X14092889Y-18172996D02*
X14078604Y-18158711D01*
X14050032Y-18115854D01*
X14035747Y-18087282D01*
X14021461Y-18044425D01*
X14007175Y-17972996D01*
X14007175Y-17915854D01*
X14021461Y-17844425D01*
X14035747Y-17801568D01*
X14050032Y-17772996D01*
X14078604Y-17730139D01*
X14092889Y-17715854D01*
X14364318Y-18058711D02*
X14192889Y-18058711D01*
X14278604Y-18058711D02*
X14278604Y-17758711D01*
X14250032Y-17801568D01*
X14221461Y-17830139D01*
X14192889Y-17844425D01*
X14721461Y-18058711D02*
X14721461Y-17758711D01*
X14850032Y-18058711D02*
X14850032Y-17901568D01*
X14835747Y-17872996D01*
X14807175Y-17858711D01*
X14764318Y-17858711D01*
X14735747Y-17872996D01*
X14721461Y-17887282D01*
X15035747Y-18058711D02*
X15007175Y-18044425D01*
X14992889Y-18030139D01*
X14978604Y-18001568D01*
X14978604Y-17915854D01*
X14992889Y-17887282D01*
X15007175Y-17872996D01*
X15035747Y-17858711D01*
X15078604Y-17858711D01*
X15107175Y-17872996D01*
X15121461Y-17887282D01*
X15135747Y-17915854D01*
X15135747Y-18001568D01*
X15121461Y-18030139D01*
X15107175Y-18044425D01*
X15078604Y-18058711D01*
X15035747Y-18058711D01*
X15307175Y-18058711D02*
X15278604Y-18044425D01*
X15264318Y-18015854D01*
X15264318Y-17758711D01*
X15535747Y-18044425D02*
X15507175Y-18058711D01*
X15450032Y-18058711D01*
X15421461Y-18044425D01*
X15407175Y-18015854D01*
X15407175Y-17901568D01*
X15421461Y-17872996D01*
X15450032Y-17858711D01*
X15507175Y-17858711D01*
X15535747Y-17872996D01*
X15550032Y-17901568D01*
X15550032Y-17930139D01*
X15407175Y-17958711D01*
X15650032Y-18172996D02*
X15664318Y-18158711D01*
X15692889Y-18115854D01*
X15707175Y-18087282D01*
X15721461Y-18044425D01*
X15735747Y-17972996D01*
X15735747Y-17915854D01*
X15721461Y-17844425D01*
X15707175Y-17801568D01*
X15692889Y-17772996D01*
X15664318Y-17730139D01*
X15650032Y-17715854D01*
X9061461Y-18146496D02*
X9406461Y-18491496D01*
X9406461Y-18146496D02*
X9061461Y-18491496D01*
X9355938Y-18440974D02*
X9355938Y-18197019D01*
X9111984Y-18197019D01*
X9111984Y-18440974D01*
X9355938Y-18440974D01*
X9664318Y-18154711D02*
X9850032Y-18154711D01*
X9750032Y-18268996D01*
X9792889Y-18268996D01*
X9821461Y-18283282D01*
X9835747Y-18297568D01*
X9850032Y-18326139D01*
X9850032Y-18397568D01*
X9835747Y-18426139D01*
X9821461Y-18440425D01*
X9792889Y-18454711D01*
X9707175Y-18454711D01*
X9678604Y-18440425D01*
X9664318Y-18426139D01*
X9978604Y-18426139D02*
X9992889Y-18440425D01*
X9978604Y-18454711D01*
X9964318Y-18440425D01*
X9978604Y-18426139D01*
X9978604Y-18454711D01*
X10250032Y-18254711D02*
X10250032Y-18454711D01*
X10178604Y-18140425D02*
X10107175Y-18354711D01*
X10292889Y-18354711D01*
X10550032Y-18154711D02*
X10407175Y-18154711D01*
X10392889Y-18297568D01*
X10407175Y-18283282D01*
X10435747Y-18268996D01*
X10507175Y-18268996D01*
X10535747Y-18283282D01*
X10550032Y-18297568D01*
X10564318Y-18326139D01*
X10564318Y-18397568D01*
X10550032Y-18426139D01*
X10535747Y-18440425D01*
X10507175Y-18454711D01*
X10435747Y-18454711D01*
X10407175Y-18440425D01*
X10392889Y-18426139D01*
X10692889Y-18454711D02*
X10692889Y-18254711D01*
X10692889Y-18283282D02*
X10707175Y-18268996D01*
X10735747Y-18254711D01*
X10778604Y-18254711D01*
X10807175Y-18268996D01*
X10821461Y-18297568D01*
X10821461Y-18454711D01*
X10821461Y-18297568D02*
X10835747Y-18268996D01*
X10864318Y-18254711D01*
X10907175Y-18254711D01*
X10935747Y-18268996D01*
X10950032Y-18297568D01*
X10950032Y-18454711D01*
X11092889Y-18454711D02*
X11092889Y-18254711D01*
X11092889Y-18283282D02*
X11107175Y-18268996D01*
X11135747Y-18254711D01*
X11178604Y-18254711D01*
X11207175Y-18268996D01*
X11221461Y-18297568D01*
X11221461Y-18454711D01*
X11221461Y-18297568D02*
X11235747Y-18268996D01*
X11264318Y-18254711D01*
X11307175Y-18254711D01*
X11335747Y-18268996D01*
X11350032Y-18297568D01*
X11350032Y-18454711D01*
X11935747Y-18140425D02*
X11678604Y-18526139D01*
X12321461Y-18154711D02*
X12350032Y-18154711D01*
X12378604Y-18168996D01*
X12392889Y-18183282D01*
X12407175Y-18211854D01*
X12421461Y-18268996D01*
X12421461Y-18340425D01*
X12407175Y-18397568D01*
X12392889Y-18426139D01*
X12378604Y-18440425D01*
X12350032Y-18454711D01*
X12321461Y-18454711D01*
X12292889Y-18440425D01*
X12278604Y-18426139D01*
X12264318Y-18397568D01*
X12250032Y-18340425D01*
X12250032Y-18268996D01*
X12264318Y-18211854D01*
X12278604Y-18183282D01*
X12292889Y-18168996D01*
X12321461Y-18154711D01*
X12550032Y-18426139D02*
X12564318Y-18440425D01*
X12550032Y-18454711D01*
X12535747Y-18440425D01*
X12550032Y-18426139D01*
X12550032Y-18454711D01*
X12850032Y-18454711D02*
X12678604Y-18454711D01*
X12764318Y-18454711D02*
X12764318Y-18154711D01*
X12735747Y-18197568D01*
X12707175Y-18226139D01*
X12678604Y-18240425D01*
X12950032Y-18154711D02*
X13135747Y-18154711D01*
X13035747Y-18268996D01*
X13078604Y-18268996D01*
X13107175Y-18283282D01*
X13121461Y-18297568D01*
X13135747Y-18326139D01*
X13135747Y-18397568D01*
X13121461Y-18426139D01*
X13107175Y-18440425D01*
X13078604Y-18454711D01*
X12992889Y-18454711D01*
X12964318Y-18440425D01*
X12950032Y-18426139D01*
X13392889Y-18154711D02*
X13335747Y-18154711D01*
X13307175Y-18168996D01*
X13292889Y-18183282D01*
X13264318Y-18226139D01*
X13250032Y-18283282D01*
X13250032Y-18397568D01*
X13264318Y-18426139D01*
X13278604Y-18440425D01*
X13307175Y-18454711D01*
X13364318Y-18454711D01*
X13392889Y-18440425D01*
X13407175Y-18426139D01*
X13421461Y-18397568D01*
X13421461Y-18326139D01*
X13407175Y-18297568D01*
X13392889Y-18283282D01*
X13364318Y-18268996D01*
X13307175Y-18268996D01*
X13278604Y-18283282D01*
X13264318Y-18297568D01*
X13250032Y-18326139D01*
X13535747Y-18154711D02*
X13535747Y-18211854D01*
X13650032Y-18154711D02*
X13650032Y-18211854D01*
X14092889Y-18568996D02*
X14078604Y-18554711D01*
X14050032Y-18511854D01*
X14035747Y-18483282D01*
X14021461Y-18440425D01*
X14007175Y-18368996D01*
X14007175Y-18311854D01*
X14021461Y-18240425D01*
X14035747Y-18197568D01*
X14050032Y-18168996D01*
X14078604Y-18126139D01*
X14092889Y-18111854D01*
X14192889Y-18183282D02*
X14207175Y-18168996D01*
X14235747Y-18154711D01*
X14307175Y-18154711D01*
X14335747Y-18168996D01*
X14350032Y-18183282D01*
X14364318Y-18211854D01*
X14364318Y-18240425D01*
X14350032Y-18283282D01*
X14178604Y-18454711D01*
X14364318Y-18454711D01*
X14721461Y-18454711D02*
X14721461Y-18154711D01*
X14850032Y-18454711D02*
X14850032Y-18297568D01*
X14835747Y-18268996D01*
X14807175Y-18254711D01*
X14764318Y-18254711D01*
X14735747Y-18268996D01*
X14721461Y-18283282D01*
X15035747Y-18454711D02*
X15007175Y-18440425D01*
X14992889Y-18426139D01*
X14978604Y-18397568D01*
X14978604Y-18311854D01*
X14992889Y-18283282D01*
X15007175Y-18268996D01*
X15035747Y-18254711D01*
X15078604Y-18254711D01*
X15107175Y-18268996D01*
X15121461Y-18283282D01*
X15135747Y-18311854D01*
X15135747Y-18397568D01*
X15121461Y-18426139D01*
X15107175Y-18440425D01*
X15078604Y-18454711D01*
X15035747Y-18454711D01*
X15307175Y-18454711D02*
X15278604Y-18440425D01*
X15264318Y-18411854D01*
X15264318Y-18154711D01*
X15535747Y-18440425D02*
X15507175Y-18454711D01*
X15450032Y-18454711D01*
X15421461Y-18440425D01*
X15407175Y-18411854D01*
X15407175Y-18297568D01*
X15421461Y-18268996D01*
X15450032Y-18254711D01*
X15507175Y-18254711D01*
X15535747Y-18268996D01*
X15550032Y-18297568D01*
X15550032Y-18326139D01*
X15407175Y-18354711D01*
X15664318Y-18440425D02*
X15692889Y-18454711D01*
X15750032Y-18454711D01*
X15778604Y-18440425D01*
X15792889Y-18411854D01*
X15792889Y-18397568D01*
X15778604Y-18368996D01*
X15750032Y-18354711D01*
X15707175Y-18354711D01*
X15678604Y-18340425D01*
X15664318Y-18311854D01*
X15664318Y-18297568D01*
X15678604Y-18268996D01*
X15707175Y-18254711D01*
X15750032Y-18254711D01*
X15778604Y-18268996D01*
X15892889Y-18568996D02*
X15907175Y-18554711D01*
X15935747Y-18511854D01*
X15950032Y-18483282D01*
X15964318Y-18440425D01*
X15978604Y-18368996D01*
X15978604Y-18311854D01*
X15964318Y-18240425D01*
X15950032Y-18197568D01*
X15935747Y-18168996D01*
X15907175Y-18126139D01*
X15892889Y-18111854D01*
X9306461Y-18743996D02*
X9406461Y-18843996D01*
X9406461Y-18743996D02*
X9306461Y-18843996D01*
X9356461Y-18843996D02*
X9406461Y-18793996D01*
X9356461Y-18743996D01*
X9306461Y-18793996D01*
X9356461Y-18843996D01*
X9850032Y-18929711D02*
X9678604Y-18929711D01*
X9764318Y-18929711D02*
X9764318Y-18629711D01*
X9735747Y-18672568D01*
X9707175Y-18701139D01*
X9678604Y-18715425D01*
X9978604Y-18901139D02*
X9992889Y-18915425D01*
X9978604Y-18929711D01*
X9964318Y-18915425D01*
X9978604Y-18901139D01*
X9978604Y-18929711D01*
X10178604Y-18629711D02*
X10207175Y-18629711D01*
X10235747Y-18643996D01*
X10250032Y-18658282D01*
X10264318Y-18686854D01*
X10278604Y-18743996D01*
X10278604Y-18815425D01*
X10264318Y-18872568D01*
X10250032Y-18901139D01*
X10235747Y-18915425D01*
X10207175Y-18929711D01*
X10178604Y-18929711D01*
X10150032Y-18915425D01*
X10135747Y-18901139D01*
X10121461Y-18872568D01*
X10107175Y-18815425D01*
X10107175Y-18743996D01*
X10121461Y-18686854D01*
X10135747Y-18658282D01*
X10150032Y-18643996D01*
X10178604Y-18629711D01*
X10464318Y-18629711D02*
X10492889Y-18629711D01*
X10521461Y-18643996D01*
X10535747Y-18658282D01*
X10550032Y-18686854D01*
X10564318Y-18743996D01*
X10564318Y-18815425D01*
X10550032Y-18872568D01*
X10535747Y-18901139D01*
X10521461Y-18915425D01*
X10492889Y-18929711D01*
X10464318Y-18929711D01*
X10435747Y-18915425D01*
X10421461Y-18901139D01*
X10407175Y-18872568D01*
X10392889Y-18815425D01*
X10392889Y-18743996D01*
X10407175Y-18686854D01*
X10421461Y-18658282D01*
X10435747Y-18643996D01*
X10464318Y-18629711D01*
X10692889Y-18929711D02*
X10692889Y-18729711D01*
X10692889Y-18758282D02*
X10707175Y-18743996D01*
X10735747Y-18729711D01*
X10778604Y-18729711D01*
X10807175Y-18743996D01*
X10821461Y-18772568D01*
X10821461Y-18929711D01*
X10821461Y-18772568D02*
X10835747Y-18743996D01*
X10864318Y-18729711D01*
X10907175Y-18729711D01*
X10935747Y-18743996D01*
X10950032Y-18772568D01*
X10950032Y-18929711D01*
X11092889Y-18929711D02*
X11092889Y-18729711D01*
X11092889Y-18758282D02*
X11107175Y-18743996D01*
X11135747Y-18729711D01*
X11178604Y-18729711D01*
X11207175Y-18743996D01*
X11221461Y-18772568D01*
X11221461Y-18929711D01*
X11221461Y-18772568D02*
X11235747Y-18743996D01*
X11264318Y-18729711D01*
X11307175Y-18729711D01*
X11335747Y-18743996D01*
X11350032Y-18772568D01*
X11350032Y-18929711D01*
X11935747Y-18615425D02*
X11678604Y-19001139D01*
X12321461Y-18629711D02*
X12350032Y-18629711D01*
X12378604Y-18643996D01*
X12392889Y-18658282D01*
X12407175Y-18686854D01*
X12421461Y-18743996D01*
X12421461Y-18815425D01*
X12407175Y-18872568D01*
X12392889Y-18901139D01*
X12378604Y-18915425D01*
X12350032Y-18929711D01*
X12321461Y-18929711D01*
X12292889Y-18915425D01*
X12278604Y-18901139D01*
X12264318Y-18872568D01*
X12250032Y-18815425D01*
X12250032Y-18743996D01*
X12264318Y-18686854D01*
X12278604Y-18658282D01*
X12292889Y-18643996D01*
X12321461Y-18629711D01*
X12550032Y-18901139D02*
X12564318Y-18915425D01*
X12550032Y-18929711D01*
X12535747Y-18915425D01*
X12550032Y-18901139D01*
X12550032Y-18929711D01*
X12750032Y-18629711D02*
X12778604Y-18629711D01*
X12807175Y-18643996D01*
X12821461Y-18658282D01*
X12835747Y-18686854D01*
X12850032Y-18743996D01*
X12850032Y-18815425D01*
X12835747Y-18872568D01*
X12821461Y-18901139D01*
X12807175Y-18915425D01*
X12778604Y-18929711D01*
X12750032Y-18929711D01*
X12721461Y-18915425D01*
X12707175Y-18901139D01*
X12692889Y-18872568D01*
X12678604Y-18815425D01*
X12678604Y-18743996D01*
X12692889Y-18686854D01*
X12707175Y-18658282D01*
X12721461Y-18643996D01*
X12750032Y-18629711D01*
X12950032Y-18629711D02*
X13135747Y-18629711D01*
X13035747Y-18743996D01*
X13078604Y-18743996D01*
X13107175Y-18758282D01*
X13121461Y-18772568D01*
X13135747Y-18801139D01*
X13135747Y-18872568D01*
X13121461Y-18901139D01*
X13107175Y-18915425D01*
X13078604Y-18929711D01*
X12992889Y-18929711D01*
X12964318Y-18915425D01*
X12950032Y-18901139D01*
X13278604Y-18929711D02*
X13335747Y-18929711D01*
X13364318Y-18915425D01*
X13378604Y-18901139D01*
X13407175Y-18858282D01*
X13421461Y-18801139D01*
X13421461Y-18686854D01*
X13407175Y-18658282D01*
X13392889Y-18643996D01*
X13364318Y-18629711D01*
X13307175Y-18629711D01*
X13278604Y-18643996D01*
X13264318Y-18658282D01*
X13250032Y-18686854D01*
X13250032Y-18758282D01*
X13264318Y-18786854D01*
X13278604Y-18801139D01*
X13307175Y-18815425D01*
X13364318Y-18815425D01*
X13392889Y-18801139D01*
X13407175Y-18786854D01*
X13421461Y-18758282D01*
X13535747Y-18629711D02*
X13535747Y-18686854D01*
X13650032Y-18629711D02*
X13650032Y-18686854D01*
X14092889Y-19043996D02*
X14078604Y-19029711D01*
X14050032Y-18986854D01*
X14035747Y-18958282D01*
X14021461Y-18915425D01*
X14007175Y-18843996D01*
X14007175Y-18786854D01*
X14021461Y-18715425D01*
X14035747Y-18672568D01*
X14050032Y-18643996D01*
X14078604Y-18601139D01*
X14092889Y-18586854D01*
X14350032Y-18629711D02*
X14207175Y-18629711D01*
X14192889Y-18772568D01*
X14207175Y-18758282D01*
X14235747Y-18743996D01*
X14307175Y-18743996D01*
X14335747Y-18758282D01*
X14350032Y-18772568D01*
X14364318Y-18801139D01*
X14364318Y-18872568D01*
X14350032Y-18901139D01*
X14335747Y-18915425D01*
X14307175Y-18929711D01*
X14235747Y-18929711D01*
X14207175Y-18915425D01*
X14192889Y-18901139D01*
X14721461Y-18929711D02*
X14721461Y-18629711D01*
X14850032Y-18929711D02*
X14850032Y-18772568D01*
X14835747Y-18743996D01*
X14807175Y-18729711D01*
X14764318Y-18729711D01*
X14735747Y-18743996D01*
X14721461Y-18758282D01*
X15035747Y-18929711D02*
X15007175Y-18915425D01*
X14992889Y-18901139D01*
X14978604Y-18872568D01*
X14978604Y-18786854D01*
X14992889Y-18758282D01*
X15007175Y-18743996D01*
X15035747Y-18729711D01*
X15078604Y-18729711D01*
X15107175Y-18743996D01*
X15121461Y-18758282D01*
X15135747Y-18786854D01*
X15135747Y-18872568D01*
X15121461Y-18901139D01*
X15107175Y-18915425D01*
X15078604Y-18929711D01*
X15035747Y-18929711D01*
X15307175Y-18929711D02*
X15278604Y-18915425D01*
X15264318Y-18886854D01*
X15264318Y-18629711D01*
X15535747Y-18915425D02*
X15507175Y-18929711D01*
X15450032Y-18929711D01*
X15421461Y-18915425D01*
X15407175Y-18886854D01*
X15407175Y-18772568D01*
X15421461Y-18743996D01*
X15450032Y-18729711D01*
X15507175Y-18729711D01*
X15535747Y-18743996D01*
X15550032Y-18772568D01*
X15550032Y-18801139D01*
X15407175Y-18829711D01*
X15664318Y-18915425D02*
X15692889Y-18929711D01*
X15750032Y-18929711D01*
X15778604Y-18915425D01*
X15792889Y-18886854D01*
X15792889Y-18872568D01*
X15778604Y-18843996D01*
X15750032Y-18829711D01*
X15707175Y-18829711D01*
X15678604Y-18815425D01*
X15664318Y-18786854D01*
X15664318Y-18772568D01*
X15678604Y-18743996D01*
X15707175Y-18729711D01*
X15750032Y-18729711D01*
X15778604Y-18743996D01*
X15892889Y-19043996D02*
X15907175Y-19029711D01*
X15935747Y-18986854D01*
X15950032Y-18958282D01*
X15964318Y-18915425D01*
X15978604Y-18843996D01*
X15978604Y-18786854D01*
X15964318Y-18715425D01*
X15950032Y-18672568D01*
X15935747Y-18643996D01*
X15907175Y-18601139D01*
X15892889Y-18586854D01*
X16435747Y-19043996D02*
X16421461Y-19029711D01*
X16392889Y-18986854D01*
X16378604Y-18958282D01*
X16364318Y-18915425D01*
X16350032Y-18843996D01*
X16350032Y-18786854D01*
X16364318Y-18715425D01*
X16378604Y-18672568D01*
X16392889Y-18643996D01*
X16421461Y-18601139D01*
X16435747Y-18586854D01*
X16550032Y-18729711D02*
X16550032Y-18929711D01*
X16550032Y-18758282D02*
X16564318Y-18743996D01*
X16592889Y-18729711D01*
X16635747Y-18729711D01*
X16664318Y-18743996D01*
X16678604Y-18772568D01*
X16678604Y-18929711D01*
X16864318Y-18929711D02*
X16835747Y-18915425D01*
X16821461Y-18901139D01*
X16807175Y-18872568D01*
X16807175Y-18786854D01*
X16821461Y-18758282D01*
X16835747Y-18743996D01*
X16864318Y-18729711D01*
X16907175Y-18729711D01*
X16935747Y-18743996D01*
X16950032Y-18758282D01*
X16964318Y-18786854D01*
X16964318Y-18872568D01*
X16950032Y-18901139D01*
X16935747Y-18915425D01*
X16907175Y-18929711D01*
X16864318Y-18929711D01*
X17050032Y-18729711D02*
X17164318Y-18729711D01*
X17092889Y-18629711D02*
X17092889Y-18886854D01*
X17107175Y-18915425D01*
X17135747Y-18929711D01*
X17164318Y-18929711D01*
X17492889Y-18729711D02*
X17492889Y-19029711D01*
X17492889Y-18743996D02*
X17521461Y-18729711D01*
X17578604Y-18729711D01*
X17607175Y-18743996D01*
X17621461Y-18758282D01*
X17635747Y-18786854D01*
X17635747Y-18872568D01*
X17621461Y-18901139D01*
X17607175Y-18915425D01*
X17578604Y-18929711D01*
X17521461Y-18929711D01*
X17492889Y-18915425D01*
X17807175Y-18929711D02*
X17778604Y-18915425D01*
X17764318Y-18886854D01*
X17764318Y-18629711D01*
X18050032Y-18929711D02*
X18050032Y-18772568D01*
X18035747Y-18743996D01*
X18007175Y-18729711D01*
X17950032Y-18729711D01*
X17921461Y-18743996D01*
X18050032Y-18915425D02*
X18021461Y-18929711D01*
X17950032Y-18929711D01*
X17921461Y-18915425D01*
X17907175Y-18886854D01*
X17907175Y-18858282D01*
X17921461Y-18829711D01*
X17950032Y-18815425D01*
X18021461Y-18815425D01*
X18050032Y-18801139D01*
X18150032Y-18729711D02*
X18264318Y-18729711D01*
X18192889Y-18629711D02*
X18192889Y-18886854D01*
X18207175Y-18915425D01*
X18235747Y-18929711D01*
X18264318Y-18929711D01*
X18478604Y-18915425D02*
X18450032Y-18929711D01*
X18392889Y-18929711D01*
X18364318Y-18915425D01*
X18350032Y-18886854D01*
X18350032Y-18772568D01*
X18364318Y-18743996D01*
X18392889Y-18729711D01*
X18450032Y-18729711D01*
X18478604Y-18743996D01*
X18492889Y-18772568D01*
X18492889Y-18801139D01*
X18350032Y-18829711D01*
X18750032Y-18929711D02*
X18750032Y-18629711D01*
X18750032Y-18915425D02*
X18721461Y-18929711D01*
X18664318Y-18929711D01*
X18635747Y-18915425D01*
X18621461Y-18901139D01*
X18607175Y-18872568D01*
X18607175Y-18786854D01*
X18621461Y-18758282D01*
X18635747Y-18743996D01*
X18664318Y-18729711D01*
X18721461Y-18729711D01*
X18750032Y-18743996D01*
X18864318Y-19043996D02*
X18878604Y-19029711D01*
X18907175Y-18986854D01*
X18921461Y-18958282D01*
X18935747Y-18915425D01*
X18950032Y-18843996D01*
X18950032Y-18786854D01*
X18935747Y-18715425D01*
X18921461Y-18672568D01*
X18907175Y-18643996D01*
X18878604Y-18601139D01*
X18864318Y-18586854D01*
X9296461Y-19079996D02*
X9296461Y-19299996D01*
X9186461Y-19189996D02*
X9406461Y-19189996D01*
X9406461Y-19189996D02*
G75*
G03X9406461Y-19189996I-110000J0D01*
G01*
X9678604Y-19054282D02*
X9692889Y-19039996D01*
X9721461Y-19025711D01*
X9792889Y-19025711D01*
X9821461Y-19039996D01*
X9835747Y-19054282D01*
X9850032Y-19082854D01*
X9850032Y-19111425D01*
X9835747Y-19154282D01*
X9664318Y-19325711D01*
X9850032Y-19325711D01*
X9978604Y-19297139D02*
X9992889Y-19311425D01*
X9978604Y-19325711D01*
X9964318Y-19311425D01*
X9978604Y-19297139D01*
X9978604Y-19325711D01*
X10107175Y-19054282D02*
X10121461Y-19039996D01*
X10150032Y-19025711D01*
X10221461Y-19025711D01*
X10250032Y-19039996D01*
X10264318Y-19054282D01*
X10278604Y-19082854D01*
X10278604Y-19111425D01*
X10264318Y-19154282D01*
X10092889Y-19325711D01*
X10278604Y-19325711D01*
X10464318Y-19025711D02*
X10492889Y-19025711D01*
X10521461Y-19039996D01*
X10535747Y-19054282D01*
X10550032Y-19082854D01*
X10564318Y-19139996D01*
X10564318Y-19211425D01*
X10550032Y-19268568D01*
X10535747Y-19297139D01*
X10521461Y-19311425D01*
X10492889Y-19325711D01*
X10464318Y-19325711D01*
X10435747Y-19311425D01*
X10421461Y-19297139D01*
X10407175Y-19268568D01*
X10392889Y-19211425D01*
X10392889Y-19139996D01*
X10407175Y-19082854D01*
X10421461Y-19054282D01*
X10435747Y-19039996D01*
X10464318Y-19025711D01*
X10692889Y-19325711D02*
X10692889Y-19125711D01*
X10692889Y-19154282D02*
X10707175Y-19139996D01*
X10735747Y-19125711D01*
X10778604Y-19125711D01*
X10807175Y-19139996D01*
X10821461Y-19168568D01*
X10821461Y-19325711D01*
X10821461Y-19168568D02*
X10835747Y-19139996D01*
X10864318Y-19125711D01*
X10907175Y-19125711D01*
X10935747Y-19139996D01*
X10950032Y-19168568D01*
X10950032Y-19325711D01*
X11092889Y-19325711D02*
X11092889Y-19125711D01*
X11092889Y-19154282D02*
X11107175Y-19139996D01*
X11135747Y-19125711D01*
X11178604Y-19125711D01*
X11207175Y-19139996D01*
X11221461Y-19168568D01*
X11221461Y-19325711D01*
X11221461Y-19168568D02*
X11235747Y-19139996D01*
X11264318Y-19125711D01*
X11307175Y-19125711D01*
X11335747Y-19139996D01*
X11350032Y-19168568D01*
X11350032Y-19325711D01*
X11935747Y-19011425D02*
X11678604Y-19397139D01*
X12321461Y-19025711D02*
X12350032Y-19025711D01*
X12378604Y-19039996D01*
X12392889Y-19054282D01*
X12407175Y-19082854D01*
X12421461Y-19139996D01*
X12421461Y-19211425D01*
X12407175Y-19268568D01*
X12392889Y-19297139D01*
X12378604Y-19311425D01*
X12350032Y-19325711D01*
X12321461Y-19325711D01*
X12292889Y-19311425D01*
X12278604Y-19297139D01*
X12264318Y-19268568D01*
X12250032Y-19211425D01*
X12250032Y-19139996D01*
X12264318Y-19082854D01*
X12278604Y-19054282D01*
X12292889Y-19039996D01*
X12321461Y-19025711D01*
X12550032Y-19297139D02*
X12564318Y-19311425D01*
X12550032Y-19325711D01*
X12535747Y-19311425D01*
X12550032Y-19297139D01*
X12550032Y-19325711D01*
X12750032Y-19025711D02*
X12778604Y-19025711D01*
X12807175Y-19039996D01*
X12821461Y-19054282D01*
X12835747Y-19082854D01*
X12850032Y-19139996D01*
X12850032Y-19211425D01*
X12835747Y-19268568D01*
X12821461Y-19297139D01*
X12807175Y-19311425D01*
X12778604Y-19325711D01*
X12750032Y-19325711D01*
X12721461Y-19311425D01*
X12707175Y-19297139D01*
X12692889Y-19268568D01*
X12678604Y-19211425D01*
X12678604Y-19139996D01*
X12692889Y-19082854D01*
X12707175Y-19054282D01*
X12721461Y-19039996D01*
X12750032Y-19025711D01*
X13021461Y-19154282D02*
X12992889Y-19139996D01*
X12978604Y-19125711D01*
X12964318Y-19097139D01*
X12964318Y-19082854D01*
X12978604Y-19054282D01*
X12992889Y-19039996D01*
X13021461Y-19025711D01*
X13078604Y-19025711D01*
X13107175Y-19039996D01*
X13121461Y-19054282D01*
X13135747Y-19082854D01*
X13135747Y-19097139D01*
X13121461Y-19125711D01*
X13107175Y-19139996D01*
X13078604Y-19154282D01*
X13021461Y-19154282D01*
X12992889Y-19168568D01*
X12978604Y-19182854D01*
X12964318Y-19211425D01*
X12964318Y-19268568D01*
X12978604Y-19297139D01*
X12992889Y-19311425D01*
X13021461Y-19325711D01*
X13078604Y-19325711D01*
X13107175Y-19311425D01*
X13121461Y-19297139D01*
X13135747Y-19268568D01*
X13135747Y-19211425D01*
X13121461Y-19182854D01*
X13107175Y-19168568D01*
X13078604Y-19154282D01*
X13235747Y-19025711D02*
X13435747Y-19025711D01*
X13307175Y-19325711D01*
X13535747Y-19025711D02*
X13535747Y-19082854D01*
X13650032Y-19025711D02*
X13650032Y-19082854D01*
X14092889Y-19439996D02*
X14078604Y-19425711D01*
X14050032Y-19382854D01*
X14035747Y-19354282D01*
X14021461Y-19311425D01*
X14007175Y-19239996D01*
X14007175Y-19182854D01*
X14021461Y-19111425D01*
X14035747Y-19068568D01*
X14050032Y-19039996D01*
X14078604Y-18997139D01*
X14092889Y-18982854D01*
X14335747Y-19125711D02*
X14335747Y-19325711D01*
X14264318Y-19011425D02*
X14192889Y-19225711D01*
X14378604Y-19225711D01*
X14721461Y-19325711D02*
X14721461Y-19025711D01*
X14850032Y-19325711D02*
X14850032Y-19168568D01*
X14835747Y-19139996D01*
X14807175Y-19125711D01*
X14764318Y-19125711D01*
X14735747Y-19139996D01*
X14721461Y-19154282D01*
X15035747Y-19325711D02*
X15007175Y-19311425D01*
X14992889Y-19297139D01*
X14978604Y-19268568D01*
X14978604Y-19182854D01*
X14992889Y-19154282D01*
X15007175Y-19139996D01*
X15035747Y-19125711D01*
X15078604Y-19125711D01*
X15107175Y-19139996D01*
X15121461Y-19154282D01*
X15135747Y-19182854D01*
X15135747Y-19268568D01*
X15121461Y-19297139D01*
X15107175Y-19311425D01*
X15078604Y-19325711D01*
X15035747Y-19325711D01*
X15307175Y-19325711D02*
X15278604Y-19311425D01*
X15264318Y-19282854D01*
X15264318Y-19025711D01*
X15535747Y-19311425D02*
X15507175Y-19325711D01*
X15450032Y-19325711D01*
X15421461Y-19311425D01*
X15407175Y-19282854D01*
X15407175Y-19168568D01*
X15421461Y-19139996D01*
X15450032Y-19125711D01*
X15507175Y-19125711D01*
X15535747Y-19139996D01*
X15550032Y-19168568D01*
X15550032Y-19197139D01*
X15407175Y-19225711D01*
X15664318Y-19311425D02*
X15692889Y-19325711D01*
X15750032Y-19325711D01*
X15778604Y-19311425D01*
X15792889Y-19282854D01*
X15792889Y-19268568D01*
X15778604Y-19239996D01*
X15750032Y-19225711D01*
X15707175Y-19225711D01*
X15678604Y-19211425D01*
X15664318Y-19182854D01*
X15664318Y-19168568D01*
X15678604Y-19139996D01*
X15707175Y-19125711D01*
X15750032Y-19125711D01*
X15778604Y-19139996D01*
X15892889Y-19439996D02*
X15907175Y-19425711D01*
X15935747Y-19382854D01*
X15950032Y-19354282D01*
X15964318Y-19311425D01*
X15978604Y-19239996D01*
X15978604Y-19182854D01*
X15964318Y-19111425D01*
X15950032Y-19068568D01*
X15935747Y-19039996D01*
X15907175Y-18997139D01*
X15892889Y-18982854D01*
X16435747Y-19439996D02*
X16421461Y-19425711D01*
X16392889Y-19382854D01*
X16378604Y-19354282D01*
X16364318Y-19311425D01*
X16350032Y-19239996D01*
X16350032Y-19182854D01*
X16364318Y-19111425D01*
X16378604Y-19068568D01*
X16392889Y-19039996D01*
X16421461Y-18997139D01*
X16435747Y-18982854D01*
X16550032Y-19125711D02*
X16550032Y-19325711D01*
X16550032Y-19154282D02*
X16564318Y-19139996D01*
X16592889Y-19125711D01*
X16635747Y-19125711D01*
X16664318Y-19139996D01*
X16678604Y-19168568D01*
X16678604Y-19325711D01*
X16864318Y-19325711D02*
X16835747Y-19311425D01*
X16821461Y-19297139D01*
X16807175Y-19268568D01*
X16807175Y-19182854D01*
X16821461Y-19154282D01*
X16835747Y-19139996D01*
X16864318Y-19125711D01*
X16907175Y-19125711D01*
X16935747Y-19139996D01*
X16950032Y-19154282D01*
X16964318Y-19182854D01*
X16964318Y-19268568D01*
X16950032Y-19297139D01*
X16935747Y-19311425D01*
X16907175Y-19325711D01*
X16864318Y-19325711D01*
X17050032Y-19125711D02*
X17164318Y-19125711D01*
X17092889Y-19025711D02*
X17092889Y-19282854D01*
X17107175Y-19311425D01*
X17135747Y-19325711D01*
X17164318Y-19325711D01*
X17492889Y-19125711D02*
X17492889Y-19425711D01*
X17492889Y-19139996D02*
X17521461Y-19125711D01*
X17578604Y-19125711D01*
X17607175Y-19139996D01*
X17621461Y-19154282D01*
X17635747Y-19182854D01*
X17635747Y-19268568D01*
X17621461Y-19297139D01*
X17607175Y-19311425D01*
X17578604Y-19325711D01*
X17521461Y-19325711D01*
X17492889Y-19311425D01*
X17807175Y-19325711D02*
X17778604Y-19311425D01*
X17764318Y-19282854D01*
X17764318Y-19025711D01*
X18050032Y-19325711D02*
X18050032Y-19168568D01*
X18035747Y-19139996D01*
X18007175Y-19125711D01*
X17950032Y-19125711D01*
X17921461Y-19139996D01*
X18050032Y-19311425D02*
X18021461Y-19325711D01*
X17950032Y-19325711D01*
X17921461Y-19311425D01*
X17907175Y-19282854D01*
X17907175Y-19254282D01*
X17921461Y-19225711D01*
X17950032Y-19211425D01*
X18021461Y-19211425D01*
X18050032Y-19197139D01*
X18150032Y-19125711D02*
X18264318Y-19125711D01*
X18192889Y-19025711D02*
X18192889Y-19282854D01*
X18207175Y-19311425D01*
X18235747Y-19325711D01*
X18264318Y-19325711D01*
X18478604Y-19311425D02*
X18450032Y-19325711D01*
X18392889Y-19325711D01*
X18364318Y-19311425D01*
X18350032Y-19282854D01*
X18350032Y-19168568D01*
X18364318Y-19139996D01*
X18392889Y-19125711D01*
X18450032Y-19125711D01*
X18478604Y-19139996D01*
X18492889Y-19168568D01*
X18492889Y-19197139D01*
X18350032Y-19225711D01*
X18750032Y-19325711D02*
X18750032Y-19025711D01*
X18750032Y-19311425D02*
X18721461Y-19325711D01*
X18664318Y-19325711D01*
X18635747Y-19311425D01*
X18621461Y-19297139D01*
X18607175Y-19268568D01*
X18607175Y-19182854D01*
X18621461Y-19154282D01*
X18635747Y-19139996D01*
X18664318Y-19125711D01*
X18721461Y-19125711D01*
X18750032Y-19139996D01*
X18864318Y-19439996D02*
X18878604Y-19425711D01*
X18907175Y-19382854D01*
X18921461Y-19354282D01*
X18935747Y-19311425D01*
X18950032Y-19239996D01*
X18950032Y-19182854D01*
X18935747Y-19111425D01*
X18921461Y-19068568D01*
X18907175Y-19039996D01*
X18878604Y-18997139D01*
X18864318Y-18982854D01*
X9369850Y-19674386D02*
X9369850Y-19497607D01*
X9193072Y-19497607D01*
X9193072Y-19674386D01*
X9369850Y-19674386D01*
X9406461Y-19585996D02*
G75*
G03X9406461Y-19585996I-125000J0D01*
G01*
X9678604Y-19450282D02*
X9692889Y-19435996D01*
X9721461Y-19421711D01*
X9792889Y-19421711D01*
X9821461Y-19435996D01*
X9835747Y-19450282D01*
X9850032Y-19478854D01*
X9850032Y-19507425D01*
X9835747Y-19550282D01*
X9664318Y-19721711D01*
X9850032Y-19721711D01*
X9978604Y-19693139D02*
X9992889Y-19707425D01*
X9978604Y-19721711D01*
X9964318Y-19707425D01*
X9978604Y-19693139D01*
X9978604Y-19721711D01*
X10264318Y-19421711D02*
X10121461Y-19421711D01*
X10107175Y-19564568D01*
X10121461Y-19550282D01*
X10150032Y-19535996D01*
X10221461Y-19535996D01*
X10250032Y-19550282D01*
X10264318Y-19564568D01*
X10278604Y-19593139D01*
X10278604Y-19664568D01*
X10264318Y-19693139D01*
X10250032Y-19707425D01*
X10221461Y-19721711D01*
X10150032Y-19721711D01*
X10121461Y-19707425D01*
X10107175Y-19693139D01*
X10464318Y-19421711D02*
X10492889Y-19421711D01*
X10521461Y-19435996D01*
X10535747Y-19450282D01*
X10550032Y-19478854D01*
X10564318Y-19535996D01*
X10564318Y-19607425D01*
X10550032Y-19664568D01*
X10535747Y-19693139D01*
X10521461Y-19707425D01*
X10492889Y-19721711D01*
X10464318Y-19721711D01*
X10435747Y-19707425D01*
X10421461Y-19693139D01*
X10407175Y-19664568D01*
X10392889Y-19607425D01*
X10392889Y-19535996D01*
X10407175Y-19478854D01*
X10421461Y-19450282D01*
X10435747Y-19435996D01*
X10464318Y-19421711D01*
X10692889Y-19721711D02*
X10692889Y-19521711D01*
X10692889Y-19550282D02*
X10707175Y-19535996D01*
X10735747Y-19521711D01*
X10778604Y-19521711D01*
X10807175Y-19535996D01*
X10821461Y-19564568D01*
X10821461Y-19721711D01*
X10821461Y-19564568D02*
X10835747Y-19535996D01*
X10864318Y-19521711D01*
X10907175Y-19521711D01*
X10935747Y-19535996D01*
X10950032Y-19564568D01*
X10950032Y-19721711D01*
X11092889Y-19721711D02*
X11092889Y-19521711D01*
X11092889Y-19550282D02*
X11107175Y-19535996D01*
X11135747Y-19521711D01*
X11178604Y-19521711D01*
X11207175Y-19535996D01*
X11221461Y-19564568D01*
X11221461Y-19721711D01*
X11221461Y-19564568D02*
X11235747Y-19535996D01*
X11264318Y-19521711D01*
X11307175Y-19521711D01*
X11335747Y-19535996D01*
X11350032Y-19564568D01*
X11350032Y-19721711D01*
X11935747Y-19407425D02*
X11678604Y-19793139D01*
X12321461Y-19421711D02*
X12350032Y-19421711D01*
X12378604Y-19435996D01*
X12392889Y-19450282D01*
X12407175Y-19478854D01*
X12421461Y-19535996D01*
X12421461Y-19607425D01*
X12407175Y-19664568D01*
X12392889Y-19693139D01*
X12378604Y-19707425D01*
X12350032Y-19721711D01*
X12321461Y-19721711D01*
X12292889Y-19707425D01*
X12278604Y-19693139D01*
X12264318Y-19664568D01*
X12250032Y-19607425D01*
X12250032Y-19535996D01*
X12264318Y-19478854D01*
X12278604Y-19450282D01*
X12292889Y-19435996D01*
X12321461Y-19421711D01*
X12550032Y-19693139D02*
X12564318Y-19707425D01*
X12550032Y-19721711D01*
X12535747Y-19707425D01*
X12550032Y-19693139D01*
X12550032Y-19721711D01*
X12750032Y-19421711D02*
X12778604Y-19421711D01*
X12807175Y-19435996D01*
X12821461Y-19450282D01*
X12835747Y-19478854D01*
X12850032Y-19535996D01*
X12850032Y-19607425D01*
X12835747Y-19664568D01*
X12821461Y-19693139D01*
X12807175Y-19707425D01*
X12778604Y-19721711D01*
X12750032Y-19721711D01*
X12721461Y-19707425D01*
X12707175Y-19693139D01*
X12692889Y-19664568D01*
X12678604Y-19607425D01*
X12678604Y-19535996D01*
X12692889Y-19478854D01*
X12707175Y-19450282D01*
X12721461Y-19435996D01*
X12750032Y-19421711D01*
X12992889Y-19721711D02*
X13050032Y-19721711D01*
X13078604Y-19707425D01*
X13092889Y-19693139D01*
X13121461Y-19650282D01*
X13135747Y-19593139D01*
X13135747Y-19478854D01*
X13121461Y-19450282D01*
X13107175Y-19435996D01*
X13078604Y-19421711D01*
X13021461Y-19421711D01*
X12992889Y-19435996D01*
X12978604Y-19450282D01*
X12964318Y-19478854D01*
X12964318Y-19550282D01*
X12978604Y-19578854D01*
X12992889Y-19593139D01*
X13021461Y-19607425D01*
X13078604Y-19607425D01*
X13107175Y-19593139D01*
X13121461Y-19578854D01*
X13135747Y-19550282D01*
X13307175Y-19550282D02*
X13278604Y-19535996D01*
X13264318Y-19521711D01*
X13250032Y-19493139D01*
X13250032Y-19478854D01*
X13264318Y-19450282D01*
X13278604Y-19435996D01*
X13307175Y-19421711D01*
X13364318Y-19421711D01*
X13392889Y-19435996D01*
X13407175Y-19450282D01*
X13421461Y-19478854D01*
X13421461Y-19493139D01*
X13407175Y-19521711D01*
X13392889Y-19535996D01*
X13364318Y-19550282D01*
X13307175Y-19550282D01*
X13278604Y-19564568D01*
X13264318Y-19578854D01*
X13250032Y-19607425D01*
X13250032Y-19664568D01*
X13264318Y-19693139D01*
X13278604Y-19707425D01*
X13307175Y-19721711D01*
X13364318Y-19721711D01*
X13392889Y-19707425D01*
X13407175Y-19693139D01*
X13421461Y-19664568D01*
X13421461Y-19607425D01*
X13407175Y-19578854D01*
X13392889Y-19564568D01*
X13364318Y-19550282D01*
X13535747Y-19421711D02*
X13535747Y-19478854D01*
X13650032Y-19421711D02*
X13650032Y-19478854D01*
X14092889Y-19835996D02*
X14078604Y-19821711D01*
X14050032Y-19778854D01*
X14035747Y-19750282D01*
X14021461Y-19707425D01*
X14007175Y-19635996D01*
X14007175Y-19578854D01*
X14021461Y-19507425D01*
X14035747Y-19464568D01*
X14050032Y-19435996D01*
X14078604Y-19393139D01*
X14092889Y-19378854D01*
X14364318Y-19721711D02*
X14192889Y-19721711D01*
X14278604Y-19721711D02*
X14278604Y-19421711D01*
X14250032Y-19464568D01*
X14221461Y-19493139D01*
X14192889Y-19507425D01*
X14550032Y-19421711D02*
X14578604Y-19421711D01*
X14607175Y-19435996D01*
X14621461Y-19450282D01*
X14635747Y-19478854D01*
X14650032Y-19535996D01*
X14650032Y-19607425D01*
X14635747Y-19664568D01*
X14621461Y-19693139D01*
X14607175Y-19707425D01*
X14578604Y-19721711D01*
X14550032Y-19721711D01*
X14521461Y-19707425D01*
X14507175Y-19693139D01*
X14492889Y-19664568D01*
X14478604Y-19607425D01*
X14478604Y-19535996D01*
X14492889Y-19478854D01*
X14507175Y-19450282D01*
X14521461Y-19435996D01*
X14550032Y-19421711D01*
X15007175Y-19721711D02*
X15007175Y-19421711D01*
X15135747Y-19721711D02*
X15135747Y-19564568D01*
X15121461Y-19535996D01*
X15092889Y-19521711D01*
X15050032Y-19521711D01*
X15021461Y-19535996D01*
X15007175Y-19550282D01*
X15321461Y-19721711D02*
X15292889Y-19707425D01*
X15278604Y-19693139D01*
X15264318Y-19664568D01*
X15264318Y-19578854D01*
X15278604Y-19550282D01*
X15292889Y-19535996D01*
X15321461Y-19521711D01*
X15364318Y-19521711D01*
X15392889Y-19535996D01*
X15407175Y-19550282D01*
X15421461Y-19578854D01*
X15421461Y-19664568D01*
X15407175Y-19693139D01*
X15392889Y-19707425D01*
X15364318Y-19721711D01*
X15321461Y-19721711D01*
X15592889Y-19721711D02*
X15564318Y-19707425D01*
X15550032Y-19678854D01*
X15550032Y-19421711D01*
X15821461Y-19707425D02*
X15792889Y-19721711D01*
X15735747Y-19721711D01*
X15707175Y-19707425D01*
X15692889Y-19678854D01*
X15692889Y-19564568D01*
X15707175Y-19535996D01*
X15735747Y-19521711D01*
X15792889Y-19521711D01*
X15821461Y-19535996D01*
X15835747Y-19564568D01*
X15835747Y-19593139D01*
X15692889Y-19621711D01*
X15950032Y-19707425D02*
X15978604Y-19721711D01*
X16035747Y-19721711D01*
X16064318Y-19707425D01*
X16078604Y-19678854D01*
X16078604Y-19664568D01*
X16064318Y-19635996D01*
X16035747Y-19621711D01*
X15992889Y-19621711D01*
X15964318Y-19607425D01*
X15950032Y-19578854D01*
X15950032Y-19564568D01*
X15964318Y-19535996D01*
X15992889Y-19521711D01*
X16035747Y-19521711D01*
X16064318Y-19535996D01*
X16178604Y-19835996D02*
X16192889Y-19821711D01*
X16221461Y-19778854D01*
X16235747Y-19750282D01*
X16250032Y-19707425D01*
X16264318Y-19635996D01*
X16264318Y-19578854D01*
X16250032Y-19507425D01*
X16235747Y-19464568D01*
X16221461Y-19435996D01*
X16192889Y-19393139D01*
X16178604Y-19378854D01*
X16721461Y-19835996D02*
X16707175Y-19821711D01*
X16678604Y-19778854D01*
X16664318Y-19750282D01*
X16650032Y-19707425D01*
X16635747Y-19635996D01*
X16635747Y-19578854D01*
X16650032Y-19507425D01*
X16664318Y-19464568D01*
X16678604Y-19435996D01*
X16707175Y-19393139D01*
X16721461Y-19378854D01*
X16835747Y-19521711D02*
X16835747Y-19721711D01*
X16835747Y-19550282D02*
X16850032Y-19535996D01*
X16878604Y-19521711D01*
X16921461Y-19521711D01*
X16950032Y-19535996D01*
X16964318Y-19564568D01*
X16964318Y-19721711D01*
X17150032Y-19721711D02*
X17121461Y-19707425D01*
X17107175Y-19693139D01*
X17092889Y-19664568D01*
X17092889Y-19578854D01*
X17107175Y-19550282D01*
X17121461Y-19535996D01*
X17150032Y-19521711D01*
X17192889Y-19521711D01*
X17221461Y-19535996D01*
X17235747Y-19550282D01*
X17250032Y-19578854D01*
X17250032Y-19664568D01*
X17235747Y-19693139D01*
X17221461Y-19707425D01*
X17192889Y-19721711D01*
X17150032Y-19721711D01*
X17335747Y-19521711D02*
X17450032Y-19521711D01*
X17378604Y-19421711D02*
X17378604Y-19678854D01*
X17392889Y-19707425D01*
X17421461Y-19721711D01*
X17450032Y-19721711D01*
X17778604Y-19521711D02*
X17778604Y-19821711D01*
X17778604Y-19535996D02*
X17807175Y-19521711D01*
X17864318Y-19521711D01*
X17892889Y-19535996D01*
X17907175Y-19550282D01*
X17921461Y-19578854D01*
X17921461Y-19664568D01*
X17907175Y-19693139D01*
X17892889Y-19707425D01*
X17864318Y-19721711D01*
X17807175Y-19721711D01*
X17778604Y-19707425D01*
X18092889Y-19721711D02*
X18064318Y-19707425D01*
X18050032Y-19678854D01*
X18050032Y-19421711D01*
X18335747Y-19721711D02*
X18335747Y-19564568D01*
X18321461Y-19535996D01*
X18292889Y-19521711D01*
X18235747Y-19521711D01*
X18207175Y-19535996D01*
X18335747Y-19707425D02*
X18307175Y-19721711D01*
X18235747Y-19721711D01*
X18207175Y-19707425D01*
X18192889Y-19678854D01*
X18192889Y-19650282D01*
X18207175Y-19621711D01*
X18235747Y-19607425D01*
X18307175Y-19607425D01*
X18335747Y-19593139D01*
X18435747Y-19521711D02*
X18550032Y-19521711D01*
X18478604Y-19421711D02*
X18478604Y-19678854D01*
X18492889Y-19707425D01*
X18521461Y-19721711D01*
X18550032Y-19721711D01*
X18764318Y-19707425D02*
X18735747Y-19721711D01*
X18678604Y-19721711D01*
X18650032Y-19707425D01*
X18635747Y-19678854D01*
X18635747Y-19564568D01*
X18650032Y-19535996D01*
X18678604Y-19521711D01*
X18735747Y-19521711D01*
X18764318Y-19535996D01*
X18778604Y-19564568D01*
X18778604Y-19593139D01*
X18635747Y-19621711D01*
X19035747Y-19721711D02*
X19035747Y-19421711D01*
X19035747Y-19707425D02*
X19007175Y-19721711D01*
X18950032Y-19721711D01*
X18921461Y-19707425D01*
X18907175Y-19693139D01*
X18892889Y-19664568D01*
X18892889Y-19578854D01*
X18907175Y-19550282D01*
X18921461Y-19535996D01*
X18950032Y-19521711D01*
X19007175Y-19521711D01*
X19035747Y-19535996D01*
X19150032Y-19835996D02*
X19164318Y-19821711D01*
X19192889Y-19778854D01*
X19207175Y-19750282D01*
X19221461Y-19707425D01*
X19235747Y-19635996D01*
X19235747Y-19578854D01*
X19221461Y-19507425D01*
X19207175Y-19464568D01*
X19192889Y-19435996D01*
X19164318Y-19393139D01*
X19150032Y-19378854D01*
M02*
