%TF.GenerationSoftware,KiCad,Pcbnew,5.1.10-88a1d61d58~90~ubuntu20.04.1*%
%TF.CreationDate,2021-11-17T23:21:55+05:30*%
%TF.ProjectId,Meshmerize,4d657368-6d65-4726-997a-652e6b696361,rev?*%
%TF.SameCoordinates,Original*%
%TF.FileFunction,Soldermask,Top*%
%TF.FilePolarity,Negative*%
%FSLAX46Y46*%
G04 Gerber Fmt 4.6, Leading zero omitted, Abs format (unit mm)*
G04 Created by KiCad (PCBNEW 5.1.10-88a1d61d58~90~ubuntu20.04.1) date 2021-11-17 23:21:55*
%MOMM*%
%LPD*%
G01*
G04 APERTURE LIST*
%ADD10C,1.218000*%
%ADD11R,1.218000X1.218000*%
%ADD12R,3.600000X2.700000*%
%ADD13C,1.560000*%
%ADD14R,1.560000X1.560000*%
%ADD15R,1.308000X1.308000*%
%ADD16C,1.308000*%
%ADD17R,3.180000X2.250000*%
%ADD18C,1.524000*%
%ADD19C,2.500000*%
%ADD20C,1.000000*%
%ADD21C,1.500000*%
%ADD22R,1.524000X1.524000*%
%ADD23C,3.406000*%
%ADD24C,4.466000*%
%ADD25R,6.350000X7.350000*%
%ADD26R,0.650000X1.060000*%
%ADD27C,2.200000*%
%ADD28O,1.700000X1.700000*%
%ADD29R,1.700000X1.700000*%
G04 APERTURE END LIST*
D10*
%TO.C,RV2*%
X188239400Y-63601600D03*
X185699400Y-63601600D03*
D11*
X183159400Y-63601600D03*
%TD*%
D12*
%TO.C,L1*%
X159931100Y-89417800D03*
X159931100Y-81117800D03*
%TD*%
D13*
%TO.C,U2*%
X133893560Y-116028400D03*
X133893560Y-113488400D03*
X133893560Y-110948400D03*
X133893560Y-108408400D03*
X133893560Y-105868400D03*
X133893560Y-103328400D03*
X133893560Y-100788400D03*
X133893560Y-98248400D03*
X133893560Y-95708400D03*
X133893560Y-93168400D03*
X133893560Y-90628400D03*
X133893560Y-88088400D03*
X133893560Y-85548400D03*
X133893560Y-83008400D03*
X133893560Y-80468400D03*
X133893560Y-77928400D03*
X133893560Y-75388400D03*
X133893560Y-72848400D03*
X133893560Y-70308400D03*
X108493560Y-113488400D03*
X108493560Y-110948400D03*
X108493560Y-108408400D03*
X108493560Y-105868400D03*
X108493560Y-103328400D03*
X108493560Y-100788400D03*
X108493560Y-98248400D03*
X108493560Y-95708400D03*
X108493560Y-93168400D03*
X108493560Y-90628400D03*
X108493560Y-88088400D03*
X108493560Y-85548400D03*
X108493560Y-83008400D03*
X108493560Y-80468400D03*
X108493560Y-77928400D03*
X108493560Y-75388400D03*
X108493560Y-116028400D03*
X108493560Y-72848400D03*
D14*
X108493560Y-70308400D03*
%TD*%
%TO.C,R15*%
G36*
G01*
X100243802Y-86492700D02*
X98993798Y-86492700D01*
G75*
G02*
X98743800Y-86242702I0J249998D01*
G01*
X98743800Y-85617698D01*
G75*
G02*
X98993798Y-85367700I249998J0D01*
G01*
X100243802Y-85367700D01*
G75*
G02*
X100493800Y-85617698I0J-249998D01*
G01*
X100493800Y-86242702D01*
G75*
G02*
X100243802Y-86492700I-249998J0D01*
G01*
G37*
G36*
G01*
X100243802Y-83567700D02*
X98993798Y-83567700D01*
G75*
G02*
X98743800Y-83317702I0J249998D01*
G01*
X98743800Y-82692698D01*
G75*
G02*
X98993798Y-82442700I249998J0D01*
G01*
X100243802Y-82442700D01*
G75*
G02*
X100493800Y-82692698I0J-249998D01*
G01*
X100493800Y-83317702D01*
G75*
G02*
X100243802Y-83567700I-249998J0D01*
G01*
G37*
%TD*%
%TO.C,U1*%
G36*
G01*
X178602500Y-66143000D02*
X178902500Y-66143000D01*
G75*
G02*
X179052500Y-66293000I0J-150000D01*
G01*
X179052500Y-67943000D01*
G75*
G02*
X178902500Y-68093000I-150000J0D01*
G01*
X178602500Y-68093000D01*
G75*
G02*
X178452500Y-67943000I0J150000D01*
G01*
X178452500Y-66293000D01*
G75*
G02*
X178602500Y-66143000I150000J0D01*
G01*
G37*
G36*
G01*
X177332500Y-66143000D02*
X177632500Y-66143000D01*
G75*
G02*
X177782500Y-66293000I0J-150000D01*
G01*
X177782500Y-67943000D01*
G75*
G02*
X177632500Y-68093000I-150000J0D01*
G01*
X177332500Y-68093000D01*
G75*
G02*
X177182500Y-67943000I0J150000D01*
G01*
X177182500Y-66293000D01*
G75*
G02*
X177332500Y-66143000I150000J0D01*
G01*
G37*
G36*
G01*
X176062500Y-66143000D02*
X176362500Y-66143000D01*
G75*
G02*
X176512500Y-66293000I0J-150000D01*
G01*
X176512500Y-67943000D01*
G75*
G02*
X176362500Y-68093000I-150000J0D01*
G01*
X176062500Y-68093000D01*
G75*
G02*
X175912500Y-67943000I0J150000D01*
G01*
X175912500Y-66293000D01*
G75*
G02*
X176062500Y-66143000I150000J0D01*
G01*
G37*
G36*
G01*
X174792500Y-66143000D02*
X175092500Y-66143000D01*
G75*
G02*
X175242500Y-66293000I0J-150000D01*
G01*
X175242500Y-67943000D01*
G75*
G02*
X175092500Y-68093000I-150000J0D01*
G01*
X174792500Y-68093000D01*
G75*
G02*
X174642500Y-67943000I0J150000D01*
G01*
X174642500Y-66293000D01*
G75*
G02*
X174792500Y-66143000I150000J0D01*
G01*
G37*
G36*
G01*
X173522500Y-66143000D02*
X173822500Y-66143000D01*
G75*
G02*
X173972500Y-66293000I0J-150000D01*
G01*
X173972500Y-67943000D01*
G75*
G02*
X173822500Y-68093000I-150000J0D01*
G01*
X173522500Y-68093000D01*
G75*
G02*
X173372500Y-67943000I0J150000D01*
G01*
X173372500Y-66293000D01*
G75*
G02*
X173522500Y-66143000I150000J0D01*
G01*
G37*
G36*
G01*
X172252500Y-66143000D02*
X172552500Y-66143000D01*
G75*
G02*
X172702500Y-66293000I0J-150000D01*
G01*
X172702500Y-67943000D01*
G75*
G02*
X172552500Y-68093000I-150000J0D01*
G01*
X172252500Y-68093000D01*
G75*
G02*
X172102500Y-67943000I0J150000D01*
G01*
X172102500Y-66293000D01*
G75*
G02*
X172252500Y-66143000I150000J0D01*
G01*
G37*
G36*
G01*
X170982500Y-66143000D02*
X171282500Y-66143000D01*
G75*
G02*
X171432500Y-66293000I0J-150000D01*
G01*
X171432500Y-67943000D01*
G75*
G02*
X171282500Y-68093000I-150000J0D01*
G01*
X170982500Y-68093000D01*
G75*
G02*
X170832500Y-67943000I0J150000D01*
G01*
X170832500Y-66293000D01*
G75*
G02*
X170982500Y-66143000I150000J0D01*
G01*
G37*
G36*
G01*
X170982500Y-61193000D02*
X171282500Y-61193000D01*
G75*
G02*
X171432500Y-61343000I0J-150000D01*
G01*
X171432500Y-62993000D01*
G75*
G02*
X171282500Y-63143000I-150000J0D01*
G01*
X170982500Y-63143000D01*
G75*
G02*
X170832500Y-62993000I0J150000D01*
G01*
X170832500Y-61343000D01*
G75*
G02*
X170982500Y-61193000I150000J0D01*
G01*
G37*
G36*
G01*
X172252500Y-61193000D02*
X172552500Y-61193000D01*
G75*
G02*
X172702500Y-61343000I0J-150000D01*
G01*
X172702500Y-62993000D01*
G75*
G02*
X172552500Y-63143000I-150000J0D01*
G01*
X172252500Y-63143000D01*
G75*
G02*
X172102500Y-62993000I0J150000D01*
G01*
X172102500Y-61343000D01*
G75*
G02*
X172252500Y-61193000I150000J0D01*
G01*
G37*
G36*
G01*
X173522500Y-61193000D02*
X173822500Y-61193000D01*
G75*
G02*
X173972500Y-61343000I0J-150000D01*
G01*
X173972500Y-62993000D01*
G75*
G02*
X173822500Y-63143000I-150000J0D01*
G01*
X173522500Y-63143000D01*
G75*
G02*
X173372500Y-62993000I0J150000D01*
G01*
X173372500Y-61343000D01*
G75*
G02*
X173522500Y-61193000I150000J0D01*
G01*
G37*
G36*
G01*
X174792500Y-61193000D02*
X175092500Y-61193000D01*
G75*
G02*
X175242500Y-61343000I0J-150000D01*
G01*
X175242500Y-62993000D01*
G75*
G02*
X175092500Y-63143000I-150000J0D01*
G01*
X174792500Y-63143000D01*
G75*
G02*
X174642500Y-62993000I0J150000D01*
G01*
X174642500Y-61343000D01*
G75*
G02*
X174792500Y-61193000I150000J0D01*
G01*
G37*
G36*
G01*
X176062500Y-61193000D02*
X176362500Y-61193000D01*
G75*
G02*
X176512500Y-61343000I0J-150000D01*
G01*
X176512500Y-62993000D01*
G75*
G02*
X176362500Y-63143000I-150000J0D01*
G01*
X176062500Y-63143000D01*
G75*
G02*
X175912500Y-62993000I0J150000D01*
G01*
X175912500Y-61343000D01*
G75*
G02*
X176062500Y-61193000I150000J0D01*
G01*
G37*
G36*
G01*
X177332500Y-61193000D02*
X177632500Y-61193000D01*
G75*
G02*
X177782500Y-61343000I0J-150000D01*
G01*
X177782500Y-62993000D01*
G75*
G02*
X177632500Y-63143000I-150000J0D01*
G01*
X177332500Y-63143000D01*
G75*
G02*
X177182500Y-62993000I0J150000D01*
G01*
X177182500Y-61343000D01*
G75*
G02*
X177332500Y-61193000I150000J0D01*
G01*
G37*
G36*
G01*
X178602500Y-61193000D02*
X178902500Y-61193000D01*
G75*
G02*
X179052500Y-61343000I0J-150000D01*
G01*
X179052500Y-62993000D01*
G75*
G02*
X178902500Y-63143000I-150000J0D01*
G01*
X178602500Y-63143000D01*
G75*
G02*
X178452500Y-62993000I0J150000D01*
G01*
X178452500Y-61343000D01*
G75*
G02*
X178602500Y-61193000I150000J0D01*
G01*
G37*
%TD*%
D15*
%TO.C,S2*%
X188328300Y-107226100D03*
D16*
X185788300Y-107226100D03*
X183248300Y-107226100D03*
X188328300Y-112306100D03*
X185788300Y-112306100D03*
X183248300Y-112306100D03*
%TD*%
D17*
%TO.C,D6*%
X169468800Y-98070000D03*
X169468800Y-91160000D03*
%TD*%
%TO.C,R6*%
G36*
G01*
X179580702Y-93833300D02*
X178330698Y-93833300D01*
G75*
G02*
X178080700Y-93583302I0J249998D01*
G01*
X178080700Y-92958298D01*
G75*
G02*
X178330698Y-92708300I249998J0D01*
G01*
X179580702Y-92708300D01*
G75*
G02*
X179830700Y-92958298I0J-249998D01*
G01*
X179830700Y-93583302D01*
G75*
G02*
X179580702Y-93833300I-249998J0D01*
G01*
G37*
G36*
G01*
X179580702Y-90908300D02*
X178330698Y-90908300D01*
G75*
G02*
X178080700Y-90658302I0J249998D01*
G01*
X178080700Y-90033298D01*
G75*
G02*
X178330698Y-89783300I249998J0D01*
G01*
X179580702Y-89783300D01*
G75*
G02*
X179830700Y-90033298I0J-249998D01*
G01*
X179830700Y-90658302D01*
G75*
G02*
X179580702Y-90908300I-249998J0D01*
G01*
G37*
%TD*%
%TO.C,R13*%
G36*
G01*
X181891100Y-128318098D02*
X181891100Y-129568102D01*
G75*
G02*
X181641102Y-129818100I-249998J0D01*
G01*
X181016098Y-129818100D01*
G75*
G02*
X180766100Y-129568102I0J249998D01*
G01*
X180766100Y-128318098D01*
G75*
G02*
X181016098Y-128068100I249998J0D01*
G01*
X181641102Y-128068100D01*
G75*
G02*
X181891100Y-128318098I0J-249998D01*
G01*
G37*
G36*
G01*
X184816100Y-128318098D02*
X184816100Y-129568102D01*
G75*
G02*
X184566102Y-129818100I-249998J0D01*
G01*
X183941098Y-129818100D01*
G75*
G02*
X183691100Y-129568102I0J249998D01*
G01*
X183691100Y-128318098D01*
G75*
G02*
X183941098Y-128068100I249998J0D01*
G01*
X184566102Y-128068100D01*
G75*
G02*
X184816100Y-128318098I0J-249998D01*
G01*
G37*
%TD*%
%TO.C,U9*%
G36*
G01*
X171409500Y-117283100D02*
X171109500Y-117283100D01*
G75*
G02*
X170959500Y-117133100I0J150000D01*
G01*
X170959500Y-115483100D01*
G75*
G02*
X171109500Y-115333100I150000J0D01*
G01*
X171409500Y-115333100D01*
G75*
G02*
X171559500Y-115483100I0J-150000D01*
G01*
X171559500Y-117133100D01*
G75*
G02*
X171409500Y-117283100I-150000J0D01*
G01*
G37*
G36*
G01*
X172679500Y-117283100D02*
X172379500Y-117283100D01*
G75*
G02*
X172229500Y-117133100I0J150000D01*
G01*
X172229500Y-115483100D01*
G75*
G02*
X172379500Y-115333100I150000J0D01*
G01*
X172679500Y-115333100D01*
G75*
G02*
X172829500Y-115483100I0J-150000D01*
G01*
X172829500Y-117133100D01*
G75*
G02*
X172679500Y-117283100I-150000J0D01*
G01*
G37*
G36*
G01*
X173949500Y-117283100D02*
X173649500Y-117283100D01*
G75*
G02*
X173499500Y-117133100I0J150000D01*
G01*
X173499500Y-115483100D01*
G75*
G02*
X173649500Y-115333100I150000J0D01*
G01*
X173949500Y-115333100D01*
G75*
G02*
X174099500Y-115483100I0J-150000D01*
G01*
X174099500Y-117133100D01*
G75*
G02*
X173949500Y-117283100I-150000J0D01*
G01*
G37*
G36*
G01*
X175219500Y-117283100D02*
X174919500Y-117283100D01*
G75*
G02*
X174769500Y-117133100I0J150000D01*
G01*
X174769500Y-115483100D01*
G75*
G02*
X174919500Y-115333100I150000J0D01*
G01*
X175219500Y-115333100D01*
G75*
G02*
X175369500Y-115483100I0J-150000D01*
G01*
X175369500Y-117133100D01*
G75*
G02*
X175219500Y-117283100I-150000J0D01*
G01*
G37*
G36*
G01*
X176489500Y-117283100D02*
X176189500Y-117283100D01*
G75*
G02*
X176039500Y-117133100I0J150000D01*
G01*
X176039500Y-115483100D01*
G75*
G02*
X176189500Y-115333100I150000J0D01*
G01*
X176489500Y-115333100D01*
G75*
G02*
X176639500Y-115483100I0J-150000D01*
G01*
X176639500Y-117133100D01*
G75*
G02*
X176489500Y-117283100I-150000J0D01*
G01*
G37*
G36*
G01*
X177759500Y-117283100D02*
X177459500Y-117283100D01*
G75*
G02*
X177309500Y-117133100I0J150000D01*
G01*
X177309500Y-115483100D01*
G75*
G02*
X177459500Y-115333100I150000J0D01*
G01*
X177759500Y-115333100D01*
G75*
G02*
X177909500Y-115483100I0J-150000D01*
G01*
X177909500Y-117133100D01*
G75*
G02*
X177759500Y-117283100I-150000J0D01*
G01*
G37*
G36*
G01*
X179029500Y-117283100D02*
X178729500Y-117283100D01*
G75*
G02*
X178579500Y-117133100I0J150000D01*
G01*
X178579500Y-115483100D01*
G75*
G02*
X178729500Y-115333100I150000J0D01*
G01*
X179029500Y-115333100D01*
G75*
G02*
X179179500Y-115483100I0J-150000D01*
G01*
X179179500Y-117133100D01*
G75*
G02*
X179029500Y-117283100I-150000J0D01*
G01*
G37*
G36*
G01*
X179029500Y-122233100D02*
X178729500Y-122233100D01*
G75*
G02*
X178579500Y-122083100I0J150000D01*
G01*
X178579500Y-120433100D01*
G75*
G02*
X178729500Y-120283100I150000J0D01*
G01*
X179029500Y-120283100D01*
G75*
G02*
X179179500Y-120433100I0J-150000D01*
G01*
X179179500Y-122083100D01*
G75*
G02*
X179029500Y-122233100I-150000J0D01*
G01*
G37*
G36*
G01*
X177759500Y-122233100D02*
X177459500Y-122233100D01*
G75*
G02*
X177309500Y-122083100I0J150000D01*
G01*
X177309500Y-120433100D01*
G75*
G02*
X177459500Y-120283100I150000J0D01*
G01*
X177759500Y-120283100D01*
G75*
G02*
X177909500Y-120433100I0J-150000D01*
G01*
X177909500Y-122083100D01*
G75*
G02*
X177759500Y-122233100I-150000J0D01*
G01*
G37*
G36*
G01*
X176489500Y-122233100D02*
X176189500Y-122233100D01*
G75*
G02*
X176039500Y-122083100I0J150000D01*
G01*
X176039500Y-120433100D01*
G75*
G02*
X176189500Y-120283100I150000J0D01*
G01*
X176489500Y-120283100D01*
G75*
G02*
X176639500Y-120433100I0J-150000D01*
G01*
X176639500Y-122083100D01*
G75*
G02*
X176489500Y-122233100I-150000J0D01*
G01*
G37*
G36*
G01*
X175219500Y-122233100D02*
X174919500Y-122233100D01*
G75*
G02*
X174769500Y-122083100I0J150000D01*
G01*
X174769500Y-120433100D01*
G75*
G02*
X174919500Y-120283100I150000J0D01*
G01*
X175219500Y-120283100D01*
G75*
G02*
X175369500Y-120433100I0J-150000D01*
G01*
X175369500Y-122083100D01*
G75*
G02*
X175219500Y-122233100I-150000J0D01*
G01*
G37*
G36*
G01*
X173949500Y-122233100D02*
X173649500Y-122233100D01*
G75*
G02*
X173499500Y-122083100I0J150000D01*
G01*
X173499500Y-120433100D01*
G75*
G02*
X173649500Y-120283100I150000J0D01*
G01*
X173949500Y-120283100D01*
G75*
G02*
X174099500Y-120433100I0J-150000D01*
G01*
X174099500Y-122083100D01*
G75*
G02*
X173949500Y-122233100I-150000J0D01*
G01*
G37*
G36*
G01*
X172679500Y-122233100D02*
X172379500Y-122233100D01*
G75*
G02*
X172229500Y-122083100I0J150000D01*
G01*
X172229500Y-120433100D01*
G75*
G02*
X172379500Y-120283100I150000J0D01*
G01*
X172679500Y-120283100D01*
G75*
G02*
X172829500Y-120433100I0J-150000D01*
G01*
X172829500Y-122083100D01*
G75*
G02*
X172679500Y-122233100I-150000J0D01*
G01*
G37*
G36*
G01*
X171409500Y-122233100D02*
X171109500Y-122233100D01*
G75*
G02*
X170959500Y-122083100I0J150000D01*
G01*
X170959500Y-120433100D01*
G75*
G02*
X171109500Y-120283100I150000J0D01*
G01*
X171409500Y-120283100D01*
G75*
G02*
X171559500Y-120433100I0J-150000D01*
G01*
X171559500Y-122083100D01*
G75*
G02*
X171409500Y-122233100I-150000J0D01*
G01*
G37*
%TD*%
D18*
%TO.C,M2*%
X154997920Y-109791220D03*
X146997920Y-109791220D03*
%TD*%
D19*
%TO.C,U8*%
X172011340Y-133372940D03*
X172011340Y-129572940D03*
D20*
X167361340Y-129022940D03*
D21*
X174761340Y-130202940D03*
X174761340Y-132742940D03*
X169261340Y-130202940D03*
X169261340Y-132742940D03*
%TD*%
D22*
%TO.C,TB1*%
X176469900Y-83810780D03*
D18*
X179009900Y-83810780D03*
X181549900Y-83810780D03*
X184089900Y-83810780D03*
X186629900Y-83810780D03*
X189169900Y-83810780D03*
X191709900Y-83810780D03*
X194249900Y-83810780D03*
X194249900Y-99050780D03*
X191709900Y-99050780D03*
X189169900Y-99050780D03*
X186629900Y-99050780D03*
X184089900Y-99050780D03*
X181549900Y-99050780D03*
X179009900Y-99050780D03*
X176469900Y-99050780D03*
%TD*%
%TO.C,M1*%
X155096980Y-72997340D03*
X147096980Y-72997340D03*
%TD*%
D23*
%TO.C,BT2*%
X129219100Y-55500780D03*
D24*
X113219100Y-63830780D03*
X129219100Y-119030780D03*
D25*
X121219100Y-52100780D03*
X121219100Y-130760780D03*
%TD*%
D15*
%TO.C,S1*%
X183413400Y-75907900D03*
D16*
X185953400Y-75907900D03*
X188493400Y-75907900D03*
X183413400Y-70827900D03*
X185953400Y-70827900D03*
X188493400Y-70827900D03*
%TD*%
D19*
%TO.C,U4*%
X197221700Y-73315580D03*
X197221700Y-69515580D03*
D20*
X192571700Y-68965580D03*
D21*
X199971700Y-70145580D03*
X199971700Y-72685580D03*
X194471700Y-70145580D03*
X194471700Y-72685580D03*
%TD*%
%TO.C,U3*%
X169408660Y-52644040D03*
X169408660Y-50104040D03*
X174908660Y-52644040D03*
X174908660Y-50104040D03*
D20*
X167508660Y-48924040D03*
D19*
X172158660Y-49474040D03*
X172158660Y-53274040D03*
%TD*%
D21*
%TO.C,U6*%
X199207940Y-92834460D03*
X199207940Y-90294460D03*
X204707940Y-92834460D03*
X204707940Y-90294460D03*
D20*
X197307940Y-89114460D03*
D19*
X201957940Y-89664460D03*
X201957940Y-93464460D03*
%TD*%
D21*
%TO.C,U7*%
X194370100Y-112715980D03*
X194370100Y-110175980D03*
X199870100Y-112715980D03*
X199870100Y-110175980D03*
D20*
X192470100Y-108995980D03*
D19*
X197120100Y-109545980D03*
X197120100Y-113345980D03*
%TD*%
%TO.C,C1*%
G36*
G01*
X166477500Y-83949201D02*
X166477500Y-81049199D01*
G75*
G02*
X166727499Y-80799200I249999J0D01*
G01*
X167627501Y-80799200D01*
G75*
G02*
X167877500Y-81049199I0J-249999D01*
G01*
X167877500Y-83949201D01*
G75*
G02*
X167627501Y-84199200I-249999J0D01*
G01*
X166727499Y-84199200D01*
G75*
G02*
X166477500Y-83949201I0J249999D01*
G01*
G37*
G36*
G01*
X170577500Y-83949201D02*
X170577500Y-81049199D01*
G75*
G02*
X170827499Y-80799200I249999J0D01*
G01*
X171727501Y-80799200D01*
G75*
G02*
X171977500Y-81049199I0J-249999D01*
G01*
X171977500Y-83949201D01*
G75*
G02*
X171727501Y-84199200I-249999J0D01*
G01*
X170827499Y-84199200D01*
G75*
G02*
X170577500Y-83949201I0J249999D01*
G01*
G37*
%TD*%
%TO.C,C2*%
G36*
G01*
X156866600Y-98625999D02*
X156866600Y-101526001D01*
G75*
G02*
X156616601Y-101776000I-249999J0D01*
G01*
X155716599Y-101776000D01*
G75*
G02*
X155466600Y-101526001I0J249999D01*
G01*
X155466600Y-98625999D01*
G75*
G02*
X155716599Y-98376000I249999J0D01*
G01*
X156616601Y-98376000D01*
G75*
G02*
X156866600Y-98625999I0J-249999D01*
G01*
G37*
G36*
G01*
X160966600Y-98625999D02*
X160966600Y-101526001D01*
G75*
G02*
X160716601Y-101776000I-249999J0D01*
G01*
X159816599Y-101776000D01*
G75*
G02*
X159566600Y-101526001I0J249999D01*
G01*
X159566600Y-98625999D01*
G75*
G02*
X159816599Y-98376000I249999J0D01*
G01*
X160716601Y-98376000D01*
G75*
G02*
X160966600Y-98625999I0J-249999D01*
G01*
G37*
%TD*%
%TO.C,R20*%
G36*
G01*
X163573298Y-95197500D02*
X164823302Y-95197500D01*
G75*
G02*
X165073300Y-95447498I0J-249998D01*
G01*
X165073300Y-96072502D01*
G75*
G02*
X164823302Y-96322500I-249998J0D01*
G01*
X163573298Y-96322500D01*
G75*
G02*
X163323300Y-96072502I0J249998D01*
G01*
X163323300Y-95447498D01*
G75*
G02*
X163573298Y-95197500I249998J0D01*
G01*
G37*
G36*
G01*
X163573298Y-92272500D02*
X164823302Y-92272500D01*
G75*
G02*
X165073300Y-92522498I0J-249998D01*
G01*
X165073300Y-93147502D01*
G75*
G02*
X164823302Y-93397500I-249998J0D01*
G01*
X163573298Y-93397500D01*
G75*
G02*
X163323300Y-93147502I0J249998D01*
G01*
X163323300Y-92522498D01*
G75*
G02*
X163573298Y-92272500I249998J0D01*
G01*
G37*
%TD*%
D10*
%TO.C,RV1*%
X154889200Y-94399100D03*
X157429200Y-94399100D03*
D11*
X159969200Y-94399100D03*
%TD*%
D26*
%TO.C,U5*%
X168097200Y-85971200D03*
X167147200Y-85971200D03*
X169047200Y-85971200D03*
X169047200Y-88171200D03*
X168097200Y-88171200D03*
X167147200Y-88171200D03*
%TD*%
%TO.C,D1*%
G36*
G01*
X95828500Y-93296900D02*
X95828500Y-92046900D01*
G75*
G02*
X96078500Y-91796900I250000J0D01*
G01*
X96828500Y-91796900D01*
G75*
G02*
X97078500Y-92046900I0J-250000D01*
G01*
X97078500Y-93296900D01*
G75*
G02*
X96828500Y-93546900I-250000J0D01*
G01*
X96078500Y-93546900D01*
G75*
G02*
X95828500Y-93296900I0J250000D01*
G01*
G37*
G36*
G01*
X98628500Y-93296900D02*
X98628500Y-92046900D01*
G75*
G02*
X98878500Y-91796900I250000J0D01*
G01*
X99628500Y-91796900D01*
G75*
G02*
X99878500Y-92046900I0J-250000D01*
G01*
X99878500Y-93296900D01*
G75*
G02*
X99628500Y-93546900I-250000J0D01*
G01*
X98878500Y-93546900D01*
G75*
G02*
X98628500Y-93296900I0J250000D01*
G01*
G37*
%TD*%
%TO.C,D2*%
G36*
G01*
X98526900Y-96192500D02*
X98526900Y-94942500D01*
G75*
G02*
X98776900Y-94692500I250000J0D01*
G01*
X99526900Y-94692500D01*
G75*
G02*
X99776900Y-94942500I0J-250000D01*
G01*
X99776900Y-96192500D01*
G75*
G02*
X99526900Y-96442500I-250000J0D01*
G01*
X98776900Y-96442500D01*
G75*
G02*
X98526900Y-96192500I0J250000D01*
G01*
G37*
G36*
G01*
X95726900Y-96192500D02*
X95726900Y-94942500D01*
G75*
G02*
X95976900Y-94692500I250000J0D01*
G01*
X96726900Y-94692500D01*
G75*
G02*
X96976900Y-94942500I0J-250000D01*
G01*
X96976900Y-96192500D01*
G75*
G02*
X96726900Y-96442500I-250000J0D01*
G01*
X95976900Y-96442500D01*
G75*
G02*
X95726900Y-96192500I0J250000D01*
G01*
G37*
%TD*%
%TO.C,D3*%
G36*
G01*
X95828500Y-90236200D02*
X95828500Y-88986200D01*
G75*
G02*
X96078500Y-88736200I250000J0D01*
G01*
X96828500Y-88736200D01*
G75*
G02*
X97078500Y-88986200I0J-250000D01*
G01*
X97078500Y-90236200D01*
G75*
G02*
X96828500Y-90486200I-250000J0D01*
G01*
X96078500Y-90486200D01*
G75*
G02*
X95828500Y-90236200I0J250000D01*
G01*
G37*
G36*
G01*
X98628500Y-90236200D02*
X98628500Y-88986200D01*
G75*
G02*
X98878500Y-88736200I250000J0D01*
G01*
X99628500Y-88736200D01*
G75*
G02*
X99878500Y-88986200I0J-250000D01*
G01*
X99878500Y-90236200D01*
G75*
G02*
X99628500Y-90486200I-250000J0D01*
G01*
X98878500Y-90486200D01*
G75*
G02*
X98628500Y-90236200I0J250000D01*
G01*
G37*
%TD*%
%TO.C,D4*%
G36*
G01*
X168706500Y-100733700D02*
X168706500Y-101983700D01*
G75*
G02*
X168456500Y-102233700I-250000J0D01*
G01*
X167706500Y-102233700D01*
G75*
G02*
X167456500Y-101983700I0J250000D01*
G01*
X167456500Y-100733700D01*
G75*
G02*
X167706500Y-100483700I250000J0D01*
G01*
X168456500Y-100483700D01*
G75*
G02*
X168706500Y-100733700I0J-250000D01*
G01*
G37*
G36*
G01*
X171506500Y-100733700D02*
X171506500Y-101983700D01*
G75*
G02*
X171256500Y-102233700I-250000J0D01*
G01*
X170506500Y-102233700D01*
G75*
G02*
X170256500Y-101983700I0J250000D01*
G01*
X170256500Y-100733700D01*
G75*
G02*
X170506500Y-100483700I250000J0D01*
G01*
X171256500Y-100483700D01*
G75*
G02*
X171506500Y-100733700I0J-250000D01*
G01*
G37*
%TD*%
%TO.C,D5*%
G36*
G01*
X162341400Y-66135900D02*
X163591400Y-66135900D01*
G75*
G02*
X163841400Y-66385900I0J-250000D01*
G01*
X163841400Y-67135900D01*
G75*
G02*
X163591400Y-67385900I-250000J0D01*
G01*
X162341400Y-67385900D01*
G75*
G02*
X162091400Y-67135900I0J250000D01*
G01*
X162091400Y-66385900D01*
G75*
G02*
X162341400Y-66135900I250000J0D01*
G01*
G37*
G36*
G01*
X162341400Y-68935900D02*
X163591400Y-68935900D01*
G75*
G02*
X163841400Y-69185900I0J-250000D01*
G01*
X163841400Y-69935900D01*
G75*
G02*
X163591400Y-70185900I-250000J0D01*
G01*
X162341400Y-70185900D01*
G75*
G02*
X162091400Y-69935900I0J250000D01*
G01*
X162091400Y-69185900D01*
G75*
G02*
X162341400Y-68935900I250000J0D01*
G01*
G37*
%TD*%
%TO.C,R1*%
G36*
G01*
X177709400Y-57990902D02*
X177709400Y-56740898D01*
G75*
G02*
X177959398Y-56490900I249998J0D01*
G01*
X178584402Y-56490900D01*
G75*
G02*
X178834400Y-56740898I0J-249998D01*
G01*
X178834400Y-57990902D01*
G75*
G02*
X178584402Y-58240900I-249998J0D01*
G01*
X177959398Y-58240900D01*
G75*
G02*
X177709400Y-57990902I0J249998D01*
G01*
G37*
G36*
G01*
X174784400Y-57990902D02*
X174784400Y-56740898D01*
G75*
G02*
X175034398Y-56490900I249998J0D01*
G01*
X175659402Y-56490900D01*
G75*
G02*
X175909400Y-56740898I0J-249998D01*
G01*
X175909400Y-57990902D01*
G75*
G02*
X175659402Y-58240900I-249998J0D01*
G01*
X175034398Y-58240900D01*
G75*
G02*
X174784400Y-57990902I0J249998D01*
G01*
G37*
%TD*%
%TO.C,R2*%
G36*
G01*
X173119400Y-56563098D02*
X173119400Y-57813102D01*
G75*
G02*
X172869402Y-58063100I-249998J0D01*
G01*
X172244398Y-58063100D01*
G75*
G02*
X171994400Y-57813102I0J249998D01*
G01*
X171994400Y-56563098D01*
G75*
G02*
X172244398Y-56313100I249998J0D01*
G01*
X172869402Y-56313100D01*
G75*
G02*
X173119400Y-56563098I0J-249998D01*
G01*
G37*
G36*
G01*
X170194400Y-56563098D02*
X170194400Y-57813102D01*
G75*
G02*
X169944402Y-58063100I-249998J0D01*
G01*
X169319398Y-58063100D01*
G75*
G02*
X169069400Y-57813102I0J249998D01*
G01*
X169069400Y-56563098D01*
G75*
G02*
X169319398Y-56313100I249998J0D01*
G01*
X169944402Y-56313100D01*
G75*
G02*
X170194400Y-56563098I0J-249998D01*
G01*
G37*
%TD*%
%TO.C,R3*%
G36*
G01*
X189816902Y-90971800D02*
X188566898Y-90971800D01*
G75*
G02*
X188316900Y-90721802I0J249998D01*
G01*
X188316900Y-90096798D01*
G75*
G02*
X188566898Y-89846800I249998J0D01*
G01*
X189816902Y-89846800D01*
G75*
G02*
X190066900Y-90096798I0J-249998D01*
G01*
X190066900Y-90721802D01*
G75*
G02*
X189816902Y-90971800I-249998J0D01*
G01*
G37*
G36*
G01*
X189816902Y-93896800D02*
X188566898Y-93896800D01*
G75*
G02*
X188316900Y-93646802I0J249998D01*
G01*
X188316900Y-93021798D01*
G75*
G02*
X188566898Y-92771800I249998J0D01*
G01*
X189816902Y-92771800D01*
G75*
G02*
X190066900Y-93021798I0J-249998D01*
G01*
X190066900Y-93646802D01*
G75*
G02*
X189816902Y-93896800I-249998J0D01*
G01*
G37*
%TD*%
%TO.C,R4*%
G36*
G01*
X187149902Y-93846000D02*
X185899898Y-93846000D01*
G75*
G02*
X185649900Y-93596002I0J249998D01*
G01*
X185649900Y-92970998D01*
G75*
G02*
X185899898Y-92721000I249998J0D01*
G01*
X187149902Y-92721000D01*
G75*
G02*
X187399900Y-92970998I0J-249998D01*
G01*
X187399900Y-93596002D01*
G75*
G02*
X187149902Y-93846000I-249998J0D01*
G01*
G37*
G36*
G01*
X187149902Y-90921000D02*
X185899898Y-90921000D01*
G75*
G02*
X185649900Y-90671002I0J249998D01*
G01*
X185649900Y-90045998D01*
G75*
G02*
X185899898Y-89796000I249998J0D01*
G01*
X187149902Y-89796000D01*
G75*
G02*
X187399900Y-90045998I0J-249998D01*
G01*
X187399900Y-90671002D01*
G75*
G02*
X187149902Y-90921000I-249998J0D01*
G01*
G37*
%TD*%
%TO.C,R5*%
G36*
G01*
X182235002Y-90971800D02*
X180984998Y-90971800D01*
G75*
G02*
X180735000Y-90721802I0J249998D01*
G01*
X180735000Y-90096798D01*
G75*
G02*
X180984998Y-89846800I249998J0D01*
G01*
X182235002Y-89846800D01*
G75*
G02*
X182485000Y-90096798I0J-249998D01*
G01*
X182485000Y-90721802D01*
G75*
G02*
X182235002Y-90971800I-249998J0D01*
G01*
G37*
G36*
G01*
X182235002Y-93896800D02*
X180984998Y-93896800D01*
G75*
G02*
X180735000Y-93646802I0J249998D01*
G01*
X180735000Y-93021798D01*
G75*
G02*
X180984998Y-92771800I249998J0D01*
G01*
X182235002Y-92771800D01*
G75*
G02*
X182485000Y-93021798I0J-249998D01*
G01*
X182485000Y-93646802D01*
G75*
G02*
X182235002Y-93896800I-249998J0D01*
G01*
G37*
%TD*%
%TO.C,R7*%
G36*
G01*
X194727400Y-62486702D02*
X194727400Y-61236698D01*
G75*
G02*
X194977398Y-60986700I249998J0D01*
G01*
X195602402Y-60986700D01*
G75*
G02*
X195852400Y-61236698I0J-249998D01*
G01*
X195852400Y-62486702D01*
G75*
G02*
X195602402Y-62736700I-249998J0D01*
G01*
X194977398Y-62736700D01*
G75*
G02*
X194727400Y-62486702I0J249998D01*
G01*
G37*
G36*
G01*
X191802400Y-62486702D02*
X191802400Y-61236698D01*
G75*
G02*
X192052398Y-60986700I249998J0D01*
G01*
X192677402Y-60986700D01*
G75*
G02*
X192927400Y-61236698I0J-249998D01*
G01*
X192927400Y-62486702D01*
G75*
G02*
X192677402Y-62736700I-249998J0D01*
G01*
X192052398Y-62736700D01*
G75*
G02*
X191802400Y-62486702I0J249998D01*
G01*
G37*
%TD*%
%TO.C,R8*%
G36*
G01*
X191815100Y-66207802D02*
X191815100Y-64957798D01*
G75*
G02*
X192065098Y-64707800I249998J0D01*
G01*
X192690102Y-64707800D01*
G75*
G02*
X192940100Y-64957798I0J-249998D01*
G01*
X192940100Y-66207802D01*
G75*
G02*
X192690102Y-66457800I-249998J0D01*
G01*
X192065098Y-66457800D01*
G75*
G02*
X191815100Y-66207802I0J249998D01*
G01*
G37*
G36*
G01*
X194740100Y-66207802D02*
X194740100Y-64957798D01*
G75*
G02*
X194990098Y-64707800I249998J0D01*
G01*
X195615102Y-64707800D01*
G75*
G02*
X195865100Y-64957798I0J-249998D01*
G01*
X195865100Y-66207802D01*
G75*
G02*
X195615102Y-66457800I-249998J0D01*
G01*
X194990098Y-66457800D01*
G75*
G02*
X194740100Y-66207802I0J249998D01*
G01*
G37*
%TD*%
%TO.C,R9*%
G36*
G01*
X204653500Y-98130198D02*
X204653500Y-99380202D01*
G75*
G02*
X204403502Y-99630200I-249998J0D01*
G01*
X203778498Y-99630200D01*
G75*
G02*
X203528500Y-99380202I0J249998D01*
G01*
X203528500Y-98130198D01*
G75*
G02*
X203778498Y-97880200I249998J0D01*
G01*
X204403502Y-97880200D01*
G75*
G02*
X204653500Y-98130198I0J-249998D01*
G01*
G37*
G36*
G01*
X201728500Y-98130198D02*
X201728500Y-99380202D01*
G75*
G02*
X201478502Y-99630200I-249998J0D01*
G01*
X200853498Y-99630200D01*
G75*
G02*
X200603500Y-99380202I0J249998D01*
G01*
X200603500Y-98130198D01*
G75*
G02*
X200853498Y-97880200I249998J0D01*
G01*
X201478502Y-97880200D01*
G75*
G02*
X201728500Y-98130198I0J-249998D01*
G01*
G37*
%TD*%
%TO.C,R10*%
G36*
G01*
X201245900Y-83347398D02*
X201245900Y-84597402D01*
G75*
G02*
X200995902Y-84847400I-249998J0D01*
G01*
X200370898Y-84847400D01*
G75*
G02*
X200120900Y-84597402I0J249998D01*
G01*
X200120900Y-83347398D01*
G75*
G02*
X200370898Y-83097400I249998J0D01*
G01*
X200995902Y-83097400D01*
G75*
G02*
X201245900Y-83347398I0J-249998D01*
G01*
G37*
G36*
G01*
X204170900Y-83347398D02*
X204170900Y-84597402D01*
G75*
G02*
X203920902Y-84847400I-249998J0D01*
G01*
X203295898Y-84847400D01*
G75*
G02*
X203045900Y-84597402I0J249998D01*
G01*
X203045900Y-83347398D01*
G75*
G02*
X203295898Y-83097400I249998J0D01*
G01*
X203920902Y-83097400D01*
G75*
G02*
X204170900Y-83347398I0J-249998D01*
G01*
G37*
%TD*%
%TO.C,R11*%
G36*
G01*
X189541800Y-118696902D02*
X189541800Y-117446898D01*
G75*
G02*
X189791798Y-117196900I249998J0D01*
G01*
X190416802Y-117196900D01*
G75*
G02*
X190666800Y-117446898I0J-249998D01*
G01*
X190666800Y-118696902D01*
G75*
G02*
X190416802Y-118946900I-249998J0D01*
G01*
X189791798Y-118946900D01*
G75*
G02*
X189541800Y-118696902I0J249998D01*
G01*
G37*
G36*
G01*
X192466800Y-118696902D02*
X192466800Y-117446898D01*
G75*
G02*
X192716798Y-117196900I249998J0D01*
G01*
X193341802Y-117196900D01*
G75*
G02*
X193591800Y-117446898I0J-249998D01*
G01*
X193591800Y-118696902D01*
G75*
G02*
X193341802Y-118946900I-249998J0D01*
G01*
X192716798Y-118946900D01*
G75*
G02*
X192466800Y-118696902I0J249998D01*
G01*
G37*
%TD*%
%TO.C,R12*%
G36*
G01*
X165605298Y-66123200D02*
X166855302Y-66123200D01*
G75*
G02*
X167105300Y-66373198I0J-249998D01*
G01*
X167105300Y-66998202D01*
G75*
G02*
X166855302Y-67248200I-249998J0D01*
G01*
X165605298Y-67248200D01*
G75*
G02*
X165355300Y-66998202I0J249998D01*
G01*
X165355300Y-66373198D01*
G75*
G02*
X165605298Y-66123200I249998J0D01*
G01*
G37*
G36*
G01*
X165605298Y-69048200D02*
X166855302Y-69048200D01*
G75*
G02*
X167105300Y-69298198I0J-249998D01*
G01*
X167105300Y-69923202D01*
G75*
G02*
X166855302Y-70173200I-249998J0D01*
G01*
X165605298Y-70173200D01*
G75*
G02*
X165355300Y-69923202I0J249998D01*
G01*
X165355300Y-69298198D01*
G75*
G02*
X165605298Y-69048200I249998J0D01*
G01*
G37*
%TD*%
%TO.C,R14*%
G36*
G01*
X192403300Y-122354502D02*
X192403300Y-121104498D01*
G75*
G02*
X192653298Y-120854500I249998J0D01*
G01*
X193278302Y-120854500D01*
G75*
G02*
X193528300Y-121104498I0J-249998D01*
G01*
X193528300Y-122354502D01*
G75*
G02*
X193278302Y-122604500I-249998J0D01*
G01*
X192653298Y-122604500D01*
G75*
G02*
X192403300Y-122354502I0J249998D01*
G01*
G37*
G36*
G01*
X189478300Y-122354502D02*
X189478300Y-121104498D01*
G75*
G02*
X189728298Y-120854500I249998J0D01*
G01*
X190353302Y-120854500D01*
G75*
G02*
X190603300Y-121104498I0J-249998D01*
G01*
X190603300Y-122354502D01*
G75*
G02*
X190353302Y-122604500I-249998J0D01*
G01*
X189728298Y-122604500D01*
G75*
G02*
X189478300Y-122354502I0J249998D01*
G01*
G37*
%TD*%
%TO.C,R16*%
G36*
G01*
X99202402Y-99442700D02*
X97952398Y-99442700D01*
G75*
G02*
X97702400Y-99192702I0J249998D01*
G01*
X97702400Y-98567698D01*
G75*
G02*
X97952398Y-98317700I249998J0D01*
G01*
X99202402Y-98317700D01*
G75*
G02*
X99452400Y-98567698I0J-249998D01*
G01*
X99452400Y-99192702D01*
G75*
G02*
X99202402Y-99442700I-249998J0D01*
G01*
G37*
G36*
G01*
X99202402Y-102367700D02*
X97952398Y-102367700D01*
G75*
G02*
X97702400Y-102117702I0J249998D01*
G01*
X97702400Y-101492698D01*
G75*
G02*
X97952398Y-101242700I249998J0D01*
G01*
X99202402Y-101242700D01*
G75*
G02*
X99452400Y-101492698I0J-249998D01*
G01*
X99452400Y-102117702D01*
G75*
G02*
X99202402Y-102367700I-249998J0D01*
G01*
G37*
%TD*%
%TO.C,R17*%
G36*
G01*
X96250598Y-82493500D02*
X97500602Y-82493500D01*
G75*
G02*
X97750600Y-82743498I0J-249998D01*
G01*
X97750600Y-83368502D01*
G75*
G02*
X97500602Y-83618500I-249998J0D01*
G01*
X96250598Y-83618500D01*
G75*
G02*
X96000600Y-83368502I0J249998D01*
G01*
X96000600Y-82743498D01*
G75*
G02*
X96250598Y-82493500I249998J0D01*
G01*
G37*
G36*
G01*
X96250598Y-85418500D02*
X97500602Y-85418500D01*
G75*
G02*
X97750600Y-85668498I0J-249998D01*
G01*
X97750600Y-86293502D01*
G75*
G02*
X97500602Y-86543500I-249998J0D01*
G01*
X96250598Y-86543500D01*
G75*
G02*
X96000600Y-86293502I0J249998D01*
G01*
X96000600Y-85668498D01*
G75*
G02*
X96250598Y-85418500I249998J0D01*
G01*
G37*
%TD*%
%TO.C,R18*%
G36*
G01*
X164899502Y-99290300D02*
X163649498Y-99290300D01*
G75*
G02*
X163399500Y-99040302I0J249998D01*
G01*
X163399500Y-98415298D01*
G75*
G02*
X163649498Y-98165300I249998J0D01*
G01*
X164899502Y-98165300D01*
G75*
G02*
X165149500Y-98415298I0J-249998D01*
G01*
X165149500Y-99040302D01*
G75*
G02*
X164899502Y-99290300I-249998J0D01*
G01*
G37*
G36*
G01*
X164899502Y-102215300D02*
X163649498Y-102215300D01*
G75*
G02*
X163399500Y-101965302I0J249998D01*
G01*
X163399500Y-101340298D01*
G75*
G02*
X163649498Y-101090300I249998J0D01*
G01*
X164899502Y-101090300D01*
G75*
G02*
X165149500Y-101340298I0J-249998D01*
G01*
X165149500Y-101965302D01*
G75*
G02*
X164899502Y-102215300I-249998J0D01*
G01*
G37*
%TD*%
%TO.C,R19*%
G36*
G01*
X158671098Y-66110500D02*
X159921102Y-66110500D01*
G75*
G02*
X160171100Y-66360498I0J-249998D01*
G01*
X160171100Y-66985502D01*
G75*
G02*
X159921102Y-67235500I-249998J0D01*
G01*
X158671098Y-67235500D01*
G75*
G02*
X158421100Y-66985502I0J249998D01*
G01*
X158421100Y-66360498D01*
G75*
G02*
X158671098Y-66110500I249998J0D01*
G01*
G37*
G36*
G01*
X158671098Y-69035500D02*
X159921102Y-69035500D01*
G75*
G02*
X160171100Y-69285498I0J-249998D01*
G01*
X160171100Y-69910502D01*
G75*
G02*
X159921102Y-70160500I-249998J0D01*
G01*
X158671098Y-70160500D01*
G75*
G02*
X158421100Y-69910502I0J249998D01*
G01*
X158421100Y-69285498D01*
G75*
G02*
X158671098Y-69035500I249998J0D01*
G01*
G37*
%TD*%
D27*
%TO.C,H1*%
X159740600Y-121031000D03*
%TD*%
%TO.C,H2*%
X142240000Y-121031000D03*
%TD*%
%TO.C,H3*%
X142328900Y-61772800D03*
%TD*%
%TO.C,H4*%
X159867600Y-61772800D03*
%TD*%
D28*
%TO.C,J1*%
X104203500Y-116154200D03*
X104203500Y-113614200D03*
X104203500Y-111074200D03*
X104203500Y-108534200D03*
X104203500Y-105994200D03*
X104203500Y-103454200D03*
X104203500Y-100914200D03*
X104203500Y-98374200D03*
X104203500Y-95834200D03*
X104203500Y-93294200D03*
X104203500Y-90754200D03*
X104203500Y-88214200D03*
X104203500Y-85674200D03*
X104203500Y-83134200D03*
X104203500Y-80594200D03*
X104203500Y-78054200D03*
X104203500Y-75514200D03*
X104203500Y-72974200D03*
D29*
X104203500Y-70434200D03*
%TD*%
%TO.C,J2*%
X138264900Y-116014500D03*
D28*
X138264900Y-113474500D03*
X138264900Y-110934500D03*
X138264900Y-108394500D03*
X138264900Y-105854500D03*
X138264900Y-103314500D03*
X138264900Y-100774500D03*
X138264900Y-98234500D03*
X138264900Y-95694500D03*
X138264900Y-93154500D03*
X138264900Y-90614500D03*
X138264900Y-88074500D03*
X138264900Y-85534500D03*
X138264900Y-82994500D03*
X138264900Y-80454500D03*
X138264900Y-77914500D03*
X138264900Y-75374500D03*
X138264900Y-72834500D03*
X138264900Y-70294500D03*
%TD*%
D29*
%TO.C,J3*%
X142544800Y-85572600D03*
D28*
X142544800Y-83032600D03*
X142544800Y-80492600D03*
X142544800Y-77952600D03*
%TD*%
M02*
