%TF.GenerationSoftware,KiCad,Pcbnew,5.1.10-88a1d61d58~90~ubuntu20.04.1*%
%TF.CreationDate,2021-11-17T23:21:55+05:30*%
%TF.ProjectId,Meshmerize,4d657368-6d65-4726-997a-652e6b696361,rev?*%
%TF.SameCoordinates,Original*%
%TF.FileFunction,Legend,Top*%
%TF.FilePolarity,Positive*%
%FSLAX46Y46*%
G04 Gerber Fmt 4.6, Leading zero omitted, Abs format (unit mm)*
G04 Created by KiCad (PCBNEW 5.1.10-88a1d61d58~90~ubuntu20.04.1) date 2021-11-17 23:21:55*
%MOMM*%
%LPD*%
G01*
G04 APERTURE LIST*
%ADD10C,0.300000*%
%ADD11C,0.100000*%
%ADD12C,0.150000*%
%ADD13C,0.010000*%
%ADD14C,0.200000*%
%ADD15C,0.127000*%
%ADD16C,0.120000*%
%ADD17C,0.250000*%
G04 APERTURE END LIST*
D10*
X150108528Y-49626428D02*
X151608528Y-49626428D01*
X150108528Y-50483571D01*
X151608528Y-50483571D01*
X151465671Y-51126428D02*
X151537100Y-51197857D01*
X151608528Y-51340714D01*
X151608528Y-51697857D01*
X151537100Y-51840714D01*
X151465671Y-51912142D01*
X151322814Y-51983571D01*
X151179957Y-51983571D01*
X150965671Y-51912142D01*
X150108528Y-51055000D01*
X150108528Y-51983571D01*
X151608528Y-52912142D02*
X151608528Y-53055000D01*
X151537100Y-53197857D01*
X151465671Y-53269285D01*
X151322814Y-53340714D01*
X151037100Y-53412142D01*
X150679957Y-53412142D01*
X150394242Y-53340714D01*
X150251385Y-53269285D01*
X150179957Y-53197857D01*
X150108528Y-53055000D01*
X150108528Y-52912142D01*
X150179957Y-52769285D01*
X150251385Y-52697857D01*
X150394242Y-52626428D01*
X150679957Y-52555000D01*
X151037100Y-52555000D01*
X151322814Y-52626428D01*
X151465671Y-52697857D01*
X151537100Y-52769285D01*
X151608528Y-52912142D01*
X151608528Y-55840714D02*
X151608528Y-55555000D01*
X151537100Y-55412142D01*
X151465671Y-55340714D01*
X151251385Y-55197857D01*
X150965671Y-55126428D01*
X150394242Y-55126428D01*
X150251385Y-55197857D01*
X150179957Y-55269285D01*
X150108528Y-55412142D01*
X150108528Y-55697857D01*
X150179957Y-55840714D01*
X150251385Y-55912142D01*
X150394242Y-55983571D01*
X150751385Y-55983571D01*
X150894242Y-55912142D01*
X150965671Y-55840714D01*
X151037100Y-55697857D01*
X151037100Y-55412142D01*
X150965671Y-55269285D01*
X150894242Y-55197857D01*
X150751385Y-55126428D01*
X151608528Y-56412142D02*
X150108528Y-56912142D01*
X151608528Y-57412142D01*
X151608528Y-59697857D02*
X151608528Y-59412142D01*
X151537100Y-59269285D01*
X151465671Y-59197857D01*
X151251385Y-59055000D01*
X150965671Y-58983571D01*
X150394242Y-58983571D01*
X150251385Y-59055000D01*
X150179957Y-59126428D01*
X150108528Y-59269285D01*
X150108528Y-59555000D01*
X150179957Y-59697857D01*
X150251385Y-59769285D01*
X150394242Y-59840714D01*
X150751385Y-59840714D01*
X150894242Y-59769285D01*
X150965671Y-59697857D01*
X151037100Y-59555000D01*
X151037100Y-59269285D01*
X150965671Y-59126428D01*
X150894242Y-59055000D01*
X150751385Y-58983571D01*
X151608528Y-60769285D02*
X151608528Y-60912142D01*
X151537100Y-61055000D01*
X151465671Y-61126428D01*
X151322814Y-61197857D01*
X151037100Y-61269285D01*
X150679957Y-61269285D01*
X150394242Y-61197857D01*
X150251385Y-61126428D01*
X150179957Y-61055000D01*
X150108528Y-60912142D01*
X150108528Y-60769285D01*
X150179957Y-60626428D01*
X150251385Y-60555000D01*
X150394242Y-60483571D01*
X150679957Y-60412142D01*
X151037100Y-60412142D01*
X151322814Y-60483571D01*
X151465671Y-60555000D01*
X151537100Y-60626428D01*
X151608528Y-60769285D01*
X151608528Y-62197857D02*
X151608528Y-62340714D01*
X151537100Y-62483571D01*
X151465671Y-62555000D01*
X151322814Y-62626428D01*
X151037100Y-62697857D01*
X150679957Y-62697857D01*
X150394242Y-62626428D01*
X150251385Y-62555000D01*
X150179957Y-62483571D01*
X150108528Y-62340714D01*
X150108528Y-62197857D01*
X150179957Y-62055000D01*
X150251385Y-61983571D01*
X150394242Y-61912142D01*
X150679957Y-61840714D01*
X151037100Y-61840714D01*
X151322814Y-61912142D01*
X151465671Y-61983571D01*
X151537100Y-62055000D01*
X151608528Y-62197857D01*
X150108528Y-65340714D02*
X150822814Y-64840714D01*
X150108528Y-64483571D02*
X151608528Y-64483571D01*
X151608528Y-65055000D01*
X151537100Y-65197857D01*
X151465671Y-65269285D01*
X151322814Y-65340714D01*
X151108528Y-65340714D01*
X150965671Y-65269285D01*
X150894242Y-65197857D01*
X150822814Y-65055000D01*
X150822814Y-64483571D01*
X150108528Y-65983571D02*
X151608528Y-65983571D01*
X151608528Y-66555000D01*
X151537100Y-66697857D01*
X151465671Y-66769285D01*
X151322814Y-66840714D01*
X151108528Y-66840714D01*
X150965671Y-66769285D01*
X150894242Y-66697857D01*
X150822814Y-66555000D01*
X150822814Y-65983571D01*
X150108528Y-67483571D02*
X151608528Y-67483571D01*
X150537100Y-67983571D01*
X151608528Y-68483571D01*
X150108528Y-68483571D01*
X152062571Y-132796371D02*
X150562571Y-132796371D01*
X152062571Y-131939228D01*
X150562571Y-131939228D01*
X150705428Y-131296371D02*
X150634000Y-131224942D01*
X150562571Y-131082085D01*
X150562571Y-130724942D01*
X150634000Y-130582085D01*
X150705428Y-130510657D01*
X150848285Y-130439228D01*
X150991142Y-130439228D01*
X151205428Y-130510657D01*
X152062571Y-131367800D01*
X152062571Y-130439228D01*
X150562571Y-129510657D02*
X150562571Y-129367800D01*
X150634000Y-129224942D01*
X150705428Y-129153514D01*
X150848285Y-129082085D01*
X151134000Y-129010657D01*
X151491142Y-129010657D01*
X151776857Y-129082085D01*
X151919714Y-129153514D01*
X151991142Y-129224942D01*
X152062571Y-129367800D01*
X152062571Y-129510657D01*
X151991142Y-129653514D01*
X151919714Y-129724942D01*
X151776857Y-129796371D01*
X151491142Y-129867800D01*
X151134000Y-129867800D01*
X150848285Y-129796371D01*
X150705428Y-129724942D01*
X150634000Y-129653514D01*
X150562571Y-129510657D01*
X150562571Y-126582085D02*
X150562571Y-126867800D01*
X150634000Y-127010657D01*
X150705428Y-127082085D01*
X150919714Y-127224942D01*
X151205428Y-127296371D01*
X151776857Y-127296371D01*
X151919714Y-127224942D01*
X151991142Y-127153514D01*
X152062571Y-127010657D01*
X152062571Y-126724942D01*
X151991142Y-126582085D01*
X151919714Y-126510657D01*
X151776857Y-126439228D01*
X151419714Y-126439228D01*
X151276857Y-126510657D01*
X151205428Y-126582085D01*
X151134000Y-126724942D01*
X151134000Y-127010657D01*
X151205428Y-127153514D01*
X151276857Y-127224942D01*
X151419714Y-127296371D01*
X150562571Y-126010657D02*
X152062571Y-125510657D01*
X150562571Y-125010657D01*
X150562571Y-122724942D02*
X150562571Y-123010657D01*
X150634000Y-123153514D01*
X150705428Y-123224942D01*
X150919714Y-123367800D01*
X151205428Y-123439228D01*
X151776857Y-123439228D01*
X151919714Y-123367800D01*
X151991142Y-123296371D01*
X152062571Y-123153514D01*
X152062571Y-122867800D01*
X151991142Y-122724942D01*
X151919714Y-122653514D01*
X151776857Y-122582085D01*
X151419714Y-122582085D01*
X151276857Y-122653514D01*
X151205428Y-122724942D01*
X151134000Y-122867800D01*
X151134000Y-123153514D01*
X151205428Y-123296371D01*
X151276857Y-123367800D01*
X151419714Y-123439228D01*
X150562571Y-121653514D02*
X150562571Y-121510657D01*
X150634000Y-121367800D01*
X150705428Y-121296371D01*
X150848285Y-121224942D01*
X151134000Y-121153514D01*
X151491142Y-121153514D01*
X151776857Y-121224942D01*
X151919714Y-121296371D01*
X151991142Y-121367800D01*
X152062571Y-121510657D01*
X152062571Y-121653514D01*
X151991142Y-121796371D01*
X151919714Y-121867800D01*
X151776857Y-121939228D01*
X151491142Y-122010657D01*
X151134000Y-122010657D01*
X150848285Y-121939228D01*
X150705428Y-121867800D01*
X150634000Y-121796371D01*
X150562571Y-121653514D01*
X150562571Y-120224942D02*
X150562571Y-120082085D01*
X150634000Y-119939228D01*
X150705428Y-119867800D01*
X150848285Y-119796371D01*
X151134000Y-119724942D01*
X151491142Y-119724942D01*
X151776857Y-119796371D01*
X151919714Y-119867800D01*
X151991142Y-119939228D01*
X152062571Y-120082085D01*
X152062571Y-120224942D01*
X151991142Y-120367800D01*
X151919714Y-120439228D01*
X151776857Y-120510657D01*
X151491142Y-120582085D01*
X151134000Y-120582085D01*
X150848285Y-120510657D01*
X150705428Y-120439228D01*
X150634000Y-120367800D01*
X150562571Y-120224942D01*
X152062571Y-117082085D02*
X151348285Y-117582085D01*
X152062571Y-117939228D02*
X150562571Y-117939228D01*
X150562571Y-117367800D01*
X150634000Y-117224942D01*
X150705428Y-117153514D01*
X150848285Y-117082085D01*
X151062571Y-117082085D01*
X151205428Y-117153514D01*
X151276857Y-117224942D01*
X151348285Y-117367800D01*
X151348285Y-117939228D01*
X152062571Y-116439228D02*
X150562571Y-116439228D01*
X150562571Y-115867800D01*
X150634000Y-115724942D01*
X150705428Y-115653514D01*
X150848285Y-115582085D01*
X151062571Y-115582085D01*
X151205428Y-115653514D01*
X151276857Y-115724942D01*
X151348285Y-115867800D01*
X151348285Y-116439228D01*
X152062571Y-114939228D02*
X150562571Y-114939228D01*
X151634000Y-114439228D01*
X150562571Y-113939228D01*
X152062571Y-113939228D01*
D11*
X149588480Y-101402090D02*
X148588480Y-101402090D01*
X149588480Y-100830661D02*
X149017052Y-101259233D01*
X148588480Y-100830661D02*
X149159909Y-101402090D01*
X149540861Y-100021138D02*
X149588480Y-100116376D01*
X149588480Y-100306852D01*
X149540861Y-100402090D01*
X149445623Y-100449709D01*
X149064671Y-100449709D01*
X148969433Y-100402090D01*
X148921814Y-100306852D01*
X148921814Y-100116376D01*
X148969433Y-100021138D01*
X149064671Y-99973519D01*
X149159909Y-99973519D01*
X149255147Y-100449709D01*
X149540861Y-99163995D02*
X149588480Y-99259233D01*
X149588480Y-99449709D01*
X149540861Y-99544947D01*
X149445623Y-99592566D01*
X149064671Y-99592566D01*
X148969433Y-99544947D01*
X148921814Y-99449709D01*
X148921814Y-99259233D01*
X148969433Y-99163995D01*
X149064671Y-99116376D01*
X149159909Y-99116376D01*
X149255147Y-99592566D01*
X148921814Y-98687804D02*
X149921814Y-98687804D01*
X148969433Y-98687804D02*
X148921814Y-98592566D01*
X148921814Y-98402090D01*
X148969433Y-98306852D01*
X149017052Y-98259233D01*
X149112290Y-98211614D01*
X149398004Y-98211614D01*
X149493242Y-98259233D01*
X149540861Y-98306852D01*
X149588480Y-98402090D01*
X149588480Y-98592566D01*
X149540861Y-98687804D01*
X148588480Y-97163995D02*
X149588480Y-96830661D01*
X148588480Y-96497328D01*
X149588480Y-96021138D02*
X149540861Y-96116376D01*
X149493242Y-96163995D01*
X149398004Y-96211614D01*
X149112290Y-96211614D01*
X149017052Y-96163995D01*
X148969433Y-96116376D01*
X148921814Y-96021138D01*
X148921814Y-95878280D01*
X148969433Y-95783042D01*
X149017052Y-95735423D01*
X149112290Y-95687804D01*
X149398004Y-95687804D01*
X149493242Y-95735423D01*
X149540861Y-95783042D01*
X149588480Y-95878280D01*
X149588480Y-96021138D01*
X149588480Y-95116376D02*
X149540861Y-95211614D01*
X149445623Y-95259233D01*
X148588480Y-95259233D01*
X148921814Y-94878280D02*
X148921814Y-94497328D01*
X148588480Y-94735423D02*
X149445623Y-94735423D01*
X149540861Y-94687804D01*
X149588480Y-94592566D01*
X149588480Y-94497328D01*
X149588480Y-93735423D02*
X149064671Y-93735423D01*
X148969433Y-93783042D01*
X148921814Y-93878280D01*
X148921814Y-94068757D01*
X148969433Y-94163995D01*
X149540861Y-93735423D02*
X149588480Y-93830661D01*
X149588480Y-94068757D01*
X149540861Y-94163995D01*
X149445623Y-94211614D01*
X149350385Y-94211614D01*
X149255147Y-94163995D01*
X149207528Y-94068757D01*
X149207528Y-93830661D01*
X149159909Y-93735423D01*
X148921814Y-92830661D02*
X149731338Y-92830661D01*
X149826576Y-92878280D01*
X149874195Y-92925900D01*
X149921814Y-93021138D01*
X149921814Y-93163995D01*
X149874195Y-93259233D01*
X149540861Y-92830661D02*
X149588480Y-92925900D01*
X149588480Y-93116376D01*
X149540861Y-93211614D01*
X149493242Y-93259233D01*
X149398004Y-93306852D01*
X149112290Y-93306852D01*
X149017052Y-93259233D01*
X148969433Y-93211614D01*
X148921814Y-93116376D01*
X148921814Y-92925900D01*
X148969433Y-92830661D01*
X149540861Y-91973519D02*
X149588480Y-92068757D01*
X149588480Y-92259233D01*
X149540861Y-92354471D01*
X149445623Y-92402090D01*
X149064671Y-92402090D01*
X148969433Y-92354471D01*
X148921814Y-92259233D01*
X148921814Y-92068757D01*
X148969433Y-91973519D01*
X149064671Y-91925900D01*
X149159909Y-91925900D01*
X149255147Y-92402090D01*
X148921814Y-90306852D02*
X149588480Y-90306852D01*
X148921814Y-90735423D02*
X149445623Y-90735423D01*
X149540861Y-90687804D01*
X149588480Y-90592566D01*
X149588480Y-90449709D01*
X149540861Y-90354471D01*
X149493242Y-90306852D01*
X148921814Y-89830661D02*
X149588480Y-89830661D01*
X149017052Y-89830661D02*
X148969433Y-89783042D01*
X148921814Y-89687804D01*
X148921814Y-89544947D01*
X148969433Y-89449709D01*
X149064671Y-89402090D01*
X149588480Y-89402090D01*
X149588480Y-88497328D02*
X148588480Y-88497328D01*
X149540861Y-88497328D02*
X149588480Y-88592566D01*
X149588480Y-88783042D01*
X149540861Y-88878280D01*
X149493242Y-88925900D01*
X149398004Y-88973519D01*
X149112290Y-88973519D01*
X149017052Y-88925900D01*
X148969433Y-88878280D01*
X148921814Y-88783042D01*
X148921814Y-88592566D01*
X148969433Y-88497328D01*
X149540861Y-87640185D02*
X149588480Y-87735423D01*
X149588480Y-87925900D01*
X149540861Y-88021138D01*
X149445623Y-88068757D01*
X149064671Y-88068757D01*
X148969433Y-88021138D01*
X148921814Y-87925900D01*
X148921814Y-87735423D01*
X148969433Y-87640185D01*
X149064671Y-87592566D01*
X149159909Y-87592566D01*
X149255147Y-88068757D01*
X149588480Y-87163995D02*
X148921814Y-87163995D01*
X149112290Y-87163995D02*
X149017052Y-87116376D01*
X148969433Y-87068757D01*
X148921814Y-86973519D01*
X148921814Y-86878280D01*
X148588480Y-85354471D02*
X148588480Y-85544947D01*
X148636100Y-85640185D01*
X148683719Y-85687804D01*
X148826576Y-85783042D01*
X149017052Y-85830661D01*
X149398004Y-85830661D01*
X149493242Y-85783042D01*
X149540861Y-85735423D01*
X149588480Y-85640185D01*
X149588480Y-85449709D01*
X149540861Y-85354471D01*
X149493242Y-85306852D01*
X149398004Y-85259233D01*
X149159909Y-85259233D01*
X149064671Y-85306852D01*
X149017052Y-85354471D01*
X148969433Y-85449709D01*
X148969433Y-85640185D01*
X149017052Y-85735423D01*
X149064671Y-85783042D01*
X149159909Y-85830661D01*
X148588480Y-84973519D02*
X149588480Y-84640185D01*
X148588480Y-84306852D01*
D12*
X125454304Y-132553057D02*
X126978114Y-132553057D01*
X127644780Y-131314961D02*
X128311447Y-133314961D01*
X128978114Y-131314961D01*
X130311447Y-132267342D02*
X130597161Y-132362580D01*
X130692400Y-132457819D01*
X130787638Y-132648295D01*
X130787638Y-132934009D01*
X130692400Y-133124485D01*
X130597161Y-133219723D01*
X130406685Y-133314961D01*
X129644780Y-133314961D01*
X129644780Y-131314961D01*
X130311447Y-131314961D01*
X130501923Y-131410200D01*
X130597161Y-131505438D01*
X130692400Y-131695914D01*
X130692400Y-131886390D01*
X130597161Y-132076866D01*
X130501923Y-132172104D01*
X130311447Y-132267342D01*
X129644780Y-132267342D01*
X131549542Y-132743533D02*
X132501923Y-132743533D01*
X131359066Y-133314961D02*
X132025733Y-131314961D01*
X132692400Y-133314961D01*
X133073352Y-131314961D02*
X134216209Y-131314961D01*
X133644780Y-133314961D02*
X133644780Y-131314961D01*
X125517804Y-50752357D02*
X127041614Y-50752357D01*
X126279709Y-51514261D02*
X126279709Y-49990452D01*
X127708280Y-49514261D02*
X128374947Y-51514261D01*
X129041614Y-49514261D01*
X130374947Y-50466642D02*
X130660661Y-50561880D01*
X130755900Y-50657119D01*
X130851138Y-50847595D01*
X130851138Y-51133309D01*
X130755900Y-51323785D01*
X130660661Y-51419023D01*
X130470185Y-51514261D01*
X129708280Y-51514261D01*
X129708280Y-49514261D01*
X130374947Y-49514261D01*
X130565423Y-49609500D01*
X130660661Y-49704738D01*
X130755900Y-49895214D01*
X130755900Y-50085690D01*
X130660661Y-50276166D01*
X130565423Y-50371404D01*
X130374947Y-50466642D01*
X129708280Y-50466642D01*
X131613042Y-50942833D02*
X132565423Y-50942833D01*
X131422566Y-51514261D02*
X132089233Y-49514261D01*
X132755900Y-51514261D01*
X133136852Y-49514261D02*
X134279709Y-49514261D01*
X133708280Y-51514261D02*
X133708280Y-49514261D01*
X181277142Y-85863180D02*
X181848571Y-85863180D01*
X181562857Y-86863180D02*
X181562857Y-85863180D01*
X182515238Y-86339371D02*
X182658095Y-86386990D01*
X182705714Y-86434609D01*
X182753333Y-86529847D01*
X182753333Y-86672704D01*
X182705714Y-86767942D01*
X182658095Y-86815561D01*
X182562857Y-86863180D01*
X182181904Y-86863180D01*
X182181904Y-85863180D01*
X182515238Y-85863180D01*
X182610476Y-85910800D01*
X182658095Y-85958419D01*
X182705714Y-86053657D01*
X182705714Y-86148895D01*
X182658095Y-86244133D01*
X182610476Y-86291752D01*
X182515238Y-86339371D01*
X182181904Y-86339371D01*
X183610476Y-85863180D02*
X183420000Y-85863180D01*
X183324761Y-85910800D01*
X183277142Y-85958419D01*
X183181904Y-86101276D01*
X183134285Y-86291752D01*
X183134285Y-86672704D01*
X183181904Y-86767942D01*
X183229523Y-86815561D01*
X183324761Y-86863180D01*
X183515238Y-86863180D01*
X183610476Y-86815561D01*
X183658095Y-86767942D01*
X183705714Y-86672704D01*
X183705714Y-86434609D01*
X183658095Y-86339371D01*
X183610476Y-86291752D01*
X183515238Y-86244133D01*
X183324761Y-86244133D01*
X183229523Y-86291752D01*
X183181904Y-86339371D01*
X183134285Y-86434609D01*
X184562857Y-85863180D02*
X184372380Y-85863180D01*
X184277142Y-85910800D01*
X184229523Y-85958419D01*
X184134285Y-86101276D01*
X184086666Y-86291752D01*
X184086666Y-86672704D01*
X184134285Y-86767942D01*
X184181904Y-86815561D01*
X184277142Y-86863180D01*
X184467619Y-86863180D01*
X184562857Y-86815561D01*
X184610476Y-86767942D01*
X184658095Y-86672704D01*
X184658095Y-86434609D01*
X184610476Y-86339371D01*
X184562857Y-86291752D01*
X184467619Y-86244133D01*
X184277142Y-86244133D01*
X184181904Y-86291752D01*
X184134285Y-86339371D01*
X184086666Y-86434609D01*
X185610476Y-86863180D02*
X185039047Y-86863180D01*
X185324761Y-86863180D02*
X185324761Y-85863180D01*
X185229523Y-86006038D01*
X185134285Y-86101276D01*
X185039047Y-86148895D01*
X185991428Y-85958419D02*
X186039047Y-85910800D01*
X186134285Y-85863180D01*
X186372380Y-85863180D01*
X186467619Y-85910800D01*
X186515238Y-85958419D01*
X186562857Y-86053657D01*
X186562857Y-86148895D01*
X186515238Y-86291752D01*
X185943809Y-86863180D01*
X186562857Y-86863180D01*
X187324761Y-86339371D02*
X186991428Y-86339371D01*
X186991428Y-86863180D02*
X186991428Y-85863180D01*
X187467619Y-85863180D01*
X187848571Y-86863180D02*
X187848571Y-85863180D01*
X188420000Y-86863180D01*
X188420000Y-85863180D01*
X189420000Y-85910800D02*
X189324761Y-85863180D01*
X189181904Y-85863180D01*
X189039047Y-85910800D01*
X188943809Y-86006038D01*
X188896190Y-86101276D01*
X188848571Y-86291752D01*
X188848571Y-86434609D01*
X188896190Y-86625085D01*
X188943809Y-86720323D01*
X189039047Y-86815561D01*
X189181904Y-86863180D01*
X189277142Y-86863180D01*
X189420000Y-86815561D01*
X189467619Y-86767942D01*
X189467619Y-86434609D01*
X189277142Y-86434609D01*
X176328509Y-128176280D02*
X176328509Y-127176280D01*
X177376128Y-128176280D02*
X177042795Y-127700090D01*
X176804700Y-128176280D02*
X176804700Y-127176280D01*
X177185652Y-127176280D01*
X177280890Y-127223900D01*
X177328509Y-127271519D01*
X177376128Y-127366757D01*
X177376128Y-127509614D01*
X177328509Y-127604852D01*
X177280890Y-127652471D01*
X177185652Y-127700090D01*
X176804700Y-127700090D01*
X178280890Y-127176280D02*
X177804700Y-127176280D01*
X177757080Y-127652471D01*
X177804700Y-127604852D01*
X177899938Y-127557233D01*
X178138033Y-127557233D01*
X178233271Y-127604852D01*
X178280890Y-127652471D01*
X178328509Y-127747709D01*
X178328509Y-127985804D01*
X178280890Y-128081042D01*
X178233271Y-128128661D01*
X178138033Y-128176280D01*
X177899938Y-128176280D01*
X177804700Y-128128661D01*
X177757080Y-128081042D01*
X199925109Y-107322880D02*
X199925109Y-106322880D01*
X200972728Y-107322880D02*
X200639395Y-106846690D01*
X200401300Y-107322880D02*
X200401300Y-106322880D01*
X200782252Y-106322880D01*
X200877490Y-106370500D01*
X200925109Y-106418119D01*
X200972728Y-106513357D01*
X200972728Y-106656214D01*
X200925109Y-106751452D01*
X200877490Y-106799071D01*
X200782252Y-106846690D01*
X200401300Y-106846690D01*
X201829871Y-106656214D02*
X201829871Y-107322880D01*
X201591776Y-106275261D02*
X201353680Y-106989547D01*
X201972728Y-106989547D01*
X204624109Y-87853780D02*
X204624109Y-86853780D01*
X205671728Y-87853780D02*
X205338395Y-87377590D01*
X205100300Y-87853780D02*
X205100300Y-86853780D01*
X205481252Y-86853780D01*
X205576490Y-86901400D01*
X205624109Y-86949019D01*
X205671728Y-87044257D01*
X205671728Y-87187114D01*
X205624109Y-87282352D01*
X205576490Y-87329971D01*
X205481252Y-87377590D01*
X205100300Y-87377590D01*
X206005061Y-86853780D02*
X206624109Y-86853780D01*
X206290776Y-87234733D01*
X206433633Y-87234733D01*
X206528871Y-87282352D01*
X206576490Y-87329971D01*
X206624109Y-87425209D01*
X206624109Y-87663304D01*
X206576490Y-87758542D01*
X206528871Y-87806161D01*
X206433633Y-87853780D01*
X206147919Y-87853780D01*
X206052680Y-87806161D01*
X206005061Y-87758542D01*
X197474009Y-76766680D02*
X197474009Y-75766680D01*
X198521628Y-76766680D02*
X198188295Y-76290490D01*
X197950200Y-76766680D02*
X197950200Y-75766680D01*
X198331152Y-75766680D01*
X198426390Y-75814300D01*
X198474009Y-75861919D01*
X198521628Y-75957157D01*
X198521628Y-76100014D01*
X198474009Y-76195252D01*
X198426390Y-76242871D01*
X198331152Y-76290490D01*
X197950200Y-76290490D01*
X198902580Y-75861919D02*
X198950200Y-75814300D01*
X199045438Y-75766680D01*
X199283533Y-75766680D01*
X199378771Y-75814300D01*
X199426390Y-75861919D01*
X199474009Y-75957157D01*
X199474009Y-76052395D01*
X199426390Y-76195252D01*
X198854961Y-76766680D01*
X199474009Y-76766680D01*
X174804509Y-47696380D02*
X174804509Y-46696380D01*
X175852128Y-47696380D02*
X175518795Y-47220190D01*
X175280700Y-47696380D02*
X175280700Y-46696380D01*
X175661652Y-46696380D01*
X175756890Y-46744000D01*
X175804509Y-46791619D01*
X175852128Y-46886857D01*
X175852128Y-47029714D01*
X175804509Y-47124952D01*
X175756890Y-47172571D01*
X175661652Y-47220190D01*
X175280700Y-47220190D01*
X176804509Y-47696380D02*
X176233080Y-47696380D01*
X176518795Y-47696380D02*
X176518795Y-46696380D01*
X176423557Y-46839238D01*
X176328319Y-46934476D01*
X176233080Y-46982095D01*
X150861780Y-95978457D02*
X151861780Y-95645123D01*
X150861780Y-95311790D01*
X151576066Y-95026076D02*
X151576066Y-94549885D01*
X151861780Y-95121314D02*
X150861780Y-94787980D01*
X151861780Y-94454647D01*
X151861780Y-94121314D02*
X150861780Y-94121314D01*
X150861780Y-93883219D01*
X150909400Y-93740361D01*
X151004638Y-93645123D01*
X151099876Y-93597504D01*
X151290352Y-93549885D01*
X151433209Y-93549885D01*
X151623685Y-93597504D01*
X151718923Y-93645123D01*
X151814161Y-93740361D01*
X151861780Y-93883219D01*
X151861780Y-94121314D01*
X150861780Y-92835600D02*
X151576066Y-92835600D01*
X151718923Y-92883219D01*
X151814161Y-92978457D01*
X151861780Y-93121314D01*
X151861780Y-93216552D01*
X129147961Y-116168442D02*
X129100342Y-116216061D01*
X128957485Y-116263680D01*
X128862247Y-116263680D01*
X128719390Y-116216061D01*
X128624152Y-116120823D01*
X128576533Y-116025585D01*
X128528914Y-115835109D01*
X128528914Y-115692252D01*
X128576533Y-115501776D01*
X128624152Y-115406538D01*
X128719390Y-115311300D01*
X128862247Y-115263680D01*
X128957485Y-115263680D01*
X129100342Y-115311300D01*
X129147961Y-115358919D01*
X130052723Y-116263680D02*
X129576533Y-116263680D01*
X129576533Y-115263680D01*
X130386057Y-116263680D02*
X130386057Y-115263680D01*
X130957485Y-116263680D02*
X130528914Y-115692252D01*
X130957485Y-115263680D02*
X130386057Y-115835109D01*
X129208304Y-113837980D02*
X129208304Y-112837980D01*
X129446400Y-112837980D01*
X129589257Y-112885600D01*
X129684495Y-112980838D01*
X129732114Y-113076076D01*
X129779733Y-113266552D01*
X129779733Y-113409409D01*
X129732114Y-113599885D01*
X129684495Y-113695123D01*
X129589257Y-113790361D01*
X129446400Y-113837980D01*
X129208304Y-113837980D01*
X130398780Y-112837980D02*
X130494019Y-112837980D01*
X130589257Y-112885600D01*
X130636876Y-112933219D01*
X130684495Y-113028457D01*
X130732114Y-113218933D01*
X130732114Y-113457028D01*
X130684495Y-113647504D01*
X130636876Y-113742742D01*
X130589257Y-113790361D01*
X130494019Y-113837980D01*
X130398780Y-113837980D01*
X130303542Y-113790361D01*
X130255923Y-113742742D01*
X130208304Y-113647504D01*
X130160685Y-113457028D01*
X130160685Y-113218933D01*
X130208304Y-113028457D01*
X130255923Y-112933219D01*
X130303542Y-112885600D01*
X130398780Y-112837980D01*
X129259104Y-111501180D02*
X129259104Y-110501180D01*
X129497200Y-110501180D01*
X129640057Y-110548800D01*
X129735295Y-110644038D01*
X129782914Y-110739276D01*
X129830533Y-110929752D01*
X129830533Y-111072609D01*
X129782914Y-111263085D01*
X129735295Y-111358323D01*
X129640057Y-111453561D01*
X129497200Y-111501180D01*
X129259104Y-111501180D01*
X130782914Y-111501180D02*
X130211485Y-111501180D01*
X130497200Y-111501180D02*
X130497200Y-110501180D01*
X130401961Y-110644038D01*
X130306723Y-110739276D01*
X130211485Y-110786895D01*
X129857523Y-108846880D02*
X129286095Y-108846880D01*
X129571809Y-108846880D02*
X129571809Y-107846880D01*
X129476571Y-107989738D01*
X129381333Y-108084976D01*
X129286095Y-108132595D01*
X130762285Y-107846880D02*
X130286095Y-107846880D01*
X130238476Y-108323071D01*
X130286095Y-108275452D01*
X130381333Y-108227833D01*
X130619428Y-108227833D01*
X130714666Y-108275452D01*
X130762285Y-108323071D01*
X130809904Y-108418309D01*
X130809904Y-108656404D01*
X130762285Y-108751642D01*
X130714666Y-108799261D01*
X130619428Y-108846880D01*
X130381333Y-108846880D01*
X130286095Y-108799261D01*
X130238476Y-108751642D01*
X130232185Y-105478319D02*
X130279804Y-105430700D01*
X130375042Y-105383080D01*
X130613138Y-105383080D01*
X130708376Y-105430700D01*
X130755995Y-105478319D01*
X130803614Y-105573557D01*
X130803614Y-105668795D01*
X130755995Y-105811652D01*
X130184566Y-106383080D01*
X130803614Y-106383080D01*
X130419480Y-102868480D02*
X130514719Y-102868480D01*
X130609957Y-102916100D01*
X130657576Y-102963719D01*
X130705195Y-103058957D01*
X130752814Y-103249433D01*
X130752814Y-103487528D01*
X130705195Y-103678004D01*
X130657576Y-103773242D01*
X130609957Y-103820861D01*
X130514719Y-103868480D01*
X130419480Y-103868480D01*
X130324242Y-103820861D01*
X130276623Y-103773242D01*
X130229004Y-103678004D01*
X130181385Y-103487528D01*
X130181385Y-103249433D01*
X130229004Y-103058957D01*
X130276623Y-102963719D01*
X130324242Y-102916100D01*
X130419480Y-102868480D01*
X130682976Y-100661814D02*
X130682976Y-101328480D01*
X130444880Y-100280861D02*
X130206785Y-100995147D01*
X130825833Y-100995147D01*
X129819423Y-98813880D02*
X129247995Y-98813880D01*
X129533709Y-98813880D02*
X129533709Y-97813880D01*
X129438471Y-97956738D01*
X129343233Y-98051976D01*
X129247995Y-98099595D01*
X130676566Y-97813880D02*
X130486090Y-97813880D01*
X130390852Y-97861500D01*
X130343233Y-97909119D01*
X130247995Y-98051976D01*
X130200376Y-98242452D01*
X130200376Y-98623404D01*
X130247995Y-98718642D01*
X130295614Y-98766261D01*
X130390852Y-98813880D01*
X130581328Y-98813880D01*
X130676566Y-98766261D01*
X130724185Y-98718642D01*
X130771804Y-98623404D01*
X130771804Y-98385309D01*
X130724185Y-98290071D01*
X130676566Y-98242452D01*
X130581328Y-98194833D01*
X130390852Y-98194833D01*
X130295614Y-98242452D01*
X130247995Y-98290071D01*
X130200376Y-98385309D01*
X129730523Y-96451680D02*
X129159095Y-96451680D01*
X129444809Y-96451680D02*
X129444809Y-95451680D01*
X129349571Y-95594538D01*
X129254333Y-95689776D01*
X129159095Y-95737395D01*
X130063857Y-95451680D02*
X130730523Y-95451680D01*
X130301952Y-96451680D01*
X130616295Y-92860880D02*
X130140104Y-92860880D01*
X130092485Y-93337071D01*
X130140104Y-93289452D01*
X130235342Y-93241833D01*
X130473438Y-93241833D01*
X130568676Y-93289452D01*
X130616295Y-93337071D01*
X130663914Y-93432309D01*
X130663914Y-93670404D01*
X130616295Y-93765642D01*
X130568676Y-93813261D01*
X130473438Y-93860880D01*
X130235342Y-93860880D01*
X130140104Y-93813261D01*
X130092485Y-93765642D01*
X129768623Y-91422480D02*
X129197195Y-91422480D01*
X129482909Y-91422480D02*
X129482909Y-90422480D01*
X129387671Y-90565338D01*
X129292433Y-90660576D01*
X129197195Y-90708195D01*
X130340052Y-90851052D02*
X130244814Y-90803433D01*
X130197195Y-90755814D01*
X130149576Y-90660576D01*
X130149576Y-90612957D01*
X130197195Y-90517719D01*
X130244814Y-90470100D01*
X130340052Y-90422480D01*
X130530528Y-90422480D01*
X130625766Y-90470100D01*
X130673385Y-90517719D01*
X130721004Y-90612957D01*
X130721004Y-90660576D01*
X130673385Y-90755814D01*
X130625766Y-90803433D01*
X130530528Y-90851052D01*
X130340052Y-90851052D01*
X130244814Y-90898671D01*
X130197195Y-90946290D01*
X130149576Y-91041528D01*
X130149576Y-91232004D01*
X130197195Y-91327242D01*
X130244814Y-91374861D01*
X130340052Y-91422480D01*
X130530528Y-91422480D01*
X130625766Y-91374861D01*
X130673385Y-91327242D01*
X130721004Y-91232004D01*
X130721004Y-91041528D01*
X130673385Y-90946290D01*
X130625766Y-90898671D01*
X130530528Y-90851052D01*
X129908323Y-88679280D02*
X129336895Y-88679280D01*
X129622609Y-88679280D02*
X129622609Y-87679280D01*
X129527371Y-87822138D01*
X129432133Y-87917376D01*
X129336895Y-87964995D01*
X130384514Y-88679280D02*
X130574990Y-88679280D01*
X130670228Y-88631661D01*
X130717847Y-88584042D01*
X130813085Y-88441185D01*
X130860704Y-88250709D01*
X130860704Y-87869757D01*
X130813085Y-87774519D01*
X130765466Y-87726900D01*
X130670228Y-87679280D01*
X130479752Y-87679280D01*
X130384514Y-87726900D01*
X130336895Y-87774519D01*
X130289276Y-87869757D01*
X130289276Y-88107852D01*
X130336895Y-88203090D01*
X130384514Y-88250709D01*
X130479752Y-88298328D01*
X130670228Y-88298328D01*
X130765466Y-88250709D01*
X130813085Y-88203090D01*
X130860704Y-88107852D01*
X128981295Y-85136100D02*
X128886057Y-85088480D01*
X128743200Y-85088480D01*
X128600342Y-85136100D01*
X128505104Y-85231338D01*
X128457485Y-85326576D01*
X128409866Y-85517052D01*
X128409866Y-85659909D01*
X128457485Y-85850385D01*
X128505104Y-85945623D01*
X128600342Y-86040861D01*
X128743200Y-86088480D01*
X128838438Y-86088480D01*
X128981295Y-86040861D01*
X129028914Y-85993242D01*
X129028914Y-85659909D01*
X128838438Y-85659909D01*
X129457485Y-86088480D02*
X129457485Y-85088480D01*
X130028914Y-86088480D01*
X130028914Y-85088480D01*
X130505104Y-86088480D02*
X130505104Y-85088480D01*
X130743200Y-85088480D01*
X130886057Y-85136100D01*
X130981295Y-85231338D01*
X131028914Y-85326576D01*
X131076533Y-85517052D01*
X131076533Y-85659909D01*
X131028914Y-85850385D01*
X130981295Y-85945623D01*
X130886057Y-86040861D01*
X130743200Y-86088480D01*
X130505104Y-86088480D01*
X129565495Y-82605619D02*
X129613114Y-82558000D01*
X129708352Y-82510380D01*
X129946447Y-82510380D01*
X130041685Y-82558000D01*
X130089304Y-82605619D01*
X130136923Y-82700857D01*
X130136923Y-82796095D01*
X130089304Y-82938952D01*
X129517876Y-83510380D01*
X130136923Y-83510380D01*
X131089304Y-83510380D02*
X130517876Y-83510380D01*
X130803590Y-83510380D02*
X130803590Y-82510380D01*
X130708352Y-82653238D01*
X130613114Y-82748476D01*
X130517876Y-82796095D01*
X130046433Y-81033880D02*
X129713100Y-80557690D01*
X129475004Y-81033880D02*
X129475004Y-80033880D01*
X129855957Y-80033880D01*
X129951195Y-80081500D01*
X129998814Y-80129119D01*
X130046433Y-80224357D01*
X130046433Y-80367214D01*
X129998814Y-80462452D01*
X129951195Y-80510071D01*
X129855957Y-80557690D01*
X129475004Y-80557690D01*
X130379766Y-80033880D02*
X131046433Y-81033880D01*
X131046433Y-80033880D02*
X130379766Y-81033880D01*
X129501995Y-77735180D02*
X130073423Y-77735180D01*
X129787709Y-78735180D02*
X129787709Y-77735180D01*
X130311519Y-77735180D02*
X130978185Y-78735180D01*
X130978185Y-77735180D02*
X130311519Y-78735180D01*
X129527395Y-75023719D02*
X129575014Y-74976100D01*
X129670252Y-74928480D01*
X129908347Y-74928480D01*
X130003585Y-74976100D01*
X130051204Y-75023719D01*
X130098823Y-75118957D01*
X130098823Y-75214195D01*
X130051204Y-75357052D01*
X129479776Y-75928480D01*
X130098823Y-75928480D01*
X130479776Y-75023719D02*
X130527395Y-74976100D01*
X130622633Y-74928480D01*
X130860728Y-74928480D01*
X130955966Y-74976100D01*
X131003585Y-75023719D01*
X131051204Y-75118957D01*
X131051204Y-75214195D01*
X131003585Y-75357052D01*
X130432157Y-75928480D01*
X131051204Y-75928480D01*
X129552795Y-72521819D02*
X129600414Y-72474200D01*
X129695652Y-72426580D01*
X129933747Y-72426580D01*
X130028985Y-72474200D01*
X130076604Y-72521819D01*
X130124223Y-72617057D01*
X130124223Y-72712295D01*
X130076604Y-72855152D01*
X129505176Y-73426580D01*
X130124223Y-73426580D01*
X130457557Y-72426580D02*
X131076604Y-72426580D01*
X130743271Y-72807533D01*
X130886128Y-72807533D01*
X130981366Y-72855152D01*
X131028985Y-72902771D01*
X131076604Y-72998009D01*
X131076604Y-73236104D01*
X131028985Y-73331342D01*
X130981366Y-73378961D01*
X130886128Y-73426580D01*
X130600414Y-73426580D01*
X130505176Y-73378961D01*
X130457557Y-73331342D01*
X129171795Y-70112000D02*
X129076557Y-70064380D01*
X128933700Y-70064380D01*
X128790842Y-70112000D01*
X128695604Y-70207238D01*
X128647985Y-70302476D01*
X128600366Y-70492952D01*
X128600366Y-70635809D01*
X128647985Y-70826285D01*
X128695604Y-70921523D01*
X128790842Y-71016761D01*
X128933700Y-71064380D01*
X129028938Y-71064380D01*
X129171795Y-71016761D01*
X129219414Y-70969142D01*
X129219414Y-70635809D01*
X129028938Y-70635809D01*
X129647985Y-71064380D02*
X129647985Y-70064380D01*
X130219414Y-71064380D01*
X130219414Y-70064380D01*
X130695604Y-71064380D02*
X130695604Y-70064380D01*
X130933700Y-70064380D01*
X131076557Y-70112000D01*
X131171795Y-70207238D01*
X131219414Y-70302476D01*
X131267033Y-70492952D01*
X131267033Y-70635809D01*
X131219414Y-70826285D01*
X131171795Y-70921523D01*
X131076557Y-71016761D01*
X130933700Y-71064380D01*
X130695604Y-71064380D01*
X111871261Y-115593880D02*
X112204595Y-116593880D01*
X112537928Y-115593880D01*
X112871261Y-116593880D02*
X112871261Y-115593880D01*
X113347452Y-116593880D02*
X113347452Y-115593880D01*
X113918880Y-116593880D01*
X113918880Y-115593880D01*
X112420495Y-113679242D02*
X112372876Y-113726861D01*
X112230019Y-113774480D01*
X112134780Y-113774480D01*
X111991923Y-113726861D01*
X111896685Y-113631623D01*
X111849066Y-113536385D01*
X111801447Y-113345909D01*
X111801447Y-113203052D01*
X111849066Y-113012576D01*
X111896685Y-112917338D01*
X111991923Y-112822100D01*
X112134780Y-112774480D01*
X112230019Y-112774480D01*
X112372876Y-112822100D01*
X112420495Y-112869719D01*
X112849066Y-113774480D02*
X112849066Y-112774480D01*
X113182400Y-113488766D01*
X113515733Y-112774480D01*
X113515733Y-113774480D01*
X113991923Y-113774480D02*
X113991923Y-112774480D01*
X114230019Y-112774480D01*
X114372876Y-112822100D01*
X114468114Y-112917338D01*
X114515733Y-113012576D01*
X114563352Y-113203052D01*
X114563352Y-113345909D01*
X114515733Y-113536385D01*
X114468114Y-113631623D01*
X114372876Y-113726861D01*
X114230019Y-113774480D01*
X113991923Y-113774480D01*
X111999804Y-111399580D02*
X111999804Y-110399580D01*
X112237900Y-110399580D01*
X112380757Y-110447200D01*
X112475995Y-110542438D01*
X112523614Y-110637676D01*
X112571233Y-110828152D01*
X112571233Y-110971009D01*
X112523614Y-111161485D01*
X112475995Y-111256723D01*
X112380757Y-111351961D01*
X112237900Y-111399580D01*
X111999804Y-111399580D01*
X112904566Y-110399580D02*
X113523614Y-110399580D01*
X113190280Y-110780533D01*
X113333138Y-110780533D01*
X113428376Y-110828152D01*
X113475995Y-110875771D01*
X113523614Y-110971009D01*
X113523614Y-111209104D01*
X113475995Y-111304342D01*
X113428376Y-111351961D01*
X113333138Y-111399580D01*
X113047423Y-111399580D01*
X112952185Y-111351961D01*
X112904566Y-111304342D01*
X111999804Y-108846880D02*
X111999804Y-107846880D01*
X112237900Y-107846880D01*
X112380757Y-107894500D01*
X112475995Y-107989738D01*
X112523614Y-108084976D01*
X112571233Y-108275452D01*
X112571233Y-108418309D01*
X112523614Y-108608785D01*
X112475995Y-108704023D01*
X112380757Y-108799261D01*
X112237900Y-108846880D01*
X111999804Y-108846880D01*
X112952185Y-107942119D02*
X112999804Y-107894500D01*
X113095042Y-107846880D01*
X113333138Y-107846880D01*
X113428376Y-107894500D01*
X113475995Y-107942119D01*
X113523614Y-108037357D01*
X113523614Y-108132595D01*
X113475995Y-108275452D01*
X112904566Y-108846880D01*
X113523614Y-108846880D01*
X112395023Y-106357680D02*
X111823595Y-106357680D01*
X112109309Y-106357680D02*
X112109309Y-105357680D01*
X112014071Y-105500538D01*
X111918833Y-105595776D01*
X111823595Y-105643395D01*
X112728357Y-105357680D02*
X113347404Y-105357680D01*
X113014071Y-105738633D01*
X113156928Y-105738633D01*
X113252166Y-105786252D01*
X113299785Y-105833871D01*
X113347404Y-105929109D01*
X113347404Y-106167204D01*
X113299785Y-106262442D01*
X113252166Y-106310061D01*
X113156928Y-106357680D01*
X112871214Y-106357680D01*
X112775976Y-106310061D01*
X112728357Y-106262442D01*
X112293495Y-102954200D02*
X112198257Y-102906580D01*
X112055400Y-102906580D01*
X111912542Y-102954200D01*
X111817304Y-103049438D01*
X111769685Y-103144676D01*
X111722066Y-103335152D01*
X111722066Y-103478009D01*
X111769685Y-103668485D01*
X111817304Y-103763723D01*
X111912542Y-103858961D01*
X112055400Y-103906580D01*
X112150638Y-103906580D01*
X112293495Y-103858961D01*
X112341114Y-103811342D01*
X112341114Y-103478009D01*
X112150638Y-103478009D01*
X112769685Y-103906580D02*
X112769685Y-102906580D01*
X113341114Y-103906580D01*
X113341114Y-102906580D01*
X113817304Y-103906580D02*
X113817304Y-102906580D01*
X114055400Y-102906580D01*
X114198257Y-102954200D01*
X114293495Y-103049438D01*
X114341114Y-103144676D01*
X114388733Y-103335152D01*
X114388733Y-103478009D01*
X114341114Y-103668485D01*
X114293495Y-103763723D01*
X114198257Y-103858961D01*
X114055400Y-103906580D01*
X113817304Y-103906580D01*
X112344223Y-101087180D02*
X111772795Y-101087180D01*
X112058509Y-101087180D02*
X112058509Y-100087180D01*
X111963271Y-100230038D01*
X111868033Y-100325276D01*
X111772795Y-100372895D01*
X112725176Y-100182419D02*
X112772795Y-100134800D01*
X112868033Y-100087180D01*
X113106128Y-100087180D01*
X113201366Y-100134800D01*
X113248985Y-100182419D01*
X113296604Y-100277657D01*
X113296604Y-100372895D01*
X113248985Y-100515752D01*
X112677557Y-101087180D01*
X113296604Y-101087180D01*
X112344223Y-98610680D02*
X111772795Y-98610680D01*
X112058509Y-98610680D02*
X112058509Y-97610680D01*
X111963271Y-97753538D01*
X111868033Y-97848776D01*
X111772795Y-97896395D01*
X113201366Y-97944014D02*
X113201366Y-98610680D01*
X112963271Y-97563061D02*
X112725176Y-98277347D01*
X113344223Y-98277347D01*
X111798195Y-95267519D02*
X111845814Y-95219900D01*
X111941052Y-95172280D01*
X112179147Y-95172280D01*
X112274385Y-95219900D01*
X112322004Y-95267519D01*
X112369623Y-95362757D01*
X112369623Y-95457995D01*
X112322004Y-95600852D01*
X111750576Y-96172280D01*
X112369623Y-96172280D01*
X112702957Y-95172280D02*
X113369623Y-95172280D01*
X112941052Y-96172280D01*
X111760095Y-92854519D02*
X111807714Y-92806900D01*
X111902952Y-92759280D01*
X112141047Y-92759280D01*
X112236285Y-92806900D01*
X112283904Y-92854519D01*
X112331523Y-92949757D01*
X112331523Y-93044995D01*
X112283904Y-93187852D01*
X111712476Y-93759280D01*
X112331523Y-93759280D01*
X113188666Y-92759280D02*
X112998190Y-92759280D01*
X112902952Y-92806900D01*
X112855333Y-92854519D01*
X112760095Y-92997376D01*
X112712476Y-93187852D01*
X112712476Y-93568804D01*
X112760095Y-93664042D01*
X112807714Y-93711661D01*
X112902952Y-93759280D01*
X113093428Y-93759280D01*
X113188666Y-93711661D01*
X113236285Y-93664042D01*
X113283904Y-93568804D01*
X113283904Y-93330709D01*
X113236285Y-93235471D01*
X113188666Y-93187852D01*
X113093428Y-93140233D01*
X112902952Y-93140233D01*
X112807714Y-93187852D01*
X112760095Y-93235471D01*
X112712476Y-93330709D01*
X111785495Y-90314519D02*
X111833114Y-90266900D01*
X111928352Y-90219280D01*
X112166447Y-90219280D01*
X112261685Y-90266900D01*
X112309304Y-90314519D01*
X112356923Y-90409757D01*
X112356923Y-90504995D01*
X112309304Y-90647852D01*
X111737876Y-91219280D01*
X112356923Y-91219280D01*
X113261685Y-90219280D02*
X112785495Y-90219280D01*
X112737876Y-90695471D01*
X112785495Y-90647852D01*
X112880733Y-90600233D01*
X113118828Y-90600233D01*
X113214066Y-90647852D01*
X113261685Y-90695471D01*
X113309304Y-90790709D01*
X113309304Y-91028804D01*
X113261685Y-91124042D01*
X113214066Y-91171661D01*
X113118828Y-91219280D01*
X112880733Y-91219280D01*
X112785495Y-91171661D01*
X112737876Y-91124042D01*
X111674376Y-87653880D02*
X112293423Y-87653880D01*
X111960090Y-88034833D01*
X112102947Y-88034833D01*
X112198185Y-88082452D01*
X112245804Y-88130071D01*
X112293423Y-88225309D01*
X112293423Y-88463404D01*
X112245804Y-88558642D01*
X112198185Y-88606261D01*
X112102947Y-88653880D01*
X111817233Y-88653880D01*
X111721995Y-88606261D01*
X111674376Y-88558642D01*
X112626757Y-87653880D02*
X113245804Y-87653880D01*
X112912471Y-88034833D01*
X113055328Y-88034833D01*
X113150566Y-88082452D01*
X113198185Y-88130071D01*
X113245804Y-88225309D01*
X113245804Y-88463404D01*
X113198185Y-88558642D01*
X113150566Y-88606261D01*
X113055328Y-88653880D01*
X112769614Y-88653880D01*
X112674376Y-88606261D01*
X112626757Y-88558642D01*
X111712476Y-85101180D02*
X112331523Y-85101180D01*
X111998190Y-85482133D01*
X112141047Y-85482133D01*
X112236285Y-85529752D01*
X112283904Y-85577371D01*
X112331523Y-85672609D01*
X112331523Y-85910704D01*
X112283904Y-86005942D01*
X112236285Y-86053561D01*
X112141047Y-86101180D01*
X111855333Y-86101180D01*
X111760095Y-86053561D01*
X111712476Y-86005942D01*
X112712476Y-85196419D02*
X112760095Y-85148800D01*
X112855333Y-85101180D01*
X113093428Y-85101180D01*
X113188666Y-85148800D01*
X113236285Y-85196419D01*
X113283904Y-85291657D01*
X113283904Y-85386895D01*
X113236285Y-85529752D01*
X112664857Y-86101180D01*
X113283904Y-86101180D01*
X111712476Y-82726280D02*
X112331523Y-82726280D01*
X111998190Y-83107233D01*
X112141047Y-83107233D01*
X112236285Y-83154852D01*
X112283904Y-83202471D01*
X112331523Y-83297709D01*
X112331523Y-83535804D01*
X112283904Y-83631042D01*
X112236285Y-83678661D01*
X112141047Y-83726280D01*
X111855333Y-83726280D01*
X111760095Y-83678661D01*
X111712476Y-83631042D01*
X113236285Y-82726280D02*
X112760095Y-82726280D01*
X112712476Y-83202471D01*
X112760095Y-83154852D01*
X112855333Y-83107233D01*
X113093428Y-83107233D01*
X113188666Y-83154852D01*
X113236285Y-83202471D01*
X113283904Y-83297709D01*
X113283904Y-83535804D01*
X113236285Y-83631042D01*
X113188666Y-83678661D01*
X113093428Y-83726280D01*
X112855333Y-83726280D01*
X112760095Y-83678661D01*
X112712476Y-83631042D01*
X111687076Y-80033880D02*
X112306123Y-80033880D01*
X111972790Y-80414833D01*
X112115647Y-80414833D01*
X112210885Y-80462452D01*
X112258504Y-80510071D01*
X112306123Y-80605309D01*
X112306123Y-80843404D01*
X112258504Y-80938642D01*
X112210885Y-80986261D01*
X112115647Y-81033880D01*
X111829933Y-81033880D01*
X111734695Y-80986261D01*
X111687076Y-80938642D01*
X113163266Y-80367214D02*
X113163266Y-81033880D01*
X112925171Y-79986261D02*
X112687076Y-80700547D01*
X113306123Y-80700547D01*
X111664857Y-77506580D02*
X111998190Y-78506580D01*
X112331523Y-77506580D01*
X112664857Y-78506580D02*
X112664857Y-77506580D01*
X113236285Y-78506580D01*
X113236285Y-77506580D01*
X111599766Y-74826880D02*
X111933100Y-75826880D01*
X112266433Y-74826880D01*
X112599766Y-75826880D02*
X112599766Y-74826880D01*
X112980719Y-74826880D01*
X113075957Y-74874500D01*
X113123576Y-74922119D01*
X113171195Y-75017357D01*
X113171195Y-75160214D01*
X113123576Y-75255452D01*
X113075957Y-75303071D01*
X112980719Y-75350690D01*
X112599766Y-75350690D01*
X111631504Y-72839271D02*
X111964838Y-72839271D01*
X112107695Y-73363080D02*
X111631504Y-73363080D01*
X111631504Y-72363080D01*
X112107695Y-72363080D01*
X112536266Y-73363080D02*
X112536266Y-72363080D01*
X113107695Y-73363080D01*
X113107695Y-72363080D01*
X111398204Y-69734180D02*
X112017252Y-69734180D01*
X111683919Y-70115133D01*
X111826776Y-70115133D01*
X111922014Y-70162752D01*
X111969633Y-70210371D01*
X112017252Y-70305609D01*
X112017252Y-70543704D01*
X111969633Y-70638942D01*
X111922014Y-70686561D01*
X111826776Y-70734180D01*
X111541061Y-70734180D01*
X111445823Y-70686561D01*
X111398204Y-70638942D01*
X112302966Y-69734180D02*
X112636300Y-70734180D01*
X112969633Y-69734180D01*
X113207728Y-69734180D02*
X113826776Y-69734180D01*
X113493442Y-70115133D01*
X113636300Y-70115133D01*
X113731538Y-70162752D01*
X113779157Y-70210371D01*
X113826776Y-70305609D01*
X113826776Y-70543704D01*
X113779157Y-70638942D01*
X113731538Y-70686561D01*
X113636300Y-70734180D01*
X113350585Y-70734180D01*
X113255347Y-70686561D01*
X113207728Y-70638942D01*
X184183466Y-117944066D02*
X184183466Y-117244066D01*
X184650133Y-117244066D02*
X184783466Y-117244066D01*
X184850133Y-117277400D01*
X184916800Y-117344066D01*
X184950133Y-117477400D01*
X184950133Y-117710733D01*
X184916800Y-117844066D01*
X184850133Y-117910733D01*
X184783466Y-117944066D01*
X184650133Y-117944066D01*
X184583466Y-117910733D01*
X184516800Y-117844066D01*
X184483466Y-117710733D01*
X184483466Y-117477400D01*
X184516800Y-117344066D01*
X184583466Y-117277400D01*
X184650133Y-117244066D01*
X185616800Y-117944066D02*
X185216800Y-117944066D01*
X185416800Y-117944066D02*
X185416800Y-117244066D01*
X185350133Y-117344066D01*
X185283466Y-117410733D01*
X185216800Y-117444066D01*
X185850133Y-117244066D02*
X186283466Y-117244066D01*
X186050133Y-117510733D01*
X186150133Y-117510733D01*
X186216800Y-117544066D01*
X186250133Y-117577400D01*
X186283466Y-117644066D01*
X186283466Y-117810733D01*
X186250133Y-117877400D01*
X186216800Y-117910733D01*
X186150133Y-117944066D01*
X185950133Y-117944066D01*
X185883466Y-117910733D01*
X185850133Y-117877400D01*
X181804133Y-116530380D02*
X181804133Y-115530380D01*
X182042228Y-115530380D01*
X182185085Y-115578000D01*
X182280323Y-115673238D01*
X182327942Y-115768476D01*
X182375561Y-115958952D01*
X182375561Y-116101809D01*
X182327942Y-116292285D01*
X182280323Y-116387523D01*
X182185085Y-116482761D01*
X182042228Y-116530380D01*
X181804133Y-116530380D01*
X182804133Y-116006571D02*
X183137466Y-116006571D01*
X183280323Y-116530380D02*
X182804133Y-116530380D01*
X182804133Y-115530380D01*
X183280323Y-115530380D01*
X184042228Y-116006571D02*
X184185085Y-116054190D01*
X184232704Y-116101809D01*
X184280323Y-116197047D01*
X184280323Y-116339904D01*
X184232704Y-116435142D01*
X184185085Y-116482761D01*
X184089847Y-116530380D01*
X183708895Y-116530380D01*
X183708895Y-115530380D01*
X184042228Y-115530380D01*
X184137466Y-115578000D01*
X184185085Y-115625619D01*
X184232704Y-115720857D01*
X184232704Y-115816095D01*
X184185085Y-115911333D01*
X184137466Y-115958952D01*
X184042228Y-116006571D01*
X183708895Y-116006571D01*
X184708895Y-115530380D02*
X184708895Y-116339904D01*
X184756514Y-116435142D01*
X184804133Y-116482761D01*
X184899371Y-116530380D01*
X185089847Y-116530380D01*
X185185085Y-116482761D01*
X185232704Y-116435142D01*
X185280323Y-116339904D01*
X185280323Y-115530380D01*
X186280323Y-115578000D02*
X186185085Y-115530380D01*
X186042228Y-115530380D01*
X185899371Y-115578000D01*
X185804133Y-115673238D01*
X185756514Y-115768476D01*
X185708895Y-115958952D01*
X185708895Y-116101809D01*
X185756514Y-116292285D01*
X185804133Y-116387523D01*
X185899371Y-116482761D01*
X186042228Y-116530380D01*
X186137466Y-116530380D01*
X186280323Y-116482761D01*
X186327942Y-116435142D01*
X186327942Y-116101809D01*
X186137466Y-116101809D01*
X187470800Y-116482761D02*
X187613657Y-116530380D01*
X187851752Y-116530380D01*
X187946990Y-116482761D01*
X187994609Y-116435142D01*
X188042228Y-116339904D01*
X188042228Y-116244666D01*
X187994609Y-116149428D01*
X187946990Y-116101809D01*
X187851752Y-116054190D01*
X187661276Y-116006571D01*
X187566038Y-115958952D01*
X187518419Y-115911333D01*
X187470800Y-115816095D01*
X187470800Y-115720857D01*
X187518419Y-115625619D01*
X187566038Y-115578000D01*
X187661276Y-115530380D01*
X187899371Y-115530380D01*
X188042228Y-115578000D01*
X188375561Y-115530380D02*
X188613657Y-116530380D01*
X188804133Y-115816095D01*
X188994609Y-116530380D01*
X189232704Y-115530380D01*
X182126404Y-79801980D02*
X182126404Y-78801980D01*
X182507357Y-78801980D01*
X182602595Y-78849600D01*
X182650214Y-78897219D01*
X182697833Y-78992457D01*
X182697833Y-79135314D01*
X182650214Y-79230552D01*
X182602595Y-79278171D01*
X182507357Y-79325790D01*
X182126404Y-79325790D01*
X183316880Y-78801980D02*
X183507357Y-78801980D01*
X183602595Y-78849600D01*
X183697833Y-78944838D01*
X183745452Y-79135314D01*
X183745452Y-79468647D01*
X183697833Y-79659123D01*
X183602595Y-79754361D01*
X183507357Y-79801980D01*
X183316880Y-79801980D01*
X183221642Y-79754361D01*
X183126404Y-79659123D01*
X183078785Y-79468647D01*
X183078785Y-79135314D01*
X183126404Y-78944838D01*
X183221642Y-78849600D01*
X183316880Y-78801980D01*
X184078785Y-78801980D02*
X184316880Y-79801980D01*
X184507357Y-79087695D01*
X184697833Y-79801980D01*
X184935928Y-78801980D01*
X185316880Y-79278171D02*
X185650214Y-79278171D01*
X185793071Y-79801980D02*
X185316880Y-79801980D01*
X185316880Y-78801980D01*
X185793071Y-78801980D01*
X186793071Y-79801980D02*
X186459738Y-79325790D01*
X186221642Y-79801980D02*
X186221642Y-78801980D01*
X186602595Y-78801980D01*
X186697833Y-78849600D01*
X186745452Y-78897219D01*
X186793071Y-78992457D01*
X186793071Y-79135314D01*
X186745452Y-79230552D01*
X186697833Y-79278171D01*
X186602595Y-79325790D01*
X186221642Y-79325790D01*
X187935928Y-79754361D02*
X188078785Y-79801980D01*
X188316880Y-79801980D01*
X188412119Y-79754361D01*
X188459738Y-79706742D01*
X188507357Y-79611504D01*
X188507357Y-79516266D01*
X188459738Y-79421028D01*
X188412119Y-79373409D01*
X188316880Y-79325790D01*
X188126404Y-79278171D01*
X188031166Y-79230552D01*
X187983547Y-79182933D01*
X187935928Y-79087695D01*
X187935928Y-78992457D01*
X187983547Y-78897219D01*
X188031166Y-78849600D01*
X188126404Y-78801980D01*
X188364500Y-78801980D01*
X188507357Y-78849600D01*
X188840690Y-78801980D02*
X189078785Y-79801980D01*
X189269261Y-79087695D01*
X189459738Y-79801980D01*
X189697833Y-78801980D01*
X162699733Y-70938300D02*
X163233066Y-70938300D01*
X162966400Y-71204966D02*
X162966400Y-70671633D01*
X162099733Y-71704966D02*
X162533066Y-71704966D01*
X162299733Y-71971633D01*
X162399733Y-71971633D01*
X162466400Y-72004966D01*
X162499733Y-72038300D01*
X162533066Y-72104966D01*
X162533066Y-72271633D01*
X162499733Y-72338300D01*
X162466400Y-72371633D01*
X162399733Y-72404966D01*
X162199733Y-72404966D01*
X162133066Y-72371633D01*
X162099733Y-72338300D01*
X162733066Y-71704966D02*
X162966400Y-72404966D01*
X163199733Y-71704966D01*
X163366400Y-71704966D02*
X163799733Y-71704966D01*
X163566400Y-71971633D01*
X163666400Y-71971633D01*
X163733066Y-72004966D01*
X163766400Y-72038300D01*
X163799733Y-72104966D01*
X163799733Y-72271633D01*
X163766400Y-72338300D01*
X163733066Y-72371633D01*
X163666400Y-72404966D01*
X163466400Y-72404966D01*
X163399733Y-72371633D01*
X163366400Y-72338300D01*
X100634000Y-95008666D02*
X100634000Y-94475333D01*
X100900666Y-94742000D02*
X100367333Y-94742000D01*
X100608600Y-92240066D02*
X100608600Y-91706733D01*
X100875266Y-91973400D02*
X100341933Y-91973400D01*
X100570500Y-89801666D02*
X100570500Y-89268333D01*
X100837166Y-89535000D02*
X100303833Y-89535000D01*
X167867800Y-103428766D02*
X167867800Y-102895433D01*
X168134466Y-103162100D02*
X167601133Y-103162100D01*
X168035466Y-104939266D02*
X167802133Y-104605933D01*
X167635466Y-104939266D02*
X167635466Y-104239266D01*
X167902133Y-104239266D01*
X167968800Y-104272600D01*
X168002133Y-104305933D01*
X168035466Y-104372600D01*
X168035466Y-104472600D01*
X168002133Y-104539266D01*
X167968800Y-104572600D01*
X167902133Y-104605933D01*
X167635466Y-104605933D01*
X168335466Y-104572600D02*
X168568800Y-104572600D01*
X168668800Y-104939266D02*
X168335466Y-104939266D01*
X168335466Y-104239266D01*
X168668800Y-104239266D01*
X169335466Y-104272600D02*
X169268800Y-104239266D01*
X169168800Y-104239266D01*
X169068800Y-104272600D01*
X169002133Y-104339266D01*
X168968800Y-104405933D01*
X168935466Y-104539266D01*
X168935466Y-104639266D01*
X168968800Y-104772600D01*
X169002133Y-104839266D01*
X169068800Y-104905933D01*
X169168800Y-104939266D01*
X169235466Y-104939266D01*
X169335466Y-104905933D01*
X169368800Y-104872600D01*
X169368800Y-104639266D01*
X169235466Y-104639266D01*
X170335466Y-104239266D02*
X170468800Y-104239266D01*
X170535466Y-104272600D01*
X170602133Y-104339266D01*
X170635466Y-104472600D01*
X170635466Y-104705933D01*
X170602133Y-104839266D01*
X170535466Y-104905933D01*
X170468800Y-104939266D01*
X170335466Y-104939266D01*
X170268800Y-104905933D01*
X170202133Y-104839266D01*
X170168800Y-104705933D01*
X170168800Y-104472600D01*
X170202133Y-104339266D01*
X170268800Y-104272600D01*
X170335466Y-104239266D01*
X170935466Y-104939266D02*
X170935466Y-104239266D01*
X171202133Y-104239266D01*
X171268800Y-104272600D01*
X171302133Y-104305933D01*
X171335466Y-104372600D01*
X171335466Y-104472600D01*
X171302133Y-104539266D01*
X171268800Y-104572600D01*
X171202133Y-104605933D01*
X170935466Y-104605933D01*
X102069100Y-89671033D02*
X102069100Y-89904366D01*
X101702433Y-90004366D02*
X101702433Y-89671033D01*
X102402433Y-89671033D01*
X102402433Y-90004366D01*
X101702433Y-90304366D02*
X102402433Y-90304366D01*
X101702433Y-90704366D01*
X102402433Y-90704366D01*
X101702433Y-91037700D02*
X102402433Y-91037700D01*
X102402433Y-91204366D01*
X102369100Y-91304366D01*
X102302433Y-91371033D01*
X102235766Y-91404366D01*
X102102433Y-91437700D01*
X102002433Y-91437700D01*
X101869100Y-91404366D01*
X101802433Y-91371033D01*
X101735766Y-91304366D01*
X101702433Y-91204366D01*
X101702433Y-91037700D01*
X101702433Y-92604366D02*
X101702433Y-92271033D01*
X102402433Y-92271033D01*
X102069100Y-92837700D02*
X102069100Y-93071033D01*
X101702433Y-93171033D02*
X101702433Y-92837700D01*
X102402433Y-92837700D01*
X102402433Y-93171033D01*
X101702433Y-93471033D02*
X102402433Y-93471033D01*
X102402433Y-93637700D01*
X102369100Y-93737700D01*
X102302433Y-93804366D01*
X102235766Y-93837700D01*
X102102433Y-93871033D01*
X102002433Y-93871033D01*
X101869100Y-93837700D01*
X101802433Y-93804366D01*
X101735766Y-93737700D01*
X101702433Y-93637700D01*
X101702433Y-93471033D01*
X101735766Y-94137700D02*
X101702433Y-94237700D01*
X101702433Y-94404366D01*
X101735766Y-94471033D01*
X101769100Y-94504366D01*
X101835766Y-94537700D01*
X101902433Y-94537700D01*
X101969100Y-94504366D01*
X102002433Y-94471033D01*
X102035766Y-94404366D01*
X102069100Y-94271033D01*
X102102433Y-94204366D01*
X102135766Y-94171033D01*
X102202433Y-94137700D01*
X102269100Y-94137700D01*
X102335766Y-94171033D01*
X102369100Y-94204366D01*
X102402433Y-94271033D01*
X102402433Y-94437700D01*
X102369100Y-94537700D01*
X139972300Y-71018333D02*
X139938966Y-71085000D01*
X139938966Y-71185000D01*
X139972300Y-71285000D01*
X140038966Y-71351666D01*
X140105633Y-71385000D01*
X140238966Y-71418333D01*
X140338966Y-71418333D01*
X140472300Y-71385000D01*
X140538966Y-71351666D01*
X140605633Y-71285000D01*
X140638966Y-71185000D01*
X140638966Y-71118333D01*
X140605633Y-71018333D01*
X140572300Y-70985000D01*
X140338966Y-70985000D01*
X140338966Y-71118333D01*
X140638966Y-70685000D02*
X139938966Y-70685000D01*
X140638966Y-70285000D01*
X139938966Y-70285000D01*
X140638966Y-69951666D02*
X139938966Y-69951666D01*
X139938966Y-69785000D01*
X139972300Y-69685000D01*
X140038966Y-69618333D01*
X140105633Y-69585000D01*
X140238966Y-69551666D01*
X140338966Y-69551666D01*
X140472300Y-69585000D01*
X140538966Y-69618333D01*
X140605633Y-69685000D01*
X140638966Y-69785000D01*
X140638966Y-69951666D01*
X145406233Y-78802600D02*
X145439566Y-78702600D01*
X145439566Y-78535933D01*
X145406233Y-78469266D01*
X145372900Y-78435933D01*
X145306233Y-78402600D01*
X145239566Y-78402600D01*
X145172900Y-78435933D01*
X145139566Y-78469266D01*
X145106233Y-78535933D01*
X145072900Y-78669266D01*
X145039566Y-78735933D01*
X145006233Y-78769266D01*
X144939566Y-78802600D01*
X144872900Y-78802600D01*
X144806233Y-78769266D01*
X144772900Y-78735933D01*
X144739566Y-78669266D01*
X144739566Y-78502600D01*
X144772900Y-78402600D01*
X145439566Y-78102600D02*
X144739566Y-78102600D01*
X144739566Y-77935933D01*
X144772900Y-77835933D01*
X144839566Y-77769266D01*
X144906233Y-77735933D01*
X145039566Y-77702600D01*
X145139566Y-77702600D01*
X145272900Y-77735933D01*
X145339566Y-77769266D01*
X145406233Y-77835933D01*
X145439566Y-77935933D01*
X145439566Y-78102600D01*
X145239566Y-77435933D02*
X145239566Y-77102600D01*
X145439566Y-77502600D02*
X144739566Y-77269266D01*
X145439566Y-77035933D01*
X146174666Y-84023666D02*
X146174666Y-83890333D01*
X146208000Y-83823666D01*
X146274666Y-83757000D01*
X146408000Y-83723666D01*
X146641333Y-83723666D01*
X146774666Y-83757000D01*
X146841333Y-83823666D01*
X146874666Y-83890333D01*
X146874666Y-84023666D01*
X146841333Y-84090333D01*
X146774666Y-84157000D01*
X146641333Y-84190333D01*
X146408000Y-84190333D01*
X146274666Y-84157000D01*
X146208000Y-84090333D01*
X146174666Y-84023666D01*
X146874666Y-83090333D02*
X146874666Y-83423666D01*
X146174666Y-83423666D01*
X146508000Y-82857000D02*
X146508000Y-82623666D01*
X146874666Y-82523666D02*
X146874666Y-82857000D01*
X146174666Y-82857000D01*
X146174666Y-82523666D01*
X146874666Y-82223666D02*
X146174666Y-82223666D01*
X146174666Y-82057000D01*
X146208000Y-81957000D01*
X146274666Y-81890333D01*
X146341333Y-81857000D01*
X146474666Y-81823666D01*
X146574666Y-81823666D01*
X146708000Y-81857000D01*
X146774666Y-81890333D01*
X146841333Y-81957000D01*
X146874666Y-82057000D01*
X146874666Y-82223666D01*
X146874666Y-80990333D02*
X146174666Y-80990333D01*
X146174666Y-80723666D01*
X146208000Y-80657000D01*
X146241333Y-80623666D01*
X146308000Y-80590333D01*
X146408000Y-80590333D01*
X146474666Y-80623666D01*
X146508000Y-80657000D01*
X146541333Y-80723666D01*
X146541333Y-80990333D01*
X146174666Y-80157000D02*
X146174666Y-80023666D01*
X146208000Y-79957000D01*
X146274666Y-79890333D01*
X146408000Y-79857000D01*
X146641333Y-79857000D01*
X146774666Y-79890333D01*
X146841333Y-79957000D01*
X146874666Y-80023666D01*
X146874666Y-80157000D01*
X146841333Y-80223666D01*
X146774666Y-80290333D01*
X146641333Y-80323666D01*
X146408000Y-80323666D01*
X146274666Y-80290333D01*
X146208000Y-80223666D01*
X146174666Y-80157000D01*
X146874666Y-79157000D02*
X146541333Y-79390333D01*
X146874666Y-79557000D02*
X146174666Y-79557000D01*
X146174666Y-79290333D01*
X146208000Y-79223666D01*
X146241333Y-79190333D01*
X146308000Y-79157000D01*
X146408000Y-79157000D01*
X146474666Y-79190333D01*
X146508000Y-79223666D01*
X146541333Y-79290333D01*
X146541333Y-79557000D01*
X146174666Y-78957000D02*
X146174666Y-78557000D01*
X146874666Y-78757000D02*
X146174666Y-78757000D01*
X145444333Y-78840700D02*
X145477666Y-78740700D01*
X145477666Y-78574033D01*
X145444333Y-78507366D01*
X145411000Y-78474033D01*
X145344333Y-78440700D01*
X145277666Y-78440700D01*
X145211000Y-78474033D01*
X145177666Y-78507366D01*
X145144333Y-78574033D01*
X145111000Y-78707366D01*
X145077666Y-78774033D01*
X145044333Y-78807366D01*
X144977666Y-78840700D01*
X144911000Y-78840700D01*
X144844333Y-78807366D01*
X144811000Y-78774033D01*
X144777666Y-78707366D01*
X144777666Y-78540700D01*
X144811000Y-78440700D01*
X145477666Y-78140700D02*
X144777666Y-78140700D01*
X144777666Y-77974033D01*
X144811000Y-77874033D01*
X144877666Y-77807366D01*
X144944333Y-77774033D01*
X145077666Y-77740700D01*
X145177666Y-77740700D01*
X145311000Y-77774033D01*
X145377666Y-77807366D01*
X145444333Y-77874033D01*
X145477666Y-77974033D01*
X145477666Y-78140700D01*
X145277666Y-77474033D02*
X145277666Y-77140700D01*
X145477666Y-77540700D02*
X144777666Y-77307366D01*
X145477666Y-77074033D01*
X145533233Y-81491033D02*
X145566566Y-81391033D01*
X145566566Y-81224366D01*
X145533233Y-81157700D01*
X145499900Y-81124366D01*
X145433233Y-81091033D01*
X145366566Y-81091033D01*
X145299900Y-81124366D01*
X145266566Y-81157700D01*
X145233233Y-81224366D01*
X145199900Y-81357700D01*
X145166566Y-81424366D01*
X145133233Y-81457700D01*
X145066566Y-81491033D01*
X144999900Y-81491033D01*
X144933233Y-81457700D01*
X144899900Y-81424366D01*
X144866566Y-81357700D01*
X144866566Y-81191033D01*
X144899900Y-81091033D01*
X145499900Y-80391033D02*
X145533233Y-80424366D01*
X145566566Y-80524366D01*
X145566566Y-80591033D01*
X145533233Y-80691033D01*
X145466566Y-80757700D01*
X145399900Y-80791033D01*
X145266566Y-80824366D01*
X145166566Y-80824366D01*
X145033233Y-80791033D01*
X144966566Y-80757700D01*
X144899900Y-80691033D01*
X144866566Y-80591033D01*
X144866566Y-80524366D01*
X144899900Y-80424366D01*
X144933233Y-80391033D01*
X145566566Y-79757700D02*
X145566566Y-80091033D01*
X144866566Y-80091033D01*
X144887200Y-83629433D02*
X144853866Y-83696100D01*
X144853866Y-83796100D01*
X144887200Y-83896100D01*
X144953866Y-83962766D01*
X145020533Y-83996100D01*
X145153866Y-84029433D01*
X145253866Y-84029433D01*
X145387200Y-83996100D01*
X145453866Y-83962766D01*
X145520533Y-83896100D01*
X145553866Y-83796100D01*
X145553866Y-83729433D01*
X145520533Y-83629433D01*
X145487200Y-83596100D01*
X145253866Y-83596100D01*
X145253866Y-83729433D01*
X145553866Y-83296100D02*
X144853866Y-83296100D01*
X145553866Y-82896100D01*
X144853866Y-82896100D01*
X145553866Y-82562766D02*
X144853866Y-82562766D01*
X144853866Y-82396100D01*
X144887200Y-82296100D01*
X144953866Y-82229433D01*
X145020533Y-82196100D01*
X145153866Y-82162766D01*
X145253866Y-82162766D01*
X145387200Y-82196100D01*
X145453866Y-82229433D01*
X145520533Y-82296100D01*
X145553866Y-82396100D01*
X145553866Y-82562766D01*
X144879266Y-86540866D02*
X144879266Y-86107533D01*
X145145933Y-86340866D01*
X145145933Y-86240866D01*
X145179266Y-86174200D01*
X145212600Y-86140866D01*
X145279266Y-86107533D01*
X145445933Y-86107533D01*
X145512600Y-86140866D01*
X145545933Y-86174200D01*
X145579266Y-86240866D01*
X145579266Y-86440866D01*
X145545933Y-86507533D01*
X145512600Y-86540866D01*
X144879266Y-85907533D02*
X145579266Y-85674200D01*
X144879266Y-85440866D01*
X144879266Y-85274200D02*
X144879266Y-84840866D01*
X145145933Y-85074200D01*
X145145933Y-84974200D01*
X145179266Y-84907533D01*
X145212600Y-84874200D01*
X145279266Y-84840866D01*
X145445933Y-84840866D01*
X145512600Y-84874200D01*
X145545933Y-84907533D01*
X145579266Y-84974200D01*
X145579266Y-85174200D01*
X145545933Y-85240866D01*
X145512600Y-85274200D01*
X100873766Y-71300866D02*
X100873766Y-70867533D01*
X101140433Y-71100866D01*
X101140433Y-71000866D01*
X101173766Y-70934200D01*
X101207100Y-70900866D01*
X101273766Y-70867533D01*
X101440433Y-70867533D01*
X101507100Y-70900866D01*
X101540433Y-70934200D01*
X101573766Y-71000866D01*
X101573766Y-71200866D01*
X101540433Y-71267533D01*
X101507100Y-71300866D01*
X100873766Y-70667533D02*
X101573766Y-70434200D01*
X100873766Y-70200866D01*
X100873766Y-70034200D02*
X100873766Y-69600866D01*
X101140433Y-69834200D01*
X101140433Y-69734200D01*
X101173766Y-69667533D01*
X101207100Y-69634200D01*
X101273766Y-69600866D01*
X101440433Y-69600866D01*
X101507100Y-69634200D01*
X101540433Y-69667533D01*
X101573766Y-69734200D01*
X101573766Y-69934200D01*
X101540433Y-70000866D01*
X101507100Y-70034200D01*
D13*
%TO.C,G\u002A\u002A\u002A*%
G36*
X185915300Y-53974015D02*
G01*
X186008727Y-54085020D01*
X186041729Y-54265564D01*
X186004764Y-54425615D01*
X185967259Y-54464351D01*
X185891721Y-54432074D01*
X185841415Y-54321181D01*
X185793621Y-54077044D01*
X185822844Y-53969133D01*
X185915300Y-53974015D01*
G37*
X185915300Y-53974015D02*
X186008727Y-54085020D01*
X186041729Y-54265564D01*
X186004764Y-54425615D01*
X185967259Y-54464351D01*
X185891721Y-54432074D01*
X185841415Y-54321181D01*
X185793621Y-54077044D01*
X185822844Y-53969133D01*
X185915300Y-53974015D01*
G36*
X190965120Y-51698801D02*
G01*
X191122098Y-51802628D01*
X191247916Y-51910777D01*
X191346015Y-52042310D01*
X191419835Y-52216290D01*
X191472817Y-52451780D01*
X191508401Y-52767841D01*
X191530029Y-53183536D01*
X191541140Y-53717927D01*
X191545175Y-54390077D01*
X191545634Y-54915075D01*
X191545272Y-55623841D01*
X191543236Y-56183632D01*
X191538096Y-56614807D01*
X191528424Y-56937723D01*
X191512792Y-57172740D01*
X191489770Y-57340215D01*
X191457931Y-57460507D01*
X191415845Y-57553974D01*
X191362084Y-57640974D01*
X191353446Y-57653946D01*
X191262751Y-57787368D01*
X191174316Y-57898740D01*
X191072812Y-57990028D01*
X190942911Y-58063199D01*
X190769282Y-58120217D01*
X190536599Y-58163048D01*
X190229531Y-58193659D01*
X189832750Y-58214015D01*
X189330927Y-58226082D01*
X188708734Y-58231825D01*
X187950841Y-58233210D01*
X187041920Y-58232204D01*
X186846634Y-58231897D01*
X185957476Y-58230334D01*
X185224671Y-58228275D01*
X184635236Y-58225123D01*
X184176189Y-58220282D01*
X183834548Y-58213153D01*
X183597333Y-58203140D01*
X183451561Y-58189646D01*
X183384251Y-58172075D01*
X183382420Y-58149828D01*
X183433088Y-58122308D01*
X183523273Y-58088920D01*
X183548623Y-58080217D01*
X184081564Y-57854558D01*
X184535513Y-57554351D01*
X184963959Y-57149930D01*
X185386890Y-56616214D01*
X185667563Y-56058154D01*
X185797361Y-55607930D01*
X185871167Y-55349004D01*
X185941335Y-55257308D01*
X186001823Y-55330757D01*
X186046592Y-55567265D01*
X186058122Y-55697967D01*
X186084634Y-56078967D01*
X186830734Y-56078967D01*
X186830051Y-55998398D01*
X187481634Y-55998398D01*
X187557706Y-56020462D01*
X187752714Y-56026034D01*
X187915476Y-56019891D01*
X188349319Y-55994300D01*
X188851553Y-55107612D01*
X189048074Y-54762310D01*
X189213316Y-54475080D01*
X189330082Y-54275598D01*
X189381175Y-54193543D01*
X189381347Y-54193364D01*
X189430512Y-54252034D01*
X189545134Y-54432108D01*
X189708849Y-54706735D01*
X189905293Y-55049067D01*
X189934673Y-55101219D01*
X190460440Y-56036633D01*
X190876037Y-56036633D01*
X191114531Y-56025018D01*
X191263837Y-55995371D01*
X191289566Y-55973133D01*
X191248711Y-55882549D01*
X191136566Y-55670110D01*
X190966667Y-55360519D01*
X190752550Y-54978476D01*
X190535627Y-54597300D01*
X189783757Y-53284967D01*
X189407655Y-53259690D01*
X189031553Y-53234414D01*
X188256593Y-54592864D01*
X188011362Y-55025167D01*
X187798069Y-55405812D01*
X187629897Y-55710888D01*
X187520031Y-55916484D01*
X187481634Y-55998398D01*
X186830051Y-55998398D01*
X186826952Y-55633344D01*
X186805348Y-55354129D01*
X186754362Y-55133174D01*
X186716621Y-55059336D01*
X186653129Y-54914622D01*
X186704970Y-54722696D01*
X186707186Y-54717809D01*
X186763361Y-54509752D01*
X186798429Y-54216748D01*
X186804300Y-54047784D01*
X186771424Y-53709340D01*
X186656347Y-53491089D01*
X186434397Y-53371377D01*
X186080900Y-53328553D01*
X185983302Y-53327300D01*
X185714349Y-53317531D01*
X185558375Y-53272921D01*
X185459444Y-53170511D01*
X185415997Y-53094467D01*
X185274484Y-52890166D01*
X185051833Y-52638590D01*
X184781156Y-52369711D01*
X184495566Y-52113504D01*
X184228174Y-51899941D01*
X184012095Y-51758996D01*
X183896081Y-51718633D01*
X183917072Y-51763346D01*
X184047211Y-51880080D01*
X184239328Y-52029225D01*
X184481878Y-52233786D01*
X184728754Y-52482929D01*
X184953059Y-52743525D01*
X185127899Y-52982443D01*
X185226378Y-53166551D01*
X185232085Y-53252150D01*
X185132466Y-53284724D01*
X184903340Y-53310180D01*
X184584500Y-53324981D01*
X184386303Y-53327300D01*
X183586967Y-53327300D01*
X183586967Y-53914421D01*
X184539467Y-53938360D01*
X185491967Y-53962300D01*
X185518498Y-54237467D01*
X185545029Y-54512633D01*
X183586967Y-54512633D01*
X183586967Y-56131036D01*
X183946800Y-56105001D01*
X184306634Y-56078967D01*
X184357816Y-55189967D01*
X185467991Y-55189967D01*
X185410687Y-55422800D01*
X185230195Y-55873971D01*
X184924738Y-56335555D01*
X184529816Y-56763882D01*
X184080928Y-57115281D01*
X183988850Y-57171871D01*
X183338275Y-57461983D01*
X182659731Y-57600395D01*
X181977119Y-57594420D01*
X181314338Y-57451369D01*
X180695287Y-57178554D01*
X180143867Y-56783287D01*
X179683976Y-56272879D01*
X179387579Y-55764178D01*
X179299603Y-55568262D01*
X179522967Y-55568262D01*
X179586987Y-55828932D01*
X179783912Y-56004070D01*
X180121033Y-56098081D01*
X180433134Y-56117910D01*
X180877634Y-56121300D01*
X180877634Y-55824967D01*
X180863553Y-55625918D01*
X180791632Y-55544275D01*
X180620976Y-55528633D01*
X180413327Y-55488914D01*
X180315585Y-55401633D01*
X180197153Y-55308832D01*
X179929768Y-55274904D01*
X179894908Y-55274633D01*
X179664423Y-55281497D01*
X179556630Y-55326630D01*
X179524898Y-55446848D01*
X179522967Y-55568262D01*
X179299603Y-55568262D01*
X179299020Y-55566965D01*
X179234800Y-55395864D01*
X179191011Y-55218828D01*
X179163742Y-55003807D01*
X179149086Y-54718753D01*
X179143131Y-54331615D01*
X179142804Y-54184385D01*
X179522967Y-54184385D01*
X179527891Y-54493859D01*
X179552898Y-54680425D01*
X179613338Y-54790444D01*
X179724562Y-54870275D01*
X179755800Y-54887539D01*
X179978583Y-54962544D01*
X180279873Y-55009599D01*
X180433134Y-55017243D01*
X180877634Y-55020633D01*
X180877634Y-54724300D01*
X180860395Y-54522274D01*
X180788055Y-54439519D01*
X180697322Y-54427967D01*
X181470300Y-54427967D01*
X181470300Y-54718935D01*
X181486749Y-54917859D01*
X181568999Y-55005341D01*
X181744773Y-55036435D01*
X181968588Y-55106849D01*
X182061996Y-55233495D01*
X182032246Y-55373994D01*
X181886587Y-55485967D01*
X181660800Y-55527337D01*
X181531002Y-55555036D01*
X181478119Y-55667924D01*
X181470300Y-55824967D01*
X181470300Y-56121300D01*
X181931246Y-56121300D01*
X182251039Y-56101302D01*
X182473865Y-56028077D01*
X182623579Y-55922268D01*
X182755011Y-55790667D01*
X182821613Y-55648750D01*
X182841457Y-55437501D01*
X182837450Y-55223768D01*
X182797082Y-54855064D01*
X182688479Y-54617249D01*
X182483820Y-54484833D01*
X182155286Y-54432325D01*
X181968920Y-54427967D01*
X181470300Y-54427967D01*
X180697322Y-54427967D01*
X180687134Y-54426670D01*
X180434377Y-54376023D01*
X180302443Y-54256745D01*
X180296595Y-54111469D01*
X180422093Y-53982831D01*
X180624595Y-53919967D01*
X180821137Y-53877144D01*
X180894309Y-53793126D01*
X180890755Y-53632159D01*
X181470300Y-53632159D01*
X181485716Y-53827589D01*
X181561838Y-53906231D01*
X181719303Y-53919967D01*
X181914832Y-53946065D01*
X182020634Y-54004633D01*
X182130143Y-54055763D01*
X182345266Y-54085890D01*
X182454328Y-54089300D01*
X182687979Y-54083422D01*
X182795130Y-54043647D01*
X182818614Y-53936757D01*
X182809165Y-53814133D01*
X182708241Y-53553716D01*
X182473153Y-53382777D01*
X182117876Y-53308765D01*
X181868535Y-53312678D01*
X181627760Y-53338517D01*
X181511059Y-53389505D01*
X181473522Y-53501670D01*
X181470300Y-53632159D01*
X180890755Y-53632159D01*
X180890566Y-53623633D01*
X180862970Y-53436806D01*
X180838115Y-53345404D01*
X180748084Y-53331334D01*
X180539334Y-53320142D01*
X180333588Y-53315424D01*
X179967515Y-53334082D01*
X179728830Y-53418580D01*
X179592267Y-53596001D01*
X179532561Y-53893430D01*
X179522967Y-54184385D01*
X179142804Y-54184385D01*
X179141970Y-53810345D01*
X179141967Y-53750633D01*
X179144937Y-53163713D01*
X179158872Y-52719543D01*
X179191305Y-52391573D01*
X179249771Y-52153255D01*
X179341805Y-51978040D01*
X179474941Y-51839380D01*
X179656713Y-51710724D01*
X179712082Y-51676300D01*
X183671634Y-51676300D01*
X183713967Y-51718633D01*
X183756300Y-51676300D01*
X183713967Y-51633967D01*
X183671634Y-51676300D01*
X179712082Y-51676300D01*
X179734634Y-51662279D01*
X179793926Y-51630683D01*
X179869154Y-51603675D01*
X179973203Y-51580896D01*
X180118955Y-51561989D01*
X180319295Y-51546596D01*
X180587107Y-51534359D01*
X180935276Y-51524918D01*
X181376685Y-51517917D01*
X181924219Y-51512997D01*
X182590762Y-51509801D01*
X183389198Y-51507969D01*
X184332410Y-51507144D01*
X185322634Y-51506967D01*
X190656634Y-51506967D01*
X190965120Y-51698801D01*
G37*
X190965120Y-51698801D02*
X191122098Y-51802628D01*
X191247916Y-51910777D01*
X191346015Y-52042310D01*
X191419835Y-52216290D01*
X191472817Y-52451780D01*
X191508401Y-52767841D01*
X191530029Y-53183536D01*
X191541140Y-53717927D01*
X191545175Y-54390077D01*
X191545634Y-54915075D01*
X191545272Y-55623841D01*
X191543236Y-56183632D01*
X191538096Y-56614807D01*
X191528424Y-56937723D01*
X191512792Y-57172740D01*
X191489770Y-57340215D01*
X191457931Y-57460507D01*
X191415845Y-57553974D01*
X191362084Y-57640974D01*
X191353446Y-57653946D01*
X191262751Y-57787368D01*
X191174316Y-57898740D01*
X191072812Y-57990028D01*
X190942911Y-58063199D01*
X190769282Y-58120217D01*
X190536599Y-58163048D01*
X190229531Y-58193659D01*
X189832750Y-58214015D01*
X189330927Y-58226082D01*
X188708734Y-58231825D01*
X187950841Y-58233210D01*
X187041920Y-58232204D01*
X186846634Y-58231897D01*
X185957476Y-58230334D01*
X185224671Y-58228275D01*
X184635236Y-58225123D01*
X184176189Y-58220282D01*
X183834548Y-58213153D01*
X183597333Y-58203140D01*
X183451561Y-58189646D01*
X183384251Y-58172075D01*
X183382420Y-58149828D01*
X183433088Y-58122308D01*
X183523273Y-58088920D01*
X183548623Y-58080217D01*
X184081564Y-57854558D01*
X184535513Y-57554351D01*
X184963959Y-57149930D01*
X185386890Y-56616214D01*
X185667563Y-56058154D01*
X185797361Y-55607930D01*
X185871167Y-55349004D01*
X185941335Y-55257308D01*
X186001823Y-55330757D01*
X186046592Y-55567265D01*
X186058122Y-55697967D01*
X186084634Y-56078967D01*
X186830734Y-56078967D01*
X186830051Y-55998398D01*
X187481634Y-55998398D01*
X187557706Y-56020462D01*
X187752714Y-56026034D01*
X187915476Y-56019891D01*
X188349319Y-55994300D01*
X188851553Y-55107612D01*
X189048074Y-54762310D01*
X189213316Y-54475080D01*
X189330082Y-54275598D01*
X189381175Y-54193543D01*
X189381347Y-54193364D01*
X189430512Y-54252034D01*
X189545134Y-54432108D01*
X189708849Y-54706735D01*
X189905293Y-55049067D01*
X189934673Y-55101219D01*
X190460440Y-56036633D01*
X190876037Y-56036633D01*
X191114531Y-56025018D01*
X191263837Y-55995371D01*
X191289566Y-55973133D01*
X191248711Y-55882549D01*
X191136566Y-55670110D01*
X190966667Y-55360519D01*
X190752550Y-54978476D01*
X190535627Y-54597300D01*
X189783757Y-53284967D01*
X189407655Y-53259690D01*
X189031553Y-53234414D01*
X188256593Y-54592864D01*
X188011362Y-55025167D01*
X187798069Y-55405812D01*
X187629897Y-55710888D01*
X187520031Y-55916484D01*
X187481634Y-55998398D01*
X186830051Y-55998398D01*
X186826952Y-55633344D01*
X186805348Y-55354129D01*
X186754362Y-55133174D01*
X186716621Y-55059336D01*
X186653129Y-54914622D01*
X186704970Y-54722696D01*
X186707186Y-54717809D01*
X186763361Y-54509752D01*
X186798429Y-54216748D01*
X186804300Y-54047784D01*
X186771424Y-53709340D01*
X186656347Y-53491089D01*
X186434397Y-53371377D01*
X186080900Y-53328553D01*
X185983302Y-53327300D01*
X185714349Y-53317531D01*
X185558375Y-53272921D01*
X185459444Y-53170511D01*
X185415997Y-53094467D01*
X185274484Y-52890166D01*
X185051833Y-52638590D01*
X184781156Y-52369711D01*
X184495566Y-52113504D01*
X184228174Y-51899941D01*
X184012095Y-51758996D01*
X183896081Y-51718633D01*
X183917072Y-51763346D01*
X184047211Y-51880080D01*
X184239328Y-52029225D01*
X184481878Y-52233786D01*
X184728754Y-52482929D01*
X184953059Y-52743525D01*
X185127899Y-52982443D01*
X185226378Y-53166551D01*
X185232085Y-53252150D01*
X185132466Y-53284724D01*
X184903340Y-53310180D01*
X184584500Y-53324981D01*
X184386303Y-53327300D01*
X183586967Y-53327300D01*
X183586967Y-53914421D01*
X184539467Y-53938360D01*
X185491967Y-53962300D01*
X185518498Y-54237467D01*
X185545029Y-54512633D01*
X183586967Y-54512633D01*
X183586967Y-56131036D01*
X183946800Y-56105001D01*
X184306634Y-56078967D01*
X184357816Y-55189967D01*
X185467991Y-55189967D01*
X185410687Y-55422800D01*
X185230195Y-55873971D01*
X184924738Y-56335555D01*
X184529816Y-56763882D01*
X184080928Y-57115281D01*
X183988850Y-57171871D01*
X183338275Y-57461983D01*
X182659731Y-57600395D01*
X181977119Y-57594420D01*
X181314338Y-57451369D01*
X180695287Y-57178554D01*
X180143867Y-56783287D01*
X179683976Y-56272879D01*
X179387579Y-55764178D01*
X179299603Y-55568262D01*
X179522967Y-55568262D01*
X179586987Y-55828932D01*
X179783912Y-56004070D01*
X180121033Y-56098081D01*
X180433134Y-56117910D01*
X180877634Y-56121300D01*
X180877634Y-55824967D01*
X180863553Y-55625918D01*
X180791632Y-55544275D01*
X180620976Y-55528633D01*
X180413327Y-55488914D01*
X180315585Y-55401633D01*
X180197153Y-55308832D01*
X179929768Y-55274904D01*
X179894908Y-55274633D01*
X179664423Y-55281497D01*
X179556630Y-55326630D01*
X179524898Y-55446848D01*
X179522967Y-55568262D01*
X179299603Y-55568262D01*
X179299020Y-55566965D01*
X179234800Y-55395864D01*
X179191011Y-55218828D01*
X179163742Y-55003807D01*
X179149086Y-54718753D01*
X179143131Y-54331615D01*
X179142804Y-54184385D01*
X179522967Y-54184385D01*
X179527891Y-54493859D01*
X179552898Y-54680425D01*
X179613338Y-54790444D01*
X179724562Y-54870275D01*
X179755800Y-54887539D01*
X179978583Y-54962544D01*
X180279873Y-55009599D01*
X180433134Y-55017243D01*
X180877634Y-55020633D01*
X180877634Y-54724300D01*
X180860395Y-54522274D01*
X180788055Y-54439519D01*
X180697322Y-54427967D01*
X181470300Y-54427967D01*
X181470300Y-54718935D01*
X181486749Y-54917859D01*
X181568999Y-55005341D01*
X181744773Y-55036435D01*
X181968588Y-55106849D01*
X182061996Y-55233495D01*
X182032246Y-55373994D01*
X181886587Y-55485967D01*
X181660800Y-55527337D01*
X181531002Y-55555036D01*
X181478119Y-55667924D01*
X181470300Y-55824967D01*
X181470300Y-56121300D01*
X181931246Y-56121300D01*
X182251039Y-56101302D01*
X182473865Y-56028077D01*
X182623579Y-55922268D01*
X182755011Y-55790667D01*
X182821613Y-55648750D01*
X182841457Y-55437501D01*
X182837450Y-55223768D01*
X182797082Y-54855064D01*
X182688479Y-54617249D01*
X182483820Y-54484833D01*
X182155286Y-54432325D01*
X181968920Y-54427967D01*
X181470300Y-54427967D01*
X180697322Y-54427967D01*
X180687134Y-54426670D01*
X180434377Y-54376023D01*
X180302443Y-54256745D01*
X180296595Y-54111469D01*
X180422093Y-53982831D01*
X180624595Y-53919967D01*
X180821137Y-53877144D01*
X180894309Y-53793126D01*
X180890755Y-53632159D01*
X181470300Y-53632159D01*
X181485716Y-53827589D01*
X181561838Y-53906231D01*
X181719303Y-53919967D01*
X181914832Y-53946065D01*
X182020634Y-54004633D01*
X182130143Y-54055763D01*
X182345266Y-54085890D01*
X182454328Y-54089300D01*
X182687979Y-54083422D01*
X182795130Y-54043647D01*
X182818614Y-53936757D01*
X182809165Y-53814133D01*
X182708241Y-53553716D01*
X182473153Y-53382777D01*
X182117876Y-53308765D01*
X181868535Y-53312678D01*
X181627760Y-53338517D01*
X181511059Y-53389505D01*
X181473522Y-53501670D01*
X181470300Y-53632159D01*
X180890755Y-53632159D01*
X180890566Y-53623633D01*
X180862970Y-53436806D01*
X180838115Y-53345404D01*
X180748084Y-53331334D01*
X180539334Y-53320142D01*
X180333588Y-53315424D01*
X179967515Y-53334082D01*
X179728830Y-53418580D01*
X179592267Y-53596001D01*
X179532561Y-53893430D01*
X179522967Y-54184385D01*
X179142804Y-54184385D01*
X179141970Y-53810345D01*
X179141967Y-53750633D01*
X179144937Y-53163713D01*
X179158872Y-52719543D01*
X179191305Y-52391573D01*
X179249771Y-52153255D01*
X179341805Y-51978040D01*
X179474941Y-51839380D01*
X179656713Y-51710724D01*
X179712082Y-51676300D01*
X183671634Y-51676300D01*
X183713967Y-51718633D01*
X183756300Y-51676300D01*
X183713967Y-51633967D01*
X183671634Y-51676300D01*
X179712082Y-51676300D01*
X179734634Y-51662279D01*
X179793926Y-51630683D01*
X179869154Y-51603675D01*
X179973203Y-51580896D01*
X180118955Y-51561989D01*
X180319295Y-51546596D01*
X180587107Y-51534359D01*
X180935276Y-51524918D01*
X181376685Y-51517917D01*
X181924219Y-51512997D01*
X182590762Y-51509801D01*
X183389198Y-51507969D01*
X184332410Y-51507144D01*
X185322634Y-51506967D01*
X190656634Y-51506967D01*
X190965120Y-51698801D01*
D14*
%TO.C,RV2*%
X180549400Y-63601600D02*
G75*
G03*
X180549400Y-63601600I-100000J0D01*
G01*
D15*
X190464400Y-66011600D02*
X180934400Y-66011600D01*
X180934400Y-66011600D02*
X180934400Y-61181600D01*
X190464400Y-61181600D02*
X190464400Y-66011600D01*
X180934400Y-61181600D02*
X190464400Y-61181600D01*
D16*
%TO.C,L1*%
X165231100Y-90567800D02*
X162031100Y-90567800D01*
X165231100Y-79967800D02*
X165231100Y-90567800D01*
X162031100Y-79967800D02*
X165231100Y-79967800D01*
X154631100Y-79967800D02*
X157831100Y-79967800D01*
X154631100Y-90567800D02*
X154631100Y-79967800D01*
X157831100Y-90567800D02*
X154631100Y-90567800D01*
D15*
%TO.C,U2*%
X135143560Y-117318400D02*
X107243560Y-117318400D01*
X135143560Y-62918400D02*
X135143560Y-117318400D01*
X107243560Y-62918400D02*
X135143560Y-62918400D01*
X107243560Y-117318400D02*
X107243560Y-62918400D01*
D16*
%TO.C,R15*%
X98708800Y-85194764D02*
X98708800Y-83740636D01*
X100528800Y-85194764D02*
X100528800Y-83740636D01*
%TO.C,U1*%
X179377500Y-64643000D02*
X179377500Y-61193000D01*
X179377500Y-64643000D02*
X179377500Y-66593000D01*
X170507500Y-64643000D02*
X170507500Y-62693000D01*
X170507500Y-64643000D02*
X170507500Y-66593000D01*
D17*
%TO.C,S2*%
X191529300Y-107046100D02*
G75*
G03*
X191529300Y-107046100I-100000J0D01*
G01*
D15*
X190688300Y-104866100D02*
X190688300Y-114666100D01*
X180888300Y-104866100D02*
X180888300Y-114666100D01*
X180888300Y-104866100D02*
X190688300Y-104866100D01*
X180888300Y-114666100D02*
X190688300Y-114666100D01*
%TO.C,D6*%
X166518800Y-98052500D02*
X167558800Y-98052500D01*
X167558800Y-91177500D02*
X166518800Y-91177500D01*
X166518800Y-91177500D02*
X166518800Y-98052500D01*
X172418800Y-91177500D02*
X171378800Y-91177500D01*
X171378800Y-98052500D02*
X172418800Y-98052500D01*
X172418800Y-98052500D02*
X172418800Y-91177500D01*
D14*
X169568800Y-99815000D02*
G75*
G03*
X169568800Y-99815000I-100000J0D01*
G01*
D16*
%TO.C,R6*%
X178045700Y-92535364D02*
X178045700Y-91081236D01*
X179865700Y-92535364D02*
X179865700Y-91081236D01*
%TO.C,R13*%
X183518164Y-128033100D02*
X182064036Y-128033100D01*
X183518164Y-129853100D02*
X182064036Y-129853100D01*
%TO.C,U9*%
X170634500Y-118783100D02*
X170634500Y-122233100D01*
X170634500Y-118783100D02*
X170634500Y-116833100D01*
X179504500Y-118783100D02*
X179504500Y-120733100D01*
X179504500Y-118783100D02*
X179504500Y-116833100D01*
%TO.C,M2*%
X144997920Y-134791220D02*
X156997920Y-134791220D01*
X144997920Y-110791220D02*
X144997920Y-134791220D01*
X156997920Y-110791220D02*
X144997920Y-110791220D01*
X156997920Y-134791220D02*
X156997920Y-110791220D01*
%TO.C,TB1*%
X175199900Y-101590780D02*
X195519900Y-101590780D01*
X195519900Y-101590780D02*
X195519900Y-81270780D01*
X195519900Y-81270780D02*
X175199900Y-81270780D01*
X175199900Y-81270780D02*
X175199900Y-101590780D01*
%TO.C,M1*%
X145096980Y-47997340D02*
X145096980Y-71997340D01*
X145096980Y-71997340D02*
X157096980Y-71997340D01*
X157096980Y-71997340D02*
X157096980Y-47997340D01*
X157096980Y-47997340D02*
X145096980Y-47997340D01*
D15*
%TO.C,BT2*%
X131544100Y-52905780D02*
X131544100Y-129955780D01*
X110894100Y-129955780D02*
X110894100Y-52905780D01*
D17*
%TO.C,S1*%
X180412400Y-76087900D02*
G75*
G03*
X180412400Y-76087900I-100000J0D01*
G01*
D15*
X181053400Y-78267900D02*
X181053400Y-68467900D01*
X190853400Y-78267900D02*
X190853400Y-68467900D01*
X190853400Y-78267900D02*
X181053400Y-78267900D01*
X190853400Y-68467900D02*
X181053400Y-68467900D01*
D16*
%TO.C,C1*%
X168066248Y-80789200D02*
X170388752Y-80789200D01*
X168066248Y-84209200D02*
X170388752Y-84209200D01*
%TO.C,C2*%
X159377852Y-98366000D02*
X157055348Y-98366000D01*
X159377852Y-101786000D02*
X157055348Y-101786000D01*
%TO.C,R20*%
X163288300Y-93570436D02*
X163288300Y-95024564D01*
X165108300Y-93570436D02*
X165108300Y-95024564D01*
D14*
%TO.C,RV1*%
X162779200Y-94399100D02*
G75*
G03*
X162779200Y-94399100I-100000J0D01*
G01*
D15*
X152664200Y-91989100D02*
X162194200Y-91989100D01*
X162194200Y-91989100D02*
X162194200Y-96819100D01*
X152664200Y-96819100D02*
X152664200Y-91989100D01*
X162194200Y-96819100D02*
X152664200Y-96819100D01*
D16*
%TO.C,U5*%
X166487200Y-86171200D02*
X166487200Y-88621200D01*
X169707200Y-87971200D02*
X169707200Y-86171200D01*
%TO.C,D1*%
X99453500Y-91536900D02*
X95568500Y-91536900D01*
X95568500Y-91536900D02*
X95568500Y-93806900D01*
X95568500Y-93806900D02*
X99453500Y-93806900D01*
%TO.C,D2*%
X95466900Y-96702500D02*
X99351900Y-96702500D01*
X95466900Y-94432500D02*
X95466900Y-96702500D01*
X99351900Y-94432500D02*
X95466900Y-94432500D01*
%TO.C,D3*%
X99453500Y-88476200D02*
X95568500Y-88476200D01*
X95568500Y-88476200D02*
X95568500Y-90746200D01*
X95568500Y-90746200D02*
X99453500Y-90746200D01*
%TO.C,D4*%
X171766500Y-100223700D02*
X167881500Y-100223700D01*
X171766500Y-102493700D02*
X171766500Y-100223700D01*
X167881500Y-102493700D02*
X171766500Y-102493700D01*
%TO.C,D5*%
X164101400Y-69760900D02*
X164101400Y-65875900D01*
X164101400Y-65875900D02*
X161831400Y-65875900D01*
X161831400Y-65875900D02*
X161831400Y-69760900D01*
%TO.C,R1*%
X176082336Y-58275900D02*
X177536464Y-58275900D01*
X176082336Y-56455900D02*
X177536464Y-56455900D01*
%TO.C,R2*%
X171821464Y-58098100D02*
X170367336Y-58098100D01*
X171821464Y-56278100D02*
X170367336Y-56278100D01*
%TO.C,R3*%
X190101900Y-92598864D02*
X190101900Y-91144736D01*
X188281900Y-92598864D02*
X188281900Y-91144736D01*
%TO.C,R4*%
X185614900Y-92548064D02*
X185614900Y-91093936D01*
X187434900Y-92548064D02*
X187434900Y-91093936D01*
%TO.C,R5*%
X182520000Y-92598864D02*
X182520000Y-91144736D01*
X180700000Y-92598864D02*
X180700000Y-91144736D01*
%TO.C,R7*%
X193100336Y-62771700D02*
X194554464Y-62771700D01*
X193100336Y-60951700D02*
X194554464Y-60951700D01*
%TO.C,R8*%
X193113036Y-64672800D02*
X194567164Y-64672800D01*
X193113036Y-66492800D02*
X194567164Y-66492800D01*
%TO.C,R9*%
X203355564Y-99665200D02*
X201901436Y-99665200D01*
X203355564Y-97845200D02*
X201901436Y-97845200D01*
%TO.C,R10*%
X202872964Y-83062400D02*
X201418836Y-83062400D01*
X202872964Y-84882400D02*
X201418836Y-84882400D01*
%TO.C,R11*%
X190839736Y-117161900D02*
X192293864Y-117161900D01*
X190839736Y-118981900D02*
X192293864Y-118981900D01*
%TO.C,R12*%
X167140300Y-67421136D02*
X167140300Y-68875264D01*
X165320300Y-67421136D02*
X165320300Y-68875264D01*
%TO.C,R14*%
X190776236Y-122639500D02*
X192230364Y-122639500D01*
X190776236Y-120819500D02*
X192230364Y-120819500D01*
%TO.C,R16*%
X99487400Y-101069764D02*
X99487400Y-99615636D01*
X97667400Y-101069764D02*
X97667400Y-99615636D01*
%TO.C,R17*%
X97785600Y-83791436D02*
X97785600Y-85245564D01*
X95965600Y-83791436D02*
X95965600Y-85245564D01*
%TO.C,R18*%
X165184500Y-100917364D02*
X165184500Y-99463236D01*
X163364500Y-100917364D02*
X163364500Y-99463236D01*
%TO.C,R19*%
X160206100Y-67408436D02*
X160206100Y-68862564D01*
X158386100Y-67408436D02*
X158386100Y-68862564D01*
%TO.C,J1*%
X102873500Y-69104200D02*
X104203500Y-69104200D01*
X102873500Y-70434200D02*
X102873500Y-69104200D01*
X102873500Y-71704200D02*
X105533500Y-71704200D01*
X105533500Y-71704200D02*
X105533500Y-117484200D01*
X102873500Y-71704200D02*
X102873500Y-117484200D01*
X102873500Y-117484200D02*
X105533500Y-117484200D01*
%TO.C,J2*%
X139594900Y-68964500D02*
X136934900Y-68964500D01*
X139594900Y-114744500D02*
X139594900Y-68964500D01*
X136934900Y-114744500D02*
X136934900Y-68964500D01*
X139594900Y-114744500D02*
X136934900Y-114744500D01*
X139594900Y-116014500D02*
X139594900Y-117344500D01*
X139594900Y-117344500D02*
X138264900Y-117344500D01*
%TO.C,J3*%
X143874800Y-84302600D02*
X141214800Y-84302600D01*
X143874800Y-84302600D02*
X143874800Y-76622600D01*
X143874800Y-76622600D02*
X141214800Y-76622600D01*
X141214800Y-84302600D02*
X141214800Y-76622600D01*
X141214800Y-86902600D02*
X141214800Y-85572600D01*
X142544800Y-86902600D02*
X141214800Y-86902600D01*
%TO.C,RV2*%
D12*
X184873012Y-60665018D02*
X184538251Y-60186788D01*
X184299136Y-60665018D02*
X184299136Y-59660735D01*
X184681720Y-59660735D01*
X184777366Y-59708558D01*
X184825189Y-59756381D01*
X184873012Y-59852027D01*
X184873012Y-59995496D01*
X184825189Y-60091142D01*
X184777366Y-60138965D01*
X184681720Y-60186788D01*
X184299136Y-60186788D01*
X185159950Y-59660735D02*
X185494711Y-60665018D01*
X185829472Y-59660735D01*
X186116410Y-59756381D02*
X186164233Y-59708558D01*
X186259879Y-59660735D01*
X186498994Y-59660735D01*
X186594640Y-59708558D01*
X186642463Y-59756381D01*
X186690286Y-59852027D01*
X186690286Y-59947673D01*
X186642463Y-60091142D01*
X186068587Y-60665018D01*
X186690286Y-60665018D01*
%TO.C,L1*%
X166733480Y-85434466D02*
X166733480Y-85910657D01*
X165733480Y-85910657D01*
X166733480Y-84577323D02*
X166733480Y-85148752D01*
X166733480Y-84863038D02*
X165733480Y-84863038D01*
X165876338Y-84958276D01*
X165971576Y-85053514D01*
X166019195Y-85148752D01*
%TO.C,U2*%
X121195901Y-45934169D02*
X121195901Y-46744005D01*
X121243538Y-46839280D01*
X121291176Y-46886918D01*
X121386450Y-46934555D01*
X121577000Y-46934555D01*
X121672275Y-46886918D01*
X121719912Y-46839280D01*
X121767550Y-46744005D01*
X121767550Y-45934169D01*
X122196287Y-46029444D02*
X122243924Y-45981807D01*
X122339199Y-45934169D01*
X122577386Y-45934169D01*
X122672661Y-45981807D01*
X122720298Y-46029444D01*
X122767936Y-46124719D01*
X122767936Y-46219994D01*
X122720298Y-46362906D01*
X122148649Y-46934555D01*
X122767936Y-46934555D01*
%TO.C,R15*%
X99166442Y-82062580D02*
X98833109Y-81586390D01*
X98595014Y-82062580D02*
X98595014Y-81062580D01*
X98975966Y-81062580D01*
X99071204Y-81110200D01*
X99118823Y-81157819D01*
X99166442Y-81253057D01*
X99166442Y-81395914D01*
X99118823Y-81491152D01*
X99071204Y-81538771D01*
X98975966Y-81586390D01*
X98595014Y-81586390D01*
X100118823Y-82062580D02*
X99547395Y-82062580D01*
X99833109Y-82062580D02*
X99833109Y-81062580D01*
X99737871Y-81205438D01*
X99642633Y-81300676D01*
X99547395Y-81348295D01*
X101023585Y-81062580D02*
X100547395Y-81062580D01*
X100499776Y-81538771D01*
X100547395Y-81491152D01*
X100642633Y-81443533D01*
X100880728Y-81443533D01*
X100975966Y-81491152D01*
X101023585Y-81538771D01*
X101071204Y-81634009D01*
X101071204Y-81872104D01*
X101023585Y-81967342D01*
X100975966Y-82014961D01*
X100880728Y-82062580D01*
X100642633Y-82062580D01*
X100547395Y-82014961D01*
X100499776Y-81967342D01*
%TO.C,U1*%
X174028195Y-59663080D02*
X174028195Y-60472604D01*
X174075814Y-60567842D01*
X174123433Y-60615461D01*
X174218671Y-60663080D01*
X174409147Y-60663080D01*
X174504385Y-60615461D01*
X174552004Y-60567842D01*
X174599623Y-60472604D01*
X174599623Y-59663080D01*
X175599623Y-60663080D02*
X175028195Y-60663080D01*
X175313909Y-60663080D02*
X175313909Y-59663080D01*
X175218671Y-59805938D01*
X175123433Y-59901176D01*
X175028195Y-59948795D01*
%TO.C,S2*%
X184962895Y-104278061D02*
X185105752Y-104325680D01*
X185343847Y-104325680D01*
X185439085Y-104278061D01*
X185486704Y-104230442D01*
X185534323Y-104135204D01*
X185534323Y-104039966D01*
X185486704Y-103944728D01*
X185439085Y-103897109D01*
X185343847Y-103849490D01*
X185153371Y-103801871D01*
X185058133Y-103754252D01*
X185010514Y-103706633D01*
X184962895Y-103611395D01*
X184962895Y-103516157D01*
X185010514Y-103420919D01*
X185058133Y-103373300D01*
X185153371Y-103325680D01*
X185391466Y-103325680D01*
X185534323Y-103373300D01*
X185915276Y-103420919D02*
X185962895Y-103373300D01*
X186058133Y-103325680D01*
X186296228Y-103325680D01*
X186391466Y-103373300D01*
X186439085Y-103420919D01*
X186486704Y-103516157D01*
X186486704Y-103611395D01*
X186439085Y-103754252D01*
X185867657Y-104325680D01*
X186486704Y-104325680D01*
%TO.C,D6*%
X165213133Y-96203333D02*
X163813133Y-96203333D01*
X163813133Y-95870000D01*
X163879800Y-95670000D01*
X164013133Y-95536666D01*
X164146466Y-95470000D01*
X164413133Y-95403333D01*
X164613133Y-95403333D01*
X164879800Y-95470000D01*
X165013133Y-95536666D01*
X165146466Y-95670000D01*
X165213133Y-95870000D01*
X165213133Y-96203333D01*
X163813133Y-94203333D02*
X163813133Y-94470000D01*
X163879800Y-94603333D01*
X163946466Y-94670000D01*
X164146466Y-94803333D01*
X164413133Y-94870000D01*
X164946466Y-94870000D01*
X165079800Y-94803333D01*
X165146466Y-94736666D01*
X165213133Y-94603333D01*
X165213133Y-94336666D01*
X165146466Y-94203333D01*
X165079800Y-94136666D01*
X164946466Y-94070000D01*
X164613133Y-94070000D01*
X164479800Y-94136666D01*
X164413133Y-94203333D01*
X164346466Y-94336666D01*
X164346466Y-94603333D01*
X164413133Y-94736666D01*
X164479800Y-94803333D01*
X164613133Y-94870000D01*
%TO.C,R6*%
X177588080Y-91974966D02*
X177111890Y-92308300D01*
X177588080Y-92546395D02*
X176588080Y-92546395D01*
X176588080Y-92165442D01*
X176635700Y-92070204D01*
X176683319Y-92022585D01*
X176778557Y-91974966D01*
X176921414Y-91974966D01*
X177016652Y-92022585D01*
X177064271Y-92070204D01*
X177111890Y-92165442D01*
X177111890Y-92546395D01*
X176588080Y-91117823D02*
X176588080Y-91308300D01*
X176635700Y-91403538D01*
X176683319Y-91451157D01*
X176826176Y-91546395D01*
X177016652Y-91594014D01*
X177397604Y-91594014D01*
X177492842Y-91546395D01*
X177540461Y-91498776D01*
X177588080Y-91403538D01*
X177588080Y-91213061D01*
X177540461Y-91117823D01*
X177492842Y-91070204D01*
X177397604Y-91022585D01*
X177159509Y-91022585D01*
X177064271Y-91070204D01*
X177016652Y-91117823D01*
X176969033Y-91213061D01*
X176969033Y-91403538D01*
X177016652Y-91498776D01*
X177064271Y-91546395D01*
X177159509Y-91594014D01*
%TO.C,R13*%
X181983142Y-127388880D02*
X181649809Y-126912690D01*
X181411714Y-127388880D02*
X181411714Y-126388880D01*
X181792666Y-126388880D01*
X181887904Y-126436500D01*
X181935523Y-126484119D01*
X181983142Y-126579357D01*
X181983142Y-126722214D01*
X181935523Y-126817452D01*
X181887904Y-126865071D01*
X181792666Y-126912690D01*
X181411714Y-126912690D01*
X182935523Y-127388880D02*
X182364095Y-127388880D01*
X182649809Y-127388880D02*
X182649809Y-126388880D01*
X182554571Y-126531738D01*
X182459333Y-126626976D01*
X182364095Y-126674595D01*
X183268857Y-126388880D02*
X183887904Y-126388880D01*
X183554571Y-126769833D01*
X183697428Y-126769833D01*
X183792666Y-126817452D01*
X183840285Y-126865071D01*
X183887904Y-126960309D01*
X183887904Y-127198404D01*
X183840285Y-127293642D01*
X183792666Y-127341261D01*
X183697428Y-127388880D01*
X183411714Y-127388880D01*
X183316476Y-127341261D01*
X183268857Y-127293642D01*
%TO.C,U9*%
X172821695Y-113676180D02*
X172821695Y-114485704D01*
X172869314Y-114580942D01*
X172916933Y-114628561D01*
X173012171Y-114676180D01*
X173202647Y-114676180D01*
X173297885Y-114628561D01*
X173345504Y-114580942D01*
X173393123Y-114485704D01*
X173393123Y-113676180D01*
X173916933Y-114676180D02*
X174107409Y-114676180D01*
X174202647Y-114628561D01*
X174250266Y-114580942D01*
X174345504Y-114438085D01*
X174393123Y-114247609D01*
X174393123Y-113866657D01*
X174345504Y-113771419D01*
X174297885Y-113723800D01*
X174202647Y-113676180D01*
X174012171Y-113676180D01*
X173916933Y-113723800D01*
X173869314Y-113771419D01*
X173821695Y-113866657D01*
X173821695Y-114104752D01*
X173869314Y-114199990D01*
X173916933Y-114247609D01*
X174012171Y-114295228D01*
X174202647Y-114295228D01*
X174297885Y-114247609D01*
X174345504Y-114199990D01*
X174393123Y-114104752D01*
%TO.C,M2*%
X150104576Y-110307380D02*
X150104576Y-109307380D01*
X150437909Y-110021666D01*
X150771242Y-109307380D01*
X150771242Y-110307380D01*
X151199814Y-109402619D02*
X151247433Y-109355000D01*
X151342671Y-109307380D01*
X151580766Y-109307380D01*
X151676004Y-109355000D01*
X151723623Y-109402619D01*
X151771242Y-109497857D01*
X151771242Y-109593095D01*
X151723623Y-109735952D01*
X151152195Y-110307380D01*
X151771242Y-110307380D01*
%TO.C,TB1*%
X173937995Y-103583160D02*
X174509423Y-103583160D01*
X174223709Y-104583160D02*
X174223709Y-103583160D01*
X175176090Y-104059351D02*
X175318947Y-104106970D01*
X175366566Y-104154589D01*
X175414185Y-104249827D01*
X175414185Y-104392684D01*
X175366566Y-104487922D01*
X175318947Y-104535541D01*
X175223709Y-104583160D01*
X174842757Y-104583160D01*
X174842757Y-103583160D01*
X175176090Y-103583160D01*
X175271328Y-103630780D01*
X175318947Y-103678399D01*
X175366566Y-103773637D01*
X175366566Y-103868875D01*
X175318947Y-103964113D01*
X175271328Y-104011732D01*
X175176090Y-104059351D01*
X174842757Y-104059351D01*
X176366566Y-104583160D02*
X175795138Y-104583160D01*
X176080852Y-104583160D02*
X176080852Y-103583160D01*
X175985614Y-103726018D01*
X175890376Y-103821256D01*
X175795138Y-103868875D01*
D11*
X176017519Y-82266970D02*
X176184185Y-82766970D01*
X176350852Y-82266970D01*
X176517519Y-82766970D02*
X176517519Y-82266970D01*
X176684185Y-82624113D01*
X176850852Y-82266970D01*
X176850852Y-82766970D01*
X178343233Y-82266970D02*
X178509900Y-82766970D01*
X178676566Y-82266970D01*
X179128947Y-82719351D02*
X179105138Y-82743160D01*
X179033709Y-82766970D01*
X178986090Y-82766970D01*
X178914661Y-82743160D01*
X178867042Y-82695541D01*
X178843233Y-82647922D01*
X178819423Y-82552684D01*
X178819423Y-82481256D01*
X178843233Y-82386018D01*
X178867042Y-82338399D01*
X178914661Y-82290780D01*
X178986090Y-82266970D01*
X179033709Y-82266970D01*
X179105138Y-82290780D01*
X179128947Y-82314589D01*
X179628947Y-82719351D02*
X179605138Y-82743160D01*
X179533709Y-82766970D01*
X179486090Y-82766970D01*
X179414661Y-82743160D01*
X179367042Y-82695541D01*
X179343233Y-82647922D01*
X179319423Y-82552684D01*
X179319423Y-82481256D01*
X179343233Y-82386018D01*
X179367042Y-82338399D01*
X179414661Y-82290780D01*
X179486090Y-82266970D01*
X179533709Y-82266970D01*
X179605138Y-82290780D01*
X179628947Y-82314589D01*
X181168947Y-82290780D02*
X181121328Y-82266970D01*
X181049900Y-82266970D01*
X180978471Y-82290780D01*
X180930852Y-82338399D01*
X180907042Y-82386018D01*
X180883233Y-82481256D01*
X180883233Y-82552684D01*
X180907042Y-82647922D01*
X180930852Y-82695541D01*
X180978471Y-82743160D01*
X181049900Y-82766970D01*
X181097519Y-82766970D01*
X181168947Y-82743160D01*
X181192757Y-82719351D01*
X181192757Y-82552684D01*
X181097519Y-82552684D01*
X181407042Y-82766970D02*
X181407042Y-82266970D01*
X181692757Y-82766970D01*
X181692757Y-82266970D01*
X181930852Y-82766970D02*
X181930852Y-82266970D01*
X182049900Y-82266970D01*
X182121328Y-82290780D01*
X182168947Y-82338399D01*
X182192757Y-82386018D01*
X182216566Y-82481256D01*
X182216566Y-82552684D01*
X182192757Y-82647922D01*
X182168947Y-82695541D01*
X182121328Y-82743160D01*
X182049900Y-82766970D01*
X181930852Y-82766970D01*
X183732757Y-82624113D02*
X183970852Y-82624113D01*
X183685138Y-82766970D02*
X183851804Y-82266970D01*
X184018471Y-82766970D01*
X184447042Y-82766970D02*
X184161328Y-82766970D01*
X184304185Y-82766970D02*
X184304185Y-82266970D01*
X184256566Y-82338399D01*
X184208947Y-82386018D01*
X184161328Y-82409827D01*
X186272757Y-82624113D02*
X186510852Y-82624113D01*
X186225138Y-82766970D02*
X186391804Y-82266970D01*
X186558471Y-82766970D01*
X186701328Y-82314589D02*
X186725138Y-82290780D01*
X186772757Y-82266970D01*
X186891804Y-82266970D01*
X186939423Y-82290780D01*
X186963233Y-82314589D01*
X186987042Y-82362208D01*
X186987042Y-82409827D01*
X186963233Y-82481256D01*
X186677519Y-82766970D01*
X186987042Y-82766970D01*
X188967519Y-82505065D02*
X189038947Y-82528875D01*
X189062757Y-82552684D01*
X189086566Y-82600303D01*
X189086566Y-82671732D01*
X189062757Y-82719351D01*
X189038947Y-82743160D01*
X188991328Y-82766970D01*
X188800852Y-82766970D01*
X188800852Y-82266970D01*
X188967519Y-82266970D01*
X189015138Y-82290780D01*
X189038947Y-82314589D01*
X189062757Y-82362208D01*
X189062757Y-82409827D01*
X189038947Y-82457446D01*
X189015138Y-82481256D01*
X188967519Y-82505065D01*
X188800852Y-82505065D01*
X189277042Y-82314589D02*
X189300852Y-82290780D01*
X189348471Y-82266970D01*
X189467519Y-82266970D01*
X189515138Y-82290780D01*
X189538947Y-82314589D01*
X189562757Y-82362208D01*
X189562757Y-82409827D01*
X189538947Y-82481256D01*
X189253233Y-82766970D01*
X189562757Y-82766970D01*
X191507519Y-82505065D02*
X191578947Y-82528875D01*
X191602757Y-82552684D01*
X191626566Y-82600303D01*
X191626566Y-82671732D01*
X191602757Y-82719351D01*
X191578947Y-82743160D01*
X191531328Y-82766970D01*
X191340852Y-82766970D01*
X191340852Y-82266970D01*
X191507519Y-82266970D01*
X191555138Y-82290780D01*
X191578947Y-82314589D01*
X191602757Y-82362208D01*
X191602757Y-82409827D01*
X191578947Y-82457446D01*
X191555138Y-82481256D01*
X191507519Y-82505065D01*
X191340852Y-82505065D01*
X192102757Y-82766970D02*
X191817042Y-82766970D01*
X191959900Y-82766970D02*
X191959900Y-82266970D01*
X191912280Y-82338399D01*
X191864661Y-82386018D01*
X191817042Y-82409827D01*
X193868947Y-82290780D02*
X193821328Y-82266970D01*
X193749900Y-82266970D01*
X193678471Y-82290780D01*
X193630852Y-82338399D01*
X193607042Y-82386018D01*
X193583233Y-82481256D01*
X193583233Y-82552684D01*
X193607042Y-82647922D01*
X193630852Y-82695541D01*
X193678471Y-82743160D01*
X193749900Y-82766970D01*
X193797519Y-82766970D01*
X193868947Y-82743160D01*
X193892757Y-82719351D01*
X193892757Y-82552684D01*
X193797519Y-82552684D01*
X194107042Y-82766970D02*
X194107042Y-82266970D01*
X194392757Y-82766970D01*
X194392757Y-82266970D01*
X194630852Y-82766970D02*
X194630852Y-82266970D01*
X194749900Y-82266970D01*
X194821328Y-82290780D01*
X194868947Y-82338399D01*
X194892757Y-82386018D01*
X194916566Y-82481256D01*
X194916566Y-82552684D01*
X194892757Y-82647922D01*
X194868947Y-82695541D01*
X194821328Y-82743160D01*
X194749900Y-82766970D01*
X194630852Y-82766970D01*
X175553233Y-100546970D02*
X175553233Y-100046970D01*
X175743709Y-100046970D01*
X175791328Y-100070780D01*
X175815138Y-100094589D01*
X175838947Y-100142208D01*
X175838947Y-100213637D01*
X175815138Y-100261256D01*
X175791328Y-100285065D01*
X175743709Y-100308875D01*
X175553233Y-100308875D01*
X176005614Y-100046970D02*
X176124661Y-100546970D01*
X176219900Y-100189827D01*
X176315138Y-100546970D01*
X176434185Y-100046970D01*
X176624661Y-100546970D02*
X176624661Y-100046970D01*
X176791328Y-100404113D01*
X176957995Y-100046970D01*
X176957995Y-100546970D01*
X177172280Y-100404113D02*
X177410376Y-100404113D01*
X177124661Y-100546970D02*
X177291328Y-100046970D01*
X177457995Y-100546970D01*
X178271804Y-100404113D02*
X178509900Y-100404113D01*
X178224185Y-100546970D02*
X178390852Y-100046970D01*
X178557519Y-100546970D01*
X178724185Y-100546970D02*
X178724185Y-100046970D01*
X178962280Y-100546970D02*
X178962280Y-100046970D01*
X179247995Y-100546970D01*
X179247995Y-100046970D01*
X179462280Y-100094589D02*
X179486090Y-100070780D01*
X179533709Y-100046970D01*
X179652757Y-100046970D01*
X179700376Y-100070780D01*
X179724185Y-100094589D01*
X179747995Y-100142208D01*
X179747995Y-100189827D01*
X179724185Y-100261256D01*
X179438471Y-100546970D01*
X179747995Y-100546970D01*
X180811804Y-100404113D02*
X181049900Y-100404113D01*
X180764185Y-100546970D02*
X180930852Y-100046970D01*
X181097519Y-100546970D01*
X181264185Y-100546970D02*
X181264185Y-100046970D01*
X181502280Y-100546970D02*
X181502280Y-100046970D01*
X181787995Y-100546970D01*
X181787995Y-100046970D01*
X182287995Y-100546970D02*
X182002280Y-100546970D01*
X182145138Y-100546970D02*
X182145138Y-100046970D01*
X182097519Y-100118399D01*
X182049900Y-100166018D01*
X182002280Y-100189827D01*
X183292280Y-100523160D02*
X183363709Y-100546970D01*
X183482757Y-100546970D01*
X183530376Y-100523160D01*
X183554185Y-100499351D01*
X183577995Y-100451732D01*
X183577995Y-100404113D01*
X183554185Y-100356494D01*
X183530376Y-100332684D01*
X183482757Y-100308875D01*
X183387519Y-100285065D01*
X183339900Y-100261256D01*
X183316090Y-100237446D01*
X183292280Y-100189827D01*
X183292280Y-100142208D01*
X183316090Y-100094589D01*
X183339900Y-100070780D01*
X183387519Y-100046970D01*
X183506566Y-100046970D01*
X183577995Y-100070780D01*
X183720852Y-100046970D02*
X184006566Y-100046970D01*
X183863709Y-100546970D02*
X183863709Y-100046970D01*
X184339900Y-100285065D02*
X184411328Y-100308875D01*
X184435138Y-100332684D01*
X184458947Y-100380303D01*
X184458947Y-100451732D01*
X184435138Y-100499351D01*
X184411328Y-100523160D01*
X184363709Y-100546970D01*
X184173233Y-100546970D01*
X184173233Y-100046970D01*
X184339900Y-100046970D01*
X184387519Y-100070780D01*
X184411328Y-100094589D01*
X184435138Y-100142208D01*
X184435138Y-100189827D01*
X184411328Y-100237446D01*
X184387519Y-100261256D01*
X184339900Y-100285065D01*
X184173233Y-100285065D01*
X184768471Y-100308875D02*
X184768471Y-100546970D01*
X184601804Y-100046970D02*
X184768471Y-100308875D01*
X184935138Y-100046970D01*
X186046566Y-100285065D02*
X186117995Y-100308875D01*
X186141804Y-100332684D01*
X186165614Y-100380303D01*
X186165614Y-100451732D01*
X186141804Y-100499351D01*
X186117995Y-100523160D01*
X186070376Y-100546970D01*
X185879900Y-100546970D01*
X185879900Y-100046970D01*
X186046566Y-100046970D01*
X186094185Y-100070780D01*
X186117995Y-100094589D01*
X186141804Y-100142208D01*
X186141804Y-100189827D01*
X186117995Y-100237446D01*
X186094185Y-100261256D01*
X186046566Y-100285065D01*
X185879900Y-100285065D01*
X186379900Y-100546970D02*
X186379900Y-100046970D01*
X186617995Y-100546970D02*
X186617995Y-100046970D01*
X186903709Y-100546970D01*
X186903709Y-100046970D01*
X187403709Y-100546970D02*
X187117995Y-100546970D01*
X187260852Y-100546970D02*
X187260852Y-100046970D01*
X187213233Y-100118399D01*
X187165614Y-100166018D01*
X187117995Y-100189827D01*
X188586566Y-100285065D02*
X188657995Y-100308875D01*
X188681804Y-100332684D01*
X188705614Y-100380303D01*
X188705614Y-100451732D01*
X188681804Y-100499351D01*
X188657995Y-100523160D01*
X188610376Y-100546970D01*
X188419900Y-100546970D01*
X188419900Y-100046970D01*
X188586566Y-100046970D01*
X188634185Y-100070780D01*
X188657995Y-100094589D01*
X188681804Y-100142208D01*
X188681804Y-100189827D01*
X188657995Y-100237446D01*
X188634185Y-100261256D01*
X188586566Y-100285065D01*
X188419900Y-100285065D01*
X188919900Y-100546970D02*
X188919900Y-100046970D01*
X189157995Y-100546970D02*
X189157995Y-100046970D01*
X189443709Y-100546970D01*
X189443709Y-100046970D01*
X189657995Y-100094589D02*
X189681804Y-100070780D01*
X189729423Y-100046970D01*
X189848471Y-100046970D01*
X189896090Y-100070780D01*
X189919900Y-100094589D01*
X189943709Y-100142208D01*
X189943709Y-100189827D01*
X189919900Y-100261256D01*
X189634185Y-100546970D01*
X189943709Y-100546970D01*
X190757519Y-100546970D02*
X190757519Y-100046970D01*
X190947995Y-100046970D01*
X190995614Y-100070780D01*
X191019423Y-100094589D01*
X191043233Y-100142208D01*
X191043233Y-100213637D01*
X191019423Y-100261256D01*
X190995614Y-100285065D01*
X190947995Y-100308875D01*
X190757519Y-100308875D01*
X191209900Y-100046970D02*
X191328947Y-100546970D01*
X191424185Y-100189827D01*
X191519423Y-100546970D01*
X191638471Y-100046970D01*
X191828947Y-100546970D02*
X191828947Y-100046970D01*
X191995614Y-100404113D01*
X192162280Y-100046970D01*
X192162280Y-100546970D01*
X192567042Y-100285065D02*
X192638471Y-100308875D01*
X192662280Y-100332684D01*
X192686090Y-100380303D01*
X192686090Y-100451732D01*
X192662280Y-100499351D01*
X192638471Y-100523160D01*
X192590852Y-100546970D01*
X192400376Y-100546970D01*
X192400376Y-100046970D01*
X192567042Y-100046970D01*
X192614661Y-100070780D01*
X192638471Y-100094589D01*
X192662280Y-100142208D01*
X192662280Y-100189827D01*
X192638471Y-100237446D01*
X192614661Y-100261256D01*
X192567042Y-100285065D01*
X192400376Y-100285065D01*
X193868947Y-100070780D02*
X193821328Y-100046970D01*
X193749900Y-100046970D01*
X193678471Y-100070780D01*
X193630852Y-100118399D01*
X193607042Y-100166018D01*
X193583233Y-100261256D01*
X193583233Y-100332684D01*
X193607042Y-100427922D01*
X193630852Y-100475541D01*
X193678471Y-100523160D01*
X193749900Y-100546970D01*
X193797519Y-100546970D01*
X193868947Y-100523160D01*
X193892757Y-100499351D01*
X193892757Y-100332684D01*
X193797519Y-100332684D01*
X194107042Y-100546970D02*
X194107042Y-100046970D01*
X194392757Y-100546970D01*
X194392757Y-100046970D01*
X194630852Y-100546970D02*
X194630852Y-100046970D01*
X194749900Y-100046970D01*
X194821328Y-100070780D01*
X194868947Y-100118399D01*
X194892757Y-100166018D01*
X194916566Y-100261256D01*
X194916566Y-100332684D01*
X194892757Y-100427922D01*
X194868947Y-100475541D01*
X194821328Y-100523160D01*
X194749900Y-100546970D01*
X194630852Y-100546970D01*
%TO.C,M1*%
D12*
X150422076Y-73744080D02*
X150422076Y-72744080D01*
X150755409Y-73458366D01*
X151088742Y-72744080D01*
X151088742Y-73744080D01*
X152088742Y-73744080D02*
X151517314Y-73744080D01*
X151803028Y-73744080D02*
X151803028Y-72744080D01*
X151707790Y-72886938D01*
X151612552Y-72982176D01*
X151517314Y-73029795D01*
%TO.C,BT2*%
X113590225Y-131449747D02*
X113733130Y-131497382D01*
X113780764Y-131545017D01*
X113828399Y-131640287D01*
X113828399Y-131783191D01*
X113780764Y-131878461D01*
X113733130Y-131926095D01*
X113637860Y-131973730D01*
X113256781Y-131973730D01*
X113256781Y-130973399D01*
X113590225Y-130973399D01*
X113685495Y-131021034D01*
X113733130Y-131068669D01*
X113780764Y-131163938D01*
X113780764Y-131259208D01*
X113733130Y-131354478D01*
X113685495Y-131402112D01*
X113590225Y-131449747D01*
X113256781Y-131449747D01*
X114114208Y-130973399D02*
X114685826Y-130973399D01*
X114400017Y-131973730D02*
X114400017Y-130973399D01*
X114971635Y-131068669D02*
X115019269Y-131021034D01*
X115114539Y-130973399D01*
X115352713Y-130973399D01*
X115447983Y-131021034D01*
X115495618Y-131068669D01*
X115543252Y-131163938D01*
X115543252Y-131259208D01*
X115495618Y-131402112D01*
X114924000Y-131973730D01*
X115543252Y-131973730D01*
%TO.C,S1*%
X185229595Y-67841761D02*
X185372452Y-67889380D01*
X185610547Y-67889380D01*
X185705785Y-67841761D01*
X185753404Y-67794142D01*
X185801023Y-67698904D01*
X185801023Y-67603666D01*
X185753404Y-67508428D01*
X185705785Y-67460809D01*
X185610547Y-67413190D01*
X185420071Y-67365571D01*
X185324833Y-67317952D01*
X185277214Y-67270333D01*
X185229595Y-67175095D01*
X185229595Y-67079857D01*
X185277214Y-66984619D01*
X185324833Y-66937000D01*
X185420071Y-66889380D01*
X185658166Y-66889380D01*
X185801023Y-66937000D01*
X186753404Y-67889380D02*
X186181976Y-67889380D01*
X186467690Y-67889380D02*
X186467690Y-66889380D01*
X186372452Y-67032238D01*
X186277214Y-67127476D01*
X186181976Y-67175095D01*
%TO.C,C1*%
X169060833Y-80206342D02*
X169013214Y-80253961D01*
X168870357Y-80301580D01*
X168775119Y-80301580D01*
X168632261Y-80253961D01*
X168537023Y-80158723D01*
X168489404Y-80063485D01*
X168441785Y-79873009D01*
X168441785Y-79730152D01*
X168489404Y-79539676D01*
X168537023Y-79444438D01*
X168632261Y-79349200D01*
X168775119Y-79301580D01*
X168870357Y-79301580D01*
X169013214Y-79349200D01*
X169060833Y-79396819D01*
X170013214Y-80301580D02*
X169441785Y-80301580D01*
X169727500Y-80301580D02*
X169727500Y-79301580D01*
X169632261Y-79444438D01*
X169537023Y-79539676D01*
X169441785Y-79587295D01*
%TO.C,C2*%
X158049933Y-103083142D02*
X158002314Y-103130761D01*
X157859457Y-103178380D01*
X157764219Y-103178380D01*
X157621361Y-103130761D01*
X157526123Y-103035523D01*
X157478504Y-102940285D01*
X157430885Y-102749809D01*
X157430885Y-102606952D01*
X157478504Y-102416476D01*
X157526123Y-102321238D01*
X157621361Y-102226000D01*
X157764219Y-102178380D01*
X157859457Y-102178380D01*
X158002314Y-102226000D01*
X158049933Y-102273619D01*
X158430885Y-102273619D02*
X158478504Y-102226000D01*
X158573742Y-102178380D01*
X158811838Y-102178380D01*
X158907076Y-102226000D01*
X158954695Y-102273619D01*
X159002314Y-102368857D01*
X159002314Y-102464095D01*
X158954695Y-102606952D01*
X158383266Y-103178380D01*
X159002314Y-103178380D01*
%TO.C,R20*%
X166470680Y-94940357D02*
X165994490Y-95273690D01*
X166470680Y-95511785D02*
X165470680Y-95511785D01*
X165470680Y-95130833D01*
X165518300Y-95035595D01*
X165565919Y-94987976D01*
X165661157Y-94940357D01*
X165804014Y-94940357D01*
X165899252Y-94987976D01*
X165946871Y-95035595D01*
X165994490Y-95130833D01*
X165994490Y-95511785D01*
X165565919Y-94559404D02*
X165518300Y-94511785D01*
X165470680Y-94416547D01*
X165470680Y-94178452D01*
X165518300Y-94083214D01*
X165565919Y-94035595D01*
X165661157Y-93987976D01*
X165756395Y-93987976D01*
X165899252Y-94035595D01*
X166470680Y-94607023D01*
X166470680Y-93987976D01*
X165470680Y-93368928D02*
X165470680Y-93273690D01*
X165518300Y-93178452D01*
X165565919Y-93130833D01*
X165661157Y-93083214D01*
X165851633Y-93035595D01*
X166089728Y-93035595D01*
X166280204Y-93083214D01*
X166375442Y-93130833D01*
X166423061Y-93178452D01*
X166470680Y-93273690D01*
X166470680Y-93368928D01*
X166423061Y-93464166D01*
X166375442Y-93511785D01*
X166280204Y-93559404D01*
X166089728Y-93607023D01*
X165851633Y-93607023D01*
X165661157Y-93559404D01*
X165565919Y-93511785D01*
X165518300Y-93464166D01*
X165470680Y-93368928D01*
%TO.C,RV1*%
X158664252Y-98503998D02*
X158329491Y-98025768D01*
X158090376Y-98503998D02*
X158090376Y-97499715D01*
X158472960Y-97499715D01*
X158568606Y-97547538D01*
X158616429Y-97595361D01*
X158664252Y-97691007D01*
X158664252Y-97834476D01*
X158616429Y-97930122D01*
X158568606Y-97977945D01*
X158472960Y-98025768D01*
X158090376Y-98025768D01*
X158951190Y-97499715D02*
X159285951Y-98503998D01*
X159620712Y-97499715D01*
X160481526Y-98503998D02*
X159907650Y-98503998D01*
X160194588Y-98503998D02*
X160194588Y-97499715D01*
X160098942Y-97643184D01*
X160003296Y-97738830D01*
X159907650Y-97786653D01*
%TO.C,U5*%
X164649580Y-87833104D02*
X165459104Y-87833104D01*
X165554342Y-87785485D01*
X165601961Y-87737866D01*
X165649580Y-87642628D01*
X165649580Y-87452152D01*
X165601961Y-87356914D01*
X165554342Y-87309295D01*
X165459104Y-87261676D01*
X164649580Y-87261676D01*
X164649580Y-86309295D02*
X164649580Y-86785485D01*
X165125771Y-86833104D01*
X165078152Y-86785485D01*
X165030533Y-86690247D01*
X165030533Y-86452152D01*
X165078152Y-86356914D01*
X165125771Y-86309295D01*
X165221009Y-86261676D01*
X165459104Y-86261676D01*
X165554342Y-86309295D01*
X165601961Y-86356914D01*
X165649580Y-86452152D01*
X165649580Y-86690247D01*
X165601961Y-86785485D01*
X165554342Y-86833104D01*
%TO.C,D1*%
X101315780Y-93803695D02*
X100315780Y-93803695D01*
X100315780Y-93565600D01*
X100363400Y-93422742D01*
X100458638Y-93327504D01*
X100553876Y-93279885D01*
X100744352Y-93232266D01*
X100887209Y-93232266D01*
X101077685Y-93279885D01*
X101172923Y-93327504D01*
X101268161Y-93422742D01*
X101315780Y-93565600D01*
X101315780Y-93803695D01*
X101315780Y-92279885D02*
X101315780Y-92851314D01*
X101315780Y-92565600D02*
X100315780Y-92565600D01*
X100458638Y-92660838D01*
X100553876Y-92756076D01*
X100601495Y-92851314D01*
%TO.C,D2*%
X101201480Y-96686595D02*
X100201480Y-96686595D01*
X100201480Y-96448500D01*
X100249100Y-96305642D01*
X100344338Y-96210404D01*
X100439576Y-96162785D01*
X100630052Y-96115166D01*
X100772909Y-96115166D01*
X100963385Y-96162785D01*
X101058623Y-96210404D01*
X101153861Y-96305642D01*
X101201480Y-96448500D01*
X101201480Y-96686595D01*
X100296719Y-95734214D02*
X100249100Y-95686595D01*
X100201480Y-95591357D01*
X100201480Y-95353261D01*
X100249100Y-95258023D01*
X100296719Y-95210404D01*
X100391957Y-95162785D01*
X100487195Y-95162785D01*
X100630052Y-95210404D01*
X101201480Y-95781833D01*
X101201480Y-95162785D01*
%TO.C,D3*%
X97115404Y-88243580D02*
X97115404Y-87243580D01*
X97353500Y-87243580D01*
X97496357Y-87291200D01*
X97591595Y-87386438D01*
X97639214Y-87481676D01*
X97686833Y-87672152D01*
X97686833Y-87815009D01*
X97639214Y-88005485D01*
X97591595Y-88100723D01*
X97496357Y-88195961D01*
X97353500Y-88243580D01*
X97115404Y-88243580D01*
X98020166Y-87243580D02*
X98639214Y-87243580D01*
X98305880Y-87624533D01*
X98448738Y-87624533D01*
X98543976Y-87672152D01*
X98591595Y-87719771D01*
X98639214Y-87815009D01*
X98639214Y-88053104D01*
X98591595Y-88148342D01*
X98543976Y-88195961D01*
X98448738Y-88243580D01*
X98163023Y-88243580D01*
X98067785Y-88195961D01*
X98020166Y-88148342D01*
%TO.C,D4*%
X168743404Y-103631080D02*
X168743404Y-102631080D01*
X168981500Y-102631080D01*
X169124357Y-102678700D01*
X169219595Y-102773938D01*
X169267214Y-102869176D01*
X169314833Y-103059652D01*
X169314833Y-103202509D01*
X169267214Y-103392985D01*
X169219595Y-103488223D01*
X169124357Y-103583461D01*
X168981500Y-103631080D01*
X168743404Y-103631080D01*
X170171976Y-102964414D02*
X170171976Y-103631080D01*
X169933880Y-102583461D02*
X169695785Y-103297747D01*
X170314833Y-103297747D01*
%TO.C,D5*%
X162114004Y-65463680D02*
X162114004Y-64463680D01*
X162352100Y-64463680D01*
X162494957Y-64511300D01*
X162590195Y-64606538D01*
X162637814Y-64701776D01*
X162685433Y-64892252D01*
X162685433Y-65035109D01*
X162637814Y-65225585D01*
X162590195Y-65320823D01*
X162494957Y-65416061D01*
X162352100Y-65463680D01*
X162114004Y-65463680D01*
X163590195Y-64463680D02*
X163114004Y-64463680D01*
X163066385Y-64939871D01*
X163114004Y-64892252D01*
X163209242Y-64844633D01*
X163447338Y-64844633D01*
X163542576Y-64892252D01*
X163590195Y-64939871D01*
X163637814Y-65035109D01*
X163637814Y-65273204D01*
X163590195Y-65368442D01*
X163542576Y-65416061D01*
X163447338Y-65463680D01*
X163209242Y-65463680D01*
X163114004Y-65416061D01*
X163066385Y-65368442D01*
%TO.C,R1*%
X176642733Y-55998280D02*
X176309400Y-55522090D01*
X176071304Y-55998280D02*
X176071304Y-54998280D01*
X176452257Y-54998280D01*
X176547495Y-55045900D01*
X176595114Y-55093519D01*
X176642733Y-55188757D01*
X176642733Y-55331614D01*
X176595114Y-55426852D01*
X176547495Y-55474471D01*
X176452257Y-55522090D01*
X176071304Y-55522090D01*
X177595114Y-55998280D02*
X177023685Y-55998280D01*
X177309400Y-55998280D02*
X177309400Y-54998280D01*
X177214161Y-55141138D01*
X177118923Y-55236376D01*
X177023685Y-55283995D01*
%TO.C,R2*%
X170889633Y-55811680D02*
X170556300Y-55335490D01*
X170318204Y-55811680D02*
X170318204Y-54811680D01*
X170699157Y-54811680D01*
X170794395Y-54859300D01*
X170842014Y-54906919D01*
X170889633Y-55002157D01*
X170889633Y-55145014D01*
X170842014Y-55240252D01*
X170794395Y-55287871D01*
X170699157Y-55335490D01*
X170318204Y-55335490D01*
X171270585Y-54906919D02*
X171318204Y-54859300D01*
X171413442Y-54811680D01*
X171651538Y-54811680D01*
X171746776Y-54859300D01*
X171794395Y-54906919D01*
X171842014Y-55002157D01*
X171842014Y-55097395D01*
X171794395Y-55240252D01*
X171222966Y-55811680D01*
X171842014Y-55811680D01*
%TO.C,R3*%
X187824280Y-92038466D02*
X187348090Y-92371800D01*
X187824280Y-92609895D02*
X186824280Y-92609895D01*
X186824280Y-92228942D01*
X186871900Y-92133704D01*
X186919519Y-92086085D01*
X187014757Y-92038466D01*
X187157614Y-92038466D01*
X187252852Y-92086085D01*
X187300471Y-92133704D01*
X187348090Y-92228942D01*
X187348090Y-92609895D01*
X186824280Y-91705133D02*
X186824280Y-91086085D01*
X187205233Y-91419419D01*
X187205233Y-91276561D01*
X187252852Y-91181323D01*
X187300471Y-91133704D01*
X187395709Y-91086085D01*
X187633804Y-91086085D01*
X187729042Y-91133704D01*
X187776661Y-91181323D01*
X187824280Y-91276561D01*
X187824280Y-91562276D01*
X187776661Y-91657514D01*
X187729042Y-91705133D01*
%TO.C,R4*%
X185157280Y-91987666D02*
X184681090Y-92321000D01*
X185157280Y-92559095D02*
X184157280Y-92559095D01*
X184157280Y-92178142D01*
X184204900Y-92082904D01*
X184252519Y-92035285D01*
X184347757Y-91987666D01*
X184490614Y-91987666D01*
X184585852Y-92035285D01*
X184633471Y-92082904D01*
X184681090Y-92178142D01*
X184681090Y-92559095D01*
X184490614Y-91130523D02*
X185157280Y-91130523D01*
X184109661Y-91368619D02*
X184823947Y-91606714D01*
X184823947Y-90987666D01*
%TO.C,R5*%
X180242380Y-92038466D02*
X179766190Y-92371800D01*
X180242380Y-92609895D02*
X179242380Y-92609895D01*
X179242380Y-92228942D01*
X179290000Y-92133704D01*
X179337619Y-92086085D01*
X179432857Y-92038466D01*
X179575714Y-92038466D01*
X179670952Y-92086085D01*
X179718571Y-92133704D01*
X179766190Y-92228942D01*
X179766190Y-92609895D01*
X179242380Y-91133704D02*
X179242380Y-91609895D01*
X179718571Y-91657514D01*
X179670952Y-91609895D01*
X179623333Y-91514657D01*
X179623333Y-91276561D01*
X179670952Y-91181323D01*
X179718571Y-91133704D01*
X179813809Y-91086085D01*
X180051904Y-91086085D01*
X180147142Y-91133704D01*
X180194761Y-91181323D01*
X180242380Y-91276561D01*
X180242380Y-91514657D01*
X180194761Y-91609895D01*
X180147142Y-91657514D01*
%TO.C,R7*%
X193660733Y-60494080D02*
X193327400Y-60017890D01*
X193089304Y-60494080D02*
X193089304Y-59494080D01*
X193470257Y-59494080D01*
X193565495Y-59541700D01*
X193613114Y-59589319D01*
X193660733Y-59684557D01*
X193660733Y-59827414D01*
X193613114Y-59922652D01*
X193565495Y-59970271D01*
X193470257Y-60017890D01*
X193089304Y-60017890D01*
X193994066Y-59494080D02*
X194660733Y-59494080D01*
X194232161Y-60494080D01*
%TO.C,R8*%
X193673433Y-64215180D02*
X193340100Y-63738990D01*
X193102004Y-64215180D02*
X193102004Y-63215180D01*
X193482957Y-63215180D01*
X193578195Y-63262800D01*
X193625814Y-63310419D01*
X193673433Y-63405657D01*
X193673433Y-63548514D01*
X193625814Y-63643752D01*
X193578195Y-63691371D01*
X193482957Y-63738990D01*
X193102004Y-63738990D01*
X194244861Y-63643752D02*
X194149623Y-63596133D01*
X194102004Y-63548514D01*
X194054385Y-63453276D01*
X194054385Y-63405657D01*
X194102004Y-63310419D01*
X194149623Y-63262800D01*
X194244861Y-63215180D01*
X194435338Y-63215180D01*
X194530576Y-63262800D01*
X194578195Y-63310419D01*
X194625814Y-63405657D01*
X194625814Y-63453276D01*
X194578195Y-63548514D01*
X194530576Y-63596133D01*
X194435338Y-63643752D01*
X194244861Y-63643752D01*
X194149623Y-63691371D01*
X194102004Y-63738990D01*
X194054385Y-63834228D01*
X194054385Y-64024704D01*
X194102004Y-64119942D01*
X194149623Y-64167561D01*
X194244861Y-64215180D01*
X194435338Y-64215180D01*
X194530576Y-64167561D01*
X194578195Y-64119942D01*
X194625814Y-64024704D01*
X194625814Y-63834228D01*
X194578195Y-63738990D01*
X194530576Y-63691371D01*
X194435338Y-63643752D01*
%TO.C,R9*%
X202487233Y-97429580D02*
X202153900Y-96953390D01*
X201915804Y-97429580D02*
X201915804Y-96429580D01*
X202296757Y-96429580D01*
X202391995Y-96477200D01*
X202439614Y-96524819D01*
X202487233Y-96620057D01*
X202487233Y-96762914D01*
X202439614Y-96858152D01*
X202391995Y-96905771D01*
X202296757Y-96953390D01*
X201915804Y-96953390D01*
X202963423Y-97429580D02*
X203153900Y-97429580D01*
X203249138Y-97381961D01*
X203296757Y-97334342D01*
X203391995Y-97191485D01*
X203439614Y-97001009D01*
X203439614Y-96620057D01*
X203391995Y-96524819D01*
X203344376Y-96477200D01*
X203249138Y-96429580D01*
X203058661Y-96429580D01*
X202963423Y-96477200D01*
X202915804Y-96524819D01*
X202868185Y-96620057D01*
X202868185Y-96858152D01*
X202915804Y-96953390D01*
X202963423Y-97001009D01*
X203058661Y-97048628D01*
X203249138Y-97048628D01*
X203344376Y-97001009D01*
X203391995Y-96953390D01*
X203439614Y-96858152D01*
%TO.C,R10*%
X201503042Y-82595980D02*
X201169709Y-82119790D01*
X200931614Y-82595980D02*
X200931614Y-81595980D01*
X201312566Y-81595980D01*
X201407804Y-81643600D01*
X201455423Y-81691219D01*
X201503042Y-81786457D01*
X201503042Y-81929314D01*
X201455423Y-82024552D01*
X201407804Y-82072171D01*
X201312566Y-82119790D01*
X200931614Y-82119790D01*
X202455423Y-82595980D02*
X201883995Y-82595980D01*
X202169709Y-82595980D02*
X202169709Y-81595980D01*
X202074471Y-81738838D01*
X201979233Y-81834076D01*
X201883995Y-81881695D01*
X203074471Y-81595980D02*
X203169709Y-81595980D01*
X203264947Y-81643600D01*
X203312566Y-81691219D01*
X203360185Y-81786457D01*
X203407804Y-81976933D01*
X203407804Y-82215028D01*
X203360185Y-82405504D01*
X203312566Y-82500742D01*
X203264947Y-82548361D01*
X203169709Y-82595980D01*
X203074471Y-82595980D01*
X202979233Y-82548361D01*
X202931614Y-82500742D01*
X202883995Y-82405504D01*
X202836376Y-82215028D01*
X202836376Y-81976933D01*
X202883995Y-81786457D01*
X202931614Y-81691219D01*
X202979233Y-81643600D01*
X203074471Y-81595980D01*
%TO.C,R11*%
X190923942Y-116704280D02*
X190590609Y-116228090D01*
X190352514Y-116704280D02*
X190352514Y-115704280D01*
X190733466Y-115704280D01*
X190828704Y-115751900D01*
X190876323Y-115799519D01*
X190923942Y-115894757D01*
X190923942Y-116037614D01*
X190876323Y-116132852D01*
X190828704Y-116180471D01*
X190733466Y-116228090D01*
X190352514Y-116228090D01*
X191876323Y-116704280D02*
X191304895Y-116704280D01*
X191590609Y-116704280D02*
X191590609Y-115704280D01*
X191495371Y-115847138D01*
X191400133Y-115942376D01*
X191304895Y-115989995D01*
X192828704Y-116704280D02*
X192257276Y-116704280D01*
X192542990Y-116704280D02*
X192542990Y-115704280D01*
X192447752Y-115847138D01*
X192352514Y-115942376D01*
X192257276Y-115989995D01*
%TO.C,R12*%
X165625542Y-65450980D02*
X165292209Y-64974790D01*
X165054114Y-65450980D02*
X165054114Y-64450980D01*
X165435066Y-64450980D01*
X165530304Y-64498600D01*
X165577923Y-64546219D01*
X165625542Y-64641457D01*
X165625542Y-64784314D01*
X165577923Y-64879552D01*
X165530304Y-64927171D01*
X165435066Y-64974790D01*
X165054114Y-64974790D01*
X166577923Y-65450980D02*
X166006495Y-65450980D01*
X166292209Y-65450980D02*
X166292209Y-64450980D01*
X166196971Y-64593838D01*
X166101733Y-64689076D01*
X166006495Y-64736695D01*
X166958876Y-64546219D02*
X167006495Y-64498600D01*
X167101733Y-64450980D01*
X167339828Y-64450980D01*
X167435066Y-64498600D01*
X167482685Y-64546219D01*
X167530304Y-64641457D01*
X167530304Y-64736695D01*
X167482685Y-64879552D01*
X166911257Y-65450980D01*
X167530304Y-65450980D01*
%TO.C,R14*%
X190860442Y-120361880D02*
X190527109Y-119885690D01*
X190289014Y-120361880D02*
X190289014Y-119361880D01*
X190669966Y-119361880D01*
X190765204Y-119409500D01*
X190812823Y-119457119D01*
X190860442Y-119552357D01*
X190860442Y-119695214D01*
X190812823Y-119790452D01*
X190765204Y-119838071D01*
X190669966Y-119885690D01*
X190289014Y-119885690D01*
X191812823Y-120361880D02*
X191241395Y-120361880D01*
X191527109Y-120361880D02*
X191527109Y-119361880D01*
X191431871Y-119504738D01*
X191336633Y-119599976D01*
X191241395Y-119647595D01*
X192669966Y-119695214D02*
X192669966Y-120361880D01*
X192431871Y-119314261D02*
X192193776Y-120028547D01*
X192812823Y-120028547D01*
%TO.C,R16*%
X97985342Y-103957380D02*
X97652009Y-103481190D01*
X97413914Y-103957380D02*
X97413914Y-102957380D01*
X97794866Y-102957380D01*
X97890104Y-103005000D01*
X97937723Y-103052619D01*
X97985342Y-103147857D01*
X97985342Y-103290714D01*
X97937723Y-103385952D01*
X97890104Y-103433571D01*
X97794866Y-103481190D01*
X97413914Y-103481190D01*
X98937723Y-103957380D02*
X98366295Y-103957380D01*
X98652009Y-103957380D02*
X98652009Y-102957380D01*
X98556771Y-103100238D01*
X98461533Y-103195476D01*
X98366295Y-103243095D01*
X99794866Y-102957380D02*
X99604390Y-102957380D01*
X99509152Y-103005000D01*
X99461533Y-103052619D01*
X99366295Y-103195476D01*
X99318676Y-103385952D01*
X99318676Y-103766904D01*
X99366295Y-103862142D01*
X99413914Y-103909761D01*
X99509152Y-103957380D01*
X99699628Y-103957380D01*
X99794866Y-103909761D01*
X99842485Y-103862142D01*
X99890104Y-103766904D01*
X99890104Y-103528809D01*
X99842485Y-103433571D01*
X99794866Y-103385952D01*
X99699628Y-103338333D01*
X99509152Y-103338333D01*
X99413914Y-103385952D01*
X99366295Y-103433571D01*
X99318676Y-103528809D01*
%TO.C,R17*%
X96321642Y-82049880D02*
X95988309Y-81573690D01*
X95750214Y-82049880D02*
X95750214Y-81049880D01*
X96131166Y-81049880D01*
X96226404Y-81097500D01*
X96274023Y-81145119D01*
X96321642Y-81240357D01*
X96321642Y-81383214D01*
X96274023Y-81478452D01*
X96226404Y-81526071D01*
X96131166Y-81573690D01*
X95750214Y-81573690D01*
X97274023Y-82049880D02*
X96702595Y-82049880D01*
X96988309Y-82049880D02*
X96988309Y-81049880D01*
X96893071Y-81192738D01*
X96797833Y-81287976D01*
X96702595Y-81335595D01*
X97607357Y-81049880D02*
X98274023Y-81049880D01*
X97845452Y-82049880D01*
%TO.C,R18*%
X162906880Y-100833157D02*
X162430690Y-101166490D01*
X162906880Y-101404585D02*
X161906880Y-101404585D01*
X161906880Y-101023633D01*
X161954500Y-100928395D01*
X162002119Y-100880776D01*
X162097357Y-100833157D01*
X162240214Y-100833157D01*
X162335452Y-100880776D01*
X162383071Y-100928395D01*
X162430690Y-101023633D01*
X162430690Y-101404585D01*
X162906880Y-99880776D02*
X162906880Y-100452204D01*
X162906880Y-100166490D02*
X161906880Y-100166490D01*
X162049738Y-100261728D01*
X162144976Y-100356966D01*
X162192595Y-100452204D01*
X162335452Y-99309347D02*
X162287833Y-99404585D01*
X162240214Y-99452204D01*
X162144976Y-99499823D01*
X162097357Y-99499823D01*
X162002119Y-99452204D01*
X161954500Y-99404585D01*
X161906880Y-99309347D01*
X161906880Y-99118871D01*
X161954500Y-99023633D01*
X162002119Y-98976014D01*
X162097357Y-98928395D01*
X162144976Y-98928395D01*
X162240214Y-98976014D01*
X162287833Y-99023633D01*
X162335452Y-99118871D01*
X162335452Y-99309347D01*
X162383071Y-99404585D01*
X162430690Y-99452204D01*
X162525928Y-99499823D01*
X162716404Y-99499823D01*
X162811642Y-99452204D01*
X162859261Y-99404585D01*
X162906880Y-99309347D01*
X162906880Y-99118871D01*
X162859261Y-99023633D01*
X162811642Y-98976014D01*
X162716404Y-98928395D01*
X162525928Y-98928395D01*
X162430690Y-98976014D01*
X162383071Y-99023633D01*
X162335452Y-99118871D01*
%TO.C,R19*%
X158665942Y-65476380D02*
X158332609Y-65000190D01*
X158094514Y-65476380D02*
X158094514Y-64476380D01*
X158475466Y-64476380D01*
X158570704Y-64524000D01*
X158618323Y-64571619D01*
X158665942Y-64666857D01*
X158665942Y-64809714D01*
X158618323Y-64904952D01*
X158570704Y-64952571D01*
X158475466Y-65000190D01*
X158094514Y-65000190D01*
X159618323Y-65476380D02*
X159046895Y-65476380D01*
X159332609Y-65476380D02*
X159332609Y-64476380D01*
X159237371Y-64619238D01*
X159142133Y-64714476D01*
X159046895Y-64762095D01*
X160094514Y-65476380D02*
X160284990Y-65476380D01*
X160380228Y-65428761D01*
X160427847Y-65381142D01*
X160523085Y-65238285D01*
X160570704Y-65047809D01*
X160570704Y-64666857D01*
X160523085Y-64571619D01*
X160475466Y-64524000D01*
X160380228Y-64476380D01*
X160189752Y-64476380D01*
X160094514Y-64524000D01*
X160046895Y-64571619D01*
X159999276Y-64666857D01*
X159999276Y-64904952D01*
X160046895Y-65000190D01*
X160094514Y-65047809D01*
X160189752Y-65095428D01*
X160380228Y-65095428D01*
X160475466Y-65047809D01*
X160523085Y-65000190D01*
X160570704Y-64904952D01*
%TO.C,H1*%
X158953295Y-118143280D02*
X158953295Y-117143280D01*
X158953295Y-117619471D02*
X159524723Y-117619471D01*
X159524723Y-118143280D02*
X159524723Y-117143280D01*
X160524723Y-118143280D02*
X159953295Y-118143280D01*
X160239009Y-118143280D02*
X160239009Y-117143280D01*
X160143771Y-117286138D01*
X160048533Y-117381376D01*
X159953295Y-117428995D01*
%TO.C,H2*%
X141681295Y-118181380D02*
X141681295Y-117181380D01*
X141681295Y-117657571D02*
X142252723Y-117657571D01*
X142252723Y-118181380D02*
X142252723Y-117181380D01*
X142681295Y-117276619D02*
X142728914Y-117229000D01*
X142824152Y-117181380D01*
X143062247Y-117181380D01*
X143157485Y-117229000D01*
X143205104Y-117276619D01*
X143252723Y-117371857D01*
X143252723Y-117467095D01*
X143205104Y-117609952D01*
X142633676Y-118181380D01*
X143252723Y-118181380D01*
%TO.C,H3*%
X141465395Y-58897780D02*
X141465395Y-57897780D01*
X141465395Y-58373971D02*
X142036823Y-58373971D01*
X142036823Y-58897780D02*
X142036823Y-57897780D01*
X142417776Y-57897780D02*
X143036823Y-57897780D01*
X142703490Y-58278733D01*
X142846347Y-58278733D01*
X142941585Y-58326352D01*
X142989204Y-58373971D01*
X143036823Y-58469209D01*
X143036823Y-58707304D01*
X142989204Y-58802542D01*
X142941585Y-58850161D01*
X142846347Y-58897780D01*
X142560633Y-58897780D01*
X142465395Y-58850161D01*
X142417776Y-58802542D01*
%TO.C,H4*%
X159143795Y-58872380D02*
X159143795Y-57872380D01*
X159143795Y-58348571D02*
X159715223Y-58348571D01*
X159715223Y-58872380D02*
X159715223Y-57872380D01*
X160619985Y-58205714D02*
X160619985Y-58872380D01*
X160381890Y-57824761D02*
X160143795Y-58539047D01*
X160762842Y-58539047D01*
%TO.C,J1*%
X103806666Y-67041780D02*
X103806666Y-67756066D01*
X103759047Y-67898923D01*
X103663809Y-67994161D01*
X103520952Y-68041780D01*
X103425714Y-68041780D01*
X104806666Y-68041780D02*
X104235238Y-68041780D01*
X104520952Y-68041780D02*
X104520952Y-67041780D01*
X104425714Y-67184638D01*
X104330476Y-67279876D01*
X104235238Y-67327495D01*
%TO.C,J2*%
X137753766Y-66851280D02*
X137753766Y-67565566D01*
X137706147Y-67708423D01*
X137610909Y-67803661D01*
X137468052Y-67851280D01*
X137372814Y-67851280D01*
X138182338Y-66946519D02*
X138229957Y-66898900D01*
X138325195Y-66851280D01*
X138563290Y-66851280D01*
X138658528Y-66898900D01*
X138706147Y-66946519D01*
X138753766Y-67041757D01*
X138753766Y-67136995D01*
X138706147Y-67279852D01*
X138134719Y-67851280D01*
X138753766Y-67851280D01*
%TO.C,J3*%
X142147966Y-74661780D02*
X142147966Y-75376066D01*
X142100347Y-75518923D01*
X142005109Y-75614161D01*
X141862252Y-75661780D01*
X141767014Y-75661780D01*
X142528919Y-74661780D02*
X143147966Y-74661780D01*
X142814633Y-75042733D01*
X142957490Y-75042733D01*
X143052728Y-75090352D01*
X143100347Y-75137971D01*
X143147966Y-75233209D01*
X143147966Y-75471304D01*
X143100347Y-75566542D01*
X143052728Y-75614161D01*
X142957490Y-75661780D01*
X142671776Y-75661780D01*
X142576538Y-75614161D01*
X142528919Y-75566542D01*
%TD*%
M02*
