%TF.GenerationSoftware,KiCad,Pcbnew,5.1.5+dfsg1-2build2*%
%TF.CreationDate,2021-11-18T22:09:55+05:30*%
%TF.ProjectId,Meshmerize,4d657368-6d65-4726-997a-652e6b696361,rev?*%
%TF.SameCoordinates,Original*%
%TF.FileFunction,Legend,Bot*%
%TF.FilePolarity,Positive*%
%FSLAX46Y46*%
G04 Gerber Fmt 4.6, Leading zero omitted, Abs format (unit mm)*
G04 Created by KiCad (PCBNEW 5.1.5+dfsg1-2build2) date 2021-11-18 22:09:55*
%MOMM*%
%LPD*%
G04 APERTURE LIST*
%ADD10C,0.400000*%
%ADD11C,0.300000*%
%ADD12C,1.000000*%
%ADD13C,0.150000*%
%ADD14C,0.010000*%
%ADD15C,0.120000*%
%ADD16C,0.127000*%
G04 APERTURE END LIST*
D10*
X154516556Y-102027619D02*
X154421318Y-101741904D01*
X154421318Y-101265714D01*
X154516556Y-101075238D01*
X154611794Y-100980000D01*
X154802270Y-100884761D01*
X154992746Y-100884761D01*
X155183222Y-100980000D01*
X155278460Y-101075238D01*
X155373699Y-101265714D01*
X155468937Y-101646666D01*
X155564175Y-101837142D01*
X155659413Y-101932380D01*
X155849889Y-102027619D01*
X156040365Y-102027619D01*
X156230841Y-101932380D01*
X156326080Y-101837142D01*
X156421318Y-101646666D01*
X156421318Y-101170476D01*
X156326080Y-100884761D01*
X154421318Y-98884761D02*
X155373699Y-99551428D01*
X154421318Y-100027619D02*
X156421318Y-100027619D01*
X156421318Y-99265714D01*
X156326080Y-99075238D01*
X156230841Y-98980000D01*
X156040365Y-98884761D01*
X155754651Y-98884761D01*
X155564175Y-98980000D01*
X155468937Y-99075238D01*
X155373699Y-99265714D01*
X155373699Y-100027619D01*
X154992746Y-98122857D02*
X154992746Y-97170476D01*
X154421318Y-98313333D02*
X156421318Y-97646666D01*
X154421318Y-96980000D01*
X155183222Y-94789523D02*
X155183222Y-93265714D01*
X156421318Y-91075238D02*
X154421318Y-90408571D01*
X156421318Y-89741904D01*
X156421318Y-88503809D02*
X154992746Y-88503809D01*
X154707032Y-88599047D01*
X154516556Y-88789523D01*
X154421318Y-89075238D01*
X154421318Y-89265714D01*
X156421318Y-87837142D02*
X156421318Y-86694285D01*
X154421318Y-87265714D02*
X156421318Y-87265714D01*
X154421318Y-86027619D02*
X156421318Y-86027619D01*
X159560504Y-114461120D02*
X159479552Y-114218262D01*
X159479552Y-113813500D01*
X159560504Y-113651596D01*
X159641457Y-113570643D01*
X159803361Y-113489691D01*
X159965266Y-113489691D01*
X160127171Y-113570643D01*
X160208123Y-113651596D01*
X160289076Y-113813500D01*
X160370028Y-114137310D01*
X160450980Y-114299215D01*
X160531933Y-114380167D01*
X160693838Y-114461120D01*
X160855742Y-114461120D01*
X161017647Y-114380167D01*
X161098600Y-114299215D01*
X161179552Y-114137310D01*
X161179552Y-113732548D01*
X161098600Y-113489691D01*
X159479552Y-112518262D02*
X159560504Y-112680167D01*
X159641457Y-112761120D01*
X159803361Y-112842072D01*
X160289076Y-112842072D01*
X160450980Y-112761120D01*
X160531933Y-112680167D01*
X160612885Y-112518262D01*
X160612885Y-112275405D01*
X160531933Y-112113500D01*
X160450980Y-112032548D01*
X160289076Y-111951596D01*
X159803361Y-111951596D01*
X159641457Y-112032548D01*
X159560504Y-112113500D01*
X159479552Y-112275405D01*
X159479552Y-112518262D01*
X159560504Y-110494453D02*
X159479552Y-110656358D01*
X159479552Y-110980167D01*
X159560504Y-111142072D01*
X159641457Y-111223024D01*
X159803361Y-111303977D01*
X160289076Y-111303977D01*
X160450980Y-111223024D01*
X160531933Y-111142072D01*
X160612885Y-110980167D01*
X160612885Y-110656358D01*
X160531933Y-110494453D01*
X159479552Y-109765881D02*
X160612885Y-109765881D01*
X161179552Y-109765881D02*
X161098600Y-109846834D01*
X161017647Y-109765881D01*
X161098600Y-109684929D01*
X161179552Y-109765881D01*
X161017647Y-109765881D01*
X159560504Y-108308739D02*
X159479552Y-108470643D01*
X159479552Y-108794453D01*
X159560504Y-108956358D01*
X159722409Y-109037310D01*
X160370028Y-109037310D01*
X160531933Y-108956358D01*
X160612885Y-108794453D01*
X160612885Y-108470643D01*
X160531933Y-108308739D01*
X160370028Y-108227786D01*
X160208123Y-108227786D01*
X160046219Y-109037310D01*
X160612885Y-107742072D02*
X160612885Y-107094453D01*
X161179552Y-107499215D02*
X159722409Y-107499215D01*
X159560504Y-107418262D01*
X159479552Y-107256358D01*
X159479552Y-107094453D01*
X160612885Y-106689691D02*
X159479552Y-106284929D01*
X160612885Y-105880167D02*
X159479552Y-106284929D01*
X159074790Y-106446834D01*
X158993838Y-106527786D01*
X158912885Y-106689691D01*
X159479552Y-103694453D02*
X159560504Y-103856358D01*
X159641457Y-103937310D01*
X159803361Y-104018262D01*
X160289076Y-104018262D01*
X160450980Y-103937310D01*
X160531933Y-103856358D01*
X160612885Y-103694453D01*
X160612885Y-103451596D01*
X160531933Y-103289691D01*
X160450980Y-103208739D01*
X160289076Y-103127786D01*
X159803361Y-103127786D01*
X159641457Y-103208739D01*
X159560504Y-103289691D01*
X159479552Y-103451596D01*
X159479552Y-103694453D01*
X160612885Y-102642072D02*
X160612885Y-101994453D01*
X159479552Y-102399215D02*
X160936695Y-102399215D01*
X161098600Y-102318262D01*
X161179552Y-102156358D01*
X161179552Y-101994453D01*
X159479552Y-99161120D02*
X160289076Y-99727786D01*
X159479552Y-100132548D02*
X161179552Y-100132548D01*
X161179552Y-99484929D01*
X161098600Y-99323024D01*
X161017647Y-99242072D01*
X160855742Y-99161120D01*
X160612885Y-99161120D01*
X160450980Y-99242072D01*
X160370028Y-99323024D01*
X160289076Y-99484929D01*
X160289076Y-100132548D01*
X159479552Y-98189691D02*
X159560504Y-98351596D01*
X159641457Y-98432548D01*
X159803361Y-98513500D01*
X160289076Y-98513500D01*
X160450980Y-98432548D01*
X160531933Y-98351596D01*
X160612885Y-98189691D01*
X160612885Y-97946834D01*
X160531933Y-97784929D01*
X160450980Y-97703977D01*
X160289076Y-97623024D01*
X159803361Y-97623024D01*
X159641457Y-97703977D01*
X159560504Y-97784929D01*
X159479552Y-97946834D01*
X159479552Y-98189691D01*
X159479552Y-96894453D02*
X161179552Y-96894453D01*
X160531933Y-96894453D02*
X160612885Y-96732548D01*
X160612885Y-96408739D01*
X160531933Y-96246834D01*
X160450980Y-96165881D01*
X160289076Y-96084929D01*
X159803361Y-96084929D01*
X159641457Y-96165881D01*
X159560504Y-96246834D01*
X159479552Y-96408739D01*
X159479552Y-96732548D01*
X159560504Y-96894453D01*
X159479552Y-95113500D02*
X159560504Y-95275405D01*
X159641457Y-95356358D01*
X159803361Y-95437310D01*
X160289076Y-95437310D01*
X160450980Y-95356358D01*
X160531933Y-95275405D01*
X160612885Y-95113500D01*
X160612885Y-94870643D01*
X160531933Y-94708739D01*
X160450980Y-94627786D01*
X160289076Y-94546834D01*
X159803361Y-94546834D01*
X159641457Y-94627786D01*
X159560504Y-94708739D01*
X159479552Y-94870643D01*
X159479552Y-95113500D01*
X160612885Y-94061120D02*
X160612885Y-93413500D01*
X161179552Y-93818262D02*
X159722409Y-93818262D01*
X159560504Y-93737310D01*
X159479552Y-93575405D01*
X159479552Y-93413500D01*
X159479552Y-92846834D02*
X160612885Y-92846834D01*
X161179552Y-92846834D02*
X161098600Y-92927786D01*
X161017647Y-92846834D01*
X161098600Y-92765881D01*
X161179552Y-92846834D01*
X161017647Y-92846834D01*
X159560504Y-91308739D02*
X159479552Y-91470643D01*
X159479552Y-91794453D01*
X159560504Y-91956358D01*
X159641457Y-92037310D01*
X159803361Y-92118262D01*
X160289076Y-92118262D01*
X160450980Y-92037310D01*
X160531933Y-91956358D01*
X160612885Y-91794453D01*
X160612885Y-91470643D01*
X160531933Y-91308739D01*
X159560504Y-90661120D02*
X159479552Y-90499215D01*
X159479552Y-90175405D01*
X159560504Y-90013500D01*
X159722409Y-89932548D01*
X159803361Y-89932548D01*
X159965266Y-90013500D01*
X160046219Y-90175405D01*
X160046219Y-90418262D01*
X160127171Y-90580167D01*
X160289076Y-90661120D01*
X160370028Y-90661120D01*
X160531933Y-90580167D01*
X160612885Y-90418262D01*
X160612885Y-90175405D01*
X160531933Y-90013500D01*
X159479552Y-87180167D02*
X160370028Y-87180167D01*
X160531933Y-87261120D01*
X160612885Y-87423024D01*
X160612885Y-87746834D01*
X160531933Y-87908739D01*
X159560504Y-87180167D02*
X159479552Y-87342072D01*
X159479552Y-87746834D01*
X159560504Y-87908739D01*
X159722409Y-87989691D01*
X159884314Y-87989691D01*
X160046219Y-87908739D01*
X160127171Y-87746834D01*
X160127171Y-87342072D01*
X160208123Y-87180167D01*
X160612885Y-86370643D02*
X159479552Y-86370643D01*
X160450980Y-86370643D02*
X160531933Y-86289691D01*
X160612885Y-86127786D01*
X160612885Y-85884929D01*
X160531933Y-85723024D01*
X160370028Y-85642072D01*
X159479552Y-85642072D01*
X159479552Y-84103977D02*
X161179552Y-84103977D01*
X159560504Y-84103977D02*
X159479552Y-84265881D01*
X159479552Y-84589691D01*
X159560504Y-84751596D01*
X159641457Y-84832548D01*
X159803361Y-84913500D01*
X160289076Y-84913500D01*
X160450980Y-84832548D01*
X160531933Y-84751596D01*
X160612885Y-84589691D01*
X160612885Y-84265881D01*
X160531933Y-84103977D01*
X159965266Y-82080167D02*
X159965266Y-81270643D01*
X159479552Y-82242072D02*
X161179552Y-81675405D01*
X159479552Y-81108739D01*
X160612885Y-79813500D02*
X159479552Y-79813500D01*
X160612885Y-80542072D02*
X159722409Y-80542072D01*
X159560504Y-80461120D01*
X159479552Y-80299215D01*
X159479552Y-80056358D01*
X159560504Y-79894453D01*
X159641457Y-79813500D01*
X160612885Y-79246834D02*
X160612885Y-78599215D01*
X161179552Y-79003977D02*
X159722409Y-79003977D01*
X159560504Y-78923024D01*
X159479552Y-78761120D01*
X159479552Y-78599215D01*
X159479552Y-77789691D02*
X159560504Y-77951596D01*
X159641457Y-78032548D01*
X159803361Y-78113500D01*
X160289076Y-78113500D01*
X160450980Y-78032548D01*
X160531933Y-77951596D01*
X160612885Y-77789691D01*
X160612885Y-77546834D01*
X160531933Y-77384929D01*
X160450980Y-77303977D01*
X160289076Y-77223024D01*
X159803361Y-77223024D01*
X159641457Y-77303977D01*
X159560504Y-77384929D01*
X159479552Y-77546834D01*
X159479552Y-77789691D01*
X159479552Y-76494453D02*
X160612885Y-76494453D01*
X160450980Y-76494453D02*
X160531933Y-76413500D01*
X160612885Y-76251596D01*
X160612885Y-76008739D01*
X160531933Y-75846834D01*
X160370028Y-75765881D01*
X159479552Y-75765881D01*
X160370028Y-75765881D02*
X160531933Y-75684929D01*
X160612885Y-75523024D01*
X160612885Y-75280167D01*
X160531933Y-75118262D01*
X160370028Y-75037310D01*
X159479552Y-75037310D01*
X159479552Y-73499215D02*
X160370028Y-73499215D01*
X160531933Y-73580167D01*
X160612885Y-73742072D01*
X160612885Y-74065881D01*
X160531933Y-74227786D01*
X159560504Y-73499215D02*
X159479552Y-73661120D01*
X159479552Y-74065881D01*
X159560504Y-74227786D01*
X159722409Y-74308739D01*
X159884314Y-74308739D01*
X160046219Y-74227786D01*
X160127171Y-74065881D01*
X160127171Y-73661120D01*
X160208123Y-73499215D01*
X160612885Y-72932548D02*
X160612885Y-72284929D01*
X161179552Y-72689691D02*
X159722409Y-72689691D01*
X159560504Y-72608739D01*
X159479552Y-72446834D01*
X159479552Y-72284929D01*
X159479552Y-71718262D02*
X160612885Y-71718262D01*
X161179552Y-71718262D02*
X161098600Y-71799215D01*
X161017647Y-71718262D01*
X161098600Y-71637310D01*
X161179552Y-71718262D01*
X161017647Y-71718262D01*
X159479552Y-70665881D02*
X159560504Y-70827786D01*
X159641457Y-70908739D01*
X159803361Y-70989691D01*
X160289076Y-70989691D01*
X160450980Y-70908739D01*
X160531933Y-70827786D01*
X160612885Y-70665881D01*
X160612885Y-70423024D01*
X160531933Y-70261120D01*
X160450980Y-70180167D01*
X160289076Y-70099215D01*
X159803361Y-70099215D01*
X159641457Y-70180167D01*
X159560504Y-70261120D01*
X159479552Y-70423024D01*
X159479552Y-70665881D01*
X160612885Y-69370643D02*
X159479552Y-69370643D01*
X160450980Y-69370643D02*
X160531933Y-69289691D01*
X160612885Y-69127786D01*
X160612885Y-68884929D01*
X160531933Y-68723024D01*
X160370028Y-68642072D01*
X159479552Y-68642072D01*
D11*
X168877070Y-124639525D02*
X170477070Y-124639525D01*
X170477070Y-124030001D01*
X170400880Y-123877620D01*
X170324689Y-123801430D01*
X170172308Y-123725240D01*
X169943737Y-123725240D01*
X169791356Y-123801430D01*
X169715165Y-123877620D01*
X169638975Y-124030001D01*
X169638975Y-124639525D01*
X168877070Y-122810954D02*
X168953260Y-122963335D01*
X169029451Y-123039525D01*
X169181832Y-123115716D01*
X169638975Y-123115716D01*
X169791356Y-123039525D01*
X169867546Y-122963335D01*
X169943737Y-122810954D01*
X169943737Y-122582382D01*
X169867546Y-122430001D01*
X169791356Y-122353811D01*
X169638975Y-122277620D01*
X169181832Y-122277620D01*
X169029451Y-122353811D01*
X168953260Y-122430001D01*
X168877070Y-122582382D01*
X168877070Y-122810954D01*
X169943737Y-121744287D02*
X168877070Y-121439525D01*
X169638975Y-121134763D01*
X168877070Y-120830001D01*
X169943737Y-120525240D01*
X168953260Y-119306192D02*
X168877070Y-119458573D01*
X168877070Y-119763335D01*
X168953260Y-119915716D01*
X169105641Y-119991906D01*
X169715165Y-119991906D01*
X169867546Y-119915716D01*
X169943737Y-119763335D01*
X169943737Y-119458573D01*
X169867546Y-119306192D01*
X169715165Y-119230001D01*
X169562784Y-119230001D01*
X169410403Y-119991906D01*
X168877070Y-118544287D02*
X169943737Y-118544287D01*
X169638975Y-118544287D02*
X169791356Y-118468097D01*
X169867546Y-118391906D01*
X169943737Y-118239525D01*
X169943737Y-118087144D01*
X168953260Y-116944287D02*
X168877070Y-117096668D01*
X168877070Y-117401430D01*
X168953260Y-117553811D01*
X169105641Y-117630001D01*
X169715165Y-117630001D01*
X169867546Y-117553811D01*
X169943737Y-117401430D01*
X169943737Y-117096668D01*
X169867546Y-116944287D01*
X169715165Y-116868097D01*
X169562784Y-116868097D01*
X169410403Y-117630001D01*
X168877070Y-115496668D02*
X170477070Y-115496668D01*
X168953260Y-115496668D02*
X168877070Y-115649049D01*
X168877070Y-115953811D01*
X168953260Y-116106192D01*
X169029451Y-116182382D01*
X169181832Y-116258573D01*
X169638975Y-116258573D01*
X169791356Y-116182382D01*
X169867546Y-116106192D01*
X169943737Y-115953811D01*
X169943737Y-115649049D01*
X169867546Y-115496668D01*
X168877070Y-113515716D02*
X170477070Y-113515716D01*
X169867546Y-113515716D02*
X169943737Y-113363335D01*
X169943737Y-113058573D01*
X169867546Y-112906192D01*
X169791356Y-112830001D01*
X169638975Y-112753811D01*
X169181832Y-112753811D01*
X169029451Y-112830001D01*
X168953260Y-112906192D01*
X168877070Y-113058573D01*
X168877070Y-113363335D01*
X168953260Y-113515716D01*
X169943737Y-112220478D02*
X168877070Y-111839525D01*
X169943737Y-111458573D02*
X168877070Y-111839525D01*
X168496118Y-111991906D01*
X168419927Y-112068097D01*
X168343737Y-112220478D01*
D12*
X145373055Y-111821664D02*
X150373055Y-111821664D01*
X146801626Y-110154998D01*
X150373055Y-108488331D01*
X145373055Y-108488331D01*
X146801626Y-106345474D02*
X146801626Y-103964521D01*
X145373055Y-106821664D02*
X150373055Y-105154998D01*
X145373055Y-103488331D01*
X150373055Y-102297855D02*
X150373055Y-98964521D01*
X145373055Y-102297855D01*
X145373055Y-98964521D01*
X147992102Y-97059760D02*
X147992102Y-95393093D01*
X145373055Y-94678807D02*
X145373055Y-97059760D01*
X150373055Y-97059760D01*
X150373055Y-94678807D01*
X147992102Y-90869283D02*
X147754007Y-90154998D01*
X147515912Y-89916902D01*
X147039721Y-89678807D01*
X146325436Y-89678807D01*
X145849245Y-89916902D01*
X145611150Y-90154998D01*
X145373055Y-90631188D01*
X145373055Y-92535950D01*
X150373055Y-92535950D01*
X150373055Y-90869283D01*
X150134960Y-90393093D01*
X149896864Y-90154998D01*
X149420674Y-89916902D01*
X148944483Y-89916902D01*
X148468293Y-90154998D01*
X148230198Y-90393093D01*
X147992102Y-90869283D01*
X147992102Y-92535950D01*
X145373055Y-85154998D02*
X145373055Y-87535950D01*
X150373055Y-87535950D01*
X146801626Y-83726426D02*
X146801626Y-81345474D01*
X145373055Y-84202617D02*
X150373055Y-82535950D01*
X145373055Y-80869283D01*
X150373055Y-79678807D02*
X150373055Y-76345474D01*
X145373055Y-79678807D01*
X145373055Y-76345474D01*
X147992102Y-74440712D02*
X147992102Y-72774045D01*
X145373055Y-72059759D02*
X145373055Y-74440712D01*
X150373055Y-74440712D01*
X150373055Y-72059759D01*
D13*
X131787804Y-69819900D02*
X131883042Y-69772280D01*
X132025900Y-69772280D01*
X132168757Y-69819900D01*
X132263995Y-69915138D01*
X132311614Y-70010376D01*
X132359233Y-70200852D01*
X132359233Y-70343709D01*
X132311614Y-70534185D01*
X132263995Y-70629423D01*
X132168757Y-70724661D01*
X132025900Y-70772280D01*
X131930661Y-70772280D01*
X131787804Y-70724661D01*
X131740185Y-70677042D01*
X131740185Y-70343709D01*
X131930661Y-70343709D01*
X131311614Y-70772280D02*
X131311614Y-69772280D01*
X130740185Y-70772280D01*
X130740185Y-69772280D01*
X130263995Y-70772280D02*
X130263995Y-69772280D01*
X130025900Y-69772280D01*
X129883042Y-69819900D01*
X129787804Y-69915138D01*
X129740185Y-70010376D01*
X129692566Y-70200852D01*
X129692566Y-70343709D01*
X129740185Y-70534185D01*
X129787804Y-70629423D01*
X129883042Y-70724661D01*
X130025900Y-70772280D01*
X130263995Y-70772280D01*
X132105304Y-72458319D02*
X132057685Y-72410700D01*
X131962447Y-72363080D01*
X131724352Y-72363080D01*
X131629114Y-72410700D01*
X131581495Y-72458319D01*
X131533876Y-72553557D01*
X131533876Y-72648795D01*
X131581495Y-72791652D01*
X132152923Y-73363080D01*
X131533876Y-73363080D01*
X131200542Y-72363080D02*
X130581495Y-72363080D01*
X130914828Y-72744033D01*
X130771971Y-72744033D01*
X130676733Y-72791652D01*
X130629114Y-72839271D01*
X130581495Y-72934509D01*
X130581495Y-73172604D01*
X130629114Y-73267842D01*
X130676733Y-73315461D01*
X130771971Y-73363080D01*
X131057685Y-73363080D01*
X131152923Y-73315461D01*
X131200542Y-73267842D01*
X132118004Y-74947519D02*
X132070385Y-74899900D01*
X131975147Y-74852280D01*
X131737052Y-74852280D01*
X131641814Y-74899900D01*
X131594195Y-74947519D01*
X131546576Y-75042757D01*
X131546576Y-75137995D01*
X131594195Y-75280852D01*
X132165623Y-75852280D01*
X131546576Y-75852280D01*
X131165623Y-74947519D02*
X131118004Y-74899900D01*
X131022766Y-74852280D01*
X130784671Y-74852280D01*
X130689433Y-74899900D01*
X130641814Y-74947519D01*
X130594195Y-75042757D01*
X130594195Y-75137995D01*
X130641814Y-75280852D01*
X131213242Y-75852280D01*
X130594195Y-75852280D01*
X132156104Y-77620880D02*
X131584676Y-77620880D01*
X131870390Y-78620880D02*
X131870390Y-77620880D01*
X131346580Y-77620880D02*
X130679914Y-78620880D01*
X130679914Y-77620880D02*
X131346580Y-78620880D01*
X131497366Y-80932280D02*
X131830700Y-80456090D01*
X132068795Y-80932280D02*
X132068795Y-79932280D01*
X131687842Y-79932280D01*
X131592604Y-79979900D01*
X131544985Y-80027519D01*
X131497366Y-80122757D01*
X131497366Y-80265614D01*
X131544985Y-80360852D01*
X131592604Y-80408471D01*
X131687842Y-80456090D01*
X132068795Y-80456090D01*
X131164033Y-79932280D02*
X130497366Y-80932280D01*
X130497366Y-79932280D02*
X131164033Y-80932280D01*
X132118004Y-82453219D02*
X132070385Y-82405600D01*
X131975147Y-82357980D01*
X131737052Y-82357980D01*
X131641814Y-82405600D01*
X131594195Y-82453219D01*
X131546576Y-82548457D01*
X131546576Y-82643695D01*
X131594195Y-82786552D01*
X132165623Y-83357980D01*
X131546576Y-83357980D01*
X130594195Y-83357980D02*
X131165623Y-83357980D01*
X130879909Y-83357980D02*
X130879909Y-82357980D01*
X130975147Y-82500838D01*
X131070385Y-82596076D01*
X131165623Y-82643695D01*
X131800504Y-85174200D02*
X131895742Y-85126580D01*
X132038600Y-85126580D01*
X132181457Y-85174200D01*
X132276695Y-85269438D01*
X132324314Y-85364676D01*
X132371933Y-85555152D01*
X132371933Y-85698009D01*
X132324314Y-85888485D01*
X132276695Y-85983723D01*
X132181457Y-86078961D01*
X132038600Y-86126580D01*
X131943361Y-86126580D01*
X131800504Y-86078961D01*
X131752885Y-86031342D01*
X131752885Y-85698009D01*
X131943361Y-85698009D01*
X131324314Y-86126580D02*
X131324314Y-85126580D01*
X130752885Y-86126580D01*
X130752885Y-85126580D01*
X130276695Y-86126580D02*
X130276695Y-85126580D01*
X130038600Y-85126580D01*
X129895742Y-85174200D01*
X129800504Y-85269438D01*
X129752885Y-85364676D01*
X129705266Y-85555152D01*
X129705266Y-85698009D01*
X129752885Y-85888485D01*
X129800504Y-85983723D01*
X129895742Y-86078961D01*
X130038600Y-86126580D01*
X130276695Y-86126580D01*
X131584676Y-88526880D02*
X132156104Y-88526880D01*
X131870390Y-88526880D02*
X131870390Y-87526880D01*
X131965628Y-87669738D01*
X132060866Y-87764976D01*
X132156104Y-87812595D01*
X131108485Y-88526880D02*
X130918009Y-88526880D01*
X130822771Y-88479261D01*
X130775152Y-88431642D01*
X130679914Y-88288785D01*
X130632295Y-88098309D01*
X130632295Y-87717357D01*
X130679914Y-87622119D01*
X130727533Y-87574500D01*
X130822771Y-87526880D01*
X131013247Y-87526880D01*
X131108485Y-87574500D01*
X131156104Y-87622119D01*
X131203723Y-87717357D01*
X131203723Y-87955452D01*
X131156104Y-88050690D01*
X131108485Y-88098309D01*
X131013247Y-88145928D01*
X130822771Y-88145928D01*
X130727533Y-88098309D01*
X130679914Y-88050690D01*
X130632295Y-87955452D01*
X131444976Y-91092280D02*
X132016404Y-91092280D01*
X131730690Y-91092280D02*
X131730690Y-90092280D01*
X131825928Y-90235138D01*
X131921166Y-90330376D01*
X132016404Y-90377995D01*
X130873547Y-90520852D02*
X130968785Y-90473233D01*
X131016404Y-90425614D01*
X131064023Y-90330376D01*
X131064023Y-90282757D01*
X131016404Y-90187519D01*
X130968785Y-90139900D01*
X130873547Y-90092280D01*
X130683071Y-90092280D01*
X130587833Y-90139900D01*
X130540214Y-90187519D01*
X130492595Y-90282757D01*
X130492595Y-90330376D01*
X130540214Y-90425614D01*
X130587833Y-90473233D01*
X130683071Y-90520852D01*
X130873547Y-90520852D01*
X130968785Y-90568471D01*
X131016404Y-90616090D01*
X131064023Y-90711328D01*
X131064023Y-90901804D01*
X131016404Y-90997042D01*
X130968785Y-91044661D01*
X130873547Y-91092280D01*
X130683071Y-91092280D01*
X130587833Y-91044661D01*
X130540214Y-90997042D01*
X130492595Y-90901804D01*
X130492595Y-90711328D01*
X130540214Y-90616090D01*
X130587833Y-90568471D01*
X130683071Y-90520852D01*
X131422804Y-92797380D02*
X131898995Y-92797380D01*
X131946614Y-93273571D01*
X131898995Y-93225952D01*
X131803757Y-93178333D01*
X131565661Y-93178333D01*
X131470423Y-93225952D01*
X131422804Y-93273571D01*
X131375185Y-93368809D01*
X131375185Y-93606904D01*
X131422804Y-93702142D01*
X131470423Y-93749761D01*
X131565661Y-93797380D01*
X131803757Y-93797380D01*
X131898995Y-93749761D01*
X131946614Y-93702142D01*
X131444976Y-96324680D02*
X132016404Y-96324680D01*
X131730690Y-96324680D02*
X131730690Y-95324680D01*
X131825928Y-95467538D01*
X131921166Y-95562776D01*
X132016404Y-95610395D01*
X131111642Y-95324680D02*
X130444976Y-95324680D01*
X130873547Y-96324680D01*
X131444976Y-98623380D02*
X132016404Y-98623380D01*
X131730690Y-98623380D02*
X131730690Y-97623380D01*
X131825928Y-97766238D01*
X131921166Y-97861476D01*
X132016404Y-97909095D01*
X130587833Y-97623380D02*
X130778309Y-97623380D01*
X130873547Y-97671000D01*
X130921166Y-97718619D01*
X131016404Y-97861476D01*
X131064023Y-98051952D01*
X131064023Y-98432904D01*
X131016404Y-98528142D01*
X130968785Y-98575761D01*
X130873547Y-98623380D01*
X130683071Y-98623380D01*
X130587833Y-98575761D01*
X130540214Y-98528142D01*
X130492595Y-98432904D01*
X130492595Y-98194809D01*
X130540214Y-98099571D01*
X130587833Y-98051952D01*
X130683071Y-98004333D01*
X130873547Y-98004333D01*
X130968785Y-98051952D01*
X131016404Y-98099571D01*
X131064023Y-98194809D01*
X131533923Y-100661814D02*
X131533923Y-101328480D01*
X131772019Y-100280861D02*
X132010114Y-100995147D01*
X131391066Y-100995147D01*
X131810119Y-102766880D02*
X131714880Y-102766880D01*
X131619642Y-102814500D01*
X131572023Y-102862119D01*
X131524404Y-102957357D01*
X131476785Y-103147833D01*
X131476785Y-103385928D01*
X131524404Y-103576404D01*
X131572023Y-103671642D01*
X131619642Y-103719261D01*
X131714880Y-103766880D01*
X131810119Y-103766880D01*
X131905357Y-103719261D01*
X131952976Y-103671642D01*
X132000595Y-103576404D01*
X132048214Y-103385928D01*
X132048214Y-103147833D01*
X132000595Y-102957357D01*
X131952976Y-102862119D01*
X131905357Y-102814500D01*
X131810119Y-102766880D01*
X131870414Y-105605319D02*
X131822795Y-105557700D01*
X131727557Y-105510080D01*
X131489461Y-105510080D01*
X131394223Y-105557700D01*
X131346604Y-105605319D01*
X131298985Y-105700557D01*
X131298985Y-105795795D01*
X131346604Y-105938652D01*
X131918033Y-106510080D01*
X131298985Y-106510080D01*
X131559276Y-108948480D02*
X132130704Y-108948480D01*
X131844990Y-108948480D02*
X131844990Y-107948480D01*
X131940228Y-108091338D01*
X132035466Y-108186576D01*
X132130704Y-108234195D01*
X130654514Y-107948480D02*
X131130704Y-107948480D01*
X131178323Y-108424671D01*
X131130704Y-108377052D01*
X131035466Y-108329433D01*
X130797371Y-108329433D01*
X130702133Y-108377052D01*
X130654514Y-108424671D01*
X130606895Y-108519909D01*
X130606895Y-108758004D01*
X130654514Y-108853242D01*
X130702133Y-108900861D01*
X130797371Y-108948480D01*
X131035466Y-108948480D01*
X131130704Y-108900861D01*
X131178323Y-108853242D01*
X131878295Y-111475780D02*
X131878295Y-110475780D01*
X131640200Y-110475780D01*
X131497342Y-110523400D01*
X131402104Y-110618638D01*
X131354485Y-110713876D01*
X131306866Y-110904352D01*
X131306866Y-111047209D01*
X131354485Y-111237685D01*
X131402104Y-111332923D01*
X131497342Y-111428161D01*
X131640200Y-111475780D01*
X131878295Y-111475780D01*
X130354485Y-111475780D02*
X130925914Y-111475780D01*
X130640200Y-111475780D02*
X130640200Y-110475780D01*
X130735438Y-110618638D01*
X130830676Y-110713876D01*
X130925914Y-110761495D01*
X131967195Y-114180880D02*
X131967195Y-113180880D01*
X131729100Y-113180880D01*
X131586242Y-113228500D01*
X131491004Y-113323738D01*
X131443385Y-113418976D01*
X131395766Y-113609452D01*
X131395766Y-113752309D01*
X131443385Y-113942785D01*
X131491004Y-114038023D01*
X131586242Y-114133261D01*
X131729100Y-114180880D01*
X131967195Y-114180880D01*
X130776719Y-113180880D02*
X130681480Y-113180880D01*
X130586242Y-113228500D01*
X130538623Y-113276119D01*
X130491004Y-113371357D01*
X130443385Y-113561833D01*
X130443385Y-113799928D01*
X130491004Y-113990404D01*
X130538623Y-114085642D01*
X130586242Y-114133261D01*
X130681480Y-114180880D01*
X130776719Y-114180880D01*
X130871957Y-114133261D01*
X130919576Y-114085642D01*
X130967195Y-113990404D01*
X131014814Y-113799928D01*
X131014814Y-113561833D01*
X130967195Y-113371357D01*
X130919576Y-113276119D01*
X130871957Y-113228500D01*
X130776719Y-113180880D01*
X131392538Y-116562142D02*
X131440157Y-116609761D01*
X131583014Y-116657380D01*
X131678252Y-116657380D01*
X131821109Y-116609761D01*
X131916347Y-116514523D01*
X131963966Y-116419285D01*
X132011585Y-116228809D01*
X132011585Y-116085952D01*
X131963966Y-115895476D01*
X131916347Y-115800238D01*
X131821109Y-115705000D01*
X131678252Y-115657380D01*
X131583014Y-115657380D01*
X131440157Y-115705000D01*
X131392538Y-115752619D01*
X130487776Y-116657380D02*
X130963966Y-116657380D01*
X130963966Y-115657380D01*
X130154442Y-116657380D02*
X130154442Y-115657380D01*
X129583014Y-116657380D02*
X130011585Y-116085952D01*
X129583014Y-115657380D02*
X130154442Y-116228809D01*
X112410738Y-115530380D02*
X112077404Y-116530380D01*
X111744071Y-115530380D01*
X111410738Y-116530380D02*
X111410738Y-115530380D01*
X110934547Y-116530380D02*
X110934547Y-115530380D01*
X110363119Y-116530380D01*
X110363119Y-115530380D01*
X112267904Y-113844342D02*
X112315523Y-113891961D01*
X112458380Y-113939580D01*
X112553619Y-113939580D01*
X112696476Y-113891961D01*
X112791714Y-113796723D01*
X112839333Y-113701485D01*
X112886952Y-113511009D01*
X112886952Y-113368152D01*
X112839333Y-113177676D01*
X112791714Y-113082438D01*
X112696476Y-112987200D01*
X112553619Y-112939580D01*
X112458380Y-112939580D01*
X112315523Y-112987200D01*
X112267904Y-113034819D01*
X111839333Y-113939580D02*
X111839333Y-112939580D01*
X111506000Y-113653866D01*
X111172666Y-112939580D01*
X111172666Y-113939580D01*
X110696476Y-113939580D02*
X110696476Y-112939580D01*
X110458380Y-112939580D01*
X110315523Y-112987200D01*
X110220285Y-113082438D01*
X110172666Y-113177676D01*
X110125047Y-113368152D01*
X110125047Y-113511009D01*
X110172666Y-113701485D01*
X110220285Y-113796723D01*
X110315523Y-113891961D01*
X110458380Y-113939580D01*
X110696476Y-113939580D01*
X111736095Y-111463080D02*
X111736095Y-110463080D01*
X111498000Y-110463080D01*
X111355142Y-110510700D01*
X111259904Y-110605938D01*
X111212285Y-110701176D01*
X111164666Y-110891652D01*
X111164666Y-111034509D01*
X111212285Y-111224985D01*
X111259904Y-111320223D01*
X111355142Y-111415461D01*
X111498000Y-111463080D01*
X111736095Y-111463080D01*
X110831333Y-110463080D02*
X110212285Y-110463080D01*
X110545619Y-110844033D01*
X110402761Y-110844033D01*
X110307523Y-110891652D01*
X110259904Y-110939271D01*
X110212285Y-111034509D01*
X110212285Y-111272604D01*
X110259904Y-111367842D01*
X110307523Y-111415461D01*
X110402761Y-111463080D01*
X110688476Y-111463080D01*
X110783714Y-111415461D01*
X110831333Y-111367842D01*
X111888495Y-108897680D02*
X111888495Y-107897680D01*
X111650400Y-107897680D01*
X111507542Y-107945300D01*
X111412304Y-108040538D01*
X111364685Y-108135776D01*
X111317066Y-108326252D01*
X111317066Y-108469109D01*
X111364685Y-108659585D01*
X111412304Y-108754823D01*
X111507542Y-108850061D01*
X111650400Y-108897680D01*
X111888495Y-108897680D01*
X110936114Y-107992919D02*
X110888495Y-107945300D01*
X110793257Y-107897680D01*
X110555161Y-107897680D01*
X110459923Y-107945300D01*
X110412304Y-107992919D01*
X110364685Y-108088157D01*
X110364685Y-108183395D01*
X110412304Y-108326252D01*
X110983733Y-108897680D01*
X110364685Y-108897680D01*
X111467876Y-106497380D02*
X112039304Y-106497380D01*
X111753590Y-106497380D02*
X111753590Y-105497380D01*
X111848828Y-105640238D01*
X111944066Y-105735476D01*
X112039304Y-105783095D01*
X111134542Y-105497380D02*
X110515495Y-105497380D01*
X110848828Y-105878333D01*
X110705971Y-105878333D01*
X110610733Y-105925952D01*
X110563114Y-105973571D01*
X110515495Y-106068809D01*
X110515495Y-106306904D01*
X110563114Y-106402142D01*
X110610733Y-106449761D01*
X110705971Y-106497380D01*
X110991685Y-106497380D01*
X111086923Y-106449761D01*
X111134542Y-106402142D01*
X112077404Y-102992300D02*
X112172642Y-102944680D01*
X112315500Y-102944680D01*
X112458357Y-102992300D01*
X112553595Y-103087538D01*
X112601214Y-103182776D01*
X112648833Y-103373252D01*
X112648833Y-103516109D01*
X112601214Y-103706585D01*
X112553595Y-103801823D01*
X112458357Y-103897061D01*
X112315500Y-103944680D01*
X112220261Y-103944680D01*
X112077404Y-103897061D01*
X112029785Y-103849442D01*
X112029785Y-103516109D01*
X112220261Y-103516109D01*
X111601214Y-103944680D02*
X111601214Y-102944680D01*
X111029785Y-103944680D01*
X111029785Y-102944680D01*
X110553595Y-103944680D02*
X110553595Y-102944680D01*
X110315500Y-102944680D01*
X110172642Y-102992300D01*
X110077404Y-103087538D01*
X110029785Y-103182776D01*
X109982166Y-103373252D01*
X109982166Y-103516109D01*
X110029785Y-103706585D01*
X110077404Y-103801823D01*
X110172642Y-103897061D01*
X110315500Y-103944680D01*
X110553595Y-103944680D01*
X111766242Y-77519280D02*
X111432909Y-78519280D01*
X111099576Y-77519280D01*
X110766242Y-78519280D02*
X110766242Y-77519280D01*
X110194814Y-78519280D01*
X110194814Y-77519280D01*
X111201176Y-101252280D02*
X111772604Y-101252280D01*
X111486890Y-101252280D02*
X111486890Y-100252280D01*
X111582128Y-100395138D01*
X111677366Y-100490376D01*
X111772604Y-100537995D01*
X110820223Y-100347519D02*
X110772604Y-100299900D01*
X110677366Y-100252280D01*
X110439271Y-100252280D01*
X110344033Y-100299900D01*
X110296414Y-100347519D01*
X110248795Y-100442757D01*
X110248795Y-100537995D01*
X110296414Y-100680852D01*
X110867842Y-101252280D01*
X110248795Y-101252280D01*
X111201176Y-98585280D02*
X111772604Y-98585280D01*
X111486890Y-98585280D02*
X111486890Y-97585280D01*
X111582128Y-97728138D01*
X111677366Y-97823376D01*
X111772604Y-97870995D01*
X110344033Y-97918614D02*
X110344033Y-98585280D01*
X110582128Y-97537661D02*
X110820223Y-98251947D01*
X110201176Y-98251947D01*
X111721804Y-95369119D02*
X111674185Y-95321500D01*
X111578947Y-95273880D01*
X111340852Y-95273880D01*
X111245614Y-95321500D01*
X111197995Y-95369119D01*
X111150376Y-95464357D01*
X111150376Y-95559595D01*
X111197995Y-95702452D01*
X111769423Y-96273880D01*
X111150376Y-96273880D01*
X110817042Y-95273880D02*
X110150376Y-95273880D01*
X110578947Y-96273880D01*
X111721804Y-92625919D02*
X111674185Y-92578300D01*
X111578947Y-92530680D01*
X111340852Y-92530680D01*
X111245614Y-92578300D01*
X111197995Y-92625919D01*
X111150376Y-92721157D01*
X111150376Y-92816395D01*
X111197995Y-92959252D01*
X111769423Y-93530680D01*
X111150376Y-93530680D01*
X110293233Y-92530680D02*
X110483709Y-92530680D01*
X110578947Y-92578300D01*
X110626566Y-92625919D01*
X110721804Y-92768776D01*
X110769423Y-92959252D01*
X110769423Y-93340204D01*
X110721804Y-93435442D01*
X110674185Y-93483061D01*
X110578947Y-93530680D01*
X110388471Y-93530680D01*
X110293233Y-93483061D01*
X110245614Y-93435442D01*
X110197995Y-93340204D01*
X110197995Y-93102109D01*
X110245614Y-93006871D01*
X110293233Y-92959252D01*
X110388471Y-92911633D01*
X110578947Y-92911633D01*
X110674185Y-92959252D01*
X110721804Y-93006871D01*
X110769423Y-93102109D01*
X111785304Y-90162119D02*
X111737685Y-90114500D01*
X111642447Y-90066880D01*
X111404352Y-90066880D01*
X111309114Y-90114500D01*
X111261495Y-90162119D01*
X111213876Y-90257357D01*
X111213876Y-90352595D01*
X111261495Y-90495452D01*
X111832923Y-91066880D01*
X111213876Y-91066880D01*
X110309114Y-90066880D02*
X110785304Y-90066880D01*
X110832923Y-90543071D01*
X110785304Y-90495452D01*
X110690066Y-90447833D01*
X110451971Y-90447833D01*
X110356733Y-90495452D01*
X110309114Y-90543071D01*
X110261495Y-90638309D01*
X110261495Y-90876404D01*
X110309114Y-90971642D01*
X110356733Y-91019261D01*
X110451971Y-91066880D01*
X110690066Y-91066880D01*
X110785304Y-91019261D01*
X110832923Y-90971642D01*
X111807523Y-87488780D02*
X111188476Y-87488780D01*
X111521809Y-87869733D01*
X111378952Y-87869733D01*
X111283714Y-87917352D01*
X111236095Y-87964971D01*
X111188476Y-88060209D01*
X111188476Y-88298304D01*
X111236095Y-88393542D01*
X111283714Y-88441161D01*
X111378952Y-88488780D01*
X111664666Y-88488780D01*
X111759904Y-88441161D01*
X111807523Y-88393542D01*
X110855142Y-87488780D02*
X110236095Y-87488780D01*
X110569428Y-87869733D01*
X110426571Y-87869733D01*
X110331333Y-87917352D01*
X110283714Y-87964971D01*
X110236095Y-88060209D01*
X110236095Y-88298304D01*
X110283714Y-88393542D01*
X110331333Y-88441161D01*
X110426571Y-88488780D01*
X110712285Y-88488780D01*
X110807523Y-88441161D01*
X110855142Y-88393542D01*
X111820223Y-84974180D02*
X111201176Y-84974180D01*
X111534509Y-85355133D01*
X111391652Y-85355133D01*
X111296414Y-85402752D01*
X111248795Y-85450371D01*
X111201176Y-85545609D01*
X111201176Y-85783704D01*
X111248795Y-85878942D01*
X111296414Y-85926561D01*
X111391652Y-85974180D01*
X111677366Y-85974180D01*
X111772604Y-85926561D01*
X111820223Y-85878942D01*
X110820223Y-85069419D02*
X110772604Y-85021800D01*
X110677366Y-84974180D01*
X110439271Y-84974180D01*
X110344033Y-85021800D01*
X110296414Y-85069419D01*
X110248795Y-85164657D01*
X110248795Y-85259895D01*
X110296414Y-85402752D01*
X110867842Y-85974180D01*
X110248795Y-85974180D01*
X111782123Y-82535780D02*
X111163076Y-82535780D01*
X111496409Y-82916733D01*
X111353552Y-82916733D01*
X111258314Y-82964352D01*
X111210695Y-83011971D01*
X111163076Y-83107209D01*
X111163076Y-83345304D01*
X111210695Y-83440542D01*
X111258314Y-83488161D01*
X111353552Y-83535780D01*
X111639266Y-83535780D01*
X111734504Y-83488161D01*
X111782123Y-83440542D01*
X110258314Y-82535780D02*
X110734504Y-82535780D01*
X110782123Y-83011971D01*
X110734504Y-82964352D01*
X110639266Y-82916733D01*
X110401171Y-82916733D01*
X110305933Y-82964352D01*
X110258314Y-83011971D01*
X110210695Y-83107209D01*
X110210695Y-83345304D01*
X110258314Y-83440542D01*
X110305933Y-83488161D01*
X110401171Y-83535780D01*
X110639266Y-83535780D01*
X110734504Y-83488161D01*
X110782123Y-83440542D01*
X111845623Y-80033880D02*
X111226576Y-80033880D01*
X111559909Y-80414833D01*
X111417052Y-80414833D01*
X111321814Y-80462452D01*
X111274195Y-80510071D01*
X111226576Y-80605309D01*
X111226576Y-80843404D01*
X111274195Y-80938642D01*
X111321814Y-80986261D01*
X111417052Y-81033880D01*
X111702766Y-81033880D01*
X111798004Y-80986261D01*
X111845623Y-80938642D01*
X110369433Y-80367214D02*
X110369433Y-81033880D01*
X110607528Y-79986261D02*
X110845623Y-80700547D01*
X110226576Y-80700547D01*
X111704333Y-74941180D02*
X111371000Y-75941180D01*
X111037666Y-74941180D01*
X110704333Y-75941180D02*
X110704333Y-74941180D01*
X110323380Y-74941180D01*
X110228142Y-74988800D01*
X110180523Y-75036419D01*
X110132904Y-75131657D01*
X110132904Y-75274514D01*
X110180523Y-75369752D01*
X110228142Y-75417371D01*
X110323380Y-75464990D01*
X110704333Y-75464990D01*
X111824995Y-72915471D02*
X111491661Y-72915471D01*
X111348804Y-73439280D02*
X111824995Y-73439280D01*
X111824995Y-72439280D01*
X111348804Y-72439280D01*
X110920233Y-73439280D02*
X110920233Y-72439280D01*
X110348804Y-73439280D01*
X110348804Y-72439280D01*
X112744095Y-69899280D02*
X112125047Y-69899280D01*
X112458380Y-70280233D01*
X112315523Y-70280233D01*
X112220285Y-70327852D01*
X112172666Y-70375471D01*
X112125047Y-70470709D01*
X112125047Y-70708804D01*
X112172666Y-70804042D01*
X112220285Y-70851661D01*
X112315523Y-70899280D01*
X112601238Y-70899280D01*
X112696476Y-70851661D01*
X112744095Y-70804042D01*
X111839333Y-69899280D02*
X111506000Y-70899280D01*
X111172666Y-69899280D01*
X110934571Y-69899280D02*
X110315523Y-69899280D01*
X110648857Y-70280233D01*
X110506000Y-70280233D01*
X110410761Y-70327852D01*
X110363142Y-70375471D01*
X110315523Y-70470709D01*
X110315523Y-70708804D01*
X110363142Y-70804042D01*
X110410761Y-70851661D01*
X110506000Y-70899280D01*
X110791714Y-70899280D01*
X110886952Y-70851661D01*
X110934571Y-70804042D01*
D10*
X159621464Y-114461120D02*
X159540512Y-114218262D01*
X159540512Y-113813500D01*
X159621464Y-113651596D01*
X159702417Y-113570643D01*
X159864321Y-113489691D01*
X160026226Y-113489691D01*
X160188131Y-113570643D01*
X160269083Y-113651596D01*
X160350036Y-113813500D01*
X160430988Y-114137310D01*
X160511940Y-114299215D01*
X160592893Y-114380167D01*
X160754798Y-114461120D01*
X160916702Y-114461120D01*
X161078607Y-114380167D01*
X161159560Y-114299215D01*
X161240512Y-114137310D01*
X161240512Y-113732548D01*
X161159560Y-113489691D01*
X159540512Y-112518262D02*
X159621464Y-112680167D01*
X159702417Y-112761120D01*
X159864321Y-112842072D01*
X160350036Y-112842072D01*
X160511940Y-112761120D01*
X160592893Y-112680167D01*
X160673845Y-112518262D01*
X160673845Y-112275405D01*
X160592893Y-112113500D01*
X160511940Y-112032548D01*
X160350036Y-111951596D01*
X159864321Y-111951596D01*
X159702417Y-112032548D01*
X159621464Y-112113500D01*
X159540512Y-112275405D01*
X159540512Y-112518262D01*
X159621464Y-110494453D02*
X159540512Y-110656358D01*
X159540512Y-110980167D01*
X159621464Y-111142072D01*
X159702417Y-111223024D01*
X159864321Y-111303977D01*
X160350036Y-111303977D01*
X160511940Y-111223024D01*
X160592893Y-111142072D01*
X160673845Y-110980167D01*
X160673845Y-110656358D01*
X160592893Y-110494453D01*
X159540512Y-109765881D02*
X160673845Y-109765881D01*
X161240512Y-109765881D02*
X161159560Y-109846834D01*
X161078607Y-109765881D01*
X161159560Y-109684929D01*
X161240512Y-109765881D01*
X161078607Y-109765881D01*
X159621464Y-108308739D02*
X159540512Y-108470643D01*
X159540512Y-108794453D01*
X159621464Y-108956358D01*
X159783369Y-109037310D01*
X160430988Y-109037310D01*
X160592893Y-108956358D01*
X160673845Y-108794453D01*
X160673845Y-108470643D01*
X160592893Y-108308739D01*
X160430988Y-108227786D01*
X160269083Y-108227786D01*
X160107179Y-109037310D01*
X160673845Y-107742072D02*
X160673845Y-107094453D01*
X161240512Y-107499215D02*
X159783369Y-107499215D01*
X159621464Y-107418262D01*
X159540512Y-107256358D01*
X159540512Y-107094453D01*
X160673845Y-106689691D02*
X159540512Y-106284929D01*
X160673845Y-105880167D02*
X159540512Y-106284929D01*
X159135750Y-106446834D01*
X159054798Y-106527786D01*
X158973845Y-106689691D01*
X159540512Y-103694453D02*
X159621464Y-103856358D01*
X159702417Y-103937310D01*
X159864321Y-104018262D01*
X160350036Y-104018262D01*
X160511940Y-103937310D01*
X160592893Y-103856358D01*
X160673845Y-103694453D01*
X160673845Y-103451596D01*
X160592893Y-103289691D01*
X160511940Y-103208739D01*
X160350036Y-103127786D01*
X159864321Y-103127786D01*
X159702417Y-103208739D01*
X159621464Y-103289691D01*
X159540512Y-103451596D01*
X159540512Y-103694453D01*
X160673845Y-102642072D02*
X160673845Y-101994453D01*
X159540512Y-102399215D02*
X160997655Y-102399215D01*
X161159560Y-102318262D01*
X161240512Y-102156358D01*
X161240512Y-101994453D01*
X159540512Y-99161120D02*
X160350036Y-99727786D01*
X159540512Y-100132548D02*
X161240512Y-100132548D01*
X161240512Y-99484929D01*
X161159560Y-99323024D01*
X161078607Y-99242072D01*
X160916702Y-99161120D01*
X160673845Y-99161120D01*
X160511940Y-99242072D01*
X160430988Y-99323024D01*
X160350036Y-99484929D01*
X160350036Y-100132548D01*
X159540512Y-98189691D02*
X159621464Y-98351596D01*
X159702417Y-98432548D01*
X159864321Y-98513500D01*
X160350036Y-98513500D01*
X160511940Y-98432548D01*
X160592893Y-98351596D01*
X160673845Y-98189691D01*
X160673845Y-97946834D01*
X160592893Y-97784929D01*
X160511940Y-97703977D01*
X160350036Y-97623024D01*
X159864321Y-97623024D01*
X159702417Y-97703977D01*
X159621464Y-97784929D01*
X159540512Y-97946834D01*
X159540512Y-98189691D01*
X159540512Y-96894453D02*
X161240512Y-96894453D01*
X160592893Y-96894453D02*
X160673845Y-96732548D01*
X160673845Y-96408739D01*
X160592893Y-96246834D01*
X160511940Y-96165881D01*
X160350036Y-96084929D01*
X159864321Y-96084929D01*
X159702417Y-96165881D01*
X159621464Y-96246834D01*
X159540512Y-96408739D01*
X159540512Y-96732548D01*
X159621464Y-96894453D01*
X159540512Y-95113500D02*
X159621464Y-95275405D01*
X159702417Y-95356358D01*
X159864321Y-95437310D01*
X160350036Y-95437310D01*
X160511940Y-95356358D01*
X160592893Y-95275405D01*
X160673845Y-95113500D01*
X160673845Y-94870643D01*
X160592893Y-94708739D01*
X160511940Y-94627786D01*
X160350036Y-94546834D01*
X159864321Y-94546834D01*
X159702417Y-94627786D01*
X159621464Y-94708739D01*
X159540512Y-94870643D01*
X159540512Y-95113500D01*
X160673845Y-94061120D02*
X160673845Y-93413500D01*
X161240512Y-93818262D02*
X159783369Y-93818262D01*
X159621464Y-93737310D01*
X159540512Y-93575405D01*
X159540512Y-93413500D01*
X159540512Y-92846834D02*
X160673845Y-92846834D01*
X161240512Y-92846834D02*
X161159560Y-92927786D01*
X161078607Y-92846834D01*
X161159560Y-92765881D01*
X161240512Y-92846834D01*
X161078607Y-92846834D01*
X159621464Y-91308739D02*
X159540512Y-91470643D01*
X159540512Y-91794453D01*
X159621464Y-91956358D01*
X159702417Y-92037310D01*
X159864321Y-92118262D01*
X160350036Y-92118262D01*
X160511940Y-92037310D01*
X160592893Y-91956358D01*
X160673845Y-91794453D01*
X160673845Y-91470643D01*
X160592893Y-91308739D01*
X159621464Y-90661120D02*
X159540512Y-90499215D01*
X159540512Y-90175405D01*
X159621464Y-90013500D01*
X159783369Y-89932548D01*
X159864321Y-89932548D01*
X160026226Y-90013500D01*
X160107179Y-90175405D01*
X160107179Y-90418262D01*
X160188131Y-90580167D01*
X160350036Y-90661120D01*
X160430988Y-90661120D01*
X160592893Y-90580167D01*
X160673845Y-90418262D01*
X160673845Y-90175405D01*
X160592893Y-90013500D01*
X159540512Y-87180167D02*
X160430988Y-87180167D01*
X160592893Y-87261120D01*
X160673845Y-87423024D01*
X160673845Y-87746834D01*
X160592893Y-87908739D01*
X159621464Y-87180167D02*
X159540512Y-87342072D01*
X159540512Y-87746834D01*
X159621464Y-87908739D01*
X159783369Y-87989691D01*
X159945274Y-87989691D01*
X160107179Y-87908739D01*
X160188131Y-87746834D01*
X160188131Y-87342072D01*
X160269083Y-87180167D01*
X160673845Y-86370643D02*
X159540512Y-86370643D01*
X160511940Y-86370643D02*
X160592893Y-86289691D01*
X160673845Y-86127786D01*
X160673845Y-85884929D01*
X160592893Y-85723024D01*
X160430988Y-85642072D01*
X159540512Y-85642072D01*
X159540512Y-84103977D02*
X161240512Y-84103977D01*
X159621464Y-84103977D02*
X159540512Y-84265881D01*
X159540512Y-84589691D01*
X159621464Y-84751596D01*
X159702417Y-84832548D01*
X159864321Y-84913500D01*
X160350036Y-84913500D01*
X160511940Y-84832548D01*
X160592893Y-84751596D01*
X160673845Y-84589691D01*
X160673845Y-84265881D01*
X160592893Y-84103977D01*
X160026226Y-82080167D02*
X160026226Y-81270643D01*
X159540512Y-82242072D02*
X161240512Y-81675405D01*
X159540512Y-81108739D01*
X160673845Y-79813500D02*
X159540512Y-79813500D01*
X160673845Y-80542072D02*
X159783369Y-80542072D01*
X159621464Y-80461120D01*
X159540512Y-80299215D01*
X159540512Y-80056358D01*
X159621464Y-79894453D01*
X159702417Y-79813500D01*
X160673845Y-79246834D02*
X160673845Y-78599215D01*
X161240512Y-79003977D02*
X159783369Y-79003977D01*
X159621464Y-78923024D01*
X159540512Y-78761120D01*
X159540512Y-78599215D01*
X159540512Y-77789691D02*
X159621464Y-77951596D01*
X159702417Y-78032548D01*
X159864321Y-78113500D01*
X160350036Y-78113500D01*
X160511940Y-78032548D01*
X160592893Y-77951596D01*
X160673845Y-77789691D01*
X160673845Y-77546834D01*
X160592893Y-77384929D01*
X160511940Y-77303977D01*
X160350036Y-77223024D01*
X159864321Y-77223024D01*
X159702417Y-77303977D01*
X159621464Y-77384929D01*
X159540512Y-77546834D01*
X159540512Y-77789691D01*
X159540512Y-76494453D02*
X160673845Y-76494453D01*
X160511940Y-76494453D02*
X160592893Y-76413500D01*
X160673845Y-76251596D01*
X160673845Y-76008739D01*
X160592893Y-75846834D01*
X160430988Y-75765881D01*
X159540512Y-75765881D01*
X160430988Y-75765881D02*
X160592893Y-75684929D01*
X160673845Y-75523024D01*
X160673845Y-75280167D01*
X160592893Y-75118262D01*
X160430988Y-75037310D01*
X159540512Y-75037310D01*
X159540512Y-73499215D02*
X160430988Y-73499215D01*
X160592893Y-73580167D01*
X160673845Y-73742072D01*
X160673845Y-74065881D01*
X160592893Y-74227786D01*
X159621464Y-73499215D02*
X159540512Y-73661120D01*
X159540512Y-74065881D01*
X159621464Y-74227786D01*
X159783369Y-74308739D01*
X159945274Y-74308739D01*
X160107179Y-74227786D01*
X160188131Y-74065881D01*
X160188131Y-73661120D01*
X160269083Y-73499215D01*
X160673845Y-72932548D02*
X160673845Y-72284929D01*
X161240512Y-72689691D02*
X159783369Y-72689691D01*
X159621464Y-72608739D01*
X159540512Y-72446834D01*
X159540512Y-72284929D01*
X159540512Y-71718262D02*
X160673845Y-71718262D01*
X161240512Y-71718262D02*
X161159560Y-71799215D01*
X161078607Y-71718262D01*
X161159560Y-71637310D01*
X161240512Y-71718262D01*
X161078607Y-71718262D01*
X159540512Y-70665881D02*
X159621464Y-70827786D01*
X159702417Y-70908739D01*
X159864321Y-70989691D01*
X160350036Y-70989691D01*
X160511940Y-70908739D01*
X160592893Y-70827786D01*
X160673845Y-70665881D01*
X160673845Y-70423024D01*
X160592893Y-70261120D01*
X160511940Y-70180167D01*
X160350036Y-70099215D01*
X159864321Y-70099215D01*
X159702417Y-70180167D01*
X159621464Y-70261120D01*
X159540512Y-70423024D01*
X159540512Y-70665881D01*
X160673845Y-69370643D02*
X159540512Y-69370643D01*
X160511940Y-69370643D02*
X160592893Y-69289691D01*
X160673845Y-69127786D01*
X160673845Y-68884929D01*
X160592893Y-68723024D01*
X160430988Y-68642072D01*
X159540512Y-68642072D01*
D13*
X124248242Y-111554057D02*
X124162528Y-111582628D01*
X124019671Y-111582628D01*
X123962528Y-111554057D01*
X123933957Y-111525485D01*
X123905385Y-111468342D01*
X123905385Y-111411200D01*
X123933957Y-111354057D01*
X123962528Y-111325485D01*
X124019671Y-111296914D01*
X124133957Y-111268342D01*
X124191100Y-111239771D01*
X124219671Y-111211200D01*
X124248242Y-111154057D01*
X124248242Y-111096914D01*
X124219671Y-111039771D01*
X124191100Y-111011200D01*
X124133957Y-110982628D01*
X123991100Y-110982628D01*
X123905385Y-111011200D01*
X123648242Y-111582628D02*
X123648242Y-110982628D01*
X123391100Y-111582628D02*
X123391100Y-111268342D01*
X123419671Y-111211200D01*
X123476814Y-111182628D01*
X123562528Y-111182628D01*
X123619671Y-111211200D01*
X123648242Y-111239771D01*
X123019671Y-111582628D02*
X123076814Y-111554057D01*
X123105385Y-111525485D01*
X123133957Y-111468342D01*
X123133957Y-111296914D01*
X123105385Y-111239771D01*
X123076814Y-111211200D01*
X123019671Y-111182628D01*
X122933957Y-111182628D01*
X122876814Y-111211200D01*
X122848242Y-111239771D01*
X122819671Y-111296914D01*
X122819671Y-111468342D01*
X122848242Y-111525485D01*
X122876814Y-111554057D01*
X122933957Y-111582628D01*
X123019671Y-111582628D01*
X122562528Y-111582628D02*
X122562528Y-111182628D01*
X122562528Y-111296914D02*
X122533957Y-111239771D01*
X122505385Y-111211200D01*
X122448242Y-111182628D01*
X122391100Y-111182628D01*
X122276814Y-111182628D02*
X122048242Y-111182628D01*
X122191100Y-110982628D02*
X122191100Y-111496914D01*
X122162528Y-111554057D01*
X122105385Y-111582628D01*
X122048242Y-111582628D01*
X121476814Y-111182628D02*
X121248242Y-111182628D01*
X121391100Y-110982628D02*
X121391100Y-111496914D01*
X121362528Y-111554057D01*
X121305385Y-111582628D01*
X121248242Y-111582628D01*
X120962528Y-111582628D02*
X121019671Y-111554057D01*
X121048242Y-111525485D01*
X121076814Y-111468342D01*
X121076814Y-111296914D01*
X121048242Y-111239771D01*
X121019671Y-111211200D01*
X120962528Y-111182628D01*
X120876814Y-111182628D01*
X120819671Y-111211200D01*
X120791100Y-111239771D01*
X120762528Y-111296914D01*
X120762528Y-111468342D01*
X120791100Y-111525485D01*
X120819671Y-111554057D01*
X120876814Y-111582628D01*
X120962528Y-111582628D01*
X120048242Y-111582628D02*
X120048242Y-110982628D01*
X119819671Y-110982628D01*
X119762528Y-111011200D01*
X119733957Y-111039771D01*
X119705385Y-111096914D01*
X119705385Y-111182628D01*
X119733957Y-111239771D01*
X119762528Y-111268342D01*
X119819671Y-111296914D01*
X120048242Y-111296914D01*
X119362528Y-111582628D02*
X119419671Y-111554057D01*
X119448242Y-111525485D01*
X119476814Y-111468342D01*
X119476814Y-111296914D01*
X119448242Y-111239771D01*
X119419671Y-111211200D01*
X119362528Y-111182628D01*
X119276814Y-111182628D01*
X119219671Y-111211200D01*
X119191100Y-111239771D01*
X119162528Y-111296914D01*
X119162528Y-111468342D01*
X119191100Y-111525485D01*
X119219671Y-111554057D01*
X119276814Y-111582628D01*
X119362528Y-111582628D01*
X118962528Y-111182628D02*
X118848242Y-111582628D01*
X118733957Y-111296914D01*
X118619671Y-111582628D01*
X118505385Y-111182628D01*
X118048242Y-111554057D02*
X118105385Y-111582628D01*
X118219671Y-111582628D01*
X118276814Y-111554057D01*
X118305385Y-111496914D01*
X118305385Y-111268342D01*
X118276814Y-111211200D01*
X118219671Y-111182628D01*
X118105385Y-111182628D01*
X118048242Y-111211200D01*
X118019671Y-111268342D01*
X118019671Y-111325485D01*
X118305385Y-111382628D01*
X117762528Y-111582628D02*
X117762528Y-111182628D01*
X117762528Y-111296914D02*
X117733957Y-111239771D01*
X117705385Y-111211200D01*
X117648242Y-111182628D01*
X117591100Y-111182628D01*
X116933957Y-111268342D02*
X116733957Y-111268342D01*
X116648242Y-111582628D02*
X116933957Y-111582628D01*
X116933957Y-110982628D01*
X116648242Y-110982628D01*
X116419671Y-111554057D02*
X116333957Y-111582628D01*
X116191100Y-111582628D01*
X116133957Y-111554057D01*
X116105385Y-111525485D01*
X116076814Y-111468342D01*
X116076814Y-111411200D01*
X116105385Y-111354057D01*
X116133957Y-111325485D01*
X116191100Y-111296914D01*
X116305385Y-111268342D01*
X116362528Y-111239771D01*
X116391100Y-111211200D01*
X116419671Y-111154057D01*
X116419671Y-111096914D01*
X116391100Y-111039771D01*
X116362528Y-111011200D01*
X116305385Y-110982628D01*
X116162528Y-110982628D01*
X116076814Y-111011200D01*
X115819671Y-111582628D02*
X115819671Y-110982628D01*
X115591100Y-110982628D01*
X115533957Y-111011200D01*
X115505385Y-111039771D01*
X115476814Y-111096914D01*
X115476814Y-111182628D01*
X115505385Y-111239771D01*
X115533957Y-111268342D01*
X115591100Y-111296914D01*
X115819671Y-111296914D01*
X115276814Y-110982628D02*
X114905385Y-110982628D01*
X115105385Y-111211200D01*
X115019671Y-111211200D01*
X114962528Y-111239771D01*
X114933957Y-111268342D01*
X114905385Y-111325485D01*
X114905385Y-111468342D01*
X114933957Y-111525485D01*
X114962528Y-111554057D01*
X115019671Y-111582628D01*
X115191100Y-111582628D01*
X115248242Y-111554057D01*
X115276814Y-111525485D01*
X114676814Y-111039771D02*
X114648242Y-111011200D01*
X114591100Y-110982628D01*
X114448242Y-110982628D01*
X114391100Y-111011200D01*
X114362528Y-111039771D01*
X114333957Y-111096914D01*
X114333957Y-111154057D01*
X114362528Y-111239771D01*
X114705385Y-111582628D01*
X114333957Y-111582628D01*
X124519671Y-112232628D02*
X124519671Y-112632628D01*
X124776814Y-112232628D02*
X124776814Y-112546914D01*
X124748242Y-112604057D01*
X124691100Y-112632628D01*
X124605385Y-112632628D01*
X124548242Y-112604057D01*
X124519671Y-112575485D01*
X124262528Y-112604057D02*
X124205385Y-112632628D01*
X124091100Y-112632628D01*
X124033957Y-112604057D01*
X124005385Y-112546914D01*
X124005385Y-112518342D01*
X124033957Y-112461200D01*
X124091100Y-112432628D01*
X124176814Y-112432628D01*
X124233957Y-112404057D01*
X124262528Y-112346914D01*
X124262528Y-112318342D01*
X124233957Y-112261200D01*
X124176814Y-112232628D01*
X124091100Y-112232628D01*
X124033957Y-112261200D01*
X123748242Y-112632628D02*
X123748242Y-112232628D01*
X123748242Y-112032628D02*
X123776814Y-112061200D01*
X123748242Y-112089771D01*
X123719671Y-112061200D01*
X123748242Y-112032628D01*
X123748242Y-112089771D01*
X123462528Y-112232628D02*
X123462528Y-112632628D01*
X123462528Y-112289771D02*
X123433957Y-112261200D01*
X123376814Y-112232628D01*
X123291100Y-112232628D01*
X123233957Y-112261200D01*
X123205385Y-112318342D01*
X123205385Y-112632628D01*
X122662528Y-112232628D02*
X122662528Y-112718342D01*
X122691100Y-112775485D01*
X122719671Y-112804057D01*
X122776814Y-112832628D01*
X122862528Y-112832628D01*
X122919671Y-112804057D01*
X122662528Y-112604057D02*
X122719671Y-112632628D01*
X122833957Y-112632628D01*
X122891100Y-112604057D01*
X122919671Y-112575485D01*
X122948242Y-112518342D01*
X122948242Y-112346914D01*
X122919671Y-112289771D01*
X122891100Y-112261200D01*
X122833957Y-112232628D01*
X122719671Y-112232628D01*
X122662528Y-112261200D01*
X121833957Y-112632628D02*
X121891100Y-112604057D01*
X121919671Y-112575485D01*
X121948242Y-112518342D01*
X121948242Y-112346914D01*
X121919671Y-112289771D01*
X121891100Y-112261200D01*
X121833957Y-112232628D01*
X121748242Y-112232628D01*
X121691100Y-112261200D01*
X121662528Y-112289771D01*
X121633957Y-112346914D01*
X121633957Y-112518342D01*
X121662528Y-112575485D01*
X121691100Y-112604057D01*
X121748242Y-112632628D01*
X121833957Y-112632628D01*
X121376814Y-112232628D02*
X121376814Y-112632628D01*
X121376814Y-112289771D02*
X121348242Y-112261200D01*
X121291100Y-112232628D01*
X121205385Y-112232628D01*
X121148242Y-112261200D01*
X121119671Y-112318342D01*
X121119671Y-112632628D01*
X120833957Y-112632628D02*
X120833957Y-112032628D01*
X120833957Y-112261200D02*
X120776814Y-112232628D01*
X120662528Y-112232628D01*
X120605385Y-112261200D01*
X120576814Y-112289771D01*
X120548242Y-112346914D01*
X120548242Y-112518342D01*
X120576814Y-112575485D01*
X120605385Y-112604057D01*
X120662528Y-112632628D01*
X120776814Y-112632628D01*
X120833957Y-112604057D01*
X120205385Y-112632628D02*
X120262528Y-112604057D01*
X120291100Y-112575485D01*
X120319671Y-112518342D01*
X120319671Y-112346914D01*
X120291100Y-112289771D01*
X120262528Y-112261200D01*
X120205385Y-112232628D01*
X120119671Y-112232628D01*
X120062528Y-112261200D01*
X120033957Y-112289771D01*
X120005385Y-112346914D01*
X120005385Y-112518342D01*
X120033957Y-112575485D01*
X120062528Y-112604057D01*
X120119671Y-112632628D01*
X120205385Y-112632628D01*
X119491100Y-112632628D02*
X119491100Y-112318342D01*
X119519671Y-112261200D01*
X119576814Y-112232628D01*
X119691100Y-112232628D01*
X119748242Y-112261200D01*
X119491100Y-112604057D02*
X119548242Y-112632628D01*
X119691100Y-112632628D01*
X119748242Y-112604057D01*
X119776814Y-112546914D01*
X119776814Y-112489771D01*
X119748242Y-112432628D01*
X119691100Y-112404057D01*
X119548242Y-112404057D01*
X119491100Y-112375485D01*
X119205385Y-112632628D02*
X119205385Y-112232628D01*
X119205385Y-112346914D02*
X119176814Y-112289771D01*
X119148242Y-112261200D01*
X119091100Y-112232628D01*
X119033957Y-112232628D01*
X118576814Y-112632628D02*
X118576814Y-112032628D01*
X118576814Y-112604057D02*
X118633957Y-112632628D01*
X118748242Y-112632628D01*
X118805385Y-112604057D01*
X118833957Y-112575485D01*
X118862528Y-112518342D01*
X118862528Y-112346914D01*
X118833957Y-112289771D01*
X118805385Y-112261200D01*
X118748242Y-112232628D01*
X118633957Y-112232628D01*
X118576814Y-112261200D01*
X117491100Y-112632628D02*
X117691100Y-112346914D01*
X117833957Y-112632628D02*
X117833957Y-112032628D01*
X117605385Y-112032628D01*
X117548242Y-112061200D01*
X117519671Y-112089771D01*
X117491100Y-112146914D01*
X117491100Y-112232628D01*
X117519671Y-112289771D01*
X117548242Y-112318342D01*
X117605385Y-112346914D01*
X117833957Y-112346914D01*
X117005385Y-112604057D02*
X117062528Y-112632628D01*
X117176814Y-112632628D01*
X117233957Y-112604057D01*
X117262528Y-112546914D01*
X117262528Y-112318342D01*
X117233957Y-112261200D01*
X117176814Y-112232628D01*
X117062528Y-112232628D01*
X117005385Y-112261200D01*
X116976814Y-112318342D01*
X116976814Y-112375485D01*
X117262528Y-112432628D01*
X116462528Y-112232628D02*
X116462528Y-112718342D01*
X116491100Y-112775485D01*
X116519671Y-112804057D01*
X116576814Y-112832628D01*
X116662528Y-112832628D01*
X116719671Y-112804057D01*
X116462528Y-112604057D02*
X116519671Y-112632628D01*
X116633957Y-112632628D01*
X116691100Y-112604057D01*
X116719671Y-112575485D01*
X116748242Y-112518342D01*
X116748242Y-112346914D01*
X116719671Y-112289771D01*
X116691100Y-112261200D01*
X116633957Y-112232628D01*
X116519671Y-112232628D01*
X116462528Y-112261200D01*
X115919671Y-112232628D02*
X115919671Y-112632628D01*
X116176814Y-112232628D02*
X116176814Y-112546914D01*
X116148242Y-112604057D01*
X116091100Y-112632628D01*
X116005385Y-112632628D01*
X115948242Y-112604057D01*
X115919671Y-112575485D01*
X115548242Y-112632628D02*
X115605385Y-112604057D01*
X115633957Y-112546914D01*
X115633957Y-112032628D01*
X115062528Y-112632628D02*
X115062528Y-112318342D01*
X115091100Y-112261200D01*
X115148242Y-112232628D01*
X115262528Y-112232628D01*
X115319671Y-112261200D01*
X115062528Y-112604057D02*
X115119671Y-112632628D01*
X115262528Y-112632628D01*
X115319671Y-112604057D01*
X115348242Y-112546914D01*
X115348242Y-112489771D01*
X115319671Y-112432628D01*
X115262528Y-112404057D01*
X115119671Y-112404057D01*
X115062528Y-112375485D01*
X114862528Y-112232628D02*
X114633957Y-112232628D01*
X114776814Y-112032628D02*
X114776814Y-112546914D01*
X114748242Y-112604057D01*
X114691100Y-112632628D01*
X114633957Y-112632628D01*
X114348242Y-112632628D02*
X114405385Y-112604057D01*
X114433957Y-112575485D01*
X114462528Y-112518342D01*
X114462528Y-112346914D01*
X114433957Y-112289771D01*
X114405385Y-112261200D01*
X114348242Y-112232628D01*
X114262528Y-112232628D01*
X114205385Y-112261200D01*
X114176814Y-112289771D01*
X114148242Y-112346914D01*
X114148242Y-112518342D01*
X114176814Y-112575485D01*
X114205385Y-112604057D01*
X114262528Y-112632628D01*
X114348242Y-112632628D01*
X113891100Y-112632628D02*
X113891100Y-112232628D01*
X113891100Y-112346914D02*
X113862528Y-112289771D01*
X113833957Y-112261200D01*
X113776814Y-112232628D01*
X113719671Y-112232628D01*
D14*
%TO.C,G\002A\002A\002A*%
G36*
X173019720Y-124024814D02*
G01*
X173019720Y-124713270D01*
X174120387Y-124653437D01*
X174529455Y-124634687D01*
X174869628Y-124625735D01*
X175109566Y-124626908D01*
X175217926Y-124638530D01*
X175221054Y-124642015D01*
X175145283Y-124684598D01*
X174937417Y-124767929D01*
X174626622Y-124881102D01*
X174242065Y-125013213D01*
X174116565Y-125054945D01*
X173012076Y-125419465D01*
X173062054Y-126170491D01*
X174093321Y-126515819D01*
X174484079Y-126648771D01*
X174813562Y-126764851D01*
X175050072Y-126852600D01*
X175161909Y-126900562D01*
X175165843Y-126903480D01*
X175102448Y-126917074D01*
X174899769Y-126924311D01*
X174587749Y-126924832D01*
X174196330Y-126918276D01*
X174113410Y-126916145D01*
X173019720Y-126886475D01*
X173019720Y-127580814D01*
X176237054Y-127580814D01*
X176237054Y-126600122D01*
X175094054Y-126226147D01*
X174685518Y-126089398D01*
X174341539Y-125968383D01*
X174090815Y-125873659D01*
X173962045Y-125815781D01*
X173951054Y-125805761D01*
X174026654Y-125763416D01*
X174234244Y-125678982D01*
X174545005Y-125563424D01*
X174930118Y-125427707D01*
X175072887Y-125378915D01*
X176194720Y-124998480D01*
X176245504Y-124024814D01*
X173019720Y-124024814D01*
G37*
X173019720Y-124024814D02*
X173019720Y-124713270D01*
X174120387Y-124653437D01*
X174529455Y-124634687D01*
X174869628Y-124625735D01*
X175109566Y-124626908D01*
X175217926Y-124638530D01*
X175221054Y-124642015D01*
X175145283Y-124684598D01*
X174937417Y-124767929D01*
X174626622Y-124881102D01*
X174242065Y-125013213D01*
X174116565Y-125054945D01*
X173012076Y-125419465D01*
X173062054Y-126170491D01*
X174093321Y-126515819D01*
X174484079Y-126648771D01*
X174813562Y-126764851D01*
X175050072Y-126852600D01*
X175161909Y-126900562D01*
X175165843Y-126903480D01*
X175102448Y-126917074D01*
X174899769Y-126924311D01*
X174587749Y-126924832D01*
X174196330Y-126918276D01*
X174113410Y-126916145D01*
X173019720Y-126886475D01*
X173019720Y-127580814D01*
X176237054Y-127580814D01*
X176237054Y-126600122D01*
X175094054Y-126226147D01*
X174685518Y-126089398D01*
X174341539Y-125968383D01*
X174090815Y-125873659D01*
X173962045Y-125815781D01*
X173951054Y-125805761D01*
X174026654Y-125763416D01*
X174234244Y-125678982D01*
X174545005Y-125563424D01*
X174930118Y-125427707D01*
X175072887Y-125378915D01*
X176194720Y-124998480D01*
X176245504Y-124024814D01*
X173019720Y-124024814D01*
G36*
X175326887Y-120869262D02*
G01*
X174872275Y-120675664D01*
X174386640Y-120468426D01*
X173941422Y-120278050D01*
X173718220Y-120182382D01*
X173019720Y-119882570D01*
X173019720Y-120263367D01*
X173028789Y-120495235D01*
X173083441Y-120630685D01*
X173224848Y-120728516D01*
X173400720Y-120807480D01*
X173781720Y-120970796D01*
X173781720Y-122317369D01*
X173421887Y-122436877D01*
X173200459Y-122521180D01*
X173091352Y-122619927D01*
X173048565Y-122793729D01*
X173036548Y-122944598D01*
X173011042Y-123332812D01*
X174374387Y-122755749D01*
X174374387Y-122075010D01*
X174374387Y-121652912D01*
X174387068Y-121411798D01*
X174419481Y-121259003D01*
X174444671Y-121230814D01*
X174554461Y-121260806D01*
X174770990Y-121339002D01*
X175016171Y-121435882D01*
X175279235Y-121550163D01*
X175401308Y-121625145D01*
X175401619Y-121676320D01*
X175348054Y-121703275D01*
X175170010Y-121770104D01*
X174911168Y-121868664D01*
X174776554Y-121920305D01*
X174374387Y-122075010D01*
X174374387Y-122755749D01*
X176237054Y-121967336D01*
X176237054Y-121256330D01*
X175326887Y-120869262D01*
G37*
X175326887Y-120869262D02*
X174872275Y-120675664D01*
X174386640Y-120468426D01*
X173941422Y-120278050D01*
X173718220Y-120182382D01*
X173019720Y-119882570D01*
X173019720Y-120263367D01*
X173028789Y-120495235D01*
X173083441Y-120630685D01*
X173224848Y-120728516D01*
X173400720Y-120807480D01*
X173781720Y-120970796D01*
X173781720Y-122317369D01*
X173421887Y-122436877D01*
X173200459Y-122521180D01*
X173091352Y-122619927D01*
X173048565Y-122793729D01*
X173036548Y-122944598D01*
X173011042Y-123332812D01*
X174374387Y-122755749D01*
X174374387Y-122075010D01*
X174374387Y-121652912D01*
X174387068Y-121411798D01*
X174419481Y-121259003D01*
X174444671Y-121230814D01*
X174554461Y-121260806D01*
X174770990Y-121339002D01*
X175016171Y-121435882D01*
X175279235Y-121550163D01*
X175401308Y-121625145D01*
X175401619Y-121676320D01*
X175348054Y-121703275D01*
X175170010Y-121770104D01*
X174911168Y-121868664D01*
X174776554Y-121920305D01*
X174374387Y-122075010D01*
X174374387Y-122755749D01*
X176237054Y-121967336D01*
X176237054Y-121256330D01*
X175326887Y-120869262D01*
G36*
X176232275Y-118246314D02*
G01*
X176221328Y-117828505D01*
X176195468Y-117443852D01*
X176158875Y-117141675D01*
X176126442Y-116997480D01*
X175946760Y-116704275D01*
X175668708Y-116512666D01*
X175334097Y-116429257D01*
X174984737Y-116460654D01*
X174662439Y-116613463D01*
X174519025Y-116743538D01*
X174282664Y-117008050D01*
X173686088Y-116664099D01*
X173405860Y-116504837D01*
X173186874Y-116384701D01*
X173066116Y-116323837D01*
X173054616Y-116320147D01*
X173033627Y-116395806D01*
X173021188Y-116586826D01*
X173019720Y-116693860D01*
X173024875Y-116884625D01*
X173060846Y-117015818D01*
X173158391Y-117124642D01*
X173348273Y-117248302D01*
X173591220Y-117385072D01*
X173919884Y-117572701D01*
X174125403Y-117713066D01*
X174234544Y-117837651D01*
X174274073Y-117977935D01*
X174270757Y-118165401D01*
X174269484Y-118182814D01*
X174247387Y-118479147D01*
X173633554Y-118504023D01*
X173019720Y-118528899D01*
X173019720Y-119198814D01*
X175644387Y-119198814D01*
X175644387Y-118521480D01*
X174875264Y-118521480D01*
X174899992Y-117865314D01*
X174924720Y-117209147D01*
X175199942Y-117182612D01*
X175403932Y-117187607D01*
X175514867Y-117280241D01*
X175559775Y-117378624D01*
X175608666Y-117592384D01*
X175639226Y-117889882D01*
X175644387Y-118061326D01*
X175644387Y-118521480D01*
X175644387Y-119198814D01*
X176237054Y-119198814D01*
X176232275Y-118246314D01*
G37*
X176232275Y-118246314D02*
X176221328Y-117828505D01*
X176195468Y-117443852D01*
X176158875Y-117141675D01*
X176126442Y-116997480D01*
X175946760Y-116704275D01*
X175668708Y-116512666D01*
X175334097Y-116429257D01*
X174984737Y-116460654D01*
X174662439Y-116613463D01*
X174519025Y-116743538D01*
X174282664Y-117008050D01*
X173686088Y-116664099D01*
X173405860Y-116504837D01*
X173186874Y-116384701D01*
X173066116Y-116323837D01*
X173054616Y-116320147D01*
X173033627Y-116395806D01*
X173021188Y-116586826D01*
X173019720Y-116693860D01*
X173024875Y-116884625D01*
X173060846Y-117015818D01*
X173158391Y-117124642D01*
X173348273Y-117248302D01*
X173591220Y-117385072D01*
X173919884Y-117572701D01*
X174125403Y-117713066D01*
X174234544Y-117837651D01*
X174274073Y-117977935D01*
X174270757Y-118165401D01*
X174269484Y-118182814D01*
X174247387Y-118479147D01*
X173633554Y-118504023D01*
X173019720Y-118528899D01*
X173019720Y-119198814D01*
X175644387Y-119198814D01*
X175644387Y-118521480D01*
X174875264Y-118521480D01*
X174899992Y-117865314D01*
X174924720Y-117209147D01*
X175199942Y-117182612D01*
X175403932Y-117187607D01*
X175514867Y-117280241D01*
X175559775Y-117378624D01*
X175608666Y-117592384D01*
X175639226Y-117889882D01*
X175644387Y-118061326D01*
X175644387Y-118521480D01*
X175644387Y-119198814D01*
X176237054Y-119198814D01*
X176232275Y-118246314D01*
G36*
X176233812Y-112787064D02*
G01*
X176199437Y-112739598D01*
X176116221Y-112765152D01*
X175963926Y-112871168D01*
X175722315Y-113065091D01*
X175371149Y-113354365D01*
X175293167Y-113418428D01*
X174645614Y-113949723D01*
X173938501Y-113385366D01*
X173636577Y-113144697D01*
X173377335Y-112938604D01*
X173193530Y-112793094D01*
X173125554Y-112739878D01*
X173063286Y-112729741D01*
X173031368Y-112837665D01*
X173023151Y-113087954D01*
X173023308Y-113113614D01*
X173026896Y-113568480D01*
X173756258Y-114118814D01*
X174485619Y-114669147D01*
X173752670Y-114693610D01*
X173019720Y-114718073D01*
X173019720Y-115388814D01*
X176237054Y-115388814D01*
X176237054Y-114718073D01*
X175501808Y-114693610D01*
X174766563Y-114669147D01*
X175501746Y-114076480D01*
X176236930Y-113483814D01*
X176236992Y-113071280D01*
X176239585Y-112900106D01*
X176233812Y-112787064D01*
G37*
X176233812Y-112787064D02*
X176199437Y-112739598D01*
X176116221Y-112765152D01*
X175963926Y-112871168D01*
X175722315Y-113065091D01*
X175371149Y-113354365D01*
X175293167Y-113418428D01*
X174645614Y-113949723D01*
X173938501Y-113385366D01*
X173636577Y-113144697D01*
X173377335Y-112938604D01*
X173193530Y-112793094D01*
X173125554Y-112739878D01*
X173063286Y-112729741D01*
X173031368Y-112837665D01*
X173023151Y-113087954D01*
X173023308Y-113113614D01*
X173026896Y-113568480D01*
X173756258Y-114118814D01*
X174485619Y-114669147D01*
X173752670Y-114693610D01*
X173019720Y-114718073D01*
X173019720Y-115388814D01*
X176237054Y-115388814D01*
X176237054Y-114718073D01*
X175501808Y-114693610D01*
X174766563Y-114669147D01*
X175501746Y-114076480D01*
X176236930Y-113483814D01*
X176236992Y-113071280D01*
X176239585Y-112900106D01*
X176233812Y-112787064D01*
G36*
X175644387Y-109546814D02*
G01*
X175644387Y-110177830D01*
X175631948Y-110517862D01*
X175599244Y-110815369D01*
X175553194Y-111008712D01*
X175550384Y-111015160D01*
X175419069Y-111188295D01*
X175230615Y-111322219D01*
X175046285Y-111380774D01*
X174960709Y-111363226D01*
X174928294Y-111263453D01*
X174902419Y-111032056D01*
X174886247Y-110706711D01*
X174882387Y-110430817D01*
X174882387Y-109546814D01*
X174380116Y-109546814D01*
X174356085Y-110456980D01*
X174344357Y-110857912D01*
X174329511Y-111118614D01*
X174303978Y-111268132D01*
X174260187Y-111335509D01*
X174190568Y-111349791D01*
X174124895Y-111344027D01*
X173900226Y-111291199D01*
X173750164Y-111173851D01*
X173661261Y-110964470D01*
X173620066Y-110635544D01*
X173612387Y-110295692D01*
X173612387Y-109546814D01*
X173019720Y-109546814D01*
X173023462Y-110372314D01*
X173033877Y-110809208D01*
X173064801Y-111121607D01*
X173122747Y-111353769D01*
X173190332Y-111506568D01*
X173440100Y-111809982D01*
X173796547Y-112022070D01*
X174223304Y-112142125D01*
X174684006Y-112169440D01*
X175142286Y-112103310D01*
X175561778Y-111943027D01*
X175906113Y-111687885D01*
X176012990Y-111561404D01*
X176094523Y-111415134D01*
X176151023Y-111216104D01*
X176189317Y-110927232D01*
X176216233Y-110511439D01*
X176219545Y-110439571D01*
X176259250Y-109546814D01*
X175644387Y-109546814D01*
G37*
X175644387Y-109546814D02*
X175644387Y-110177830D01*
X175631948Y-110517862D01*
X175599244Y-110815369D01*
X175553194Y-111008712D01*
X175550384Y-111015160D01*
X175419069Y-111188295D01*
X175230615Y-111322219D01*
X175046285Y-111380774D01*
X174960709Y-111363226D01*
X174928294Y-111263453D01*
X174902419Y-111032056D01*
X174886247Y-110706711D01*
X174882387Y-110430817D01*
X174882387Y-109546814D01*
X174380116Y-109546814D01*
X174356085Y-110456980D01*
X174344357Y-110857912D01*
X174329511Y-111118614D01*
X174303978Y-111268132D01*
X174260187Y-111335509D01*
X174190568Y-111349791D01*
X174124895Y-111344027D01*
X173900226Y-111291199D01*
X173750164Y-111173851D01*
X173661261Y-110964470D01*
X173620066Y-110635544D01*
X173612387Y-110295692D01*
X173612387Y-109546814D01*
X173019720Y-109546814D01*
X173023462Y-110372314D01*
X173033877Y-110809208D01*
X173064801Y-111121607D01*
X173122747Y-111353769D01*
X173190332Y-111506568D01*
X173440100Y-111809982D01*
X173796547Y-112022070D01*
X174223304Y-112142125D01*
X174684006Y-112169440D01*
X175142286Y-112103310D01*
X175561778Y-111943027D01*
X175906113Y-111687885D01*
X176012990Y-111561404D01*
X176094523Y-111415134D01*
X176151023Y-111216104D01*
X176189317Y-110927232D01*
X176216233Y-110511439D01*
X176219545Y-110439571D01*
X176259250Y-109546814D01*
X175644387Y-109546814D01*
G36*
X175644387Y-106075480D02*
G01*
X175644387Y-107091480D01*
X173019720Y-107091480D01*
X173019720Y-107853480D01*
X175644387Y-107853480D01*
X175644387Y-108880209D01*
X175919554Y-108853678D01*
X176194720Y-108827147D01*
X176217984Y-107451314D01*
X176241248Y-106075480D01*
X175644387Y-106075480D01*
G37*
X175644387Y-106075480D02*
X175644387Y-107091480D01*
X173019720Y-107091480D01*
X173019720Y-107853480D01*
X175644387Y-107853480D01*
X175644387Y-108880209D01*
X175919554Y-108853678D01*
X176194720Y-108827147D01*
X176217984Y-107451314D01*
X176241248Y-106075480D01*
X175644387Y-106075480D01*
G36*
X181711598Y-127901065D02*
G01*
X181682386Y-127688858D01*
X181658625Y-127634518D01*
X181638197Y-127529335D01*
X181620489Y-127257144D01*
X181605495Y-126817620D01*
X181593210Y-126210435D01*
X181583629Y-125435263D01*
X181576747Y-124491778D01*
X181572558Y-123379653D01*
X181571058Y-122098562D01*
X181571054Y-122018214D01*
X181570965Y-120915771D01*
X181570452Y-119970564D01*
X181569143Y-119170498D01*
X181566670Y-118503477D01*
X181562660Y-117957403D01*
X181556743Y-117520181D01*
X181548550Y-117179714D01*
X181537709Y-116923906D01*
X181523851Y-116740660D01*
X181506604Y-116617880D01*
X181485598Y-116543470D01*
X181460462Y-116505333D01*
X181430827Y-116491373D01*
X181401720Y-116489480D01*
X181342803Y-116482533D01*
X181299414Y-116446739D01*
X181269182Y-116359669D01*
X181249738Y-116198896D01*
X181238709Y-115941991D01*
X181233726Y-115566526D01*
X181232418Y-115050073D01*
X181232387Y-114887541D01*
X181232387Y-113285602D01*
X180989020Y-113232149D01*
X180697782Y-113092698D01*
X180457844Y-112844253D01*
X180350613Y-112626063D01*
X180236087Y-112487008D01*
X180035093Y-112393806D01*
X179821168Y-112368424D01*
X179675579Y-112424422D01*
X179490442Y-112507586D01*
X179261692Y-112493433D01*
X179072399Y-112393418D01*
X179028015Y-112335136D01*
X178992937Y-112125663D01*
X179081070Y-111935165D01*
X179248698Y-111796872D01*
X179452104Y-111744019D01*
X179647573Y-111809837D01*
X179680688Y-111838981D01*
X179820987Y-111891655D01*
X180039201Y-111896893D01*
X180057454Y-111894864D01*
X180343387Y-111859913D01*
X180032793Y-111846364D01*
X179798862Y-111806079D01*
X179637116Y-111679283D01*
X179546185Y-111548020D01*
X179400949Y-111376775D01*
X179194621Y-111260679D01*
X178897357Y-111191171D01*
X178479312Y-111159690D01*
X178177567Y-111155481D01*
X177867019Y-111128551D01*
X177714476Y-111048503D01*
X177721471Y-110916450D01*
X177764132Y-110855438D01*
X177877503Y-110789099D01*
X178101915Y-110746433D01*
X178461581Y-110723678D01*
X178639254Y-110719461D01*
X178947190Y-110710813D01*
X179150024Y-110697813D01*
X179223236Y-110682527D01*
X179192847Y-110672819D01*
X178972314Y-110556335D01*
X178840558Y-110359786D01*
X178759087Y-110210906D01*
X178661112Y-110121810D01*
X178500145Y-110070712D01*
X178229700Y-110035823D01*
X178128431Y-110026030D01*
X177794735Y-109997630D01*
X177497146Y-109977643D01*
X177316554Y-109970749D01*
X177083720Y-109970147D01*
X177086295Y-119685647D01*
X177087515Y-121411270D01*
X177090212Y-122972707D01*
X177094382Y-124369428D01*
X177100020Y-125600903D01*
X177107122Y-126666600D01*
X177115683Y-127565989D01*
X177125697Y-128298540D01*
X177137160Y-128863722D01*
X177150068Y-129261004D01*
X177164415Y-129489856D01*
X177175169Y-129549314D01*
X177329768Y-129671825D01*
X177535322Y-129685743D01*
X177714613Y-129593134D01*
X177758075Y-129533713D01*
X177777429Y-129410771D01*
X177794391Y-129119165D01*
X177808953Y-128659548D01*
X177821104Y-128032572D01*
X177830836Y-127238891D01*
X177838141Y-126279156D01*
X177843008Y-125154022D01*
X177845430Y-123864140D01*
X177845720Y-123177200D01*
X177845720Y-116984455D01*
X178068313Y-116761863D01*
X178068313Y-115805858D01*
X177872122Y-115719607D01*
X177862654Y-115710547D01*
X177769845Y-115520126D01*
X177788936Y-115305221D01*
X177911354Y-115145516D01*
X177924254Y-115138096D01*
X178148041Y-115094402D01*
X178341221Y-115177531D01*
X178462553Y-115347000D01*
X178470799Y-115562325D01*
X178438387Y-115642814D01*
X178283432Y-115777159D01*
X178068313Y-115805858D01*
X178068313Y-116761863D01*
X178093208Y-116736968D01*
X178340695Y-116489480D01*
X179549799Y-116489480D01*
X179549799Y-114708316D01*
X179258711Y-114661133D01*
X179000266Y-114488268D01*
X178817246Y-114197634D01*
X178786079Y-113871432D01*
X178909246Y-113553856D01*
X178945048Y-113504747D01*
X179204062Y-113294570D01*
X179509332Y-113221936D01*
X179815070Y-113282253D01*
X180075489Y-113470931D01*
X180183416Y-113628919D01*
X180270346Y-113944581D01*
X180219226Y-114233029D01*
X180061279Y-114471586D01*
X179827729Y-114637575D01*
X179549799Y-114708316D01*
X179549799Y-116489480D01*
X179787737Y-116489480D01*
X181234779Y-116489481D01*
X181196563Y-122056314D01*
X181189089Y-123039761D01*
X181180449Y-123994409D01*
X181170885Y-124903238D01*
X181160639Y-125749230D01*
X181149954Y-126515368D01*
X181139070Y-127184634D01*
X181128230Y-127740008D01*
X181117676Y-128164473D01*
X181107649Y-128441012D01*
X181105180Y-128486231D01*
X181085456Y-128978231D01*
X181100916Y-129323769D01*
X181157797Y-129543223D01*
X181262335Y-129656970D01*
X181420765Y-129685388D01*
X181470915Y-129681388D01*
X181698054Y-129655147D01*
X181722125Y-128688618D01*
X181725344Y-128242611D01*
X181711598Y-127901065D01*
G37*
X181711598Y-127901065D02*
X181682386Y-127688858D01*
X181658625Y-127634518D01*
X181638197Y-127529335D01*
X181620489Y-127257144D01*
X181605495Y-126817620D01*
X181593210Y-126210435D01*
X181583629Y-125435263D01*
X181576747Y-124491778D01*
X181572558Y-123379653D01*
X181571058Y-122098562D01*
X181571054Y-122018214D01*
X181570965Y-120915771D01*
X181570452Y-119970564D01*
X181569143Y-119170498D01*
X181566670Y-118503477D01*
X181562660Y-117957403D01*
X181556743Y-117520181D01*
X181548550Y-117179714D01*
X181537709Y-116923906D01*
X181523851Y-116740660D01*
X181506604Y-116617880D01*
X181485598Y-116543470D01*
X181460462Y-116505333D01*
X181430827Y-116491373D01*
X181401720Y-116489480D01*
X181342803Y-116482533D01*
X181299414Y-116446739D01*
X181269182Y-116359669D01*
X181249738Y-116198896D01*
X181238709Y-115941991D01*
X181233726Y-115566526D01*
X181232418Y-115050073D01*
X181232387Y-114887541D01*
X181232387Y-113285602D01*
X180989020Y-113232149D01*
X180697782Y-113092698D01*
X180457844Y-112844253D01*
X180350613Y-112626063D01*
X180236087Y-112487008D01*
X180035093Y-112393806D01*
X179821168Y-112368424D01*
X179675579Y-112424422D01*
X179490442Y-112507586D01*
X179261692Y-112493433D01*
X179072399Y-112393418D01*
X179028015Y-112335136D01*
X178992937Y-112125663D01*
X179081070Y-111935165D01*
X179248698Y-111796872D01*
X179452104Y-111744019D01*
X179647573Y-111809837D01*
X179680688Y-111838981D01*
X179820987Y-111891655D01*
X180039201Y-111896893D01*
X180057454Y-111894864D01*
X180343387Y-111859913D01*
X180032793Y-111846364D01*
X179798862Y-111806079D01*
X179637116Y-111679283D01*
X179546185Y-111548020D01*
X179400949Y-111376775D01*
X179194621Y-111260679D01*
X178897357Y-111191171D01*
X178479312Y-111159690D01*
X178177567Y-111155481D01*
X177867019Y-111128551D01*
X177714476Y-111048503D01*
X177721471Y-110916450D01*
X177764132Y-110855438D01*
X177877503Y-110789099D01*
X178101915Y-110746433D01*
X178461581Y-110723678D01*
X178639254Y-110719461D01*
X178947190Y-110710813D01*
X179150024Y-110697813D01*
X179223236Y-110682527D01*
X179192847Y-110672819D01*
X178972314Y-110556335D01*
X178840558Y-110359786D01*
X178759087Y-110210906D01*
X178661112Y-110121810D01*
X178500145Y-110070712D01*
X178229700Y-110035823D01*
X178128431Y-110026030D01*
X177794735Y-109997630D01*
X177497146Y-109977643D01*
X177316554Y-109970749D01*
X177083720Y-109970147D01*
X177086295Y-119685647D01*
X177087515Y-121411270D01*
X177090212Y-122972707D01*
X177094382Y-124369428D01*
X177100020Y-125600903D01*
X177107122Y-126666600D01*
X177115683Y-127565989D01*
X177125697Y-128298540D01*
X177137160Y-128863722D01*
X177150068Y-129261004D01*
X177164415Y-129489856D01*
X177175169Y-129549314D01*
X177329768Y-129671825D01*
X177535322Y-129685743D01*
X177714613Y-129593134D01*
X177758075Y-129533713D01*
X177777429Y-129410771D01*
X177794391Y-129119165D01*
X177808953Y-128659548D01*
X177821104Y-128032572D01*
X177830836Y-127238891D01*
X177838141Y-126279156D01*
X177843008Y-125154022D01*
X177845430Y-123864140D01*
X177845720Y-123177200D01*
X177845720Y-116984455D01*
X178068313Y-116761863D01*
X178068313Y-115805858D01*
X177872122Y-115719607D01*
X177862654Y-115710547D01*
X177769845Y-115520126D01*
X177788936Y-115305221D01*
X177911354Y-115145516D01*
X177924254Y-115138096D01*
X178148041Y-115094402D01*
X178341221Y-115177531D01*
X178462553Y-115347000D01*
X178470799Y-115562325D01*
X178438387Y-115642814D01*
X178283432Y-115777159D01*
X178068313Y-115805858D01*
X178068313Y-116761863D01*
X178093208Y-116736968D01*
X178340695Y-116489480D01*
X179549799Y-116489480D01*
X179549799Y-114708316D01*
X179258711Y-114661133D01*
X179000266Y-114488268D01*
X178817246Y-114197634D01*
X178786079Y-113871432D01*
X178909246Y-113553856D01*
X178945048Y-113504747D01*
X179204062Y-113294570D01*
X179509332Y-113221936D01*
X179815070Y-113282253D01*
X180075489Y-113470931D01*
X180183416Y-113628919D01*
X180270346Y-113944581D01*
X180219226Y-114233029D01*
X180061279Y-114471586D01*
X179827729Y-114637575D01*
X179549799Y-114708316D01*
X179549799Y-116489480D01*
X179787737Y-116489480D01*
X181234779Y-116489481D01*
X181196563Y-122056314D01*
X181189089Y-123039761D01*
X181180449Y-123994409D01*
X181170885Y-124903238D01*
X181160639Y-125749230D01*
X181149954Y-126515368D01*
X181139070Y-127184634D01*
X181128230Y-127740008D01*
X181117676Y-128164473D01*
X181107649Y-128441012D01*
X181105180Y-128486231D01*
X181085456Y-128978231D01*
X181100916Y-129323769D01*
X181157797Y-129543223D01*
X181262335Y-129656970D01*
X181420765Y-129685388D01*
X181470915Y-129681388D01*
X181698054Y-129655147D01*
X181722125Y-128688618D01*
X181725344Y-128242611D01*
X181711598Y-127901065D01*
G36*
X178624325Y-109486464D02*
G01*
X178442359Y-109378837D01*
X178345568Y-109229037D01*
X178245337Y-108924330D01*
X178132114Y-108518116D01*
X178022259Y-108075660D01*
X177932133Y-107662225D01*
X177884023Y-107387814D01*
X177844146Y-107113425D01*
X177810721Y-106894858D01*
X177799658Y-106828184D01*
X177779530Y-106617549D01*
X177767065Y-106288165D01*
X177762197Y-105890439D01*
X177764858Y-105474779D01*
X177774981Y-105091592D01*
X177792501Y-104791285D01*
X177802481Y-104698791D01*
X177857448Y-104295767D01*
X177641105Y-104394340D01*
X177497171Y-104466196D01*
X177382784Y-104548850D01*
X177294286Y-104661529D01*
X177228021Y-104823464D01*
X177180330Y-105053883D01*
X177147557Y-105372016D01*
X177126043Y-105797091D01*
X177112131Y-106348339D01*
X177102164Y-107044987D01*
X177099911Y-107239647D01*
X177073767Y-109546814D01*
X177946577Y-109535284D01*
X178283174Y-109527403D01*
X178522377Y-109514940D01*
X178638695Y-109499730D01*
X178624325Y-109486464D01*
G37*
X178624325Y-109486464D02*
X178442359Y-109378837D01*
X178345568Y-109229037D01*
X178245337Y-108924330D01*
X178132114Y-108518116D01*
X178022259Y-108075660D01*
X177932133Y-107662225D01*
X177884023Y-107387814D01*
X177844146Y-107113425D01*
X177810721Y-106894858D01*
X177799658Y-106828184D01*
X177779530Y-106617549D01*
X177767065Y-106288165D01*
X177762197Y-105890439D01*
X177764858Y-105474779D01*
X177774981Y-105091592D01*
X177792501Y-104791285D01*
X177802481Y-104698791D01*
X177857448Y-104295767D01*
X177641105Y-104394340D01*
X177497171Y-104466196D01*
X177382784Y-104548850D01*
X177294286Y-104661529D01*
X177228021Y-104823464D01*
X177180330Y-105053883D01*
X177147557Y-105372016D01*
X177126043Y-105797091D01*
X177112131Y-106348339D01*
X177102164Y-107044987D01*
X177099911Y-107239647D01*
X177073767Y-109546814D01*
X177946577Y-109535284D01*
X178283174Y-109527403D01*
X178522377Y-109514940D01*
X178638695Y-109499730D01*
X178624325Y-109486464D01*
G36*
X177972720Y-105652147D02*
G01*
X177930387Y-105694480D01*
X177972720Y-105736814D01*
X178015054Y-105694480D01*
X177972720Y-105652147D01*
G37*
X177972720Y-105652147D02*
X177930387Y-105694480D01*
X177972720Y-105736814D01*
X178015054Y-105694480D01*
X177972720Y-105652147D01*
G36*
X177972720Y-104805480D02*
G01*
X177930387Y-104847814D01*
X177972720Y-104890147D01*
X178015054Y-104847814D01*
X177972720Y-104805480D01*
G37*
X177972720Y-104805480D02*
X177930387Y-104847814D01*
X177972720Y-104890147D01*
X178015054Y-104847814D01*
X177972720Y-104805480D01*
G36*
X180182770Y-126642033D02*
G01*
X180078975Y-126380700D01*
X179882341Y-126248104D01*
X179711447Y-126226147D01*
X179422608Y-126288135D01*
X179235013Y-126479880D01*
X179141290Y-126800618D01*
X179096188Y-127029657D01*
X179023012Y-127133791D01*
X178899831Y-127157480D01*
X178620425Y-127194789D01*
X178463299Y-127298345D01*
X178438387Y-127380863D01*
X178506006Y-127517329D01*
X178550921Y-127544645D01*
X178682247Y-127561383D01*
X178936931Y-127569206D01*
X179269184Y-127567139D01*
X179418755Y-127563154D01*
X179708387Y-127553693D01*
X179708387Y-127157480D01*
X179528243Y-127136207D01*
X179461897Y-127037906D01*
X179454387Y-126912539D01*
X179493747Y-126717160D01*
X179578937Y-126619803D01*
X179737689Y-126636630D01*
X179882573Y-126765491D01*
X179959796Y-126953861D01*
X179962387Y-126994195D01*
X179919601Y-127114452D01*
X179764046Y-127156219D01*
X179708387Y-127157480D01*
X179708387Y-127553693D01*
X180174054Y-127538480D01*
X180199730Y-127042130D01*
X180182770Y-126642033D01*
G37*
X180182770Y-126642033D02*
X180078975Y-126380700D01*
X179882341Y-126248104D01*
X179711447Y-126226147D01*
X179422608Y-126288135D01*
X179235013Y-126479880D01*
X179141290Y-126800618D01*
X179096188Y-127029657D01*
X179023012Y-127133791D01*
X178899831Y-127157480D01*
X178620425Y-127194789D01*
X178463299Y-127298345D01*
X178438387Y-127380863D01*
X178506006Y-127517329D01*
X178550921Y-127544645D01*
X178682247Y-127561383D01*
X178936931Y-127569206D01*
X179269184Y-127567139D01*
X179418755Y-127563154D01*
X179708387Y-127553693D01*
X179708387Y-127157480D01*
X179528243Y-127136207D01*
X179461897Y-127037906D01*
X179454387Y-126912539D01*
X179493747Y-126717160D01*
X179578937Y-126619803D01*
X179737689Y-126636630D01*
X179882573Y-126765491D01*
X179959796Y-126953861D01*
X179962387Y-126994195D01*
X179919601Y-127114452D01*
X179764046Y-127156219D01*
X179708387Y-127157480D01*
X179708387Y-127553693D01*
X180174054Y-127538480D01*
X180199730Y-127042130D01*
X180182770Y-126642033D01*
G36*
X180176128Y-124780806D02*
G01*
X179935239Y-124480630D01*
X179934152Y-124479715D01*
X179745701Y-124345506D01*
X179558655Y-124291503D01*
X179294628Y-124297204D01*
X179251549Y-124301166D01*
X178859730Y-124396806D01*
X178598389Y-124599341D01*
X178462249Y-124914449D01*
X178438387Y-125176384D01*
X178470728Y-125481441D01*
X178583627Y-125697114D01*
X178633718Y-125751842D01*
X178932297Y-125948044D01*
X179278068Y-126021246D01*
X179343569Y-126013174D01*
X179343569Y-125633480D01*
X179024667Y-125574013D01*
X178818675Y-125415498D01*
X178742157Y-125187768D01*
X178811677Y-124920654D01*
X178885231Y-124807980D01*
X179036296Y-124728929D01*
X179277999Y-124704017D01*
X179541417Y-124730682D01*
X179757629Y-124806362D01*
X179807554Y-124842269D01*
X179937432Y-125048585D01*
X179927449Y-125267851D01*
X179799460Y-125462801D01*
X179575319Y-125596168D01*
X179343569Y-125633480D01*
X179343569Y-126013174D01*
X179626098Y-125978353D01*
X179931452Y-125826273D01*
X180149196Y-125571910D01*
X180176037Y-125514793D01*
X180257744Y-125131299D01*
X180176128Y-124780806D01*
G37*
X180176128Y-124780806D02*
X179935239Y-124480630D01*
X179934152Y-124479715D01*
X179745701Y-124345506D01*
X179558655Y-124291503D01*
X179294628Y-124297204D01*
X179251549Y-124301166D01*
X178859730Y-124396806D01*
X178598389Y-124599341D01*
X178462249Y-124914449D01*
X178438387Y-125176384D01*
X178470728Y-125481441D01*
X178583627Y-125697114D01*
X178633718Y-125751842D01*
X178932297Y-125948044D01*
X179278068Y-126021246D01*
X179343569Y-126013174D01*
X179343569Y-125633480D01*
X179024667Y-125574013D01*
X178818675Y-125415498D01*
X178742157Y-125187768D01*
X178811677Y-124920654D01*
X178885231Y-124807980D01*
X179036296Y-124728929D01*
X179277999Y-124704017D01*
X179541417Y-124730682D01*
X179757629Y-124806362D01*
X179807554Y-124842269D01*
X179937432Y-125048585D01*
X179927449Y-125267851D01*
X179799460Y-125462801D01*
X179575319Y-125596168D01*
X179343569Y-125633480D01*
X179343569Y-126013174D01*
X179626098Y-125978353D01*
X179931452Y-125826273D01*
X180149196Y-125571910D01*
X180176037Y-125514793D01*
X180257744Y-125131299D01*
X180176128Y-124780806D01*
G36*
X180185027Y-121963982D02*
G01*
X180076029Y-121917842D01*
X179867015Y-121927320D01*
X179535608Y-121992470D01*
X179231104Y-122068032D01*
X178860860Y-122168565D01*
X178626286Y-122247153D01*
X178497712Y-122318411D01*
X178445468Y-122396953D01*
X178438387Y-122458480D01*
X178463638Y-122557833D01*
X178559309Y-122641489D01*
X178755284Y-122725640D01*
X179081442Y-122826474D01*
X179157129Y-122847882D01*
X179403581Y-122920661D01*
X179524688Y-122976790D01*
X179511613Y-123030545D01*
X179355519Y-123096204D01*
X179047570Y-123188045D01*
X178925220Y-123222564D01*
X178635257Y-123318294D01*
X178483029Y-123410161D01*
X178438392Y-123516447D01*
X178438387Y-123517825D01*
X178469360Y-123671050D01*
X178504308Y-123716895D01*
X178624765Y-123761250D01*
X178861991Y-123829572D01*
X179167308Y-123909751D01*
X179492041Y-123989677D01*
X179787511Y-124057240D01*
X180005043Y-124100330D01*
X180082327Y-124109480D01*
X180193576Y-124039033D01*
X180216387Y-123944408D01*
X180185370Y-123844137D01*
X180068909Y-123770398D01*
X179831889Y-123704873D01*
X179708387Y-123679392D01*
X179442103Y-123618599D01*
X179258177Y-123560540D01*
X179200387Y-123523187D01*
X179275360Y-123474305D01*
X179469932Y-123404652D01*
X179687220Y-123343702D01*
X179962406Y-123265606D01*
X180109457Y-123192060D01*
X180166757Y-123096857D01*
X180174054Y-123011313D01*
X180155075Y-122893184D01*
X180074479Y-122805544D01*
X179896777Y-122724201D01*
X179623720Y-122636147D01*
X179073387Y-122470149D01*
X179644887Y-122346689D01*
X179958376Y-122269706D01*
X180135736Y-122197742D01*
X180208899Y-122115095D01*
X180216387Y-122065688D01*
X180185027Y-121963982D01*
G37*
X180185027Y-121963982D02*
X180076029Y-121917842D01*
X179867015Y-121927320D01*
X179535608Y-121992470D01*
X179231104Y-122068032D01*
X178860860Y-122168565D01*
X178626286Y-122247153D01*
X178497712Y-122318411D01*
X178445468Y-122396953D01*
X178438387Y-122458480D01*
X178463638Y-122557833D01*
X178559309Y-122641489D01*
X178755284Y-122725640D01*
X179081442Y-122826474D01*
X179157129Y-122847882D01*
X179403581Y-122920661D01*
X179524688Y-122976790D01*
X179511613Y-123030545D01*
X179355519Y-123096204D01*
X179047570Y-123188045D01*
X178925220Y-123222564D01*
X178635257Y-123318294D01*
X178483029Y-123410161D01*
X178438392Y-123516447D01*
X178438387Y-123517825D01*
X178469360Y-123671050D01*
X178504308Y-123716895D01*
X178624765Y-123761250D01*
X178861991Y-123829572D01*
X179167308Y-123909751D01*
X179492041Y-123989677D01*
X179787511Y-124057240D01*
X180005043Y-124100330D01*
X180082327Y-124109480D01*
X180193576Y-124039033D01*
X180216387Y-123944408D01*
X180185370Y-123844137D01*
X180068909Y-123770398D01*
X179831889Y-123704873D01*
X179708387Y-123679392D01*
X179442103Y-123618599D01*
X179258177Y-123560540D01*
X179200387Y-123523187D01*
X179275360Y-123474305D01*
X179469932Y-123404652D01*
X179687220Y-123343702D01*
X179962406Y-123265606D01*
X180109457Y-123192060D01*
X180166757Y-123096857D01*
X180174054Y-123011313D01*
X180155075Y-122893184D01*
X180074479Y-122805544D01*
X179896777Y-122724201D01*
X179623720Y-122636147D01*
X179073387Y-122470149D01*
X179644887Y-122346689D01*
X179958376Y-122269706D01*
X180135736Y-122197742D01*
X180208899Y-122115095D01*
X180216387Y-122065688D01*
X180185027Y-121963982D01*
G36*
X180198782Y-121018527D02*
G01*
X180171372Y-120664231D01*
X180127225Y-120447179D01*
X180074380Y-120374551D01*
X180020880Y-120453524D01*
X179974766Y-120691280D01*
X179962387Y-120807480D01*
X179928191Y-121080641D01*
X179876258Y-121226909D01*
X179786910Y-121288715D01*
X179734162Y-121299599D01*
X179625197Y-121298629D01*
X179565254Y-121230009D01*
X179534921Y-121054914D01*
X179522495Y-120876265D01*
X179491998Y-120595250D01*
X179435636Y-120455330D01*
X179369720Y-120426480D01*
X179286966Y-120478011D01*
X179237585Y-120650754D01*
X179217129Y-120870980D01*
X179194858Y-121130882D01*
X179152517Y-121263444D01*
X179068513Y-121310655D01*
X178988521Y-121315480D01*
X178873162Y-121301276D01*
X178808715Y-121231789D01*
X178776268Y-121066707D01*
X178760112Y-120828647D01*
X178732563Y-120535814D01*
X178682788Y-120383139D01*
X178607720Y-120341814D01*
X178536550Y-120381048D01*
X178491107Y-120518357D01*
X178463918Y-120783154D01*
X178456197Y-120938179D01*
X178451961Y-121241945D01*
X178464030Y-121476179D01*
X178489799Y-121592425D01*
X178491475Y-121594346D01*
X178596773Y-121619778D01*
X178831799Y-121639833D01*
X179156971Y-121651870D01*
X179387393Y-121654147D01*
X180223510Y-121654147D01*
X180198782Y-121018527D01*
G37*
X180198782Y-121018527D02*
X180171372Y-120664231D01*
X180127225Y-120447179D01*
X180074380Y-120374551D01*
X180020880Y-120453524D01*
X179974766Y-120691280D01*
X179962387Y-120807480D01*
X179928191Y-121080641D01*
X179876258Y-121226909D01*
X179786910Y-121288715D01*
X179734162Y-121299599D01*
X179625197Y-121298629D01*
X179565254Y-121230009D01*
X179534921Y-121054914D01*
X179522495Y-120876265D01*
X179491998Y-120595250D01*
X179435636Y-120455330D01*
X179369720Y-120426480D01*
X179286966Y-120478011D01*
X179237585Y-120650754D01*
X179217129Y-120870980D01*
X179194858Y-121130882D01*
X179152517Y-121263444D01*
X179068513Y-121310655D01*
X178988521Y-121315480D01*
X178873162Y-121301276D01*
X178808715Y-121231789D01*
X178776268Y-121066707D01*
X178760112Y-120828647D01*
X178732563Y-120535814D01*
X178682788Y-120383139D01*
X178607720Y-120341814D01*
X178536550Y-120381048D01*
X178491107Y-120518357D01*
X178463918Y-120783154D01*
X178456197Y-120938179D01*
X178451961Y-121241945D01*
X178464030Y-121476179D01*
X178489799Y-121592425D01*
X178491475Y-121594346D01*
X178596773Y-121619778D01*
X178831799Y-121639833D01*
X179156971Y-121651870D01*
X179387393Y-121654147D01*
X180223510Y-121654147D01*
X180198782Y-121018527D01*
G36*
X180166199Y-118912232D02*
G01*
X180083449Y-118768949D01*
X180080558Y-118765725D01*
X179875994Y-118637587D01*
X179634340Y-118613331D01*
X179424431Y-118692615D01*
X179353897Y-118769356D01*
X179285213Y-118861258D01*
X179205169Y-118880144D01*
X179065443Y-118820810D01*
X178887864Y-118719183D01*
X178669527Y-118597856D01*
X178551433Y-118560776D01*
X178490938Y-118601323D01*
X178466953Y-118653829D01*
X178448496Y-118741324D01*
X178484040Y-118827414D01*
X178598075Y-118939059D01*
X178815088Y-119103224D01*
X178984751Y-119223933D01*
X179161084Y-119392450D01*
X179190187Y-119528871D01*
X179073907Y-119609780D01*
X178953312Y-119622147D01*
X178724343Y-119639359D01*
X178572312Y-119673539D01*
X178456744Y-119782192D01*
X178456814Y-119923372D01*
X178550921Y-120009312D01*
X178682247Y-120026049D01*
X178936931Y-120033873D01*
X179269184Y-120031805D01*
X179418755Y-120027821D01*
X179708387Y-120018360D01*
X179708387Y-119622147D01*
X179525703Y-119598264D01*
X179459393Y-119501333D01*
X179454387Y-119426663D01*
X179506200Y-119202322D01*
X179581387Y-119066829D01*
X179683222Y-118952822D01*
X179758874Y-118973828D01*
X179835387Y-119066829D01*
X179937573Y-119278821D01*
X179962387Y-119426663D01*
X179931355Y-119567261D01*
X179805410Y-119618294D01*
X179708387Y-119622147D01*
X179708387Y-120018360D01*
X180174054Y-120003147D01*
X180199514Y-119464225D01*
X180202229Y-119128383D01*
X180166199Y-118912232D01*
G37*
X180166199Y-118912232D02*
X180083449Y-118768949D01*
X180080558Y-118765725D01*
X179875994Y-118637587D01*
X179634340Y-118613331D01*
X179424431Y-118692615D01*
X179353897Y-118769356D01*
X179285213Y-118861258D01*
X179205169Y-118880144D01*
X179065443Y-118820810D01*
X178887864Y-118719183D01*
X178669527Y-118597856D01*
X178551433Y-118560776D01*
X178490938Y-118601323D01*
X178466953Y-118653829D01*
X178448496Y-118741324D01*
X178484040Y-118827414D01*
X178598075Y-118939059D01*
X178815088Y-119103224D01*
X178984751Y-119223933D01*
X179161084Y-119392450D01*
X179190187Y-119528871D01*
X179073907Y-119609780D01*
X178953312Y-119622147D01*
X178724343Y-119639359D01*
X178572312Y-119673539D01*
X178456744Y-119782192D01*
X178456814Y-119923372D01*
X178550921Y-120009312D01*
X178682247Y-120026049D01*
X178936931Y-120033873D01*
X179269184Y-120031805D01*
X179418755Y-120027821D01*
X179708387Y-120018360D01*
X179708387Y-119622147D01*
X179525703Y-119598264D01*
X179459393Y-119501333D01*
X179454387Y-119426663D01*
X179506200Y-119202322D01*
X179581387Y-119066829D01*
X179683222Y-118952822D01*
X179758874Y-118973828D01*
X179835387Y-119066829D01*
X179937573Y-119278821D01*
X179962387Y-119426663D01*
X179931355Y-119567261D01*
X179805410Y-119618294D01*
X179708387Y-119622147D01*
X179708387Y-120018360D01*
X180174054Y-120003147D01*
X180199514Y-119464225D01*
X180202229Y-119128383D01*
X180166199Y-118912232D01*
G36*
X182918201Y-128195120D02*
G01*
X182897648Y-127882216D01*
X182867066Y-127680309D01*
X182841054Y-127623147D01*
X182822173Y-127526614D01*
X182805576Y-127263713D01*
X182791309Y-126837396D01*
X182779415Y-126250615D01*
X182769939Y-125506319D01*
X182762927Y-124607460D01*
X182758423Y-123556990D01*
X182756471Y-122357860D01*
X182756387Y-122030150D01*
X182756299Y-120926431D01*
X182755787Y-119979961D01*
X182754483Y-119178659D01*
X182752018Y-118510439D01*
X182748021Y-117963219D01*
X182742124Y-117524916D01*
X182733958Y-117183447D01*
X182723152Y-116926727D01*
X182709339Y-116742674D01*
X182692148Y-116619204D01*
X182671210Y-116544234D01*
X182646157Y-116505681D01*
X182616618Y-116491461D01*
X182587054Y-116489480D01*
X182515951Y-116479616D01*
X182468124Y-116431432D01*
X182438982Y-116317040D01*
X182423936Y-116108552D01*
X182418398Y-115778082D01*
X182417720Y-115460475D01*
X182417720Y-114431469D01*
X182087692Y-114126788D01*
X181889844Y-113911787D01*
X181752043Y-113702086D01*
X181718222Y-113610627D01*
X181705298Y-113622390D01*
X181692917Y-113781590D01*
X181681916Y-114066332D01*
X181673131Y-114454719D01*
X181667399Y-114924857D01*
X181667251Y-114944314D01*
X181655720Y-116489480D01*
X182420112Y-116489480D01*
X182381897Y-122056314D01*
X182374422Y-123039761D01*
X182365782Y-123994409D01*
X182356218Y-124903238D01*
X182345973Y-125749230D01*
X182335287Y-126515368D01*
X182324403Y-127184634D01*
X182313563Y-127740008D01*
X182303009Y-128164473D01*
X182292982Y-128441012D01*
X182290513Y-128486231D01*
X182272245Y-128986420D01*
X182291770Y-129338998D01*
X182353376Y-129562339D01*
X182461350Y-129674817D01*
X182573099Y-129697480D01*
X182718993Y-129673664D01*
X182819272Y-129585585D01*
X182881841Y-129408296D01*
X182914608Y-129116851D01*
X182925478Y-128686303D01*
X182925720Y-128584877D01*
X182918201Y-128195120D01*
G37*
X182918201Y-128195120D02*
X182897648Y-127882216D01*
X182867066Y-127680309D01*
X182841054Y-127623147D01*
X182822173Y-127526614D01*
X182805576Y-127263713D01*
X182791309Y-126837396D01*
X182779415Y-126250615D01*
X182769939Y-125506319D01*
X182762927Y-124607460D01*
X182758423Y-123556990D01*
X182756471Y-122357860D01*
X182756387Y-122030150D01*
X182756299Y-120926431D01*
X182755787Y-119979961D01*
X182754483Y-119178659D01*
X182752018Y-118510439D01*
X182748021Y-117963219D01*
X182742124Y-117524916D01*
X182733958Y-117183447D01*
X182723152Y-116926727D01*
X182709339Y-116742674D01*
X182692148Y-116619204D01*
X182671210Y-116544234D01*
X182646157Y-116505681D01*
X182616618Y-116491461D01*
X182587054Y-116489480D01*
X182515951Y-116479616D01*
X182468124Y-116431432D01*
X182438982Y-116317040D01*
X182423936Y-116108552D01*
X182418398Y-115778082D01*
X182417720Y-115460475D01*
X182417720Y-114431469D01*
X182087692Y-114126788D01*
X181889844Y-113911787D01*
X181752043Y-113702086D01*
X181718222Y-113610627D01*
X181705298Y-113622390D01*
X181692917Y-113781590D01*
X181681916Y-114066332D01*
X181673131Y-114454719D01*
X181667399Y-114924857D01*
X181667251Y-114944314D01*
X181655720Y-116489480D01*
X182420112Y-116489480D01*
X182381897Y-122056314D01*
X182374422Y-123039761D01*
X182365782Y-123994409D01*
X182356218Y-124903238D01*
X182345973Y-125749230D01*
X182335287Y-126515368D01*
X182324403Y-127184634D01*
X182313563Y-127740008D01*
X182303009Y-128164473D01*
X182292982Y-128441012D01*
X182290513Y-128486231D01*
X182272245Y-128986420D01*
X182291770Y-129338998D01*
X182353376Y-129562339D01*
X182461350Y-129674817D01*
X182573099Y-129697480D01*
X182718993Y-129673664D01*
X182819272Y-129585585D01*
X182881841Y-129408296D01*
X182914608Y-129116851D01*
X182925478Y-128686303D01*
X182925720Y-128584877D01*
X182918201Y-128195120D01*
G36*
X181698054Y-113272147D02*
G01*
X181655720Y-113314480D01*
X181698054Y-113356814D01*
X181740387Y-113314480D01*
X181698054Y-113272147D01*
G37*
X181698054Y-113272147D02*
X181655720Y-113314480D01*
X181698054Y-113356814D01*
X181740387Y-113314480D01*
X181698054Y-113272147D01*
G36*
X184081225Y-127878790D02*
G01*
X184050501Y-127678513D01*
X184029393Y-127634620D01*
X184008966Y-127529985D01*
X183991260Y-127259347D01*
X183976265Y-126822238D01*
X183963977Y-126218190D01*
X183954386Y-125446737D01*
X183947486Y-124507409D01*
X183943269Y-123399741D01*
X183941728Y-122123264D01*
X183941720Y-122018214D01*
X183941632Y-120915771D01*
X183941118Y-119970564D01*
X183939810Y-119170498D01*
X183937336Y-118503477D01*
X183933326Y-117957403D01*
X183927410Y-117520181D01*
X183919217Y-117179714D01*
X183908376Y-116923906D01*
X183894517Y-116740660D01*
X183877270Y-116617880D01*
X183856264Y-116543470D01*
X183831129Y-116505333D01*
X183801493Y-116491373D01*
X183772387Y-116489480D01*
X183676166Y-116470058D01*
X183624936Y-116385523D01*
X183604918Y-116196471D01*
X183602122Y-116002647D01*
X183590832Y-115540790D01*
X183552543Y-115216039D01*
X183477526Y-114997052D01*
X183356047Y-114852484D01*
X183219277Y-114769541D01*
X183000476Y-114613468D01*
X182901390Y-114440770D01*
X182887098Y-114446755D01*
X182873614Y-114597765D01*
X182862218Y-114869494D01*
X182854190Y-115237635D01*
X182852584Y-115367647D01*
X182841054Y-116489480D01*
X183605446Y-116489480D01*
X183565257Y-122056314D01*
X183557862Y-123043350D01*
X183550146Y-124004359D01*
X183542282Y-124921946D01*
X183534442Y-125778718D01*
X183526798Y-126557280D01*
X183519524Y-127240236D01*
X183512790Y-127810194D01*
X183506770Y-128249757D01*
X183501635Y-128541531D01*
X183500561Y-128587356D01*
X183492774Y-129011939D01*
X183497467Y-129298679D01*
X183518293Y-129478838D01*
X183558906Y-129583676D01*
X183622960Y-129644456D01*
X183624220Y-129645257D01*
X183806313Y-129693674D01*
X183920554Y-129645698D01*
X183988649Y-129576865D01*
X184035106Y-129451081D01*
X184065274Y-129237057D01*
X184084500Y-128903504D01*
X184092893Y-128637370D01*
X184095923Y-128207371D01*
X184081225Y-127878790D01*
G37*
X184081225Y-127878790D02*
X184050501Y-127678513D01*
X184029393Y-127634620D01*
X184008966Y-127529985D01*
X183991260Y-127259347D01*
X183976265Y-126822238D01*
X183963977Y-126218190D01*
X183954386Y-125446737D01*
X183947486Y-124507409D01*
X183943269Y-123399741D01*
X183941728Y-122123264D01*
X183941720Y-122018214D01*
X183941632Y-120915771D01*
X183941118Y-119970564D01*
X183939810Y-119170498D01*
X183937336Y-118503477D01*
X183933326Y-117957403D01*
X183927410Y-117520181D01*
X183919217Y-117179714D01*
X183908376Y-116923906D01*
X183894517Y-116740660D01*
X183877270Y-116617880D01*
X183856264Y-116543470D01*
X183831129Y-116505333D01*
X183801493Y-116491373D01*
X183772387Y-116489480D01*
X183676166Y-116470058D01*
X183624936Y-116385523D01*
X183604918Y-116196471D01*
X183602122Y-116002647D01*
X183590832Y-115540790D01*
X183552543Y-115216039D01*
X183477526Y-114997052D01*
X183356047Y-114852484D01*
X183219277Y-114769541D01*
X183000476Y-114613468D01*
X182901390Y-114440770D01*
X182887098Y-114446755D01*
X182873614Y-114597765D01*
X182862218Y-114869494D01*
X182854190Y-115237635D01*
X182852584Y-115367647D01*
X182841054Y-116489480D01*
X183605446Y-116489480D01*
X183565257Y-122056314D01*
X183557862Y-123043350D01*
X183550146Y-124004359D01*
X183542282Y-124921946D01*
X183534442Y-125778718D01*
X183526798Y-126557280D01*
X183519524Y-127240236D01*
X183512790Y-127810194D01*
X183506770Y-128249757D01*
X183501635Y-128541531D01*
X183500561Y-128587356D01*
X183492774Y-129011939D01*
X183497467Y-129298679D01*
X183518293Y-129478838D01*
X183558906Y-129583676D01*
X183622960Y-129644456D01*
X183624220Y-129645257D01*
X183806313Y-129693674D01*
X183920554Y-129645698D01*
X183988649Y-129576865D01*
X184035106Y-129451081D01*
X184065274Y-129237057D01*
X184084500Y-128903504D01*
X184092893Y-128637370D01*
X184095923Y-128207371D01*
X184081225Y-127878790D01*
G36*
X185266558Y-127878790D02*
G01*
X185235835Y-127678513D01*
X185214726Y-127634620D01*
X185194300Y-127529985D01*
X185176593Y-127259347D01*
X185161599Y-126822238D01*
X185149310Y-126218190D01*
X185139719Y-125446737D01*
X185132819Y-124507409D01*
X185128602Y-123399741D01*
X185127062Y-122123264D01*
X185127054Y-122018214D01*
X185126912Y-120915171D01*
X185126254Y-119969384D01*
X185124735Y-119168776D01*
X185122006Y-118501271D01*
X185117722Y-117954791D01*
X185111535Y-117517260D01*
X185103099Y-117176600D01*
X185092066Y-116920734D01*
X185078092Y-116737586D01*
X185060827Y-116615079D01*
X185039926Y-116541134D01*
X185015042Y-116503677D01*
X184985828Y-116490629D01*
X184968304Y-116489480D01*
X184833490Y-116409261D01*
X184744748Y-116175435D01*
X184705433Y-115798254D01*
X184703720Y-115681130D01*
X184680856Y-115483797D01*
X184579216Y-115373233D01*
X184412643Y-115305882D01*
X184170192Y-115172099D01*
X184085506Y-115024149D01*
X184069483Y-115022050D01*
X184054717Y-115163131D01*
X184043155Y-115421241D01*
X184037917Y-115663980D01*
X184026387Y-116489480D01*
X184788387Y-116489480D01*
X184788387Y-122018214D01*
X184787052Y-123307678D01*
X184783041Y-124428297D01*
X184776347Y-125380539D01*
X184766963Y-126164871D01*
X184754882Y-126781762D01*
X184740096Y-127231678D01*
X184722598Y-127515087D01*
X184702381Y-127632457D01*
X184700715Y-127634620D01*
X184662532Y-127759734D01*
X184639513Y-128026758D01*
X184633360Y-128408804D01*
X184637215Y-128637370D01*
X184652487Y-129056307D01*
X184675540Y-129337216D01*
X184711721Y-129511388D01*
X184766377Y-129610110D01*
X184809554Y-129645698D01*
X184992046Y-129693629D01*
X185105887Y-129645698D01*
X185173982Y-129576865D01*
X185220440Y-129451081D01*
X185250608Y-129237057D01*
X185269834Y-128903504D01*
X185278226Y-128637370D01*
X185281256Y-128207371D01*
X185266558Y-127878790D01*
G37*
X185266558Y-127878790D02*
X185235835Y-127678513D01*
X185214726Y-127634620D01*
X185194300Y-127529985D01*
X185176593Y-127259347D01*
X185161599Y-126822238D01*
X185149310Y-126218190D01*
X185139719Y-125446737D01*
X185132819Y-124507409D01*
X185128602Y-123399741D01*
X185127062Y-122123264D01*
X185127054Y-122018214D01*
X185126912Y-120915171D01*
X185126254Y-119969384D01*
X185124735Y-119168776D01*
X185122006Y-118501271D01*
X185117722Y-117954791D01*
X185111535Y-117517260D01*
X185103099Y-117176600D01*
X185092066Y-116920734D01*
X185078092Y-116737586D01*
X185060827Y-116615079D01*
X185039926Y-116541134D01*
X185015042Y-116503677D01*
X184985828Y-116490629D01*
X184968304Y-116489480D01*
X184833490Y-116409261D01*
X184744748Y-116175435D01*
X184705433Y-115798254D01*
X184703720Y-115681130D01*
X184680856Y-115483797D01*
X184579216Y-115373233D01*
X184412643Y-115305882D01*
X184170192Y-115172099D01*
X184085506Y-115024149D01*
X184069483Y-115022050D01*
X184054717Y-115163131D01*
X184043155Y-115421241D01*
X184037917Y-115663980D01*
X184026387Y-116489480D01*
X184788387Y-116489480D01*
X184788387Y-122018214D01*
X184787052Y-123307678D01*
X184783041Y-124428297D01*
X184776347Y-125380539D01*
X184766963Y-126164871D01*
X184754882Y-126781762D01*
X184740096Y-127231678D01*
X184722598Y-127515087D01*
X184702381Y-127632457D01*
X184700715Y-127634620D01*
X184662532Y-127759734D01*
X184639513Y-128026758D01*
X184633360Y-128408804D01*
X184637215Y-128637370D01*
X184652487Y-129056307D01*
X184675540Y-129337216D01*
X184711721Y-129511388D01*
X184766377Y-129610110D01*
X184809554Y-129645698D01*
X184992046Y-129693629D01*
X185105887Y-129645698D01*
X185173982Y-129576865D01*
X185220440Y-129451081D01*
X185250608Y-129237057D01*
X185269834Y-128903504D01*
X185278226Y-128637370D01*
X185281256Y-128207371D01*
X185266558Y-127878790D01*
G36*
X189111322Y-115884199D02*
G01*
X188891796Y-115864257D01*
X188561982Y-115850711D01*
X188151386Y-115845061D01*
X187942221Y-115845536D01*
X187178412Y-115836218D01*
X186527019Y-115797800D01*
X185999996Y-115732115D01*
X185609298Y-115640999D01*
X185366879Y-115526287D01*
X185294111Y-115439030D01*
X185255028Y-115401316D01*
X185229950Y-115521109D01*
X185217958Y-115803619D01*
X185217087Y-115875647D01*
X185211720Y-116489480D01*
X186814875Y-116489480D01*
X187333079Y-116485287D01*
X187804893Y-116473628D01*
X188199435Y-116455884D01*
X188485822Y-116433439D01*
X188631828Y-116408195D01*
X188835408Y-116297085D01*
X189030352Y-116140088D01*
X189163241Y-115984887D01*
X189191054Y-115909036D01*
X189111322Y-115884199D01*
G37*
X189111322Y-115884199D02*
X188891796Y-115864257D01*
X188561982Y-115850711D01*
X188151386Y-115845061D01*
X187942221Y-115845536D01*
X187178412Y-115836218D01*
X186527019Y-115797800D01*
X185999996Y-115732115D01*
X185609298Y-115640999D01*
X185366879Y-115526287D01*
X185294111Y-115439030D01*
X185255028Y-115401316D01*
X185229950Y-115521109D01*
X185217958Y-115803619D01*
X185217087Y-115875647D01*
X185211720Y-116489480D01*
X186814875Y-116489480D01*
X187333079Y-116485287D01*
X187804893Y-116473628D01*
X188199435Y-116455884D01*
X188485822Y-116433439D01*
X188631828Y-116408195D01*
X188835408Y-116297085D01*
X189030352Y-116140088D01*
X189163241Y-115984887D01*
X189191054Y-115909036D01*
X189111322Y-115884199D01*
G36*
X189268250Y-125978692D02*
G01*
X189238837Y-125580335D01*
X189176976Y-125295485D01*
X189072166Y-125096422D01*
X188913900Y-124955428D01*
X188691677Y-124844783D01*
X188632814Y-124821628D01*
X188374351Y-124734951D01*
X188183504Y-124717646D01*
X187974964Y-124766364D01*
X187897847Y-124792770D01*
X187601650Y-124931911D01*
X187396840Y-125124214D01*
X187266986Y-125400341D01*
X187195654Y-125790956D01*
X187171796Y-126147546D01*
X187142206Y-126903480D01*
X186058387Y-126903480D01*
X186058387Y-127580814D01*
X188273832Y-127580814D01*
X188273832Y-126903480D01*
X188020985Y-126891280D01*
X187842380Y-126860299D01*
X187800137Y-126839980D01*
X187765283Y-126716783D01*
X187758400Y-126484621D01*
X187774757Y-126200680D01*
X187809627Y-125922142D01*
X187858281Y-125706190D01*
X187901063Y-125619605D01*
X188067666Y-125541631D01*
X188295475Y-125525085D01*
X188504920Y-125567600D01*
X188604539Y-125640536D01*
X188643558Y-125782855D01*
X188671409Y-126037765D01*
X188681757Y-126331980D01*
X188683054Y-126903480D01*
X188273832Y-126903480D01*
X188273832Y-127580814D01*
X189275720Y-127580814D01*
X189275720Y-126518276D01*
X189268250Y-125978692D01*
G37*
X189268250Y-125978692D02*
X189238837Y-125580335D01*
X189176976Y-125295485D01*
X189072166Y-125096422D01*
X188913900Y-124955428D01*
X188691677Y-124844783D01*
X188632814Y-124821628D01*
X188374351Y-124734951D01*
X188183504Y-124717646D01*
X187974964Y-124766364D01*
X187897847Y-124792770D01*
X187601650Y-124931911D01*
X187396840Y-125124214D01*
X187266986Y-125400341D01*
X187195654Y-125790956D01*
X187171796Y-126147546D01*
X187142206Y-126903480D01*
X186058387Y-126903480D01*
X186058387Y-127580814D01*
X188273832Y-127580814D01*
X188273832Y-126903480D01*
X188020985Y-126891280D01*
X187842380Y-126860299D01*
X187800137Y-126839980D01*
X187765283Y-126716783D01*
X187758400Y-126484621D01*
X187774757Y-126200680D01*
X187809627Y-125922142D01*
X187858281Y-125706190D01*
X187901063Y-125619605D01*
X188067666Y-125541631D01*
X188295475Y-125525085D01*
X188504920Y-125567600D01*
X188604539Y-125640536D01*
X188643558Y-125782855D01*
X188671409Y-126037765D01*
X188681757Y-126331980D01*
X188683054Y-126903480D01*
X188273832Y-126903480D01*
X188273832Y-127580814D01*
X189275720Y-127580814D01*
X189275720Y-126518276D01*
X189268250Y-125978692D01*
G36*
X189008202Y-121838712D02*
G01*
X188725387Y-121865814D01*
X188683054Y-122614406D01*
X188657077Y-122984736D01*
X188622625Y-123226404D01*
X188568881Y-123380065D01*
X188485024Y-123486374D01*
X188440841Y-123524573D01*
X188219780Y-123624249D01*
X187898210Y-123679456D01*
X187539790Y-123687220D01*
X187208181Y-123644564D01*
X187040695Y-123590012D01*
X186898141Y-123508088D01*
X186801146Y-123393616D01*
X186737027Y-123211771D01*
X186693100Y-122927727D01*
X186659386Y-122543147D01*
X186608720Y-121865814D01*
X186100720Y-121865814D01*
X186087901Y-122627814D01*
X186086861Y-122989380D01*
X186095076Y-123301157D01*
X186110888Y-123513356D01*
X186118954Y-123559147D01*
X186282844Y-123894348D01*
X186565409Y-124183960D01*
X186785180Y-124318854D01*
X187144502Y-124426292D01*
X187586478Y-124469310D01*
X188040577Y-124448191D01*
X188436272Y-124363218D01*
X188561783Y-124311718D01*
X188829350Y-124156517D01*
X189017497Y-123978966D01*
X189140961Y-123746059D01*
X189214478Y-123424792D01*
X189252784Y-122982161D01*
X189262202Y-122742974D01*
X189291017Y-121811611D01*
X189008202Y-121838712D01*
G37*
X189008202Y-121838712D02*
X188725387Y-121865814D01*
X188683054Y-122614406D01*
X188657077Y-122984736D01*
X188622625Y-123226404D01*
X188568881Y-123380065D01*
X188485024Y-123486374D01*
X188440841Y-123524573D01*
X188219780Y-123624249D01*
X187898210Y-123679456D01*
X187539790Y-123687220D01*
X187208181Y-123644564D01*
X187040695Y-123590012D01*
X186898141Y-123508088D01*
X186801146Y-123393616D01*
X186737027Y-123211771D01*
X186693100Y-122927727D01*
X186659386Y-122543147D01*
X186608720Y-121865814D01*
X186100720Y-121865814D01*
X186087901Y-122627814D01*
X186086861Y-122989380D01*
X186095076Y-123301157D01*
X186110888Y-123513356D01*
X186118954Y-123559147D01*
X186282844Y-123894348D01*
X186565409Y-124183960D01*
X186785180Y-124318854D01*
X187144502Y-124426292D01*
X187586478Y-124469310D01*
X188040577Y-124448191D01*
X188436272Y-124363218D01*
X188561783Y-124311718D01*
X188829350Y-124156517D01*
X189017497Y-123978966D01*
X189140961Y-123746059D01*
X189214478Y-123424792D01*
X189252784Y-122982161D01*
X189262202Y-122742974D01*
X189291017Y-121811611D01*
X189008202Y-121838712D01*
G36*
X189269139Y-119712628D02*
G01*
X189243583Y-119313930D01*
X189190330Y-119031895D01*
X189100663Y-118840344D01*
X188965860Y-118713095D01*
X188777202Y-118623970D01*
X188726977Y-118606672D01*
X188360997Y-118555676D01*
X188041666Y-118646066D01*
X187878253Y-118775997D01*
X187782627Y-118865416D01*
X187689085Y-118874298D01*
X187541919Y-118795589D01*
X187427522Y-118718942D01*
X187071522Y-118562973D01*
X186720121Y-118573103D01*
X186392849Y-118747609D01*
X186316938Y-118816870D01*
X186230925Y-118910482D01*
X186170479Y-119011120D01*
X186130167Y-119149968D01*
X186104558Y-119358211D01*
X186088220Y-119667034D01*
X186075723Y-120107622D01*
X186073154Y-120216497D01*
X186045588Y-121400147D01*
X187413054Y-121400147D01*
X187413054Y-120722814D01*
X186651054Y-120722814D01*
X186651054Y-120209248D01*
X186665132Y-119904649D01*
X186701528Y-119650141D01*
X186738699Y-119531914D01*
X186890360Y-119400067D01*
X187032054Y-119368147D01*
X187217798Y-119418945D01*
X187337570Y-119583384D01*
X187399555Y-119879530D01*
X187413054Y-120209248D01*
X187413054Y-120722814D01*
X187413054Y-121400147D01*
X187998598Y-121400147D01*
X187998598Y-120722814D01*
X188048054Y-119410480D01*
X188640720Y-119410480D01*
X188665449Y-120066647D01*
X188690177Y-120722814D01*
X187998598Y-120722814D01*
X187998598Y-121400147D01*
X189275720Y-121400147D01*
X189275720Y-120254168D01*
X189269139Y-119712628D01*
G37*
X189269139Y-119712628D02*
X189243583Y-119313930D01*
X189190330Y-119031895D01*
X189100663Y-118840344D01*
X188965860Y-118713095D01*
X188777202Y-118623970D01*
X188726977Y-118606672D01*
X188360997Y-118555676D01*
X188041666Y-118646066D01*
X187878253Y-118775997D01*
X187782627Y-118865416D01*
X187689085Y-118874298D01*
X187541919Y-118795589D01*
X187427522Y-118718942D01*
X187071522Y-118562973D01*
X186720121Y-118573103D01*
X186392849Y-118747609D01*
X186316938Y-118816870D01*
X186230925Y-118910482D01*
X186170479Y-119011120D01*
X186130167Y-119149968D01*
X186104558Y-119358211D01*
X186088220Y-119667034D01*
X186075723Y-120107622D01*
X186073154Y-120216497D01*
X186045588Y-121400147D01*
X187413054Y-121400147D01*
X187413054Y-120722814D01*
X186651054Y-120722814D01*
X186651054Y-120209248D01*
X186665132Y-119904649D01*
X186701528Y-119650141D01*
X186738699Y-119531914D01*
X186890360Y-119400067D01*
X187032054Y-119368147D01*
X187217798Y-119418945D01*
X187337570Y-119583384D01*
X187399555Y-119879530D01*
X187413054Y-120209248D01*
X187413054Y-120722814D01*
X187413054Y-121400147D01*
X187998598Y-121400147D01*
X187998598Y-120722814D01*
X188048054Y-119410480D01*
X188640720Y-119410480D01*
X188665449Y-120066647D01*
X188690177Y-120722814D01*
X187998598Y-120722814D01*
X187998598Y-121400147D01*
X189275720Y-121400147D01*
X189275720Y-120254168D01*
X189269139Y-119712628D01*
G36*
X186370483Y-115682993D02*
G01*
X186323187Y-115621647D01*
X186199607Y-115490018D01*
X186144444Y-115490590D01*
X186143054Y-115505447D01*
X186200913Y-115576121D01*
X186291220Y-115653614D01*
X186391508Y-115726837D01*
X186370483Y-115682993D01*
G37*
X186370483Y-115682993D02*
X186323187Y-115621647D01*
X186199607Y-115490018D01*
X186144444Y-115490590D01*
X186143054Y-115505447D01*
X186200913Y-115576121D01*
X186291220Y-115653614D01*
X186391508Y-115726837D01*
X186370483Y-115682993D01*
G36*
X118098962Y-102206646D02*
G01*
X118052949Y-102016816D01*
X117935556Y-101754085D01*
X117738795Y-101599489D01*
X117702749Y-101583382D01*
X117394754Y-101510208D01*
X117143099Y-101588673D01*
X116956491Y-101769994D01*
X116853185Y-101978921D01*
X116794577Y-102251623D01*
X116782222Y-102534226D01*
X116817679Y-102772860D01*
X116902504Y-102913652D01*
X116923125Y-102924442D01*
X117110346Y-102958937D01*
X117390958Y-102973706D01*
X117466533Y-102972454D01*
X117466533Y-102721833D01*
X117043200Y-102721833D01*
X117043200Y-102383167D01*
X117102122Y-102042708D01*
X117214474Y-101873226D01*
X117369436Y-101758789D01*
X117515451Y-101773239D01*
X117557193Y-101793708D01*
X117742643Y-101978566D01*
X117861147Y-102269381D01*
X117889866Y-102515679D01*
X117875343Y-102638115D01*
X117802975Y-102699200D01*
X117629563Y-102719970D01*
X117466533Y-102721833D01*
X117466533Y-102972454D01*
X117690167Y-102968748D01*
X117933184Y-102944064D01*
X118009942Y-102924442D01*
X118110751Y-102800072D01*
X118140894Y-102550900D01*
X118098962Y-102206646D01*
G37*
X118098962Y-102206646D02*
X118052949Y-102016816D01*
X117935556Y-101754085D01*
X117738795Y-101599489D01*
X117702749Y-101583382D01*
X117394754Y-101510208D01*
X117143099Y-101588673D01*
X116956491Y-101769994D01*
X116853185Y-101978921D01*
X116794577Y-102251623D01*
X116782222Y-102534226D01*
X116817679Y-102772860D01*
X116902504Y-102913652D01*
X116923125Y-102924442D01*
X117110346Y-102958937D01*
X117390958Y-102973706D01*
X117466533Y-102972454D01*
X117466533Y-102721833D01*
X117043200Y-102721833D01*
X117043200Y-102383167D01*
X117102122Y-102042708D01*
X117214474Y-101873226D01*
X117369436Y-101758789D01*
X117515451Y-101773239D01*
X117557193Y-101793708D01*
X117742643Y-101978566D01*
X117861147Y-102269381D01*
X117889866Y-102515679D01*
X117875343Y-102638115D01*
X117802975Y-102699200D01*
X117629563Y-102719970D01*
X117466533Y-102721833D01*
X117466533Y-102972454D01*
X117690167Y-102968748D01*
X117933184Y-102944064D01*
X118009942Y-102924442D01*
X118110751Y-102800072D01*
X118140894Y-102550900D01*
X118098962Y-102206646D01*
G36*
X118105862Y-99903995D02*
G01*
X118058271Y-99697786D01*
X117995700Y-99609998D01*
X117930659Y-99643261D01*
X117897144Y-99810239D01*
X117889866Y-100042781D01*
X117867899Y-100347493D01*
X117808956Y-100537809D01*
X117723479Y-100595117D01*
X117627697Y-100510181D01*
X117571198Y-100340219D01*
X117552496Y-100160667D01*
X117524979Y-99991667D01*
X117466533Y-99927833D01*
X117402117Y-100000073D01*
X117381866Y-100132575D01*
X117346405Y-100415808D01*
X117248099Y-100577494D01*
X117165367Y-100605167D01*
X117089245Y-100536294D01*
X117041934Y-100320737D01*
X117026258Y-100125023D01*
X116992837Y-99829922D01*
X116934589Y-99648480D01*
X116895033Y-99609967D01*
X116835786Y-99639978D01*
X116801955Y-99792433D01*
X116789488Y-100088418D01*
X116789200Y-100160667D01*
X116796822Y-100461265D01*
X116816829Y-100691295D01*
X116844931Y-100801963D01*
X116845644Y-100802722D01*
X116962888Y-100836750D01*
X117190869Y-100854059D01*
X117471895Y-100855423D01*
X117748275Y-100841615D01*
X117962318Y-100813412D01*
X118042423Y-100786661D01*
X118100768Y-100668505D01*
X118129318Y-100444947D01*
X118130280Y-100171579D01*
X118105862Y-99903995D01*
G37*
X118105862Y-99903995D02*
X118058271Y-99697786D01*
X117995700Y-99609998D01*
X117930659Y-99643261D01*
X117897144Y-99810239D01*
X117889866Y-100042781D01*
X117867899Y-100347493D01*
X117808956Y-100537809D01*
X117723479Y-100595117D01*
X117627697Y-100510181D01*
X117571198Y-100340219D01*
X117552496Y-100160667D01*
X117524979Y-99991667D01*
X117466533Y-99927833D01*
X117402117Y-100000073D01*
X117381866Y-100132575D01*
X117346405Y-100415808D01*
X117248099Y-100577494D01*
X117165367Y-100605167D01*
X117089245Y-100536294D01*
X117041934Y-100320737D01*
X117026258Y-100125023D01*
X116992837Y-99829922D01*
X116934589Y-99648480D01*
X116895033Y-99609967D01*
X116835786Y-99639978D01*
X116801955Y-99792433D01*
X116789488Y-100088418D01*
X116789200Y-100160667D01*
X116796822Y-100461265D01*
X116816829Y-100691295D01*
X116844931Y-100801963D01*
X116845644Y-100802722D01*
X116962888Y-100836750D01*
X117190869Y-100854059D01*
X117471895Y-100855423D01*
X117748275Y-100841615D01*
X117962318Y-100813412D01*
X118042423Y-100786661D01*
X118100768Y-100668505D01*
X118129318Y-100444947D01*
X118130280Y-100171579D01*
X118105862Y-99903995D01*
G36*
X118067598Y-97787172D02*
G01*
X118066729Y-97784905D01*
X117971950Y-97618558D01*
X117890979Y-97603102D01*
X117841652Y-97720145D01*
X117841803Y-97951292D01*
X117849277Y-98009174D01*
X117863512Y-98287638D01*
X117832848Y-98532110D01*
X117819725Y-98573167D01*
X117737972Y-98784833D01*
X117644586Y-98546488D01*
X117575014Y-98306226D01*
X117551200Y-98120827D01*
X117502104Y-97904728D01*
X117382874Y-97701574D01*
X117235592Y-97573626D01*
X117170200Y-97557167D01*
X117002565Y-97635806D01*
X116875422Y-97852038D01*
X116801986Y-98176333D01*
X116789200Y-98408561D01*
X116798543Y-98678874D01*
X116822628Y-98875506D01*
X116845644Y-98940056D01*
X116944023Y-98994983D01*
X117006317Y-98915437D01*
X117037401Y-98689056D01*
X117043200Y-98439111D01*
X117060995Y-98107150D01*
X117108838Y-97936951D01*
X117178413Y-97930461D01*
X117261404Y-98089624D01*
X117339288Y-98369845D01*
X117406249Y-98633598D01*
X117470740Y-98834487D01*
X117497653Y-98893690D01*
X117639454Y-98986230D01*
X117829624Y-98969987D01*
X117974572Y-98869454D01*
X118066786Y-98664997D01*
X118117157Y-98367880D01*
X118119492Y-98050979D01*
X118067598Y-97787172D01*
G37*
X118067598Y-97787172D02*
X118066729Y-97784905D01*
X117971950Y-97618558D01*
X117890979Y-97603102D01*
X117841652Y-97720145D01*
X117841803Y-97951292D01*
X117849277Y-98009174D01*
X117863512Y-98287638D01*
X117832848Y-98532110D01*
X117819725Y-98573167D01*
X117737972Y-98784833D01*
X117644586Y-98546488D01*
X117575014Y-98306226D01*
X117551200Y-98120827D01*
X117502104Y-97904728D01*
X117382874Y-97701574D01*
X117235592Y-97573626D01*
X117170200Y-97557167D01*
X117002565Y-97635806D01*
X116875422Y-97852038D01*
X116801986Y-98176333D01*
X116789200Y-98408561D01*
X116798543Y-98678874D01*
X116822628Y-98875506D01*
X116845644Y-98940056D01*
X116944023Y-98994983D01*
X117006317Y-98915437D01*
X117037401Y-98689056D01*
X117043200Y-98439111D01*
X117060995Y-98107150D01*
X117108838Y-97936951D01*
X117178413Y-97930461D01*
X117261404Y-98089624D01*
X117339288Y-98369845D01*
X117406249Y-98633598D01*
X117470740Y-98834487D01*
X117497653Y-98893690D01*
X117639454Y-98986230D01*
X117829624Y-98969987D01*
X117974572Y-98869454D01*
X118066786Y-98664997D01*
X118117157Y-98367880D01*
X118119492Y-98050979D01*
X118067598Y-97787172D01*
G36*
X117950448Y-96699287D02*
G01*
X117668300Y-96672370D01*
X117452422Y-96668167D01*
X117088168Y-96681074D01*
X116877477Y-96721376D01*
X116809130Y-96777711D01*
X116828585Y-96833272D01*
X116950242Y-96862515D01*
X117199186Y-96868822D01*
X117437074Y-96862378D01*
X117810059Y-96834208D01*
X118020501Y-96790664D01*
X118067573Y-96742205D01*
X117950448Y-96699287D01*
G37*
X117950448Y-96699287D02*
X117668300Y-96672370D01*
X117452422Y-96668167D01*
X117088168Y-96681074D01*
X116877477Y-96721376D01*
X116809130Y-96777711D01*
X116828585Y-96833272D01*
X116950242Y-96862515D01*
X117199186Y-96868822D01*
X117437074Y-96862378D01*
X117810059Y-96834208D01*
X118020501Y-96790664D01*
X118067573Y-96742205D01*
X117950448Y-96699287D01*
G36*
X118060501Y-94680932D02*
G01*
X117962458Y-94552240D01*
X117893373Y-94588087D01*
X117852620Y-94789439D01*
X117840810Y-95019499D01*
X117796247Y-95383180D01*
X117675983Y-95603431D01*
X117472847Y-95691670D01*
X117416812Y-95694500D01*
X117211368Y-95619737D01*
X117084656Y-95402790D01*
X117043200Y-95070063D01*
X117066657Y-94841772D01*
X117123601Y-94731298D01*
X117193887Y-94756324D01*
X117247448Y-94890752D01*
X117321611Y-95067640D01*
X117396925Y-95091296D01*
X117446977Y-94975566D01*
X117450477Y-94784333D01*
X117412945Y-94566869D01*
X117325615Y-94466210D01*
X117217277Y-94437626D01*
X116995138Y-94476241D01*
X116899777Y-94559642D01*
X116818526Y-94777152D01*
X116794423Y-95079899D01*
X116827540Y-95393695D01*
X116898759Y-95609833D01*
X117086318Y-95842214D01*
X117333166Y-95968836D01*
X117586914Y-95966940D01*
X117655416Y-95938515D01*
X117847091Y-95805198D01*
X117949429Y-95701837D01*
X118052024Y-95476099D01*
X118108826Y-95175041D01*
X118111211Y-94877939D01*
X118060501Y-94680932D01*
G37*
X118060501Y-94680932D02*
X117962458Y-94552240D01*
X117893373Y-94588087D01*
X117852620Y-94789439D01*
X117840810Y-95019499D01*
X117796247Y-95383180D01*
X117675983Y-95603431D01*
X117472847Y-95691670D01*
X117416812Y-95694500D01*
X117211368Y-95619737D01*
X117084656Y-95402790D01*
X117043200Y-95070063D01*
X117066657Y-94841772D01*
X117123601Y-94731298D01*
X117193887Y-94756324D01*
X117247448Y-94890752D01*
X117321611Y-95067640D01*
X117396925Y-95091296D01*
X117446977Y-94975566D01*
X117450477Y-94784333D01*
X117412945Y-94566869D01*
X117325615Y-94466210D01*
X117217277Y-94437626D01*
X116995138Y-94476241D01*
X116899777Y-94559642D01*
X116818526Y-94777152D01*
X116794423Y-95079899D01*
X116827540Y-95393695D01*
X116898759Y-95609833D01*
X117086318Y-95842214D01*
X117333166Y-95968836D01*
X117586914Y-95966940D01*
X117655416Y-95938515D01*
X117847091Y-95805198D01*
X117949429Y-95701837D01*
X118052024Y-95476099D01*
X118108826Y-95175041D01*
X118111211Y-94877939D01*
X118060501Y-94680932D01*
G36*
X118025429Y-92387125D02*
G01*
X117830812Y-92351185D01*
X117568223Y-92329074D01*
X117288204Y-92322851D01*
X117041296Y-92334579D01*
X116878040Y-92366317D01*
X116848744Y-92383756D01*
X116855208Y-92496026D01*
X116991703Y-92714062D01*
X117208562Y-92980582D01*
X117652621Y-93493167D01*
X117354835Y-93493167D01*
X117112962Y-93507353D01*
X116930801Y-93541779D01*
X116923125Y-93544559D01*
X116810655Y-93629947D01*
X116796271Y-93723557D01*
X116852700Y-93757919D01*
X117082007Y-93781569D01*
X117373514Y-93792126D01*
X117670498Y-93790071D01*
X117916233Y-93775888D01*
X118053995Y-93750059D01*
X118058406Y-93747657D01*
X118086738Y-93675515D01*
X118019268Y-93535453D01*
X117844705Y-93307652D01*
X117733462Y-93177278D01*
X117527922Y-92934756D01*
X117374486Y-92741887D01*
X117300232Y-92633050D01*
X117297200Y-92623404D01*
X117373154Y-92588039D01*
X117566374Y-92556795D01*
X117699366Y-92545306D01*
X117933914Y-92514258D01*
X118078839Y-92464265D01*
X118101533Y-92434833D01*
X118025429Y-92387125D01*
G37*
X118025429Y-92387125D02*
X117830812Y-92351185D01*
X117568223Y-92329074D01*
X117288204Y-92322851D01*
X117041296Y-92334579D01*
X116878040Y-92366317D01*
X116848744Y-92383756D01*
X116855208Y-92496026D01*
X116991703Y-92714062D01*
X117208562Y-92980582D01*
X117652621Y-93493167D01*
X117354835Y-93493167D01*
X117112962Y-93507353D01*
X116930801Y-93541779D01*
X116923125Y-93544559D01*
X116810655Y-93629947D01*
X116796271Y-93723557D01*
X116852700Y-93757919D01*
X117082007Y-93781569D01*
X117373514Y-93792126D01*
X117670498Y-93790071D01*
X117916233Y-93775888D01*
X118053995Y-93750059D01*
X118058406Y-93747657D01*
X118086738Y-93675515D01*
X118019268Y-93535453D01*
X117844705Y-93307652D01*
X117733462Y-93177278D01*
X117527922Y-92934756D01*
X117374486Y-92741887D01*
X117300232Y-92633050D01*
X117297200Y-92623404D01*
X117373154Y-92588039D01*
X117566374Y-92556795D01*
X117699366Y-92545306D01*
X117933914Y-92514258D01*
X118078839Y-92464265D01*
X118101533Y-92434833D01*
X118025429Y-92387125D01*
G36*
X118126568Y-90981081D02*
G01*
X118095658Y-90638712D01*
X118041577Y-90432870D01*
X117995700Y-90381359D01*
X117931294Y-90414194D01*
X117897695Y-90579475D01*
X117889866Y-90825319D01*
X117882719Y-91098152D01*
X117853415Y-91237849D01*
X117790163Y-91280289D01*
X117741700Y-91276171D01*
X117625962Y-91185958D01*
X117569604Y-90957101D01*
X117567256Y-90931296D01*
X117523837Y-90704088D01*
X117459846Y-90622011D01*
X117400531Y-90690444D01*
X117371840Y-90889667D01*
X117367706Y-91098909D01*
X117371512Y-91226068D01*
X117371840Y-91228333D01*
X117309706Y-91279747D01*
X117212533Y-91291833D01*
X117114676Y-91271621D01*
X117063698Y-91184232D01*
X117045006Y-90989536D01*
X117043200Y-90826167D01*
X117031798Y-90545342D01*
X116991790Y-90400762D01*
X116916200Y-90360500D01*
X116847199Y-90395355D01*
X116807707Y-90520680D01*
X116791051Y-90767621D01*
X116789200Y-90953167D01*
X116789200Y-91545833D01*
X118151603Y-91545833D01*
X118126568Y-90981081D01*
G37*
X118126568Y-90981081D02*
X118095658Y-90638712D01*
X118041577Y-90432870D01*
X117995700Y-90381359D01*
X117931294Y-90414194D01*
X117897695Y-90579475D01*
X117889866Y-90825319D01*
X117882719Y-91098152D01*
X117853415Y-91237849D01*
X117790163Y-91280289D01*
X117741700Y-91276171D01*
X117625962Y-91185958D01*
X117569604Y-90957101D01*
X117567256Y-90931296D01*
X117523837Y-90704088D01*
X117459846Y-90622011D01*
X117400531Y-90690444D01*
X117371840Y-90889667D01*
X117367706Y-91098909D01*
X117371512Y-91226068D01*
X117371840Y-91228333D01*
X117309706Y-91279747D01*
X117212533Y-91291833D01*
X117114676Y-91271621D01*
X117063698Y-91184232D01*
X117045006Y-90989536D01*
X117043200Y-90826167D01*
X117031798Y-90545342D01*
X116991790Y-90400762D01*
X116916200Y-90360500D01*
X116847199Y-90395355D01*
X116807707Y-90520680D01*
X116791051Y-90767621D01*
X116789200Y-90953167D01*
X116789200Y-91545833D01*
X118151603Y-91545833D01*
X118126568Y-90981081D01*
G36*
X118084094Y-89142258D02*
G01*
X118020252Y-88716606D01*
X117866530Y-88422265D01*
X117628352Y-88267059D01*
X117461154Y-88243833D01*
X117164242Y-88303494D01*
X116960254Y-88489442D01*
X116840980Y-88812122D01*
X116806592Y-89076693D01*
X116794319Y-89382329D01*
X116816611Y-89557171D01*
X116879012Y-89637251D01*
X116893863Y-89643977D01*
X117040295Y-89665283D01*
X117043200Y-89665367D01*
X117043200Y-89429167D01*
X117043200Y-89096548D01*
X117077579Y-88834506D01*
X117164295Y-88644038D01*
X117176247Y-88630881D01*
X117382520Y-88513200D01*
X117594346Y-88525890D01*
X117706453Y-88607868D01*
X117776883Y-88757481D01*
X117840488Y-88995547D01*
X117854641Y-89073534D01*
X117911509Y-89429167D01*
X117043200Y-89429167D01*
X117043200Y-89665367D01*
X117296174Y-89672696D01*
X117560118Y-89666358D01*
X118101533Y-89640833D01*
X118084094Y-89142258D01*
G37*
X118084094Y-89142258D02*
X118020252Y-88716606D01*
X117866530Y-88422265D01*
X117628352Y-88267059D01*
X117461154Y-88243833D01*
X117164242Y-88303494D01*
X116960254Y-88489442D01*
X116840980Y-88812122D01*
X116806592Y-89076693D01*
X116794319Y-89382329D01*
X116816611Y-89557171D01*
X116879012Y-89637251D01*
X116893863Y-89643977D01*
X117040295Y-89665283D01*
X117043200Y-89665367D01*
X117043200Y-89429167D01*
X117043200Y-89096548D01*
X117077579Y-88834506D01*
X117164295Y-88644038D01*
X117176247Y-88630881D01*
X117382520Y-88513200D01*
X117594346Y-88525890D01*
X117706453Y-88607868D01*
X117776883Y-88757481D01*
X117840488Y-88995547D01*
X117854641Y-89073534D01*
X117911509Y-89429167D01*
X117043200Y-89429167D01*
X117043200Y-89665367D01*
X117296174Y-89672696D01*
X117560118Y-89666358D01*
X118101533Y-89640833D01*
X118084094Y-89142258D01*
G36*
X118076535Y-84163302D02*
G01*
X117966351Y-84156940D01*
X117754242Y-84212072D01*
X117486919Y-84309065D01*
X117211095Y-84428290D01*
X116973480Y-84550116D01*
X116820787Y-84654912D01*
X116789200Y-84704305D01*
X116855634Y-84793314D01*
X117018043Y-84910236D01*
X117042665Y-84924605D01*
X117212701Y-85033023D01*
X117295206Y-85108523D01*
X117296665Y-85114079D01*
X117231832Y-85182771D01*
X117072179Y-85291950D01*
X117043200Y-85309365D01*
X116873179Y-85427220D01*
X116790676Y-85518622D01*
X116789200Y-85526753D01*
X116860581Y-85591423D01*
X117049806Y-85702340D01*
X117319494Y-85838075D01*
X117388910Y-85870523D01*
X117744852Y-86020342D01*
X117971406Y-86080517D01*
X118076535Y-86059032D01*
X118071921Y-85975952D01*
X117919102Y-85855723D01*
X117709846Y-85740751D01*
X117464300Y-85610059D01*
X117351309Y-85525665D01*
X117349156Y-85464049D01*
X117410554Y-85416610D01*
X117613445Y-85283876D01*
X117706700Y-85217000D01*
X117783762Y-85138178D01*
X117768695Y-85058811D01*
X117641909Y-84951691D01*
X117410554Y-84805724D01*
X117341250Y-84745542D01*
X117365824Y-84680948D01*
X117505994Y-84588424D01*
X117709846Y-84481583D01*
X117975687Y-84329912D01*
X118087491Y-84220452D01*
X118076535Y-84163302D01*
G37*
X118076535Y-84163302D02*
X117966351Y-84156940D01*
X117754242Y-84212072D01*
X117486919Y-84309065D01*
X117211095Y-84428290D01*
X116973480Y-84550116D01*
X116820787Y-84654912D01*
X116789200Y-84704305D01*
X116855634Y-84793314D01*
X117018043Y-84910236D01*
X117042665Y-84924605D01*
X117212701Y-85033023D01*
X117295206Y-85108523D01*
X117296665Y-85114079D01*
X117231832Y-85182771D01*
X117072179Y-85291950D01*
X117043200Y-85309365D01*
X116873179Y-85427220D01*
X116790676Y-85518622D01*
X116789200Y-85526753D01*
X116860581Y-85591423D01*
X117049806Y-85702340D01*
X117319494Y-85838075D01*
X117388910Y-85870523D01*
X117744852Y-86020342D01*
X117971406Y-86080517D01*
X118076535Y-86059032D01*
X118071921Y-85975952D01*
X117919102Y-85855723D01*
X117709846Y-85740751D01*
X117464300Y-85610059D01*
X117351309Y-85525665D01*
X117349156Y-85464049D01*
X117410554Y-85416610D01*
X117613445Y-85283876D01*
X117706700Y-85217000D01*
X117783762Y-85138178D01*
X117768695Y-85058811D01*
X117641909Y-84951691D01*
X117410554Y-84805724D01*
X117341250Y-84745542D01*
X117365824Y-84680948D01*
X117505994Y-84588424D01*
X117709846Y-84481583D01*
X117975687Y-84329912D01*
X118087491Y-84220452D01*
X118076535Y-84163302D01*
G36*
X118054994Y-83328892D02*
G01*
X118035916Y-83326817D01*
X117926077Y-83329980D01*
X117695866Y-83332254D01*
X117394244Y-83333165D01*
X117381866Y-83333167D01*
X117077843Y-83344354D01*
X116867765Y-83374338D01*
X116789200Y-83417751D01*
X116789200Y-83417833D01*
X116868482Y-83459644D01*
X117085213Y-83489064D01*
X117407723Y-83502175D01*
X117473589Y-83502500D01*
X117853050Y-83491849D01*
X118071934Y-83460258D01*
X118127639Y-83411483D01*
X118054994Y-83328892D01*
G37*
X118054994Y-83328892D02*
X118035916Y-83326817D01*
X117926077Y-83329980D01*
X117695866Y-83332254D01*
X117394244Y-83333165D01*
X117381866Y-83333167D01*
X117077843Y-83344354D01*
X116867765Y-83374338D01*
X116789200Y-83417751D01*
X116789200Y-83417833D01*
X116868482Y-83459644D01*
X117085213Y-83489064D01*
X117407723Y-83502175D01*
X117473589Y-83502500D01*
X117853050Y-83491849D01*
X118071934Y-83460258D01*
X118127639Y-83411483D01*
X118054994Y-83328892D01*
G36*
X118122327Y-81519411D02*
G01*
X118087628Y-81415233D01*
X118024674Y-81385898D01*
X118020291Y-81385833D01*
X117924839Y-81445632D01*
X117890405Y-81640623D01*
X117889866Y-81682167D01*
X117889866Y-81978500D01*
X117339533Y-81978500D01*
X117030843Y-81986979D01*
X116859272Y-82017275D01*
X116793230Y-82076677D01*
X116789200Y-82105500D01*
X116825940Y-82176736D01*
X116957222Y-82216330D01*
X117214635Y-82231570D01*
X117339533Y-82232500D01*
X117889866Y-82232500D01*
X117889866Y-82535889D01*
X117913855Y-82750170D01*
X117987064Y-82806600D01*
X117995700Y-82804241D01*
X118060743Y-82695492D01*
X118105295Y-82419882D01*
X118126124Y-82077519D01*
X118133563Y-81729737D01*
X118122327Y-81519411D01*
G37*
X118122327Y-81519411D02*
X118087628Y-81415233D01*
X118024674Y-81385898D01*
X118020291Y-81385833D01*
X117924839Y-81445632D01*
X117890405Y-81640623D01*
X117889866Y-81682167D01*
X117889866Y-81978500D01*
X117339533Y-81978500D01*
X117030843Y-81986979D01*
X116859272Y-82017275D01*
X116793230Y-82076677D01*
X116789200Y-82105500D01*
X116825940Y-82176736D01*
X116957222Y-82216330D01*
X117214635Y-82231570D01*
X117339533Y-82232500D01*
X117889866Y-82232500D01*
X117889866Y-82535889D01*
X117913855Y-82750170D01*
X117987064Y-82806600D01*
X117995700Y-82804241D01*
X118060743Y-82695492D01*
X118105295Y-82419882D01*
X118126124Y-82077519D01*
X118133563Y-81729737D01*
X118122327Y-81519411D01*
G36*
X118072781Y-80716988D02*
G01*
X117929910Y-80649598D01*
X117728303Y-80623833D01*
X117640701Y-80595601D01*
X117597503Y-80485099D01*
X117586388Y-80253619D01*
X117587061Y-80180141D01*
X117597178Y-79920156D01*
X117634479Y-79782381D01*
X117724127Y-79719703D01*
X117847533Y-79692476D01*
X118043533Y-79639796D01*
X118086716Y-79583676D01*
X117993169Y-79532732D01*
X117778979Y-79495581D01*
X117460232Y-79480841D01*
X117452422Y-79480833D01*
X117088415Y-79494993D01*
X116870976Y-79536185D01*
X116812282Y-79580919D01*
X116861711Y-79659449D01*
X117047548Y-79706732D01*
X117059227Y-79707919D01*
X117223591Y-79732816D01*
X117309878Y-79796916D01*
X117348005Y-79945796D01*
X117364928Y-80173654D01*
X117375265Y-80430290D01*
X117351563Y-80563338D01*
X117269663Y-80618258D01*
X117117448Y-80639321D01*
X116919137Y-80687408D01*
X116811665Y-80767221D01*
X116809831Y-80772000D01*
X116839017Y-80829204D01*
X116986860Y-80862927D01*
X117274657Y-80876910D01*
X117412148Y-80877833D01*
X117724257Y-80868436D01*
X117965331Y-80843601D01*
X118089923Y-80808366D01*
X118096050Y-80802039D01*
X118072781Y-80716988D01*
G37*
X118072781Y-80716988D02*
X117929910Y-80649598D01*
X117728303Y-80623833D01*
X117640701Y-80595601D01*
X117597503Y-80485099D01*
X117586388Y-80253619D01*
X117587061Y-80180141D01*
X117597178Y-79920156D01*
X117634479Y-79782381D01*
X117724127Y-79719703D01*
X117847533Y-79692476D01*
X118043533Y-79639796D01*
X118086716Y-79583676D01*
X117993169Y-79532732D01*
X117778979Y-79495581D01*
X117460232Y-79480841D01*
X117452422Y-79480833D01*
X117088415Y-79494993D01*
X116870976Y-79536185D01*
X116812282Y-79580919D01*
X116861711Y-79659449D01*
X117047548Y-79706732D01*
X117059227Y-79707919D01*
X117223591Y-79732816D01*
X117309878Y-79796916D01*
X117348005Y-79945796D01*
X117364928Y-80173654D01*
X117375265Y-80430290D01*
X117351563Y-80563338D01*
X117269663Y-80618258D01*
X117117448Y-80639321D01*
X116919137Y-80687408D01*
X116811665Y-80767221D01*
X116809831Y-80772000D01*
X116839017Y-80829204D01*
X116986860Y-80862927D01*
X117274657Y-80876910D01*
X117412148Y-80877833D01*
X117724257Y-80868436D01*
X117965331Y-80843601D01*
X118089923Y-80808366D01*
X118096050Y-80802039D01*
X118072781Y-80716988D01*
G36*
X128350869Y-95020934D02*
G01*
X128180121Y-94717575D01*
X128090176Y-94599021D01*
X128006502Y-94498946D01*
X127914735Y-94415785D01*
X127800507Y-94347976D01*
X127649453Y-94293954D01*
X127447206Y-94252156D01*
X127179400Y-94221019D01*
X126831669Y-94198977D01*
X126389646Y-94184469D01*
X125838967Y-94175929D01*
X125165264Y-94171795D01*
X124354170Y-94170502D01*
X123391321Y-94170487D01*
X123153988Y-94170500D01*
X118842366Y-94170500D01*
X118789450Y-94435083D01*
X118779461Y-94568862D01*
X118770834Y-94849761D01*
X118763560Y-95257197D01*
X118757631Y-95770590D01*
X118753041Y-96369357D01*
X118749781Y-97032918D01*
X118747843Y-97740689D01*
X118747220Y-98472089D01*
X118747904Y-99206538D01*
X118749887Y-99923452D01*
X118753161Y-100602250D01*
X118757720Y-101222351D01*
X118763554Y-101763173D01*
X118770657Y-102204133D01*
X118779021Y-102524651D01*
X118788637Y-102704144D01*
X118792567Y-102730904D01*
X118857235Y-102808601D01*
X119021741Y-102864496D01*
X119315095Y-102906711D01*
X119472853Y-102921404D01*
X119742390Y-102936279D01*
X119798683Y-102937979D01*
X119798683Y-102360871D01*
X119734984Y-102278506D01*
X119690324Y-102078223D01*
X119667442Y-101785457D01*
X119669077Y-101425644D01*
X119697970Y-101024219D01*
X119720865Y-100834801D01*
X119759443Y-100601864D01*
X119809751Y-100501869D01*
X119901620Y-100499392D01*
X119980377Y-100526651D01*
X120144422Y-100557536D01*
X120435745Y-100582706D01*
X120812318Y-100599471D01*
X121208172Y-100605167D01*
X122229455Y-100605167D01*
X121350827Y-99960426D01*
X120893312Y-99631711D01*
X120534624Y-99392457D01*
X120243310Y-99223957D01*
X119987915Y-99107505D01*
X119816033Y-99047672D01*
X119752822Y-99010037D01*
X119710411Y-98924361D01*
X119684798Y-98761900D01*
X119671984Y-98493911D01*
X119667967Y-98091652D01*
X119667866Y-97983157D01*
X119671891Y-97590381D01*
X119682857Y-97267908D01*
X119699105Y-97048415D01*
X119718975Y-96964578D01*
X119719616Y-96964500D01*
X119807463Y-97014291D01*
X119982920Y-97143535D01*
X120164116Y-97288455D01*
X120336505Y-97423578D01*
X120608658Y-97628695D01*
X120952806Y-97883660D01*
X121341178Y-98168331D01*
X121746004Y-98462563D01*
X122139515Y-98746213D01*
X122493938Y-98999135D01*
X122781505Y-99201186D01*
X122974445Y-99332222D01*
X123025835Y-99364292D01*
X123116923Y-99330132D01*
X123314304Y-99205260D01*
X123594528Y-99007777D01*
X123934148Y-98755787D01*
X124309712Y-98467391D01*
X124409146Y-98388805D01*
X124409146Y-96414167D01*
X119696153Y-96414167D01*
X119677314Y-96000821D01*
X119677562Y-95656383D01*
X119700304Y-95274128D01*
X119714997Y-95135089D01*
X119753670Y-94877340D01*
X119797822Y-94756092D01*
X119865884Y-94739009D01*
X119925793Y-94765268D01*
X120054082Y-94789231D01*
X120330316Y-94810098D01*
X120733124Y-94827109D01*
X121241134Y-94839502D01*
X121832973Y-94846518D01*
X122244634Y-94847833D01*
X124409200Y-94847833D01*
X124409146Y-96414167D01*
X124409146Y-98388805D01*
X124697772Y-98160692D01*
X125074880Y-97853793D01*
X125417584Y-97564795D01*
X125702437Y-97311802D01*
X125785033Y-97234244D01*
X126102533Y-96930134D01*
X126102533Y-97954139D01*
X126101329Y-98384675D01*
X126094036Y-98675399D01*
X126075132Y-98855832D01*
X126039098Y-98955494D01*
X125980411Y-99003906D01*
X125901587Y-99028577D01*
X125763718Y-99097096D01*
X125523526Y-99250480D01*
X125211206Y-99468178D01*
X124856954Y-99729638D01*
X124737420Y-99820923D01*
X123774200Y-100562833D01*
X124153706Y-100589830D01*
X124486160Y-100601549D01*
X124870182Y-100597130D01*
X125258433Y-100579283D01*
X125603576Y-100550720D01*
X125858274Y-100514152D01*
X125954366Y-100486703D01*
X126017663Y-100469703D01*
X126059886Y-100506140D01*
X126085248Y-100622080D01*
X126097961Y-100843587D01*
X126102238Y-101196727D01*
X126102533Y-101403421D01*
X126101171Y-101822913D01*
X126093934Y-102098974D01*
X126076102Y-102257501D01*
X126042950Y-102324392D01*
X125989757Y-102325545D01*
X125938766Y-102301479D01*
X125813329Y-102278114D01*
X125546550Y-102258246D01*
X125161958Y-102241881D01*
X124683083Y-102229026D01*
X124133454Y-102219688D01*
X123536600Y-102213871D01*
X122916052Y-102211583D01*
X122295339Y-102212830D01*
X121697989Y-102217617D01*
X121147533Y-102225952D01*
X120667501Y-102237839D01*
X120281421Y-102253286D01*
X120012823Y-102272299D01*
X119885237Y-102294884D01*
X119878680Y-102299881D01*
X119798683Y-102360871D01*
X119798683Y-102937979D01*
X120152605Y-102948674D01*
X120677853Y-102958591D01*
X121292492Y-102966033D01*
X121970880Y-102971003D01*
X122687374Y-102973503D01*
X123416332Y-102973536D01*
X124132110Y-102971105D01*
X124809066Y-102966213D01*
X125421558Y-102958862D01*
X125943943Y-102949055D01*
X126350578Y-102936794D01*
X126615821Y-102922082D01*
X126631700Y-102920655D01*
X127003889Y-102885504D01*
X127003889Y-96385108D01*
X126710932Y-96296075D01*
X126491059Y-96111337D01*
X126342004Y-95871795D01*
X126272777Y-95633695D01*
X126271866Y-95609833D01*
X126328618Y-95378498D01*
X126470342Y-95133952D01*
X126491059Y-95108330D01*
X126757702Y-94899949D01*
X127055450Y-94831806D01*
X127346036Y-94889669D01*
X127591191Y-95059303D01*
X127752649Y-95326476D01*
X127795866Y-95593622D01*
X127728064Y-95934586D01*
X127549062Y-96189838D01*
X127295468Y-96344854D01*
X127003889Y-96385108D01*
X127003889Y-102885504D01*
X127203200Y-102866680D01*
X127203200Y-97070333D01*
X127470903Y-97016793D01*
X127739203Y-96895839D01*
X128017026Y-96665650D01*
X128257192Y-96376544D01*
X128412518Y-96078844D01*
X128437349Y-95986054D01*
X128461159Y-95485570D01*
X128350869Y-95020934D01*
G37*
X128350869Y-95020934D02*
X128180121Y-94717575D01*
X128090176Y-94599021D01*
X128006502Y-94498946D01*
X127914735Y-94415785D01*
X127800507Y-94347976D01*
X127649453Y-94293954D01*
X127447206Y-94252156D01*
X127179400Y-94221019D01*
X126831669Y-94198977D01*
X126389646Y-94184469D01*
X125838967Y-94175929D01*
X125165264Y-94171795D01*
X124354170Y-94170502D01*
X123391321Y-94170487D01*
X123153988Y-94170500D01*
X118842366Y-94170500D01*
X118789450Y-94435083D01*
X118779461Y-94568862D01*
X118770834Y-94849761D01*
X118763560Y-95257197D01*
X118757631Y-95770590D01*
X118753041Y-96369357D01*
X118749781Y-97032918D01*
X118747843Y-97740689D01*
X118747220Y-98472089D01*
X118747904Y-99206538D01*
X118749887Y-99923452D01*
X118753161Y-100602250D01*
X118757720Y-101222351D01*
X118763554Y-101763173D01*
X118770657Y-102204133D01*
X118779021Y-102524651D01*
X118788637Y-102704144D01*
X118792567Y-102730904D01*
X118857235Y-102808601D01*
X119021741Y-102864496D01*
X119315095Y-102906711D01*
X119472853Y-102921404D01*
X119742390Y-102936279D01*
X119798683Y-102937979D01*
X119798683Y-102360871D01*
X119734984Y-102278506D01*
X119690324Y-102078223D01*
X119667442Y-101785457D01*
X119669077Y-101425644D01*
X119697970Y-101024219D01*
X119720865Y-100834801D01*
X119759443Y-100601864D01*
X119809751Y-100501869D01*
X119901620Y-100499392D01*
X119980377Y-100526651D01*
X120144422Y-100557536D01*
X120435745Y-100582706D01*
X120812318Y-100599471D01*
X121208172Y-100605167D01*
X122229455Y-100605167D01*
X121350827Y-99960426D01*
X120893312Y-99631711D01*
X120534624Y-99392457D01*
X120243310Y-99223957D01*
X119987915Y-99107505D01*
X119816033Y-99047672D01*
X119752822Y-99010037D01*
X119710411Y-98924361D01*
X119684798Y-98761900D01*
X119671984Y-98493911D01*
X119667967Y-98091652D01*
X119667866Y-97983157D01*
X119671891Y-97590381D01*
X119682857Y-97267908D01*
X119699105Y-97048415D01*
X119718975Y-96964578D01*
X119719616Y-96964500D01*
X119807463Y-97014291D01*
X119982920Y-97143535D01*
X120164116Y-97288455D01*
X120336505Y-97423578D01*
X120608658Y-97628695D01*
X120952806Y-97883660D01*
X121341178Y-98168331D01*
X121746004Y-98462563D01*
X122139515Y-98746213D01*
X122493938Y-98999135D01*
X122781505Y-99201186D01*
X122974445Y-99332222D01*
X123025835Y-99364292D01*
X123116923Y-99330132D01*
X123314304Y-99205260D01*
X123594528Y-99007777D01*
X123934148Y-98755787D01*
X124309712Y-98467391D01*
X124409146Y-98388805D01*
X124409146Y-96414167D01*
X119696153Y-96414167D01*
X119677314Y-96000821D01*
X119677562Y-95656383D01*
X119700304Y-95274128D01*
X119714997Y-95135089D01*
X119753670Y-94877340D01*
X119797822Y-94756092D01*
X119865884Y-94739009D01*
X119925793Y-94765268D01*
X120054082Y-94789231D01*
X120330316Y-94810098D01*
X120733124Y-94827109D01*
X121241134Y-94839502D01*
X121832973Y-94846518D01*
X122244634Y-94847833D01*
X124409200Y-94847833D01*
X124409146Y-96414167D01*
X124409146Y-98388805D01*
X124697772Y-98160692D01*
X125074880Y-97853793D01*
X125417584Y-97564795D01*
X125702437Y-97311802D01*
X125785033Y-97234244D01*
X126102533Y-96930134D01*
X126102533Y-97954139D01*
X126101329Y-98384675D01*
X126094036Y-98675399D01*
X126075132Y-98855832D01*
X126039098Y-98955494D01*
X125980411Y-99003906D01*
X125901587Y-99028577D01*
X125763718Y-99097096D01*
X125523526Y-99250480D01*
X125211206Y-99468178D01*
X124856954Y-99729638D01*
X124737420Y-99820923D01*
X123774200Y-100562833D01*
X124153706Y-100589830D01*
X124486160Y-100601549D01*
X124870182Y-100597130D01*
X125258433Y-100579283D01*
X125603576Y-100550720D01*
X125858274Y-100514152D01*
X125954366Y-100486703D01*
X126017663Y-100469703D01*
X126059886Y-100506140D01*
X126085248Y-100622080D01*
X126097961Y-100843587D01*
X126102238Y-101196727D01*
X126102533Y-101403421D01*
X126101171Y-101822913D01*
X126093934Y-102098974D01*
X126076102Y-102257501D01*
X126042950Y-102324392D01*
X125989757Y-102325545D01*
X125938766Y-102301479D01*
X125813329Y-102278114D01*
X125546550Y-102258246D01*
X125161958Y-102241881D01*
X124683083Y-102229026D01*
X124133454Y-102219688D01*
X123536600Y-102213871D01*
X122916052Y-102211583D01*
X122295339Y-102212830D01*
X121697989Y-102217617D01*
X121147533Y-102225952D01*
X120667501Y-102237839D01*
X120281421Y-102253286D01*
X120012823Y-102272299D01*
X119885237Y-102294884D01*
X119878680Y-102299881D01*
X119798683Y-102360871D01*
X119798683Y-102937979D01*
X120152605Y-102948674D01*
X120677853Y-102958591D01*
X121292492Y-102966033D01*
X121970880Y-102971003D01*
X122687374Y-102973503D01*
X123416332Y-102973536D01*
X124132110Y-102971105D01*
X124809066Y-102966213D01*
X125421558Y-102958862D01*
X125943943Y-102949055D01*
X126350578Y-102936794D01*
X126615821Y-102922082D01*
X126631700Y-102920655D01*
X127003889Y-102885504D01*
X127003889Y-96385108D01*
X126710932Y-96296075D01*
X126491059Y-96111337D01*
X126342004Y-95871795D01*
X126272777Y-95633695D01*
X126271866Y-95609833D01*
X126328618Y-95378498D01*
X126470342Y-95133952D01*
X126491059Y-95108330D01*
X126757702Y-94899949D01*
X127055450Y-94831806D01*
X127346036Y-94889669D01*
X127591191Y-95059303D01*
X127752649Y-95326476D01*
X127795866Y-95593622D01*
X127728064Y-95934586D01*
X127549062Y-96189838D01*
X127295468Y-96344854D01*
X127003889Y-96385108D01*
X127003889Y-102885504D01*
X127203200Y-102866680D01*
X127203200Y-97070333D01*
X127470903Y-97016793D01*
X127739203Y-96895839D01*
X128017026Y-96665650D01*
X128257192Y-96376544D01*
X128412518Y-96078844D01*
X128437349Y-95986054D01*
X128461159Y-95485570D01*
X128350869Y-95020934D01*
G36*
X126121954Y-90273454D02*
G01*
X125905921Y-89545233D01*
X125829772Y-89363347D01*
X125634621Y-88921157D01*
X125170077Y-89228835D01*
X124920980Y-89396136D01*
X124727455Y-89530367D01*
X124636708Y-89598232D01*
X124638594Y-89698012D01*
X124722336Y-89879840D01*
X124784874Y-89979707D01*
X124970038Y-90384499D01*
X124995619Y-90795105D01*
X124868750Y-91187681D01*
X124596565Y-91538382D01*
X124242246Y-91793566D01*
X123871151Y-91933908D01*
X123393365Y-92021540D01*
X122864545Y-92051892D01*
X122340346Y-92020391D01*
X122063046Y-91972580D01*
X121586803Y-91798476D01*
X121215579Y-91527828D01*
X120960500Y-91185635D01*
X120832691Y-90796894D01*
X120843277Y-90386602D01*
X121003384Y-89979757D01*
X121108474Y-89827777D01*
X121225693Y-89657658D01*
X121276475Y-89542139D01*
X121276533Y-89540114D01*
X121208879Y-89463882D01*
X121030517Y-89331725D01*
X120778349Y-89170695D01*
X120747366Y-89152189D01*
X120218200Y-88838275D01*
X119943033Y-89407206D01*
X119807752Y-89704033D01*
X119725651Y-89949410D01*
X119683748Y-90206568D01*
X119669061Y-90538738D01*
X119667866Y-90747462D01*
X119673907Y-91138719D01*
X119700267Y-91421750D01*
X119759301Y-91657479D01*
X119863364Y-91906827D01*
X119931163Y-92045690D01*
X120294261Y-92587711D01*
X120783942Y-93028381D01*
X121384651Y-93358387D01*
X122080831Y-93568414D01*
X122588866Y-93637070D01*
X123402649Y-93626431D01*
X124139199Y-93468352D01*
X124793995Y-93164338D01*
X125362517Y-92715895D01*
X125367039Y-92711397D01*
X125798276Y-92175677D01*
X126067957Y-91589939D01*
X126175908Y-90955443D01*
X126121954Y-90273454D01*
G37*
X126121954Y-90273454D02*
X125905921Y-89545233D01*
X125829772Y-89363347D01*
X125634621Y-88921157D01*
X125170077Y-89228835D01*
X124920980Y-89396136D01*
X124727455Y-89530367D01*
X124636708Y-89598232D01*
X124638594Y-89698012D01*
X124722336Y-89879840D01*
X124784874Y-89979707D01*
X124970038Y-90384499D01*
X124995619Y-90795105D01*
X124868750Y-91187681D01*
X124596565Y-91538382D01*
X124242246Y-91793566D01*
X123871151Y-91933908D01*
X123393365Y-92021540D01*
X122864545Y-92051892D01*
X122340346Y-92020391D01*
X122063046Y-91972580D01*
X121586803Y-91798476D01*
X121215579Y-91527828D01*
X120960500Y-91185635D01*
X120832691Y-90796894D01*
X120843277Y-90386602D01*
X121003384Y-89979757D01*
X121108474Y-89827777D01*
X121225693Y-89657658D01*
X121276475Y-89542139D01*
X121276533Y-89540114D01*
X121208879Y-89463882D01*
X121030517Y-89331725D01*
X120778349Y-89170695D01*
X120747366Y-89152189D01*
X120218200Y-88838275D01*
X119943033Y-89407206D01*
X119807752Y-89704033D01*
X119725651Y-89949410D01*
X119683748Y-90206568D01*
X119669061Y-90538738D01*
X119667866Y-90747462D01*
X119673907Y-91138719D01*
X119700267Y-91421750D01*
X119759301Y-91657479D01*
X119863364Y-91906827D01*
X119931163Y-92045690D01*
X120294261Y-92587711D01*
X120783942Y-93028381D01*
X121384651Y-93358387D01*
X122080831Y-93568414D01*
X122588866Y-93637070D01*
X123402649Y-93626431D01*
X124139199Y-93468352D01*
X124793995Y-93164338D01*
X125362517Y-92715895D01*
X125367039Y-92711397D01*
X125798276Y-92175677D01*
X126067957Y-91589939D01*
X126175908Y-90955443D01*
X126121954Y-90273454D01*
G36*
X124430503Y-85910270D02*
G01*
X124252353Y-85433202D01*
X123972892Y-85057719D01*
X123605676Y-84806913D01*
X123494801Y-84764081D01*
X123309639Y-84727354D01*
X123002608Y-84693192D01*
X122603890Y-84662547D01*
X122143668Y-84636373D01*
X121652122Y-84615620D01*
X121159435Y-84601243D01*
X120695790Y-84594192D01*
X120291366Y-84595422D01*
X119976348Y-84605884D01*
X119780915Y-84626531D01*
X119732663Y-84645354D01*
X119702068Y-84766838D01*
X119679463Y-85007854D01*
X119669320Y-85318637D01*
X119669163Y-85351927D01*
X119673659Y-85676783D01*
X119695093Y-85870344D01*
X119742864Y-85970479D01*
X119826370Y-86015059D01*
X119834273Y-86017203D01*
X119934146Y-86051730D01*
X119956657Y-86114456D01*
X119901806Y-86252800D01*
X119834273Y-86386903D01*
X119719022Y-86743495D01*
X119672441Y-87177977D01*
X119696885Y-87612432D01*
X119786958Y-87951698D01*
X120018938Y-88290900D01*
X120370075Y-88570258D01*
X120793139Y-88761381D01*
X121206578Y-88830166D01*
X121206578Y-87397167D01*
X120975846Y-87341717D01*
X120838700Y-87257045D01*
X120721548Y-87051653D01*
X120686671Y-86768186D01*
X120735804Y-86477519D01*
X120815667Y-86315339D01*
X120934232Y-86197028D01*
X121109862Y-86140700D01*
X121376485Y-86127167D01*
X121805502Y-86127167D01*
X121766994Y-86591521D01*
X121686465Y-87002679D01*
X121526660Y-87270394D01*
X121290460Y-87390524D01*
X121206578Y-87397167D01*
X121206578Y-88830166D01*
X121240900Y-88835877D01*
X121258086Y-88836028D01*
X121633030Y-88758364D01*
X121997108Y-88544439D01*
X122315038Y-88225555D01*
X122551535Y-87833015D01*
X122627636Y-87621002D01*
X122682474Y-87344615D01*
X122724409Y-86986638D01*
X122741441Y-86698667D01*
X122754144Y-86395066D01*
X122780209Y-86223514D01*
X122833125Y-86146726D01*
X122926378Y-86127416D01*
X122948187Y-86127167D01*
X123205141Y-86198725D01*
X123378556Y-86397052D01*
X123460954Y-86697625D01*
X123444858Y-87075923D01*
X123348425Y-87439500D01*
X123272623Y-87660611D01*
X123229103Y-87808230D01*
X123225141Y-87831241D01*
X123294592Y-87888244D01*
X123468890Y-87981529D01*
X123694733Y-88086856D01*
X123918821Y-88179983D01*
X124087851Y-88236669D01*
X124132353Y-88243833D01*
X124184836Y-88166560D01*
X124250641Y-87961572D01*
X124321585Y-87669116D01*
X124389487Y-87329441D01*
X124446166Y-86982794D01*
X124483440Y-86669422D01*
X124493787Y-86465833D01*
X124430503Y-85910270D01*
G37*
X124430503Y-85910270D02*
X124252353Y-85433202D01*
X123972892Y-85057719D01*
X123605676Y-84806913D01*
X123494801Y-84764081D01*
X123309639Y-84727354D01*
X123002608Y-84693192D01*
X122603890Y-84662547D01*
X122143668Y-84636373D01*
X121652122Y-84615620D01*
X121159435Y-84601243D01*
X120695790Y-84594192D01*
X120291366Y-84595422D01*
X119976348Y-84605884D01*
X119780915Y-84626531D01*
X119732663Y-84645354D01*
X119702068Y-84766838D01*
X119679463Y-85007854D01*
X119669320Y-85318637D01*
X119669163Y-85351927D01*
X119673659Y-85676783D01*
X119695093Y-85870344D01*
X119742864Y-85970479D01*
X119826370Y-86015059D01*
X119834273Y-86017203D01*
X119934146Y-86051730D01*
X119956657Y-86114456D01*
X119901806Y-86252800D01*
X119834273Y-86386903D01*
X119719022Y-86743495D01*
X119672441Y-87177977D01*
X119696885Y-87612432D01*
X119786958Y-87951698D01*
X120018938Y-88290900D01*
X120370075Y-88570258D01*
X120793139Y-88761381D01*
X121206578Y-88830166D01*
X121206578Y-87397167D01*
X120975846Y-87341717D01*
X120838700Y-87257045D01*
X120721548Y-87051653D01*
X120686671Y-86768186D01*
X120735804Y-86477519D01*
X120815667Y-86315339D01*
X120934232Y-86197028D01*
X121109862Y-86140700D01*
X121376485Y-86127167D01*
X121805502Y-86127167D01*
X121766994Y-86591521D01*
X121686465Y-87002679D01*
X121526660Y-87270394D01*
X121290460Y-87390524D01*
X121206578Y-87397167D01*
X121206578Y-88830166D01*
X121240900Y-88835877D01*
X121258086Y-88836028D01*
X121633030Y-88758364D01*
X121997108Y-88544439D01*
X122315038Y-88225555D01*
X122551535Y-87833015D01*
X122627636Y-87621002D01*
X122682474Y-87344615D01*
X122724409Y-86986638D01*
X122741441Y-86698667D01*
X122754144Y-86395066D01*
X122780209Y-86223514D01*
X122833125Y-86146726D01*
X122926378Y-86127416D01*
X122948187Y-86127167D01*
X123205141Y-86198725D01*
X123378556Y-86397052D01*
X123460954Y-86697625D01*
X123444858Y-87075923D01*
X123348425Y-87439500D01*
X123272623Y-87660611D01*
X123229103Y-87808230D01*
X123225141Y-87831241D01*
X123294592Y-87888244D01*
X123468890Y-87981529D01*
X123694733Y-88086856D01*
X123918821Y-88179983D01*
X124087851Y-88236669D01*
X124132353Y-88243833D01*
X124184836Y-88166560D01*
X124250641Y-87961572D01*
X124321585Y-87669116D01*
X124389487Y-87329441D01*
X124446166Y-86982794D01*
X124483440Y-86669422D01*
X124493787Y-86465833D01*
X124430503Y-85910270D01*
G36*
X126525866Y-79607833D02*
G01*
X123287366Y-79606677D01*
X122556166Y-79605115D01*
X121872794Y-79601163D01*
X121257043Y-79595122D01*
X120728705Y-79587294D01*
X120307574Y-79577981D01*
X120013442Y-79567483D01*
X119866102Y-79556102D01*
X119858366Y-79554469D01*
X119768677Y-79537261D01*
X119712757Y-79564297D01*
X119682634Y-79665751D01*
X119670332Y-79871795D01*
X119667878Y-80212604D01*
X119667866Y-80275292D01*
X119670628Y-80640107D01*
X119683599Y-80867651D01*
X119713805Y-80989957D01*
X119768275Y-81039059D01*
X119837200Y-81047167D01*
X119960798Y-81056562D01*
X119993257Y-81109219D01*
X119934610Y-81241844D01*
X119837516Y-81404954D01*
X119717668Y-81721077D01*
X119664663Y-82121563D01*
X119678920Y-82538059D01*
X119760856Y-82902214D01*
X119827505Y-83043584D01*
X120120000Y-83399245D01*
X120509019Y-83705154D01*
X120926206Y-83909149D01*
X120985587Y-83927342D01*
X121281778Y-83977291D01*
X121695537Y-84001629D01*
X121742467Y-84001221D01*
X121742467Y-82484041D01*
X121413293Y-82460591D01*
X121176384Y-82396155D01*
X120994213Y-82283278D01*
X120925883Y-82220517D01*
X120806985Y-82052151D01*
X120780822Y-81839102D01*
X120793426Y-81711350D01*
X120847650Y-81464030D01*
X120924530Y-81278127D01*
X120940622Y-81255513D01*
X121022929Y-81201795D01*
X121182063Y-81165288D01*
X121443724Y-81143333D01*
X121833614Y-81133270D01*
X122135662Y-81131833D01*
X123228058Y-81131833D01*
X123314770Y-81359903D01*
X123397121Y-81736569D01*
X123328663Y-82036362D01*
X123109538Y-82259140D01*
X122739888Y-82404763D01*
X122219855Y-82473086D01*
X122201430Y-82473963D01*
X121742467Y-82484041D01*
X121742467Y-84001221D01*
X122176624Y-83997438D01*
X122185911Y-83997070D01*
X122890375Y-83922361D01*
X123458076Y-83758001D01*
X123898232Y-83500146D01*
X124216474Y-83150398D01*
X124422511Y-82692522D01*
X124484307Y-82187073D01*
X124398357Y-81680645D01*
X124338749Y-81525251D01*
X124164722Y-81131833D01*
X125181527Y-81131833D01*
X125593765Y-81138905D01*
X125955165Y-81158134D01*
X126225627Y-81186544D01*
X126362099Y-81219479D01*
X126436254Y-81250190D01*
X126483813Y-81228352D01*
X126510665Y-81126570D01*
X126522697Y-80917450D01*
X126525797Y-80573596D01*
X126525867Y-80457479D01*
X126525866Y-79607833D01*
G37*
X126525866Y-79607833D02*
X123287366Y-79606677D01*
X122556166Y-79605115D01*
X121872794Y-79601163D01*
X121257043Y-79595122D01*
X120728705Y-79587294D01*
X120307574Y-79577981D01*
X120013442Y-79567483D01*
X119866102Y-79556102D01*
X119858366Y-79554469D01*
X119768677Y-79537261D01*
X119712757Y-79564297D01*
X119682634Y-79665751D01*
X119670332Y-79871795D01*
X119667878Y-80212604D01*
X119667866Y-80275292D01*
X119670628Y-80640107D01*
X119683599Y-80867651D01*
X119713805Y-80989957D01*
X119768275Y-81039059D01*
X119837200Y-81047167D01*
X119960798Y-81056562D01*
X119993257Y-81109219D01*
X119934610Y-81241844D01*
X119837516Y-81404954D01*
X119717668Y-81721077D01*
X119664663Y-82121563D01*
X119678920Y-82538059D01*
X119760856Y-82902214D01*
X119827505Y-83043584D01*
X120120000Y-83399245D01*
X120509019Y-83705154D01*
X120926206Y-83909149D01*
X120985587Y-83927342D01*
X121281778Y-83977291D01*
X121695537Y-84001629D01*
X121742467Y-84001221D01*
X121742467Y-82484041D01*
X121413293Y-82460591D01*
X121176384Y-82396155D01*
X120994213Y-82283278D01*
X120925883Y-82220517D01*
X120806985Y-82052151D01*
X120780822Y-81839102D01*
X120793426Y-81711350D01*
X120847650Y-81464030D01*
X120924530Y-81278127D01*
X120940622Y-81255513D01*
X121022929Y-81201795D01*
X121182063Y-81165288D01*
X121443724Y-81143333D01*
X121833614Y-81133270D01*
X122135662Y-81131833D01*
X123228058Y-81131833D01*
X123314770Y-81359903D01*
X123397121Y-81736569D01*
X123328663Y-82036362D01*
X123109538Y-82259140D01*
X122739888Y-82404763D01*
X122219855Y-82473086D01*
X122201430Y-82473963D01*
X121742467Y-82484041D01*
X121742467Y-84001221D01*
X122176624Y-83997438D01*
X122185911Y-83997070D01*
X122890375Y-83922361D01*
X123458076Y-83758001D01*
X123898232Y-83500146D01*
X124216474Y-83150398D01*
X124422511Y-82692522D01*
X124484307Y-82187073D01*
X124398357Y-81680645D01*
X124338749Y-81525251D01*
X124164722Y-81131833D01*
X125181527Y-81131833D01*
X125593765Y-81138905D01*
X125955165Y-81158134D01*
X126225627Y-81186544D01*
X126362099Y-81219479D01*
X126436254Y-81250190D01*
X126483813Y-81228352D01*
X126510665Y-81126570D01*
X126522697Y-80917450D01*
X126525797Y-80573596D01*
X126525867Y-80457479D01*
X126525866Y-79607833D01*
G36*
X190312886Y-53756381D02*
G01*
X190125342Y-53720376D01*
X189824741Y-53663617D01*
X189464534Y-53596176D01*
X189318053Y-53568897D01*
X188970614Y-53496250D01*
X188683754Y-53421379D01*
X188500774Y-53356245D01*
X188463373Y-53332809D01*
X188390577Y-53213887D01*
X188278408Y-52980542D01*
X188147546Y-52676677D01*
X188106557Y-52575374D01*
X187842420Y-51912348D01*
X188450870Y-51028446D01*
X189059321Y-50144544D01*
X187598956Y-48684179D01*
X186807505Y-49230378D01*
X186483487Y-49453329D01*
X186207461Y-49642027D01*
X186011211Y-49774822D01*
X185930092Y-49828037D01*
X185819932Y-49818724D01*
X185593532Y-49751822D01*
X185288912Y-49639583D01*
X185083426Y-49555155D01*
X184322720Y-49230814D01*
X184217434Y-48652274D01*
X184146370Y-48270786D01*
X184070665Y-47878117D01*
X184020401Y-47626680D01*
X183928654Y-47179626D01*
X182902315Y-47203347D01*
X181875976Y-47227067D01*
X181698629Y-48200733D01*
X181521281Y-49174400D01*
X180708771Y-49504679D01*
X179896260Y-49834957D01*
X178251134Y-48687965D01*
X177540427Y-49394980D01*
X177263072Y-49675995D01*
X177036369Y-49915401D01*
X176884026Y-50087479D01*
X176829720Y-50165961D01*
X176875037Y-50257719D01*
X176997786Y-50456923D01*
X177178161Y-50732387D01*
X177354842Y-50992813D01*
X177879965Y-51755698D01*
X177688713Y-52149353D01*
X177592639Y-52382363D01*
X177554151Y-52551922D01*
X177565757Y-52602437D01*
X177661676Y-52651326D01*
X177889876Y-52753392D01*
X178225760Y-52898071D01*
X178644730Y-53074796D01*
X179122189Y-53273003D01*
X179233622Y-53318847D01*
X180833190Y-53975827D01*
X181053479Y-53691780D01*
X181446864Y-53252704D01*
X181842094Y-52957277D01*
X182152667Y-52817507D01*
X182739385Y-52696944D01*
X183303829Y-52727667D01*
X183824283Y-52894559D01*
X184279033Y-53182504D01*
X184646365Y-53576384D01*
X184904566Y-54061084D01*
X185031920Y-54621487D01*
X185041559Y-54828620D01*
X184967449Y-55433106D01*
X184744563Y-55957270D01*
X184375331Y-56397018D01*
X183920920Y-56716673D01*
X183631874Y-56858273D01*
X183366857Y-56933418D01*
X183045875Y-56961112D01*
X182883386Y-56963161D01*
X182523657Y-56950852D01*
X182258440Y-56901539D01*
X182014062Y-56797895D01*
X181893832Y-56730425D01*
X181601641Y-56520982D01*
X181307459Y-56252310D01*
X181185133Y-56116591D01*
X181004089Y-55911034D01*
X180858262Y-55772865D01*
X180794311Y-55736067D01*
X180700161Y-55766539D01*
X180478478Y-55850164D01*
X180158156Y-55975249D01*
X179768090Y-56130104D01*
X179337173Y-56303039D01*
X178894299Y-56482363D01*
X178468363Y-56656386D01*
X178088258Y-56813416D01*
X177782879Y-56941764D01*
X177581118Y-57029738D01*
X177513162Y-57063631D01*
X177528633Y-57147303D01*
X177609749Y-57324959D01*
X177661328Y-57420708D01*
X177774388Y-57643245D01*
X177839488Y-57812775D01*
X177845720Y-57849885D01*
X177800254Y-57957952D01*
X177677375Y-58170689D01*
X177497361Y-58454454D01*
X177337720Y-58692681D01*
X177129136Y-59002231D01*
X176962063Y-59259708D01*
X176856502Y-59433688D01*
X176829720Y-59490842D01*
X176886386Y-59569430D01*
X177040234Y-59740058D01*
X177267036Y-59976721D01*
X177512832Y-60224018D01*
X177790425Y-60493382D01*
X178026424Y-60711891D01*
X178194097Y-60855471D01*
X178264307Y-60900733D01*
X178358124Y-60855830D01*
X178559866Y-60734137D01*
X178838187Y-60555184D01*
X179106919Y-60375786D01*
X179881167Y-59850839D01*
X180323943Y-60003517D01*
X180666684Y-60132037D01*
X181018751Y-60279543D01*
X181147720Y-60338812D01*
X181528720Y-60521429D01*
X181694944Y-61473081D01*
X181861169Y-62424733D01*
X182892386Y-62424733D01*
X183370104Y-62419008D01*
X183696214Y-62400688D01*
X183888093Y-62368055D01*
X183963118Y-62319393D01*
X183963306Y-62318900D01*
X183993781Y-62195038D01*
X184044573Y-61944580D01*
X184107756Y-61607893D01*
X184155574Y-61339875D01*
X184220975Y-60968540D01*
X184283520Y-60704018D01*
X184370609Y-60516196D01*
X184509646Y-60374963D01*
X184728033Y-60250204D01*
X185053172Y-60111807D01*
X185397056Y-59975598D01*
X185878726Y-59784591D01*
X186679165Y-60342662D01*
X187002144Y-60563581D01*
X187276348Y-60743176D01*
X187471208Y-60861947D01*
X187554031Y-60900733D01*
X187639584Y-60843970D01*
X187816981Y-60689531D01*
X188060072Y-60461198D01*
X188334615Y-60190890D01*
X189040771Y-59481046D01*
X188442832Y-58616901D01*
X187844892Y-57752756D01*
X188001290Y-57358245D01*
X188130512Y-57033511D01*
X188263443Y-56701258D01*
X188299507Y-56611538D01*
X188359299Y-56465767D01*
X188420572Y-56360059D01*
X188511250Y-56282523D01*
X188659261Y-56221269D01*
X188892530Y-56164406D01*
X189238983Y-56100044D01*
X189677886Y-56024637D01*
X190545720Y-55875922D01*
X190545720Y-53802188D01*
X190312886Y-53756381D01*
G37*
X190312886Y-53756381D02*
X190125342Y-53720376D01*
X189824741Y-53663617D01*
X189464534Y-53596176D01*
X189318053Y-53568897D01*
X188970614Y-53496250D01*
X188683754Y-53421379D01*
X188500774Y-53356245D01*
X188463373Y-53332809D01*
X188390577Y-53213887D01*
X188278408Y-52980542D01*
X188147546Y-52676677D01*
X188106557Y-52575374D01*
X187842420Y-51912348D01*
X188450870Y-51028446D01*
X189059321Y-50144544D01*
X187598956Y-48684179D01*
X186807505Y-49230378D01*
X186483487Y-49453329D01*
X186207461Y-49642027D01*
X186011211Y-49774822D01*
X185930092Y-49828037D01*
X185819932Y-49818724D01*
X185593532Y-49751822D01*
X185288912Y-49639583D01*
X185083426Y-49555155D01*
X184322720Y-49230814D01*
X184217434Y-48652274D01*
X184146370Y-48270786D01*
X184070665Y-47878117D01*
X184020401Y-47626680D01*
X183928654Y-47179626D01*
X182902315Y-47203347D01*
X181875976Y-47227067D01*
X181698629Y-48200733D01*
X181521281Y-49174400D01*
X180708771Y-49504679D01*
X179896260Y-49834957D01*
X178251134Y-48687965D01*
X177540427Y-49394980D01*
X177263072Y-49675995D01*
X177036369Y-49915401D01*
X176884026Y-50087479D01*
X176829720Y-50165961D01*
X176875037Y-50257719D01*
X176997786Y-50456923D01*
X177178161Y-50732387D01*
X177354842Y-50992813D01*
X177879965Y-51755698D01*
X177688713Y-52149353D01*
X177592639Y-52382363D01*
X177554151Y-52551922D01*
X177565757Y-52602437D01*
X177661676Y-52651326D01*
X177889876Y-52753392D01*
X178225760Y-52898071D01*
X178644730Y-53074796D01*
X179122189Y-53273003D01*
X179233622Y-53318847D01*
X180833190Y-53975827D01*
X181053479Y-53691780D01*
X181446864Y-53252704D01*
X181842094Y-52957277D01*
X182152667Y-52817507D01*
X182739385Y-52696944D01*
X183303829Y-52727667D01*
X183824283Y-52894559D01*
X184279033Y-53182504D01*
X184646365Y-53576384D01*
X184904566Y-54061084D01*
X185031920Y-54621487D01*
X185041559Y-54828620D01*
X184967449Y-55433106D01*
X184744563Y-55957270D01*
X184375331Y-56397018D01*
X183920920Y-56716673D01*
X183631874Y-56858273D01*
X183366857Y-56933418D01*
X183045875Y-56961112D01*
X182883386Y-56963161D01*
X182523657Y-56950852D01*
X182258440Y-56901539D01*
X182014062Y-56797895D01*
X181893832Y-56730425D01*
X181601641Y-56520982D01*
X181307459Y-56252310D01*
X181185133Y-56116591D01*
X181004089Y-55911034D01*
X180858262Y-55772865D01*
X180794311Y-55736067D01*
X180700161Y-55766539D01*
X180478478Y-55850164D01*
X180158156Y-55975249D01*
X179768090Y-56130104D01*
X179337173Y-56303039D01*
X178894299Y-56482363D01*
X178468363Y-56656386D01*
X178088258Y-56813416D01*
X177782879Y-56941764D01*
X177581118Y-57029738D01*
X177513162Y-57063631D01*
X177528633Y-57147303D01*
X177609749Y-57324959D01*
X177661328Y-57420708D01*
X177774388Y-57643245D01*
X177839488Y-57812775D01*
X177845720Y-57849885D01*
X177800254Y-57957952D01*
X177677375Y-58170689D01*
X177497361Y-58454454D01*
X177337720Y-58692681D01*
X177129136Y-59002231D01*
X176962063Y-59259708D01*
X176856502Y-59433688D01*
X176829720Y-59490842D01*
X176886386Y-59569430D01*
X177040234Y-59740058D01*
X177267036Y-59976721D01*
X177512832Y-60224018D01*
X177790425Y-60493382D01*
X178026424Y-60711891D01*
X178194097Y-60855471D01*
X178264307Y-60900733D01*
X178358124Y-60855830D01*
X178559866Y-60734137D01*
X178838187Y-60555184D01*
X179106919Y-60375786D01*
X179881167Y-59850839D01*
X180323943Y-60003517D01*
X180666684Y-60132037D01*
X181018751Y-60279543D01*
X181147720Y-60338812D01*
X181528720Y-60521429D01*
X181694944Y-61473081D01*
X181861169Y-62424733D01*
X182892386Y-62424733D01*
X183370104Y-62419008D01*
X183696214Y-62400688D01*
X183888093Y-62368055D01*
X183963118Y-62319393D01*
X183963306Y-62318900D01*
X183993781Y-62195038D01*
X184044573Y-61944580D01*
X184107756Y-61607893D01*
X184155574Y-61339875D01*
X184220975Y-60968540D01*
X184283520Y-60704018D01*
X184370609Y-60516196D01*
X184509646Y-60374963D01*
X184728033Y-60250204D01*
X185053172Y-60111807D01*
X185397056Y-59975598D01*
X185878726Y-59784591D01*
X186679165Y-60342662D01*
X187002144Y-60563581D01*
X187276348Y-60743176D01*
X187471208Y-60861947D01*
X187554031Y-60900733D01*
X187639584Y-60843970D01*
X187816981Y-60689531D01*
X188060072Y-60461198D01*
X188334615Y-60190890D01*
X189040771Y-59481046D01*
X188442832Y-58616901D01*
X187844892Y-57752756D01*
X188001290Y-57358245D01*
X188130512Y-57033511D01*
X188263443Y-56701258D01*
X188299507Y-56611538D01*
X188359299Y-56465767D01*
X188420572Y-56360059D01*
X188511250Y-56282523D01*
X188659261Y-56221269D01*
X188892530Y-56164406D01*
X189238983Y-56100044D01*
X189677886Y-56024637D01*
X190545720Y-55875922D01*
X190545720Y-53802188D01*
X190312886Y-53756381D01*
G36*
X171244619Y-86725460D02*
G01*
X171140792Y-86568482D01*
X171032643Y-86442664D01*
X170901110Y-86344565D01*
X170727130Y-86270745D01*
X170491640Y-86217763D01*
X170175579Y-86182179D01*
X169759884Y-86160551D01*
X169225493Y-86149440D01*
X168553343Y-86145405D01*
X168028345Y-86144946D01*
X167319579Y-86145308D01*
X166759788Y-86147344D01*
X166328613Y-86152484D01*
X166005697Y-86162156D01*
X165770680Y-86177788D01*
X165603205Y-86200810D01*
X165482913Y-86232649D01*
X165389446Y-86274735D01*
X165302446Y-86328496D01*
X165289474Y-86337134D01*
X165156052Y-86427829D01*
X165044680Y-86516264D01*
X164953392Y-86617768D01*
X164880221Y-86747669D01*
X164823203Y-86921298D01*
X164780372Y-87153981D01*
X164749761Y-87461049D01*
X164729405Y-87857830D01*
X164717338Y-88359653D01*
X164711595Y-88981846D01*
X164710210Y-89739739D01*
X164711216Y-90648660D01*
X164711523Y-90843946D01*
X164713086Y-91733104D01*
X164715145Y-92465909D01*
X164718297Y-93055344D01*
X164723138Y-93514391D01*
X164730267Y-93856032D01*
X164740280Y-94093247D01*
X164753774Y-94239019D01*
X164771345Y-94306329D01*
X164793592Y-94308160D01*
X164821112Y-94257492D01*
X164854500Y-94167307D01*
X164863203Y-94141957D01*
X165088862Y-93609016D01*
X165389069Y-93155067D01*
X165793490Y-92726621D01*
X166327206Y-92303690D01*
X166885266Y-92023017D01*
X167335490Y-91893219D01*
X167594416Y-91819413D01*
X167686112Y-91749245D01*
X167612663Y-91688757D01*
X167376155Y-91643988D01*
X167245453Y-91632458D01*
X166864453Y-91605946D01*
X166864453Y-90859846D01*
X166945022Y-90860529D01*
X166945022Y-90208946D01*
X166922958Y-90132874D01*
X166917386Y-89937866D01*
X166923529Y-89775104D01*
X166949120Y-89341261D01*
X167835808Y-88839027D01*
X168181110Y-88642506D01*
X168468340Y-88477264D01*
X168667822Y-88360498D01*
X168749877Y-88309405D01*
X168750056Y-88309233D01*
X168691386Y-88260068D01*
X168511312Y-88145446D01*
X168236685Y-87981731D01*
X167894353Y-87785287D01*
X167842201Y-87755907D01*
X166906787Y-87230140D01*
X166906787Y-86814543D01*
X166918402Y-86576049D01*
X166948049Y-86426743D01*
X166970287Y-86401014D01*
X167060871Y-86441869D01*
X167273310Y-86554014D01*
X167582901Y-86723913D01*
X167964944Y-86938030D01*
X168346120Y-87154953D01*
X169658453Y-87906823D01*
X169683730Y-88282925D01*
X169709006Y-88659027D01*
X168350556Y-89433987D01*
X167918253Y-89679218D01*
X167537608Y-89892511D01*
X167232532Y-90060683D01*
X167026936Y-90170549D01*
X166945022Y-90208946D01*
X166945022Y-90860529D01*
X167310076Y-90863628D01*
X167589291Y-90885232D01*
X167810246Y-90936218D01*
X167884084Y-90973959D01*
X168028798Y-91037451D01*
X168220724Y-90985610D01*
X168225611Y-90983394D01*
X168433668Y-90927219D01*
X168726672Y-90892151D01*
X168895636Y-90886280D01*
X169234080Y-90919156D01*
X169452331Y-91034233D01*
X169572043Y-91256183D01*
X169614867Y-91609680D01*
X169616120Y-91707278D01*
X169625889Y-91976231D01*
X169670499Y-92132205D01*
X169772909Y-92231136D01*
X169848953Y-92274583D01*
X170053254Y-92416096D01*
X170304830Y-92638747D01*
X170573709Y-92909424D01*
X170829916Y-93195014D01*
X171043479Y-93462406D01*
X171184424Y-93678485D01*
X171224787Y-93794499D01*
X171180074Y-93773508D01*
X171063340Y-93643369D01*
X170914195Y-93451252D01*
X170709634Y-93208702D01*
X170460491Y-92961826D01*
X170199895Y-92737521D01*
X169960977Y-92562681D01*
X169776869Y-92464202D01*
X169691270Y-92458495D01*
X169658696Y-92558114D01*
X169633240Y-92787240D01*
X169618439Y-93106080D01*
X169616120Y-93304277D01*
X169616120Y-94103613D01*
X169028999Y-94103613D01*
X169005060Y-93151113D01*
X168981120Y-92198613D01*
X168705953Y-92172082D01*
X168430787Y-92145551D01*
X168430787Y-94103613D01*
X166812384Y-94103613D01*
X166838419Y-93743780D01*
X166864453Y-93383946D01*
X167753453Y-93332764D01*
X167753453Y-92222589D01*
X167520620Y-92279893D01*
X167069449Y-92460385D01*
X166607865Y-92765842D01*
X166179538Y-93160764D01*
X165828139Y-93609652D01*
X165771549Y-93701730D01*
X165481437Y-94352305D01*
X165343025Y-95030849D01*
X165349000Y-95713461D01*
X165492051Y-96376242D01*
X165764866Y-96995293D01*
X166160133Y-97546713D01*
X166670541Y-98006604D01*
X167179242Y-98303001D01*
X167375158Y-98390977D01*
X167375158Y-98167613D01*
X167114488Y-98103593D01*
X166939350Y-97906668D01*
X166845339Y-97569547D01*
X166825510Y-97257446D01*
X166822120Y-96812946D01*
X167118453Y-96812946D01*
X167317502Y-96827027D01*
X167399145Y-96898948D01*
X167414787Y-97069604D01*
X167454506Y-97277253D01*
X167541787Y-97374995D01*
X167634588Y-97493427D01*
X167668516Y-97760812D01*
X167668787Y-97795672D01*
X167661923Y-98026157D01*
X167616790Y-98133950D01*
X167496572Y-98165682D01*
X167375158Y-98167613D01*
X167375158Y-98390977D01*
X167376455Y-98391560D01*
X167547556Y-98455780D01*
X167724592Y-98499569D01*
X167939613Y-98526838D01*
X168224667Y-98541494D01*
X168611805Y-98547449D01*
X168759035Y-98547776D01*
X168759035Y-98167613D01*
X168449561Y-98162689D01*
X168262995Y-98137682D01*
X168152976Y-98077242D01*
X168073145Y-97966018D01*
X168055881Y-97934780D01*
X167980876Y-97711997D01*
X167933821Y-97410707D01*
X167926177Y-97257446D01*
X167922787Y-96812946D01*
X168219120Y-96812946D01*
X168421146Y-96830185D01*
X168503901Y-96902525D01*
X168515453Y-96993258D01*
X168515453Y-96220280D01*
X168224485Y-96220280D01*
X168025561Y-96203831D01*
X167938079Y-96121581D01*
X167906985Y-95945807D01*
X167836571Y-95721992D01*
X167709925Y-95628584D01*
X167569426Y-95658334D01*
X167457453Y-95803993D01*
X167416083Y-96029780D01*
X167388384Y-96159578D01*
X167275496Y-96212461D01*
X167118453Y-96220280D01*
X166822120Y-96220280D01*
X166822120Y-95759334D01*
X166842118Y-95439541D01*
X166915343Y-95216715D01*
X167021152Y-95067001D01*
X167152753Y-94935569D01*
X167294670Y-94868967D01*
X167505919Y-94849123D01*
X167719652Y-94853130D01*
X168088356Y-94893498D01*
X168326171Y-95002101D01*
X168458587Y-95206760D01*
X168511095Y-95535294D01*
X168515453Y-95721660D01*
X168515453Y-96220280D01*
X168515453Y-96993258D01*
X168516750Y-97003446D01*
X168567397Y-97256203D01*
X168686675Y-97388137D01*
X168831951Y-97393985D01*
X168960589Y-97268487D01*
X169023453Y-97065985D01*
X169066276Y-96869443D01*
X169150294Y-96796271D01*
X169311261Y-96799825D01*
X169311261Y-96220280D01*
X169115831Y-96204864D01*
X169037189Y-96128742D01*
X169023453Y-95971277D01*
X168997355Y-95775748D01*
X168938787Y-95669946D01*
X168887657Y-95560437D01*
X168857530Y-95345314D01*
X168854120Y-95236252D01*
X168859998Y-95002601D01*
X168899773Y-94895450D01*
X169006663Y-94871966D01*
X169129287Y-94881415D01*
X169389704Y-94982339D01*
X169560643Y-95217427D01*
X169634655Y-95572704D01*
X169630742Y-95822045D01*
X169604903Y-96062820D01*
X169553915Y-96179521D01*
X169441750Y-96217058D01*
X169311261Y-96220280D01*
X169311261Y-96799825D01*
X169319787Y-96800014D01*
X169506614Y-96827610D01*
X169598016Y-96852465D01*
X169612086Y-96942496D01*
X169623278Y-97151246D01*
X169627996Y-97356992D01*
X169609338Y-97723065D01*
X169524840Y-97961750D01*
X169347419Y-98098313D01*
X169049990Y-98158019D01*
X168759035Y-98167613D01*
X168759035Y-98547776D01*
X169133075Y-98548610D01*
X169192787Y-98548613D01*
X169779707Y-98545643D01*
X170223877Y-98531708D01*
X170551847Y-98499275D01*
X170790165Y-98440809D01*
X170965380Y-98348775D01*
X171104040Y-98215639D01*
X171232696Y-98033867D01*
X171267120Y-97978498D01*
X171267120Y-94018946D01*
X171224787Y-93976613D01*
X171267120Y-93934280D01*
X171309453Y-93976613D01*
X171267120Y-94018946D01*
X171267120Y-97978498D01*
X171281141Y-97955946D01*
X171312737Y-97896654D01*
X171339745Y-97821426D01*
X171362524Y-97717377D01*
X171381431Y-97571625D01*
X171396824Y-97371285D01*
X171409061Y-97103473D01*
X171418502Y-96755304D01*
X171425503Y-96313895D01*
X171430423Y-95766361D01*
X171433619Y-95099818D01*
X171435451Y-94301382D01*
X171436276Y-93358170D01*
X171436453Y-92367946D01*
X171436453Y-87033946D01*
X171244619Y-86725460D01*
G37*
X171244619Y-86725460D02*
X171140792Y-86568482D01*
X171032643Y-86442664D01*
X170901110Y-86344565D01*
X170727130Y-86270745D01*
X170491640Y-86217763D01*
X170175579Y-86182179D01*
X169759884Y-86160551D01*
X169225493Y-86149440D01*
X168553343Y-86145405D01*
X168028345Y-86144946D01*
X167319579Y-86145308D01*
X166759788Y-86147344D01*
X166328613Y-86152484D01*
X166005697Y-86162156D01*
X165770680Y-86177788D01*
X165603205Y-86200810D01*
X165482913Y-86232649D01*
X165389446Y-86274735D01*
X165302446Y-86328496D01*
X165289474Y-86337134D01*
X165156052Y-86427829D01*
X165044680Y-86516264D01*
X164953392Y-86617768D01*
X164880221Y-86747669D01*
X164823203Y-86921298D01*
X164780372Y-87153981D01*
X164749761Y-87461049D01*
X164729405Y-87857830D01*
X164717338Y-88359653D01*
X164711595Y-88981846D01*
X164710210Y-89739739D01*
X164711216Y-90648660D01*
X164711523Y-90843946D01*
X164713086Y-91733104D01*
X164715145Y-92465909D01*
X164718297Y-93055344D01*
X164723138Y-93514391D01*
X164730267Y-93856032D01*
X164740280Y-94093247D01*
X164753774Y-94239019D01*
X164771345Y-94306329D01*
X164793592Y-94308160D01*
X164821112Y-94257492D01*
X164854500Y-94167307D01*
X164863203Y-94141957D01*
X165088862Y-93609016D01*
X165389069Y-93155067D01*
X165793490Y-92726621D01*
X166327206Y-92303690D01*
X166885266Y-92023017D01*
X167335490Y-91893219D01*
X167594416Y-91819413D01*
X167686112Y-91749245D01*
X167612663Y-91688757D01*
X167376155Y-91643988D01*
X167245453Y-91632458D01*
X166864453Y-91605946D01*
X166864453Y-90859846D01*
X166945022Y-90860529D01*
X166945022Y-90208946D01*
X166922958Y-90132874D01*
X166917386Y-89937866D01*
X166923529Y-89775104D01*
X166949120Y-89341261D01*
X167835808Y-88839027D01*
X168181110Y-88642506D01*
X168468340Y-88477264D01*
X168667822Y-88360498D01*
X168749877Y-88309405D01*
X168750056Y-88309233D01*
X168691386Y-88260068D01*
X168511312Y-88145446D01*
X168236685Y-87981731D01*
X167894353Y-87785287D01*
X167842201Y-87755907D01*
X166906787Y-87230140D01*
X166906787Y-86814543D01*
X166918402Y-86576049D01*
X166948049Y-86426743D01*
X166970287Y-86401014D01*
X167060871Y-86441869D01*
X167273310Y-86554014D01*
X167582901Y-86723913D01*
X167964944Y-86938030D01*
X168346120Y-87154953D01*
X169658453Y-87906823D01*
X169683730Y-88282925D01*
X169709006Y-88659027D01*
X168350556Y-89433987D01*
X167918253Y-89679218D01*
X167537608Y-89892511D01*
X167232532Y-90060683D01*
X167026936Y-90170549D01*
X166945022Y-90208946D01*
X166945022Y-90860529D01*
X167310076Y-90863628D01*
X167589291Y-90885232D01*
X167810246Y-90936218D01*
X167884084Y-90973959D01*
X168028798Y-91037451D01*
X168220724Y-90985610D01*
X168225611Y-90983394D01*
X168433668Y-90927219D01*
X168726672Y-90892151D01*
X168895636Y-90886280D01*
X169234080Y-90919156D01*
X169452331Y-91034233D01*
X169572043Y-91256183D01*
X169614867Y-91609680D01*
X169616120Y-91707278D01*
X169625889Y-91976231D01*
X169670499Y-92132205D01*
X169772909Y-92231136D01*
X169848953Y-92274583D01*
X170053254Y-92416096D01*
X170304830Y-92638747D01*
X170573709Y-92909424D01*
X170829916Y-93195014D01*
X171043479Y-93462406D01*
X171184424Y-93678485D01*
X171224787Y-93794499D01*
X171180074Y-93773508D01*
X171063340Y-93643369D01*
X170914195Y-93451252D01*
X170709634Y-93208702D01*
X170460491Y-92961826D01*
X170199895Y-92737521D01*
X169960977Y-92562681D01*
X169776869Y-92464202D01*
X169691270Y-92458495D01*
X169658696Y-92558114D01*
X169633240Y-92787240D01*
X169618439Y-93106080D01*
X169616120Y-93304277D01*
X169616120Y-94103613D01*
X169028999Y-94103613D01*
X169005060Y-93151113D01*
X168981120Y-92198613D01*
X168705953Y-92172082D01*
X168430787Y-92145551D01*
X168430787Y-94103613D01*
X166812384Y-94103613D01*
X166838419Y-93743780D01*
X166864453Y-93383946D01*
X167753453Y-93332764D01*
X167753453Y-92222589D01*
X167520620Y-92279893D01*
X167069449Y-92460385D01*
X166607865Y-92765842D01*
X166179538Y-93160764D01*
X165828139Y-93609652D01*
X165771549Y-93701730D01*
X165481437Y-94352305D01*
X165343025Y-95030849D01*
X165349000Y-95713461D01*
X165492051Y-96376242D01*
X165764866Y-96995293D01*
X166160133Y-97546713D01*
X166670541Y-98006604D01*
X167179242Y-98303001D01*
X167375158Y-98390977D01*
X167375158Y-98167613D01*
X167114488Y-98103593D01*
X166939350Y-97906668D01*
X166845339Y-97569547D01*
X166825510Y-97257446D01*
X166822120Y-96812946D01*
X167118453Y-96812946D01*
X167317502Y-96827027D01*
X167399145Y-96898948D01*
X167414787Y-97069604D01*
X167454506Y-97277253D01*
X167541787Y-97374995D01*
X167634588Y-97493427D01*
X167668516Y-97760812D01*
X167668787Y-97795672D01*
X167661923Y-98026157D01*
X167616790Y-98133950D01*
X167496572Y-98165682D01*
X167375158Y-98167613D01*
X167375158Y-98390977D01*
X167376455Y-98391560D01*
X167547556Y-98455780D01*
X167724592Y-98499569D01*
X167939613Y-98526838D01*
X168224667Y-98541494D01*
X168611805Y-98547449D01*
X168759035Y-98547776D01*
X168759035Y-98167613D01*
X168449561Y-98162689D01*
X168262995Y-98137682D01*
X168152976Y-98077242D01*
X168073145Y-97966018D01*
X168055881Y-97934780D01*
X167980876Y-97711997D01*
X167933821Y-97410707D01*
X167926177Y-97257446D01*
X167922787Y-96812946D01*
X168219120Y-96812946D01*
X168421146Y-96830185D01*
X168503901Y-96902525D01*
X168515453Y-96993258D01*
X168515453Y-96220280D01*
X168224485Y-96220280D01*
X168025561Y-96203831D01*
X167938079Y-96121581D01*
X167906985Y-95945807D01*
X167836571Y-95721992D01*
X167709925Y-95628584D01*
X167569426Y-95658334D01*
X167457453Y-95803993D01*
X167416083Y-96029780D01*
X167388384Y-96159578D01*
X167275496Y-96212461D01*
X167118453Y-96220280D01*
X166822120Y-96220280D01*
X166822120Y-95759334D01*
X166842118Y-95439541D01*
X166915343Y-95216715D01*
X167021152Y-95067001D01*
X167152753Y-94935569D01*
X167294670Y-94868967D01*
X167505919Y-94849123D01*
X167719652Y-94853130D01*
X168088356Y-94893498D01*
X168326171Y-95002101D01*
X168458587Y-95206760D01*
X168511095Y-95535294D01*
X168515453Y-95721660D01*
X168515453Y-96220280D01*
X168515453Y-96993258D01*
X168516750Y-97003446D01*
X168567397Y-97256203D01*
X168686675Y-97388137D01*
X168831951Y-97393985D01*
X168960589Y-97268487D01*
X169023453Y-97065985D01*
X169066276Y-96869443D01*
X169150294Y-96796271D01*
X169311261Y-96799825D01*
X169311261Y-96220280D01*
X169115831Y-96204864D01*
X169037189Y-96128742D01*
X169023453Y-95971277D01*
X168997355Y-95775748D01*
X168938787Y-95669946D01*
X168887657Y-95560437D01*
X168857530Y-95345314D01*
X168854120Y-95236252D01*
X168859998Y-95002601D01*
X168899773Y-94895450D01*
X169006663Y-94871966D01*
X169129287Y-94881415D01*
X169389704Y-94982339D01*
X169560643Y-95217427D01*
X169634655Y-95572704D01*
X169630742Y-95822045D01*
X169604903Y-96062820D01*
X169553915Y-96179521D01*
X169441750Y-96217058D01*
X169311261Y-96220280D01*
X169311261Y-96799825D01*
X169319787Y-96800014D01*
X169506614Y-96827610D01*
X169598016Y-96852465D01*
X169612086Y-96942496D01*
X169623278Y-97151246D01*
X169627996Y-97356992D01*
X169609338Y-97723065D01*
X169524840Y-97961750D01*
X169347419Y-98098313D01*
X169049990Y-98158019D01*
X168759035Y-98167613D01*
X168759035Y-98547776D01*
X169133075Y-98548610D01*
X169192787Y-98548613D01*
X169779707Y-98545643D01*
X170223877Y-98531708D01*
X170551847Y-98499275D01*
X170790165Y-98440809D01*
X170965380Y-98348775D01*
X171104040Y-98215639D01*
X171232696Y-98033867D01*
X171267120Y-97978498D01*
X171267120Y-94018946D01*
X171224787Y-93976613D01*
X171267120Y-93934280D01*
X171309453Y-93976613D01*
X171267120Y-94018946D01*
X171267120Y-97978498D01*
X171281141Y-97955946D01*
X171312737Y-97896654D01*
X171339745Y-97821426D01*
X171362524Y-97717377D01*
X171381431Y-97571625D01*
X171396824Y-97371285D01*
X171409061Y-97103473D01*
X171418502Y-96755304D01*
X171425503Y-96313895D01*
X171430423Y-95766361D01*
X171433619Y-95099818D01*
X171435451Y-94301382D01*
X171436276Y-93358170D01*
X171436453Y-92367946D01*
X171436453Y-87033946D01*
X171244619Y-86725460D01*
G36*
X168969405Y-91775280D02*
G01*
X168858400Y-91681853D01*
X168677856Y-91648851D01*
X168517805Y-91685816D01*
X168479069Y-91723321D01*
X168511346Y-91798859D01*
X168622239Y-91849165D01*
X168866376Y-91896959D01*
X168974287Y-91867736D01*
X168969405Y-91775280D01*
G37*
X168969405Y-91775280D02*
X168858400Y-91681853D01*
X168677856Y-91648851D01*
X168517805Y-91685816D01*
X168479069Y-91723321D01*
X168511346Y-91798859D01*
X168622239Y-91849165D01*
X168866376Y-91896959D01*
X168974287Y-91867736D01*
X168969405Y-91775280D01*
D15*
%TO.C,JP1*%
X117325600Y-115039900D02*
X114525600Y-115039900D01*
X114525600Y-115039900D02*
X114525600Y-117039900D01*
X114525600Y-117039900D02*
X117325600Y-117039900D01*
X117325600Y-117039900D02*
X117325600Y-115039900D01*
D16*
%TO.C,U8*%
X175611340Y-134422940D02*
X177161340Y-132872940D01*
X175611340Y-128522940D02*
X177161340Y-130072940D01*
X177161340Y-130072940D02*
X177161340Y-132872940D01*
X175611340Y-134422940D02*
X173181340Y-134422940D01*
X173181340Y-128522940D02*
X175611340Y-128522940D01*
X168011340Y-128522940D02*
X170841340Y-128522940D01*
X166861340Y-134422940D02*
X170841340Y-134422940D01*
X166861340Y-129672940D02*
X166861340Y-134422940D01*
%TO.C,U4*%
X200821700Y-74365580D02*
X202371700Y-72815580D01*
X200821700Y-68465580D02*
X202371700Y-70015580D01*
X202371700Y-70015580D02*
X202371700Y-72815580D01*
X200821700Y-74365580D02*
X198391700Y-74365580D01*
X198391700Y-68465580D02*
X200821700Y-68465580D01*
X193221700Y-68465580D02*
X196051700Y-68465580D01*
X192071700Y-74365580D02*
X196051700Y-74365580D01*
X192071700Y-69615580D02*
X192071700Y-74365580D01*
%TO.C,U3*%
X167008660Y-49574040D02*
X167008660Y-54324040D01*
X167008660Y-54324040D02*
X170988660Y-54324040D01*
X168158660Y-48424040D02*
X170988660Y-48424040D01*
X173328660Y-48424040D02*
X175758660Y-48424040D01*
X175758660Y-54324040D02*
X173328660Y-54324040D01*
X177308660Y-49974040D02*
X177308660Y-52774040D01*
X175758660Y-48424040D02*
X177308660Y-49974040D01*
X175758660Y-54324040D02*
X177308660Y-52774040D01*
%TO.C,U6*%
X196807940Y-89764460D02*
X196807940Y-94514460D01*
X196807940Y-94514460D02*
X200787940Y-94514460D01*
X197957940Y-88614460D02*
X200787940Y-88614460D01*
X203127940Y-88614460D02*
X205557940Y-88614460D01*
X205557940Y-94514460D02*
X203127940Y-94514460D01*
X207107940Y-90164460D02*
X207107940Y-92964460D01*
X205557940Y-88614460D02*
X207107940Y-90164460D01*
X205557940Y-94514460D02*
X207107940Y-92964460D01*
%TO.C,U7*%
X191970100Y-109645980D02*
X191970100Y-114395980D01*
X191970100Y-114395980D02*
X195950100Y-114395980D01*
X193120100Y-108495980D02*
X195950100Y-108495980D01*
X198290100Y-108495980D02*
X200720100Y-108495980D01*
X200720100Y-114395980D02*
X198290100Y-114395980D01*
X202270100Y-110045980D02*
X202270100Y-112845980D01*
X200720100Y-108495980D02*
X202270100Y-110045980D01*
X200720100Y-114395980D02*
X202270100Y-112845980D01*
%TO.C,JP1*%
D13*
X116758933Y-113692280D02*
X116758933Y-114406566D01*
X116806552Y-114549423D01*
X116901790Y-114644661D01*
X117044647Y-114692280D01*
X117139885Y-114692280D01*
X116282742Y-114692280D02*
X116282742Y-113692280D01*
X115901790Y-113692280D01*
X115806552Y-113739900D01*
X115758933Y-113787519D01*
X115711314Y-113882757D01*
X115711314Y-114025614D01*
X115758933Y-114120852D01*
X115806552Y-114168471D01*
X115901790Y-114216090D01*
X116282742Y-114216090D01*
X114758933Y-114692280D02*
X115330361Y-114692280D01*
X115044647Y-114692280D02*
X115044647Y-113692280D01*
X115139885Y-113835138D01*
X115235123Y-113930376D01*
X115330361Y-113977995D01*
%TO.C,U8*%
X172684948Y-126564421D02*
X172684948Y-127377285D01*
X172637132Y-127472916D01*
X172589317Y-127520731D01*
X172493686Y-127568547D01*
X172302424Y-127568547D01*
X172206793Y-127520731D01*
X172158977Y-127472916D01*
X172111162Y-127377285D01*
X172111162Y-126564421D01*
X171489560Y-126994761D02*
X171585191Y-126946945D01*
X171633006Y-126899130D01*
X171680822Y-126803499D01*
X171680822Y-126755683D01*
X171633006Y-126660052D01*
X171585191Y-126612237D01*
X171489560Y-126564421D01*
X171298298Y-126564421D01*
X171202667Y-126612237D01*
X171154851Y-126660052D01*
X171107036Y-126755683D01*
X171107036Y-126803499D01*
X171154851Y-126899130D01*
X171202667Y-126946945D01*
X171298298Y-126994761D01*
X171489560Y-126994761D01*
X171585191Y-127042576D01*
X171633006Y-127090392D01*
X171680822Y-127186023D01*
X171680822Y-127377285D01*
X171633006Y-127472916D01*
X171585191Y-127520731D01*
X171489560Y-127568547D01*
X171298298Y-127568547D01*
X171202667Y-127520731D01*
X171154851Y-127472916D01*
X171107036Y-127377285D01*
X171107036Y-127186023D01*
X171154851Y-127090392D01*
X171202667Y-127042576D01*
X171298298Y-126994761D01*
%TO.C,U4*%
X197869048Y-66201321D02*
X197869048Y-67014185D01*
X197821232Y-67109816D01*
X197773417Y-67157631D01*
X197677786Y-67205447D01*
X197486524Y-67205447D01*
X197390893Y-67157631D01*
X197343077Y-67109816D01*
X197295262Y-67014185D01*
X197295262Y-66201321D01*
X196386767Y-66536030D02*
X196386767Y-67205447D01*
X196625844Y-66153505D02*
X196864922Y-66870738D01*
X196243320Y-66870738D01*
%TO.C,U3*%
X173002448Y-46579821D02*
X173002448Y-47392685D01*
X172954632Y-47488316D01*
X172906817Y-47536131D01*
X172811186Y-47583947D01*
X172619924Y-47583947D01*
X172524293Y-47536131D01*
X172476477Y-47488316D01*
X172428662Y-47392685D01*
X172428662Y-46579821D01*
X172046137Y-46579821D02*
X171424536Y-46579821D01*
X171759244Y-46962345D01*
X171615798Y-46962345D01*
X171520167Y-47010161D01*
X171472351Y-47057976D01*
X171424536Y-47153607D01*
X171424536Y-47392685D01*
X171472351Y-47488316D01*
X171520167Y-47536131D01*
X171615798Y-47583947D01*
X171902691Y-47583947D01*
X171998322Y-47536131D01*
X172046137Y-47488316D01*
%TO.C,U6*%
X202822048Y-86267321D02*
X202822048Y-87080185D01*
X202774232Y-87175816D01*
X202726417Y-87223631D01*
X202630786Y-87271447D01*
X202439524Y-87271447D01*
X202343893Y-87223631D01*
X202296077Y-87175816D01*
X202248262Y-87080185D01*
X202248262Y-86267321D01*
X201339767Y-86267321D02*
X201531029Y-86267321D01*
X201626660Y-86315137D01*
X201674475Y-86362952D01*
X201770106Y-86506399D01*
X201817922Y-86697661D01*
X201817922Y-87080185D01*
X201770106Y-87175816D01*
X201722291Y-87223631D01*
X201626660Y-87271447D01*
X201435398Y-87271447D01*
X201339767Y-87223631D01*
X201291951Y-87175816D01*
X201244136Y-87080185D01*
X201244136Y-86841107D01*
X201291951Y-86745476D01*
X201339767Y-86697661D01*
X201435398Y-86649845D01*
X201626660Y-86649845D01*
X201722291Y-86697661D01*
X201770106Y-86745476D01*
X201817922Y-86841107D01*
%TO.C,U7*%
X197881748Y-106536521D02*
X197881748Y-107349385D01*
X197833932Y-107445016D01*
X197786117Y-107492831D01*
X197690486Y-107540647D01*
X197499224Y-107540647D01*
X197403593Y-107492831D01*
X197355777Y-107445016D01*
X197307962Y-107349385D01*
X197307962Y-106536521D01*
X196925437Y-106536521D02*
X196256020Y-106536521D01*
X196686360Y-107540647D01*
%TD*%
M02*
